<?xml version="1.0" standalone="no"?>
<!DOCTYPE svg PUBLIC "-//W3C//DTD SVG 1.1//EN" "http://www.w3.org/Graphics/SVG/1.1/DTD/svg11.dtd" >
<svg>
<metadata>
Created by FontForge 20090914 at Wed Jul  7 09:50:08 2021
 By www-data
Copyright 2019 The Ruda Project Authors (https://github.com/marmonsalve/Ruda-new)
</metadata>
<defs>
<font id="Ruda-Regular" horiz-adv-x="295" >
  <font-face 
    font-family="Ruda"
    font-weight="400"
    font-stretch="normal"
    units-per-em="1000"
    panose-1="2 0 0 0 0 0 0 0 0 0"
    ascent="800"
    descent="-200"
    x-height="582"
    cap-height="695"
    bbox="-47 -233.005 894 1030"
    underline-thickness="50"
    underline-position="-75"
    unicode-range="U+000D-U+2260"
  />
<missing-glyph horiz-adv-x="276" 
 />
    <glyph glyph-name=".notdef" horiz-adv-x="276" 
 />
    <glyph glyph-name="CR" unicode="&#xd;" horiz-adv-x="250" 
 />
    <glyph glyph-name="space" unicode=" " horiz-adv-x="240" 
 />
    <glyph glyph-name="exclam" unicode="!" horiz-adv-x="268" 
d="M102 190l-14 505h93l-15 -505h-64zM80 0v89h108v-89h-108z" />
    <glyph glyph-name="quotedbl" unicode="&#x22;" horiz-adv-x="339" 
d="M213 478l-14 217v18h84v-19l-17 -216h-53zM70 478l-14 217v18h83v-19l-16 -216h-53z" />
    <glyph glyph-name="numbersign" unicode="#" horiz-adv-x="546" 
d="M76 0l31 199h-82v71h93l24 151h-83v72h94l32 202h72l-32 -202h128l32 202h73l-32 -202h83v-72h-94l-24 -151h83v-71h-94l-31 -199h-72l31 199h-128l-31 -199h-73zM191 270h128l23 151h-128z" />
    <glyph glyph-name="dollar" unicode="$" horiz-adv-x="512" 
d="M218 -117l0.00488281 105.997c-32.667 3.33301 -62.834 10 -90.501 20s-49.834 19.5 -66.501 28.5l-25 13.5l4.5 10.5l10.5 24l10.5 23.5l4.5 10l16.5 -8.5c11 -5.66699 25.833 -12 44.5 -19s40 -13.333 64 -19s49 -8.5 75 -8.5c16.667 0 29.834 1.5 39.501 4.5
s16.5 5.83301 20.5 8.5c13.333 9.33301 23.666 22.166 30.999 38.499s11 37.5 11 63.5c0 24.667 -5.33301 45.334 -16 62.001s-24.834 30.667 -42.501 42s-36.834 21.333 -57.501 30l-75 35c-23.333 11.333 -44 24.5 -62 39.5s-32 33.5 -42 55.5s-15 49.333 -15 82
c0 45.333 13.5 84.666 40.5 117.999s67.5 54 121.5 62v97h74v-95c24.667 -1.33301 47 -3.66602 67 -6.99902s36 -6.5 48 -9.5l18 -4.5l-14 -72l-14 2.5l-38 6.5c-16 2.66699 -34 4.83398 -54 6.50098s-40.333 2.5 -61 2.5c-16.667 0 -29.667 -1 -39 -3
s-17.666 -5.33301 -24.999 -10c-8.66699 -4.66699 -16.834 -14.167 -24.501 -28.5s-11.5 -33.5 -11.5 -57.5c0 -27.333 7 -49.666 21 -66.999s32.333 -31.5 55 -42.5s46.334 -21.833 71.001 -32.5c20 -8 39.667 -17.167 59 -27.5s36.666 -22.833 51.999 -37.5
s27.666 -33 36.999 -55s14 -49 14 -81c0 -53.333 -15 -97.666 -45 -132.999s-69.667 -57.333 -119 -66v-108h-73z" />
    <glyph glyph-name="percent" unicode="%" horiz-adv-x="799" 
d="M188 -9l186 391l156 351h74l-177 -382l-164 -360h-75zM203 407c-24.667 0 -48.5 5 -71.5 15s-41.833 26 -56.5 48s-22 51.333 -22 88s7.33301 65.834 22 87.501s33.5 37.334 56.5 47.001s46.833 14.5 71.5 14.5s48.5 -4.83301 71.5 -14.5s41.833 -25.334 56.5 -47.001
s22 -50.834 22 -87.501s-7.33301 -66 -22 -88s-33.5 -38 -56.5 -48s-46.833 -15 -71.5 -15zM203 474c23.333 0 42.5 6 57.5 18s22.5 34 22.5 66c0 31.333 -7.5 52.833 -22.5 64.5s-34.167 17.5 -57.5 17.5s-42.5 -5.83301 -57.5 -17.5s-22.5 -33.167 -22.5 -64.5
c0 -32 7.5 -54 22.5 -66s34.167 -18 57.5 -18zM596 -7c-25.333 0 -49.5 5 -72.5 15s-41.833 26 -56.5 48s-22 51.333 -22 88s7.33301 65.834 22 87.501s33.5 37.334 56.5 47.001s47.167 14.5 72.5 14.5c24.667 0 48.5 -4.83301 71.5 -14.5s41.833 -25.334 56.5 -47.001
s22 -50.834 22 -87.501s-7.33301 -66 -22 -88s-33.5 -38 -56.5 -48s-46.833 -15 -71.5 -15zM596 60c23.333 0 42.333 6 57 18s22 34 22 66c0 31.333 -7.33301 52.833 -22 64.5s-33.667 17.5 -57 17.5c-24 0 -43.333 -5.83301 -58 -17.5s-22 -33.167 -22 -64.5
c0 -32 7.33301 -54 22 -66s34 -18 58 -18z" />
    <glyph glyph-name="ampersand" unicode="&#x26;" horiz-adv-x="646" 
d="M251 -13c-44.667 0 -82.833 10.002 -114.5 30.002s-55.834 45.333 -72.501 76s-25 62 -25 94c0 26 5 49.5 15 70.5s22.833 39.5 38.5 55.5s31.834 29.333 48.501 40s32 19 46 25c-14 8.66699 -28.5 20.334 -43.5 35.001s-27.833 32.667 -38.5 54s-16 45.666 -16 72.999
c0 31.333 7 59.666 21 84.999s34.5 45.5 61.5 60.5s59.833 22.5 98.5 22.5c41.333 0 75 -8 101 -24s45 -36.5 57 -61.5s18 -51.167 18 -78.5c0 -32 -6.66699 -59 -20 -81s-28.666 -39.833 -45.999 -53.5s-32.666 -23.834 -45.999 -30.501
c34.667 -24.667 63.167 -47.5 85.5 -68.5s43.833 -44.167 64.5 -69.5c14 23.333 25.667 45.166 35 65.499s16.333 36.833 21 49.5l7 19l71 -23l-10.5 -25.5c-7 -17 -17 -38.667 -30 -65s-28.833 -54.166 -47.5 -83.499c25.333 -38.667 44.666 -74.334 57.999 -107.001
s23.666 -59.667 30.999 -81l-80 -3c-2.66699 8.66699 -9.16699 24.5 -19.5 47.5s-23.5 48.167 -39.5 75.5c-32 -37.333 -66.833 -67.166 -104.5 -89.499s-79.167 -33.5 -124.5 -33.5zM254.001 59.002c37.333 0 71.5 11.333 102.5 34s58.5 49.667 82.5 81
c-27.333 37.333 -56.5 69.833 -87.5 97.5s-61.833 50.5 -92.5 68.5c-23.333 -8 -45 -20 -65 -36s-36.167 -34.5 -48.5 -55.5s-18.5 -43.833 -18.5 -68.5c0 -33.333 11.667 -61.833 35 -85.5s54 -35.5 92 -35.5zM264.001 414.002c25.333 10.667 47.832 26.834 67.499 48.501
s29.5 49.5 29.5 83.5c0 25.333 -7 47.166 -21 65.499s-38.667 27.5 -74 27.5c-33.333 0 -57.166 -8.83301 -71.499 -26.5s-21.5 -40.167 -21.5 -67.5c0 -32 8.16699 -58.333 24.5 -79s38.5 -38 66.5 -52z" />
    <glyph glyph-name="quotesingle" unicode="'" horiz-adv-x="195" 
d="M70 478l-14 217v18h83v-19l-16 -216h-53z" />
    <glyph glyph-name="parenleft" unicode="(" horiz-adv-x="316" 
d="M247 -124c-30.667 18.667 -59.667 46.1689 -87 82.502s-49.333 84.666 -66 144.999s-25 135.5 -25 225.5c0 91.333 8.33301 167.166 25 227.499s38.667 108.5 66 144.5s56.333 63.333 87 82l38 -53c-47.333 -30 -81 -79.5 -101 -148.5s-30 -153.167 -30 -252.5
c0 -98 10 -181.667 30 -251s53.667 -119.333 101 -150z" />
    <glyph glyph-name="parenright" unicode=")" horiz-adv-x="316" 
d="M68 -124l-37 51.998c47.333 30.667 81 80.667 101 150s30 153 30 251c0 99.333 -10 183.5 -30 252.5s-53.667 118.5 -101 148.5l37 53c31.333 -18.667 60.666 -46 87.999 -82s49.333 -84.167 66 -144.5s25 -136.166 25 -227.499c0 -90 -8.33301 -165.167 -25 -225.5
s-38.667 -108.666 -66 -144.999s-56.666 -63.833 -87.999 -82.5z" />
    <glyph glyph-name="asterisk" unicode="*" horiz-adv-x="414" 
d="M129 374l-64 55l13 14l89 84l-113 19l-18 6l26 83l19 -7l99 -50l-16 110v19h86v-19l-17 -110l100 50l18 7l27 -83l-19 -6l-114 -19l88 -84l14 -14l-65 -55l-11 15l-65 104l-66 -104z" />
    <glyph glyph-name="plus" unicode="+" horiz-adv-x="621" 
d="M273 32v226h-221v70h221v225h74v-225h222v-70h-222v-226h-74z" />
    <glyph glyph-name="comma" unicode="," horiz-adv-x="270" 
d="M102 -166l-39.999 29c11.333 13.333 19.5 27.833 24.5 43.5s7.5 34.834 7.5 57.501v120h82v-70c-0.666992 -46.667 -8.33398 -84.334 -23.001 -113.001s-31.667 -51 -51 -67z" />
    <glyph glyph-name="hyphen" unicode="-" horiz-adv-x="321" 
d="M46 293v70h229v-70h-229z" />
    <glyph glyph-name="period" unicode="." horiz-adv-x="254" 
d="M76 0v89h102v-89h-102z" />
    <glyph glyph-name="slash" unicode="/" horiz-adv-x="430" 
d="M4 -98l170 417l145 376h89l-166 -407l-150 -386h-88z" />
    <glyph glyph-name="zero" unicode="0" horiz-adv-x="572" 
d="M286 -13c-32 0 -61.667 5.33301 -89 16s-51.166 29.167 -71.499 55.5s-36.333 63 -48 110s-17.5 107.167 -17.5 180.5c0 72.667 5.83301 132.334 17.5 179.001s27.667 83.167 48 109.5s44.166 44.666 71.499 54.999s57 15.5 89 15.5s61.667 -5.16699 89 -15.5
s51.333 -28.666 72 -54.999s36.667 -62.833 48 -109.5s17 -106.334 17 -179.001c0 -73.333 -5.66699 -133.5 -17 -180.5s-27.333 -83.667 -48 -110s-44.667 -44.833 -72 -55.5s-57 -16 -89 -16zM287 63c30.667 0 56.167 7.83496 76.5 23.502s35.833 44.167 46.5 85.5
s16 100.333 16 177c0 59.333 -3.16699 107.666 -9.5 144.999s-15.5 66 -27.5 86s-26.667 33.833 -44 41.5s-37 11.5 -59 11.5s-41.667 -3.66699 -59 -11s-32 -21 -44 -41s-21 -48.5 -27 -85.5s-9 -85.167 -9 -144.5c0 -76.667 5.16699 -135.834 15.5 -177.501
s26 -70.5 47 -86.5s46.833 -24 77.5 -24z" />
    <glyph glyph-name="one" unicode="1" horiz-adv-x="507" 
d="M77 0v72l167 -2l7 549h-5l-147 -155l-56 54l196 184l90 -7v-625l147 2v-72h-399z" />
    <glyph glyph-name="two" unicode="2" horiz-adv-x="540" 
d="M56 0l-0.000976562 64.999l46 54c30.667 36 75.334 91.333 134.001 166c42 53.333 76.333 100.833 103 142.5s40 81.834 40 120.501c0 25.333 -6.83301 45.833 -20.5 61.5s-37.5 23.5 -71.5 23.5c-21.333 0 -43.833 -3.16699 -67.5 -9.5s-47 -14.5 -70 -24.5
s-44.167 -21.333 -63.5 -34l-35 63c10.667 9.33301 26.834 20.333 48.501 33s47.167 23.667 76.5 33s60 14 92 14c37.333 0 70.5 -7 99.5 -21s51.833 -33.667 68.5 -59s25 -55 25 -89c0 -28.667 -5.83301 -57.5 -17.5 -86.5s-26.334 -57.333 -44.001 -85
s-36.167 -54.167 -55.5 -79.5l-31 -40.5l-43 -55.5l-44 -56.5l-34.5 -43.5l-13.5 -17v-5l298 5v-75h-420z" />
    <glyph glyph-name="three" unicode="3" horiz-adv-x="545" 
d="M252 -13c-29.333 0 -56.1641 2.50293 -80.4971 7.50293s-45.833 11 -64.5 18s-34 13.667 -46 20s-20.333 10.833 -25 13.5l32 64l26 -11c12.667 -5.33301 28.167 -10.833 46.5 -16.5s38.166 -10.5 59.499 -14.5s43 -6 65 -6c41.333 0 69.5 10.167 84.5 30.5
s22.5 51.833 22.5 94.5c0 56 -11 94.667 -33 116s-56.333 32 -103 32h-93v66c40.667 3.33301 74.667 6.66602 102 9.99902s49 8.66602 65 15.999s27.333 18.5 34 33.5s10 35.5 10 61.5c0 21.333 -1.83301 39.5 -5.5 54.5s-8.83398 25.833 -15.501 32.5
c-8.66699 10 -22.667 17 -42 21s-43 6 -71 6c-12 0 -23.833 -0.333008 -35.5 -1s-25.334 -1.83398 -41.001 -3.50098s-35.834 -4.16699 -60.501 -7.5l-10 68c12 3.33301 26.833 6.16602 44.5 8.49902s36.334 4.16602 56.001 5.49902s37.5 2 53.5 2
c40.667 0 77 -5.33301 109 -16s57.333 -28.667 76 -54s28 -60.333 28 -105c0 -32.667 -4.66699 -59.167 -14 -79.5s-20.5 -36 -33.5 -47s-25.5 -18.667 -37.5 -23s-21 -7.16602 -27 -8.49902v-4c13.333 -2 27.5 -6 42.5 -12s29.5 -15.5 43.5 -28.5s25.333 -30.5 34 -52.5
s13 -50 13 -84c0 -37.333 -6.66699 -71.666 -20 -102.999s-35.333 -56.5 -66 -75.5s-71.667 -28.5 -123 -28.5z" />
    <glyph glyph-name="four" unicode="4" horiz-adv-x="537" 
d="M340 0l3 162h-314v63l158 481l82 -11l-151 -458v-5l225 4l19 269h62v-269l64 2v-76h-64l1 -162h-85z" />
    <glyph glyph-name="five" unicode="5" horiz-adv-x="509" 
d="M243 -13c-30.667 0 -59.1641 3.66699 -85.4971 11s-49.333 15.833 -69 25.5s-34.834 18.167 -45.501 25.5l-16 11l32 63l17.5 -9c11.667 -6 27 -13.167 46 -21.5s40.167 -15.5 63.5 -21.5s46.666 -9 69.999 -9c31.333 0 54.666 5 69.999 15
c12.667 8.66699 22.167 25 28.5 49s9.5 47.667 9.5 71c0 21.333 -2.5 43 -7.5 65s-12.167 37.333 -21.5 46c-10.667 11.333 -32.334 19.166 -65.001 23.499s-71.334 6.5 -116.001 6.5c-14.667 0 -28 -0.166992 -40 -0.5s-21.5 -0.666016 -28.5 -0.999023l-10.5 -0.5l51 359
h295v-73l-225 4l-29 -213c40.667 -2 78.334 -6 113.001 -12s64.834 -16.333 90.501 -31s45.667 -35.167 60 -61.5s21.5 -60.833 21.5 -103.5c0 -68.667 -18.667 -122.167 -56 -160.5s-88.333 -57.5 -153 -57.5z" />
    <glyph glyph-name="six" unicode="6" horiz-adv-x="552" 
d="M281 -13c-46 0 -85.5 10.8301 -118.5 32.4971s-58.333 57.667 -76 108s-26.5 117.833 -26.5 202.5c0 76 6.83301 138.5 20.5 187.5s32.334 87.5 56.001 115.5s51.167 47.5 82.5 58.5s64.333 16.5 99 16.5c28 0 52.333 -2.16699 73 -6.5s36.834 -8.66602 48.501 -12.999
l17.5 -6.5l-19 -71l-12 3l-31.5 7.5c-13 3 -27.667 5.5 -44 7.5s-32.833 3 -49.5 3c-24 0 -43.667 -2.66699 -59 -8s-28.666 -13.666 -39.999 -24.999c-14 -14.667 -25.5 -36.667 -34.5 -66s-14.833 -70.666 -17.5 -123.999l15.5 2c10.333 1.33301 23.666 2.5 39.999 3.5
s33.166 1.5 50.499 1.5c48 0 89.667 -6.5 125 -19.5s62.666 -34.5 81.999 -64.5s29 -70.667 29 -122c0 -72 -18.833 -127.167 -56.5 -165.5s-89.167 -57.5 -154.5 -57.5zM287 57.9971c46.667 0 78.666 11.166 95.999 33.499s26 60.833 26 115.5c0 34 -3.5 61 -10.5 81
s-20.167 34.333 -39.5 43s-47 13 -83 13c-22.667 0 -43.667 -1.16699 -63 -3.5s-35 -4.66602 -47 -6.99902l-18 -3.5v-80c0 -37.333 2.5 -67.333 7.5 -90s10.833 -39.5 17.5 -50.5s12 -18.833 16 -23.5c6.66699 -6 17.334 -12.167 32.001 -18.5s36.667 -9.5 66 -9.5z" />
    <glyph glyph-name="seven" unicode="7" horiz-adv-x="471" 
d="M164 -7l-89 8l288 618v6l-339 -6v76h424v-55z" />
    <glyph glyph-name="eight" unicode="8" horiz-adv-x="540" 
d="M266 -13c-48 0 -88.332 9.83203 -120.999 29.499s-57.167 45.167 -73.5 76.5s-24.5 63.666 -24.5 96.999c0 29.333 5.83301 55.833 17.5 79.5s26.5 43.834 44.5 60.501s36 28.667 54 36c-24.667 18 -46.667 40.5 -66 67.5s-29 60.5 -29 100.5
c0 50.667 17 92.334 51 125.001s84 49 150 49c45.333 0 83 -7.83301 113 -23.5s52.333 -36.667 67 -63s22 -55.833 22 -88.5c0 -44.667 -10.167 -80.667 -30.5 -108s-45.166 -49.333 -74.499 -66c17.333 -10 35.666 -22.333 54.999 -37s36 -33.167 50 -55.5
s21 -50.5 21 -84.5s-8.83301 -65.833 -26.5 -95.5s-43.334 -53.667 -77.001 -72s-74.5 -27.5 -122.5 -27.5zM269.001 58.999c46 0 79.498 9.83398 100.498 29.501s31.5 46.834 31.5 81.501c0 26.667 -5.16699 49 -15.5 67s-27.166 34 -50.499 48s-54.666 27.667 -93.999 41
c-32.667 -12.667 -58 -28.834 -76 -48.501s-27 -51.5 -27 -95.5c0 -22.667 4 -43.334 12 -62.001s21.667 -33.5 41 -44.5s45.333 -16.5 78 -16.5zM286.999 393c31.333 11.333 55.666 27.668 72.999 49.001s26 51.333 26 90c0 32 -8.5 57.833 -25.5 77.5
s-47.167 29.5 -90.5 29.5c-45.333 0 -76.333 -8.83301 -93 -26.5s-25 -40.834 -25 -69.501c0 -34.667 10.333 -63.5 31 -86.5s55.334 -44.167 104.001 -63.5z" />
    <glyph glyph-name="nine" unicode="9" horiz-adv-x="550" 
d="M269 -13c-26 0 -50.501 3.00098 -73.501 9.00098s-43.167 13.167 -60.5 21.5s-31 15.5 -41 21.5l-15 9l31 63l14 -8c9.33301 -5.33301 22 -11.5 38 -18.5s34 -13.167 54 -18.5s40.667 -8 62 -8c17.333 0 31.333 2.16699 42 6.5s19.667 10.5 27 18.5
c14.667 15.333 27.334 41.5 38.001 78.5s16 81.5 16 133.5l-21 -4c-14 -2.66699 -31.167 -5.16699 -51.5 -7.5s-40.833 -3.5 -61.5 -3.5c-41.333 0 -77.5 7.16699 -108.5 21.5s-55.167 36.666 -72.5 66.999s-26 69.5 -26 117.5c0 70 18.333 124.5 55 163.5s88 58.5 154 58.5
c44 0 82.667 -10.667 116 -32s59.166 -57.666 77.499 -108.999s27.5 -122.333 27.5 -213c0 -78 -7.66699 -144.333 -23 -199s-39.166 -96.334 -71.499 -125.001s-74.5 -43 -126.5 -43zM262.999 356.001c25.333 0 48.334 2.00098 69.001 6.00098s37.334 8 50.001 12l19 6
c0 61.333 -2.66699 108.5 -8 141.5s-11.833 56.5 -19.5 70.5s-15.834 23.333 -24.501 28c-10 5.33301 -22.167 9.33301 -36.5 12s-29.833 4 -46.5 4c-34.667 0 -60.834 -5.5 -78.501 -16.5s-29.5 -27.833 -35.5 -50.5s-9 -51.334 -9 -86.001
c0 -24.667 2.33301 -46.667 7 -66s15.5 -34.333 32.5 -45s43.833 -16 80.5 -16z" />
    <glyph glyph-name="colon" unicode=":" horiz-adv-x="314" 
d="M103 459v89h108v-89h-108zM103 0v89h108v-89h-108z" />
    <glyph glyph-name="semicolon" unicode=";" horiz-adv-x="312" 
d="M121 -166l-39.999 29c11.333 13.333 19.5 27.333 24.5 42s7.5 34.334 7.5 59.001v120h82v-70c-0.666992 -46.667 -8.33398 -84.334 -23.001 -113.001s-31.667 -51 -51 -67zM101.001 459v89h108v-89h-108z" />
    <glyph glyph-name="less" unicode="&#x3c;" horiz-adv-x="632" 
d="M580 16l-505 241v71l505 240v-84l-420 -188v-6l420 -191v-83z" />
    <glyph glyph-name="equal" unicode="=" horiz-adv-x="618" 
d="M52 335v72h514v-72h-514zM52 179v72h514v-72h-514z" />
    <glyph glyph-name="greater" unicode="&#x3e;" horiz-adv-x="635" 
d="M56 16v83l419 191v6l-419 188v84l504 -240v-71z" />
    <glyph glyph-name="question" unicode="?" horiz-adv-x="462" 
d="M150 191l0.000976562 9.99707c0 34.667 5 63.167 15 85.5s22.667 41.166 38 56.499s31.333 29.333 48 42c16 12 31.167 24.333 45.5 37s26 27.834 35 45.501s13.5 39.5 13.5 65.5c0 22.667 -3.83301 40.834 -11.5 54.501s-17.167 23.834 -28.5 30.501
c-2.66699 2 -8.83398 4.66699 -18.501 8s-22.167 5 -37.5 5c-38 0 -72.5 -5.66699 -103.5 -17s-59.167 -23.666 -84.5 -36.999l-30 68c11.333 6.66699 26.333 14.834 45 24.501s41.167 18.5 67.5 26.5s56.166 12 89.499 12c39.333 0 74 -7.83301 104 -23.5
s53.333 -37.334 70 -65.001s25 -59.167 25 -94.5c0 -34 -5.66699 -62.5 -17 -85.5s-25.666 -42.667 -42.999 -59s-35.333 -31.5 -54 -45.5c-16.667 -12.667 -32.5 -25.5 -47.5 -38.5s-27.167 -27.833 -36.5 -44.5s-14 -37 -14 -61h-70zM132.001 -0.00292969v89h108v-89h-108
z" />
    <glyph glyph-name="at" unicode="@" horiz-adv-x="835" 
d="M413 -38c-42.667 0 -84.5 7.66602 -125.5 22.999s-78.167 38.333 -111.5 69s-60 69 -80 115s-30 99.667 -30 161c0 63.333 10.667 118.333 32 165s49.5 85.334 84.5 116.001s74.167 53.5 117.5 68.5s87 22.5 131 22.5c42.667 0 84 -6.83301 124 -20.5
s75.833 -33.667 107.5 -60s56.667 -58.666 75 -96.999s27.5 -82.5 27.5 -132.5c0 -38.667 -5.66699 -74.5 -17 -107.5s-26.333 -61.333 -45 -85s-39.167 -42.167 -61.5 -55.5s-44.833 -20 -67.5 -20c-28.667 0 -48.334 10.833 -59.001 32.5s-16.667 50.5 -18 86.5h-4
c-6.66699 -13.333 -16 -29.5 -28 -48.5s-26.167 -35.5 -42.5 -49.5s-35.166 -21 -56.499 -21c-11.333 0 -23.5 3.16699 -36.5 9.5s-25.333 17.333 -37 33s-21.167 37.667 -28.5 66s-11 64.166 -11 107.499c0 53.333 6.16699 95.333 18.5 126s30.166 52.5 53.499 65.5
s52 19.5 86 19.5c18 0 36.167 -1.33301 54.5 -4s35.166 -5.5 50.499 -8.5s27.833 -5.83301 37.5 -8.5l14.5 -4l-0.5 -21.5c-0.333008 -14.333 -0.5 -32.833 -0.5 -55.5s-0.166992 -46.667 -0.5 -72s-0.5 -48.666 -0.5 -69.999c0 -34.667 0.5 -60.167 1.5 -76.5
s2.66699 -26.833 5 -31.5s5.83301 -7 10.5 -7c12.667 0 27.5 7.83301 44.5 23.5s32 38.167 45 67.5s19.5 64.666 19.5 105.999c0 72.667 -23 130.667 -69 174s-109.667 65 -191 65c-55.333 0 -105 -10.833 -149 -32.5s-78.667 -54 -104 -97s-38 -96.833 -38 -161.5
c0 -65.333 12.833 -120.5 38.5 -165.5s59.334 -79.167 101.001 -102.5s86.834 -35 135.501 -35c14 0 27.667 0.666992 41 2s24.333 2.83301 33 4.5l13 2.5l8 -67l-27 -7c-18 -4.66699 -41.667 -7 -71 -7zM377 203.999c12 0 24.334 8.66797 37.001 26.001
s24.667 39.5 36 66.5s20.5 55.5 27.5 85.5s10.5 58 10.5 84c-5.33301 1.33301 -15.5 3.16602 -30.5 5.49902s-31.167 3.5 -48.5 3.5c-26 0 -42.667 -3.33301 -50 -10c-6.66699 -5.33301 -11.834 -19 -15.501 -41s-5.5 -50.667 -5.5 -86c0 -47.333 3.5 -81.5 10.5 -102.5
s16.5 -31.5 28.5 -31.5z" />
    <glyph glyph-name="A" unicode="A" horiz-adv-x="506" 
d="M5 0l189 695h118l189 -695h-86l-53 208l42 -24h-300l40 24l-53 -208h-86zM146 219l-28 39h270l-28 -39l-113 439l47 -37h-82l47 37z" />
    <glyph glyph-name="B" unicode="B" horiz-adv-x="614" 
d="M323 -14c-24.667 0 -49.502 0.830078 -74.502 2.49707s-47.833 3.66699 -68.5 6s-37.667 4.33301 -51 6s-21 2.83398 -23 3.50098l4 319l-5 374c2.66699 0 10.667 0.666992 24 2s30.333 2.83301 51 4.5s42.834 3 66.501 4s46.834 1.5 69.501 1.5
c36.667 0 69.667 -5.66699 99 -17s52.833 -30.5 70.5 -57.5s26.5 -64.167 26.5 -111.5c0 -36.667 -5.5 -65.667 -16.5 -87s-24 -37.166 -39 -47.499s-28.667 -17.166 -41 -20.499s-19.5 -5 -21.5 -5l6 39v-79l-11 38c8 0 19.833 -1.83301 35.5 -5.5
s31.5 -10.834 47.5 -21.501s29.667 -26.5 41 -47.5s17 -48.833 17 -83.5c0 -43.333 -5.83301 -79.166 -17.5 -107.499s-27.5 -50.5 -47.5 -66.5s-42.167 -27.167 -66.5 -33.5s-49.5 -9.5 -75.5 -9.5zM333.998 50.9971c43.333 0 72.001 12.001 86.001 36.001s21 61 21 111
s-11.5 84.333 -34.5 103s-54.5 28 -94.5 28h-161l38 21l2 -326l-2 37c3.33301 0 11.666 -0.833008 24.999 -2.5s30.333 -3.33398 51 -5.00098s43.667 -2.5 69 -2.5zM319.999 393.998c41.333 0 69.167 9.83105 83.5 29.498s21.5 51.834 21.5 96.501
c0 47.333 -8.66699 80.333 -26 99s-46.333 28 -87 28c-23.333 0 -44.333 -0.666992 -63 -2s-34 -2.66602 -46 -3.99902s-19.667 -2.33301 -23 -3l9 39v-306l-38 24z" />
    <glyph glyph-name="C" unicode="C" horiz-adv-x="583" 
d="M312 -14c-47.333 0 -88.999 11.5029 -124.999 34.5029s-64.167 60.5 -84.5 112.5s-30.5 121 -30.5 207c0 76 6.5 138.167 19.5 186.5s31 85.833 54 112.5s50.167 45 81.5 55s65.333 15 102 15c16 0 35 -0.833008 57 -2.5s43.333 -3.66699 64 -6
s36.334 -4.83301 47.001 -7.5l-10 -72c-6 0.666992 -15.667 1.66699 -29 3s-28 2.66602 -44 3.99902s-31.333 2.5 -46 3.5s-26 1.5 -34 1.5c-32.667 0 -58.834 -1.66699 -78.501 -5s-34.167 -10.666 -43.5 -21.999c-8.66699 -10.667 -17 -26.334 -25 -47.001
s-14.333 -48.834 -19 -84.501s-7 -81.5 -7 -137.5c0 -70.667 6.83301 -127.167 20.5 -169.5s27.167 -70.166 40.5 -83.499c9.33301 -9.33301 20.666 -15.833 33.999 -19.5s28.333 -5.5 45 -5.5c25.333 0 49.833 2.66699 73.5 8s44.667 11.666 63 18.999
s32.833 13.666 43.5 18.999l16 8l29 -66l-15.5 -9c-10.333 -6 -24.833 -13.167 -43.5 -21.5s-41.167 -15.5 -67.5 -21.5s-55.5 -9 -87.5 -9z" />
    <glyph glyph-name="D" unicode="D" horiz-adv-x="631" 
d="M302 -14c-13.333 0 -29.832 0.5 -49.499 1.5s-39.667 2.33301 -60 4l-54.5 4.5c-16 1.33301 -27 2.33301 -33 3v697c2.66699 0 11.334 0.666992 26.001 2s32.667 2.83301 54 4.5s43.5 3.16699 66.5 4.5s43.5 2 61.5 2c51.333 0 93.166 -9.5 125.499 -28.5
s57.166 -45 74.499 -78s29.333 -70.667 36 -113s10 -86.833 10 -133.5c0 -92 -11.167 -165 -33.5 -219s-52.833 -92.667 -91.5 -116s-82.667 -35 -132 -35zM291.001 59c36 0 62.6689 2.49902 80.002 7.49902s30.333 11.833 39 20.5c9.33301 9.33301 18.166 24 26.499 44
s15.166 48.667 20.499 86s8 86 8 146c0 60.667 -4.16699 114 -12.5 160s-21.833 77 -40.5 93c-6.66699 6 -17.167 10.833 -31.5 14.5s-36.166 5.5 -65.499 5.5c-26.667 0 -52.334 -1.16699 -77.001 -3.5s-46 -4.16602 -64 -5.49902l15 40v-636l-18 41
c19.333 -2.66699 38.333 -5.5 57 -8.5s39.667 -4.5 63 -4.5z" />
    <glyph glyph-name="E" unicode="E" horiz-adv-x="514" 
d="M105 0v695h341v-74l-295 3l39 38l-7 -298l-37 25h276v-71h-276l37 29l7 -313l-39 38l295 2v-74h-341z" />
    <glyph glyph-name="F" unicode="F" horiz-adv-x="500" 
d="M105 0v695h341v-74l-295 3l39 38l-7 -290l-37 16l269 1v-71h-269l38 14l4 -332h-83z" />
    <glyph glyph-name="G" unicode="G" horiz-adv-x="612" 
d="M331 -13c-34.667 0 -67.6689 4.83398 -99.002 14.501s-59 27.5 -83 53.5s-42.833 62.833 -56.5 110.5s-20.5 109.167 -20.5 184.5c0 74 6.5 134.5 19.5 181.5s31.5 83.333 55.5 109s52.667 43.334 86 53.001s70.333 14.5 111 14.5c21.333 0 43 -0.833008 65 -2.5
s42.5 -3.83398 61.5 -6.50098s33.833 -5.33398 44.5 -8.00098l-10 -72c-12.667 1.33301 -32.834 3.83301 -60.501 7.5s-63.167 5.5 -106.5 5.5c-33.333 0 -60.166 -1.83301 -80.499 -5.5s-35.5 -10.834 -45.5 -21.501c-12.667 -12.667 -24.167 -39 -34.5 -79
s-15.5 -98 -15.5 -174c0 -58 3.16699 -105 9.5 -141s13.5 -63.167 21.5 -81.5s15 -30.833 21 -37.5c8 -8.66699 21.167 -16.167 39.5 -22.5s45.5 -9.5 81.5 -9.5c23.333 0 43.833 1.33301 61.5 4s31.834 6.33398 42.501 11.001v258l38 -40l-144 7v62h186v-336l-23.5 -9.5
c-15.667 -6.33301 -37.667 -12.833 -66 -19.5s-61.166 -10 -98.499 -10z" />
    <glyph glyph-name="H" unicode="H" horiz-adv-x="665" 
d="M105 0v695h84l-3 -332l-38 28h368l-38 -28l-2 332h84v-695h-84l2 345l38 -28h-368l38 28l3 -345h-84z" />
    <glyph glyph-name="I" unicode="I" 
d="M105 -1l3 319l-3 377h85l-4 -307l4 -388z" />
    <glyph glyph-name="J" unicode="J" horiz-adv-x="316" 
d="M56 -13c-9.33301 0 -18.167 0.501953 -26.5 1.50195s-15.833 2.16699 -22.5 3.5l-15 3l10 72c6 -0.666992 15.333 -2 28 -4s26.667 -3 42 -3c14 0 25.667 3.16699 35 9.5s16.5 21.166 21.5 44.499s7.5 59.666 7.5 108.999v472h84v-459
c0 -62 -7.16699 -111.167 -21.5 -147.5s-33.833 -62.333 -58.5 -78s-52.667 -23.5 -84 -23.5z" />
    <glyph glyph-name="K" unicode="K" horiz-adv-x="577" 
d="M485 0l-293 357l268 338h106l-275 -331v-6l306 -358h-112zM105 0l3 353l-3 342h84v-695h-84z" />
    <glyph glyph-name="L" unicode="L" horiz-adv-x="446" 
d="M105 0v695h84l-5 -661l-38 38l289 2v-74h-330z" />
    <glyph glyph-name="M" unicode="M" horiz-adv-x="814" 
d="M100 0l24 695h122l157 -453h7l158 453h122l24 -695h-84l-8 611h-7l-157 -448h-103l-156 448h-7l-8 -611h-84z" />
    <glyph glyph-name="N" unicode="N" horiz-adv-x="680" 
d="M105 0v695h113l283 -594h3l-13 594h84v-695h-113l-283 594h-3l13 -594h-84z" />
    <glyph glyph-name="O" unicode="O" horiz-adv-x="656" 
d="M328 -14c-34.667 0 -67.5 5.33301 -98.5 16s-58.333 29.167 -82 55.5s-42.167 63.166 -55.5 110.499s-20 107.666 -20 180.999s6.66699 133.333 20 180s31.833 83.167 55.5 109.5s51 44.666 82 54.999s63.833 15.5 98.5 15.5c35.333 0 68.333 -5.16699 99 -15.5
s57.834 -28.666 81.501 -54.999s42.167 -62.833 55.5 -109.5s20 -106.667 20 -180s-6.66699 -133.666 -20 -180.999s-31.833 -84.166 -55.5 -110.499s-50.834 -44.833 -81.501 -55.5s-63.667 -16 -99 -16zM328 62c28.667 0 53.4961 3.16699 74.4961 9.5
s38.333 19.166 52 38.499s23.834 47.833 30.501 85.5s10 87.834 10 150.501s-3.16699 113 -9.5 151s-16.166 66.833 -29.499 86.5s-30.666 32.834 -51.999 39.501s-46.666 10 -75.999 10c-30 0 -55.5 -3.33301 -76.5 -10s-38.167 -19.834 -51.5 -39.501
s-23.166 -48.5 -29.499 -86.5s-9.5 -88.333 -9.5 -151s3.33301 -112.834 10 -150.501s16.667 -66.167 30 -85.5s30.666 -32.166 51.999 -38.499s46.333 -9.5 75 -9.5z" />
    <glyph glyph-name="P" unicode="P" horiz-adv-x="581" 
d="M105 0l3.99902 321.999l-4 373l20.5 2c13.667 1.33301 31.834 3 54.501 5s47.5 3.66699 74.5 5s53.833 2 80.5 2c59.333 0 105.333 -19.5 138 -58.5s49 -97.5 49 -175.5c0 -48.667 -5.83301 -89 -17.5 -121s-27.5 -56.833 -47.5 -74.5s-42.333 -30.167 -67 -37.5
s-50 -11 -76 -11c-20.667 0 -43.667 0.833008 -69 2.5s-44 2.83398 -56 3.50098v-237h-84zM319.999 301.999c21.333 0 38.666 1.16406 51.999 3.49707s24 7.5 32 15.5c11.333 11.333 19 30.833 23 58.5s6 62.834 6 105.501c0 36 -1.83301 63.833 -5.5 83.5
s-8 33.834 -13 42.501s-10.167 14.667 -15.5 18c-6.66699 4.66699 -17.5 8.5 -32.5 11.5s-32.167 4.5 -51.5 4.5c-26 0 -50.5 -1.16699 -73.5 -3.5s-40.5 -4.83301 -52.5 -7.5v-320c9.33301 -1.33301 26.833 -3.66602 52.5 -6.99902s51.834 -5 78.501 -5z" />
    <glyph glyph-name="Q" unicode="Q" horiz-adv-x="663" 
d="M586 -92l-204.002 108l55 -10c-16 -6.66699 -33.333 -11.5 -52 -14.5s-37.667 -4.5 -57 -4.5c-34.667 0 -67.5 5.33301 -98.5 16s-58.333 29.167 -82 55.5s-42.167 63 -55.5 110s-20 107.167 -20 180.5c0 72.667 6.66699 132.334 20 179.001s31.833 83.167 55.5 109.5
s51 44.666 82 54.999s63.833 15.5 98.5 15.5c35.333 0 68.333 -5.16699 99 -15.5s57.834 -28.666 81.501 -54.999s42.167 -62.833 55.5 -109.5s20 -106.334 20 -179.001c0 -62 -4.83301 -114 -14.5 -156s-23.167 -76.333 -40.5 -103s-37.666 -47.667 -60.999 -63l14 48
l-1 -55l-2 13l140 -47zM327.998 63c28.667 0 53.4961 3.16699 74.4961 9.5s38.333 19 52 38s23.834 47.333 30.501 85s10 87.834 10 150.501c0 62 -3.16699 112 -9.5 150s-16.166 66.833 -29.499 86.5s-30.666 32.834 -51.999 39.501s-46.666 10 -75.999 10
c-30 0 -55.5 -3.33301 -76.5 -10s-38.167 -19.834 -51.5 -39.501s-23.166 -48.5 -29.499 -86.5s-9.5 -88 -9.5 -150c0 -62.667 3.33301 -112.834 10 -150.501s16.667 -66 30 -85s30.666 -31.667 51.999 -38s46.333 -9.5 75 -9.5z" />
    <glyph glyph-name="R" unicode="R" horiz-adv-x="635" 
d="M105 0l5.00293 329.003l-3 366c7.33301 1.33301 19.333 2.66602 36 3.99902s35.667 2.66602 57 3.99902s43.166 2.5 65.499 3.5s43.166 1.5 62.499 1.5c45.333 0 84.666 -7 117.999 -21s59 -36.833 77 -68.5s27 -73.834 27 -126.501c0 -58 -12.667 -104 -38 -138
s-62 -56.667 -110 -68v-3l157 -283h-99l-140 276l-130 5v-281h-85zM338.003 346.003c49.333 0 82.167 11.8311 98.5 35.498s24.5 60.834 24.5 111.501c0 41.333 -3.5 72.833 -10.5 94.5s-16.5 35.834 -28.5 42.501c-7.33301 4.66699 -18.5 8.16699 -33.5 10.5
s-31.167 3.5 -48.5 3.5c-27.333 0 -55.166 -1.33301 -83.499 -4s-50.166 -5 -65.499 -7l-2 -277c23.333 -2.66699 48.166 -5 74.499 -7s51.166 -3 74.499 -3z" />
    <glyph glyph-name="S" unicode="S" horiz-adv-x="511" 
d="M246 -14c-27.333 0 -53.6611 3.16699 -78.9941 9.5s-47.833 13.833 -67.5 22.5s-35.167 16.167 -46.5 22.5l-17 9.5l4.5 10.5l10.5 24l10.5 23.5l4.5 10l16.5 -8.5c11 -5.66699 25.833 -12 44.5 -19s40 -13.333 64 -19s49 -8.5 75 -8.5c16.667 0 29.834 1.5 39.501 4.5
s16.5 5.83301 20.5 8.5c13.333 9.33301 23.666 22.166 30.999 38.499s11 37.5 11 63.5c0 25.333 -5.33301 46.333 -16 63s-24.834 30.667 -42.501 42s-36.834 21.333 -57.501 30c-26.667 11.333 -51.667 22.666 -75 33.999s-44 24.333 -62 39s-32 33.167 -42 55.5
s-15 50.166 -15 83.499c0 34.667 7.66699 65.834 23 93.501s38.333 49.667 69 66s68.667 24.5 114 24.5c22 0 42.667 -1.16699 62 -3.5s36.666 -4.83301 51.999 -7.5s27.333 -5.16699 36 -7.5l13 -3.5l-14 -72l-14 2.5l-38 6.5c-16 2.66699 -34 4.83398 -54 6.50098
s-40.333 2.5 -61 2.5c-16.667 0 -29.834 -1 -39.501 -3s-18.167 -5.33301 -25.5 -10c-8.66699 -4.66699 -16.834 -14.167 -24.501 -28.5s-11.5 -33.833 -11.5 -58.5c0 -27.333 7 -49.666 21 -66.999s32.333 -31.5 55 -42.5s46.667 -21.833 72 -32.5
c20 -8 39.667 -17.167 59 -27.5s36.666 -22.833 51.999 -37.5s27.666 -33.167 36.999 -55.5s14 -49.5 14 -81.5c0 -40.667 -8.83301 -76.167 -26.5 -106.5s-42.167 -54 -73.5 -71s-67.666 -25.5 -108.999 -25.5z" />
    <glyph glyph-name="T" unicode="T" horiz-adv-x="474" 
d="M195 0l2 624l-195 -3v74h470v-74l-195 3l2 -624h-84z" />
    <glyph glyph-name="U" unicode="U" horiz-adv-x="661" 
d="M330 -14c-48 0 -88.832 9.16602 -122.499 27.499s-59.167 50.5 -76.5 96.5s-26 110 -26 192v393h84v-366c0 -60 2 -107.667 6 -143s11 -62 21 -80s24.167 -29.833 42.5 -35.5s42.166 -8.5 71.499 -8.5s53.333 3 72 9s33 17.833 43 35.5s17 44.334 21 80.001
s6 83.167 6 142.5v366h84v-384c0 -85.333 -8.83301 -151.5 -26.5 -198.5s-43.167 -79.833 -76.5 -98.5s-74.333 -28 -123 -28z" />
    <glyph glyph-name="V" unicode="V" horiz-adv-x="506" 
d="M193 0l-188 695h86l159 -621h6l159 621h86l-188 -695h-120z" />
    <glyph glyph-name="W" unicode="W" horiz-adv-x="748" 
d="M139 0l-126 695h86l97 -621h7l111 458h120l111 -458h7l97 621h86l-125 -695h-122l-111 458h-6l-112 -458h-120z" />
    <glyph glyph-name="X" unicode="X" horiz-adv-x="536" 
d="M16 0l214 389l9 -51l-209 357h94l169 -313l-71 31h82l-64 -30l171 312h94l-212 -357l6 40l221 -378h-99l-177 333l47 -33h-64l53 33l-165 -333h-99z" />
    <glyph glyph-name="Y" unicode="Y" horiz-adv-x="505" 
d="M210 0l3 259l-197 436h91l143 -348h6l142 348h91l-197 -436l3 -259h-85z" />
    <glyph glyph-name="Z" unicode="Z" horiz-adv-x="529" 
d="M27 0v72l351 545v7l-331 -3v74h428v-72l-348 -543v-9l362 3v-74h-462z" />
    <glyph glyph-name="bracketleft" unicode="[" horiz-adv-x="310" 
d="M106 -124v907h163v-68l-89 3v-777l89 3v-68h-163z" />
    <glyph glyph-name="backslash" unicode="\" horiz-adv-x="432" 
d="M338 -98l-150 386l-166 407h89l145 -376l170 -417h-88z" />
    <glyph glyph-name="bracketright" unicode="]" horiz-adv-x="311" 
d="M41 -124v68l90 -3v777l-90 -3v68h164v-907h-164z" />
    <glyph glyph-name="asciicircum" unicode="^" horiz-adv-x="506" 
d="M133 316l-75 9l146 370h98l146 -370l-74 -9l-117 314h-7z" />
    <glyph glyph-name="underscore" unicode="_" horiz-adv-x="536" 
d="M16 -161v70h504v-70h-504z" />
    <glyph glyph-name="grave" unicode="`" horiz-adv-x="214" 
d="M194 654l-194 67l30 67l184 -84z" />
    <glyph glyph-name="a" unicode="a" horiz-adv-x="569" 
d="M211 -13c-30.667 0 -57.832 7.16602 -81.499 21.499s-42.167 35.333 -55.5 63s-20 61.167 -20 100.5c0 47.333 9.5 84.5 28.5 111.5s45.833 46.167 80.5 57.5s75 17 121 17h106c0 33.333 -0.833008 62.5 -2.5 87.5s-7.16699 43.5 -16.5 55.5
c-6.66699 9.33301 -15.834 15.333 -27.501 18s-23.834 4 -36.501 4c-26 0 -51.5 -2.5 -76.5 -7.5s-47.667 -10.833 -68 -17.5s-36.5 -12.5 -48.5 -17.5l-18 -7.5l-29 65l19 8.5c12.667 5.66699 29.667 12.334 51 20.001s45.166 14.334 71.499 20.001s53.5 8.5 81.5 8.5
c45.333 0 81.333 -8.83301 108 -26.5s45.834 -42.334 57.501 -74.001s17.5 -68.834 17.5 -111.501v-383h-54l-12 61h-6l-28.5 -19.5c-12.333 -8.33301 -26.666 -16.666 -42.999 -24.999s-34.5 -15.333 -54.5 -21s-41.333 -8.5 -64 -8.5zM225.002 59.999
c24 0 46.834 3.5 68.501 10.5s41 14.833 58 23.5s29.833 15.667 38.5 21v166c-8.66699 1.33301 -21.667 2.83301 -39 4.5s-40 2.5 -68 2.5c-62 0 -100.333 -6.33301 -115 -19c-8.66699 -6.66699 -15.334 -18.5 -20.001 -35.5s-7 -37.5 -7 -61.5
c0 -39.333 6.5 -67.833 19.5 -85.5s34.5 -26.5 64.5 -26.5z" />
    <glyph glyph-name="b" unicode="b" horiz-adv-x="576" 
d="M305 -13c-18 0 -40.168 1.83008 -66.501 5.49707s-52.833 8.33398 -79.5 14.001s-49.667 11.834 -69 18.501v728h83v-180c11.333 2.66699 25 5.66699 41 9s33.5 6.33301 52.5 9s38.167 4 57.5 4c58.667 0 103.667 -23.167 135 -69.5s47 -121.166 47 -224.499
c0 -64 -5.66699 -116.5 -17 -157.5s-26.666 -72.833 -45.999 -95.5s-40.833 -38.5 -64.5 -47.5s-48.167 -13.5 -73.5 -13.5zM304.999 60.9971c18 0 32.167 1.16797 42.5 3.50098s18.833 6.5 25.5 12.5c6 6 12.667 16.667 20 32s13.5 39.5 18.5 72.5s7.5 78.167 7.5 135.5
s-2.83301 101 -8.5 131s-13.5 49 -23.5 57c-14 10.667 -37.667 16 -71 16c-34 0 -63.167 -3.33301 -87.5 -10s-42.833 -12.334 -55.5 -17.001v-417c7.33301 -2 17 -4.16699 29 -6.5s26.5 -4.5 43.5 -6.5s36.833 -3 59.5 -3z" />
    <glyph glyph-name="c" unicode="c" horiz-adv-x="518" 
d="M300 -13c-45.333 0 -85.334 10.3359 -120.001 31.0029s-61.667 53.5 -81 98.5s-29 103.833 -29 176.5c0 59.333 6.5 108.666 19.5 147.999s30.833 70.166 53.5 92.499s49.334 38.166 80.001 47.499s63.334 14 98.001 14c25.333 0 51.166 -1.66699 77.499 -5
s47.833 -7 64.5 -11l-10 -70c-12.667 1.33301 -32.667 3.83301 -60 7.5s-56.666 5.5 -87.999 5.5c-24.667 0 -45.5 -2 -62.5 -6s-30.167 -10.667 -39.5 -20c-12.667 -14 -23.5 -39.5 -32.5 -76.5s-13.5 -81.167 -13.5 -132.5c0 -47.333 3.66699 -85.5 11 -114.5
s16 -51 26 -66s19 -25.5 27 -31.5c5.33301 -4 12.5 -7.66699 21.5 -11s21.833 -5 38.5 -5c19.333 0 39 2.33301 59 7s38.333 10 55 16s30.167 11.333 40.5 16l15.5 7l26 -65l-22 -13c-14.667 -8.66699 -35.334 -17.5 -62.001 -26.5s-57.667 -13.5 -93 -13.5z" />
    <glyph glyph-name="d" unicode="d" horiz-adv-x="581" 
d="M254 -13c-36 0 -67.8311 10.333 -95.498 31s-49.334 52.667 -65.001 96s-23.5 98.666 -23.5 165.999c0 64.667 5.83301 117.5 17.5 158.5s27.5 72.833 47.5 95.5s42.167 38.5 66.5 47.5s49.5 13.5 75.5 13.5c22 0 41.333 -1.33301 58 -4s31.167 -5.66699 43.5 -9
s22.166 -6.66602 29.499 -9.99902v181h83v-753h-55l-11 60h-5l-36 -27.5c-15.333 -11.667 -33.833 -22.167 -55.5 -31.5s-46.5 -14 -74.5 -14zM259.002 61c13.333 0 26.999 1.83496 40.999 5.50195s27.833 8.16699 41.5 13.5s26.334 11 38.001 17s21.167 11.333 28.5 16v382
c-8 3.33301 -19.167 7 -33.5 11s-30.5 7.5 -48.5 10.5s-37 4.5 -57 4.5c-37.333 0 -62.666 -8 -75.999 -24c-5.33301 -7.33301 -10.833 -19 -16.5 -35s-10.334 -38.833 -14.001 -68.5s-5.5 -68.834 -5.5 -117.501c0 -54.667 2.83301 -96 8.5 -124s12.167 -47.333 19.5 -58
s13 -17.667 17 -21c5.33301 -4.66699 13 -7.83398 23 -9.50098s21.333 -2.5 34 -2.5z" />
    <glyph glyph-name="e" unicode="e" horiz-adv-x="571" 
d="M304 -14c-46 0 -86.4971 9.83301 -121.497 29.5s-62.167 52 -81.5 97s-29 104.833 -29 179.5c0 78 10.167 139 30.5 183s47.833 75.167 82.5 93.5s73.667 27.5 117 27.5s80.166 -8.66699 110.499 -26s53.5 -46.166 69.5 -86.499s24 -94.5 24 -162.5v-63h-384l39 15
c-2.66699 -44 -1.5 -79.167 3.5 -105.5s11.333 -45.833 19 -58.5s14.167 -21.667 19.5 -27c9.33301 -8 20.666 -14 33.999 -18s29.666 -6 48.999 -6s38.333 1.5 57 4.5s36 6.66699 52 11s30.333 8.66602 43 12.999s23 7.5 31 9.5l21 -67c-6 -2.66699 -17.667 -7.5 -35 -14.5
s-38.833 -13.5 -64.5 -19.5s-54.5 -9 -86.5 -9zM161.003 288l-39.002 36.001l337 7l-38 -37c0.666992 47.333 -0.166016 88 -2.49902 122s-9.16602 60 -20.499 78c-4.66699 7.33301 -12.667 14.166 -24 20.499s-33.333 9.5 -66 9.5c-34 0 -59.5 -3.66699 -76.5 -11
s-30.167 -17 -39.5 -29c-24.667 -32.667 -35 -98 -31 -196z" />
    <glyph glyph-name="f" unicode="f" horiz-adv-x="338" 
d="M115 0l-0.00292969 483.998h-65v51l65 13c0.666992 52.667 8 94.834 22 126.501s33.833 54.834 59.5 69.501s55.834 22 90.501 22c6.66699 0 14.334 -0.166992 23.001 -0.5s16.334 -0.666016 23.001 -0.999023l10 -0.5l-6 -70l-13.5 0.5
c-9 0.333008 -19 0.666016 -30 0.999023s-19.833 0.5 -26.5 0.5c-18 0 -32 -3.5 -42 -10.5s-17 -21 -21 -42s-6.33301 -52.833 -7 -95.5h128v-67h-127v-481h-83z" />
    <glyph glyph-name="g" unicode="g" horiz-adv-x="521" 
d="M253 -179c-26.667 0 -51.667 1.32812 -75 3.99512s-43.666 5.83398 -60.999 9.50098s-31 6.83398 -41 9.50098l-15 4l10 75c37.333 -6.66699 75.666 -12.5 114.999 -17.5s77.333 -7.5 114 -7.5c37.333 0 62.333 3 75 9s19 15.333 19 28c0 7.33301 -1.66699 14 -5 20
s-9.33301 12.167 -18 18.5s-21.334 13.5 -38.001 21.5s-38.667 17.667 -66 29l-82.5 34.5c-17 7 -27.667 11.667 -32 14s-6.5 4.5 -6.5 6.5c0 0.666992 1.66699 5.16699 5 13.5s7.66602 18.5 12.999 30.5l16 37.5l14 33.5c-44 8.66699 -79.5 30 -106.5 64
s-40.5 75.333 -40.5 124c0 54.667 10.667 97.334 32 128.001s49.5 52.5 84.5 65.5s72.833 19.5 113.5 19.5c13.333 0 29.166 -0.333008 47.499 -1s37 -1.66699 56 -3s36.667 -2.66602 53 -3.99902s29.5 -2.33301 39.5 -3l15 -1v-53l-66 -10
c0 0.666992 2.83301 -6.16602 8.5 -20.499s11.334 -32 17.001 -53s8.5 -41.5 8.5 -61.5c0 -38 -8.33301 -71.833 -25 -101.5s-40.667 -53 -72 -70s-69 -25.5 -113 -25.5l-7 -37.5c-2.66699 -14.333 -4 -22.833 -4 -25.5c0 -1.33301 2.16699 -3.16602 6.5 -5.49902
s13 -6 26 -11s32.167 -13.167 57.5 -24.5c38.667 -16 68.334 -31.667 89.001 -47s35 -30.333 43 -45s12 -29.334 12 -44.001c0 -26.667 -9.16699 -49.5 -27.5 -68.5s-43.666 -33.5 -75.999 -43.5s-69.833 -15 -112.5 -15zM251 259.995c30 0 54.168 3.66797 72.501 11.001
s31.666 20.166 39.999 38.499s12.5 44.166 12.5 77.499c0 38 -2.33301 68.5 -7 91.5s-9 35.5 -13 37.5c-1.33301 1.33301 -7 2.5 -17 3.5s-21 1.66699 -33 2s-22.5 0.666016 -31.5 0.999023l-13.5 0.5c-31.333 0 -56.833 -3.66699 -76.5 -11s-34 -20.666 -43 -39.999
s-13.5 -47.666 -13.5 -84.999c0 -49.333 9.5 -82.833 28.5 -100.5s50.5 -26.5 94.5 -26.5z" />
    <glyph glyph-name="h" unicode="h" horiz-adv-x="584" 
d="M85 0l0.000976562 753.003h83v-235l-21 19c18 8 38.667 16.5 62 25.5s46.833 16.667 70.5 23s45.167 9.5 64.5 9.5c39.333 0 70 -8 92 -24s37.5 -39.333 46.5 -70s13.5 -68.667 13.5 -114v-387h-83v358c0 37.333 -1.33301 66.666 -4 87.999s-8 37.666 -16 48.999
c-6.66699 9.33301 -14.834 15.166 -24.501 17.499s-21.5 3.5 -35.5 3.5c-16 0 -33 -1.83301 -51 -5.5s-35.5 -8.16699 -52.5 -13.5s-32 -10.5 -45 -15.5s-22.167 -9.16699 -27.5 -12.5l12 19l-1 -488h-83z" />
    <glyph glyph-name="i" unicode="i" 
d="M106 0v582h83v-582h-83zM97 681v85h102v-85h-102z" />
    <glyph glyph-name="j" unicode="j" horiz-adv-x="307" 
d="M43 -180c-8.66699 0 -17.666 0.500977 -26.999 1.50098l-23.5 2.5l-9.5 1l9 74l8.5 -1c5.66699 -0.666992 13.167 -1.33398 22.5 -2.00098s19.333 -1 30 -1c17.333 0 30.666 2.83301 39.999 8.5s15.833 19.5 19.5 41.5s5.5 57 5.5 105v532h83v-529
c0 -58.667 -7 -105 -21 -139s-33 -58.167 -57 -72.5s-50.667 -21.5 -80 -21.5zM109.001 681.001v85h102v-85h-102z" />
    <glyph glyph-name="k" unicode="k" horiz-adv-x="522" 
d="M423 0l-249 314l232 268h107l-244 -262v-5l262 -315h-108zM90 0l5 321l-5 432h83v-753h-83z" />
    <glyph glyph-name="l" unicode="l" 
d="M106 0v753h83v-753h-83z" />
    <glyph glyph-name="m" unicode="m" horiz-adv-x="917" 
d="M101 0v582h56l9 -57h4l30 16.5c14 7.66699 30.333 15.667 49 24s38.334 15.333 59.001 21s41 8.5 61 8.5c28.667 0 53.5 -6.66699 74.5 -20s35.833 -31.666 44.5 -54.999c28 17.333 59.167 34.166 93.5 50.499s70.833 24.5 109.5 24.5c36 0 64 -8.66699 84 -26
s34 -41.833 42 -73.5s12 -69.167 12 -112.5v-383h-83v355c0 31.333 -0.666992 59.333 -2 84s-5.66602 42.667 -12.999 54c-6.66699 10.667 -15.834 17.167 -27.501 19.5s-21.167 3.5 -28.5 3.5c-18 0 -36.5 -2.5 -55.5 -7.5s-36.833 -11 -53.5 -18s-30.5 -13.5 -41.5 -19.5
s-18.167 -10 -21.5 -12c1.33301 -10.667 2.33301 -22 3 -34s1 -24.667 1 -38v-387h-83v358c0 38 -0.833008 67.333 -2.5 88s-6.16699 36.667 -13.5 48c-6.66699 9.33301 -15 15.333 -25 18s-19.667 4 -29 4c-22.667 0 -45.334 -3.5 -68.001 -10.5s-43 -14.667 -61 -23
s-31.667 -14.5 -41 -18.5v-464h-83z" />
    <glyph glyph-name="n" unicode="n" horiz-adv-x="601" 
d="M101 0l-0.000976562 581.995h56l9 -57h5l30 16.5c14 7.66699 30.667 15.667 50 24s40 15.333 62 21s44 8.5 66 8.5c36.667 0 64.667 -9.16699 84 -27.5s32.5 -43.166 39.5 -74.499s10.5 -66.666 10.5 -105.999v-387h-83v358c0 39.333 -0.666992 69.333 -2 90
s-5.66602 36.334 -12.999 47.001c-5.33301 8.66699 -13 14.334 -23 17.001s-20.667 4 -32 4c-24 0 -48.5 -3.83301 -73.5 -11.5s-46.833 -15.667 -65.5 -24s-31 -14.166 -37 -17.499v-463h-83z" />
    <glyph glyph-name="o" unicode="o" horiz-adv-x="576" 
d="M288 -13c-55.333 0 -98.833 12.333 -130.5 37s-54.167 59.667 -67.5 105s-20 99.333 -20 162s6.66699 116.667 20 162s35.833 80.333 67.5 105s75.167 37 130.5 37s98.833 -12.333 130.5 -37s54.167 -59.667 67.5 -105s20 -99.333 20 -162s-6.66699 -116.667 -20 -162
s-35.833 -80.333 -67.5 -105s-75.167 -37 -130.5 -37zM288 59c25.333 0 46.5 3 63.5 9s30.667 17 41 33s17.666 39.333 21.999 70s6.5 70.667 6.5 120s-2.16699 89.333 -6.5 120s-11.666 54.167 -21.999 70.5s-24 27.333 -41 33s-38.167 8.5 -63.5 8.5
s-46.5 -2.83301 -63.5 -8.5s-30.667 -16.667 -41 -33s-17.833 -39.833 -22.5 -70.5s-7 -70.667 -7 -120s2.33301 -89.333 7 -120s12.167 -54 22.5 -70s24 -27 41 -33s38.167 -9 63.5 -9z" />
    <glyph glyph-name="p" unicode="p" horiz-adv-x="577" 
d="M85 -166l0.000976562 748.002h56l11 -59h6c12.667 9.33301 27.334 19.5 44.001 30.5s35.834 20.667 57.501 29s45.5 12.5 71.5 12.5c36 0 67.167 -10.167 93.5 -30.5s46.666 -52 60.999 -95s21.5 -98.833 21.5 -167.5c0 -64.667 -6 -117.5 -18 -158.5s-28 -73 -48 -96
s-42.667 -39 -68 -48s-51 -13.5 -77 -13.5c-16 0 -32.333 0.666992 -49 2s-31.834 3.16602 -45.501 5.49902s-24.834 4.16602 -33.501 5.49902v-165h-83zM315.001 60.002c7.33301 0 16.4961 0.833008 27.4961 2.5s20.833 6.16699 29.5 13.5c9.33301 8 17.5 20.5 24.5 37.5
s12.5 41.833 16.5 74.5s6 76 6 130c0 44 -1.16699 78.5 -3.5 103.5s-5.66602 43.667 -9.99902 56s-9.5 21.166 -15.5 26.499c-3.33301 3.33301 -9.16602 7 -17.499 11s-21.166 6 -38.499 6c-21.333 0 -43.166 -3.5 -65.499 -10.5s-42.5 -14.667 -60.5 -23
s-31.333 -15.166 -40 -20.499v-386c14 -4 35 -8.5 63 -13.5s56 -7.5 84 -7.5z" />
    <glyph glyph-name="q" unicode="q" horiz-adv-x="577" 
d="M404 -166v186.998c-11.333 -5.33301 -24 -10.666 -38 -15.999s-29.667 -9.66602 -47 -12.999s-37 -5 -59 -5c-24 0 -47.167 4.66699 -69.5 14s-42.666 25.5 -60.999 48.5s-32.833 55 -43.5 96s-16 93.167 -16 156.5c0 74 8 132.333 24 175s39.667 73 71 91s70 27 116 27
c24 0 48 -1.66699 72 -5s46.167 -7.33301 66.5 -12s36.666 -8.66699 48.999 -12l18.5 -5v-727h-83zM252 60.998c39.333 0 71.166 4 95.499 12s43.166 15 56.499 21v410c-6.66699 2 -15.5 4.33301 -26.5 7s-25.333 5 -43 7s-40.167 3 -67.5 3c-22 0 -38.5 -1.5 -49.5 -4.5
s-20.167 -8.5 -27.5 -16.5c-10 -11.333 -18 -31.833 -24 -61.5s-9 -75.167 -9 -136.5c0 -67.333 3.66699 -118.166 11 -152.499s17 -57.833 29 -70.5c6.66699 -6.66699 13.834 -11.334 21.501 -14.001s18.834 -4 33.501 -4z" />
    <glyph glyph-name="r" unicode="r" horiz-adv-x="395" 
d="M101 0v582.002h53l11 -59h6l15.5 11c10.333 7.33301 23.833 15.666 40.5 24.999s34.5 17.666 53.5 24.999s36.833 11 53.5 11c10 0 19.333 -0.833008 28 -2.5l13 -2.5l-7 -80l-13 1c-8.66699 0.666992 -16.667 1 -24 1c-18.667 0 -37.5 -2.66699 -56.5 -8
s-36.5 -12 -52.5 -20s-28.667 -15.667 -38 -23v-461h-83z" />
    <glyph glyph-name="s" unicode="s" horiz-adv-x="492" 
d="M245 -13c-24.667 0 -48.335 2.5 -71.002 7.5s-43 10.667 -61 17s-32.167 11.833 -42.5 16.5l-15.5 7l21 71l15.5 -7c10.333 -4.66699 24.166 -10.167 41.499 -16.5s37 -11.833 59 -16.5s44.667 -7 68 -7c13.333 0 25.666 1.16699 36.999 3.5s20.333 6.5 27 12.5
c7.33301 6.66699 14 16.667 20 30s9 29.333 9 48c0 28 -6.66699 49.333 -20 64s-30.666 26 -51.999 34s-44 15.333 -68 22c-19.333 5.33301 -38.333 11.333 -57 18s-35.5 15.667 -50.5 27s-27 26.5 -36 45.5s-13.5 43.5 -13.5 73.5c0 47.333 14.5 85.5 43.5 114.5
s77.833 43.5 146.5 43.5c23.333 0 45.666 -1.5 66.999 -4.5s40.166 -6.33301 56.499 -10s28.5 -6.83398 36.5 -9.50098l-13 -70l-13.5 3.5c-9 2.33301 -21.167 4.83301 -36.5 7.5s-32.666 5.16699 -51.999 7.5s-39.666 3.5 -60.999 3.5c-20 0 -36 -1.16699 -48 -3.5
s-21 -5.83301 -27 -10.5s-11 -12.167 -15 -22.5s-6 -22.5 -6 -36.5c0 -28 7.83301 -49 23.5 -63s35.667 -24.667 60 -32l75.5 -23c18 -5.33301 35.333 -11.666 52 -18.999s31.834 -17 45.501 -29s24.334 -27.333 32.001 -46s11.5 -41.667 11.5 -69
c0 -54 -16.167 -97.833 -48.5 -131.5s-79.166 -50.5 -140.499 -50.5z" />
    <glyph glyph-name="t" unicode="t" horiz-adv-x="364" 
d="M253 -14c-28.667 0 -53.667 4.83301 -75 14.5s-37.833 28.334 -49.5 56.001s-17.5 68.834 -17.5 123.501v303h-66v52l69 14l22 136h58v-137h116v-67h-116v-307c0 -36.667 1 -63.334 3 -80.001s7.16699 -27.167 15.5 -31.5s22.5 -6.5 42.5 -6.5
c10.667 0 20 0.166992 28 0.5s14.333 0.666016 19 0.999023l7 0.5v-67l-15 -2.5c-10 -1.66699 -23.667 -2.5 -41 -2.5z" />
    <glyph glyph-name="u" unicode="u" horiz-adv-x="600" 
d="M234 -13c-26.667 0 -51.166 6.49805 -73.499 19.498s-40 34.5 -53 64.5s-19.5 71.333 -19.5 124v387h83v-356c0 -36.667 1 -66.667 3 -90s5.66699 -39.666 11 -48.999c4.66699 -7.33301 12.167 -12.666 22.5 -15.999s22.166 -5 35.499 -5c30 0 59.833 5.83301 89.5 17.5
s57.5 23.5 83.5 35.5v463h83v-582h-56l-10 56h-6l-45 -24.5c-20 -11 -42.667 -21.167 -68 -30.5s-52 -14 -80 -14z" />
    <glyph glyph-name="v" unicode="v" horiz-adv-x="474" 
d="M183 0l-169 582h89l131 -511h6l130 511h89l-168 -582h-108z" />
    <glyph glyph-name="w" unicode="w" horiz-adv-x="727" 
d="M139 0l-115 582h85l88 -517h5l101 440h122l101 -440h5l88 517h85l-115 -582h-122l-100 440h-6l-100 -440h-122z" />
    <glyph glyph-name="x" unicode="x" horiz-adv-x="491" 
d="M17 0l174 303l-172 279h94l127 -233h5l124 233h94l-172 -281l175 -301h-97l-127 251h-5l-124 -251h-96z" />
    <glyph glyph-name="y" unicode="y" horiz-adv-x="479" 
d="M119 -166l78 227l-186 521h89l134 -425h4l134 425h89l-196 -545l-58 -203h-88z" />
    <glyph glyph-name="z" unicode="z" horiz-adv-x="471" 
d="M34 0v67l299 445v5l-286 -4v69h382v-67l-298 -443v-7l304 4v-69h-401z" />
    <glyph glyph-name="braceleft" unicode="{" horiz-adv-x="417" 
d="M333 -124c-48.667 0 -86.999 15.8311 -114.999 47.498s-42 82.834 -42 153.501v109c0 30 -3.33301 52.333 -10 67s-18.5 25.334 -35.5 32.001s-41.833 12.334 -74.5 17.001v74c31.333 4.66699 55.666 10.334 72.999 17.001s29.5 17.667 36.5 33s10.5 37.666 10.5 66.999
v99c0 46.667 6.5 84 19.5 112s31 48.333 54 61s49.833 19 80.5 19c11.333 0 23 -0.5 35 -1.5l18 -1.5l-4 -65l-11 0.5c-7.33301 0.333008 -15.666 0.833008 -24.999 1.5s-17.333 1 -24 1c-14 0 -25.333 -2.83301 -34 -8.5s-15.167 -17.667 -19.5 -36s-6.5 -46.5 -6.5 -84.5
v-98c0 -32 -4 -58 -12 -78s-17.5 -35.167 -28.5 -45.5s-21.667 -17.333 -32 -21s-17.5 -5.83398 -21.5 -6.50098v-6c4 -0.666992 11 -2.83398 21 -6.50098s20.667 -10.5 32 -20.5s21 -25.167 29 -45.5s12 -47.166 12 -80.499v-105c0 -39.333 2.33301 -68.833 7 -88.5
s11.667 -32.5 21 -38.5s20.666 -9 33.999 -9l58 3l4 -66z" />
    <glyph glyph-name="bar" unicode="|" horiz-adv-x="280" 
d="M103 -81v834h74v-834h-74z" />
    <glyph glyph-name="braceright" unicode="}" horiz-adv-x="417" 
d="M84 -123l-50 1.00293l4 66l58 -2c14 0 25.5 3 34.5 9s15.833 18.667 20.5 38s7 48.666 7 87.999v105c0 33.333 4 60.166 12 80.499s17.667 35.5 29 45.5s22 16.833 32 20.5s17 5.83398 21 6.50098v6c-4 0.666992 -11.167 2.83398 -21.5 6.50098s-21 10.667 -32 21
s-20.5 25.5 -28.5 45.5s-12 46 -12 78v98c0 38 -2 66.167 -6 84.5s-10.5 30.333 -19.5 36s-20.5 8.5 -34.5 8.5c-6.66699 0 -14.667 -0.333008 -24 -1s-17.666 -1.16699 -24.999 -1.5l-11 -0.5l-4 65l18.5 1.5c12.333 1 23.833 1.5 34.5 1.5
c30.667 0 57.5 -6.33301 80.5 -19s41 -33 54 -61s19.5 -65.333 19.5 -112v-99c0 -29.333 3.5 -51.666 10.5 -66.999s19.167 -26.333 36.5 -33s41.666 -12.334 72.999 -17.001v-74c-32 -4.66699 -56.667 -10.334 -74 -17.001s-29.333 -17.334 -36 -32.001s-10 -37 -10 -67
v-109c0 -70.667 -13.833 -121.834 -41.5 -153.501s-66.167 -47.167 -115.5 -46.5z" />
    <glyph glyph-name="asciitilde" unicode="~" horiz-adv-x="524" 
d="M380 215c-12 0 -28.1689 3.66699 -48.502 11s-42.5 16 -66.5 26s-47.167 18.667 -69.5 26s-41.166 11 -56.499 11c-8.66699 0 -18.5 -2.66699 -29.5 -8s-21.167 -11.333 -30.5 -18l-22 -16l-30 42c6.66699 7.33301 16.334 16.833 29.001 28.5s26.834 22.167 42.501 31.5
s31.167 14 46.5 14c18 0 37.833 -3.66699 59.5 -11s43.5 -15.833 65.5 -25.5s43.167 -18.167 63.5 -25.5s37.833 -11 52.5 -11c11.333 0 24.666 3.33301 39.999 10s28 13 38 19l26 -41c-5.33301 -7.33301 -13.333 -16 -24 -26s-23.167 -18.667 -37.5 -26
s-30.5 -11 -48.5 -11z" />
    <glyph glyph-name="nbspace" unicode="&#xa0;" horiz-adv-x="240" 
 />
    <glyph glyph-name="exclamdown" unicode="&#xa1;" horiz-adv-x="268" 
d="M89 -112l14 505h65l14 -505h-93zM80 493v89h108v-89h-108z" />
    <glyph glyph-name="cent" unicode="&#xa2;" horiz-adv-x="518" 
d="M269 -118l-0.00390625 106.998c-60 6 -108.167 33 -144.5 81s-54.5 122.333 -54.5 223c0 69.333 8.66699 124.833 26 166.5s41 72.834 71 93.501s64 33.667 102 39v102h73v-99c22.667 -0.666992 44.834 -2.66699 66.501 -6s39.834 -6.66602 54.501 -9.99902l-10 -70
c-12.667 1.33301 -32.667 3.83301 -60 7.5s-56.666 5.5 -87.999 5.5c-24.667 0 -45.5 -2 -62.5 -6s-30.167 -10.667 -39.5 -20c-12.667 -14 -23.5 -39.5 -32.5 -76.5s-13.5 -81.167 -13.5 -132.5c0 -47.333 3.66699 -85.5 11 -114.5s16 -51 26 -66s19 -25.5 27 -31.5
c5.33301 -4 12.5 -7.66699 21.5 -11s21.833 -5 38.5 -5c19.333 0 39 2.33301 59 7s38.333 10 55 16s30.167 11.333 40.5 16l15.5 7l26 -65l-16.5 -10.5c-11 -7 -26.667 -14.5 -47 -22.5s-44.166 -13.667 -71.499 -17v-108h-73z" />
    <glyph glyph-name="sterling" unicode="&#xa3;" horiz-adv-x="557" 
d="M72 0l-0.00292969 73.999h88v272h-88v65h88c0.666992 58.667 6.83398 107.167 18.501 145.5s27.667 68.5 48 90.5s43.833 37.667 70.5 47s55.334 14 86.001 14c22 0 44 -1.66699 66 -5s40 -7 54 -11l-9 -70c-16 2.66699 -34.5 5.5 -55.5 8.5s-43.167 4.5 -66.5 4.5
c-24 0 -42.833 -2 -56.5 -6s-24.167 -10.667 -31.5 -20c-10.667 -13.333 -19.667 -37.166 -27 -71.499s-11.666 -76.5 -12.999 -126.5h180v-65h-180v-271l244 2v-77h-416z" />
    <glyph glyph-name="currency" unicode="&#xa4;" horiz-adv-x="649" 
d="M129 101l-53.998 56l57 57c-11.333 17.333 -20.833 37.333 -28.5 60s-11.5 48.334 -11.5 77.001c0 29.333 4 55.333 12 78s18 42.667 30 60l-56 57l55 56l58 -58c43.333 28 89.333 42 138 42c23.333 0 46.5 -3.33301 69.5 -10s44.5 -16.667 64.5 -30l58 57l56 -55
l-57 -56c13.333 -17.333 24.166 -37.333 32.499 -60s12.5 -49.667 12.5 -81c0 -30.667 -4 -57.334 -12 -80.001s-18 -42.667 -30 -60l57 -57l-56 -54l-57 55c-43.333 -28 -89.333 -42 -138 -42c-50.667 0 -98.334 15 -143.001 45zM329.002 187
c54.667 0 94.333 12.5 119 37.5s37 66.833 37 125.5c0 58 -14.5 99.5 -43.5 124.5s-66.5 37.5 -112.5 37.5s-83.667 -12.5 -113 -37.5s-44 -66.5 -44 -124.5c0 -58.667 14.667 -100.5 44 -125.5s67 -37.5 113 -37.5z" />
    <glyph glyph-name="yen" unicode="&#xa5;" horiz-adv-x="544" 
d="M47 270v66h149l-171 359h94l149 -358h6l148 358h94l-172 -359h150v-66h-447zM228 0v146h-181v66h447v-66h-183v-146h-83z" />
    <glyph glyph-name="brokenbar" unicode="&#xa6;" horiz-adv-x="280" 
d="M103 403v350h74v-350h-74zM103 -81v350h74v-350h-74z" />
    <glyph glyph-name="section" unicode="&#xa7;" horiz-adv-x="521" 
d="M259 -93c-28 0 -54.167 2.50098 -78.5 7.50098s-45.5 10.667 -63.5 17s-32 11.833 -42 16.5l-15 7l21 71l16 -7c10.667 -4.66699 24.667 -10.167 42 -16.5s36.666 -11.833 57.999 -16.5s42.666 -7 63.999 -7c34.667 0 58.334 5 71.001 15
c8 5.33301 14.833 14.333 20.5 27s8.5 29 8.5 49c0 20.667 -6.16699 37 -18.5 49s-28.166 21.667 -47.499 29s-40.333 14.333 -63 21c-28.667 8.66699 -56.167 19.167 -82.5 31.5s-48 28.666 -65 48.999s-25.5 46.5 -25.5 78.5c0 24 5.66699 46.167 17 66.5
s26.333 37.833 45 52.5c-12.667 12 -22.834 26.5 -30.501 43.5s-11.5 37.167 -11.5 60.5c0 46.667 13.5 84.5 40.5 113.5s71.167 43.5 132.5 43.5c34 0 65.667 -3 95 -9s49.333 -10.667 60 -14l-13 -70l-12.5 3.5c-8.33301 2.33301 -19.666 4.83301 -33.999 7.5
s-30.833 5.16699 -49.5 7.5s-38.667 3.5 -60 3.5c-14 0 -26.333 -1.33301 -37 -4s-18.667 -6.33398 -24 -11.001s-10 -12 -14 -22s-6 -22.667 -6 -38c0 -22 6.83301 -39.5 20.5 -52.5s31.5 -23.667 53.5 -32l70 -25.5c27.333 -9.33301 54 -19.666 80 -30.999
s47.333 -26.166 64 -44.499s25 -43.166 25 -74.499c0 -28.667 -7.16699 -54 -21.5 -76s-29.833 -40.667 -46.5 -56c11.333 -10.667 20.333 -24 27 -40s10 -34.667 10 -56c0 -25.333 -4.33301 -48.333 -13 -69s-21 -38.334 -37 -53.001s-35 -25.834 -57 -33.501
s-46.333 -11.5 -73 -11.5zM343 208.001c11.333 11.333 22.666 24.832 33.999 40.499s17 30.834 17 45.501c0 21.333 -11 37.5 -33 48.5s-48.333 21.833 -79 32.5l-52 18.5c-18 6.33301 -35.333 13.166 -52 20.499c-11.333 -12 -21 -25 -29 -39s-12 -30.333 -12 -49
c0 -14 5.33301 -26.167 16 -36.5s24.334 -19.166 41.001 -26.499s33.667 -14 51 -20c22 -7.33301 40.667 -13.833 56 -19.5z" />
    <glyph glyph-name="dieresis" unicode="&#xa8;" horiz-adv-x="285" 
d="M0 684v82h99v-82h-99zM187 684v82h98v-82h-98z" />
    <glyph glyph-name="copyright" unicode="&#xa9;" horiz-adv-x="836" 
d="M417 -27c-50.667 0 -97.166 8.66699 -139.499 26s-78.833 41.5 -109.5 72.5s-54.334 67.833 -71.001 110.5s-25 89.334 -25 140.001s8.83301 97.334 26.5 140.001s42.167 79.5 73.5 110.5s68 55.167 110 72.5s87 26 135 26c50.667 0 97.167 -8.66699 139.5 -26
s79 -41.5 110 -72.5s55 -67.833 72 -110.5s25.5 -89.334 25.5 -140.001s-8.5 -97.334 -25.5 -140.001s-41 -79.5 -72 -110.5s-67.667 -55.167 -110 -72.5s-88.833 -26 -139.5 -26zM406.001 104c-28.667 0 -55.002 7.00195 -79.002 21.002s-43.167 36.5 -57.5 67.5
s-21.5 72.167 -21.5 123.5c0 46 4.5 83.333 13.5 112s21.333 51 37 67s33.834 27 54.501 33s42.334 9 65.001 9c9.33301 0 20.5 -0.5 33.5 -1.5s25.667 -2.33301 38 -4s21.5 -3.83398 27.5 -6.50098l-5 -65c-4.66699 0.666992 -13.167 1.66699 -25.5 3s-25 2.5 -38 3.5
s-22.5 1.5 -28.5 1.5c-18.667 0 -33 -1.16699 -43 -3.5s-17.333 -6.16602 -22 -11.499c-7.33301 -8.66699 -13.833 -23 -19.5 -43s-8.5 -51.667 -8.5 -95c0 -36.667 3.33301 -65.334 10 -86.001s13.667 -34.334 21 -41.001c8.66699 -8.66699 23 -13 43 -13
c19.333 0 38 2.33301 56 7s32.667 9.16699 44 13.5l17 6.5l18 -61l-16.5 -9.5c-11 -6.33301 -26.167 -12.5 -45.5 -18.5s-42 -9 -68 -9zM416.999 43.002c57.333 0 106.5 11.332 147.5 33.999s72.5 54.834 94.5 96.501s33 91.167 33 148.5s-11 106.833 -33 148.5
s-53.5 73.834 -94.5 96.501s-90.167 34 -147.5 34c-54 0 -101.5 -11.333 -142.5 -34s-73 -54.834 -96 -96.501s-34.5 -91.167 -34.5 -148.5c0 -86 24 -154 72 -204s115 -75 201 -75z" />
    <glyph glyph-name="ordfeminine" unicode="&#xaa;" horiz-adv-x="424" 
d="M159 289c-32.667 0 -59 10.667 -79 32s-30 55 -30 101c0 30.667 7 55 21 73s33 31 57 39s50.667 12 80 12h33h26.5h10.5c0 25.333 -1.33301 44.833 -4 58.5s-8.66699 23 -18 28s-24 7.5 -44 7.5c-20.667 0 -41.5 -2.83301 -62.5 -8.5s-38.333 -11.5 -52 -17.5l-20.5 -9
l-18 58l14 6c9.33301 4 21.5 8.5 36.5 13.5s31.333 9.5 49 13.5s34.5 6 50.5 6c52 0 87.833 -12.5 107.5 -37.5s29.5 -60.833 29.5 -107.5v-259h-46l-10 38h-4l-19 -11.5c-12.667 -7.66699 -28.667 -15.5 -48 -23.5s-39.333 -12 -60 -12zM177 352
c14 0 28.834 2.83203 44.501 8.49902s29 11.334 40 17.001l16.5 8.5v97l-19 1.5c-12.667 1 -30 1.5 -52 1.5c-16.667 0 -30.834 -1.16699 -42.501 -3.5s-19.5 -5.5 -23.5 -9.5c-6 -4.66699 -10.833 -11.5 -14.5 -20.5s-5.5 -21.167 -5.5 -36.5
c0 -23.333 4.66699 -39.833 14 -49.5s23.333 -14.5 42 -14.5z" />
    <glyph glyph-name="guillemotleft" unicode="&#xab;" horiz-adv-x="460" 
d="M181 88l-141 242l141 242l62 -38l-122 -200v-7l122 -200zM360 88l-141 242l141 242l61 -38l-121 -200v-7l121 -200z" />
    <glyph glyph-name="logicalnot" unicode="&#xac;" horiz-adv-x="587" 
d="M470 117v140h-442v73h515v-213h-73z" />
    <glyph glyph-name="uni00AD" unicode="&#xad;" horiz-adv-x="389" 
d="M80 258v71h229v-71h-229z" />
    <glyph glyph-name="registered" unicode="&#xae;" horiz-adv-x="836" 
d="M417 -27c-50.667 0 -97.166 8.66699 -139.499 26s-78.833 41.5 -109.5 72.5s-54.334 67.833 -71.001 110.5s-25 89.334 -25 140.001s8.83301 97.334 26.5 140.001s42.167 79.5 73.5 110.5s68 55.167 110 72.5s87 26 135 26c50.667 0 97.167 -8.66699 139.5 -26
s79 -41.5 110 -72.5s55 -67.833 72 -110.5s25.5 -89.334 25.5 -140.001s-8.5 -97.334 -25.5 -140.001s-41 -79.5 -72 -110.5s-67.667 -55.167 -110 -72.5s-88.833 -26 -139.5 -26zM417.001 43c57.333 0 106.5 11.332 147.5 33.999s72.5 54.834 94.5 96.501
s33 91.167 33 148.5s-11 106.833 -33 148.5s-53.5 73.834 -94.5 96.501s-90.167 34 -147.5 34c-54 0 -101.5 -11.333 -142.5 -34s-73 -54.834 -96 -96.501s-34.5 -91.167 -34.5 -148.5c0 -86 24 -154 72 -204s115 -75 201 -75zM281.001 117.999l2.99902 193l-2 213
c6.66699 0.666992 18.167 1.66699 34.5 3s34.5 2.5 54.5 3.5s38.333 1.5 55 1.5c42.667 0 76.334 -9.83301 101.001 -29.5s37 -53.167 37 -100.5c0 -38.667 -8.33301 -68.167 -25 -88.5s-34.667 -32.833 -54 -37.5v-3l80 -155h-81l-71 149l-60 1v-150h-72zM431 330.999
c21.333 0 36.333 5.5 45 16.5s13 28.833 13 53.5c0 25.333 -4 43 -12 53s-24.667 15 -50 15c-16.667 0 -33 -0.833008 -49 -2.5l-24 -2.5l-2 -129c12 -1.33301 25.333 -2.33301 40 -3s27.667 -1 39 -1z" />
    <glyph glyph-name="macron" unicode="&#xaf;" horiz-adv-x="320" 
d="M0 690v65h320v-65h-320z" />
    <glyph glyph-name="degree" unicode="&#xb0;" horiz-adv-x="347" 
d="M174 407c-24.667 0 -48.667 5 -72 15s-42.333 26 -57 48s-22 51.333 -22 88s7.33301 65.834 22 87.501s33.667 37.334 57 47.001s47.333 14.5 72 14.5s48.5 -4.83301 71.5 -14.5s41.833 -25.334 56.5 -47.001s22 -50.834 22 -87.501s-7.33301 -66 -22 -88
s-33.5 -38 -56.5 -48s-46.833 -15 -71.5 -15zM174 474c23.333 0 42.333 6 57 18s22 34 22 66c0 31.333 -7.33301 52.833 -22 64.5s-33.667 17.5 -57 17.5c-24 0 -43.333 -5.83301 -58 -17.5s-22 -33.167 -22 -64.5c0 -32 7.33301 -54 22 -66s34 -18 58 -18z" />
    <glyph glyph-name="plusminus" unicode="&#xb1;" horiz-adv-x="559" 
d="M242 155v172h-190v70h190v171h74v-171h191v-70h-191v-172h-74zM52 17v72h455v-72h-455z" />
    <glyph glyph-name="uni00B2" unicode="&#xb2;" horiz-adv-x="370" 
d="M55 298l-0.000976562 50.001l95 112c23.333 27.333 41 49.666 53 66.999s20.167 31.833 24.5 43.5s6.5 22.167 6.5 31.5c0 12 -3.16699 21.833 -9.5 29.5s-17.166 11.5 -32.499 11.5c-14.667 0 -28.834 -1.66699 -42.501 -5s-26.5 -7.83301 -38.5 -13.5
s-23.667 -11.834 -35 -18.501l-26 52c6 5.33301 15.833 11.5 29.5 18.5s29.667 13.167 48 18.5s37.5 8 57.5 8c21.333 0 40.5 -4 57.5 -12s30.5 -19.333 40.5 -34s15 -32.667 15 -54c0 -20.667 -4.16699 -40.667 -12.5 -60s-25.166 -44.666 -50.499 -75.999l-90 -110v-4
l160 4v-59h-250z" />
    <glyph glyph-name="uni00B3" unicode="&#xb3;" horiz-adv-x="355" 
d="M169 290c-23.333 0 -44.667 2.83398 -64 8.50098s-34.666 11.334 -45.999 17.001l-17 8.5l19 52l9.5 -4c6.33301 -2.66699 14.666 -6 24.999 -10s22 -7.33301 35 -10s25.833 -4 38.5 -4c22 0 37.333 5.16699 46 15.5s13 26.833 13 49.5c0 26 -6.33301 43.833 -19 53.5
s-31 14.5 -55 14.5h-50v54c29.333 2.66699 52.166 5.16699 68.499 7.5s27.833 7.16602 34.5 14.499s10 19.333 10 36c0 18 -4 31 -12 39c-4.66699 4 -11.834 7.16699 -21.501 9.5s-22.5 3.5 -38.5 3.5c-10.667 0 -21 -0.333008 -31 -1s-25 -2.33398 -45 -5.00098l-5 55
c7.33301 1.33301 16.333 2.66602 27 3.99902s21.834 2.5 33.501 3.5s22.167 1.5 31.5 1.5c36.667 0 67 -7.16699 91 -21.5s36 -41.166 36 -80.499c0 -24 -4.5 -42.167 -13.5 -54.5s-18.667 -20.5 -29 -24.5s-17.833 -6.33301 -22.5 -7v-4c10 -1.33301 21 -5 33 -11
s22.333 -16 31 -30s13 -34 13 -60c0 -22 -4 -42.167 -12 -60.5s-21.167 -32.833 -39.5 -43.5s-43.166 -16 -74.499 -16z" />
    <glyph glyph-name="acute" unicode="&#xb4;" horiz-adv-x="214" 
d="M20 654l-20 50l184 84l30 -67z" />
    <glyph glyph-name="uni03BC" unicode="&#xb5;" horiz-adv-x="601" 
d="M88 -166l-0.00195312 747.996h84v-357c0 -38 0.833008 -67.667 2.5 -89s5.16699 -37 10.5 -47c5.33301 -8 12.833 -14.167 22.5 -18.5s24.167 -6.5 43.5 -6.5c20 0 41.667 3.83301 65 11.5s44.333 15.834 63 24.501l37 17v465h84v-582h-56l-10 56h-6
c-5.33301 -3.33301 -14.666 -8.66602 -27.999 -15.999s-29 -15.166 -47 -23.499s-36.5 -15.333 -55.5 -21s-36.833 -8.5 -53.5 -8.5c-14.667 0 -28.167 1.33301 -40.5 4s-24.166 7.33398 -35.499 14.001l-4 -3l8 -168h-84z" />
    <glyph glyph-name="paragraph" unicode="&#xb6;" horiz-adv-x="658" 
d="M265 -154l0.000976562 348.001c-44 0 -82.167 7.66699 -114.5 23s-57.333 41.166 -75 77.499s-26.5 86.5 -26.5 150.5s8.66699 114.167 26 150.5s42.166 62 74.499 77s70.833 22.5 115.5 22.5h295v-849h-84v775h-127v-775h-84z" />
    <glyph glyph-name="periodcentered" unicode="&#xb7;" horiz-adv-x="300" 
d="M154 274c-9.33301 0 -18.333 1.83301 -27 5.5s-15.834 9.66699 -21.501 18s-8.5 19.5 -8.5 33.5c0 14.667 2.83301 26 8.5 34s12.834 13.667 21.501 17s17.667 5 27 5s18.166 -1.66699 26.499 -5s15.333 -9 21 -17s8.5 -19.333 8.5 -34
c0 -14 -2.83301 -25.167 -8.5 -33.5s-12.667 -14.333 -21 -18s-17.166 -5.5 -26.499 -5.5z" />
    <glyph glyph-name="cedilla" unicode="&#xb8;" horiz-adv-x="182" 
d="M73 -179c-18 0 -34.668 1.5 -50.001 4.5l-23 4.5v62l12 -1c8 -0.666992 17 -1.5 27 -2.5s18.333 -1.5 25 -1.5c20 0 34 1.83301 42 5.5s12 12.167 12 25.5c0 17.333 -1.66699 34 -5 50s-6.33301 28.667 -9 38l59 4c2.66699 -6 5.33398 -14 8.00098 -24
s5.16699 -20.667 7.5 -32s3.5 -22.333 3.5 -33c0 -30.667 -10.333 -55 -31 -73s-46.667 -27 -78 -27z" />
    <glyph glyph-name="uni00B9" unicode="&#xb9;" horiz-adv-x="371" 
d="M64 298v58h101v280h-4l-86 -73l-36 46l122 93l72 -5v-341h88v-58h-257z" />
    <glyph glyph-name="ordmasculine" unicode="&#xba;" horiz-adv-x="357" 
d="M178 289c-38.667 0 -69.334 8.33301 -92.001 25s-38.834 40.5 -48.501 71.5s-14.5 67.5 -14.5 109.5c0 42.667 4.83301 79.5 14.5 110.5s25.834 54.833 48.501 71.5s53.334 25 92.001 25c40 0 71.333 -8.33301 94 -25s38.667 -40.5 48 -71.5s14 -67.833 14 -110.5
c0 -42 -4.66699 -78.5 -14 -109.5s-25.333 -54.833 -48 -71.5s-54 -25 -94 -25zM178 350c21.333 0 38.333 3.66699 51 11s21.834 21.5 27.501 42.5s8.5 51.5 8.5 91.5c0 41.333 -2.83301 72.333 -8.5 93s-14.834 34.667 -27.501 42s-29.667 11 -51 11
c-20.667 0 -37.167 -3.66699 -49.5 -11s-21.333 -21.333 -27 -42s-8.5 -51.667 -8.5 -93c0 -40 2.83301 -70.5 8.5 -91.5s14.667 -35.167 27 -42.5s28.833 -11 49.5 -11z" />
    <glyph glyph-name="guillemotright" unicode="&#xbb;" horiz-adv-x="460" 
d="M101 88l-62 39l122 200v7l-122 200l62 38l141 -242zM279 88l-61 39l121 200v7l-121 200l61 38l141 -242z" />
    <glyph glyph-name="onequarter" unicode="&#xbc;" horiz-adv-x="881" 
d="M248 -9l186 391l156 351h74l-177 -382l-164 -360h-75zM64 298v58h101v280h-4l-86 -73l-36 46l122 93l72 -5v-341h88v-58h-257zM722 0l2 82h-178v52l95 272l61 -7l-94 -259v-2l116 3l11 152h52v-152l37 1v-60h-37v-82h-65z" />
    <glyph glyph-name="onehalf" unicode="&#xbd;" horiz-adv-x="909" 
d="M252 -9l186 391l156 351h74l-177 -382l-164 -360h-75zM64 298v58h101v280h-4l-86 -73l-36 46l122 93l72 -5v-341h88v-58h-257zM594 0v51.001l10 11l26 28.5l33 37.5l31 37l38 49c12 16 21.833 31.667 29.5 47s11.5 29.666 11.5 42.999c0 12 -3.16699 21.833 -9.5 29.5
s-17.166 11.5 -32.499 11.5c-14.667 0 -28.834 -1.66699 -42.501 -5s-26.5 -7.83301 -38.5 -13.5s-23.667 -11.834 -35 -18.501l-26 52c6 5.33301 15.667 11.5 29 18.5s28.833 13.167 46.5 18.5s35.167 8 52.5 8c24 0 45 -4 63 -12s32 -19.333 42 -34s15 -32.667 15 -54
c0 -22 -6.5 -45 -19.5 -69s-27.833 -47 -44.5 -69c-6.66699 -9.33301 -15.167 -20.166 -25.5 -32.499l-30 -35.5l-24.5 -28.5l-10 -11.5v-4l161 4v-59h-250z" />
    <glyph glyph-name="threequarters" unicode="&#xbe;" horiz-adv-x="857" 
d="M228 -9l186 391l156 351h74l-177 -382l-164 -360h-75zM169 290c-23.333 0 -44.667 2.83496 -64 8.50195s-34.666 11.334 -45.999 17.001l-17 8.5l19 52l9.5 -4c6.33301 -2.66699 14.666 -6 24.999 -10s22 -7.33301 35 -10s25.833 -4 38.5 -4c22 0 37.333 5.16699 46 15.5
s13 26.833 13 49.5c0 26 -6.33301 43.833 -19 53.5s-31 14.5 -55 14.5h-50v54c29.333 2.66699 52.166 5.16699 68.499 7.5s27.833 7.16602 34.5 14.499s10 19.333 10 36c0 18 -4 31 -12 39c-4.66699 4 -11.834 7.16699 -21.501 9.5s-22.5 3.5 -38.5 3.5
c-10.667 0 -21 -0.333008 -31 -1s-25 -2.33398 -45 -5.00098l-5 55c7.33301 1.33301 16.333 2.66602 27 3.99902s21.834 2.5 33.501 3.5s22.167 1.5 31.5 1.5c36.667 0 67 -7.16699 91 -21.5s36 -41.166 36 -80.499c0 -24 -4.5 -42.333 -13.5 -55s-18.667 -21.167 -29 -25.5
s-17.833 -6.83301 -22.5 -7.5v-4c10 -1.33301 21 -4.83301 33 -10.5s22.333 -15.334 31 -29.001s13 -33.5 13 -59.5c0 -22 -4 -42.167 -12 -60.5s-21.167 -32.833 -39.5 -43.5s-43.166 -16 -74.499 -16zM699.999 0.00195312l2 82h-178v52l95 272l61 -7l-94 -259v-2l116 3
l11 152h52v-152l37 1v-60h-37v-82h-65z" />
    <glyph glyph-name="questiondown" unicode="&#xbf;" horiz-adv-x="463" 
d="M313 391v-9.99902c0 -34 -5 -62.333 -15 -85s-22.667 -41.5 -38 -56.5s-31.333 -29.167 -48 -42.5c-15.333 -12 -30.333 -24.333 -45 -37s-26.5 -27.834 -35.5 -45.501s-13.5 -39.5 -13.5 -65.5c0 -22.667 4.16699 -40.5 12.5 -53.5s17.5 -23.5 27.5 -31.5
c2.66699 -2 8.83398 -4.66699 18.501 -8s22.167 -5 37.5 -5c38 0 72.5 5.66699 103.5 17s59.167 23.666 84.5 36.999l30 -68l-44.5 -24c-19 -10 -41.5 -19 -67.5 -27s-56 -12 -90 -12c-39.333 0 -74 7.83301 -104 23.5s-53.333 37.334 -70 65.001s-25 59.167 -25 94.5
c0 34 5.66699 62.5 17 85.5s25.666 42.667 42.999 59s35.333 31.5 54 45.5c16.667 12.667 32.5 25.5 47.5 38.5s27.167 28 36.5 45s14 37.167 14 60.5h70zM331 582.001v-89h-108v89h108z" />
    <glyph glyph-name="Agrave" unicode="&#xc0;" horiz-adv-x="506" 
d="M5 0l189 695h118l189 -695h-86l-53 208l42 -24h-300l40 24l-53 -208h-86zM146 219l-28 39h270l-28 -39l-113 439l47 -37h-82l47 37zM362 733l-235 66l26 68l227 -83z" />
    <glyph glyph-name="Aacute" unicode="&#xc1;" horiz-adv-x="506" 
d="M5 0l189 695h118l189 -695h-86l-53 208l42 -24h-300l40 24l-53 -208h-86zM146 219l-28 39h270l-28 -39l-113 439l47 -37h-82l47 37zM154 733l-18 51l225 82l28 -73z" />
    <glyph glyph-name="Acircumflex" unicode="&#xc2;" horiz-adv-x="506" 
d="M5 0l189 695h118l189 -695h-86l-53 208l42 -24h-300l40 24l-53 -208h-86zM146 219l-28 39h270l-28 -39l-113 439l47 -37h-82l47 37zM134 733l-28 38l121 95h51l121 -95l-28 -38l-115 61h-7z" />
    <glyph glyph-name="Atilde" unicode="&#xc3;" horiz-adv-x="506" 
d="M5 0l189 695h118l189 -695h-86l-53 208l42 -24h-300l40 24l-53 -208h-86zM146 219l-28 39h270l-28 -39l-113 439l47 -37h-82l47 37zM354 746c-10.667 0 -25.835 2.49902 -45.502 7.49902s-40.167 10.667 -61.5 17l-56.5 16.5c-16.333 4.66699 -26.833 7 -31.5 7
c-4 0 -8.16699 -3.66699 -12.5 -11s-7.83301 -14.666 -10.5 -21.999l-4 -11l-52 6c0 38 6.5 64.333 19.5 79s30.833 22 53.5 22c11.333 0 26.666 -2.33301 45.999 -7s39.5 -10 60.5 -16l56 -16c16.333 -4.66699 26.833 -7 31.5 -7s8.83398 3.66699 12.501 11
s6.83398 14.5 9.50098 21.5l4 10.5l53 -7c0 -37.333 -6.16699 -63.5 -18.5 -78.5s-30.166 -22.5 -53.499 -22.5z" />
    <glyph glyph-name="Adieresis" unicode="&#xc4;" horiz-adv-x="506" 
d="M5 0l189 695h118l189 -695h-86l-53 208l42 -24h-300l40 24l-53 -208h-86zM146 219l-28 39h270l-28 -39l-113 439l47 -37h-82l47 37zM110 762v82h99v-82h-99zM297 762v82h98v-82h-98z" />
    <glyph glyph-name="Aring" unicode="&#xc5;" horiz-adv-x="506" 
d="M5 0l189 695h118l189 -695h-86l-53 208l42 -24h-300l40 24l-53 -208h-86zM146 219l-28 39h270l-28 -39l-113 439l47 -37h-82l47 37zM253 722c-14 0 -27.333 2.5 -40 7.5s-23.167 13.5 -31.5 25.5s-12.5 28.333 -12.5 49c0 21.333 4.16699 38 12.5 50
s18.833 20.5 31.5 25.5s26 7.5 40 7.5s27.333 -2.5 40 -7.5s23.167 -13.5 31.5 -25.5s12.5 -28.667 12.5 -50c0 -20.667 -4.16699 -37 -12.5 -49s-18.833 -20.5 -31.5 -25.5s-26 -7.5 -40 -7.5zM253 768c12 0 20.667 2.33301 26 7s8 14.334 8 29.001
c0 15.333 -2.66699 25.333 -8 30s-14 7 -26 7s-21 -2.33301 -27 -7s-9 -14.667 -9 -30c0 -14.667 3 -24.334 9 -29.001s15 -7 27 -7z" />
    <glyph glyph-name="AE" unicode="&#xc6;" horiz-adv-x="765" 
d="M-3 0l299 695h401v-76l-258 3l-5 -233h239v-71h-239l5 -245l258 2v-75h-341v183h-192l-78 -183h-89zM185 256h171v371h-18z" />
    <glyph glyph-name="Ccedilla" unicode="&#xc7;" horiz-adv-x="583" 
d="M284 -179c-18 0 -34.668 1.5 -50.001 4.5l-23 4.5v62l12 -1c8 -0.666992 17 -1.5 27 -2.5s18.333 -1.5 25 -1.5c20 0 34 1.83301 42 5.5s12 12.167 12 25.5c0 17.333 -1.66699 34 -5 50s-6.33301 28.667 -9 38l59 4c2.66699 -6 5.33398 -14 8.00098 -24
s5.16699 -20.667 7.5 -32s3.5 -22.333 3.5 -33c0 -30.667 -10.333 -55 -31 -73s-46.667 -27 -78 -27zM311.999 -14c-47.333 0 -88.999 11.5029 -124.999 34.5029s-64.167 60.5 -84.5 112.5s-30.5 121 -30.5 207c0 76 6.5 138.167 19.5 186.5s31 85.833 54 112.5
s50.167 45 81.5 55s65.333 15 102 15c16 0 35 -0.833008 57 -2.5s43.333 -3.66699 64 -6s36.334 -4.83301 47.001 -7.5l-10 -72c-6 0.666992 -15.667 1.66699 -29 3s-28 2.66602 -44 3.99902s-31.333 2.5 -46 3.5s-26 1.5 -34 1.5c-32.667 0 -58.834 -1.66699 -78.501 -5
s-34.167 -10.666 -43.5 -21.999c-8.66699 -10.667 -17 -26.334 -25 -47.001s-14.333 -48.834 -19 -84.501s-7 -81.5 -7 -137.5c0 -70.667 6.83301 -127.167 20.5 -169.5s27.167 -70.166 40.5 -83.499c9.33301 -9.33301 20.666 -15.833 33.999 -19.5s28.333 -5.5 45 -5.5
c25.333 0 49.833 2.66699 73.5 8s44.667 11.666 63 18.999s32.833 13.666 43.5 18.999l16 8l29 -66l-15.5 -9c-10.333 -6 -24.833 -13.167 -43.5 -21.5s-41.167 -15.5 -67.5 -21.5s-55.5 -9 -87.5 -9z" />
    <glyph glyph-name="Egrave" unicode="&#xc8;" horiz-adv-x="514" 
d="M105 0v695h341v-74l-295 3l39 38l-7 -298l-37 25h276v-71h-276l37 29l7 -313l-39 38l295 2v-74h-341zM385 733l-235 66l26 68l227 -83z" />
    <glyph glyph-name="Eacute" unicode="&#xc9;" horiz-adv-x="514" 
d="M105 0v695h341v-74l-295 3l39 38l-7 -298l-37 25h276v-71h-276l37 29l7 -313l-39 38l295 2v-74h-341zM177 733l-18 51l225 82l28 -73z" />
    <glyph glyph-name="Ecircumflex" unicode="&#xca;" horiz-adv-x="514" 
d="M105 0v695h341v-74l-295 3l39 38l-7 -298l-37 25h276v-71h-276l37 29l7 -313l-39 38l295 2v-74h-341zM157 733l-28 38l121 95h51l121 -95l-28 -38l-115 61h-7z" />
    <glyph glyph-name="Edieresis" unicode="&#xcb;" horiz-adv-x="514" 
d="M105 0v695h341v-74l-295 3l39 38l-7 -298l-37 25h276v-71h-276l37 29l7 -313l-39 38l295 2v-74h-341zM133 762v82h99v-82h-99zM320 762v82h98v-82h-98z" />
    <glyph glyph-name="Igrave" unicode="&#xcc;" 
d="M227 736l-220 59l26 73l214 -79zM105 -1l3 319l-3 377h85l-4 -307l4 -388z" />
    <glyph glyph-name="Iacute" unicode="&#xcd;" 
d="M71 736l-18 53l211 80l28 -75zM105 -1l3 319l-3 377h85l-4 -307l4 -388z" />
    <glyph glyph-name="Icircumflex" unicode="&#xce;" 
d="M34 733l-26 40l114 93h51l114 -93l-26 -40l-110 61h-7zM105 -1l3 319l-3 377h85l-4 -307l4 -388z" />
    <glyph glyph-name="Idieresis" unicode="&#xcf;" 
d="M17 762v82h99v-82h-99zM180 762v82h98v-82h-98zM105 -1l3 319l-3 377h85l-4 -307l4 -388z" />
    <glyph glyph-name="Eth" unicode="&#xd0;" horiz-adv-x="643" 
d="M52 321v70h256v-70h-256zM314 -14c-13.333 0 -29.832 0.5 -49.499 1.5s-39.667 2.33301 -60 4l-54.5 4.5c-16 1.33301 -27 2.33301 -33 3v697c2.66699 0 11.334 0.666992 26.001 2s32.667 2.83301 54 4.5s43.5 3.16699 66.5 4.5s43.5 2 61.5 2
c51.333 0 93.166 -9.5 125.499 -28.5s57.166 -45 74.499 -78s29.333 -70.667 36 -113s10 -86.833 10 -133.5c0 -92 -11.167 -165 -33.5 -219s-52.833 -92.667 -91.5 -116s-82.667 -35 -132 -35zM303.001 59c36 0 62.6689 2.49902 80.002 7.49902s30.333 11.833 39 20.5
c9.33301 9.33301 18.166 24 26.499 44s15.166 48.667 20.499 86s8 86 8 146c0 60.667 -4.16699 114 -12.5 160s-21.833 77 -40.5 93c-6.66699 6 -17.167 10.833 -31.5 14.5s-36.166 5.5 -65.499 5.5c-26.667 0 -52.334 -1.16699 -77.001 -3.5s-46 -4.16602 -64 -5.49902
l15 40v-636l-18 41c19.333 -2.66699 38.333 -5.5 57 -8.5s39.667 -4.5 63 -4.5z" />
    <glyph glyph-name="Ntilde" unicode="&#xd1;" horiz-adv-x="680" 
d="M105 0v695h113l283 -594h3l-13 594h84v-695h-113l-283 594h-3l13 -594h-84zM440 746c-10.667 0 -25.835 2.49902 -45.502 7.49902s-40.167 10.667 -61.5 17l-56.5 16.5c-16.333 4.66699 -26.833 7 -31.5 7c-4 0 -8.16699 -3.66699 -12.5 -11
s-7.83301 -14.666 -10.5 -21.999l-4 -11l-52 6c0 38 6.5 64.333 19.5 79s30.833 22 53.5 22c11.333 0 26.666 -2.33301 45.999 -7s39.5 -10 60.5 -16l56 -16c16.333 -4.66699 26.833 -7 31.5 -7s8.83398 3.66699 12.501 11s6.83398 14.5 9.50098 21.5l4 10.5l53 -7
c0 -37.333 -6.16699 -63.5 -18.5 -78.5s-30.166 -22.5 -53.499 -22.5z" />
    <glyph glyph-name="Ograve" unicode="&#xd2;" horiz-adv-x="656" 
d="M328 -14c-34.667 0 -67.5 5.33301 -98.5 16s-58.333 29.167 -82 55.5s-42.167 63.166 -55.5 110.499s-20 107.666 -20 180.999s6.66699 133.333 20 180s31.833 83.167 55.5 109.5s51 44.666 82 54.999s63.833 15.5 98.5 15.5c35.333 0 68.333 -5.16699 99 -15.5
s57.834 -28.666 81.501 -54.999s42.167 -62.833 55.5 -109.5s20 -106.667 20 -180s-6.66699 -133.666 -20 -180.999s-31.833 -84.166 -55.5 -110.499s-50.834 -44.833 -81.501 -55.5s-63.667 -16 -99 -16zM328 62c28.667 0 53.4961 3.16699 74.4961 9.5
s38.333 19.166 52 38.499s23.834 47.833 30.501 85.5s10 87.834 10 150.501s-3.16699 113 -9.5 151s-16.166 66.833 -29.499 86.5s-30.666 32.834 -51.999 39.501s-46.666 10 -75.999 10c-30 0 -55.5 -3.33301 -76.5 -10s-38.167 -19.834 -51.5 -39.501
s-23.166 -48.5 -29.499 -86.5s-9.5 -88.333 -9.5 -151s3.33301 -112.834 10 -150.501s16.667 -66.167 30 -85.5s30.666 -32.166 51.999 -38.499s46.333 -9.5 75 -9.5zM436.996 733l-235 66l26 68l227 -83z" />
    <glyph glyph-name="Oacute" unicode="&#xd3;" horiz-adv-x="656" 
d="M328 -14c-34.667 0 -67.5 5.33301 -98.5 16s-58.333 29.167 -82 55.5s-42.167 63.166 -55.5 110.499s-20 107.666 -20 180.999s6.66699 133.333 20 180s31.833 83.167 55.5 109.5s51 44.666 82 54.999s63.833 15.5 98.5 15.5c35.333 0 68.333 -5.16699 99 -15.5
s57.834 -28.666 81.501 -54.999s42.167 -62.833 55.5 -109.5s20 -106.667 20 -180s-6.66699 -133.666 -20 -180.999s-31.833 -84.166 -55.5 -110.499s-50.834 -44.833 -81.501 -55.5s-63.667 -16 -99 -16zM328 62c28.667 0 53.4961 3.16699 74.4961 9.5
s38.333 19.166 52 38.499s23.834 47.833 30.501 85.5s10 87.834 10 150.501s-3.16699 113 -9.5 151s-16.166 66.833 -29.499 86.5s-30.666 32.834 -51.999 39.501s-46.666 10 -75.999 10c-30 0 -55.5 -3.33301 -76.5 -10s-38.167 -19.834 -51.5 -39.501
s-23.166 -48.5 -29.499 -86.5s-9.5 -88.333 -9.5 -151s3.33301 -112.834 10 -150.501s16.667 -66.167 30 -85.5s30.666 -32.166 51.999 -38.499s46.333 -9.5 75 -9.5zM228.996 733l-18 51l225 82l28 -73z" />
    <glyph glyph-name="Ocircumflex" unicode="&#xd4;" horiz-adv-x="656" 
d="M328 -14c-34.667 0 -67.5 5.33301 -98.5 16s-58.333 29.167 -82 55.5s-42.167 63.166 -55.5 110.499s-20 107.666 -20 180.999s6.66699 133.333 20 180s31.833 83.167 55.5 109.5s51 44.666 82 54.999s63.833 15.5 98.5 15.5c35.333 0 68.333 -5.16699 99 -15.5
s57.834 -28.666 81.501 -54.999s42.167 -62.833 55.5 -109.5s20 -106.667 20 -180s-6.66699 -133.666 -20 -180.999s-31.833 -84.166 -55.5 -110.499s-50.834 -44.833 -81.501 -55.5s-63.667 -16 -99 -16zM328 62c28.667 0 53.4961 3.16699 74.4961 9.5
s38.333 19.166 52 38.499s23.834 47.833 30.501 85.5s10 87.834 10 150.501s-3.16699 113 -9.5 151s-16.166 66.833 -29.499 86.5s-30.666 32.834 -51.999 39.501s-46.666 10 -75.999 10c-30 0 -55.5 -3.33301 -76.5 -10s-38.167 -19.834 -51.5 -39.501
s-23.166 -48.5 -29.499 -86.5s-9.5 -88.333 -9.5 -151s3.33301 -112.834 10 -150.501s16.667 -66.167 30 -85.5s30.666 -32.166 51.999 -38.499s46.333 -9.5 75 -9.5zM208.996 733l-28 38l121 95h51l121 -95l-28 -38l-115 61h-7z" />
    <glyph glyph-name="Otilde" unicode="&#xd5;" horiz-adv-x="656" 
d="M328 -14c-34.667 0 -67.5 5.33301 -98.5 16s-58.333 29.167 -82 55.5s-42.167 63.166 -55.5 110.499s-20 107.666 -20 180.999s6.66699 133.333 20 180s31.833 83.167 55.5 109.5s51 44.666 82 54.999s63.833 15.5 98.5 15.5c35.333 0 68.333 -5.16699 99 -15.5
s57.834 -28.666 81.501 -54.999s42.167 -62.833 55.5 -109.5s20 -106.667 20 -180s-6.66699 -133.666 -20 -180.999s-31.833 -84.166 -55.5 -110.499s-50.834 -44.833 -81.501 -55.5s-63.667 -16 -99 -16zM328 62c28.667 0 53.4961 3.16699 74.4961 9.5
s38.333 19.166 52 38.499s23.834 47.833 30.501 85.5s10 87.834 10 150.501s-3.16699 113 -9.5 151s-16.166 66.833 -29.499 86.5s-30.666 32.834 -51.999 39.501s-46.666 10 -75.999 10c-30 0 -55.5 -3.33301 -76.5 -10s-38.167 -19.834 -51.5 -39.501
s-23.166 -48.5 -29.499 -86.5s-9.5 -88.333 -9.5 -151s3.33301 -112.834 10 -150.501s16.667 -66.167 30 -85.5s30.666 -32.166 51.999 -38.499s46.333 -9.5 75 -9.5zM428.996 746c-10.667 0 -25.835 2.49902 -45.502 7.49902s-40.167 10.667 -61.5 17l-56.5 16.5
c-16.333 4.66699 -26.833 7 -31.5 7c-4 0 -8.16699 -3.66699 -12.5 -11s-7.83301 -14.666 -10.5 -21.999l-4 -11l-52 6c0 38 6.5 64.333 19.5 79s30.833 22 53.5 22c11.333 0 26.666 -2.33301 45.999 -7s39.5 -10 60.5 -16l56 -16c16.333 -4.66699 26.833 -7 31.5 -7
s8.83398 3.66699 12.501 11s6.83398 14.5 9.50098 21.5l4 10.5l53 -7c0 -37.333 -6.16699 -63.5 -18.5 -78.5s-30.166 -22.5 -53.499 -22.5z" />
    <glyph glyph-name="Odieresis" unicode="&#xd6;" horiz-adv-x="656" 
d="M328 -14c-34.667 0 -67.5 5.33301 -98.5 16s-58.333 29.167 -82 55.5s-42.167 63.166 -55.5 110.499s-20 107.666 -20 180.999s6.66699 133.333 20 180s31.833 83.167 55.5 109.5s51 44.666 82 54.999s63.833 15.5 98.5 15.5c35.333 0 68.333 -5.16699 99 -15.5
s57.834 -28.666 81.501 -54.999s42.167 -62.833 55.5 -109.5s20 -106.667 20 -180s-6.66699 -133.666 -20 -180.999s-31.833 -84.166 -55.5 -110.499s-50.834 -44.833 -81.501 -55.5s-63.667 -16 -99 -16zM328 62c28.667 0 53.4961 3.16699 74.4961 9.5
s38.333 19.166 52 38.499s23.834 47.833 30.501 85.5s10 87.834 10 150.501s-3.16699 113 -9.5 151s-16.166 66.833 -29.499 86.5s-30.666 32.834 -51.999 39.501s-46.666 10 -75.999 10c-30 0 -55.5 -3.33301 -76.5 -10s-38.167 -19.834 -51.5 -39.501
s-23.166 -48.5 -29.499 -86.5s-9.5 -88.333 -9.5 -151s3.33301 -112.834 10 -150.501s16.667 -66.167 30 -85.5s30.666 -32.166 51.999 -38.499s46.333 -9.5 75 -9.5zM184.996 762v82h99v-82h-99zM371.996 762v82h98v-82h-98z" />
    <glyph glyph-name="multiply" unicode="&#xd7;" horiz-adv-x="575" 
d="M106 63l-52 53l182 182l-180 180l50 51l180 -181l183 183l52 -53l-182 -182l180 -180l-50 -51l-181 180z" />
    <glyph glyph-name="Oslash" unicode="&#xd8;" horiz-adv-x="656" 
d="M108 -39l204 431l158 346h79l-174 -374l-187 -403h-80zM328 -14c-34.667 0 -67.5 5.33301 -98.5 16s-58.333 29.167 -82 55.5s-42.167 63.166 -55.5 110.499s-20 107.666 -20 180.999s6.66699 133.333 20 180s31.833 83.167 55.5 109.5s51 44.666 82 54.999
s63.833 15.5 98.5 15.5c35.333 0 68.333 -5.16699 99 -15.5s57.834 -28.666 81.501 -54.999s42.167 -62.833 55.5 -109.5s20 -106.667 20 -180s-6.66699 -133.666 -20 -180.999s-31.833 -84.166 -55.5 -110.499s-50.834 -44.833 -81.501 -55.5s-63.667 -16 -99 -16zM328 62
c28.667 0 53.4961 3.16699 74.4961 9.5s38.333 19.166 52 38.499s23.834 47.833 30.501 85.5s10 87.834 10 150.501s-3.16699 113 -9.5 151s-16.166 66.833 -29.499 86.5s-30.666 32.834 -51.999 39.501s-46.666 10 -75.999 10c-30 0 -55.5 -3.33301 -76.5 -10
s-38.167 -19.834 -51.5 -39.501s-23.166 -48.5 -29.499 -86.5s-9.5 -88.333 -9.5 -151s3.33301 -112.834 10 -150.501s16.667 -66.167 30 -85.5s30.666 -32.166 51.999 -38.499s46.333 -9.5 75 -9.5z" />
    <glyph glyph-name="Ugrave" unicode="&#xd9;" horiz-adv-x="661" 
d="M330 -14c-48 0 -88.832 9.16602 -122.499 27.499s-59.167 50.5 -76.5 96.5s-26 110 -26 192v393h84v-366c0 -60 2 -107.667 6 -143s11 -62 21 -80s24.167 -29.833 42.5 -35.5s42.166 -8.5 71.499 -8.5s53.333 3 72 9s33 17.833 43 35.5s17 44.334 21 80.001
s6 83.167 6 142.5v366h84v-384c0 -85.333 -8.83301 -151.5 -26.5 -198.5s-43.167 -79.833 -76.5 -98.5s-74.333 -28 -123 -28zM420.001 732.999l-235 66l26 68l227 -83z" />
    <glyph glyph-name="Uacute" unicode="&#xda;" horiz-adv-x="661" 
d="M330 -14c-48 0 -88.832 9.16602 -122.499 27.499s-59.167 50.5 -76.5 96.5s-26 110 -26 192v393h84v-366c0 -60 2 -107.667 6 -143s11 -62 21 -80s24.167 -29.833 42.5 -35.5s42.166 -8.5 71.499 -8.5s53.333 3 72 9s33 17.833 43 35.5s17 44.334 21 80.001
s6 83.167 6 142.5v366h84v-384c0 -85.333 -8.83301 -151.5 -26.5 -198.5s-43.167 -79.833 -76.5 -98.5s-74.333 -28 -123 -28zM262.001 732.999l-18 51l225 82l28 -73z" />
    <glyph glyph-name="Ucircumflex" unicode="&#xdb;" horiz-adv-x="661" 
d="M330 -14c-48 0 -88.832 9.16602 -122.499 27.499s-59.167 50.5 -76.5 96.5s-26 110 -26 192v393h84v-366c0 -60 2 -107.667 6 -143s11 -62 21 -80s24.167 -29.833 42.5 -35.5s42.166 -8.5 71.499 -8.5s53.333 3 72 9s33 17.833 43 35.5s17 44.334 21 80.001
s6 83.167 6 142.5v366h84v-384c0 -85.333 -8.83301 -151.5 -26.5 -198.5s-43.167 -79.833 -76.5 -98.5s-74.333 -28 -123 -28zM212.001 732.999l-28 38l121 95h51l121 -95l-28 -38l-115 61h-7z" />
    <glyph glyph-name="Udieresis" unicode="&#xdc;" horiz-adv-x="661" 
d="M330 -14c-48 0 -88.832 9.16602 -122.499 27.499s-59.167 50.5 -76.5 96.5s-26 110 -26 192v393h84v-366c0 -60 2 -107.667 6 -143s11 -62 21 -80s24.167 -29.833 42.5 -35.5s42.166 -8.5 71.499 -8.5s53.333 3 72 9s33 17.833 43 35.5s17 44.334 21 80.001
s6 83.167 6 142.5v366h84v-384c0 -85.333 -8.83301 -151.5 -26.5 -198.5s-43.167 -79.833 -76.5 -98.5s-74.333 -28 -123 -28zM188.001 761.999v82h99v-82h-99zM375.001 761.999v82h98v-82h-98z" />
    <glyph glyph-name="Yacute" unicode="&#xdd;" horiz-adv-x="505" 
d="M210 0l3 259l-197 436h91l143 -348h6l142 348h91l-197 -436l3 -259h-85zM187 733l-18 51l225 82l28 -73z" />
    <glyph glyph-name="Thorn" unicode="&#xde;" horiz-adv-x="595" 
d="M103 0l2.99805 325l-3 370h84l-1 -91c23.333 1.33301 48 2.83301 74 4.5s51.667 2.5 77 2.5c62 0 110 -19.333 144 -58s51 -96.667 51 -174c0 -48.667 -6.16699 -88.667 -18.5 -120s-29 -55.833 -50 -73.5s-44.5 -30.167 -70.5 -37.5s-52.667 -11 -80 -11
c-11.333 0 -25.166 0.333008 -41.499 1s-32.166 1.5 -47.499 2.5l-38 2.5l1 -143h-84zM323.998 208c22 0 40.165 1.33496 54.498 4.00195s25.5 7.66699 33.5 15c12 11.333 20.167 30.666 24.5 57.999s6.5 62 6.5 104c0 35.333 -2 62.666 -6 81.999s-8.66699 33.5 -14 42.5
s-10.666 14.833 -15.999 17.5c-7.33301 4.66699 -19.166 8.5 -35.499 11.5s-33.166 4.5 -50.499 4.5c-25.333 0 -50.833 -1.16699 -76.5 -3.5s-45.5 -4.83301 -59.5 -7.5v-315c11.333 -2.66699 30.166 -5.5 56.499 -8.5s53.833 -4.5 82.5 -4.5z" />
    <glyph glyph-name="germandbls" unicode="&#xdf;" horiz-adv-x="615" 
d="M340 -13c-18.667 0 -35.3311 1.33301 -49.998 4l-33 6l10 63c11.333 -2.66699 23.166 -4.5 35.499 -5.5s23.166 -1.5 32.499 -1.5c40 0 69.333 10 88 30s28 56 28 108c0 30.667 -3.83301 57 -11.5 79s-21.667 39 -42 51s-49.166 18 -86.499 18h-26v59
c44 4.66699 76.167 16.5 96.5 35.5s30.5 49.833 30.5 92.5c0 34 -5.33301 59.5 -16 76.5s-24.5 28.5 -41.5 34.5s-34.5 9 -52.5 9c-42.667 0 -72.167 -12.5 -88.5 -37.5s-24.5 -63.833 -24.5 -116.5v-492h-84v491c0 38 5.16699 70.667 15.5 98s24.5 49.833 42.5 67.5
s39 30.834 63 39.501s49.333 13 76 13c26 0 50.833 -3.83301 74.5 -11.5s44.5 -19.167 62.5 -34.5s32.333 -34 43 -56s16 -47.333 16 -76c0 -34 -6.5 -62.167 -19.5 -84.5s-27.167 -39 -42.5 -50s-27 -16.833 -35 -17.5v-3c12 -1.33301 25.833 -5 41.5 -11
s30.834 -15.667 45.501 -29s26.834 -31.333 36.501 -54s14.5 -51.667 14.5 -87c0 -30.667 -4.33301 -58.834 -13 -84.501s-21.334 -47.667 -38.001 -66s-37.334 -32.5 -62.001 -42.5s-53.334 -15 -86.001 -15z" />
    <glyph glyph-name="agrave" unicode="&#xe0;" horiz-adv-x="569" 
d="M211 -13c-30.667 0 -57.832 7.16602 -81.499 21.499s-42.167 35.333 -55.5 63s-20 61.167 -20 100.5c0 47.333 9.5 84.5 28.5 111.5s45.833 46.167 80.5 57.5s75 17 121 17h106c0 33.333 -0.833008 62.5 -2.5 87.5s-7.16699 43.5 -16.5 55.5
c-6.66699 9.33301 -15.834 15.333 -27.501 18s-23.834 4 -36.501 4c-26 0 -51.5 -2.5 -76.5 -7.5s-47.667 -10.833 -68 -17.5s-36.5 -12.5 -48.5 -17.5l-18 -7.5l-29 65l19 8.5c12.667 5.66699 29.667 12.334 51 20.001s45.166 14.334 71.499 20.001s53.5 8.5 81.5 8.5
c45.333 0 81.333 -8.83301 108 -26.5s45.834 -42.334 57.501 -74.001s17.5 -68.834 17.5 -111.501v-383h-54l-12 61h-6l-28.5 -19.5c-12.333 -8.33301 -26.666 -16.666 -42.999 -24.999s-34.5 -15.333 -54.5 -21s-41.333 -8.5 -64 -8.5zM225.002 59.999
c24 0 46.834 3.5 68.501 10.5s41 14.833 58 23.5s29.833 15.667 38.5 21v166c-8.66699 1.33301 -21.667 2.83301 -39 4.5s-40 2.5 -68 2.5c-62 0 -100.333 -6.33301 -115 -19c-8.66699 -6.66699 -15.334 -18.5 -20.001 -35.5s-7 -37.5 -7 -61.5
c0 -39.333 6.5 -67.833 19.5 -85.5s34.5 -26.5 64.5 -26.5zM345.003 653.999l-194 67l30 67l184 -84z" />
    <glyph glyph-name="aacute" unicode="&#xe1;" horiz-adv-x="569" 
d="M211 -13c-30.667 0 -57.832 7.16602 -81.499 21.499s-42.167 35.333 -55.5 63s-20 61.167 -20 100.5c0 47.333 9.5 84.5 28.5 111.5s45.833 46.167 80.5 57.5s75 17 121 17h106c0 33.333 -0.833008 62.5 -2.5 87.5s-7.16699 43.5 -16.5 55.5
c-6.66699 9.33301 -15.834 15.333 -27.501 18s-23.834 4 -36.501 4c-26 0 -51.5 -2.5 -76.5 -7.5s-47.667 -10.833 -68 -17.5s-36.5 -12.5 -48.5 -17.5l-18 -7.5l-29 65l19 8.5c12.667 5.66699 29.667 12.334 51 20.001s45.166 14.334 71.499 20.001s53.5 8.5 81.5 8.5
c45.333 0 81.333 -8.83301 108 -26.5s45.834 -42.334 57.501 -74.001s17.5 -68.834 17.5 -111.501v-383h-54l-12 61h-6l-28.5 -19.5c-12.333 -8.33301 -26.666 -16.666 -42.999 -24.999s-34.5 -15.333 -54.5 -21s-41.333 -8.5 -64 -8.5zM225.002 59.999
c24 0 46.834 3.5 68.501 10.5s41 14.833 58 23.5s29.833 15.667 38.5 21v166c-8.66699 1.33301 -21.667 2.83301 -39 4.5s-40 2.5 -68 2.5c-62 0 -100.333 -6.33301 -115 -19c-8.66699 -6.66699 -15.334 -18.5 -20.001 -35.5s-7 -37.5 -7 -61.5
c0 -39.333 6.5 -67.833 19.5 -85.5s34.5 -26.5 64.5 -26.5zM200.003 653.999l-20 50l184 84l30 -67z" />
    <glyph glyph-name="acircumflex" unicode="&#xe2;" horiz-adv-x="569" 
d="M211 -13c-30.667 0 -57.832 7.16602 -81.499 21.499s-42.167 35.333 -55.5 63s-20 61.167 -20 100.5c0 47.333 9.5 84.5 28.5 111.5s45.833 46.167 80.5 57.5s75 17 121 17h106c0 33.333 -0.833008 62.5 -2.5 87.5s-7.16699 43.5 -16.5 55.5
c-6.66699 9.33301 -15.834 15.333 -27.501 18s-23.834 4 -36.501 4c-26 0 -51.5 -2.5 -76.5 -7.5s-47.667 -10.833 -68 -17.5s-36.5 -12.5 -48.5 -17.5l-18 -7.5l-29 65l19 8.5c12.667 5.66699 29.667 12.334 51 20.001s45.166 14.334 71.499 20.001s53.5 8.5 81.5 8.5
c45.333 0 81.333 -8.83301 108 -26.5s45.834 -42.334 57.501 -74.001s17.5 -68.834 17.5 -111.501v-383h-54l-12 61h-6l-28.5 -19.5c-12.333 -8.33301 -26.666 -16.666 -42.999 -24.999s-34.5 -15.333 -54.5 -21s-41.333 -8.5 -64 -8.5zM225.002 59.999
c24 0 46.834 3.5 68.501 10.5s41 14.833 58 23.5s29.833 15.667 38.5 21v166c-8.66699 1.33301 -21.667 2.83301 -39 4.5s-40 2.5 -68 2.5c-62 0 -100.333 -6.33301 -115 -19c-8.66699 -6.66699 -15.334 -18.5 -20.001 -35.5s-7 -37.5 -7 -61.5
c0 -39.333 6.5 -67.833 19.5 -85.5s34.5 -26.5 64.5 -26.5zM159.003 658.999l-29 34l121 109h51l121 -109l-29 -34l-114 71h-7z" />
    <glyph glyph-name="atilde" unicode="&#xe3;" horiz-adv-x="569" 
d="M211 -13c-30.667 0 -57.832 7.16602 -81.499 21.499s-42.167 35.333 -55.5 63s-20 61.167 -20 100.5c0 47.333 9.5 84.5 28.5 111.5s45.833 46.167 80.5 57.5s75 17 121 17h106c0 33.333 -0.833008 62.5 -2.5 87.5s-7.16699 43.5 -16.5 55.5
c-6.66699 9.33301 -15.834 15.333 -27.501 18s-23.834 4 -36.501 4c-26 0 -51.5 -2.5 -76.5 -7.5s-47.667 -10.833 -68 -17.5s-36.5 -12.5 -48.5 -17.5l-18 -7.5l-29 65l19 8.5c12.667 5.66699 29.667 12.334 51 20.001s45.166 14.334 71.499 20.001s53.5 8.5 81.5 8.5
c45.333 0 81.333 -8.83301 108 -26.5s45.834 -42.334 57.501 -74.001s17.5 -68.834 17.5 -111.501v-383h-54l-12 61h-6l-28.5 -19.5c-12.333 -8.33301 -26.666 -16.666 -42.999 -24.999s-34.5 -15.333 -54.5 -21s-41.333 -8.5 -64 -8.5zM225.002 59.999
c24 0 46.834 3.5 68.501 10.5s41 14.833 58 23.5s29.833 15.667 38.5 21v166c-8.66699 1.33301 -21.667 2.83301 -39 4.5s-40 2.5 -68 2.5c-62 0 -100.333 -6.33301 -115 -19c-8.66699 -6.66699 -15.334 -18.5 -20.001 -35.5s-7 -37.5 -7 -61.5
c0 -39.333 6.5 -67.833 19.5 -85.5s34.5 -26.5 64.5 -26.5zM358.003 674.999c-10.667 0 -23.834 2.50098 -39.501 7.50098s-31.5 10.833 -47.5 17.5l-42.5 17.5c-12.333 5 -20.833 7.5 -25.5 7.5c-4 0 -8.16699 -3.83301 -12.5 -11.5s-7.83301 -15.334 -10.5 -23.001
l-4 -11.5l-52 6c0 38 6.5 64.333 19.5 79s30.833 22 53.5 22c11.333 0 24.5 -2.33301 39.5 -7s30.167 -10.167 45.5 -16.5l41.5 -17c12.333 -5 20.833 -7.5 25.5 -7.5s9 3.66699 13 11s7.5 14.833 10.5 22.5l4.5 11.5l53 -7c0 -37.333 -6.16699 -63.5 -18.5 -78.5
s-30.166 -22.5 -53.499 -22.5z" />
    <glyph glyph-name="adieresis" unicode="&#xe4;" horiz-adv-x="569" 
d="M211 -13c-30.667 0 -57.832 7.16602 -81.499 21.499s-42.167 35.333 -55.5 63s-20 61.167 -20 100.5c0 47.333 9.5 84.5 28.5 111.5s45.833 46.167 80.5 57.5s75 17 121 17h106c0 33.333 -0.833008 62.5 -2.5 87.5s-7.16699 43.5 -16.5 55.5
c-6.66699 9.33301 -15.834 15.333 -27.501 18s-23.834 4 -36.501 4c-26 0 -51.5 -2.5 -76.5 -7.5s-47.667 -10.833 -68 -17.5s-36.5 -12.5 -48.5 -17.5l-18 -7.5l-29 65l19 8.5c12.667 5.66699 29.667 12.334 51 20.001s45.166 14.334 71.499 20.001s53.5 8.5 81.5 8.5
c45.333 0 81.333 -8.83301 108 -26.5s45.834 -42.334 57.501 -74.001s17.5 -68.834 17.5 -111.501v-383h-54l-12 61h-6l-28.5 -19.5c-12.333 -8.33301 -26.666 -16.666 -42.999 -24.999s-34.5 -15.333 -54.5 -21s-41.333 -8.5 -64 -8.5zM225.002 59.999
c24 0 46.834 3.5 68.501 10.5s41 14.833 58 23.5s29.833 15.667 38.5 21v166c-8.66699 1.33301 -21.667 2.83301 -39 4.5s-40 2.5 -68 2.5c-62 0 -100.333 -6.33301 -115 -19c-8.66699 -6.66699 -15.334 -18.5 -20.001 -35.5s-7 -37.5 -7 -61.5
c0 -39.333 6.5 -67.833 19.5 -85.5s34.5 -26.5 64.5 -26.5zM134.003 683.999v82h99v-82h-99zM321.003 683.999v82h98v-82h-98z" />
    <glyph glyph-name="aring" unicode="&#xe5;" horiz-adv-x="569" 
d="M211 -13c-30.667 0 -57.832 7.16602 -81.499 21.499s-42.167 35.333 -55.5 63s-20 61.167 -20 100.5c0 47.333 9.5 84.5 28.5 111.5s45.833 46.167 80.5 57.5s75 17 121 17h106c0 33.333 -0.833008 62.5 -2.5 87.5s-7.16699 43.5 -16.5 55.5
c-6.66699 9.33301 -15.834 15.333 -27.501 18s-23.834 4 -36.501 4c-26 0 -51.5 -2.5 -76.5 -7.5s-47.667 -10.833 -68 -17.5s-36.5 -12.5 -48.5 -17.5l-18 -7.5l-29 65l19 8.5c12.667 5.66699 29.667 12.334 51 20.001s45.166 14.334 71.499 20.001s53.5 8.5 81.5 8.5
c45.333 0 81.333 -8.83301 108 -26.5s45.834 -42.334 57.501 -74.001s17.5 -68.834 17.5 -111.501v-383h-54l-12 61h-6l-28.5 -19.5c-12.333 -8.33301 -26.666 -16.666 -42.999 -24.999s-34.5 -15.333 -54.5 -21s-41.333 -8.5 -64 -8.5zM225.002 59.999
c24 0 46.834 3.5 68.501 10.5s41 14.833 58 23.5s29.833 15.667 38.5 21v166c-8.66699 1.33301 -21.667 2.83301 -39 4.5s-40 2.5 -68 2.5c-62 0 -100.333 -6.33301 -115 -19c-8.66699 -6.66699 -15.334 -18.5 -20.001 -35.5s-7 -37.5 -7 -61.5
c0 -39.333 6.5 -67.833 19.5 -85.5s34.5 -26.5 64.5 -26.5zM277.003 646.999c-14 0 -27.333 2.5 -40 7.5s-23.167 13.5 -31.5 25.5s-12.5 28.667 -12.5 50c0 22 4.16699 39 12.5 51s18.833 20.5 31.5 25.5s26 7.5 40 7.5s27.333 -2.5 40 -7.5s23.167 -13.5 31.5 -25.5
s12.5 -29 12.5 -51c0 -21.333 -4.16699 -38 -12.5 -50s-18.833 -20.5 -31.5 -25.5s-26 -7.5 -40 -7.5zM277.003 692.999c12 0 20.667 2.33301 26 7s8 14.667 8 30c0 16 -2.66699 26.333 -8 31s-14 7 -26 7s-21 -2.33301 -27 -7s-9 -15 -9 -31c0 -15.333 3 -25.333 9 -30
s15 -7 27 -7z" />
    <glyph glyph-name="ae" unicode="&#xe6;" horiz-adv-x="883" 
d="M215 -13c-48.667 0 -87.6709 14.9971 -117.004 44.9971s-44 76.333 -44 139c0 43.333 9.83301 77.333 29.5 102s46.834 42.334 81.501 53.001s74.334 16 119.001 16h106c0 46.667 -0.833008 81.167 -2.5 103.5s-7.16699 40.166 -16.5 53.499
c-6.66699 10.667 -15.834 17.334 -27.501 20.001s-24.167 4 -37.5 4c-25.333 0 -50.5 -2.5 -75.5 -7.5s-47.667 -10.833 -68 -17.5s-36.5 -12.5 -48.5 -17.5l-18 -7.5l-29 65l19.5 8.5c13 5.66699 30.167 12.334 51.5 20.001s44.333 14.334 69 20.001s48.667 8.5 72 8.5
c43.333 0 78 -6.5 104 -19.5s46 -31.833 60 -56.5h4c20.667 28 45.334 47.667 74.001 59s60.667 17 96 17c42.667 0 78.834 -8.5 108.501 -25.5s52.5 -44.833 68.5 -83.5s24 -91 24 -157v-59h-343v-36c1.33301 -33.333 4.5 -60 9.5 -80s10.5 -35.333 16.5 -46
s11.333 -18.667 16 -24c9.33301 -8 20.333 -14 33 -18s31.334 -6 56.001 -6c18.667 0 38.167 1.83301 58.5 5.5s39.333 8.16699 57 13.5s32 9.83301 43 13.5l16.5 5.5l21 -68l-14.5 -6.5c-9.66699 -4.33301 -23 -9.33301 -40 -15s-36.833 -10.667 -59.5 -15
s-47 -6.5 -73 -6.5c-38 0 -72.167 5.83301 -102.5 17.5s-55.5 32.834 -75.5 63.501h-7c-11.333 -8.66699 -27.833 -19.334 -49.5 -32.001s-46.667 -24 -75 -34s-58.5 -15 -90.5 -15zM227.996 60.9971c21.333 0 42.5 3.00195 63.5 9.00195s40.167 13 57.5 21s31 14.667 41 20
v153c-7.33301 1.33301 -18.833 3 -34.5 5s-41.167 3 -76.5 3c-27.333 0 -50.833 -1.66699 -70.5 -5s-33.167 -8 -40.5 -14c-8.66699 -6.66699 -15.334 -17.334 -20.001 -32.001s-7 -34.334 -7 -59.001c0 -36.667 6.83301 -62.667 20.5 -78s35.834 -23 66.501 -23z
M473.996 335.999l259 5.00293c0 35.333 -1.5 66.166 -4.5 92.499s-9.16699 47.166 -18.5 62.499c-4.66699 7.33301 -13.667 13.666 -27 18.999s-34.333 8 -63 8c-32.667 0 -57.334 -3.33301 -74.001 -10s-29.667 -16 -39 -28c-11.333 -14 -19.666 -33.5 -24.999 -58.5
s-8 -55.167 -8 -90.5z" />
    <glyph glyph-name="ccedilla" unicode="&#xe7;" horiz-adv-x="518" 
d="M271 -179c-18 0 -34.668 1.5 -50.001 4.5l-23 4.5v62l12 -1c8 -0.666992 17 -1.5 27 -2.5s18.333 -1.5 25 -1.5c20 0 34 1.83301 42 5.5s12 12.167 12 25.5c0 17.333 -1.66699 34 -5 50s-6.33301 28.667 -9 38l59 4c2.66699 -6 5.33398 -14 8.00098 -24
s5.16699 -20.667 7.5 -32s3.5 -22.333 3.5 -33c0 -30.667 -10.333 -55 -31 -73s-46.667 -27 -78 -27zM299.999 -13c-45.333 0 -85.334 10.3359 -120.001 31.0029s-61.667 53.5 -81 98.5s-29 103.833 -29 176.5c0 59.333 6.5 108.666 19.5 147.999s30.833 70.166 53.5 92.499
s49.334 38.166 80.001 47.499s63.334 14 98.001 14c25.333 0 51.166 -1.66699 77.499 -5s47.833 -7 64.5 -11l-10 -70c-12.667 1.33301 -32.667 3.83301 -60 7.5s-56.666 5.5 -87.999 5.5c-24.667 0 -45.5 -2 -62.5 -6s-30.167 -10.667 -39.5 -20
c-12.667 -14 -23.5 -39.5 -32.5 -76.5s-13.5 -81.167 -13.5 -132.5c0 -47.333 3.66699 -85.5 11 -114.5s16 -51 26 -66s19 -25.5 27 -31.5c5.33301 -4 12.5 -7.66699 21.5 -11s21.833 -5 38.5 -5c19.333 0 39 2.33301 59 7s38.333 10 55 16s30.167 11.333 40.5 16l15.5 7
l26 -65l-22 -13c-14.667 -8.66699 -35.334 -17.5 -62.001 -26.5s-57.667 -13.5 -93 -13.5z" />
    <glyph glyph-name="egrave" unicode="&#xe8;" horiz-adv-x="571" 
d="M304 -14c-46 0 -86.4971 9.83301 -121.497 29.5s-62.167 52 -81.5 97s-29 104.833 -29 179.5c0 78 10.167 139 30.5 183s47.833 75.167 82.5 93.5s73.667 27.5 117 27.5s80.166 -8.66699 110.499 -26s53.5 -46.166 69.5 -86.499s24 -94.5 24 -162.5v-63h-384l39 15
c-2.66699 -44 -1.5 -79.167 3.5 -105.5s11.333 -45.833 19 -58.5s14.167 -21.667 19.5 -27c9.33301 -8 20.666 -14 33.999 -18s29.666 -6 48.999 -6s38.333 1.5 57 4.5s36 6.66699 52 11s30.333 8.66602 43 12.999s23 7.5 31 9.5l21 -67c-6 -2.66699 -17.667 -7.5 -35 -14.5
s-38.833 -13.5 -64.5 -19.5s-54.5 -9 -86.5 -9zM161.003 288l-39.002 36.001l337 7l-38 -37c0.666992 47.333 -0.166016 88 -2.49902 122s-9.16602 60 -20.499 78c-4.66699 7.33301 -12.667 14.166 -24 20.499s-33.333 9.5 -66 9.5c-34 0 -59.5 -3.66699 -76.5 -11
s-30.167 -17 -39.5 -29c-24.667 -32.667 -35 -98 -31 -196zM370.001 654.001l-194 67l30 67l184 -84z" />
    <glyph glyph-name="eacute" unicode="&#xe9;" horiz-adv-x="571" 
d="M304 -14c-46 0 -86.4971 9.83301 -121.497 29.5s-62.167 52 -81.5 97s-29 104.833 -29 179.5c0 78 10.167 139 30.5 183s47.833 75.167 82.5 93.5s73.667 27.5 117 27.5s80.166 -8.66699 110.499 -26s53.5 -46.166 69.5 -86.499s24 -94.5 24 -162.5v-63h-384l39 15
c-2.66699 -44 -1.5 -79.167 3.5 -105.5s11.333 -45.833 19 -58.5s14.167 -21.667 19.5 -27c9.33301 -8 20.666 -14 33.999 -18s29.666 -6 48.999 -6s38.333 1.5 57 4.5s36 6.66699 52 11s30.333 8.66602 43 12.999s23 7.5 31 9.5l21 -67c-6 -2.66699 -17.667 -7.5 -35 -14.5
s-38.833 -13.5 -64.5 -19.5s-54.5 -9 -86.5 -9zM161.003 288l-39.002 36.001l337 7l-38 -37c0.666992 47.333 -0.166016 88 -2.49902 122s-9.16602 60 -20.499 78c-4.66699 7.33301 -12.667 14.166 -24 20.499s-33.333 9.5 -66 9.5c-34 0 -59.5 -3.66699 -76.5 -11
s-30.167 -17 -39.5 -29c-24.667 -32.667 -35 -98 -31 -196zM225.001 654.001l-20 50l184 84l30 -67z" />
    <glyph glyph-name="ecircumflex" unicode="&#xea;" horiz-adv-x="571" 
d="M304 -14c-46 0 -86.4971 9.83301 -121.497 29.5s-62.167 52 -81.5 97s-29 104.833 -29 179.5c0 78 10.167 139 30.5 183s47.833 75.167 82.5 93.5s73.667 27.5 117 27.5s80.166 -8.66699 110.499 -26s53.5 -46.166 69.5 -86.499s24 -94.5 24 -162.5v-63h-384l39 15
c-2.66699 -44 -1.5 -79.167 3.5 -105.5s11.333 -45.833 19 -58.5s14.167 -21.667 19.5 -27c9.33301 -8 20.666 -14 33.999 -18s29.666 -6 48.999 -6s38.333 1.5 57 4.5s36 6.66699 52 11s30.333 8.66602 43 12.999s23 7.5 31 9.5l21 -67c-6 -2.66699 -17.667 -7.5 -35 -14.5
s-38.833 -13.5 -64.5 -19.5s-54.5 -9 -86.5 -9zM161.003 288l-39.002 36.001l337 7l-38 -37c0.666992 47.333 -0.166016 88 -2.49902 122s-9.16602 60 -20.499 78c-4.66699 7.33301 -12.667 14.166 -24 20.499s-33.333 9.5 -66 9.5c-34 0 -59.5 -3.66699 -76.5 -11
s-30.167 -17 -39.5 -29c-24.667 -32.667 -35 -98 -31 -196zM184.001 659.001l-29 34l121 109h51l121 -109l-29 -34l-114 71h-7z" />
    <glyph glyph-name="edieresis" unicode="&#xeb;" horiz-adv-x="571" 
d="M304 -14c-46 0 -86.4971 9.83301 -121.497 29.5s-62.167 52 -81.5 97s-29 104.833 -29 179.5c0 78 10.167 139 30.5 183s47.833 75.167 82.5 93.5s73.667 27.5 117 27.5s80.166 -8.66699 110.499 -26s53.5 -46.166 69.5 -86.499s24 -94.5 24 -162.5v-63h-384l39 15
c-2.66699 -44 -1.5 -79.167 3.5 -105.5s11.333 -45.833 19 -58.5s14.167 -21.667 19.5 -27c9.33301 -8 20.666 -14 33.999 -18s29.666 -6 48.999 -6s38.333 1.5 57 4.5s36 6.66699 52 11s30.333 8.66602 43 12.999s23 7.5 31 9.5l21 -67c-6 -2.66699 -17.667 -7.5 -35 -14.5
s-38.833 -13.5 -64.5 -19.5s-54.5 -9 -86.5 -9zM161.003 288l-39.002 36.001l337 7l-38 -37c0.666992 47.333 -0.166016 88 -2.49902 122s-9.16602 60 -20.499 78c-4.66699 7.33301 -12.667 14.166 -24 20.499s-33.333 9.5 -66 9.5c-34 0 -59.5 -3.66699 -76.5 -11
s-30.167 -17 -39.5 -29c-24.667 -32.667 -35 -98 -31 -196zM159.001 684.001v82h99v-82h-99zM346.001 684.001v82h98v-82h-98z" />
    <glyph glyph-name="igrave" unicode="&#xec;" 
d="M224 657l-219 77l28 68l211 -95zM106 0v582h83v-582h-83z" />
    <glyph glyph-name="iacute" unicode="&#xed;" 
d="M71 657l-20 50l213 95l27 -68zM106 0v582h83v-582h-83z" />
    <glyph glyph-name="icircumflex" unicode="&#xee;" 
d="M40 660l-33 33l114 109h53l114 -109l-32 -33l-104 70h-8zM106 0v582h83v-582h-83z" />
    <glyph glyph-name="idieresis" unicode="&#xef;" 
d="M7 684v82h99v-82h-99zM190 684v82h98v-82h-98zM106 0v582h83v-582h-83z" />
    <glyph glyph-name="eth" unicode="&#xf0;" horiz-adv-x="576" 
d="M288 -13c-55.333 0 -98.835 11.668 -130.502 35.001s-54.167 56.666 -67.5 99.999s-20 94.666 -20 153.999c0 48 6.83301 90.333 20.5 127s36.334 65.334 68.001 86.001s74.167 31 127.5 31c31.333 0 57.5 -4.33301 78.5 -13s37.833 -18 50.5 -28l5 3
c-8 25.333 -19.333 48.833 -34 70.5s-33.667 43.167 -57 64.5l-95 -61l-8 70l54 32c-13.333 10 -25.833 18.833 -37.5 26.5l-32.5 21.5l37 60c17.333 -8.66699 34.333 -18.334 51 -29.001s32.334 -21.667 47.001 -33l108 71l7 -71l-69 -42
c32 -32.667 56.167 -70.167 72.5 -112.5s27.5 -86.166 33.5 -131.499s9 -89.333 9 -132c0 -61.333 -6.66699 -114.5 -20 -159.5s-35.833 -79.5 -67.5 -103.5s-75.167 -36 -130.5 -36zM287.998 58.001c34 0 60.668 5.16699 80.001 15.5s33 31.166 41 62.499
s12 77.666 12 138.999c0 48 -4.33301 84.333 -13 109s-22.834 41.5 -42.501 50.5s-45.5 13.5 -77.5 13.5s-57.833 -4.5 -77.5 -13.5s-34 -25.833 -43 -50.5s-13.5 -61 -13.5 -109c0 -61.333 4.16699 -107.666 12.5 -138.999s22.333 -52.166 42 -62.499
s46.167 -15.5 79.5 -15.5z" />
    <glyph glyph-name="ntilde" unicode="&#xf1;" horiz-adv-x="601" 
d="M101 0l-0.000976562 581.995h56l9 -57h5l30 16.5c14 7.66699 30.667 15.667 50 24s40 15.333 62 21s44 8.5 66 8.5c36.667 0 64.667 -9.16699 84 -27.5s32.5 -43.166 39.5 -74.499s10.5 -66.666 10.5 -105.999v-387h-83v358c0 39.333 -0.666992 69.333 -2 90
s-5.66602 36.334 -12.999 47.001c-5.33301 8.66699 -13 14.334 -23 17.001s-20.667 4 -32 4c-24 0 -48.5 -3.83301 -73.5 -11.5s-46.833 -15.667 -65.5 -24s-31 -14.166 -37 -17.499v-463h-83zM381.999 674.995c-10.667 0 -23.834 2.50098 -39.501 7.50098
s-31.5 10.833 -47.5 17.5l-42.5 17.5c-12.333 5 -20.833 7.5 -25.5 7.5c-4 0 -8.16699 -3.83301 -12.5 -11.5s-7.83301 -15.334 -10.5 -23.001l-4 -11.5l-52 6c0 38 6.5 64.333 19.5 79s30.833 22 53.5 22c11.333 0 24.5 -2.33301 39.5 -7s30.167 -10.167 45.5 -16.5
l41.5 -17c12.333 -5 20.833 -7.5 25.5 -7.5s9 3.66699 13 11s7.5 14.833 10.5 22.5l4.5 11.5l53 -7c0 -37.333 -6.16699 -63.5 -18.5 -78.5s-30.166 -22.5 -53.499 -22.5z" />
    <glyph glyph-name="ograve" unicode="&#xf2;" horiz-adv-x="576" 
d="M288 -13c-55.333 0 -98.833 12.333 -130.5 37s-54.167 59.667 -67.5 105s-20 99.333 -20 162s6.66699 116.667 20 162s35.833 80.333 67.5 105s75.167 37 130.5 37s98.833 -12.333 130.5 -37s54.167 -59.667 67.5 -105s20 -99.333 20 -162s-6.66699 -116.667 -20 -162
s-35.833 -80.333 -67.5 -105s-75.167 -37 -130.5 -37zM288 59c25.333 0 46.5 3 63.5 9s30.667 17 41 33s17.666 39.333 21.999 70s6.5 70.667 6.5 120s-2.16699 89.333 -6.5 120s-11.666 54.167 -21.999 70.5s-24 27.333 -41 33s-38.167 8.5 -63.5 8.5
s-46.5 -2.83301 -63.5 -8.5s-30.667 -16.667 -41 -33s-17.833 -39.833 -22.5 -70.5s-7 -70.667 -7 -120s2.33301 -89.333 7 -120s12.167 -54 22.5 -70s24 -27 41 -33s38.167 -9 63.5 -9zM356 654l-194 67l30 67l184 -84z" />
    <glyph glyph-name="oacute" unicode="&#xf3;" horiz-adv-x="576" 
d="M288 -13c-55.333 0 -98.833 12.333 -130.5 37s-54.167 59.667 -67.5 105s-20 99.333 -20 162s6.66699 116.667 20 162s35.833 80.333 67.5 105s75.167 37 130.5 37s98.833 -12.333 130.5 -37s54.167 -59.667 67.5 -105s20 -99.333 20 -162s-6.66699 -116.667 -20 -162
s-35.833 -80.333 -67.5 -105s-75.167 -37 -130.5 -37zM288 59c25.333 0 46.5 3 63.5 9s30.667 17 41 33s17.666 39.333 21.999 70s6.5 70.667 6.5 120s-2.16699 89.333 -6.5 120s-11.666 54.167 -21.999 70.5s-24 27.333 -41 33s-38.167 8.5 -63.5 8.5
s-46.5 -2.83301 -63.5 -8.5s-30.667 -16.667 -41 -33s-17.833 -39.833 -22.5 -70.5s-7 -70.667 -7 -120s2.33301 -89.333 7 -120s12.167 -54 22.5 -70s24 -27 41 -33s38.167 -9 63.5 -9zM221 654l-20 50l184 84l30 -67z" />
    <glyph glyph-name="ocircumflex" unicode="&#xf4;" horiz-adv-x="576" 
d="M288 -13c-55.333 0 -98.833 12.333 -130.5 37s-54.167 59.667 -67.5 105s-20 99.333 -20 162s6.66699 116.667 20 162s35.833 80.333 67.5 105s75.167 37 130.5 37s98.833 -12.333 130.5 -37s54.167 -59.667 67.5 -105s20 -99.333 20 -162s-6.66699 -116.667 -20 -162
s-35.833 -80.333 -67.5 -105s-75.167 -37 -130.5 -37zM288 59c25.333 0 46.5 3 63.5 9s30.667 17 41 33s17.666 39.333 21.999 70s6.5 70.667 6.5 120s-2.16699 89.333 -6.5 120s-11.666 54.167 -21.999 70.5s-24 27.333 -41 33s-38.167 8.5 -63.5 8.5
s-46.5 -2.83301 -63.5 -8.5s-30.667 -16.667 -41 -33s-17.833 -39.833 -22.5 -70.5s-7 -70.667 -7 -120s2.33301 -89.333 7 -120s12.167 -54 22.5 -70s24 -27 41 -33s38.167 -9 63.5 -9zM170 659l-29 34l121 109h51l121 -109l-29 -34l-114 71h-7z" />
    <glyph glyph-name="otilde" unicode="&#xf5;" horiz-adv-x="576" 
d="M288 -13c-55.333 0 -98.833 12.333 -130.5 37s-54.167 59.667 -67.5 105s-20 99.333 -20 162s6.66699 116.667 20 162s35.833 80.333 67.5 105s75.167 37 130.5 37s98.833 -12.333 130.5 -37s54.167 -59.667 67.5 -105s20 -99.333 20 -162s-6.66699 -116.667 -20 -162
s-35.833 -80.333 -67.5 -105s-75.167 -37 -130.5 -37zM288 59c25.333 0 46.5 3 63.5 9s30.667 17 41 33s17.666 39.333 21.999 70s6.5 70.667 6.5 120s-2.16699 89.333 -6.5 120s-11.666 54.167 -21.999 70.5s-24 27.333 -41 33s-38.167 8.5 -63.5 8.5
s-46.5 -2.83301 -63.5 -8.5s-30.667 -16.667 -41 -33s-17.833 -39.833 -22.5 -70.5s-7 -70.667 -7 -120s2.33301 -89.333 7 -120s12.167 -54 22.5 -70s24 -27 41 -33s38.167 -9 63.5 -9zM369 675c-10.667 0 -23.834 2.50098 -39.501 7.50098s-31.5 10.833 -47.5 17.5
l-42.5 17.5c-12.333 5 -20.833 7.5 -25.5 7.5c-4 0 -8.16699 -3.83301 -12.5 -11.5s-7.83301 -15.334 -10.5 -23.001l-4 -11.5l-52 6c0 38 6.5 64.333 19.5 79s30.833 22 53.5 22c11.333 0 24.5 -2.33301 39.5 -7s30.167 -10.167 45.5 -16.5l41.5 -17
c12.333 -5 20.833 -7.5 25.5 -7.5s9 3.66699 13 11s7.5 14.833 10.5 22.5l4.5 11.5l53 -7c0 -37.333 -6.16699 -63.5 -18.5 -78.5s-30.166 -22.5 -53.499 -22.5z" />
    <glyph glyph-name="odieresis" unicode="&#xf6;" horiz-adv-x="576" 
d="M288 -13c-55.333 0 -98.833 12.333 -130.5 37s-54.167 59.667 -67.5 105s-20 99.333 -20 162s6.66699 116.667 20 162s35.833 80.333 67.5 105s75.167 37 130.5 37s98.833 -12.333 130.5 -37s54.167 -59.667 67.5 -105s20 -99.333 20 -162s-6.66699 -116.667 -20 -162
s-35.833 -80.333 -67.5 -105s-75.167 -37 -130.5 -37zM288 59c25.333 0 46.5 3 63.5 9s30.667 17 41 33s17.666 39.333 21.999 70s6.5 70.667 6.5 120s-2.16699 89.333 -6.5 120s-11.666 54.167 -21.999 70.5s-24 27.333 -41 33s-38.167 8.5 -63.5 8.5
s-46.5 -2.83301 -63.5 -8.5s-30.667 -16.667 -41 -33s-17.833 -39.833 -22.5 -70.5s-7 -70.667 -7 -120s2.33301 -89.333 7 -120s12.167 -54 22.5 -70s24 -27 41 -33s38.167 -9 63.5 -9zM145 684v82h99v-82h-99zM332 684v82h98v-82h-98z" />
    <glyph glyph-name="divide" unicode="&#xf7;" horiz-adv-x="618" 
d="M52 258v70h515v-70h-515zM256 51v84h108v-84h-108zM256 450v85h108v-85h-108z" />
    <glyph glyph-name="oslash" unicode="&#xf8;" horiz-adv-x="579" 
d="M90 -45l44 91l250 532l19 42h76l-39 -81l-251 -533l-23 -51h-76zM289 -13c-55.333 0 -98.833 12.333 -130.5 37s-54.167 59.667 -67.5 105s-20 99.333 -20 162s6.66699 116.667 20 162s35.833 80.333 67.5 105s75.167 37 130.5 37s98.833 -12.333 130.5 -37
s54.167 -59.667 67.5 -105s20 -99.333 20 -162s-6.66699 -116.667 -20 -162s-35.833 -80.333 -67.5 -105s-75.167 -37 -130.5 -37zM289 59c25.333 0 46.5 3 63.5 9s30.667 17 41 33s17.666 39.333 21.999 70s6.5 70.667 6.5 120s-2.16699 89.333 -6.5 120
s-11.666 54.167 -21.999 70.5s-24 27.333 -41 33s-38.167 8.5 -63.5 8.5s-46.5 -2.83301 -63.5 -8.5s-30.667 -16.667 -41 -33s-17.833 -39.833 -22.5 -70.5s-7 -70.667 -7 -120s2.33301 -89.333 7 -120s12.167 -54 22.5 -70s24 -27 41 -33s38.167 -9 63.5 -9z" />
    <glyph glyph-name="ugrave" unicode="&#xf9;" horiz-adv-x="600" 
d="M234 -13c-26.667 0 -51.166 6.49805 -73.499 19.498s-40 34.5 -53 64.5s-19.5 71.333 -19.5 124v387h83v-356c0 -36.667 1 -66.667 3 -90s5.66699 -39.666 11 -48.999c4.66699 -7.33301 12.167 -12.666 22.5 -15.999s22.166 -5 35.499 -5c30 0 59.833 5.83301 89.5 17.5
s57.5 23.5 83.5 35.5v463h83v-582h-56l-10 56h-6l-45 -24.5c-20 -11 -42.667 -21.167 -68 -30.5s-52 -14 -80 -14zM368.001 653.998l-194 67l30 67l184 -84z" />
    <glyph glyph-name="uacute" unicode="&#xfa;" horiz-adv-x="600" 
d="M234 -13c-26.667 0 -51.166 6.49805 -73.499 19.498s-40 34.5 -53 64.5s-19.5 71.333 -19.5 124v387h83v-356c0 -36.667 1 -66.667 3 -90s5.66699 -39.666 11 -48.999c4.66699 -7.33301 12.167 -12.666 22.5 -15.999s22.166 -5 35.499 -5c30 0 59.833 5.83301 89.5 17.5
s57.5 23.5 83.5 35.5v463h83v-582h-56l-10 56h-6l-45 -24.5c-20 -11 -42.667 -21.167 -68 -30.5s-52 -14 -80 -14zM233.001 653.998l-20 50l184 84l30 -67z" />
    <glyph glyph-name="ucircumflex" unicode="&#xfb;" horiz-adv-x="600" 
d="M234 -13c-26.667 0 -51.166 6.49805 -73.499 19.498s-40 34.5 -53 64.5s-19.5 71.333 -19.5 124v387h83v-356c0 -36.667 1 -66.667 3 -90s5.66699 -39.666 11 -48.999c4.66699 -7.33301 12.167 -12.666 22.5 -15.999s22.166 -5 35.499 -5c30 0 59.833 5.83301 89.5 17.5
s57.5 23.5 83.5 35.5v463h83v-582h-56l-10 56h-6l-45 -24.5c-20 -11 -42.667 -21.167 -68 -30.5s-52 -14 -80 -14zM182.001 658.998l-29 34l121 109h51l121 -109l-29 -34l-114 71h-7z" />
    <glyph glyph-name="udieresis" unicode="&#xfc;" horiz-adv-x="600" 
d="M234 -13c-26.667 0 -51.166 6.49805 -73.499 19.498s-40 34.5 -53 64.5s-19.5 71.333 -19.5 124v387h83v-356c0 -36.667 1 -66.667 3 -90s5.66699 -39.666 11 -48.999c4.66699 -7.33301 12.167 -12.666 22.5 -15.999s22.166 -5 35.499 -5c30 0 59.833 5.83301 89.5 17.5
s57.5 23.5 83.5 35.5v463h83v-582h-56l-10 56h-6l-45 -24.5c-20 -11 -42.667 -21.167 -68 -30.5s-52 -14 -80 -14zM157.001 683.998v82h99v-82h-99zM344.001 683.998v82h98v-82h-98z" />
    <glyph glyph-name="yacute" unicode="&#xfd;" horiz-adv-x="479" 
d="M119 -166l78 227l-186 521h89l134 -425h4l134 425h89l-196 -545l-58 -203h-88zM153 654l-20 50l184 84l30 -67z" />
    <glyph glyph-name="thorn" unicode="&#xfe;" horiz-adv-x="591" 
d="M105 -166l-0.000976562 918.999h79v-182c6.66699 3.33301 18.5 6.83301 35.5 10.5s36.5 6.83398 58.5 9.50098s43 4 63 4c58.667 0 103.334 -23.5 134.001 -70.5s46 -124.167 46 -231.5c0 -62 -5.83301 -113 -17.5 -153s-27.334 -71.167 -47.001 -93.5
s-41.667 -37.833 -66 -46.5s-49.166 -13 -74.499 -13c-15.333 0 -35 1.5 -59 4.5s-48.333 6.83301 -73 11.5v-169h-79zM314.999 59.999c21.333 0 37.1699 1.16895 47.5029 3.50195s18.833 6.5 25.5 12.5c6 6 12.667 17.333 20 34s13.5 40.334 18.5 71.001
s7.5 69.667 7.5 117s-1.33301 85.166 -4 113.499s-6.33398 49.666 -11.001 63.999s-10.334 24.166 -17.001 29.499s-16.334 9.33301 -29.001 12s-26.334 4 -41.001 4c-21.333 0 -40.666 -1.33301 -57.999 -4s-33.333 -6.16699 -48 -10.5l-42 -12.5v-416l61.5 -12
c21 -4 44.167 -6 69.5 -6z" />
    <glyph glyph-name="ydieresis" unicode="&#xff;" horiz-adv-x="479" 
d="M119 -166l78 227l-186 521h89l134 -425h4l134 425h89l-196 -545l-58 -203h-88zM97 684v82h99v-82h-99zM284 684v82h98v-82h-98z" />
    <glyph glyph-name="Amacron" unicode="&#x100;" horiz-adv-x="506" 
d="M5 0l189 695h118l189 -695h-86l-53 208l42 -24h-300l40 24l-53 -208h-86zM146 219l-28 39h270l-28 -39l-113 439l47 -37h-82l47 37zM93 767v65h320v-65h-320z" />
    <glyph glyph-name="amacron" unicode="&#x101;" horiz-adv-x="569" 
d="M211 -13c-30.667 0 -57.832 7.16602 -81.499 21.499s-42.167 35.333 -55.5 63s-20 61.167 -20 100.5c0 47.333 9.5 84.5 28.5 111.5s45.833 46.167 80.5 57.5s75 17 121 17h106c0 33.333 -0.833008 62.5 -2.5 87.5s-7.16699 43.5 -16.5 55.5
c-6.66699 9.33301 -15.834 15.333 -27.501 18s-23.834 4 -36.501 4c-26 0 -51.5 -2.5 -76.5 -7.5s-47.667 -10.833 -68 -17.5s-36.5 -12.5 -48.5 -17.5l-18 -7.5l-29 65l19 8.5c12.667 5.66699 29.667 12.334 51 20.001s45.166 14.334 71.499 20.001s53.5 8.5 81.5 8.5
c45.333 0 81.333 -8.83301 108 -26.5s45.834 -42.334 57.501 -74.001s17.5 -68.834 17.5 -111.501v-383h-54l-12 61h-6l-28.5 -19.5c-12.333 -8.33301 -26.666 -16.666 -42.999 -24.999s-34.5 -15.333 -54.5 -21s-41.333 -8.5 -64 -8.5zM225.002 59.999
c24 0 46.834 3.5 68.501 10.5s41 14.833 58 23.5s29.833 15.667 38.5 21v166c-8.66699 1.33301 -21.667 2.83301 -39 4.5s-40 2.5 -68 2.5c-62 0 -100.333 -6.33301 -115 -19c-8.66699 -6.66699 -15.334 -18.5 -20.001 -35.5s-7 -37.5 -7 -61.5
c0 -39.333 6.5 -67.833 19.5 -85.5s34.5 -26.5 64.5 -26.5zM117.003 689.999v65h320v-65h-320z" />
    <glyph glyph-name="Abreve" unicode="&#x102;" horiz-adv-x="506" 
d="M5 0l189 695h118l189 -695h-86l-53 208l42 -24h-300l40 24l-53 -208h-86zM146 219l-28 39h270l-28 -39l-113 439l47 -37h-82l47 37zM253 739c-24.667 0 -48.1709 4.66699 -70.5039 14s-40.666 23.5 -54.999 42.5s-22.166 43.5 -23.499 73.5l57 5
c2.66699 -24.667 12.334 -42.334 29.001 -53.001s37.667 -16 63 -16s46.333 5.33301 63 16s26.334 28.334 29.001 53.001l57 -5c-1.33301 -30 -9.33301 -54.5 -24 -73.5s-33 -33.167 -55 -42.5s-45.333 -14 -70 -14z" />
    <glyph glyph-name="abreve" unicode="&#x103;" horiz-adv-x="569" 
d="M211 -13c-30.667 0 -57.832 7.16602 -81.499 21.499s-42.167 35.333 -55.5 63s-20 61.167 -20 100.5c0 47.333 9.5 84.5 28.5 111.5s45.833 46.167 80.5 57.5s75 17 121 17h106c0 33.333 -0.833008 62.5 -2.5 87.5s-7.16699 43.5 -16.5 55.5
c-6.66699 9.33301 -15.834 15.333 -27.501 18s-23.834 4 -36.501 4c-26 0 -51.5 -2.5 -76.5 -7.5s-47.667 -10.833 -68 -17.5s-36.5 -12.5 -48.5 -17.5l-18 -7.5l-29 65l19 8.5c12.667 5.66699 29.667 12.334 51 20.001s45.166 14.334 71.499 20.001s53.5 8.5 81.5 8.5
c45.333 0 81.333 -8.83301 108 -26.5s45.834 -42.334 57.501 -74.001s17.5 -68.834 17.5 -111.501v-383h-54l-12 61h-6l-28.5 -19.5c-12.333 -8.33301 -26.666 -16.666 -42.999 -24.999s-34.5 -15.333 -54.5 -21s-41.333 -8.5 -64 -8.5zM225.002 59.999
c24 0 46.834 3.5 68.501 10.5s41 14.833 58 23.5s29.833 15.667 38.5 21v166c-8.66699 1.33301 -21.667 2.83301 -39 4.5s-40 2.5 -68 2.5c-62 0 -100.333 -6.33301 -115 -19c-8.66699 -6.66699 -15.334 -18.5 -20.001 -35.5s-7 -37.5 -7 -61.5
c0 -39.333 6.5 -67.833 19.5 -85.5s34.5 -26.5 64.5 -26.5zM277.003 656.999c-24.667 0 -48.1709 4.83301 -70.5039 14.5s-40.666 25 -54.999 46s-22.166 48.5 -23.499 82.5l57 6c2.66699 -30.667 12.334 -52 29.001 -64s37.667 -18 63 -18s46.333 6 63 18
s26.334 33.333 29.001 64l57 -6c-1.33301 -34 -9.33301 -61.5 -24 -82.5s-33 -36.333 -55 -46s-45.333 -14.5 -70 -14.5z" />
    <glyph glyph-name="Aogonek" unicode="&#x104;" horiz-adv-x="506" 
d="M5 0l189 695h118l189 -695h-86l-53 208l42 -24h-300l40 24l-53 -208h-86zM146 219l-28 39h270l-28 -39l-113 439l47 -37h-82l47 37zM440 -179c-28.667 0 -52.832 5.83398 -72.499 17.501s-29.5 31.167 -29.5 58.5c0 18.667 6.5 36.167 19.5 52.5s29 30.666 48 42.999
s36.833 21.833 53.5 28.5l42 -21c-26.667 -10.667 -49.334 -24.5 -68.001 -41.5s-28 -31.833 -28 -44.5c0 -12 4.16699 -20 12.5 -24s19.5 -6 33.5 -6c10.667 0 21.667 0.666992 33 2l17 2v-59l-17.5 -4c-11.667 -2.66699 -26.167 -4 -43.5 -4z" />
    <glyph glyph-name="aogonek" unicode="&#x105;" horiz-adv-x="569" 
d="M211 -13c-30.667 0 -57.832 7.16602 -81.499 21.499s-42.167 35.333 -55.5 63s-20 61.167 -20 100.5c0 47.333 9.5 84.5 28.5 111.5s45.833 46.167 80.5 57.5s75 17 121 17h106c0 33.333 -0.833008 62.5 -2.5 87.5s-7.16699 43.5 -16.5 55.5
c-6.66699 9.33301 -15.834 15.333 -27.501 18s-23.834 4 -36.501 4c-26 0 -51.5 -2.5 -76.5 -7.5s-47.667 -10.833 -68 -17.5s-36.5 -12.5 -48.5 -17.5l-18 -7.5l-29 65l19 8.5c12.667 5.66699 29.667 12.334 51 20.001s45.166 14.334 71.499 20.001s53.5 8.5 81.5 8.5
c45.333 0 81.333 -8.83301 108 -26.5s45.834 -42.334 57.501 -74.001s17.5 -68.834 17.5 -111.501v-383h-54l-12 61h-6l-28.5 -19.5c-12.333 -8.33301 -26.666 -16.666 -42.999 -24.999s-34.5 -15.333 -54.5 -21s-41.333 -8.5 -64 -8.5zM225.002 59.999
c24 0 46.834 3.5 68.501 10.5s41 14.833 58 23.5s29.833 15.667 38.5 21v166c-8.66699 1.33301 -21.667 2.83301 -39 4.5s-40 2.5 -68 2.5c-62 0 -100.333 -6.33301 -115 -19c-8.66699 -6.66699 -15.334 -18.5 -20.001 -35.5s-7 -37.5 -7 -61.5
c0 -39.333 6.5 -67.833 19.5 -85.5s34.5 -26.5 64.5 -26.5zM412.003 -179.001c-28.667 0 -52.832 5.83398 -72.499 17.501s-29.5 31.167 -29.5 58.5c0 18.667 6.5 36.167 19.5 52.5s29 30.666 48 42.999s36.833 21.833 53.5 28.5l42 -21
c-26.667 -10.667 -49.334 -24.5 -68.001 -41.5s-28 -31.833 -28 -44.5c0 -12 4.16699 -20 12.5 -24s19.5 -6 33.5 -6c10.667 0 21.667 0.666992 33 2l17 2v-59l-17.5 -4c-11.667 -2.66699 -26.167 -4 -43.5 -4z" />
    <glyph glyph-name="Cacute" unicode="&#x106;" horiz-adv-x="583" 
d="M312 -14c-47.333 0 -88.999 11.5029 -124.999 34.5029s-64.167 60.5 -84.5 112.5s-30.5 121 -30.5 207c0 76 6.5 138.167 19.5 186.5s31 85.833 54 112.5s50.167 45 81.5 55s65.333 15 102 15c16 0 35 -0.833008 57 -2.5s43.333 -3.66699 64 -6
s36.334 -4.83301 47.001 -7.5l-10 -72c-6 0.666992 -15.667 1.66699 -29 3s-28 2.66602 -44 3.99902s-31.333 2.5 -46 3.5s-26 1.5 -34 1.5c-32.667 0 -58.834 -1.66699 -78.501 -5s-34.167 -10.666 -43.5 -21.999c-8.66699 -10.667 -17 -26.334 -25 -47.001
s-14.333 -48.834 -19 -84.501s-7 -81.5 -7 -137.5c0 -70.667 6.83301 -127.167 20.5 -169.5s27.167 -70.166 40.5 -83.499c9.33301 -9.33301 20.666 -15.833 33.999 -19.5s28.333 -5.5 45 -5.5c25.333 0 49.833 2.66699 73.5 8s44.667 11.666 63 18.999
s32.833 13.666 43.5 18.999l16 8l29 -66l-15.5 -9c-10.333 -6 -24.833 -13.167 -43.5 -21.5s-41.167 -15.5 -67.5 -21.5s-55.5 -9 -87.5 -9zM225.001 733.003l-18 51l225 82l28 -73z" />
    <glyph glyph-name="cacute" unicode="&#x107;" horiz-adv-x="518" 
d="M300 -13c-45.333 0 -85.334 10.3359 -120.001 31.0029s-61.667 53.5 -81 98.5s-29 103.833 -29 176.5c0 59.333 6.5 108.666 19.5 147.999s30.833 70.166 53.5 92.499s49.334 38.166 80.001 47.499s63.334 14 98.001 14c25.333 0 51.166 -1.66699 77.499 -5
s47.833 -7 64.5 -11l-10 -70c-12.667 1.33301 -32.667 3.83301 -60 7.5s-56.666 5.5 -87.999 5.5c-24.667 0 -45.5 -2 -62.5 -6s-30.167 -10.667 -39.5 -20c-12.667 -14 -23.5 -39.5 -32.5 -76.5s-13.5 -81.167 -13.5 -132.5c0 -47.333 3.66699 -85.5 11 -114.5
s16 -51 26 -66s19 -25.5 27 -31.5c5.33301 -4 12.5 -7.66699 21.5 -11s21.833 -5 38.5 -5c19.333 0 39 2.33301 59 7s38.333 10 55 16s30.167 11.333 40.5 16l15.5 7l26 -65l-22 -13c-14.667 -8.66699 -35.334 -17.5 -62.001 -26.5s-57.667 -13.5 -93 -13.5z
M203.999 654.003l-20 50l184 84l30 -67z" />
    <glyph glyph-name="Cdotaccent" unicode="&#x10a;" horiz-adv-x="583" 
d="M312 -14c-47.333 0 -88.999 11.5029 -124.999 34.5029s-64.167 60.5 -84.5 112.5s-30.5 121 -30.5 207c0 76 6.5 138.167 19.5 186.5s31 85.833 54 112.5s50.167 45 81.5 55s65.333 15 102 15c16 0 35 -0.833008 57 -2.5s43.333 -3.66699 64 -6
s36.334 -4.83301 47.001 -7.5l-10 -72c-6 0.666992 -15.667 1.66699 -29 3s-28 2.66602 -44 3.99902s-31.333 2.5 -46 3.5s-26 1.5 -34 1.5c-32.667 0 -58.834 -1.66699 -78.501 -5s-34.167 -10.666 -43.5 -21.999c-8.66699 -10.667 -17 -26.334 -25 -47.001
s-14.333 -48.834 -19 -84.501s-7 -81.5 -7 -137.5c0 -70.667 6.83301 -127.167 20.5 -169.5s27.167 -70.166 40.5 -83.499c9.33301 -9.33301 20.666 -15.833 33.999 -19.5s28.333 -5.5 45 -5.5c25.333 0 49.833 2.66699 73.5 8s44.667 11.666 63 18.999
s32.833 13.666 43.5 18.999l16 8l29 -66l-15.5 -9c-10.333 -6 -24.833 -13.167 -43.5 -21.5s-41.167 -15.5 -67.5 -21.5s-55.5 -9 -87.5 -9zM272.001 763.003v82h104v-82h-104z" />
    <glyph glyph-name="cdotaccent" unicode="&#x10b;" horiz-adv-x="518" 
d="M300 -13c-45.333 0 -85.334 10.3359 -120.001 31.0029s-61.667 53.5 -81 98.5s-29 103.833 -29 176.5c0 59.333 6.5 108.666 19.5 147.999s30.833 70.166 53.5 92.499s49.334 38.166 80.001 47.499s63.334 14 98.001 14c25.333 0 51.166 -1.66699 77.499 -5
s47.833 -7 64.5 -11l-10 -70c-12.667 1.33301 -32.667 3.83301 -60 7.5s-56.666 5.5 -87.999 5.5c-24.667 0 -45.5 -2 -62.5 -6s-30.167 -10.667 -39.5 -20c-12.667 -14 -23.5 -39.5 -32.5 -76.5s-13.5 -81.167 -13.5 -132.5c0 -47.333 3.66699 -85.5 11 -114.5
s16 -51 26 -66s19 -25.5 27 -31.5c5.33301 -4 12.5 -7.66699 21.5 -11s21.833 -5 38.5 -5c19.333 0 39 2.33301 59 7s38.333 10 55 16s30.167 11.333 40.5 16l15.5 7l26 -65l-22 -13c-14.667 -8.66699 -35.334 -17.5 -62.001 -26.5s-57.667 -13.5 -93 -13.5z
M259.999 681.003v85h102v-85h-102z" />
    <glyph glyph-name="Ccaron" unicode="&#x10c;" horiz-adv-x="583" 
d="M312 -14c-47.333 0 -88.999 11.5029 -124.999 34.5029s-64.167 60.5 -84.5 112.5s-30.5 121 -30.5 207c0 76 6.5 138.167 19.5 186.5s31 85.833 54 112.5s50.167 45 81.5 55s65.333 15 102 15c16 0 35 -0.833008 57 -2.5s43.333 -3.66699 64 -6
s36.334 -4.83301 47.001 -7.5l-10 -72c-6 0.666992 -15.667 1.66699 -29 3s-28 2.66602 -44 3.99902s-31.333 2.5 -46 3.5s-26 1.5 -34 1.5c-32.667 0 -58.834 -1.66699 -78.501 -5s-34.167 -10.666 -43.5 -21.999c-8.66699 -10.667 -17 -26.334 -25 -47.001
s-14.333 -48.834 -19 -84.501s-7 -81.5 -7 -137.5c0 -70.667 6.83301 -127.167 20.5 -169.5s27.167 -70.166 40.5 -83.499c9.33301 -9.33301 20.666 -15.833 33.999 -19.5s28.333 -5.5 45 -5.5c25.333 0 49.833 2.66699 73.5 8s44.667 11.666 63 18.999
s32.833 13.666 43.5 18.999l16 8l29 -66l-15.5 -9c-10.333 -6 -24.833 -13.167 -43.5 -21.5s-41.167 -15.5 -67.5 -21.5s-55.5 -9 -87.5 -9zM298.001 746.003l-121 95l28 38l115 -61h7l115 61l28 -38l-121 -95h-51z" />
    <glyph glyph-name="ccaron" unicode="&#x10d;" horiz-adv-x="518" 
d="M300 -13c-45.333 0 -85.334 10.3359 -120.001 31.0029s-61.667 53.5 -81 98.5s-29 103.833 -29 176.5c0 59.333 6.5 108.666 19.5 147.999s30.833 70.166 53.5 92.499s49.334 38.166 80.001 47.499s63.334 14 98.001 14c25.333 0 51.166 -1.66699 77.499 -5
s47.833 -7 64.5 -11l-10 -70c-12.667 1.33301 -32.667 3.83301 -60 7.5s-56.666 5.5 -87.999 5.5c-24.667 0 -45.5 -2 -62.5 -6s-30.167 -10.667 -39.5 -20c-12.667 -14 -23.5 -39.5 -32.5 -76.5s-13.5 -81.167 -13.5 -132.5c0 -47.333 3.66699 -85.5 11 -114.5
s16 -51 26 -66s19 -25.5 27 -31.5c5.33301 -4 12.5 -7.66699 21.5 -11s21.833 -5 38.5 -5c19.333 0 39 2.33301 59 7s38.333 10 55 16s30.167 11.333 40.5 16l15.5 7l26 -65l-22 -13c-14.667 -8.66699 -35.334 -17.5 -62.001 -26.5s-57.667 -13.5 -93 -13.5z
M284.999 663.003l-121 109l29 34l114 -71h7l114 71l29 -34l-121 -109h-51z" />
    <glyph glyph-name="Dcaron" unicode="&#x10e;" horiz-adv-x="631" 
d="M302 -14c-13.333 0 -29.832 0.5 -49.499 1.5s-39.667 2.33301 -60 4l-54.5 4.5c-16 1.33301 -27 2.33301 -33 3v697c2.66699 0 11.334 0.666992 26.001 2s32.667 2.83301 54 4.5s43.5 3.16699 66.5 4.5s43.5 2 61.5 2c51.333 0 93.166 -9.5 125.499 -28.5
s57.166 -45 74.499 -78s29.333 -70.667 36 -113s10 -86.833 10 -133.5c0 -92 -11.167 -165 -33.5 -219s-52.833 -92.667 -91.5 -116s-82.667 -35 -132 -35zM291.001 59c36 0 62.6689 2.49902 80.002 7.49902s30.333 11.833 39 20.5c9.33301 9.33301 18.166 24 26.499 44
s15.166 48.667 20.499 86s8 86 8 146c0 60.667 -4.16699 114 -12.5 160s-21.833 77 -40.5 93c-6.66699 6 -17.167 10.833 -31.5 14.5s-36.166 5.5 -65.499 5.5c-26.667 0 -52.334 -1.16699 -77.001 -3.5s-46 -4.16602 -64 -5.49902l15 40v-636l-18 41
c19.333 -2.66699 38.333 -5.5 57 -8.5s39.667 -4.5 63 -4.5zM278.003 745.999l-121 95l28 38l115 -61h7l115 61l28 -38l-121 -95h-51z" />
    <glyph glyph-name="dcaron" unicode="&#x10f;" horiz-adv-x="611" 
d="M254 -13c-36 0 -67.8311 10.333 -95.498 31s-49.334 52.667 -65.001 96s-23.5 98.666 -23.5 165.999c0 64.667 5.83301 117.5 17.5 158.5s27.5 72.833 47.5 95.5s42.167 38.5 66.5 47.5s49.5 13.5 75.5 13.5c22 0 41.333 -1.33301 58 -4s31.167 -5.66699 43.5 -9
s22.166 -6.66602 29.499 -9.99902v181h83v-753h-55l-11 60h-5l-36 -27.5c-15.333 -11.667 -33.833 -22.167 -55.5 -31.5s-46.5 -14 -74.5 -14zM259.002 61c13.333 0 26.999 1.83496 40.999 5.50195s27.833 8.16699 41.5 13.5s26.334 11 38.001 17s21.167 11.333 28.5 16v382
c-8 3.33301 -19.167 7 -33.5 11s-30.5 7.5 -48.5 10.5s-37 4.5 -57 4.5c-37.333 0 -62.666 -8 -75.999 -24c-5.33301 -7.33301 -10.833 -19 -16.5 -35s-10.334 -38.833 -14.001 -68.5s-5.5 -68.834 -5.5 -117.501c0 -54.667 2.83301 -96 8.5 -124s12.167 -47.333 19.5 -58
s13 -17.667 17 -21c5.33301 -4.66699 13 -7.83398 23 -9.50098s21.333 -2.5 34 -2.5zM572.001 554.002l-15 199h86l-18 -199h-53z" />
    <glyph glyph-name="Dcroat" unicode="&#x110;" horiz-adv-x="643" 
d="M52 321v70h256v-70h-256zM314 -14c-13.333 0 -29.832 0.5 -49.499 1.5s-39.667 2.33301 -60 4l-54.5 4.5c-16 1.33301 -27 2.33301 -33 3v697c2.66699 0 11.334 0.666992 26.001 2s32.667 2.83301 54 4.5s43.5 3.16699 66.5 4.5s43.5 2 61.5 2
c51.333 0 93.166 -9.5 125.499 -28.5s57.166 -45 74.499 -78s29.333 -70.667 36 -113s10 -86.833 10 -133.5c0 -92 -11.167 -165 -33.5 -219s-52.833 -92.667 -91.5 -116s-82.667 -35 -132 -35zM303.001 59c36 0 62.6689 2.49902 80.002 7.49902s30.333 11.833 39 20.5
c9.33301 9.33301 18.166 24 26.499 44s15.166 48.667 20.499 86s8 86 8 146c0 60.667 -4.16699 114 -12.5 160s-21.833 77 -40.5 93c-6.66699 6 -17.167 10.833 -31.5 14.5s-36.166 5.5 -65.499 5.5c-26.667 0 -52.334 -1.16699 -77.001 -3.5s-46 -4.16602 -64 -5.49902
l15 40v-636l-18 41c19.333 -2.66699 38.333 -5.5 57 -8.5s39.667 -4.5 63 -4.5z" />
    <glyph glyph-name="dcroat" unicode="&#x111;" horiz-adv-x="581" 
d="M592 689v-64l-156 3l-218 -3v64h374zM254 -13c-36 0 -67.8311 10.333 -95.498 31s-49.334 52.667 -65.001 96s-23.5 98.666 -23.5 165.999c0 64.667 5.83301 117.5 17.5 158.5s27.5 72.833 47.5 95.5s42.167 38.5 66.5 47.5s49.5 13.5 75.5 13.5
c22 0 41.333 -1.33301 58 -4s31.167 -5.66699 43.5 -9s22.166 -6.66602 29.499 -9.99902v181h83v-753h-55l-11 60h-5l-36 -27.5c-15.333 -11.667 -33.833 -22.167 -55.5 -31.5s-46.5 -14 -74.5 -14zM259.002 61c13.333 0 26.999 1.83496 40.999 5.50195
s27.833 8.16699 41.5 13.5s26.334 11 38.001 17s21.167 11.333 28.5 16v382c-8 3.33301 -19.167 7 -33.5 11s-30.5 7.5 -48.5 10.5s-37 4.5 -57 4.5c-37.333 0 -62.666 -8 -75.999 -24c-5.33301 -7.33301 -10.833 -19 -16.5 -35s-10.334 -38.833 -14.001 -68.5
s-5.5 -68.834 -5.5 -117.501c0 -54.667 2.83301 -96 8.5 -124s12.167 -47.333 19.5 -58s13 -17.667 17 -21c5.33301 -4.66699 13 -7.83398 23 -9.50098s21.333 -2.5 34 -2.5z" />
    <glyph glyph-name="Emacron" unicode="&#x112;" horiz-adv-x="514" 
d="M105 0v695h341v-74l-295 3l39 38l-7 -298l-37 25h276v-71h-276l37 29l7 -313l-39 38l295 2v-74h-341zM116 767v65h320v-65h-320z" />
    <glyph glyph-name="emacron" unicode="&#x113;" horiz-adv-x="571" 
d="M304 -14c-46 0 -86.4971 9.83301 -121.497 29.5s-62.167 52 -81.5 97s-29 104.833 -29 179.5c0 78 10.167 139 30.5 183s47.833 75.167 82.5 93.5s73.667 27.5 117 27.5s80.166 -8.66699 110.499 -26s53.5 -46.166 69.5 -86.499s24 -94.5 24 -162.5v-63h-384l39 15
c-2.66699 -44 -1.5 -79.167 3.5 -105.5s11.333 -45.833 19 -58.5s14.167 -21.667 19.5 -27c9.33301 -8 20.666 -14 33.999 -18s29.666 -6 48.999 -6s38.333 1.5 57 4.5s36 6.66699 52 11s30.333 8.66602 43 12.999s23 7.5 31 9.5l21 -67c-6 -2.66699 -17.667 -7.5 -35 -14.5
s-38.833 -13.5 -64.5 -19.5s-54.5 -9 -86.5 -9zM161.003 288l-39.002 36.001l337 7l-38 -37c0.666992 47.333 -0.166016 88 -2.49902 122s-9.16602 60 -20.499 78c-4.66699 7.33301 -12.667 14.166 -24 20.499s-33.333 9.5 -66 9.5c-34 0 -59.5 -3.66699 -76.5 -11
s-30.167 -17 -39.5 -29c-24.667 -32.667 -35 -98 -31 -196zM142.001 690.001v65h320v-65h-320z" />
    <glyph glyph-name="Edotaccent" unicode="&#x116;" horiz-adv-x="514" 
d="M105 0v695h341v-74l-295 3l39 38l-7 -298l-37 25h276v-71h-276l37 29l7 -313l-39 38l295 2v-74h-341zM224 763v82h104v-82h-104z" />
    <glyph glyph-name="edotaccent" unicode="&#x117;" horiz-adv-x="571" 
d="M304 -14c-46 0 -86.4971 9.83301 -121.497 29.5s-62.167 52 -81.5 97s-29 104.833 -29 179.5c0 78 10.167 139 30.5 183s47.833 75.167 82.5 93.5s73.667 27.5 117 27.5s80.166 -8.66699 110.499 -26s53.5 -46.166 69.5 -86.499s24 -94.5 24 -162.5v-63h-384l39 15
c-2.66699 -44 -1.5 -79.167 3.5 -105.5s11.333 -45.833 19 -58.5s14.167 -21.667 19.5 -27c9.33301 -8 20.666 -14 33.999 -18s29.666 -6 48.999 -6s38.333 1.5 57 4.5s36 6.66699 52 11s30.333 8.66602 43 12.999s23 7.5 31 9.5l21 -67c-6 -2.66699 -17.667 -7.5 -35 -14.5
s-38.833 -13.5 -64.5 -19.5s-54.5 -9 -86.5 -9zM161.003 288l-39.002 36.001l337 7l-38 -37c0.666992 47.333 -0.166016 88 -2.49902 122s-9.16602 60 -20.499 78c-4.66699 7.33301 -12.667 14.166 -24 20.499s-33.333 9.5 -66 9.5c-34 0 -59.5 -3.66699 -76.5 -11
s-30.167 -17 -39.5 -29c-24.667 -32.667 -35 -98 -31 -196zM251.001 681.001v85h102v-85h-102z" />
    <glyph glyph-name="Eogonek" unicode="&#x118;" horiz-adv-x="514" 
d="M105 0v695h341v-74l-295 3l39 38l-7 -298l-37 25h276v-71h-276l37 29l7 -313l-39 38l295 2v-74h-341zM385 -179c-28.667 0 -52.832 5.83398 -72.499 17.501s-29.5 31.167 -29.5 58.5c0 18.667 6.5 36.167 19.5 52.5s29 30.666 48 42.999s36.833 21.833 53.5 28.5l42 -21
c-26.667 -10.667 -49.334 -24.5 -68.001 -41.5s-28 -31.833 -28 -44.5c0 -12 4.16699 -20 12.5 -24s19.5 -6 33.5 -6c10.667 0 21.667 0.666992 33 2l17 2v-59l-17.5 -4c-11.667 -2.66699 -26.167 -4 -43.5 -4z" />
    <glyph glyph-name="eogonek" unicode="&#x119;" horiz-adv-x="571" 
d="M304 -14c-46 0 -86.4971 9.83301 -121.497 29.5s-62.167 52 -81.5 97s-29 104.833 -29 179.5c0 78 10.167 139 30.5 183s47.833 75.167 82.5 93.5s73.667 27.5 117 27.5s80.166 -8.66699 110.499 -26s53.5 -46.166 69.5 -86.499s24 -94.5 24 -162.5v-63h-384l39 15
c-2.66699 -44 -1.5 -79.167 3.5 -105.5s11.333 -45.833 19 -58.5s14.167 -21.667 19.5 -27c9.33301 -8 20.666 -14 33.999 -18s29.666 -6 48.999 -6s38.333 1.5 57 4.5s36 6.66699 52 11s30.333 8.66602 43 12.999s23 7.5 31 9.5l21 -67c-6 -2.66699 -17.667 -7.5 -35 -14.5
s-38.833 -13.5 -64.5 -19.5s-54.5 -9 -86.5 -9zM161.003 288l-39.002 36.001l337 7l-38 -37c0.666992 47.333 -0.166016 88 -2.49902 122s-9.16602 60 -20.499 78c-4.66699 7.33301 -12.667 14.166 -24 20.499s-33.333 9.5 -66 9.5c-34 0 -59.5 -3.66699 -76.5 -11
s-30.167 -17 -39.5 -29c-24.667 -32.667 -35 -98 -31 -196zM344.001 -178.999c-28.667 0 -52.832 5.83398 -72.499 17.501s-29.5 31.167 -29.5 58.5c0 18.667 6.5 36.167 19.5 52.5s29 30.666 48 42.999s36.833 21.833 53.5 28.5l42 -21
c-26.667 -10.667 -49.334 -24.5 -68.001 -41.5s-28 -31.833 -28 -44.5c0 -12 4.16699 -20 12.5 -24s19.5 -6 33.5 -6c10.667 0 21.667 0.666992 33 2l17 2v-59l-17.5 -4c-11.667 -2.66699 -26.167 -4 -43.5 -4z" />
    <glyph glyph-name="Ecaron" unicode="&#x11a;" horiz-adv-x="514" 
d="M105 0v695h341v-74l-295 3l39 38l-7 -298l-37 25h276v-71h-276l37 29l7 -313l-39 38l295 2v-74h-341zM250 746l-121 95l28 38l115 -61h7l115 61l28 -38l-121 -95h-51z" />
    <glyph glyph-name="ecaron" unicode="&#x11b;" horiz-adv-x="571" 
d="M304 -14c-46 0 -86.4971 9.83301 -121.497 29.5s-62.167 52 -81.5 97s-29 104.833 -29 179.5c0 78 10.167 139 30.5 183s47.833 75.167 82.5 93.5s73.667 27.5 117 27.5s80.166 -8.66699 110.499 -26s53.5 -46.166 69.5 -86.499s24 -94.5 24 -162.5v-63h-384l39 15
c-2.66699 -44 -1.5 -79.167 3.5 -105.5s11.333 -45.833 19 -58.5s14.167 -21.667 19.5 -27c9.33301 -8 20.666 -14 33.999 -18s29.666 -6 48.999 -6s38.333 1.5 57 4.5s36 6.66699 52 11s30.333 8.66602 43 12.999s23 7.5 31 9.5l21 -67c-6 -2.66699 -17.667 -7.5 -35 -14.5
s-38.833 -13.5 -64.5 -19.5s-54.5 -9 -86.5 -9zM161.003 288l-39.002 36.001l337 7l-38 -37c0.666992 47.333 -0.166016 88 -2.49902 122s-9.16602 60 -20.499 78c-4.66699 7.33301 -12.667 14.166 -24 20.499s-33.333 9.5 -66 9.5c-34 0 -59.5 -3.66699 -76.5 -11
s-30.167 -17 -39.5 -29c-24.667 -32.667 -35 -98 -31 -196zM276.001 663.001l-121 109l29 34l114 -71h7l114 71l29 -34l-121 -109h-51z" />
    <glyph glyph-name="Gbreve" unicode="&#x11e;" horiz-adv-x="612" 
d="M331 -13c-34.667 0 -67.6689 4.83398 -99.002 14.501s-59 27.5 -83 53.5s-42.833 62.833 -56.5 110.5s-20.5 109.167 -20.5 184.5c0 74 6.5 134.5 19.5 181.5s31.5 83.333 55.5 109s52.667 43.334 86 53.001s70.333 14.5 111 14.5c21.333 0 43 -0.833008 65 -2.5
s42.5 -3.83398 61.5 -6.50098s33.833 -5.33398 44.5 -8.00098l-10 -72c-12.667 1.33301 -32.834 3.83301 -60.501 7.5s-63.167 5.5 -106.5 5.5c-33.333 0 -60.166 -1.83301 -80.499 -5.5s-35.5 -10.834 -45.5 -21.501c-12.667 -12.667 -24.167 -39 -34.5 -79
s-15.5 -98 -15.5 -174c0 -58 3.16699 -105 9.5 -141s13.5 -63.167 21.5 -81.5s15 -30.833 21 -37.5c8 -8.66699 21.167 -16.167 39.5 -22.5s45.5 -9.5 81.5 -9.5c23.333 0 43.833 1.33301 61.5 4s31.834 6.33398 42.501 11.001v258l38 -40l-144 7v62h186v-336l-23.5 -9.5
c-15.667 -6.33301 -37.667 -12.833 -66 -19.5s-61.166 -10 -98.499 -10zM332.998 739.001c-24.667 0 -48.1709 4.66699 -70.5039 14s-40.666 23.5 -54.999 42.5s-22.166 43.5 -23.499 73.5l57 5c2.66699 -24.667 12.334 -42.334 29.001 -53.001s37.667 -16 63 -16
s46.333 5.33301 63 16s26.334 28.334 29.001 53.001l57 -5c-1.33301 -30 -9.33301 -54.5 -24 -73.5s-33 -33.167 -55 -42.5s-45.333 -14 -70 -14z" />
    <glyph glyph-name="gbreve" unicode="&#x11f;" horiz-adv-x="521" 
d="M253 -179c-26.667 0 -51.667 1.32812 -75 3.99512s-43.666 5.83398 -60.999 9.50098s-31 6.83398 -41 9.50098l-15 4l10 75c37.333 -6.66699 75.666 -12.5 114.999 -17.5s77.333 -7.5 114 -7.5c37.333 0 62.333 3 75 9s19 15.333 19 28c0 7.33301 -1.66699 14 -5 20
s-9.33301 12.167 -18 18.5s-21.334 13.5 -38.001 21.5s-38.667 17.667 -66 29l-82.5 34.5c-17 7 -27.667 11.667 -32 14s-6.5 4.5 -6.5 6.5c0 0.666992 1.66699 5.16699 5 13.5s7.66602 18.5 12.999 30.5l16 37.5l14 33.5c-44 8.66699 -79.5 30 -106.5 64
s-40.5 75.333 -40.5 124c0 54.667 10.667 97.334 32 128.001s49.5 52.5 84.5 65.5s72.833 19.5 113.5 19.5c13.333 0 29.166 -0.333008 47.499 -1s37 -1.66699 56 -3s36.667 -2.66602 53 -3.99902s29.5 -2.33301 39.5 -3l15 -1v-53l-66 -10
c0 0.666992 2.83301 -6.16602 8.5 -20.499s11.334 -32 17.001 -53s8.5 -41.5 8.5 -61.5c0 -38 -8.33301 -71.833 -25 -101.5s-40.667 -53 -72 -70s-69 -25.5 -113 -25.5l-7 -37.5c-2.66699 -14.333 -4 -22.833 -4 -25.5c0 -1.33301 2.16699 -3.16602 6.5 -5.49902
s13 -6 26 -11s32.167 -13.167 57.5 -24.5c38.667 -16 68.334 -31.667 89.001 -47s35 -30.333 43 -45s12 -29.334 12 -44.001c0 -26.667 -9.16699 -49.5 -27.5 -68.5s-43.666 -33.5 -75.999 -43.5s-69.833 -15 -112.5 -15zM251 259.995c30 0 54.168 3.66797 72.501 11.001
s31.666 20.166 39.999 38.499s12.5 44.166 12.5 77.499c0 38 -2.33301 68.5 -7 91.5s-9 35.5 -13 37.5c-1.33301 1.33301 -7 2.5 -17 3.5s-21 1.66699 -33 2s-22.5 0.666016 -31.5 0.999023l-13.5 0.5c-31.333 0 -56.833 -3.66699 -76.5 -11s-34 -20.666 -43 -39.999
s-13.5 -47.666 -13.5 -84.999c0 -49.333 9.5 -82.833 28.5 -100.5s50.5 -26.5 94.5 -26.5zM268.001 656.996c-24.667 0 -48.1709 4.83301 -70.5039 14.5s-40.666 25 -54.999 46s-22.166 48.5 -23.499 82.5l57 6c2.66699 -30.667 12.334 -52 29.001 -64s37.667 -18 63 -18
s46.333 6 63 18s26.334 33.333 29.001 64l57 -6c-1.33301 -34 -9.33301 -61.5 -24 -82.5s-33 -36.333 -55 -46s-45.333 -14.5 -70 -14.5z" />
    <glyph glyph-name="Gdotaccent" unicode="&#x120;" horiz-adv-x="612" 
d="M331 -13c-34.667 0 -67.6689 4.83398 -99.002 14.501s-59 27.5 -83 53.5s-42.833 62.833 -56.5 110.5s-20.5 109.167 -20.5 184.5c0 74 6.5 134.5 19.5 181.5s31.5 83.333 55.5 109s52.667 43.334 86 53.001s70.333 14.5 111 14.5c21.333 0 43 -0.833008 65 -2.5
s42.5 -3.83398 61.5 -6.50098s33.833 -5.33398 44.5 -8.00098l-10 -72c-12.667 1.33301 -32.834 3.83301 -60.501 7.5s-63.167 5.5 -106.5 5.5c-33.333 0 -60.166 -1.83301 -80.499 -5.5s-35.5 -10.834 -45.5 -21.501c-12.667 -12.667 -24.167 -39 -34.5 -79
s-15.5 -98 -15.5 -174c0 -58 3.16699 -105 9.5 -141s13.5 -63.167 21.5 -81.5s15 -30.833 21 -37.5c8 -8.66699 21.167 -16.167 39.5 -22.5s45.5 -9.5 81.5 -9.5c23.333 0 43.833 1.33301 61.5 4s31.834 6.33398 42.501 11.001v258l38 -40l-144 7v62h186v-336l-23.5 -9.5
c-15.667 -6.33301 -37.667 -12.833 -66 -19.5s-61.166 -10 -98.499 -10zM280.998 763.001v82h104v-82h-104z" />
    <glyph glyph-name="gdotaccent" unicode="&#x121;" horiz-adv-x="521" 
d="M253 -179c-26.667 0 -51.667 1.32812 -75 3.99512s-43.666 5.83398 -60.999 9.50098s-31 6.83398 -41 9.50098l-15 4l10 75c37.333 -6.66699 75.666 -12.5 114.999 -17.5s77.333 -7.5 114 -7.5c37.333 0 62.333 3 75 9s19 15.333 19 28c0 7.33301 -1.66699 14 -5 20
s-9.33301 12.167 -18 18.5s-21.334 13.5 -38.001 21.5s-38.667 17.667 -66 29l-82.5 34.5c-17 7 -27.667 11.667 -32 14s-6.5 4.5 -6.5 6.5c0 0.666992 1.66699 5.16699 5 13.5s7.66602 18.5 12.999 30.5l16 37.5l14 33.5c-44 8.66699 -79.5 30 -106.5 64
s-40.5 75.333 -40.5 124c0 54.667 10.667 97.334 32 128.001s49.5 52.5 84.5 65.5s72.833 19.5 113.5 19.5c13.333 0 29.166 -0.333008 47.499 -1s37 -1.66699 56 -3s36.667 -2.66602 53 -3.99902s29.5 -2.33301 39.5 -3l15 -1v-53l-66 -10
c0 0.666992 2.83301 -6.16602 8.5 -20.499s11.334 -32 17.001 -53s8.5 -41.5 8.5 -61.5c0 -38 -8.33301 -71.833 -25 -101.5s-40.667 -53 -72 -70s-69 -25.5 -113 -25.5l-7 -37.5c-2.66699 -14.333 -4 -22.833 -4 -25.5c0 -1.33301 2.16699 -3.16602 6.5 -5.49902
s13 -6 26 -11s32.167 -13.167 57.5 -24.5c38.667 -16 68.334 -31.667 89.001 -47s35 -30.333 43 -45s12 -29.334 12 -44.001c0 -26.667 -9.16699 -49.5 -27.5 -68.5s-43.666 -33.5 -75.999 -43.5s-69.833 -15 -112.5 -15zM251 259.995c30 0 54.168 3.66797 72.501 11.001
s31.666 20.166 39.999 38.499s12.5 44.166 12.5 77.499c0 38 -2.33301 68.5 -7 91.5s-9 35.5 -13 37.5c-1.33301 1.33301 -7 2.5 -17 3.5s-21 1.66699 -33 2s-22.5 0.666016 -31.5 0.999023l-13.5 0.5c-31.333 0 -56.833 -3.66699 -76.5 -11s-34 -20.666 -43 -39.999
s-13.5 -47.666 -13.5 -84.999c0 -49.333 9.5 -82.833 28.5 -100.5s50.5 -26.5 94.5 -26.5zM217.001 680.996v85h102v-85h-102z" />
    <glyph glyph-name="uni0122" unicode="&#x122;" horiz-adv-x="612" 
d="M331 -13c-34.667 0 -67.6689 4.83398 -99.002 14.501s-59 27.5 -83 53.5s-42.833 62.833 -56.5 110.5s-20.5 109.167 -20.5 184.5c0 74 6.5 134.5 19.5 181.5s31.5 83.333 55.5 109s52.667 43.334 86 53.001s70.333 14.5 111 14.5c21.333 0 43 -0.833008 65 -2.5
s42.5 -3.83398 61.5 -6.50098s33.833 -5.33398 44.5 -8.00098l-10 -72c-12.667 1.33301 -32.834 3.83301 -60.501 7.5s-63.167 5.5 -106.5 5.5c-33.333 0 -60.166 -1.83301 -80.499 -5.5s-35.5 -10.834 -45.5 -21.501c-12.667 -12.667 -24.167 -39 -34.5 -79
s-15.5 -98 -15.5 -174c0 -58 3.16699 -105 9.5 -141s13.5 -63.167 21.5 -81.5s15 -30.833 21 -37.5c8 -8.66699 21.167 -16.167 39.5 -22.5s45.5 -9.5 81.5 -9.5c23.333 0 43.833 1.33301 61.5 4s31.834 6.33398 42.501 11.001v258l38 -40l-144 7v62h186v-336l-23.5 -9.5
c-15.667 -6.33301 -37.667 -12.833 -66 -19.5s-61.166 -10 -98.499 -10zM260.998 -232.999l-22 40.998c20 10.667 32.833 23.334 38.5 38.001s8.5 39.334 8.5 74.001v25h78l-1 -20c-2 -36.667 -8.16699 -65.5 -18.5 -86.5s-23 -36.667 -38 -47s-30.167 -18.5 -45.5 -24.5z
" />
    <glyph glyph-name="uni0123" unicode="&#x123;" horiz-adv-x="521" 
d="M253 -179c-26.667 0 -51.667 1.32812 -75 3.99512s-43.666 5.83398 -60.999 9.50098s-31 6.83398 -41 9.50098l-15 4l10 75c37.333 -6.66699 75.666 -12.5 114.999 -17.5s77.333 -7.5 114 -7.5c37.333 0 62.333 3 75 9s19 15.333 19 28c0 7.33301 -1.66699 14 -5 20
s-9.33301 12.167 -18 18.5s-21.334 13.5 -38.001 21.5s-38.667 17.667 -66 29l-82.5 34.5c-17 7 -27.667 11.667 -32 14s-6.5 4.5 -6.5 6.5c0 0.666992 1.66699 5.16699 5 13.5s7.66602 18.5 12.999 30.5l16 37.5l14 33.5c-44 8.66699 -79.5 30 -106.5 64
s-40.5 75.333 -40.5 124c0 54.667 10.667 97.334 32 128.001s49.5 52.5 84.5 65.5s72.833 19.5 113.5 19.5c13.333 0 29.166 -0.333008 47.499 -1s37 -1.66699 56 -3s36.667 -2.66602 53 -3.99902s29.5 -2.33301 39.5 -3l15 -1v-53l-66 -10
c0 0.666992 2.83301 -6.16602 8.5 -20.499s11.334 -32 17.001 -53s8.5 -41.5 8.5 -61.5c0 -38 -8.33301 -71.833 -25 -101.5s-40.667 -53 -72 -70s-69 -25.5 -113 -25.5l-7 -37.5c-2.66699 -14.333 -4 -22.833 -4 -25.5c0 -1.33301 2.16699 -3.16602 6.5 -5.49902
s13 -6 26 -11s32.167 -13.167 57.5 -24.5c38.667 -16 68.334 -31.667 89.001 -47s35 -30.333 43 -45s12 -29.334 12 -44.001c0 -26.667 -9.16699 -49.5 -27.5 -68.5s-43.666 -33.5 -75.999 -43.5s-69.833 -15 -112.5 -15zM251 259.995c30 0 54.168 3.66797 72.501 11.001
s31.666 20.166 39.999 38.499s12.5 44.166 12.5 77.499c0 38 -2.33301 68.5 -7 91.5s-9 35.5 -13 37.5c-1.33301 1.33301 -7 2.5 -17 3.5s-21 1.66699 -33 2s-22.5 0.666016 -31.5 0.999023l-13.5 0.5c-31.333 0 -56.833 -3.66699 -76.5 -11s-34 -20.666 -43 -39.999
s-13.5 -47.666 -13.5 -84.999c0 -49.333 9.5 -82.833 28.5 -100.5s50.5 -26.5 94.5 -26.5zM203.001 826.996l-22 -40.998c20 -10.667 32.833 -23.334 38.5 -38.001s8.5 -39.334 8.5 -74.001v-25h78l-1 20c-2 36.667 -8.16699 65.5 -18.5 86.5s-23 36.667 -38 47
s-30.167 18.5 -45.5 24.5z" />
    <glyph glyph-name="Hbar" unicode="&#x126;" horiz-adv-x="665" 
d="M633 601v-66h-597v66h597zM105 0v695h84l-3 -332l-38 28h368l-38 -28l-2 332h84v-695h-84l2 345l38 -28h-368l38 28l3 -345h-84z" />
    <glyph glyph-name="hbar" unicode="&#x127;" horiz-adv-x="584" 
d="M96 753l82.999 0.00292969v-277c18 8 37.333 15.667 58 23s41.334 13.5 62.001 18.5s39.334 7.5 56.001 7.5c40 0 71 -8 93 -24s37.5 -39.333 46.5 -70s13.5 -68.667 13.5 -114v-317h-84v288c0 38 -1.33301 67.667 -4 89s-8 37.666 -16 48.999
c-6.66699 9.33301 -14.834 15.166 -24.501 17.499s-21.5 3.5 -35.5 3.5c-14.667 0 -29.5 -1.33301 -44.5 -4s-29.667 -6.16699 -44 -10.5s-28 -8.83301 -41 -13.5s-24.833 -9.33398 -35.5 -14.001v-405h-83v753zM-4.00098 614.003v65h319v-65l-190 2z" />
    <glyph glyph-name="Itilde" unicode="&#x128;" 
d="M224 746c-10.667 0 -23.333 2.33398 -38 7.00098s-29.334 10 -44.001 16l-39 16c-11.333 4.66699 -19.333 7 -24 7c-4 0 -8.16699 -3.5 -12.5 -10.5s-7.83301 -14 -10.5 -21l-4 -10.5l-52 6c0 38 6.5 64.333 19.5 79s30.833 22 53.5 22
c11.333 0 24.166 -2.33301 38.499 -7s28.666 -9.83398 42.999 -15.501l38.5 -15.5c11.333 -4.66699 19.333 -7 24 -7s8.83398 3.5 12.501 10.5s6.83398 14 9.50098 21l4 10.5l53 -7c0 -37.333 -6.16699 -63.5 -18.5 -78.5s-30.166 -22.5 -53.499 -22.5zM105.001 -0.999023
l3 319l-3 377h85l-4 -307l4 -388z" />
    <glyph glyph-name="itilde" unicode="&#x129;" 
d="M234 666c-9.33301 0 -21.998 2.50098 -37.998 7.50098s-32.5 10.833 -49.5 17.5l-45.5 17.5c-13.333 5 -22 7.5 -26 7.5c-3.33301 0 -6.83301 -3.83301 -10.5 -11.5s-6.66699 -15.334 -9 -23.001l-3.5 -11.5l-52 6c0 37.333 5.5 63.333 16.5 78s26.5 22 46.5 22
c9.33301 0 21.833 -2.33301 37.5 -7s32 -10.167 49 -16.5l45 -17c13 -5 21.833 -7.5 26.5 -7.5c3.33301 0 6.66602 3.66699 9.99902 11s6.16602 14.833 8.49902 22.5l3.5 11.5l52 -7c0 -36.667 -5.16699 -62.5 -15.5 -77.5s-25.5 -22.5 -45.5 -22.5zM106.002 0.000976562
v582h83v-582h-83z" />
    <glyph glyph-name="Imacron" unicode="&#x12a;" 
d="M26 752v60h244v-60h-244zM105 -1l3 319l-3 377h85l-4 -307l4 -388z" />
    <glyph glyph-name="imacron" unicode="&#x12b;" 
d="M7 690v65h281v-65h-281zM106 0v582h83v-582h-83z" />
    <glyph glyph-name="Iogonek" unicode="&#x12e;" 
d="M105 -1l3 319l-3 377h85l-4 -307l4 -388zM128 -179c-28.667 0 -52.832 5.83398 -72.499 17.501s-29.5 31.167 -29.5 58.5c0 18.667 6.5 36.167 19.5 52.5s29 30.666 48 42.999s36.833 21.833 53.5 28.5l42 -21c-26.667 -10.667 -49.334 -24.5 -68.001 -41.5
s-28 -31.833 -28 -44.5c0 -12 4.16699 -20 12.5 -24s19.5 -6 33.5 -6c10.667 0 21.667 0.666992 33 2l17 2v-59l-17.5 -4c-11.667 -2.66699 -26.167 -4 -43.5 -4z" />
    <glyph glyph-name="iogonek" unicode="&#x12f;" 
d="M106 0v582h83v-582h-83zM97 681v85h102v-85h-102zM126 -179c-28.667 0 -52.832 5.83398 -72.499 17.501s-29.5 31.167 -29.5 58.5c0 18.667 6.5 36.167 19.5 52.5s29 30.666 48 42.999s36.833 21.833 53.5 28.5l42 -21c-26.667 -10.667 -49.334 -24.5 -68.001 -41.5
s-28 -31.833 -28 -44.5c0 -12 4.16699 -20 12.5 -24s19.5 -6 33.5 -6c10.667 0 21.667 0.666992 33 2l17 2v-59l-17.5 -4c-11.667 -2.66699 -26.167 -4 -43.5 -4z" />
    <glyph glyph-name="Idotaccent" unicode="&#x130;" 
d="M105 -1l3 319l-3 377h85l-4 -307l4 -388zM96 763v82h104v-82h-104z" />
    <glyph glyph-name="dotlessi" unicode="&#x131;" 
d="M106 0v582h83v-582h-83z" />
    <glyph glyph-name="IJ" unicode="&#x132;" horiz-adv-x="611" 
d="M105 -1l3 319l-3 377h85l-4 -307l4 -388zM351 -13c-9.33301 0 -18.167 0.501953 -26.5 1.50195s-15.833 2.16699 -22.5 3.5l-15 3l10 72c6 -0.666992 15.333 -2 28 -4s26.667 -3 42 -3c14 0 25.667 3.16699 35 9.5s16.5 21.166 21.5 44.499s7.5 59.666 7.5 108.999v472
h84v-459c0 -62 -7.16699 -111.167 -21.5 -147.5s-33.833 -62.333 -58.5 -78s-52.667 -23.5 -84 -23.5z" />
    <glyph glyph-name="ij" unicode="&#x133;" horiz-adv-x="602" 
d="M106 0v582h83v-582h-83zM97 681v85h102v-85h-102zM338 -180c-8.66699 0 -17.666 0.500977 -26.999 1.50098l-23.5 2.5l-9.5 1l9 74l8.5 -1c5.66699 -0.666992 13.167 -1.33398 22.5 -2.00098s19.333 -1 30 -1c17.333 0 30.666 2.83301 39.999 8.5s15.833 19.5 19.5 41.5
s5.5 57 5.5 105v532h83v-529c0 -58.667 -7 -105 -21 -139s-33 -58.167 -57 -72.5s-50.667 -21.5 -80 -21.5zM404.001 681.001v85h102v-85h-102z" />
    <glyph glyph-name="Jcircumflex" unicode="&#x134;" horiz-adv-x="316" 
d="M65 733l-26 40l114 93h51l114 -93l-26 -40l-110 61h-7zM56 -13c-9.33301 0 -18.167 0.501953 -26.5 1.50195s-15.833 2.16699 -22.5 3.5l-15 3l10 72c6 -0.666992 15.333 -2 28 -4s26.667 -3 42 -3c14 0 25.667 3.16699 35 9.5s16.5 21.166 21.5 44.499
s7.5 59.666 7.5 108.999v472h84v-459c0 -62 -7.16699 -111.167 -21.5 -147.5s-33.833 -62.333 -58.5 -78s-52.667 -23.5 -84 -23.5z" />
    <glyph glyph-name="jcircumflex" unicode="&#x135;" horiz-adv-x="307" 
d="M65 660l-33 33l114 109h53l114 -109l-32 -33l-104 70h-8zM55 -180c-8.66699 0 -17.666 0.500977 -26.999 1.50098l-23.5 2.5l-9.5 1l9 74l8.5 -1c5.66699 -0.666992 13.167 -1.33398 22.5 -2.00098s19.333 -1 30 -1c17.333 0 30.666 2.83301 39.999 8.5
s15.833 19.5 19.5 41.5s5.5 57 5.5 105v532h83v-529c0 -58.667 -7 -105 -21 -139s-33 -58.167 -57 -72.5s-50.667 -21.5 -80 -21.5z" />
    <glyph glyph-name="uni0136" unicode="&#x136;" horiz-adv-x="577" 
d="M485 0l-293 357l268 338h106l-275 -331v-6l306 -358h-112zM105 0l3 353l-3 342h84v-695h-84zM240 -233l-22 40.998c20 10.667 32.833 23.334 38.5 38.001s8.5 39.334 8.5 74.001v25h78l-1 -20c-2 -36.667 -8.16699 -65.5 -18.5 -86.5s-23 -36.667 -38 -47
s-30.167 -18.5 -45.5 -24.5z" />
    <glyph glyph-name="uni0137" unicode="&#x137;" horiz-adv-x="522" 
d="M423 0l-249 314l232 268h107l-244 -262v-5l262 -315h-108zM90 0l5 321l-5 432h83v-753h-83zM216 -233l-22 40.998c20 10.667 32.833 23.334 38.5 38.001s8.5 39.334 8.5 74.001v25h78l-1 -20c-2 -36.667 -8.16699 -65.5 -18.5 -86.5s-23 -36.667 -38 -47
s-30.167 -18.5 -45.5 -24.5z" />
    <glyph glyph-name="kgreenlandic" unicode="&#x138;" horiz-adv-x="522" 
d="M423 0h108l-263 314v5l245 263h-107l-257 -297l2 59zM90 0l5 300l-3 282h57l24 -76v-506h-83z" />
    <glyph glyph-name="Lacute" unicode="&#x139;" horiz-adv-x="446" 
d="M105 0v695h84l-5 -661l-38 38l289 2v-74h-330zM53 733l-18 51l225 82l28 -73z" />
    <glyph glyph-name="lacute" unicode="&#x13a;" 
d="M53 806l-18 51l225 82l28 -73zM106 0v753h83v-753h-83z" />
    <glyph glyph-name="uni013B" unicode="&#x13b;" horiz-adv-x="446" 
d="M105 0v695h84l-5 -661l-38 38l289 2v-74h-330zM186 -233l-22 40.998c20 10.667 32.833 23.334 38.5 38.001s8.5 39.334 8.5 74.001v25h78l-1 -20c-2 -36.667 -8.16699 -65.5 -18.5 -86.5s-23 -36.667 -38 -47s-30.167 -18.5 -45.5 -24.5z" />
    <glyph glyph-name="uni013C" unicode="&#x13c;" 
d="M106 0v753h83v-753h-83zM86 -233l-22 40.998c20 10.667 32.833 23.334 38.5 38.001s8.5 39.334 8.5 74.001v25h78l-1 -20c-2 -36.667 -8.16699 -65.5 -18.5 -86.5s-23 -36.667 -38 -47s-30.167 -18.5 -45.5 -24.5z" />
    <glyph glyph-name="Lcaron" unicode="&#x13d;" horiz-adv-x="446" 
d="M105 0v695h84l-5 -661l-38 38l289 2v-74h-330zM120 746l-121 95l28 38l115 -61h7l115 61l28 -38l-121 -95h-51z" />
    <glyph glyph-name="lcaron" unicode="&#x13e;" horiz-adv-x="310" 
d="M107 0v753h83v-753h-83zM271 554l-15 199h86l-18 -199h-53z" />
    <glyph glyph-name="Ldotaccent" unicode="&#x13f;" horiz-adv-x="446" 
d="M275 333v87h98v-87h-98zM105 0v695h84l-5 -661l-38 38l289 2v-74h-330z" />
    <glyph glyph-name="ldot" unicode="&#x140;" horiz-adv-x="382" 
d="M259 361v86h98v-86h-98zM121 0v753h83v-753h-83z" />
    <glyph glyph-name="Lslash" unicode="&#x141;" horiz-adv-x="438" 
d="M4 240v82l305 211v-83zM102 0v695h84l-5 -661l-38 38l289 2v-74h-330z" />
    <glyph glyph-name="lslash" unicode="&#x142;" horiz-adv-x="286" 
d="M106 0v320l-77 -50v79l77 51v353h83v-297l68 46v-82l-68 -45v-375h-83z" />
    <glyph glyph-name="Nacute" unicode="&#x143;" horiz-adv-x="680" 
d="M105 0v695h113l283 -594h3l-13 594h84v-695h-113l-283 594h-3l13 -594h-84zM278 733l-18 51l225 82l28 -73z" />
    <glyph glyph-name="nacute" unicode="&#x144;" horiz-adv-x="601" 
d="M101 0l-0.000976562 581.995h56l9 -57h5l30 16.5c14 7.66699 30.667 15.667 50 24s40 15.333 62 21s44 8.5 66 8.5c36.667 0 64.667 -9.16699 84 -27.5s32.5 -43.166 39.5 -74.499s10.5 -66.666 10.5 -105.999v-387h-83v358c0 39.333 -0.666992 69.333 -2 90
s-5.66602 36.334 -12.999 47.001c-5.33301 8.66699 -13 14.334 -23 17.001s-20.667 4 -32 4c-24 0 -48.5 -3.83301 -73.5 -11.5s-46.833 -15.667 -65.5 -24s-31 -14.166 -37 -17.499v-463h-83zM233.999 653.995l-20 50l184 84l30 -67z" />
    <glyph glyph-name="uni0145" unicode="&#x145;" horiz-adv-x="680" 
d="M105 0v695h113l283 -594h3l-13 594h84v-695h-113l-283 594h-3l13 -594h-84zM276 -233l-22 40.998c20 10.667 32.833 23.334 38.5 38.001s8.5 39.334 8.5 74.001v25h78l-1 -20c-2 -36.667 -8.16699 -65.5 -18.5 -86.5s-23 -36.667 -38 -47s-30.167 -18.5 -45.5 -24.5z" />
    <glyph glyph-name="uni0146" unicode="&#x146;" horiz-adv-x="601" 
d="M101 0l-0.000976562 581.995h56l9 -57h5l30 16.5c14 7.66699 30.667 15.667 50 24s40 15.333 62 21s44 8.5 66 8.5c36.667 0 64.667 -9.16699 84 -27.5s32.5 -43.166 39.5 -74.499s10.5 -66.666 10.5 -105.999v-387h-83v358c0 39.333 -0.666992 69.333 -2 90
s-5.66602 36.334 -12.999 47.001c-5.33301 8.66699 -13 14.334 -23 17.001s-20.667 4 -32 4c-24 0 -48.5 -3.83301 -73.5 -11.5s-46.833 -15.667 -65.5 -24s-31 -14.166 -37 -17.499v-463h-83zM250.999 -233.005l-22 40.998c20 10.667 32.833 23.334 38.5 38.001
s8.5 39.334 8.5 74.001v25h78l-1 -20c-2 -36.667 -8.16699 -65.5 -18.5 -86.5s-23 -36.667 -38 -47s-30.167 -18.5 -45.5 -24.5z" />
    <glyph glyph-name="Ncaron" unicode="&#x147;" horiz-adv-x="680" 
d="M105 0v695h113l283 -594h3l-13 594h84v-695h-113l-283 594h-3l13 -594h-84zM313 746l-121 95l28 38l115 -61h7l115 61l28 -38l-121 -95h-51z" />
    <glyph glyph-name="ncaron" unicode="&#x148;" horiz-adv-x="601" 
d="M101 0l-0.000976562 581.995h56l9 -57h5l30 16.5c14 7.66699 30.667 15.667 50 24s40 15.333 62 21s44 8.5 66 8.5c36.667 0 64.667 -9.16699 84 -27.5s32.5 -43.166 39.5 -74.499s10.5 -66.666 10.5 -105.999v-387h-83v358c0 39.333 -0.666992 69.333 -2 90
s-5.66602 36.334 -12.999 47.001c-5.33301 8.66699 -13 14.334 -23 17.001s-20.667 4 -32 4c-24 0 -48.5 -3.83301 -73.5 -11.5s-46.833 -15.667 -65.5 -24s-31 -14.166 -37 -17.499v-463h-83zM285.999 662.995l-121 109l29 34l114 -71h7l114 71l29 -34l-121 -109h-51z" />
    <glyph glyph-name="Eng" unicode="&#x14a;" horiz-adv-x="680" 
d="M422 -129l35 0.00195312c10 0 19.333 2.66699 28 8s13 13.666 13 24.999c0 15.333 -4.16699 31.166 -12.5 47.499s-16.166 32.5 -23.499 48.5h113v-40v-48c0 -18 -3.5 -35.333 -10.5 -52s-18.333 -30.167 -34 -40.5s-36.834 -15.5 -63.501 -15.5h-45v67zM105 0.00195312
v695h113l283 -594h3l-13 594h84v-695h-113l-283 594h-3l13 -594h-84z" />
    <glyph glyph-name="eng" unicode="&#x14b;" horiz-adv-x="601" 
d="M101 0l0.000976562 581.996h56l9 -57h5l30 16.5c14 7.66699 30.667 15.667 50 24s40 15.333 62 21s44 8.5 66 8.5c36.667 0 64.667 -9.16699 84 -27.5s32.5 -43.166 39.5 -74.499s10.5 -66.666 10.5 -105.999v-293c0 -58 -7.5 -103.833 -22.5 -137.5
s-34.833 -57.834 -59.5 -72.501s-52.334 -22 -83.001 -22c-6.66699 0 -14.5 0.333008 -23.5 1s-19.833 2.33398 -32.5 5.00098l10 72c9.33301 -1.33301 19.333 -2.5 30 -3.5s22.667 -1.5 36 -1.5c12 0 22.667 2.16699 32 6.5s16.666 14.166 21.999 29.499s8 39 8 71v316
c0 39.333 -0.666992 69.333 -2 90s-5.66602 36.334 -12.999 47.001c-5.33301 8.66699 -13 14.334 -23 17.001s-20.667 4 -32 4c-24 0 -48.5 -3.83301 -73.5 -11.5s-46.833 -15.667 -65.5 -24s-31 -14.166 -37 -17.499v-463h-83z" />
    <glyph glyph-name="Omacron" unicode="&#x14c;" horiz-adv-x="656" 
d="M328 -14c-34.667 0 -67.5 5.33301 -98.5 16s-58.333 29.167 -82 55.5s-42.167 63.166 -55.5 110.499s-20 107.666 -20 180.999s6.66699 133.333 20 180s31.833 83.167 55.5 109.5s51 44.666 82 54.999s63.833 15.5 98.5 15.5c35.333 0 68.333 -5.16699 99 -15.5
s57.834 -28.666 81.501 -54.999s42.167 -62.833 55.5 -109.5s20 -106.667 20 -180s-6.66699 -133.666 -20 -180.999s-31.833 -84.166 -55.5 -110.499s-50.834 -44.833 -81.501 -55.5s-63.667 -16 -99 -16zM328 62c28.667 0 53.4961 3.16699 74.4961 9.5
s38.333 19.166 52 38.499s23.834 47.833 30.501 85.5s10 87.834 10 150.501s-3.16699 113 -9.5 151s-16.166 66.833 -29.499 86.5s-30.666 32.834 -51.999 39.501s-46.666 10 -75.999 10c-30 0 -55.5 -3.33301 -76.5 -10s-38.167 -19.834 -51.5 -39.501
s-23.166 -48.5 -29.499 -86.5s-9.5 -88.333 -9.5 -151s3.33301 -112.834 10 -150.501s16.667 -66.167 30 -85.5s30.666 -32.166 51.999 -38.499s46.333 -9.5 75 -9.5zM167.996 767v65h320v-65h-320z" />
    <glyph glyph-name="omacron" unicode="&#x14d;" horiz-adv-x="576" 
d="M288 -13c-55.333 0 -98.833 12.333 -130.5 37s-54.167 59.667 -67.5 105s-20 99.333 -20 162s6.66699 116.667 20 162s35.833 80.333 67.5 105s75.167 37 130.5 37s98.833 -12.333 130.5 -37s54.167 -59.667 67.5 -105s20 -99.333 20 -162s-6.66699 -116.667 -20 -162
s-35.833 -80.333 -67.5 -105s-75.167 -37 -130.5 -37zM288 59c25.333 0 46.5 3 63.5 9s30.667 17 41 33s17.666 39.333 21.999 70s6.5 70.667 6.5 120s-2.16699 89.333 -6.5 120s-11.666 54.167 -21.999 70.5s-24 27.333 -41 33s-38.167 8.5 -63.5 8.5
s-46.5 -2.83301 -63.5 -8.5s-30.667 -16.667 -41 -33s-17.833 -39.833 -22.5 -70.5s-7 -70.667 -7 -120s2.33301 -89.333 7 -120s12.167 -54 22.5 -70s24 -27 41 -33s38.167 -9 63.5 -9zM128 690v65h320v-65h-320z" />
    <glyph glyph-name="Ohungarumlaut" unicode="&#x150;" horiz-adv-x="656" 
d="M328 -14c-34.667 0 -67.5 5.33301 -98.5 16s-58.333 29.167 -82 55.5s-42.167 63.166 -55.5 110.499s-20 107.666 -20 180.999s6.66699 133.333 20 180s31.833 83.167 55.5 109.5s51 44.666 82 54.999s63.833 15.5 98.5 15.5c35.333 0 68.333 -5.16699 99 -15.5
s57.834 -28.666 81.501 -54.999s42.167 -62.833 55.5 -109.5s20 -106.667 20 -180s-6.66699 -133.666 -20 -180.999s-31.833 -84.166 -55.5 -110.499s-50.834 -44.833 -81.501 -55.5s-63.667 -16 -99 -16zM328 62c28.667 0 53.4961 3.16699 74.4961 9.5
s38.333 19.166 52 38.499s23.834 47.833 30.501 85.5s10 87.834 10 150.501s-3.16699 113 -9.5 151s-16.166 66.833 -29.499 86.5s-30.666 32.834 -51.999 39.501s-46.666 10 -75.999 10c-30 0 -55.5 -3.33301 -76.5 -10s-38.167 -19.834 -51.5 -39.501
s-23.166 -48.5 -29.499 -86.5s-9.5 -88.333 -9.5 -151s3.33301 -112.834 10 -150.501s16.667 -66.167 30 -85.5s30.666 -32.166 51.999 -38.499s46.333 -9.5 75 -9.5zM177.996 740l-26 47l181 100l40 -58zM386.996 740l-25 46l175 90l39 -63z" />
    <glyph glyph-name="ohungarumlaut" unicode="&#x151;" horiz-adv-x="576" 
d="M288 -13c-55.333 0 -98.833 12.333 -130.5 37s-54.167 59.667 -67.5 105s-20 99.333 -20 162s6.66699 116.667 20 162s35.833 80.333 67.5 105s75.167 37 130.5 37s98.833 -12.333 130.5 -37s54.167 -59.667 67.5 -105s20 -99.333 20 -162s-6.66699 -116.667 -20 -162
s-35.833 -80.333 -67.5 -105s-75.167 -37 -130.5 -37zM288 59c25.333 0 46.5 3 63.5 9s30.667 17 41 33s17.666 39.333 21.999 70s6.5 70.667 6.5 120s-2.16699 89.333 -6.5 120s-11.666 54.167 -21.999 70.5s-24 27.333 -41 33s-38.167 8.5 -63.5 8.5
s-46.5 -2.83301 -63.5 -8.5s-30.667 -16.667 -41 -33s-17.833 -39.833 -22.5 -70.5s-7 -70.667 -7 -120s2.33301 -89.333 7 -120s12.167 -54 22.5 -70s24 -27 41 -33s38.167 -9 63.5 -9zM148 649l-33 40l153 131l45 -59zM335 649l-32 40l160 131l45 -59z" />
    <glyph glyph-name="OE" unicode="&#x152;" horiz-adv-x="909" 
d="M328 -13c-34.667 0 -67.5 5.33203 -98.5 15.999s-58.333 29.167 -82 55.5s-42.167 63 -55.5 110s-20 107.167 -20 180.5c0 72.667 6.66699 132.334 20 179.001s31.833 83.167 55.5 109.5s51 44.666 82 54.999s63.833 15.5 98.5 15.5c35.333 0 66.833 -5.16699 94.5 -15.5
s51.834 -27.166 72.501 -50.499h42l-38 -38v91h342v-76l-258 3l-5 -233h239v-71h-239l5 -245l258 2v-75h-342v92l38 -38h-42c-20.667 -23.333 -44.834 -40.333 -72.501 -51s-59.167 -16 -94.5 -16zM328 63.999c28.667 0 53.4961 3.16699 74.4961 9.5s38.333 19 52 38
s23.834 47.333 30.501 85s10 87.5 10 149.5s-3.16699 112 -9.5 150s-16.166 66.833 -29.499 86.5s-30.666 32.834 -51.999 39.501s-46.666 10 -75.999 10c-30 0 -55.5 -3.33301 -76.5 -10s-38.167 -19.834 -51.5 -39.501s-23.166 -48.5 -29.499 -86.5s-9.5 -88 -9.5 -150
s3.33301 -111.833 10 -149.5s16.667 -66 30 -85s30.666 -31.667 51.999 -38s46.333 -9.5 75 -9.5z" />
    <glyph glyph-name="oe" unicode="&#x153;" horiz-adv-x="916" 
d="M288 -13c-55.333 0 -98.834 12.3311 -130.501 36.998s-54.167 59.667 -67.5 105s-20 99.333 -20 162s6.66699 116.667 20 162s35.833 80.333 67.5 105s75.167 37 130.5 37c44 0 80.167 -8.16699 108.5 -24.5s50.5 -39.166 66.5 -68.499h4c20 34 45.5 58 76.5 72
s66.167 21 105.5 21c42.667 0 79 -8.83301 109 -26.5s53 -46.5 69 -86.5s24 -93.667 24 -161v-62h-344v-34c1.33301 -46.667 7 -80.167 17 -100.5s18.667 -33.833 26 -40.5c9.33301 -8 20.333 -14 33 -18s31 -6 55 -6c18.667 0 38.167 1.83301 58.5 5.5
s39.5 8.16699 57.5 13.5s32.5 9.83301 43.5 13.5l16.5 5.5l21 -68l-14.5 -6.5c-9.66699 -4.33301 -23 -9.33301 -40 -15s-36.833 -10.667 -59.5 -15s-47 -6.5 -73 -6.5c-39.333 0 -74 7.33301 -104 22s-54.667 38.334 -74 71.001h-4c-16.667 -30 -39.667 -53 -69 -69
s-65.666 -24 -108.999 -24zM287.999 57.998c25.333 0 46.5 3 63.5 9s30.667 17.167 41 33.5s17.666 39.833 21.999 70.5s6.5 70.667 6.5 120s-2.16699 89.333 -6.5 120s-11.666 54.167 -21.999 70.5s-24 27.333 -41 33s-38.167 8.5 -63.5 8.5s-46.5 -2.83301 -63.5 -8.5
s-30.667 -16.667 -41 -33s-17.833 -39.833 -22.5 -70.5s-7 -70.667 -7 -120s2.33301 -89.333 7 -120s12.167 -54.167 22.5 -70.5s24 -27.5 41 -33.5s38.167 -9 63.5 -9zM506.999 324.998l259.001 5.00195c0 38 -1.5 70.833 -4.5 98.5s-9.16699 49.167 -18.5 64.5
c-4.66699 9.33301 -13.667 16.666 -27 21.999s-34.333 8 -63 8c-32.667 0 -57.334 -3.33301 -74.001 -10s-30 -16.667 -40 -30c-10.667 -14.667 -18.667 -35.334 -24 -62.001s-8 -58.667 -8 -96z" />
    <glyph glyph-name="Racute" unicode="&#x154;" horiz-adv-x="635" 
d="M105 0l5.00293 329.003l-3 366c7.33301 1.33301 19.333 2.66602 36 3.99902s35.667 2.66602 57 3.99902s43.166 2.5 65.499 3.5s43.166 1.5 62.499 1.5c45.333 0 84.666 -7 117.999 -21s59 -36.833 77 -68.5s27 -73.834 27 -126.501c0 -58 -12.667 -104 -38 -138
s-62 -56.667 -110 -68v-3l157 -283h-99l-140 276l-130 5v-281h-85zM338.003 346.003c49.333 0 82.167 11.8311 98.5 35.498s24.5 60.834 24.5 111.501c0 41.333 -3.5 72.833 -10.5 94.5s-16.5 35.834 -28.5 42.501c-7.33301 4.66699 -18.5 8.16699 -33.5 10.5
s-31.167 3.5 -48.5 3.5c-27.333 0 -55.166 -1.33301 -83.499 -4s-50.166 -5 -65.499 -7l-2 -277c23.333 -2.66699 48.166 -5 74.499 -7s51.166 -3 74.499 -3zM219.004 733.001l-18 51l225 82l28 -73z" />
    <glyph glyph-name="racute" unicode="&#x155;" horiz-adv-x="395" 
d="M101 0v582.002h53l11 -59h6l15.5 11c10.333 7.33301 23.833 15.666 40.5 24.999s34.5 17.666 53.5 24.999s36.833 11 53.5 11c10 0 19.333 -0.833008 28 -2.5l13 -2.5l-7 -80l-13 1c-8.66699 0.666992 -16.667 1 -24 1c-18.667 0 -37.5 -2.66699 -56.5 -8
s-36.5 -12 -52.5 -20s-28.667 -15.667 -38 -23v-461h-83zM131 654.002l-20 50l184 84l30 -67z" />
    <glyph glyph-name="uni0156" unicode="&#x156;" horiz-adv-x="635" 
d="M105 0l5.00293 329.003l-3 366c7.33301 1.33301 19.333 2.66602 36 3.99902s35.667 2.66602 57 3.99902s43.166 2.5 65.499 3.5s43.166 1.5 62.499 1.5c45.333 0 84.666 -7 117.999 -21s59 -36.833 77 -68.5s27 -73.834 27 -126.501c0 -58 -12.667 -104 -38 -138
s-62 -56.667 -110 -68v-3l157 -283h-99l-140 276l-130 5v-281h-85zM338.003 346.003c49.333 0 82.167 11.8311 98.5 35.498s24.5 60.834 24.5 111.501c0 41.333 -3.5 72.833 -10.5 94.5s-16.5 35.834 -28.5 42.501c-7.33301 4.66699 -18.5 8.16699 -33.5 10.5
s-31.167 3.5 -48.5 3.5c-27.333 0 -55.166 -1.33301 -83.499 -4s-50.166 -5 -65.499 -7l-2 -277c23.333 -2.66699 48.166 -5 74.499 -7s51.166 -3 74.499 -3zM255.004 -232.999l-22 40.998c20 10.667 32.833 23.334 38.5 38.001s8.5 39.334 8.5 74.001v25h78l-1 -20
c-2 -36.667 -8.16699 -65.5 -18.5 -86.5s-23 -36.667 -38 -47s-30.167 -18.5 -45.5 -24.5z" />
    <glyph glyph-name="uni0157" unicode="&#x157;" horiz-adv-x="395" 
d="M101 0v582.002h53l11 -59h6l15.5 11c10.333 7.33301 23.833 15.666 40.5 24.999s34.5 17.666 53.5 24.999s36.833 11 53.5 11c10 0 19.333 -0.833008 28 -2.5l13 -2.5l-7 -80l-13 1c-8.66699 0.666992 -16.667 1 -24 1c-18.667 0 -37.5 -2.66699 -56.5 -8
s-36.5 -12 -52.5 -20s-28.667 -15.667 -38 -23v-461h-83zM82 -232.998l-22 40.998c20 10.667 32.833 23.334 38.5 38.001s8.5 39.334 8.5 74.001v25h78l-1 -20c-2 -36.667 -8.16699 -65.5 -18.5 -86.5s-23 -36.667 -38 -47s-30.167 -18.5 -45.5 -24.5z" />
    <glyph glyph-name="Rcaron" unicode="&#x158;" horiz-adv-x="635" 
d="M105 0l5.00293 329.003l-3 366c7.33301 1.33301 19.333 2.66602 36 3.99902s35.667 2.66602 57 3.99902s43.166 2.5 65.499 3.5s43.166 1.5 62.499 1.5c45.333 0 84.666 -7 117.999 -21s59 -36.833 77 -68.5s27 -73.834 27 -126.501c0 -58 -12.667 -104 -38 -138
s-62 -56.667 -110 -68v-3l157 -283h-99l-140 276l-130 5v-281h-85zM338.003 346.003c49.333 0 82.167 11.8311 98.5 35.498s24.5 60.834 24.5 111.501c0 41.333 -3.5 72.833 -10.5 94.5s-16.5 35.834 -28.5 42.501c-7.33301 4.66699 -18.5 8.16699 -33.5 10.5
s-31.167 3.5 -48.5 3.5c-27.333 0 -55.166 -1.33301 -83.499 -4s-50.166 -5 -65.499 -7l-2 -277c23.333 -2.66699 48.166 -5 74.499 -7s51.166 -3 74.499 -3zM292.004 746.001l-121 95l28 38l115 -61h7l115 61l28 -38l-121 -95h-51z" />
    <glyph glyph-name="rcaron" unicode="&#x159;" horiz-adv-x="395" 
d="M101 0v582.002h53l11 -59h6l15.5 11c10.333 7.33301 23.833 15.666 40.5 24.999s34.5 17.666 53.5 24.999s36.833 11 53.5 11c10 0 19.333 -0.833008 28 -2.5l13 -2.5l-7 -80l-13 1c-8.66699 0.666992 -16.667 1 -24 1c-18.667 0 -37.5 -2.66699 -56.5 -8
s-36.5 -12 -52.5 -20s-28.667 -15.667 -38 -23v-461h-83zM212 663.002l-121 109l29 34l114 -71h7l114 71l29 -34l-121 -109h-51z" />
    <glyph glyph-name="Sacute" unicode="&#x15a;" horiz-adv-x="511" 
d="M246 -14c-27.333 0 -53.6611 3.16699 -78.9941 9.5s-47.833 13.833 -67.5 22.5s-35.167 16.167 -46.5 22.5l-17 9.5l4.5 10.5l10.5 24l10.5 23.5l4.5 10l16.5 -8.5c11 -5.66699 25.833 -12 44.5 -19s40 -13.333 64 -19s49 -8.5 75 -8.5c16.667 0 29.834 1.5 39.501 4.5
s16.5 5.83301 20.5 8.5c13.333 9.33301 23.666 22.166 30.999 38.499s11 37.5 11 63.5c0 25.333 -5.33301 46.333 -16 63s-24.834 30.667 -42.501 42s-36.834 21.333 -57.501 30c-26.667 11.333 -51.667 22.666 -75 33.999s-44 24.333 -62 39s-32 33.167 -42 55.5
s-15 50.166 -15 83.499c0 34.667 7.66699 65.834 23 93.501s38.333 49.667 69 66s68.667 24.5 114 24.5c22 0 42.667 -1.16699 62 -3.5s36.666 -4.83301 51.999 -7.5s27.333 -5.16699 36 -7.5l13 -3.5l-14 -72l-14 2.5l-38 6.5c-16 2.66699 -34 4.83398 -54 6.50098
s-40.333 2.5 -61 2.5c-16.667 0 -29.834 -1 -39.501 -3s-18.167 -5.33301 -25.5 -10c-8.66699 -4.66699 -16.834 -14.167 -24.501 -28.5s-11.5 -33.833 -11.5 -58.5c0 -27.333 7 -49.666 21 -66.999s32.333 -31.5 55 -42.5s46.667 -21.833 72 -32.5
c20 -8 39.667 -17.167 59 -27.5s36.666 -22.833 51.999 -37.5s27.666 -33.167 36.999 -55.5s14 -49.5 14 -81.5c0 -40.667 -8.83301 -76.167 -26.5 -106.5s-42.167 -54 -73.5 -71s-67.666 -25.5 -108.999 -25.5zM157.005 733l-18 51l225 82l28 -73z" />
    <glyph glyph-name="sacute" unicode="&#x15b;" horiz-adv-x="492" 
d="M245 -13c-24.667 0 -48.335 2.5 -71.002 7.5s-43 10.667 -61 17s-32.167 11.833 -42.5 16.5l-15.5 7l21 71l15.5 -7c10.333 -4.66699 24.166 -10.167 41.499 -16.5s37 -11.833 59 -16.5s44.667 -7 68 -7c13.333 0 25.666 1.16699 36.999 3.5s20.333 6.5 27 12.5
c7.33301 6.66699 14 16.667 20 30s9 29.333 9 48c0 28 -6.66699 49.333 -20 64s-30.666 26 -51.999 34s-44 15.333 -68 22c-19.333 5.33301 -38.333 11.333 -57 18s-35.5 15.667 -50.5 27s-27 26.5 -36 45.5s-13.5 43.5 -13.5 73.5c0 47.333 14.5 85.5 43.5 114.5
s77.833 43.5 146.5 43.5c23.333 0 45.666 -1.5 66.999 -4.5s40.166 -6.33301 56.499 -10s28.5 -6.83398 36.5 -9.50098l-13 -70l-13.5 3.5c-9 2.33301 -21.167 4.83301 -36.5 7.5s-32.666 5.16699 -51.999 7.5s-39.666 3.5 -60.999 3.5c-20 0 -36 -1.16699 -48 -3.5
s-21 -5.83301 -27 -10.5s-11 -12.167 -15 -22.5s-6 -22.5 -6 -36.5c0 -28 7.83301 -49 23.5 -63s35.667 -24.667 60 -32l75.5 -23c18 -5.33301 35.333 -11.666 52 -18.999s31.834 -17 45.501 -29s24.334 -27.333 32.001 -46s11.5 -41.667 11.5 -69
c0 -54 -16.167 -97.833 -48.5 -131.5s-79.166 -50.5 -140.499 -50.5zM143.999 654l-20 50l184 84l30 -67z" />
    <glyph glyph-name="Scedilla" unicode="&#x15e;" horiz-adv-x="511" 
d="M246 -14c-27.333 0 -53.6611 3.16699 -78.9941 9.5s-47.833 13.833 -67.5 22.5s-35.167 16.167 -46.5 22.5l-17 9.5l4.5 10.5l10.5 24l10.5 23.5l4.5 10l16.5 -8.5c11 -5.66699 25.833 -12 44.5 -19s40 -13.333 64 -19s49 -8.5 75 -8.5c16.667 0 29.834 1.5 39.501 4.5
s16.5 5.83301 20.5 8.5c13.333 9.33301 23.666 22.166 30.999 38.499s11 37.5 11 63.5c0 25.333 -5.33301 46.333 -16 63s-24.834 30.667 -42.501 42s-36.834 21.333 -57.501 30c-26.667 11.333 -51.667 22.666 -75 33.999s-44 24.333 -62 39s-32 33.167 -42 55.5
s-15 50.166 -15 83.499c0 34.667 7.66699 65.834 23 93.501s38.333 49.667 69 66s68.667 24.5 114 24.5c22 0 42.667 -1.16699 62 -3.5s36.666 -4.83301 51.999 -7.5s27.333 -5.16699 36 -7.5l13 -3.5l-14 -72l-14 2.5l-38 6.5c-16 2.66699 -34 4.83398 -54 6.50098
s-40.333 2.5 -61 2.5c-16.667 0 -29.834 -1 -39.501 -3s-18.167 -5.33301 -25.5 -10c-8.66699 -4.66699 -16.834 -14.167 -24.501 -28.5s-11.5 -33.833 -11.5 -58.5c0 -27.333 7 -49.666 21 -66.999s32.333 -31.5 55 -42.5s46.667 -21.833 72 -32.5
c20 -8 39.667 -17.167 59 -27.5s36.666 -22.833 51.999 -37.5s27.666 -33.167 36.999 -55.5s14 -49.5 14 -81.5c0 -40.667 -8.83301 -76.167 -26.5 -106.5s-42.167 -54 -73.5 -71s-67.666 -25.5 -108.999 -25.5zM238.005 -179c-18 0 -34.668 1.5 -50.001 4.5l-23 4.5v62
l12 -1c8 -0.666992 17 -1.5 27 -2.5s18.333 -1.5 25 -1.5c20 0 34 1.83301 42 5.5s12 12.167 12 25.5c0 17.333 -1.66699 34 -5 50s-6.33301 28.667 -9 38l59 4c2.66699 -6 5.33398 -14 8.00098 -24s5.16699 -20.667 7.5 -32s3.5 -22.333 3.5 -33
c0 -30.667 -10.333 -55 -31 -73s-46.667 -27 -78 -27z" />
    <glyph glyph-name="scedilla" unicode="&#x15f;" horiz-adv-x="492" 
d="M245 -13c-24.667 0 -48.335 2.5 -71.002 7.5s-43 10.667 -61 17s-32.167 11.833 -42.5 16.5l-15.5 7l21 71l15.5 -7c10.333 -4.66699 24.166 -10.167 41.499 -16.5s37 -11.833 59 -16.5s44.667 -7 68 -7c13.333 0 25.666 1.16699 36.999 3.5s20.333 6.5 27 12.5
c7.33301 6.66699 14 16.667 20 30s9 29.333 9 48c0 28 -6.66699 49.333 -20 64s-30.666 26 -51.999 34s-44 15.333 -68 22c-19.333 5.33301 -38.333 11.333 -57 18s-35.5 15.667 -50.5 27s-27 26.5 -36 45.5s-13.5 43.5 -13.5 73.5c0 47.333 14.5 85.5 43.5 114.5
s77.833 43.5 146.5 43.5c23.333 0 45.666 -1.5 66.999 -4.5s40.166 -6.33301 56.499 -10s28.5 -6.83398 36.5 -9.50098l-13 -70l-13.5 3.5c-9 2.33301 -21.167 4.83301 -36.5 7.5s-32.666 5.16699 -51.999 7.5s-39.666 3.5 -60.999 3.5c-20 0 -36 -1.16699 -48 -3.5
s-21 -5.83301 -27 -10.5s-11 -12.167 -15 -22.5s-6 -22.5 -6 -36.5c0 -28 7.83301 -49 23.5 -63s35.667 -24.667 60 -32l75.5 -23c18 -5.33301 35.333 -11.666 52 -18.999s31.834 -17 45.501 -29s24.334 -27.333 32.001 -46s11.5 -41.667 11.5 -69
c0 -54 -16.167 -97.833 -48.5 -131.5s-79.166 -50.5 -140.499 -50.5zM227.999 -179c-18 0 -34.668 1.5 -50.001 4.5l-23 4.5v62l12 -1c8 -0.666992 17 -1.5 27 -2.5s18.333 -1.5 25 -1.5c20 0 34 1.83301 42 5.5s12 12.167 12 25.5c0 17.333 -1.66699 34 -5 50
s-6.33301 28.667 -9 38l59 4c2.66699 -6 5.33398 -14 8.00098 -24s5.16699 -20.667 7.5 -32s3.5 -22.333 3.5 -33c0 -30.667 -10.333 -55 -31 -73s-46.667 -27 -78 -27z" />
    <glyph glyph-name="Scaron" unicode="&#x160;" horiz-adv-x="511" 
d="M246 -14c-27.333 0 -53.6611 3.16699 -78.9941 9.5s-47.833 13.833 -67.5 22.5s-35.167 16.167 -46.5 22.5l-17 9.5l4.5 10.5l10.5 24l10.5 23.5l4.5 10l16.5 -8.5c11 -5.66699 25.833 -12 44.5 -19s40 -13.333 64 -19s49 -8.5 75 -8.5c16.667 0 29.834 1.5 39.501 4.5
s16.5 5.83301 20.5 8.5c13.333 9.33301 23.666 22.166 30.999 38.499s11 37.5 11 63.5c0 25.333 -5.33301 46.333 -16 63s-24.834 30.667 -42.501 42s-36.834 21.333 -57.501 30c-26.667 11.333 -51.667 22.666 -75 33.999s-44 24.333 -62 39s-32 33.167 -42 55.5
s-15 50.166 -15 83.499c0 34.667 7.66699 65.834 23 93.501s38.333 49.667 69 66s68.667 24.5 114 24.5c22 0 42.667 -1.16699 62 -3.5s36.666 -4.83301 51.999 -7.5s27.333 -5.16699 36 -7.5l13 -3.5l-14 -72l-14 2.5l-38 6.5c-16 2.66699 -34 4.83398 -54 6.50098
s-40.333 2.5 -61 2.5c-16.667 0 -29.834 -1 -39.501 -3s-18.167 -5.33301 -25.5 -10c-8.66699 -4.66699 -16.834 -14.167 -24.501 -28.5s-11.5 -33.833 -11.5 -58.5c0 -27.333 7 -49.666 21 -66.999s32.333 -31.5 55 -42.5s46.667 -21.833 72 -32.5
c20 -8 39.667 -17.167 59 -27.5s36.666 -22.833 51.999 -37.5s27.666 -33.167 36.999 -55.5s14 -49.5 14 -81.5c0 -40.667 -8.83301 -76.167 -26.5 -106.5s-42.167 -54 -73.5 -71s-67.666 -25.5 -108.999 -25.5zM230.005 746l-121 95l28 38l115 -61h7l115 61l28 -38
l-121 -95h-51z" />
    <glyph glyph-name="scaron" unicode="&#x161;" horiz-adv-x="492" 
d="M245 -13c-24.667 0 -48.335 2.5 -71.002 7.5s-43 10.667 -61 17s-32.167 11.833 -42.5 16.5l-15.5 7l21 71l15.5 -7c10.333 -4.66699 24.166 -10.167 41.499 -16.5s37 -11.833 59 -16.5s44.667 -7 68 -7c13.333 0 25.666 1.16699 36.999 3.5s20.333 6.5 27 12.5
c7.33301 6.66699 14 16.667 20 30s9 29.333 9 48c0 28 -6.66699 49.333 -20 64s-30.666 26 -51.999 34s-44 15.333 -68 22c-19.333 5.33301 -38.333 11.333 -57 18s-35.5 15.667 -50.5 27s-27 26.5 -36 45.5s-13.5 43.5 -13.5 73.5c0 47.333 14.5 85.5 43.5 114.5
s77.833 43.5 146.5 43.5c23.333 0 45.666 -1.5 66.999 -4.5s40.166 -6.33301 56.499 -10s28.5 -6.83398 36.5 -9.50098l-13 -70l-13.5 3.5c-9 2.33301 -21.167 4.83301 -36.5 7.5s-32.666 5.16699 -51.999 7.5s-39.666 3.5 -60.999 3.5c-20 0 -36 -1.16699 -48 -3.5
s-21 -5.83301 -27 -10.5s-11 -12.167 -15 -22.5s-6 -22.5 -6 -36.5c0 -28 7.83301 -49 23.5 -63s35.667 -24.667 60 -32l75.5 -23c18 -5.33301 35.333 -11.666 52 -18.999s31.834 -17 45.501 -29s24.334 -27.333 32.001 -46s11.5 -41.667 11.5 -69
c0 -54 -16.167 -97.833 -48.5 -131.5s-79.166 -50.5 -140.499 -50.5zM224.999 663l-121 109l29 34l114 -71h7l114 71l29 -34l-121 -109h-51z" />
    <glyph glyph-name="uni0162" unicode="&#x162;" horiz-adv-x="474" 
d="M195 0l2 624l-195 -3v74h470v-74l-195 3l2 -624h-84zM186 -179c-18 0 -34.668 1.5 -50.001 4.5l-23 4.5v62l12 -1c8 -0.666992 17 -1.5 27 -2.5s18.333 -1.5 25 -1.5c20 0 34 1.83301 42 5.5s12 12.167 12 25.5c0 17.333 -1.66699 34 -5 50s-6.33301 28.667 -9 38l59 4
c2.66699 -6 5.33398 -14 8.00098 -24s5.16699 -20.667 7.5 -32s3.5 -22.333 3.5 -33c0 -30.667 -10.333 -55 -31 -73s-46.667 -27 -78 -27z" />
    <glyph glyph-name="uni0163" unicode="&#x163;" horiz-adv-x="364" 
d="M253 -14c-28.667 0 -53.667 4.83301 -75 14.5s-37.833 28.334 -49.5 56.001s-17.5 68.834 -17.5 123.501v303h-66v52l69 14l22 136h58v-137h116v-67h-116v-307c0 -36.667 1 -63.334 3 -80.001s7.16699 -27.167 15.5 -31.5s22.5 -6.5 42.5 -6.5
c10.667 0 20 0.166992 28 0.5s14.333 0.666016 19 0.999023l7 0.5v-67l-15 -2.5c-10 -1.66699 -23.667 -2.5 -41 -2.5zM169 -179c-18 0 -34.668 1.5 -50.001 4.5l-23 4.5v62l12 -1c8 -0.666992 17 -1.5 27 -2.5s18.333 -1.5 25 -1.5c20 0 34 1.83301 42 5.5
s12 12.167 12 25.5c0 17.333 -1.66699 34 -5 50s-6.33301 28.667 -9 38l59 4c2.66699 -6 5.33398 -14 8.00098 -24s5.16699 -20.667 7.5 -32s3.5 -22.333 3.5 -33c0 -30.667 -10.333 -55 -31 -73s-46.667 -27 -78 -27z" />
    <glyph glyph-name="Tcaron" unicode="&#x164;" horiz-adv-x="474" 
d="M195 0l2 624l-195 -3v74h470v-74l-195 3l2 -624h-84zM211 746l-121 95l28 38l115 -61h7l115 61l28 -38l-121 -95h-51z" />
    <glyph glyph-name="tcaron" unicode="&#x165;" horiz-adv-x="382" 
d="M253 -14c-28.667 0 -53.667 4.83301 -75 14.5s-37.833 28.334 -49.5 56.001s-17.5 68.834 -17.5 123.501v303h-66v52l69 14l22 136h58v-137h116v-67h-116v-307c0 -36.667 1 -63.334 3 -80.001s7.16699 -27.167 15.5 -31.5s22.5 -6.5 42.5 -6.5
c10.667 0 20 0.166992 28 0.5s14.333 0.666016 19 0.999023l7 0.5v-67l-15 -2.5c-10 -1.66699 -23.667 -2.5 -41 -2.5zM343 554l-15 199h86l-18 -199h-53z" />
    <glyph glyph-name="Tbar" unicode="&#x166;" horiz-adv-x="474" 
d="M443 416v-66h-404v66h404zM195 0l2 624l-195 -3v74h470v-74l-195 3l2 -624h-84z" />
    <glyph glyph-name="tbar" unicode="&#x167;" horiz-adv-x="364" 
d="M45 317h265v-64l-156 3l-109 -2v63zM253 -14c-28.667 0 -53.667 4.83301 -75 14.5s-37.833 28.334 -49.5 56.001s-17.5 68.834 -17.5 123.501v303h-66v52l69 14l22 136h58v-137h116v-67h-116v-307c0 -36.667 1 -63.334 3 -80.001s7.16699 -27.167 15.5 -31.5
s22.5 -6.5 42.5 -6.5c10.667 0 20 0.166992 28 0.5s14.333 0.666016 19 0.999023l7 0.5v-67l-15 -2.5c-10 -1.66699 -23.667 -2.5 -41 -2.5z" />
    <glyph glyph-name="Utilde" unicode="&#x168;" horiz-adv-x="661" 
d="M330 -14c-48 0 -88.832 9.16602 -122.499 27.499s-59.167 50.5 -76.5 96.5s-26 110 -26 192v393h84v-366c0 -60 2 -107.667 6 -143s11 -62 21 -80s24.167 -29.833 42.5 -35.5s42.166 -8.5 71.499 -8.5s53.333 3 72 9s33 17.833 43 35.5s17 44.334 21 80.001
s6 83.167 6 142.5v366h84v-384c0 -85.333 -8.83301 -151.5 -26.5 -198.5s-43.167 -79.833 -76.5 -98.5s-74.333 -28 -123 -28zM432.001 745.999c-10.667 0 -25.835 2.49902 -45.502 7.49902s-40.167 10.667 -61.5 17l-56.5 16.5c-16.333 4.66699 -26.833 7 -31.5 7
c-4 0 -8.16699 -3.66699 -12.5 -11s-7.83301 -14.666 -10.5 -21.999l-4 -11l-52 6c0 38 6.5 64.333 19.5 79s30.833 22 53.5 22c11.333 0 26.666 -2.33301 45.999 -7s39.5 -10 60.5 -16l56 -16c16.333 -4.66699 26.833 -7 31.5 -7s8.83398 3.66699 12.501 11
s6.83398 14.5 9.50098 21.5l4 10.5l53 -7c0 -37.333 -6.16699 -63.5 -18.5 -78.5s-30.166 -22.5 -53.499 -22.5z" />
    <glyph glyph-name="utilde" unicode="&#x169;" horiz-adv-x="600" 
d="M234 -13c-26.667 0 -51.166 6.49805 -73.499 19.498s-40 34.5 -53 64.5s-19.5 71.333 -19.5 124v387h83v-356c0 -36.667 1 -66.667 3 -90s5.66699 -39.666 11 -48.999c4.66699 -7.33301 12.167 -12.666 22.5 -15.999s22.166 -5 35.499 -5c30 0 59.833 5.83301 89.5 17.5
s57.5 23.5 83.5 35.5v463h83v-582h-56l-10 56h-6l-45 -24.5c-20 -11 -42.667 -21.167 -68 -30.5s-52 -14 -80 -14zM381.001 674.998c-10.667 0 -23.834 2.50098 -39.501 7.50098s-31.5 10.833 -47.5 17.5l-42.5 17.5c-12.333 5 -20.833 7.5 -25.5 7.5
c-4 0 -8.16699 -3.83301 -12.5 -11.5s-7.83301 -15.334 -10.5 -23.001l-4 -11.5l-52 6c0 38 6.5 64.333 19.5 79s30.833 22 53.5 22c11.333 0 24.5 -2.33301 39.5 -7s30.167 -10.167 45.5 -16.5l41.5 -17c12.333 -5 20.833 -7.5 25.5 -7.5s9 3.66699 13 11
s7.5 14.833 10.5 22.5l4.5 11.5l53 -7c0 -37.333 -6.16699 -63.5 -18.5 -78.5s-30.166 -22.5 -53.499 -22.5z" />
    <glyph glyph-name="Umacron" unicode="&#x16a;" horiz-adv-x="661" 
d="M330 -14c-48 0 -88.832 9.16602 -122.499 27.499s-59.167 50.5 -76.5 96.5s-26 110 -26 192v393h84v-366c0 -60 2 -107.667 6 -143s11 -62 21 -80s24.167 -29.833 42.5 -35.5s42.166 -8.5 71.499 -8.5s53.333 3 72 9s33 17.833 43 35.5s17 44.334 21 80.001
s6 83.167 6 142.5v366h84v-384c0 -85.333 -8.83301 -151.5 -26.5 -198.5s-43.167 -79.833 -76.5 -98.5s-74.333 -28 -123 -28zM171.001 766.999v65h320v-65h-320z" />
    <glyph glyph-name="umacron" unicode="&#x16b;" horiz-adv-x="600" 
d="M234 -13c-26.667 0 -51.166 6.49805 -73.499 19.498s-40 34.5 -53 64.5s-19.5 71.333 -19.5 124v387h83v-356c0 -36.667 1 -66.667 3 -90s5.66699 -39.666 11 -48.999c4.66699 -7.33301 12.167 -12.666 22.5 -15.999s22.166 -5 35.499 -5c30 0 59.833 5.83301 89.5 17.5
s57.5 23.5 83.5 35.5v463h83v-582h-56l-10 56h-6l-45 -24.5c-20 -11 -42.667 -21.167 -68 -30.5s-52 -14 -80 -14zM140.001 689.998v65h320v-65h-320z" />
    <glyph glyph-name="Uring" unicode="&#x16e;" horiz-adv-x="661" 
d="M330 -14c-48 0 -88.832 9.16602 -122.499 27.499s-59.167 50.5 -76.5 96.5s-26 110 -26 192v393h84v-366c0 -60 2 -107.667 6 -143s11 -62 21 -80s24.167 -29.833 42.5 -35.5s42.166 -8.5 71.499 -8.5s53.333 3 72 9s33 17.833 43 35.5s17 44.334 21 80.001
s6 83.167 6 142.5v366h84v-384c0 -85.333 -8.83301 -151.5 -26.5 -198.5s-43.167 -79.833 -76.5 -98.5s-74.333 -28 -123 -28zM331.001 721.999c-14 0 -27.333 2.5 -40 7.5s-23.167 13.5 -31.5 25.5s-12.5 28.333 -12.5 49c0 21.333 4.16699 38 12.5 50
s18.833 20.5 31.5 25.5s26 7.5 40 7.5s27.333 -2.5 40 -7.5s23.167 -13.5 31.5 -25.5s12.5 -28.667 12.5 -50c0 -20.667 -4.16699 -37 -12.5 -49s-18.833 -20.5 -31.5 -25.5s-26 -7.5 -40 -7.5zM331.001 767.999c12 0 20.667 2.33301 26 7s8 14.334 8 29.001
c0 15.333 -2.66699 25.333 -8 30s-14 7 -26 7s-21 -2.33301 -27 -7s-9 -14.667 -9 -30c0 -14.667 3 -24.334 9 -29.001s15 -7 27 -7z" />
    <glyph glyph-name="uring" unicode="&#x16f;" horiz-adv-x="600" 
d="M234 -13c-26.667 0 -51.166 6.49805 -73.499 19.498s-40 34.5 -53 64.5s-19.5 71.333 -19.5 124v387h83v-356c0 -36.667 1 -66.667 3 -90s5.66699 -39.666 11 -48.999c4.66699 -7.33301 12.167 -12.666 22.5 -15.999s22.166 -5 35.499 -5c30 0 59.833 5.83301 89.5 17.5
s57.5 23.5 83.5 35.5v463h83v-582h-56l-10 56h-6l-45 -24.5c-20 -11 -42.667 -21.167 -68 -30.5s-52 -14 -80 -14zM300.001 646.998c-14 0 -27.333 2.5 -40 7.5s-23.167 13.5 -31.5 25.5s-12.5 28.667 -12.5 50c0 22 4.16699 39 12.5 51s18.833 20.5 31.5 25.5
s26 7.5 40 7.5s27.333 -2.5 40 -7.5s23.167 -13.5 31.5 -25.5s12.5 -29 12.5 -51c0 -21.333 -4.16699 -38 -12.5 -50s-18.833 -20.5 -31.5 -25.5s-26 -7.5 -40 -7.5zM300.001 692.998c12 0 20.667 2.33301 26 7s8 14.667 8 30c0 16 -2.66699 26.333 -8 31s-14 7 -26 7
s-21 -2.33301 -27 -7s-9 -15 -9 -31c0 -15.333 3 -25.333 9 -30s15 -7 27 -7z" />
    <glyph glyph-name="Uhungarumlaut" unicode="&#x170;" horiz-adv-x="661" 
d="M330 -14c-48 0 -88.832 9.16602 -122.499 27.499s-59.167 50.5 -76.5 96.5s-26 110 -26 192v393h84v-366c0 -60 2 -107.667 6 -143s11 -62 21 -80s24.167 -29.833 42.5 -35.5s42.166 -8.5 71.499 -8.5s53.333 3 72 9s33 17.833 43 35.5s17 44.334 21 80.001
s6 83.167 6 142.5v366h84v-384c0 -85.333 -8.83301 -151.5 -26.5 -198.5s-43.167 -79.833 -76.5 -98.5s-74.333 -28 -123 -28zM181.001 739.999l-26 47l181 100l40 -58zM390.001 739.999l-25 46l175 90l39 -63z" />
    <glyph glyph-name="uhungarumlaut" unicode="&#x171;" horiz-adv-x="600" 
d="M234 -13c-26.667 0 -51.166 6.49805 -73.499 19.498s-40 34.5 -53 64.5s-19.5 71.333 -19.5 124v387h83v-356c0 -36.667 1 -66.667 3 -90s5.66699 -39.666 11 -48.999c4.66699 -7.33301 12.167 -12.666 22.5 -15.999s22.166 -5 35.499 -5c30 0 59.833 5.83301 89.5 17.5
s57.5 23.5 83.5 35.5v463h83v-582h-56l-10 56h-6l-45 -24.5c-20 -11 -42.667 -21.167 -68 -30.5s-52 -14 -80 -14zM160.001 648.998l-33 40l153 131l45 -59zM347.001 648.998l-32 40l160 131l45 -59z" />
    <glyph glyph-name="Uogonek" unicode="&#x172;" horiz-adv-x="661" 
d="M330 -14c-48 0 -88.832 9.16602 -122.499 27.499s-59.167 50.5 -76.5 96.5s-26 110 -26 192v393h84v-366c0 -60 2 -107.667 6 -143s11 -62 21 -80s24.167 -29.833 42.5 -35.5s42.166 -8.5 71.499 -8.5s53.333 3 72 9s33 17.833 43 35.5s17 44.334 21 80.001
s6 83.167 6 142.5v366h84v-384c0 -85.333 -8.83301 -151.5 -26.5 -198.5s-43.167 -79.833 -76.5 -98.5s-74.333 -28 -123 -28zM361.001 -179.001c-28.667 0 -52.832 5.83398 -72.499 17.501s-29.5 31.167 -29.5 58.5c0 18.667 6.5 36.167 19.5 52.5s29 30.666 48 42.999
s36.833 21.833 53.5 28.5l42 -21c-26.667 -10.667 -49.334 -24.5 -68.001 -41.5s-28 -31.833 -28 -44.5c0 -12 4.16699 -20 12.5 -24s19.5 -6 33.5 -6c10.667 0 21.667 0.666992 33 2l17 2v-59l-17.5 -4c-11.667 -2.66699 -26.167 -4 -43.5 -4z" />
    <glyph glyph-name="uogonek" unicode="&#x173;" horiz-adv-x="600" 
d="M234 -13c-26.667 0 -51.166 6.49805 -73.499 19.498s-40 34.5 -53 64.5s-19.5 71.333 -19.5 124v387h83v-356c0 -36.667 1 -66.667 3 -90s5.66699 -39.666 11 -48.999c4.66699 -7.33301 12.167 -12.666 22.5 -15.999s22.166 -5 35.499 -5c30 0 59.833 5.83301 89.5 17.5
s57.5 23.5 83.5 35.5v463h83v-582h-56l-10 56h-6l-45 -24.5c-20 -11 -42.667 -21.167 -68 -30.5s-52 -14 -80 -14zM438.001 -179.002c-28.667 0 -52.832 5.83398 -72.499 17.501s-29.5 31.167 -29.5 58.5c0 18.667 6.5 36.167 19.5 52.5s29 30.666 48 42.999
s36.833 21.833 53.5 28.5l42 -21c-26.667 -10.667 -49.334 -24.5 -68.001 -41.5s-28 -31.833 -28 -44.5c0 -12 4.16699 -20 12.5 -24s19.5 -6 33.5 -6c10.667 0 21.667 0.666992 33 2l17 2v-59l-17.5 -4c-11.667 -2.66699 -26.167 -4 -43.5 -4z" />
    <glyph glyph-name="Wcircumflex" unicode="&#x174;" horiz-adv-x="748" 
d="M139 0l-126 695h86l97 -621h7l111 458h120l111 -458h7l97 621h86l-125 -695h-122l-111 458h-6l-112 -458h-120zM255 733l-28 38l121 95h51l121 -95l-28 -38l-115 61h-7z" />
    <glyph glyph-name="wcircumflex" unicode="&#x175;" horiz-adv-x="727" 
d="M139 0l-115 582h85l88 -517h5l101 440h122l101 -440h5l88 517h85l-115 -582h-122l-100 440h-6l-100 -440h-122zM246 659l-29 34l121 109h51l121 -109l-29 -34l-114 71h-7z" />
    <glyph glyph-name="Ycircumflex" unicode="&#x176;" horiz-adv-x="505" 
d="M210 0l3 259l-197 436h91l143 -348h6l142 348h91l-197 -436l3 -259h-85zM134 733l-28 38l121 95h51l121 -95l-28 -38l-115 61h-7z" />
    <glyph glyph-name="ycircumflex" unicode="&#x177;" horiz-adv-x="479" 
d="M119 -166l78 227l-186 521h89l134 -425h4l134 425h89l-196 -545l-58 -203h-88zM122 659l-29 34l121 109h51l121 -109l-29 -34l-114 71h-7z" />
    <glyph glyph-name="Ydieresis" unicode="&#x178;" horiz-adv-x="505" 
d="M210 0l3 259l-197 436h91l143 -348h6l142 348h91l-197 -436l3 -259h-85zM110 762v82h99v-82h-99zM297 762v82h98v-82h-98z" />
    <glyph glyph-name="Zacute" unicode="&#x179;" horiz-adv-x="529" 
d="M27 0v72l351 545v7l-331 -3v74h428v-72l-348 -543v-9l362 3v-74h-462zM167 733l-18 51l225 82l28 -73z" />
    <glyph glyph-name="zacute" unicode="&#x17a;" horiz-adv-x="471" 
d="M34 0v67l299 445v5l-286 -4v69h382v-67l-298 -443v-7l304 4v-69h-401zM159 654l-20 50l184 84l30 -67z" />
    <glyph glyph-name="Zdotaccent" unicode="&#x17b;" horiz-adv-x="529" 
d="M27 0v72l351 545v7l-331 -3v74h428v-72l-348 -543v-9l362 3v-74h-462zM214 763v82h104v-82h-104z" />
    <glyph glyph-name="zdotaccent" unicode="&#x17c;" horiz-adv-x="471" 
d="M34 0v67l299 445v5l-286 -4v69h382v-67l-298 -443v-7l304 4v-69h-401zM191 681v85h102v-85h-102z" />
    <glyph glyph-name="Zcaron" unicode="&#x17d;" horiz-adv-x="529" 
d="M27 0v72l351 545v7l-331 -3v74h428v-72l-348 -543v-9l362 3v-74h-462zM240 746l-121 95l28 38l115 -61h7l115 61l28 -38l-121 -95h-51z" />
    <glyph glyph-name="zcaron" unicode="&#x17e;" horiz-adv-x="471" 
d="M34 0v67l299 445v5l-286 -4v69h382v-67l-298 -443v-7l304 4v-69h-401zM216 663l-121 109l29 34l114 -71h7l114 71l29 -34l-121 -109h-51z" />
    <glyph glyph-name="Ohorn" unicode="&#x1a0;" horiz-adv-x="656" 
d="M328 -14c-34.667 0 -67.5 5.33301 -98.5 16s-58.333 29.167 -82 55.5s-42.167 63.166 -55.5 110.499s-20 107.666 -20 180.999s6.66699 133.333 20 180s31.833 83.167 55.5 109.5s51 44.666 82 54.999s63.833 15.5 98.5 15.5c35.333 0 68.333 -5.16699 99 -15.5
s57.834 -28.666 81.501 -54.999s42.167 -62.833 55.5 -109.5s20 -106.667 20 -180s-6.66699 -133.666 -20 -180.999s-31.833 -84.166 -55.5 -110.499s-50.834 -44.833 -81.501 -55.5s-63.667 -16 -99 -16zM328 62c28.667 0 53.4961 3.16699 74.4961 9.5
s38.333 19.166 52 38.499s23.834 47.833 30.501 85.5s10 87.834 10 150.501s-3.16699 113 -9.5 151s-16.166 66.833 -29.499 86.5s-30.666 32.834 -51.999 39.501s-46.666 10 -75.999 10c-30 0 -55.5 -3.33301 -76.5 -10s-38.167 -19.834 -51.5 -39.501
s-23.166 -48.5 -29.499 -86.5s-9.5 -88.333 -9.5 -151s3.33301 -112.834 10 -150.501s16.667 -66.167 30 -85.5s30.666 -32.166 51.999 -38.499s46.333 -9.5 75 -9.5zM416.996 696l86.002 0.000976562c10 0 18.667 2.33301 26 7s11 12.667 11 24c0 7.33301 -1 17.333 -3 30
s-4.33301 26 -7 40s-5.33398 26.333 -8.00098 37h73c3.33301 -12.667 6.66602 -27.334 9.99902 -44.001s5 -33 5 -49c0 -22 -5.16699 -40.667 -15.5 -56s-24.333 -27 -42 -35s-37.5 -12 -59.5 -12h-63z" />
    <glyph glyph-name="ohorn" unicode="&#x1a1;" horiz-adv-x="576" 
d="M288 -13c-55.333 0 -98.833 12.333 -130.5 37s-54.167 59.667 -67.5 105s-20 99.333 -20 162s6.66699 116.667 20 162s35.833 80.333 67.5 105s75.167 37 130.5 37s98.833 -12.333 130.5 -37s54.167 -59.667 67.5 -105s20 -99.333 20 -162s-6.66699 -116.667 -20 -162
s-35.833 -80.333 -67.5 -105s-75.167 -37 -130.5 -37zM288 59c25.333 0 46.5 3 63.5 9s30.667 17 41 33s17.666 39.333 21.999 70s6.5 70.667 6.5 120s-2.16699 89.333 -6.5 120s-11.666 54.167 -21.999 70.5s-24 27.333 -41 33s-38.167 8.5 -63.5 8.5
s-46.5 -2.83301 -63.5 -8.5s-30.667 -16.667 -41 -33s-17.833 -39.833 -22.5 -70.5s-7 -70.667 -7 -120s2.33301 -89.333 7 -120s12.167 -54 22.5 -70s24 -27 41 -33s38.167 -9 63.5 -9zM338 588l86.002 0.000976562c10 0 18.667 2.33301 26 7s11 12.667 11 24
c0 7.33301 -1 17.333 -3 30s-4.33301 26 -7 40s-5.33398 26.333 -8.00098 37h73c3.33301 -12.667 6.66602 -27.334 9.99902 -44.001s5 -33 5 -49c0 -22 -5.16699 -40.667 -15.5 -56s-24.333 -27 -42 -35s-37.5 -12 -59.5 -12h-63z" />
    <glyph glyph-name="Uhorn" unicode="&#x1af;" horiz-adv-x="661" 
d="M330 -14c-48 0 -88.832 9.16602 -122.499 27.499s-59.167 50.5 -76.5 96.5s-26 110 -26 192v393h84v-366c0 -60 2 -107.667 6 -143s11 -62 21 -80s24.167 -29.833 42.5 -35.5s42.166 -8.5 71.499 -8.5s53.333 3 72 9s33 17.833 43 35.5s17 44.334 21 80.001
s6 83.167 6 142.5v366h84v-384c0 -85.333 -8.83301 -151.5 -26.5 -198.5s-43.167 -79.833 -76.5 -98.5s-74.333 -28 -123 -28zM482.001 694.999l86.002 0.000976562c10 0 18.667 2.33301 26 7s11 12.667 11 24c0 7.33301 -1 17.333 -3 30s-4.33301 26 -7 40
s-5.33398 26.333 -8.00098 37h73c3.33301 -12.667 6.66602 -27.334 9.99902 -44.001s5 -33 5 -49c0 -22 -5.16699 -40.667 -15.5 -56s-24.333 -27 -42 -35s-37.5 -12 -59.5 -12h-63z" />
    <glyph glyph-name="uhorn" unicode="&#x1b0;" horiz-adv-x="600" 
d="M234 -13c-26.667 0 -51.166 6.49805 -73.499 19.498s-40 34.5 -53 64.5s-19.5 71.333 -19.5 124v387h83v-356c0 -36.667 1 -66.667 3 -90s5.66699 -39.666 11 -48.999c4.66699 -7.33301 12.167 -12.666 22.5 -15.999s22.166 -5 35.499 -5c30 0 59.833 5.83301 89.5 17.5
s57.5 23.5 83.5 35.5v463h83v-582h-56l-10 56h-6l-45 -24.5c-20 -11 -42.667 -21.167 -68 -30.5s-52 -14 -80 -14zM427.001 581.998l86.002 0.000976562c10 0 18.667 2.33301 26 7s11 12.667 11 24c0 7.33301 -1 17.333 -3 30s-4.33301 26 -7 40
s-5.33398 26.333 -8.00098 37h73c3.33301 -12.667 6.66602 -27.334 9.99902 -44.001s5 -33 5 -49c0 -22 -5.16699 -40.667 -15.5 -56s-24.333 -27 -42 -35s-37.5 -12 -59.5 -12h-63z" />
    <glyph glyph-name="uni01CD" unicode="&#x1cd;" horiz-adv-x="506" 
d="M5 0l189 695h118l189 -695h-86l-53 208l42 -24h-300l40 24l-53 -208h-86zM146 219l-28 39h270l-28 -39l-113 439l47 -37h-82l47 37zM227 746l-121 95l28 38l115 -61h7l115 61l28 -38l-121 -95h-51z" />
    <glyph glyph-name="uni01CE" unicode="&#x1ce;" horiz-adv-x="569" 
d="M211 -13c-30.667 0 -57.832 7.16602 -81.499 21.499s-42.167 35.333 -55.5 63s-20 61.167 -20 100.5c0 47.333 9.5 84.5 28.5 111.5s45.833 46.167 80.5 57.5s75 17 121 17h106c0 33.333 -0.833008 62.5 -2.5 87.5s-7.16699 43.5 -16.5 55.5
c-6.66699 9.33301 -15.834 15.333 -27.501 18s-23.834 4 -36.501 4c-26 0 -51.5 -2.5 -76.5 -7.5s-47.667 -10.833 -68 -17.5s-36.5 -12.5 -48.5 -17.5l-18 -7.5l-29 65l19 8.5c12.667 5.66699 29.667 12.334 51 20.001s45.166 14.334 71.499 20.001s53.5 8.5 81.5 8.5
c45.333 0 81.333 -8.83301 108 -26.5s45.834 -42.334 57.501 -74.001s17.5 -68.834 17.5 -111.501v-383h-54l-12 61h-6l-28.5 -19.5c-12.333 -8.33301 -26.666 -16.666 -42.999 -24.999s-34.5 -15.333 -54.5 -21s-41.333 -8.5 -64 -8.5zM225.002 59.999
c24 0 46.834 3.5 68.501 10.5s41 14.833 58 23.5s29.833 15.667 38.5 21v166c-8.66699 1.33301 -21.667 2.83301 -39 4.5s-40 2.5 -68 2.5c-62 0 -100.333 -6.33301 -115 -19c-8.66699 -6.66699 -15.334 -18.5 -20.001 -35.5s-7 -37.5 -7 -61.5
c0 -39.333 6.5 -67.833 19.5 -85.5s34.5 -26.5 64.5 -26.5zM251.003 662.999l-121 109l29 34l114 -71h7l114 71l29 -34l-121 -109h-51z" />
    <glyph glyph-name="uni01CF" unicode="&#x1cf;" 
d="M105 -1l3 319l-3 377h85l-4 -307l4 -388zM122 746l-121 95l28 38l115 -61h7l115 61l28 -38l-121 -95h-51z" />
    <glyph glyph-name="uni01D0" unicode="&#x1d0;" 
d="M121 663l-111 109l29 34l104 -71h7l104 71l29 -34l-111 -109h-51zM106 0v582h83v-582h-83z" />
    <glyph glyph-name="uni01D1" unicode="&#x1d1;" horiz-adv-x="656" 
d="M328 -14c-34.667 0 -67.5 5.33301 -98.5 16s-58.333 29.167 -82 55.5s-42.167 63.166 -55.5 110.499s-20 107.666 -20 180.999s6.66699 133.333 20 180s31.833 83.167 55.5 109.5s51 44.666 82 54.999s63.833 15.5 98.5 15.5c35.333 0 68.333 -5.16699 99 -15.5
s57.834 -28.666 81.501 -54.999s42.167 -62.833 55.5 -109.5s20 -106.667 20 -180s-6.66699 -133.666 -20 -180.999s-31.833 -84.166 -55.5 -110.499s-50.834 -44.833 -81.501 -55.5s-63.667 -16 -99 -16zM328 62c28.667 0 53.4961 3.16699 74.4961 9.5
s38.333 19.166 52 38.499s23.834 47.833 30.501 85.5s10 87.834 10 150.501s-3.16699 113 -9.5 151s-16.166 66.833 -29.499 86.5s-30.666 32.834 -51.999 39.501s-46.666 10 -75.999 10c-30 0 -55.5 -3.33301 -76.5 -10s-38.167 -19.834 -51.5 -39.501
s-23.166 -48.5 -29.499 -86.5s-9.5 -88.333 -9.5 -151s3.33301 -112.834 10 -150.501s16.667 -66.167 30 -85.5s30.666 -32.166 51.999 -38.499s46.333 -9.5 75 -9.5zM301.996 746l-121 95l28 38l115 -61h7l115 61l28 -38l-121 -95h-51z" />
    <glyph glyph-name="uni01D2" unicode="&#x1d2;" horiz-adv-x="576" 
d="M288 -13c-55.333 0 -98.833 12.333 -130.5 37s-54.167 59.667 -67.5 105s-20 99.333 -20 162s6.66699 116.667 20 162s35.833 80.333 67.5 105s75.167 37 130.5 37s98.833 -12.333 130.5 -37s54.167 -59.667 67.5 -105s20 -99.333 20 -162s-6.66699 -116.667 -20 -162
s-35.833 -80.333 -67.5 -105s-75.167 -37 -130.5 -37zM288 59c25.333 0 46.5 3 63.5 9s30.667 17 41 33s17.666 39.333 21.999 70s6.5 70.667 6.5 120s-2.16699 89.333 -6.5 120s-11.666 54.167 -21.999 70.5s-24 27.333 -41 33s-38.167 8.5 -63.5 8.5
s-46.5 -2.83301 -63.5 -8.5s-30.667 -16.667 -41 -33s-17.833 -39.833 -22.5 -70.5s-7 -70.667 -7 -120s2.33301 -89.333 7 -120s12.167 -54 22.5 -70s24 -27 41 -33s38.167 -9 63.5 -9zM262 663l-121 109l29 34l114 -71h7l114 71l29 -34l-121 -109h-51z" />
    <glyph glyph-name="uni01D3" unicode="&#x1d3;" horiz-adv-x="661" 
d="M330 -14c-48 0 -88.832 9.16602 -122.499 27.499s-59.167 50.5 -76.5 96.5s-26 110 -26 192v393h84v-366c0 -60 2 -107.667 6 -143s11 -62 21 -80s24.167 -29.833 42.5 -35.5s42.166 -8.5 71.499 -8.5s53.333 3 72 9s33 17.833 43 35.5s17 44.334 21 80.001
s6 83.167 6 142.5v366h84v-384c0 -85.333 -8.83301 -151.5 -26.5 -198.5s-43.167 -79.833 -76.5 -98.5s-74.333 -28 -123 -28zM305.001 745.999l-121 95l28 38l115 -61h7l115 61l28 -38l-121 -95h-51z" />
    <glyph glyph-name="uni01D4" unicode="&#x1d4;" horiz-adv-x="600" 
d="M234 -13c-26.667 0 -51.166 6.49805 -73.499 19.498s-40 34.5 -53 64.5s-19.5 71.333 -19.5 124v387h83v-356c0 -36.667 1 -66.667 3 -90s5.66699 -39.666 11 -48.999c4.66699 -7.33301 12.167 -12.666 22.5 -15.999s22.166 -5 35.499 -5c30 0 59.833 5.83301 89.5 17.5
s57.5 23.5 83.5 35.5v463h83v-582h-56l-10 56h-6l-45 -24.5c-20 -11 -42.667 -21.167 -68 -30.5s-52 -14 -80 -14zM274.001 662.998l-121 109l29 34l114 -71h7l114 71l29 -34l-121 -109h-51z" />
    <glyph glyph-name="uni01D5" unicode="&#x1d5;" horiz-adv-x="661" 
d="M330 -14c-48 0 -88.832 9.16602 -122.499 27.499s-59.167 50.5 -76.5 96.5s-26 110 -26 192v393h84v-366c0 -60 2 -107.667 6 -143s11 -62 21 -80s24.167 -29.833 42.5 -35.5s42.166 -8.5 71.499 -8.5s53.333 3 72 9s33 17.833 43 35.5s17 44.334 21 80.001
s6 83.167 6 142.5v366h84v-384c0 -85.333 -8.83301 -151.5 -26.5 -198.5s-43.167 -79.833 -76.5 -98.5s-74.333 -28 -123 -28zM188.001 761.999v82h99v-82h-99zM375.001 761.999v82h98v-82h-98zM171.001 917.999v65h320v-65h-320z" />
    <glyph glyph-name="uni01D6" unicode="&#x1d6;" horiz-adv-x="600" 
d="M234 -13c-26.667 0 -51.166 6.49805 -73.499 19.498s-40 34.5 -53 64.5s-19.5 71.333 -19.5 124v387h83v-356c0 -36.667 1 -66.667 3 -90s5.66699 -39.666 11 -48.999c4.66699 -7.33301 12.167 -12.666 22.5 -15.999s22.166 -5 35.499 -5c30 0 59.833 5.83301 89.5 17.5
s57.5 23.5 83.5 35.5v463h83v-582h-56l-10 56h-6l-45 -24.5c-20 -11 -42.667 -21.167 -68 -30.5s-52 -14 -80 -14zM157.001 683.998v82h99v-82h-99zM344.001 683.998v82h98v-82h-98zM140.001 867.998v65h320v-65h-320z" />
    <glyph glyph-name="uni01D7" unicode="&#x1d7;" horiz-adv-x="661" 
d="M330 -14c-48 0 -88.832 9.16602 -122.499 27.499s-59.167 50.5 -76.5 96.5s-26 110 -26 192v393h84v-366c0 -60 2 -107.667 6 -143s11 -62 21 -80s24.167 -29.833 42.5 -35.5s42.166 -8.5 71.499 -8.5s53.333 3 72 9s33 17.833 43 35.5s17 44.334 21 80.001
s6 83.167 6 142.5v366h84v-384c0 -85.333 -8.83301 -151.5 -26.5 -198.5s-43.167 -79.833 -76.5 -98.5s-74.333 -28 -123 -28zM188.001 761.999v82h99v-82h-99zM375.001 761.999v82h98v-82h-98zM232.001 883.999l-18 51l225 82l28 -73z" />
    <glyph glyph-name="uni01D8" unicode="&#x1d8;" horiz-adv-x="600" 
d="M234 -13c-26.667 0 -51.166 6.49805 -73.499 19.498s-40 34.5 -53 64.5s-19.5 71.333 -19.5 124v387h83v-356c0 -36.667 1 -66.667 3 -90s5.66699 -39.666 11 -48.999c4.66699 -7.33301 12.167 -12.666 22.5 -15.999s22.166 -5 35.499 -5c30 0 59.833 5.83301 89.5 17.5
s57.5 23.5 83.5 35.5v463h83v-582h-56l-10 56h-6l-45 -24.5c-20 -11 -42.667 -21.167 -68 -30.5s-52 -14 -80 -14zM157.001 683.998v82h99v-82h-99zM344.001 683.998v82h98v-82h-98zM215.001 831.998l-20 50l184 84l30 -67z" />
    <glyph glyph-name="uni01D9" unicode="&#x1d9;" horiz-adv-x="661" 
d="M330 -14c-48 0 -88.832 9.16602 -122.499 27.499s-59.167 50.5 -76.5 96.5s-26 110 -26 192v393h84v-366c0 -60 2 -107.667 6 -143s11 -62 21 -80s24.167 -29.833 42.5 -35.5s42.166 -8.5 71.499 -8.5s53.333 3 72 9s33 17.833 43 35.5s17 44.334 21 80.001
s6 83.167 6 142.5v366h84v-384c0 -85.333 -8.83301 -151.5 -26.5 -198.5s-43.167 -79.833 -76.5 -98.5s-74.333 -28 -123 -28zM188.001 761.999v82h99v-82h-99zM375.001 761.999v82h98v-82h-98zM305.001 896.999l-121 95l28 38l115 -61h7l115 61l28 -38l-121 -95h-51z" />
    <glyph glyph-name="uni01DA" unicode="&#x1da;" horiz-adv-x="600" 
d="M234 -13c-26.667 0 -51.166 6.49805 -73.499 19.498s-40 34.5 -53 64.5s-19.5 71.333 -19.5 124v387h83v-356c0 -36.667 1 -66.667 3 -90s5.66699 -39.666 11 -48.999c4.66699 -7.33301 12.167 -12.666 22.5 -15.999s22.166 -5 35.499 -5c30 0 59.833 5.83301 89.5 17.5
s57.5 23.5 83.5 35.5v463h83v-582h-56l-10 56h-6l-45 -24.5c-20 -11 -42.667 -21.167 -68 -30.5s-52 -14 -80 -14zM157.001 683.998v82h99v-82h-99zM344.001 683.998v82h98v-82h-98zM274.001 840.998l-121 109l29 34l114 -71h7l114 71l29 -34l-121 -109h-51z" />
    <glyph glyph-name="uni01DB" unicode="&#x1db;" horiz-adv-x="661" 
d="M330 -14c-48 0 -88.832 9.16602 -122.499 27.499s-59.167 50.5 -76.5 96.5s-26 110 -26 192v393h84v-366c0 -60 2 -107.667 6 -143s11 -62 21 -80s24.167 -29.833 42.5 -35.5s42.166 -8.5 71.499 -8.5s53.333 3 72 9s33 17.833 43 35.5s17 44.334 21 80.001
s6 83.167 6 142.5v366h84v-384c0 -85.333 -8.83301 -151.5 -26.5 -198.5s-43.167 -79.833 -76.5 -98.5s-74.333 -28 -123 -28zM188.001 761.999v82h99v-82h-99zM375.001 761.999v82h98v-82h-98zM440.001 883.999l-235 66l26 68l227 -83z" />
    <glyph glyph-name="uni01DC" unicode="&#x1dc;" horiz-adv-x="600" 
d="M234 -13c-26.667 0 -51.166 6.49805 -73.499 19.498s-40 34.5 -53 64.5s-19.5 71.333 -19.5 124v387h83v-356c0 -36.667 1 -66.667 3 -90s5.66699 -39.666 11 -48.999c4.66699 -7.33301 12.167 -12.666 22.5 -15.999s22.166 -5 35.499 -5c30 0 59.833 5.83301 89.5 17.5
s57.5 23.5 83.5 35.5v463h83v-582h-56l-10 56h-6l-45 -24.5c-20 -11 -42.667 -21.167 -68 -30.5s-52 -14 -80 -14zM157.001 683.998v82h99v-82h-99zM344.001 683.998v82h98v-82h-98zM368.001 831.998l-194 67l30 67l184 -84z" />
    <glyph glyph-name="uni01DE" unicode="&#x1de;" horiz-adv-x="506" 
d="M5 0l189 695h118l189 -695h-86l-53 208l42 -24h-300l40 24l-53 -208h-86zM146 219l-28 39h270l-28 -39l-113 439l47 -37h-82l47 37zM110 762v82h99v-82h-99zM297 762v82h98v-82h-98zM93 918v65h320v-65h-320z" />
    <glyph glyph-name="uni01DF" unicode="&#x1df;" horiz-adv-x="569" 
d="M211 -13c-30.667 0 -57.832 7.16602 -81.499 21.499s-42.167 35.333 -55.5 63s-20 61.167 -20 100.5c0 47.333 9.5 84.5 28.5 111.5s45.833 46.167 80.5 57.5s75 17 121 17h106c0 33.333 -0.833008 62.5 -2.5 87.5s-7.16699 43.5 -16.5 55.5
c-6.66699 9.33301 -15.834 15.333 -27.501 18s-23.834 4 -36.501 4c-26 0 -51.5 -2.5 -76.5 -7.5s-47.667 -10.833 -68 -17.5s-36.5 -12.5 -48.5 -17.5l-18 -7.5l-29 65l19 8.5c12.667 5.66699 29.667 12.334 51 20.001s45.166 14.334 71.499 20.001s53.5 8.5 81.5 8.5
c45.333 0 81.333 -8.83301 108 -26.5s45.834 -42.334 57.501 -74.001s17.5 -68.834 17.5 -111.501v-383h-54l-12 61h-6l-28.5 -19.5c-12.333 -8.33301 -26.666 -16.666 -42.999 -24.999s-34.5 -15.333 -54.5 -21s-41.333 -8.5 -64 -8.5zM225.002 59.999
c24 0 46.834 3.5 68.501 10.5s41 14.833 58 23.5s29.833 15.667 38.5 21v166c-8.66699 1.33301 -21.667 2.83301 -39 4.5s-40 2.5 -68 2.5c-62 0 -100.333 -6.33301 -115 -19c-8.66699 -6.66699 -15.334 -18.5 -20.001 -35.5s-7 -37.5 -7 -61.5
c0 -39.333 6.5 -67.833 19.5 -85.5s34.5 -26.5 64.5 -26.5zM134.003 683.999v82h99v-82h-99zM321.003 683.999v82h98v-82h-98zM117.003 867.999v65h320v-65h-320z" />
    <glyph glyph-name="Gcaron" unicode="&#x1e6;" horiz-adv-x="612" 
d="M331 -13c-34.667 0 -67.6689 4.83398 -99.002 14.501s-59 27.5 -83 53.5s-42.833 62.833 -56.5 110.5s-20.5 109.167 -20.5 184.5c0 74 6.5 134.5 19.5 181.5s31.5 83.333 55.5 109s52.667 43.334 86 53.001s70.333 14.5 111 14.5c21.333 0 43 -0.833008 65 -2.5
s42.5 -3.83398 61.5 -6.50098s33.833 -5.33398 44.5 -8.00098l-10 -72c-12.667 1.33301 -32.834 3.83301 -60.501 7.5s-63.167 5.5 -106.5 5.5c-33.333 0 -60.166 -1.83301 -80.499 -5.5s-35.5 -10.834 -45.5 -21.501c-12.667 -12.667 -24.167 -39 -34.5 -79
s-15.5 -98 -15.5 -174c0 -58 3.16699 -105 9.5 -141s13.5 -63.167 21.5 -81.5s15 -30.833 21 -37.5c8 -8.66699 21.167 -16.167 39.5 -22.5s45.5 -9.5 81.5 -9.5c23.333 0 43.833 1.33301 61.5 4s31.834 6.33398 42.501 11.001v258l38 -40l-144 7v62h186v-336l-23.5 -9.5
c-15.667 -6.33301 -37.667 -12.833 -66 -19.5s-61.166 -10 -98.499 -10zM306.998 746.001l-121 95l28 38l115 -61h7l115 61l28 -38l-121 -95h-51z" />
    <glyph glyph-name="gcaron" unicode="&#x1e7;" horiz-adv-x="521" 
d="M253 -179c-26.667 0 -51.667 1.32812 -75 3.99512s-43.666 5.83398 -60.999 9.50098s-31 6.83398 -41 9.50098l-15 4l10 75c37.333 -6.66699 75.666 -12.5 114.999 -17.5s77.333 -7.5 114 -7.5c37.333 0 62.333 3 75 9s19 15.333 19 28c0 7.33301 -1.66699 14 -5 20
s-9.33301 12.167 -18 18.5s-21.334 13.5 -38.001 21.5s-38.667 17.667 -66 29l-82.5 34.5c-17 7 -27.667 11.667 -32 14s-6.5 4.5 -6.5 6.5c0 0.666992 1.66699 5.16699 5 13.5s7.66602 18.5 12.999 30.5l16 37.5l14 33.5c-44 8.66699 -79.5 30 -106.5 64
s-40.5 75.333 -40.5 124c0 54.667 10.667 97.334 32 128.001s49.5 52.5 84.5 65.5s72.833 19.5 113.5 19.5c13.333 0 29.166 -0.333008 47.499 -1s37 -1.66699 56 -3s36.667 -2.66602 53 -3.99902s29.5 -2.33301 39.5 -3l15 -1v-53l-66 -10
c0 0.666992 2.83301 -6.16602 8.5 -20.499s11.334 -32 17.001 -53s8.5 -41.5 8.5 -61.5c0 -38 -8.33301 -71.833 -25 -101.5s-40.667 -53 -72 -70s-69 -25.5 -113 -25.5l-7 -37.5c-2.66699 -14.333 -4 -22.833 -4 -25.5c0 -1.33301 2.16699 -3.16602 6.5 -5.49902
s13 -6 26 -11s32.167 -13.167 57.5 -24.5c38.667 -16 68.334 -31.667 89.001 -47s35 -30.333 43 -45s12 -29.334 12 -44.001c0 -26.667 -9.16699 -49.5 -27.5 -68.5s-43.666 -33.5 -75.999 -43.5s-69.833 -15 -112.5 -15zM251 259.995c30 0 54.168 3.66797 72.501 11.001
s31.666 20.166 39.999 38.499s12.5 44.166 12.5 77.499c0 38 -2.33301 68.5 -7 91.5s-9 35.5 -13 37.5c-1.33301 1.33301 -7 2.5 -17 3.5s-21 1.66699 -33 2s-22.5 0.666016 -31.5 0.999023l-13.5 0.5c-31.333 0 -56.833 -3.66699 -76.5 -11s-34 -20.666 -43 -39.999
s-13.5 -47.666 -13.5 -84.999c0 -49.333 9.5 -82.833 28.5 -100.5s50.5 -26.5 94.5 -26.5zM242.001 662.996l-121 109l29 34l114 -71h7l114 71l29 -34l-121 -109h-51z" />
    <glyph glyph-name="uni0218" unicode="&#x218;" horiz-adv-x="511" 
d="M246 -14c-27.333 0 -53.6611 3.16699 -78.9941 9.5s-47.833 13.833 -67.5 22.5s-35.167 16.167 -46.5 22.5l-17 9.5l4.5 10.5l10.5 24l10.5 23.5l4.5 10l16.5 -8.5c11 -5.66699 25.833 -12 44.5 -19s40 -13.333 64 -19s49 -8.5 75 -8.5c16.667 0 29.834 1.5 39.501 4.5
s16.5 5.83301 20.5 8.5c13.333 9.33301 23.666 22.166 30.999 38.499s11 37.5 11 63.5c0 25.333 -5.33301 46.333 -16 63s-24.834 30.667 -42.501 42s-36.834 21.333 -57.501 30c-26.667 11.333 -51.667 22.666 -75 33.999s-44 24.333 -62 39s-32 33.167 -42 55.5
s-15 50.166 -15 83.499c0 34.667 7.66699 65.834 23 93.501s38.333 49.667 69 66s68.667 24.5 114 24.5c22 0 42.667 -1.16699 62 -3.5s36.666 -4.83301 51.999 -7.5s27.333 -5.16699 36 -7.5l13 -3.5l-14 -72l-14 2.5l-38 6.5c-16 2.66699 -34 4.83398 -54 6.50098
s-40.333 2.5 -61 2.5c-16.667 0 -29.834 -1 -39.501 -3s-18.167 -5.33301 -25.5 -10c-8.66699 -4.66699 -16.834 -14.167 -24.501 -28.5s-11.5 -33.833 -11.5 -58.5c0 -27.333 7 -49.666 21 -66.999s32.333 -31.5 55 -42.5s46.667 -21.833 72 -32.5
c20 -8 39.667 -17.167 59 -27.5s36.666 -22.833 51.999 -37.5s27.666 -33.167 36.999 -55.5s14 -49.5 14 -81.5c0 -40.667 -8.83301 -76.167 -26.5 -106.5s-42.167 -54 -73.5 -71s-67.666 -25.5 -108.999 -25.5zM193.005 -233l-22 40.998
c20 10.667 32.833 23.334 38.5 38.001s8.5 39.334 8.5 74.001v25h78l-1 -20c-2 -36.667 -8.16699 -65.5 -18.5 -86.5s-23 -36.667 -38 -47s-30.167 -18.5 -45.5 -24.5z" />
    <glyph glyph-name="uni0219" unicode="&#x219;" horiz-adv-x="492" 
d="M245 -13c-24.667 0 -48.335 2.5 -71.002 7.5s-43 10.667 -61 17s-32.167 11.833 -42.5 16.5l-15.5 7l21 71l15.5 -7c10.333 -4.66699 24.166 -10.167 41.499 -16.5s37 -11.833 59 -16.5s44.667 -7 68 -7c13.333 0 25.666 1.16699 36.999 3.5s20.333 6.5 27 12.5
c7.33301 6.66699 14 16.667 20 30s9 29.333 9 48c0 28 -6.66699 49.333 -20 64s-30.666 26 -51.999 34s-44 15.333 -68 22c-19.333 5.33301 -38.333 11.333 -57 18s-35.5 15.667 -50.5 27s-27 26.5 -36 45.5s-13.5 43.5 -13.5 73.5c0 47.333 14.5 85.5 43.5 114.5
s77.833 43.5 146.5 43.5c23.333 0 45.666 -1.5 66.999 -4.5s40.166 -6.33301 56.499 -10s28.5 -6.83398 36.5 -9.50098l-13 -70l-13.5 3.5c-9 2.33301 -21.167 4.83301 -36.5 7.5s-32.666 5.16699 -51.999 7.5s-39.666 3.5 -60.999 3.5c-20 0 -36 -1.16699 -48 -3.5
s-21 -5.83301 -27 -10.5s-11 -12.167 -15 -22.5s-6 -22.5 -6 -36.5c0 -28 7.83301 -49 23.5 -63s35.667 -24.667 60 -32l75.5 -23c18 -5.33301 35.333 -11.666 52 -18.999s31.834 -17 45.501 -29s24.334 -27.333 32.001 -46s11.5 -41.667 11.5 -69
c0 -54 -16.167 -97.833 -48.5 -131.5s-79.166 -50.5 -140.499 -50.5zM182.999 -233l-22 40.998c20 10.667 32.833 23.334 38.5 38.001s8.5 39.334 8.5 74.001v25h78l-1 -20c-2 -36.667 -8.16699 -65.5 -18.5 -86.5s-23 -36.667 -38 -47s-30.167 -18.5 -45.5 -24.5z" />
    <glyph glyph-name="uni021A" unicode="&#x21a;" horiz-adv-x="474" 
d="M195 0l2 624l-195 -3v74h470v-74l-195 3l2 -624h-84zM174 -233l-22 40.998c20 10.667 32.833 23.334 38.5 38.001s8.5 39.334 8.5 74.001v25h78l-1 -20c-2 -36.667 -8.16699 -65.5 -18.5 -86.5s-23 -36.667 -38 -47s-30.167 -18.5 -45.5 -24.5z" />
    <glyph glyph-name="uni021B" unicode="&#x21b;" horiz-adv-x="364" 
d="M253 -14c-28.667 0 -53.667 4.83301 -75 14.5s-37.833 28.334 -49.5 56.001s-17.5 68.834 -17.5 123.501v303h-66v52l69 14l22 136h58v-137h116v-67h-116v-307c0 -36.667 1 -63.334 3 -80.001s7.16699 -27.167 15.5 -31.5s22.5 -6.5 42.5 -6.5
c10.667 0 20 0.166992 28 0.5s14.333 0.666016 19 0.999023l7 0.5v-67l-15 -2.5c-10 -1.66699 -23.667 -2.5 -41 -2.5zM137 -233l-22 40.998c20 10.667 32.833 23.334 38.5 38.001s8.5 39.334 8.5 74.001v25h78l-1 -20c-2 -36.667 -8.16699 -65.5 -18.5 -86.5
s-23 -36.667 -38 -47s-30.167 -18.5 -45.5 -24.5z" />
    <glyph glyph-name="uni0237" unicode="&#x237;" horiz-adv-x="307" 
d="M43 -180c-8.66699 0 -17.666 0.500977 -26.999 1.50098l-23.5 2.5l-9.5 1l9 74l8.5 -1c5.66699 -0.666992 13.167 -1.33398 22.5 -2.00098s19.333 -1 30 -1c17.333 0 30.666 2.83301 39.999 8.5s15.833 19.5 19.5 41.5s5.5 57 5.5 105v532h83v-529
c0 -58.667 -7 -105 -21 -139s-33 -58.167 -57 -72.5s-50.667 -21.5 -80 -21.5z" />
    <glyph glyph-name="circumflex" unicode="&#x2c6;" horiz-adv-x="293" 
d="M29 659l-29 34l121 109h51l121 -109l-29 -34l-114 71h-7z" />
    <glyph glyph-name="caron" unicode="&#x2c7;" horiz-adv-x="293" 
d="M121 663l-121 109l29 34l114 -71h7l114 71l29 -34l-121 -109h-51z" />
    <glyph glyph-name="breve" unicode="&#x2d8;" horiz-adv-x="298" 
d="M149 657c-24.667 0 -48.1709 4.83301 -70.5039 14.5s-40.666 25 -54.999 46s-22.166 48.5 -23.499 82.5l57 6c2.66699 -30.667 12.334 -52 29.001 -64s37.667 -18 63 -18s46.333 6 63 18s26.334 33.333 29.001 64l57 -6c-1.33301 -34 -9.33301 -61.5 -24 -82.5
s-33 -36.333 -55 -46s-45.333 -14.5 -70 -14.5z" />
    <glyph glyph-name="dotaccent" unicode="&#x2d9;" horiz-adv-x="102" 
d="M0 681v85h102v-85h-102z" />
    <glyph glyph-name="ring" unicode="&#x2da;" horiz-adv-x="168" 
d="M84 647c-14 0 -27.333 2.5 -40 7.5s-23.167 13.5 -31.5 25.5s-12.5 28.667 -12.5 50c0 22 4.16699 39 12.5 51s18.833 20.5 31.5 25.5s26 7.5 40 7.5s27.333 -2.5 40 -7.5s23.167 -13.5 31.5 -25.5s12.5 -29 12.5 -51c0 -21.333 -4.16699 -38 -12.5 -50
s-18.833 -20.5 -31.5 -25.5s-26 -7.5 -40 -7.5zM84 693c12 0 20.667 2.33301 26 7s8 14.667 8 30c0 16 -2.66699 26.333 -8 31s-14 7 -26 7s-21 -2.33301 -27 -7s-9 -15 -9 -31c0 -15.333 3 -25.333 9 -30s15 -7 27 -7z" />
    <glyph glyph-name="ogonek" unicode="&#x2db;" horiz-adv-x="163" 
d="M102 -179c-28.667 0 -52.832 5.83398 -72.499 17.501s-29.5 31.167 -29.5 58.5c0 18.667 6.5 36.167 19.5 52.5s29 30.666 48 42.999s36.833 21.833 53.5 28.5l42 -21c-26.667 -10.667 -49.334 -24.5 -68.001 -41.5s-28 -31.833 -28 -44.5c0 -12 4.16699 -20 12.5 -24
s19.5 -6 33.5 -6c10.667 0 21.667 0.666992 33 2l17 2v-59l-17.5 -4c-11.667 -2.66699 -26.167 -4 -43.5 -4z" />
    <glyph glyph-name="tilde" unicode="&#x2dc;" horiz-adv-x="306" 
d="M234 675c-10.667 0 -23.834 2.50098 -39.501 7.50098s-31.5 10.833 -47.5 17.5l-42.5 17.5c-12.333 5 -20.833 7.5 -25.5 7.5c-4 0 -8.16699 -3.83301 -12.5 -11.5s-7.83301 -15.334 -10.5 -23.001l-4 -11.5l-52 6c0 38 6.5 64.333 19.5 79s30.833 22 53.5 22
c11.333 0 24.5 -2.33301 39.5 -7s30.167 -10.167 45.5 -16.5l41.5 -17c12.333 -5 20.833 -7.5 25.5 -7.5s9 3.66699 13 11s7.5 14.833 10.5 22.5l4.5 11.5l53 -7c0 -37.333 -6.16699 -63.5 -18.5 -78.5s-30.166 -22.5 -53.499 -22.5z" />
    <glyph glyph-name="hungarumlaut" unicode="&#x2dd;" horiz-adv-x="600" 
d="M33 649l-33 40l153 131l45 -59zM220 649l-32 40l160 131l45 -59z" />
    <glyph glyph-name="gravecomb" unicode="&#x300;" horiz-adv-x="0" 
d="M194 654l-194 67l30 67l184 -84z" />
    <glyph glyph-name="acutecomb" unicode="&#x301;" horiz-adv-x="0" 
d="M20 654l-20 50l184 84l30 -67z" />
    <glyph glyph-name="uni0302" unicode="&#x302;" horiz-adv-x="0" 
d="M29 659l-29 34l121 109h51l121 -109l-29 -34l-114 71h-7z" />
    <glyph glyph-name="tildecomb" unicode="&#x303;" horiz-adv-x="0" 
d="M234 675c-10.667 0 -23.834 2.50098 -39.501 7.50098s-31.5 10.833 -47.5 17.5l-42.5 17.5c-12.333 5 -20.833 7.5 -25.5 7.5c-4 0 -8.16699 -3.83301 -12.5 -11.5s-7.83301 -15.334 -10.5 -23.001l-4 -11.5l-52 6c0 38 6.5 64.333 19.5 79s30.833 22 53.5 22
c11.333 0 24.5 -2.33301 39.5 -7s30.167 -10.167 45.5 -16.5l41.5 -17c12.333 -5 20.833 -7.5 25.5 -7.5s9 3.66699 13 11s7.5 14.833 10.5 22.5l4.5 11.5l53 -7c0 -37.333 -6.16699 -63.5 -18.5 -78.5s-30.166 -22.5 -53.499 -22.5z" />
    <glyph glyph-name="uni0304" unicode="&#x304;" horiz-adv-x="0" 
d="M0 690v65h320v-65h-320z" />
    <glyph glyph-name="uni0306" unicode="&#x306;" horiz-adv-x="0" 
d="M149 657c-24.667 0 -48.1709 4.83301 -70.5039 14.5s-40.666 25 -54.999 46s-22.166 48.5 -23.499 82.5l57 6c2.66699 -30.667 12.334 -52 29.001 -64s37.667 -18 63 -18s46.333 6 63 18s26.334 33.333 29.001 64l57 -6c-1.33301 -34 -9.33301 -61.5 -24 -82.5
s-33 -36.333 -55 -46s-45.333 -14.5 -70 -14.5z" />
    <glyph glyph-name="uni0307" unicode="&#x307;" horiz-adv-x="0" 
d="M0 681v85h102v-85h-102z" />
    <glyph glyph-name="uni0308" unicode="&#x308;" horiz-adv-x="0" 
d="M0 684v82h99v-82h-99zM187 684v82h98v-82h-98z" />
    <glyph glyph-name="hookabovecomb" unicode="&#x309;" horiz-adv-x="0" 
d="M0 799l0.000976562 54.001c1.33301 1.33301 8 2.33301 20 3s22.333 1 31 1c31.333 0 54.333 -7.16699 69 -21.5s22 -31.833 22 -52.5c0 -14.667 -2.83301 -28.167 -8.5 -40.5s-14.667 -24.166 -27 -35.499s-28.5 -23.333 -48.5 -36l-33 29
c21.333 19.333 36.166 34.166 44.499 44.499s12.5 20.166 12.5 29.499c0 16.667 -9 25 -27 25h-55z" />
    <glyph glyph-name="uni030A" unicode="&#x30a;" horiz-adv-x="0" 
d="M84 647c-14 0 -27.333 2.5 -40 7.5s-23.167 13.5 -31.5 25.5s-12.5 28.667 -12.5 50c0 22 4.16699 39 12.5 51s18.833 20.5 31.5 25.5s26 7.5 40 7.5s27.333 -2.5 40 -7.5s23.167 -13.5 31.5 -25.5s12.5 -29 12.5 -51c0 -21.333 -4.16699 -38 -12.5 -50
s-18.833 -20.5 -31.5 -25.5s-26 -7.5 -40 -7.5zM84 693c12 0 20.667 2.33301 26 7s8 14.667 8 30c0 16 -2.66699 26.333 -8 31s-14 7 -26 7s-21 -2.33301 -27 -7s-9 -15 -9 -31c0 -15.333 3 -25.333 9 -30s15 -7 27 -7z" />
    <glyph glyph-name="uni030B" unicode="&#x30b;" horiz-adv-x="0" 
d="M33 649l-33 40l153 131l45 -59zM220 649l-32 40l160 131l45 -59z" />
    <glyph glyph-name="uni030C" unicode="&#x30c;" horiz-adv-x="0" 
d="M121 663l-121 109l29 34l114 -71h7l114 71l29 -34l-121 -109h-51z" />
    <glyph glyph-name="uni0312" unicode="&#x312;" horiz-adv-x="0" 
d="M22 772l-22 -40.998c20 -10.667 32.833 -23.334 38.5 -38.001s8.5 -39.334 8.5 -74.001v-25h78l-1 20c-2 36.667 -8.16699 65.5 -18.5 86.5s-23 36.667 -38 47s-30.167 18.5 -45.5 24.5z" />
    <glyph glyph-name="uni031B" unicode="&#x31b;" horiz-adv-x="0" 
d="M-47 582l86.002 0.000976562c10 0 18.667 2.33301 26 7s11 12.667 11 24c0 7.33301 -1 17.333 -3 30s-4.33301 26 -7 40s-5.33398 26.333 -8.00098 37h73c3.33301 -12.667 6.66602 -27.334 9.99902 -44.001s5 -33 5 -49c0 -22 -5.16699 -40.667 -15.5 -56
s-24.333 -27 -42 -35s-37.5 -12 -59.5 -12h-63z" />
    <glyph glyph-name="dotbelowcomb" unicode="&#x323;" horiz-adv-x="0" 
d="M0 -166v85h102v-85h-102z" />
    <glyph glyph-name="uni0326" unicode="&#x326;" horiz-adv-x="0" 
d="M22 -233l-22 40.998c20 10.667 32.833 23.334 38.5 38.001s8.5 39.334 8.5 74.001v25h78l-1 -20c-2 -36.667 -8.16699 -65.5 -18.5 -86.5s-23 -36.667 -38 -47s-30.167 -18.5 -45.5 -24.5z" />
    </font>
</defs>
</svg>
