<?xml version="1.0" standalone="no"?>
<!DOCTYPE svg PUBLIC "-//W3C//DTD SVG 1.1//EN" "http://www.w3.org/Graphics/SVG/1.1/DTD/svg11.dtd" >
<svg>
<metadata>
Created by FontForge 20090914 at Wed Jul  7 09:48:43 2021
 By www-data
Copyright 2019 The Ruda Project Authors (https://github.com/marmonsalve/Ruda-new)
</metadata>
<defs>
<font id="Ruda-Black" horiz-adv-x="632" >
  <font-face 
    font-family="Ruda Black"
    font-weight="900"
    font-stretch="normal"
    units-per-em="1000"
    panose-1="2 0 0 0 0 0 0 0 0 0"
    ascent="800"
    descent="-200"
    x-height="588"
    cap-height="703"
    bbox="-42 -253.005 1015 1103"
    underline-thickness="50"
    underline-position="-75"
    unicode-range="U+000D-U+2260"
  />
<missing-glyph horiz-adv-x="276" 
 />
    <glyph glyph-name=".notdef" horiz-adv-x="276" 
 />
    <glyph glyph-name="CR" unicode="&#xd;" horiz-adv-x="250" 
 />
    <glyph glyph-name="space" unicode=" " horiz-adv-x="255" 
 />
    <glyph glyph-name="exclam" unicode="!" horiz-adv-x="293" 
d="M79 203l-16 500h168l-18 -500h-134zM60 0v134h175v-134h-175z" />
    <glyph glyph-name="quotedbl" unicode="&#x22;" horiz-adv-x="409" 
d="M267 448l-17 232v51h125v-51l-19 -232h-89zM51 448l-17 232v51h125v-51l-19 -232h-89z" />
    <glyph glyph-name="numbersign" unicode="#" horiz-adv-x="592" 
d="M56 0l25 164h-78v132h99l16 104h-80v132h100l26 163h130l-26 -163h100l26 163h130l-26 -163h79v-132h-99l-17 -104h81v-132h-102l-25 -164h-129l25 164h-101l-25 -164h-129zM231 296h101l16 104h-100z" />
    <glyph glyph-name="dollar" unicode="$" horiz-adv-x="544" 
d="M202 -116l-0.00488281 107c-34.667 4.66699 -66.167 11.5 -94.5 20.5s-51 17.5 -68 25.5l-25.5 12l6 19l13.5 44l13.5 43.5l6 18.5l20.5 -7.5c13.667 -5 31.667 -10.667 54 -17s46.666 -12 72.999 -17s52.5 -7.5 78.5 -7.5c12.667 0 22.667 1.16699 30 3.5
s13 4.83301 17 7.5c7.33301 4.66699 13.166 12 17.499 22s6.5 23.333 6.5 40s-5.16699 31 -15.5 43s-24.666 22.833 -42.999 32.5s-40.166 19.5 -65.499 29.5c-24 10 -47.667 20.833 -71 32.5s-44.5 25.667 -63.5 42s-34.167 36 -45.5 59s-17 50.5 -17 82.5
c0 46 14.5 86.5 43.5 121.5s72.167 57.833 129.5 68.5v94h124v-90c27.333 -2 53 -5.5 77 -10.5s43.667 -9.5 59 -13.5l23 -6l-25 -128l-19.5 3.5c-13 2.33301 -29.833 5 -50.5 8s-42.667 5.66699 -66 8s-45 3.5 -65 3.5c-12.667 0 -22.667 -1 -30 -3
s-13.666 -4.66699 -18.999 -8c-4.66699 -3.33301 -9.16699 -8.33301 -13.5 -15s-6.5 -17.667 -6.5 -33c0 -14.667 5.16699 -27.167 15.5 -37.5s24.333 -19.833 42 -28.5s37.834 -17.667 60.501 -27c24.667 -10 48.834 -21 72.501 -33s45.334 -26.167 65.001 -42.5
s35.334 -36.333 47.001 -60s17.5 -52.5 17.5 -86.5c0 -54.667 -16.833 -100.5 -50.5 -137.5s-78.167 -61.167 -133.5 -72.5v-110h-124z" />
    <glyph glyph-name="percent" unicode="%" horiz-adv-x="823" 
d="M142 -9l227 415l157 327h137l-205 -390l-178 -352h-138zM201 390c-28 0 -55 5.5 -81 16.5s-47.333 29.167 -64 54.5s-25 58.666 -25 99.999s8.33301 74.333 25 99s38 42.5 64 53.5s53 16.5 81 16.5s55 -5.5 81 -16.5s47.333 -28.833 64 -53.5s25 -57.667 25 -99
s-8.33301 -74.666 -25 -99.999s-38 -43.5 -64 -54.5s-53 -16.5 -81 -16.5zM201 506c15.333 0 27.833 4 37.5 12s14.5 22.333 14.5 43c0 20 -4.83301 33.833 -14.5 41.5s-22.167 11.5 -37.5 11.5s-27.833 -3.83301 -37.5 -11.5s-14.5 -21.5 -14.5 -41.5
c0 -20.667 4.83301 -35 14.5 -43s22.167 -12 37.5 -12zM622 -13c-28 0 -55 5.5 -81 16.5s-47.333 29.167 -64 54.5s-25 58.666 -25 99.999s8.33301 74.333 25 99s38 42.5 64 53.5s53 16.5 81 16.5s55 -5.5 81 -16.5s47.333 -28.833 64 -53.5s25 -57.667 25 -99
s-8.33301 -74.666 -25 -99.999s-38 -43.5 -64 -54.5s-53 -16.5 -81 -16.5zM622 103c15.333 0 27.833 4 37.5 12s14.5 22.333 14.5 43c0 20 -4.83301 33.833 -14.5 41.5s-22.167 11.5 -37.5 11.5s-27.833 -3.83301 -37.5 -11.5s-14.5 -21.5 -14.5 -41.5
c0 -20.667 4.83301 -35 14.5 -43s22.167 -12 37.5 -12z" />
    <glyph glyph-name="ampersand" unicode="&#x26;" horiz-adv-x="702" 
d="M271 -13c-53.333 0 -98.999 10.665 -136.999 31.998s-67 48.333 -87 81s-30 66.334 -30 101.001c0 24 3.66699 45.667 11 65s17.166 36.666 29.499 51.999s26 28.666 41 39.999s30.5 21 46.5 29c-13.333 10.667 -25.833 23 -37.5 37s-21.167 30 -28.5 48
s-11 38.333 -11 61c0 34 8.5 64.833 25.5 92.5s42.167 49.667 75.5 66s74 24.5 122 24.5c51.333 0 92.833 -8.66699 124.5 -26s55 -39.666 70 -66.999s22.5 -56 22.5 -86c0 -26 -5 -49 -15 -69s-22.333 -37.167 -37 -51.5s-29.667 -26.5 -45 -36.5
c19.333 -13.333 37.166 -27.166 53.499 -41.499s30.833 -28.166 43.5 -41.499c10.667 19.333 19.834 37.333 27.501 54s13.667 30.334 18 41.001l6.5 16l133 -37l-11.5 -26.5c-7.66699 -17.667 -18.5 -40.167 -32.5 -67.5s-31 -55.666 -51 -84.999
c26 -38.667 46.833 -75.334 62.5 -110.001s27.834 -64.667 36.501 -90l-154 -5c-2.66699 7.33301 -7.83398 19.166 -15.501 35.499s-17.167 34.833 -28.5 55.5c-31.333 -28 -65.833 -50.167 -103.5 -66.5s-79.167 -24.5 -124.5 -24.5zM274.001 105.998
c27.333 0 54.8311 7.83301 82.498 23.5s51.834 34.834 72.501 57.501c-22.667 27.333 -46.5 51.833 -71.5 73.5s-50.167 39.834 -75.5 54.501c-20 -7.33301 -37.833 -16.833 -53.5 -28.5s-28 -24.834 -37 -39.501s-13.5 -30.334 -13.5 -47.001
c0 -28.667 8.83301 -51.5 26.5 -68.5s40.834 -25.5 69.501 -25.5zM286.999 448.998c17.333 9.33301 32.166 21.168 44.499 35.501s18.5 32.5 18.5 54.5c0 16.667 -4.66699 31.167 -14 43.5s-25.666 18.5 -48.999 18.5c-22.667 0 -38.667 -5.83301 -48 -17.5
s-14 -26.834 -14 -45.501c0 -20.667 5.16699 -38 15.5 -52s25.833 -26.333 46.5 -37z" />
    <glyph glyph-name="quotesingle" unicode="'" horiz-adv-x="213" 
d="M61 452l-17 232v51h125v-51l-19 -232h-89z" />
    <glyph glyph-name="parenleft" unicode="(" horiz-adv-x="349" 
d="M274 -124c-38.667 21.333 -75.334 51.498 -110.001 90.498s-62.834 89.5 -84.501 151.5s-32.5 137.333 -32.5 226c0 90.667 10.833 166.834 32.5 228.501s49.834 111.834 84.501 150.501s71.334 68.667 110.001 90l66 -88
c-44.667 -30.667 -78.334 -79.167 -101.001 -145.5s-34 -144.833 -34 -235.5c0 -90 11.333 -168 34 -234s56.334 -114.667 101.001 -146z" />
    <glyph glyph-name="parenright" unicode=")" horiz-adv-x="349" 
d="M75 -124l-66 88.002c45.333 31.333 79.166 80 101.499 146s33.5 144 33.5 234c0 90.667 -11.167 169.167 -33.5 235.5s-56.166 114.833 -101.499 145.5l66 88c38.667 -21.333 75.334 -51.333 110.001 -90s62.834 -88.834 84.501 -150.501s32.5 -137.834 32.5 -228.501
c0 -88.667 -10.833 -164 -32.5 -226s-49.834 -112.5 -84.501 -151.5s-71.334 -69.167 -110.001 -90.5z" />
    <glyph glyph-name="asterisk" unicode="*" horiz-adv-x="416" 
d="M132 346l-91 81l14 15l87 78l-108 13l-20 6l36 119l22 -7l93 -47l-19 100v21h124v-21l-19 -100l93 47l21 6l37 -118l-21 -6l-111 -13l90 -77l15 -15l-95 -81l-13 17l-60 102l-62 -103z" />
    <glyph glyph-name="plus" unicode="+" horiz-adv-x="630" 
d="M247 4v223h-217v132h217v219h134v-219h219v-132h-219v-223h-134z" />
    <glyph glyph-name="comma" unicode="," horiz-adv-x="299" 
d="M134 -175l-90 44c10.667 15.333 18.667 33.5 24 54.5s8 46.167 8 75.5v133h150v-91c0 -59.333 -9.5 -105.833 -28.5 -139.5s-40.167 -59.167 -63.5 -76.5z" />
    <glyph glyph-name="hyphen" unicode="-" horiz-adv-x="306" 
d="M24 261v132h258v-132h-258z" />
    <glyph glyph-name="period" unicode="." horiz-adv-x="283" 
d="M54 0v137h175v-137h-175z" />
    <glyph glyph-name="slash" unicode="/" horiz-adv-x="490" 
d="M-18 -98l201 431l161 370h146l-196 -422l-167 -379h-145z" />
    <glyph glyph-name="zero" unicode="0" horiz-adv-x="614" 
d="M307 -13c-38 0 -73.167 5.33301 -105.5 16s-60.833 29.167 -85.5 55.5s-43.834 63.333 -57.501 111s-20.5 108.5 -20.5 182.5s6.83301 134.667 20.5 182s32.834 84.166 57.501 110.499s53.167 44.833 85.5 55.5s67.5 16 105.5 16s73.333 -5.33301 106 -16
s61.167 -29.167 85.5 -55.5s43.333 -63.166 57 -110.499s20.5 -108 20.5 -182s-6.83301 -134.833 -20.5 -182.5s-32.667 -84.667 -57 -111s-52.833 -44.833 -85.5 -55.5s-68 -16 -106 -16zM308 118c24 0 44.168 6.16504 60.501 18.498s28.5 35.5 36.5 69.5s12 82.667 12 146
c0 48.667 -2.5 88.167 -7.5 118.5s-12.167 53.833 -21.5 70.5s-20.833 28.167 -34.5 34.5s-29.167 9.5 -46.5 9.5s-32.833 -3.16699 -46.5 -9.5s-25.167 -17.666 -34.5 -33.999s-16.333 -39.666 -21 -69.999s-7 -69.5 -7 -117.5c0 -63.333 4.16699 -112 12.5 -146
s20.666 -57.5 36.999 -70.5s36.5 -19.5 60.5 -19.5z" />
    <glyph glyph-name="one" unicode="1" horiz-adv-x="554" 
d="M63 0v134l173 -1l6 402h-6l-116 -117l-99 103l223 190l149 -10v-569l152 2v-134h-482z" />
    <glyph glyph-name="two" unicode="2" horiz-adv-x="586" 
d="M40 0l0.00390625 113.001l52 52.5c34.667 35 81.667 85.833 141 152.5c41.333 45.333 74.833 85.833 100.5 121.5s38.5 67.167 38.5 94.5c0 13.333 -4.5 24 -13.5 32s-24.5 12 -46.5 12c-18.667 0 -40.667 -3.66699 -66 -11s-51.5 -16.833 -78.5 -28.5
s-52.5 -24.834 -76.5 -39.501l-62 116c14 11.333 34.667 24.833 62 40.5s58.666 29.667 93.999 42s71.666 18.5 108.999 18.5c45.333 0 85.666 -7.33301 120.999 -22s63.166 -36 83.499 -64s30.5 -61.667 30.5 -101c0 -28.667 -6.66699 -57.334 -20 -86.001
s-30 -56.667 -50 -84s-40.667 -53.666 -62 -78.999l-46 -54l-37 -41l-27 -28.5l-16.5 -17l-5.5 -5.5v-6l279 6v-134h-504z" />
    <glyph glyph-name="three" unicode="3" horiz-adv-x="614" 
d="M300 -13c-32.667 0 -63.5029 3.16504 -92.5029 9.49805s-55.167 13.833 -78.5 22.5s-42.666 16.667 -57.999 24l-31 15l47 112c8 -2 20.5 -5.66699 37.5 -11s36.5 -10.666 58.5 -15.999s44.333 -10 67 -14s44 -6 64 -6c29.333 0 49.166 6.16699 59.499 18.5
s15.5 31.5 15.5 57.5c0 39.333 -8.5 66.666 -25.5 81.999s-43.5 23 -79.5 23h-132v130c42 3.33301 77.167 6.33301 105.5 9s50.833 6.33398 67.5 11.001s28.5 12 35.5 22s10.5 23.333 10.5 40c0 14 -1.16699 25 -3.5 33s-5.5 13.667 -9.5 17
c-6 5.33301 -16.833 9.16602 -32.5 11.499s-35.167 3.5 -58.5 3.5c-12 0 -24.833 -0.5 -38.5 -1.5s-30.834 -2.5 -51.501 -4.5s-48 -5 -82 -9l-18 125c18.667 5.33301 39.834 9.83301 63.501 13.5s47.334 6.5 71.001 8.5s44.5 3 62.5 3
c48.667 0 92.334 -5.83301 131.001 -17.5s69.167 -31.167 91.5 -58.5s33.5 -65.333 33.5 -114c0 -20 -2.16699 -37.667 -6.5 -53s-10 -28.833 -17 -40.5s-15 -21.5 -24 -29.5s-18.167 -15 -27.5 -21v-6c12.667 -6 24.834 -13.5 36.501 -22.5s22 -20.167 31 -33.5
s16.167 -29.166 21.5 -47.499s8 -39.833 8 -64.5c0 -40 -8.16699 -76.667 -24.5 -110s-42.833 -60.166 -79.5 -80.499s-86 -30.5 -148 -30.5z" />
    <glyph glyph-name="four" unicode="4" horiz-adv-x="578" 
d="M331 0v140h-324v100l172 477l149 -19l-156 -429v-6l160 6l34 248h119v-244l66 2v-135h-66l1 -140h-155z" />
    <glyph glyph-name="five" unicode="5" horiz-adv-x="552" 
d="M266 -13c-35.333 0 -68.667 4.00195 -100 12.002s-59.166 17.167 -83.499 27.5s-43.333 19.5 -57 27.5l-20.5 12l46 114l23.5 -8.5c15.667 -5.66699 35.5 -12.334 59.5 -20.001s49 -14.334 75 -20.001s49.667 -8.5 71 -8.5c23.333 0 41 4.33301 53 13
c7.33301 5.33301 13 15.166 17 29.499s6 30.833 6 49.5c0 17.333 -2 33.333 -6 48s-9.33301 24.334 -16 29.001c-8.66699 7.33301 -24.667 13.166 -48 17.499s-60.666 6.5 -111.999 6.5c-12.667 0 -28.334 -0.166992 -47.001 -0.5s-35.167 -0.666016 -49.5 -0.999023
l-21.5 -0.5l61 389h369v-130l-239 4l-20 -133c42 -2.66699 80.5 -8 115.5 -16s65.667 -20.167 92 -36.5s46.666 -38.333 60.999 -66s21.5 -62.5 21.5 -104.5c0 -74 -22.5 -131.5 -67.5 -172.5s-106.167 -61.5 -183.5 -61.5z" />
    <glyph glyph-name="six" unicode="6" horiz-adv-x="592" 
d="M302 -13c-54.667 0 -101.834 11.167 -141.501 33.5s-70 58.833 -91 109.5s-31.5 119 -31.5 205c0 76.667 8 139.834 24 189.501s37.833 88.334 65.5 116.001s59.834 47.167 96.501 58.5s75.334 17 116.001 17c32 0 62 -2.83301 90 -8.5s50.667 -11.5 68 -17.5l26 -9
l-34 -122l-17 3.5c-11.333 2.33301 -25.666 5 -42.999 8s-35.5 5.66699 -54.5 8s-36.5 3.5 -52.5 3.5c-18.667 0 -34.334 -1.5 -47.001 -4.5s-23 -8.16699 -31 -15.5c-10.667 -8.66699 -19.5 -22.334 -26.5 -41.001s-12.167 -44.334 -15.5 -77.001l13 1
c8.66699 0.666992 18.667 1.16699 30 1.5s21.333 0.5 30 0.5c57.333 0 106.666 -7 147.999 -21s73.333 -37.167 96 -69.5s34 -75.833 34 -130.5c0 -76.667 -22.5 -135.667 -67.5 -177s-106.5 -62 -184.5 -62zM308 118c35.333 0 59.501 7.83301 72.501 23.5
s19.5 42.5 19.5 80.5c0 24 -2.83301 42.833 -8.5 56.5s-15.834 23.334 -30.501 29.001s-36 8.5 -64 8.5c-12.667 0 -26.667 -0.5 -42 -1.5s-28.5 -2.16699 -39.5 -3.5l-16.5 -2v-50c0 -29.333 1.83301 -52.5 5.5 -69.5s8.16699 -29.5 13.5 -37.5s9.66602 -13.333 12.999 -16
c5.33301 -4.66699 13.833 -8.83398 25.5 -12.501s28.834 -5.5 51.501 -5.5z" />
    <glyph glyph-name="seven" unicode="7" horiz-adv-x="511" 
d="M208 -9l-164 13l296 568v6l-338 -8v133h508v-91z" />
    <glyph glyph-name="eight" unicode="8" horiz-adv-x="581" 
d="M286 -13c-57.333 0 -105.332 10.502 -143.999 31.502s-67.834 48.167 -87.501 81.5s-29.5 68 -29.5 104c0 25.333 4.83301 48.666 14.5 69.999s22.167 40.333 37.5 57s32 30.667 50 42c-22.667 17.333 -40.5 38.833 -53.5 64.5s-19.5 55.5 -19.5 89.5
c0 55.333 20 100.666 60 135.999s98.333 53 175 53c53.333 0 97.5 -8.5 132.5 -25.5s61.167 -39.833 78.5 -68.5s26 -60.667 26 -96c0 -37.333 -8.5 -69.333 -25.5 -96s-38.167 -48.667 -63.5 -66c18 -8 36 -19.667 54 -35s33.167 -34 45.5 -56s18.5 -47.667 18.5 -77
c0 -36 -10.5 -70 -31.5 -102s-51.5 -57.833 -91.5 -77.5s-88.667 -29.5 -146 -29.5zM289.001 119.002c37.333 0 64.665 6.83594 81.998 20.5029s26 32.167 26 55.5c0 17.333 -4.16699 32.166 -12.5 44.499s-22.166 23.833 -41.499 34.5s-46.333 21 -81 31
c-24 -8.66699 -43.167 -20.334 -57.5 -35.001s-21.5 -36.667 -21.5 -66c0 -16 3.33301 -30.333 10 -43s17.834 -22.834 33.501 -30.501s36.5 -11.5 62.5 -11.5zM303 423.005c20.667 8.66699 37.332 20.332 49.999 34.999s19 34 19 58c0 23.333 -6.33301 42 -19 56
s-33.667 21 -63 21c-32 0 -53.833 -6.33301 -65.5 -19s-17.5 -28.667 -17.5 -48c0 -22.667 7.33301 -42.167 22 -58.5s39.334 -31.166 74.001 -44.499z" />
    <glyph glyph-name="nine" unicode="9" horiz-adv-x="590" 
d="M282 -13c-27.333 0 -54.502 3.33105 -81.502 9.99805s-51.667 14.167 -74 22.5s-40.166 15.833 -53.499 22.5l-20 10l43 117l19.5 -7c13 -4.66699 29.333 -10.167 49 -16.5s40.334 -12 62.001 -17s41.167 -7.5 58.5 -7.5c18 0 32.5 1.33301 43.5 4
s19.167 6.33398 24.5 11.001c11.333 9.33301 19.666 25 24.999 47s9 49.667 11 83l-16.5 -2c-11 -1.33301 -24.333 -2.66602 -40 -3.99902s-31.167 -2 -46.5 -2c-49.333 0 -92.666 7.66699 -129.999 23s-66.333 39.333 -87 72s-31 74.667 -31 126
c0 75.333 22.167 133.666 66.5 174.999s105.833 62 184.5 62c52.667 0 98.667 -10.833 138 -32.5s70 -58.5 92 -110.5s33 -123.667 33 -215c0 -78 -8.83301 -144.667 -26.5 -200s-46.167 -97.666 -85.5 -126.999s-92 -44 -158 -44zM281.998 389.998
c14.667 0 30.3301 1.16797 46.9971 3.50098s31 4.66602 43 6.99902l18 3.5c0 44.667 -1.83301 78.334 -5.5 101.001s-8.16699 38.667 -13.5 48s-11 15.666 -17 18.999c-7.33301 5.33301 -17.166 8.83301 -29.499 10.5s-25.5 2.5 -39.5 2.5c-26 0 -45.5 -4 -58.5 -12
s-21.833 -19.833 -26.5 -35.5s-7 -35.834 -7 -60.501c0 -16.667 1.83301 -31.667 5.5 -45s11.834 -23.666 24.501 -30.999s32.334 -11 59.001 -11z" />
    <glyph glyph-name="colon" unicode=":" horiz-adv-x="337" 
d="M81 416v137h175v-137h-175zM81 0v137h175v-137h-175z" />
    <glyph glyph-name="semicolon" unicode=";" horiz-adv-x="343" 
d="M163 -175l-90 44c10.667 15.333 18.667 33.5 24 54.5s8 46.167 8 75.5v133h150v-91c0 -59.333 -9.5 -105.833 -28.5 -139.5s-40.167 -59.167 -63.5 -76.5zM94 425v137h175v-137h-175z" />
    <glyph glyph-name="less" unicode="&#x3c;" horiz-adv-x="670" 
d="M636 4l-583 239v106l583 239v-146l-366 -143v-6l366 -143v-146z" />
    <glyph glyph-name="equal" unicode="=" horiz-adv-x="649" 
d="M30 371v133h589v-133h-589zM30 79v133h589v-133h-589z" />
    <glyph glyph-name="greater" unicode="&#x3e;" horiz-adv-x="670" 
d="M53 4v146l366 143v6l-366 143v146l583 -239v-106z" />
    <glyph glyph-name="question" unicode="?" horiz-adv-x="493" 
d="M121 203l0.00195312 19c0.666992 36 7 65.667 19 89s27.5 43 46.5 59s38.5 30.667 58.5 44c13.333 9.33301 26.166 19.166 38.499 29.499s22.333 21.666 30 33.999s11.5 26.166 11.5 41.499c0 14.667 -2.33301 25.167 -7 31.5s-10 11.833 -16 16.5
c-3.33301 2.66699 -9.16602 5.16699 -17.499 7.5s-22.166 3.5 -41.499 3.5c-28 0 -58.833 -4.66699 -92.5 -14s-64.834 -18.666 -93.501 -27.999l-48 118c12.667 6.66699 29.667 14.834 51 24.501s47.333 18.334 78 26.001s65.667 11.5 105 11.5
c48 0 90.167 -8.5 126.5 -25.5s64.666 -40.333 84.999 -70s30.5 -63.5 30.5 -101.5c0 -34 -6.83301 -63 -20.5 -87s-31 -44.5 -52 -61.5s-42.167 -32.833 -63.5 -47.5c-14 -9.33301 -27.167 -18.833 -39.5 -28.5s-22.333 -21.5 -30 -35.5s-12.834 -32.667 -15.501 -56h-143z
M106.002 0v134h175v-134h-175z" />
    <glyph glyph-name="at" unicode="@" horiz-adv-x="815" 
d="M405 -61c-44.667 0 -88.499 7.83008 -131.499 23.4971s-81.667 39.334 -116 71.001s-61.833 71.167 -82.5 118.5s-31 102.333 -31 165c0 66 11 123 33 171s51.167 87.833 87.5 119.5s76.833 55.167 121.5 70.5s89.667 23 135 23c44 0 86.667 -7 128 -21
s78.333 -34.667 111 -62s58.667 -61 78 -101s29 -85.667 29 -137c0 -38.667 -6 -74.667 -18 -108s-27.833 -62.333 -47.5 -87s-41.5 -43.834 -65.5 -57.501s-47.667 -20.5 -71 -20.5c-28 0 -48 8.33301 -60 25s-20.333 38.667 -25 66h-4c-8 -14 -18 -28 -30 -42
s-25.5 -25.667 -40.5 -35s-31.5 -14 -49.5 -14c-12.667 0 -26.167 3.33301 -40.5 10s-28 18.167 -41 34.5s-23.5 38.833 -31.5 67.5s-12 65.334 -12 110.001c0 57.333 6.5 101.833 19.5 133.5s32.333 53.834 58 66.501s57.167 19 94.5 19
c17.333 0 35.666 -1.33301 54.999 -4s37.5 -6 54.5 -10l41.5 -10l16 -4l-0.5 -23.5c-0.333008 -15.667 -0.5 -35.167 -0.5 -58.5s-0.166992 -47 -0.5 -71s-0.5 -44.667 -0.5 -62c0 -34 0.166992 -58.5 0.5 -73.5s1.33301 -24.333 3 -28s4.16699 -5.5 7.5 -5.5
c10 0 22.667 7.16699 38 21.5s29 34.833 41 61.5s18 58.334 18 95.001c0 72 -22.5 129.167 -67.5 171.5s-107.5 63.5 -187.5 63.5c-54 0 -102.333 -10.5 -145 -31.5s-76.5 -52.667 -101.5 -95s-37.5 -95.5 -37.5 -159.5s12.5 -118.167 37.5 -162.5s58.167 -78 99.5 -101
s86 -34.5 134 -34.5c12 0 25.333 1.16699 40 3.5s27.5 4.5 38.5 6.5l16.5 3l11 -84l-32.5 -8.5c-21.667 -5.66699 -47.167 -8.5 -76.5 -8.5zM366.001 208.997c12 0 23.832 7.16699 35.499 21.5s22.334 33.166 32.001 56.499s17.5 48.666 23.5 75.999s9 54.333 9 81l-20 3
c-13.333 2 -29 3 -47 3c-21.333 0 -35.333 -4.33301 -42 -13c-5.33301 -7.33301 -9.5 -19.666 -12.5 -36.999s-4.5 -39.666 -4.5 -66.999c0 -44 2.33301 -75.667 7 -95s11 -29 19 -29z" />
    <glyph glyph-name="A" unicode="A" horiz-adv-x="573" 
d="M-11 0l193 703h204l193 -703h-162l-54 224l87 -68h-332l87 68l-54 -224h-162zM202 220l-54 68h272l-54 -68l-95 405l86 -68h-146l86 68z" />
    <glyph glyph-name="B" unicode="B" horiz-adv-x="655" 
d="M344 -13c-26 0 -54.001 0.999023 -84.001 2.99902s-58.167 4.16699 -84.5 6.5s-48 4.5 -65 6.5l-25.5 3l3 323l-5 373l25 2l64 5c26 2 53.667 3.66699 83 5s56.666 2 81.999 2c44 0 84 -6 120 -18s64.667 -32.5 86 -61.5s32 -68.833 32 -119.5
c0 -25.333 -3.83301 -47.166 -11.5 -65.499s-17.334 -33.666 -29.001 -45.999s-23.667 -22 -36 -29s-23.5 -11.5 -33.5 -13.5l28 80v-146l-41 84c18 -4.66699 35.333 -11 52 -19s31.834 -18.167 45.501 -30.5s24.334 -28 32.001 -47s11.5 -41.833 11.5 -68.5
c0 -46 -7 -83.833 -21 -113.5s-33 -52.834 -57 -69.501s-50.667 -28.5 -80 -35.5s-59.666 -10.5 -90.999 -10.5zM344.999 112.999c35.333 0 58.3359 8.16602 69.0029 24.499s16 41.833 16 76.5c0 35.333 -8.66699 59.166 -26 71.499s-41 18.5 -71 18.5h-162l70 70l1 -325
l-14 71c-0.666992 0.666992 4.66602 0.333984 15.999 -0.999023s26.166 -2.66602 44.499 -3.99902s37.166 -2 56.499 -2zM341.002 425.998c29.333 0 48.999 6.5 58.999 19.5s15 34.167 15 63.5c0 32 -6.16699 54 -18.5 66s-33.166 18 -62.499 18
c-20.667 0 -38.167 -0.333008 -52.5 -1s-28 -1.5 -41 -2.5l-44.5 -3.5l44 73v-303l-70 70h171z" />
    <glyph glyph-name="C" unicode="C" horiz-adv-x="618" 
d="M339 -13c-56 0 -105.667 11.834 -149 35.501s-77.5 61.667 -102.5 114s-37.5 121.833 -37.5 208.5c0 76.667 7.5 139.334 22.5 188.001s36.167 86.167 63.5 112.5s59.333 44.666 96 54.999s76.334 15.5 119.001 15.5c17.333 0 38.666 -1.16699 63.999 -3.5
s50.833 -5.33301 76.5 -9s46.834 -7.83398 63.501 -12.501l-17 -128c-8 1.33301 -20.333 2.66602 -37 3.99902s-34.667 3 -54 5s-37.166 3.5 -53.499 4.5s-28.5 1.5 -36.5 1.5c-27.333 0 -48.833 -1.5 -64.5 -4.5s-27.167 -7.5 -34.5 -13.5
c-8.66699 -6.66699 -16.334 -18.167 -23.001 -34.5s-12 -39.166 -16 -68.499s-6 -67.666 -6 -114.999c0 -58.667 5.33301 -104.834 16 -138.501s21.667 -54.834 33 -63.501c7.33301 -5.33301 16.666 -9.66602 27.999 -12.999s25.666 -5 42.999 -5
c21.333 0 43.833 2.66699 67.5 8s45.834 11.5 66.501 18.5s37.667 13.167 51 18.5l20 8l45 -119l-18 -10.5c-12 -7 -29 -15 -51 -24s-47.833 -17 -77.5 -24s-62.167 -10.5 -97.5 -10.5z" />
    <glyph glyph-name="D" unicode="D" horiz-adv-x="673" 
d="M322 -13c-24 0 -48.668 0.5 -74.001 1.5s-49.5 2.33301 -72.5 4s-42.667 3.33398 -59 5.00098s-27.5 2.83398 -33.5 3.50098v702l43 3l63.5 4.5c23.667 1.66699 48 3 73 4s48.167 1.5 69.5 1.5c60.667 0 110.167 -9.33301 148.5 -28s67.833 -44.334 88.5 -77.001
s34.834 -70.5 42.501 -113.5s11.5 -88.833 11.5 -137.5c0 -92.667 -12.667 -166.334 -38 -221.001s-60.5 -93.667 -105.5 -117s-97.5 -35 -157.5 -35zM329.999 122c23.333 0 41.6699 1.83203 55.0029 5.49902s23 8.16699 29 13.5c8 6.66699 15.5 17.834 22.5 33.501
s12.667 38.667 17 69s6.5 70.5 6.5 120.5c0 50.667 -3.33301 94 -10 130s-17.667 59.333 -33 70c-4.66699 3.33301 -12.834 7 -24.501 11s-31.167 6 -58.5 6c-32.667 0 -56.834 -1 -72.501 -3s-29.834 -4.33301 -42.501 -7l20 74v-588l-20 73c14 -2 28.5 -3.83301 43.5 -5.5
s37.5 -2.5 67.5 -2.5z" />
    <glyph glyph-name="E" unicode="E" horiz-adv-x="551" 
d="M83 0v703h422v-134l-335 4l72 69l-9 -290l-68 70h315v-131h-315l68 70l9 -299l-72 69l335 3v-134h-422z" />
    <glyph glyph-name="F" unicode="F" horiz-adv-x="537" 
d="M83 0v703h422v-134l-340 4l70 69v-243l-70 19h308v-131h-308l69 30l6 -317h-157z" />
    <glyph glyph-name="G" unicode="G" horiz-adv-x="654" 
d="M349 -13c-40 0 -77.999 5 -113.999 15s-67.833 28 -95.5 54s-49.5 63 -65.5 111s-24 110.333 -24 187c0 75.333 7.5 136.666 22.5 183.999s36.5 84 64.5 110s61.5 43.833 100.5 53.5s82.167 14.5 129.5 14.5c22.667 0 47.5 -1.33301 74.5 -4s53.167 -6 78.5 -10
s46 -8 62 -12l-18 -127c-26.667 3.33301 -58.334 6.66602 -95.001 9.99902s-72.667 5 -108 5c-30.667 0 -54.167 -1.5 -70.5 -4.5s-28.166 -7.83301 -35.499 -14.5c-10.667 -9.33301 -20.334 -29.833 -29.001 -61.5s-13 -79.834 -13 -144.501
c0 -49.333 2.66699 -88.166 8 -116.499s11.5 -49.166 18.5 -62.499s12.833 -22.666 17.5 -27.999c6 -5.33301 16.667 -10.666 32 -15.999s38 -8 68 -8c14.667 0 28.167 0.5 40.5 1.5s23.166 2.5 32.499 4.5v217l70 -75l-172 12v113h255v-362l-31.5 -11.5
c-21 -7.66699 -49.167 -15.334 -84.5 -23.001s-74.666 -11.5 -117.999 -11.5z" />
    <glyph glyph-name="H" unicode="H" horiz-adv-x="706" 
d="M83 0v703h157l-4 -329l-69 50h372l-69 -50l-4 329h157v-703h-157l4 340l69 -50h-372l69 50l4 -340h-157z" />
    <glyph glyph-name="I" unicode="I" horiz-adv-x="324" 
d="M83 0l4 324l-4 379h158l-3 -313l3 -390h-158z" />
    <glyph glyph-name="J" unicode="J" horiz-adv-x="363" 
d="M75 -13c-14.667 0 -29.333 1 -44 3s-27 3.83301 -37 5.5l-15 2.5l15 133c10 -2 23.833 -4.16699 41.5 -6.5s31.834 -3.5 42.501 -3.5s19.167 2.5 25.5 7.5s11.166 16.333 14.499 34s5 45.167 5 82.5v458h157v-456c0 -64.667 -9 -116 -27 -154s-42.333 -65.167 -73 -81.5
s-65.667 -24.5 -105 -24.5z" />
    <glyph glyph-name="K" unicode="K" horiz-adv-x="664" 
d="M482 0l-239 369l229 334h182l-242 -328v-6l254 -369h-184zM83 0l3 358l-3 345h158v-703h-158z" />
    <glyph glyph-name="L" unicode="L" horiz-adv-x="504" 
d="M83 0v703h157l-6 -641l-69 79l339 3v-144h-421z" />
    <glyph glyph-name="M" unicode="M" horiz-adv-x="843" 
d="M75 0l25 703h201l117 -401h6l120 401h198l26 -703h-156l5 527h-6l-108 -380h-163l-108 380h-6l5 -527h-156z" />
    <glyph glyph-name="N" unicode="N" horiz-adv-x="716" 
d="M83 0v703h201l216 -514h6l-14 514h143v-703h-201l-216 515h-6l14 -515h-143z" />
    <glyph glyph-name="O" unicode="O" horiz-adv-x="700" 
d="M350 -13c-40.667 0 -79.167 5.33301 -115.5 16s-68.333 29.334 -96 56.001s-49.334 63.834 -65.001 111.501s-23.5 108.5 -23.5 182.5s7.83301 134.667 23.5 182s37.334 84.166 65.001 110.499s59.667 44.666 96 54.999s74.833 15.5 115.5 15.5
c41.333 0 80 -5.16699 116 -15.5s67.833 -28.666 95.5 -54.999s49.334 -63.166 65.001 -110.499s23.5 -108 23.5 -182s-7.83301 -134.833 -23.5 -182.5s-37.334 -84.834 -65.001 -111.501s-59.5 -45.334 -95.5 -56.001s-74.667 -16 -116 -16zM350 125
c24 0 44.502 2.83496 61.502 8.50195s31.167 16.334 42.5 32.001s19.666 38.5 24.999 68.5s8 69.333 8 118c0 48 -2.66699 87 -8 117s-13.5 52.833 -24.5 68.5s-25.167 26.334 -42.5 32.001s-38 8.5 -62 8.5s-44.667 -2.83301 -62 -8.5s-31.5 -16.334 -42.5 -32.001
s-19.167 -38.5 -24.5 -68.5s-8 -69.333 -8 -118s2.66699 -87.834 8 -117.501s13.666 -52.334 24.999 -68.001s25.5 -26.334 42.5 -32.001s37.5 -8.5 61.5 -8.5z" />
    <glyph glyph-name="P" unicode="P" horiz-adv-x="621" 
d="M83 0l3.99805 327.999l-4 374l26.5 2l68 5c27.667 2 57.334 3.66699 89.001 5s61.5 2 89.5 2c72.667 0 128.834 -20.667 168.501 -62s59.5 -103 59.5 -185c0 -51.333 -7 -93.666 -21 -126.999s-33 -59.5 -57 -78.5s-50.833 -32.333 -80.5 -40s-60.167 -11.5 -91.5 -11.5
c-25.333 0 -47.333 0.5 -66 1.5l-28 1.5v-215h-157zM336.998 336.999c16 0 29.332 1.50293 39.999 4.50293s18.334 6.5 23.001 10.5c7.33301 7.33301 12.666 20.666 15.999 39.999s5 47.666 5 84.999c0 27.333 -1.16699 47.666 -3.5 60.999s-5.16602 22.5 -8.49902 27.5
s-6.66602 8.83301 -9.99902 11.5c-4 4 -11.667 7.33301 -23 10s-27 4 -47 4c-15.333 0 -30.833 -0.5 -46.5 -1.5s-29.834 -2.16699 -42.501 -3.5v-242l28 -3.5c18.667 -2.33301 41.667 -3.5 69 -3.5z" />
    <glyph glyph-name="Q" unicode="Q" horiz-adv-x="723" 
d="M654 -95l-293.001 114.003l109 -14c-20 -6.66699 -40.667 -11.334 -62 -14.001s-43 -4 -65 -4c-39.333 0 -76.666 5.33301 -111.999 16s-66.5 29.5 -93.5 56.5s-48.333 64.167 -64 111.5s-23.5 108 -23.5 182s7.83301 134.667 23.5 182s37.334 84.166 65.001 110.499
s59.667 44.666 96 54.999s75.166 15.5 116.499 15.5c40.667 0 79 -5.16699 115 -15.5s67.833 -28.833 95.5 -55.5s49.334 -63.667 65.001 -111s23.5 -108 23.5 -182c0 -54 -4.83301 -100.333 -14.5 -139s-22.834 -71.667 -39.501 -99s-35.667 -51 -57 -71l25 95v-99l-3 23
l135 -31zM349.999 125.003c24 0 44.502 2.83301 61.502 8.5s31.167 16.334 42.5 32.001s19.666 38.334 24.999 68.001s8 68.834 8 117.501s-2.66699 88 -8 118s-13.333 52.833 -24 68.5s-24.667 26.334 -42 32.001s-38 8.5 -62 8.5c-24.667 0 -45.667 -2.83301 -63 -8.5
s-31.5 -16.334 -42.5 -32.001s-19.167 -38.5 -24.5 -68.5s-8 -69.333 -8 -118s2.66699 -87.834 8 -117.501s13.666 -52.334 24.999 -68.001s25.5 -26.334 42.5 -32.001s37.5 -8.5 61.5 -8.5z" />
    <glyph glyph-name="R" unicode="R" horiz-adv-x="695" 
d="M83 0l4 325.999l-4 376c4 0 15.667 0.833008 35 2.5s42.666 3.33398 69.999 5.00098s55.333 3.16699 84 4.5s54.334 2 77.001 2c54 0 100.833 -7.66699 140.5 -23s70.167 -40 91.5 -74s32 -79.667 32 -137c0 -55.333 -12 -100.333 -36 -135s-59.333 -59.667 -106 -75v-6
l153 -266h-174l-123 250l-87 2v-252h-157zM352 374.999c40.667 0 67.1689 8.66699 79.502 26s18.5 44 18.5 80c0 32.667 -2.33301 56 -7 70s-10.667 23.333 -18 28c-6 4 -15 7 -27 9s-27 3 -45 3c-26.667 0 -48.334 -0.5 -65.001 -1.5s-32.667 -2.5 -48 -4.5v-203
c19.333 -2 38.666 -3.66699 57.999 -5s37.333 -2 54 -2z" />
    <glyph glyph-name="S" unicode="S" horiz-adv-x="570" 
d="M278 -13c-32 0 -62.668 3.16309 -92.001 9.49609s-55.5 13.5 -78.5 21.5s-41.167 15.167 -54.5 21.5l-20 9.5l6 18.5l13.5 43l13.5 42.5l6 18l20.5 -7.5c13.667 -5 31.667 -10.667 54 -17s46.666 -12 72.999 -17s52.5 -7.5 78.5 -7.5c12.667 0 22.667 1.16699 30 3.5
s13 4.83301 17 7.5c7.33301 4.66699 13.166 12 17.499 22s6.5 24.333 6.5 43c0 16.667 -6.66699 30.834 -20 42.501s-30.666 22.5 -51.999 32.5l-69 32l-64 31.5c-21.333 11 -40.666 24.167 -57.999 39.5s-31.333 34.5 -42 57.5s-16 51.5 -16 85.5
c0 36.667 9.16699 69.834 27.5 99.501s46 53.334 83 71.001s82.833 26.5 137.5 26.5c24 0 48.167 -1.66699 72.5 -5s46.833 -7.16602 67.5 -11.499s37.167 -8.16602 49.5 -11.499l18.5 -5l-25 -125l-19.5 3.5c-13 2.33301 -29.833 5 -50.5 8s-42.667 5.66699 -66 8
s-45.333 3.5 -66 3.5c-12.667 0 -22.667 -1 -30 -3s-13.666 -4.66699 -18.999 -8c-4.66699 -3.33301 -9.16699 -8.5 -13.5 -15.5s-6.5 -18.833 -6.5 -35.5c0 -12.667 4.66699 -24.167 14 -34.5s22 -19.833 38 -28.5s33.333 -17.334 52 -26.001l71.5 -33
c25 -11.333 48.5 -25 70.5 -41s40 -36.167 54 -60.5s21 -54.833 21 -91.5c0 -43.333 -10.5 -81.333 -31.5 -114s-50.333 -58 -88 -76s-81.5 -27 -131.5 -27z" />
    <glyph glyph-name="T" unicode="T" horiz-adv-x="516" 
d="M177 0l3 572l-196 -3v134h547v-134l-200 3l3 -572h-157z" />
    <glyph glyph-name="U" unicode="U" horiz-adv-x="702" 
d="M351 -13c-56.667 0 -104.996 9.33301 -144.996 28s-70.5 51.5 -91.5 98.5s-31.5 112.167 -31.5 195.5v394h157v-366c0 -46.667 1.83301 -84.167 5.5 -112.5s9.66699 -49.666 18 -63.999s19.666 -23.833 33.999 -28.5s32.5 -7 54.5 -7c21.333 0 39.166 2.33301 53.499 7
s25.666 14 33.999 28s14.166 35.167 17.499 63.5s5 66.166 5 113.499v366h157v-386c0 -86 -10.333 -153 -31 -201s-51 -81.5 -91 -100.5s-88.667 -28.5 -146 -28.5z" />
    <glyph glyph-name="V" unicode="V" horiz-adv-x="599" 
d="M198 0l-192 703h167l123 -560h6l124 560h167l-192 -703h-203z" />
    <glyph glyph-name="W" unicode="W" horiz-adv-x="838" 
d="M138 0l-104 703h158l51 -542h6l78 375h184l78 -375h6l51 542h158l-104 -703h-196l-82 387h-6l-82 -387h-196z" />
    <glyph glyph-name="X" unicode="X" horiz-adv-x="621" 
d="M-4 0l249 417v-120l-240 406h168l167 -313l-102 62h146l-102 -62l165 313h168l-239 -406v120l249 -417h-174l-169 319l102 -62h-146l103 62l-171 -319h-174z" />
    <glyph glyph-name="Y" unicode="Y" horiz-adv-x="580" 
d="M209 0l3 253l-216 450h168l122 -322h6l122 322h168l-216 -450l2 -253h-159z" />
    <glyph glyph-name="Z" unicode="Z" horiz-adv-x="579" 
d="M24 0v124l338 447v7l-317 -9v134h503v-121l-331 -450v-6l336 8v-134h-529z" />
    <glyph glyph-name="bracketleft" unicode="[" horiz-adv-x="342" 
d="M84 -124v915h239v-115l-95 2v-689l95 1v-114h-239z" />
    <glyph glyph-name="backslash" unicode="\" horiz-adv-x="492" 
d="M363 -98l-167 379l-196 422h146l161 -370l201 -431h-145z" />
    <glyph glyph-name="bracketright" unicode="]" horiz-adv-x="342" 
d="M19 -124v114l95 -1v689l-95 -2v115h239v-915h-239z" />
    <glyph glyph-name="asciicircum" unicode="^" horiz-adv-x="526" 
d="M181 312l-145 12l153 382h148l153 -382l-145 -12l-79 265h-6z" />
    <glyph glyph-name="underscore" unicode="_" horiz-adv-x="570" 
d="M4 -166v98h562v-98h-562z" />
    <glyph glyph-name="grave" unicode="`" horiz-adv-x="324" 
d="M305 646l-305 58l26 112l298 -87z" />
    <glyph glyph-name="a" unicode="a" horiz-adv-x="622" 
d="M222 -13c-32 0 -60.8311 7.49805 -86.498 22.498s-46.167 36.833 -61.5 65.5s-23 63.334 -23 104.001c0 48.667 11 86.834 33 114.501s53 47.5 93 59.5s87.333 18 142 18h75c0 28.667 -1.33301 49 -4 61s-5.66699 20.667 -9 26c-2.66699 4.66699 -7.83398 9 -15.501 13
s-23.167 6 -46.5 6c-24 0 -48.833 -2 -74.5 -6s-49.5 -8.66699 -71.5 -14s-40 -10 -54 -14l-21 -6l-32 112l20.5 8c13.667 5.33301 32.334 11.333 56.001 18s50.667 12.667 81 18s62.5 8 96.5 8c57.333 0 102.666 -8.83301 135.999 -26.5s57.166 -43 71.499 -76
s21.5 -72.5 21.5 -118.5v-380h-98l-20 65h-6l-17.5 -12c-11.667 -8 -27.167 -17 -46.5 -27s-41 -19 -65 -27s-48.667 -12 -74 -12zM267.002 113.998c18.667 0 37.833 3.16797 57.5 9.50098s36.167 12.666 49.5 18.999l20 9.5v104l-24 2.5c-16 1.66699 -36.667 2.5 -62 2.5
c-44 0 -71.333 -5 -82 -15c-4.66699 -4 -8.66699 -10.833 -12 -20.5s-5 -23.167 -5 -40.5c0 -24.667 4.5 -42.667 13.5 -54s23.833 -17 44.5 -17z" />
    <glyph glyph-name="b" unicode="b" horiz-adv-x="624" 
d="M338 -13c-22.667 0 -49.834 2 -81.501 6s-63.667 9.5 -96 16.5s-61.166 14.167 -86.499 21.5v730h155v-175l20.5 4c13.667 2.66699 30.5 5.16699 50.5 7.5s39.333 3.5 58 3.5c67.333 0 120.5 -23.5 159.5 -70.5s58.5 -123.167 58.5 -228.5
c0 -64 -6.83301 -116.5 -20.5 -157.5s-32 -73 -55 -96s-48.667 -39 -77 -48s-56.833 -13.5 -85.5 -13.5zM328 113c14 0 25.335 0.834961 34.002 2.50195s15.667 4.83398 21 9.50098c6 4.66699 11.667 12.667 17 24s9.66602 30.166 12.999 56.499s5 64.166 5 113.499
c0 46.667 -1.83301 80 -5.5 100s-9.5 33.667 -17.5 41c-9.33301 9.33301 -29.333 14 -60 14c-27.333 0 -51.833 -2.16699 -73.5 -6.5l-32.5 -6.5v-338l15 -2.5c10 -1.66699 22.667 -3.33398 38 -5.00098s30.666 -2.5 45.999 -2.5z" />
    <glyph glyph-name="c" unicode="c" horiz-adv-x="544" 
d="M314 -13c-52 0 -98.001 10.5039 -138.001 31.5039s-71.333 54.167 -94 99.5s-34 104.666 -34 177.999c0 60.667 7.66699 110.834 23 150.501s36.5 70.667 63.5 93s58.167 38.166 93.5 47.499s72.666 14 111.999 14c37.333 0 71.166 -2.66699 101.499 -8
s52.833 -10 67.5 -14l-17 -117c-19.333 3.33301 -44.5 6.83301 -75.5 10.5s-60.167 5.5 -87.5 5.5c-28 0 -47.833 -2.16699 -59.5 -6.5s-20.5 -9.5 -26.5 -15.5c-12 -12.667 -21.167 -32.334 -27.5 -59.001s-9.5 -60.334 -9.5 -101.001c0 -38.667 2.5 -69.5 7.5 -92.5
s11.333 -40.5 19 -52.5s14.834 -20.667 21.501 -26c4 -2.66699 10.167 -5.83398 18.5 -9.50098s19.833 -5.5 34.5 -5.5c16 0 33.833 2.5 53.5 7.5s38.834 10.667 57.501 17s34 11.833 46 16.5l18 7l42 -110l-25.5 -15.5c-17 -10.333 -41.167 -20.5 -72.5 -30.5
s-68.666 -15 -111.999 -15z" />
    <glyph glyph-name="d" unicode="d" horiz-adv-x="628" 
d="M251 -13c-37.333 0 -71.335 10.665 -102.002 31.998s-55.167 54.333 -73.5 99s-27.5 102 -27.5 172c0 63.333 7.16699 115.333 21.5 156s33.333 72.334 57 95.001s49.334 38.334 77.001 47.001s54.834 13 81.501 13c18.667 0 36.667 -1.16699 54 -3.5
s31.666 -4.83301 42.999 -7.5l17 -4v175h155v-761h-100l-16 57h-6c-13.333 -8.66699 -29.333 -18.5 -48 -29.5s-39.167 -20.5 -61.5 -28.5s-46.166 -12 -71.499 -12zM277.998 112.998c11.333 0 24 1.83496 38 5.50195s27.333 8.16699 40 13.5s23 9.83301 31 13.5l12 5.5v302
l-16.5 5.5c-11 3.66699 -24.833 7.16699 -41.5 10.5s-34 5 -52 5c-26 0 -44 -5.33301 -54 -16c-4.66699 -4.66699 -9.16699 -13.334 -13.5 -26.001s-8 -30.5 -11 -53.5s-4.5 -53.5 -4.5 -91.5c0 -42.667 1.5 -75.167 4.5 -97.5s6.83301 -37.833 11.5 -46.5
s8.66699 -14.667 12 -18c5.33301 -4.66699 12 -7.83398 20 -9.50098s16 -2.5 24 -2.5z" />
    <glyph glyph-name="e" unicode="e" horiz-adv-x="611" 
d="M322 -14c-54 0 -101.5 10.0049 -142.5 30.0049s-72.833 52.667 -95.5 98s-34 105.666 -34 180.999c0 78.667 12 140.167 36 184.5s56.333 75.833 97 94.5s86.334 28 137.001 28c52 0 96 -9 132 -27s63.5 -47.333 82.5 -88s28.5 -95.334 28.5 -164.001v-83h-426l70 22
c0 -24 1 -44.833 3 -62.5s5.33301 -32.334 10 -44.001s10.667 -20.834 18 -27.501c6.66699 -6 15.167 -10.667 25.5 -14s23.833 -5 40.5 -5c18 0 38 1.83301 60 5.5s43.5 8.16699 64.5 13.5s39.167 10.166 54.5 14.499s25.666 7.5 30.999 9.5l38 -112
c-6 -2.66699 -20.5 -8.5 -43.5 -17.5s-50.667 -17.333 -83 -25s-66.833 -11.5 -103.5 -11.5zM207 330.005l-68.999 20.999l337 6l-70 -22c0 32 -1.33301 58.333 -4 79s-7.33398 35.334 -14.001 44.001c-4.66699 5.33301 -11.667 10.333 -21 15s-24.666 7 -45.999 7
c-25.333 0 -44.333 -2.5 -57 -7.5s-22.334 -11.167 -29.001 -18.5c-18 -18.667 -27 -60 -27 -124z" />
    <glyph glyph-name="f" unicode="f" horiz-adv-x="382" 
d="M96 0l0.00195312 443h-68v97l69 14c4.66699 57.333 16.5 102 35.5 134s44 54.333 75 67s66.167 19 105.5 19c11.333 0 24.166 -0.333008 38.499 -1s26.666 -1.33398 36.999 -2.00098l15.5 -1l-11 -123l-13 1c-8.66699 0.666992 -19.5 1.33398 -32.5 2.00098
s-25.5 1 -37.5 1c-14 0 -25.167 -1.83301 -33.5 -5.5s-14.5 -12 -18.5 -25s-6.33301 -33.5 -7 -61.5h132v-119h-132v-440h-155z" />
    <glyph glyph-name="g" unicode="g" horiz-adv-x="565" 
d="M277 -179c-30.667 0 -60.333 1.66797 -89 5.00098s-54.334 7.33301 -77.001 12s-40.667 8.66699 -54 12l-20 5l17 118c48 -7.33301 95.833 -14 143.5 -20s92.5 -9 134.5 -9c22.667 0 38.167 1.16699 46.5 3.5s12.5 6.5 12.5 12.5c0 2.66699 -1.5 5.16699 -4.5 7.5
s-9.83301 5.66602 -20.5 9.99902s-27.667 10.666 -51 18.999l-95 34.5c-28 10 -48.333 17.667 -61 23s-20.667 9.5 -24 12.5s-5 5.83301 -5 8.5c0 6 2 15.167 6 27.5s8.5 25.333 13.5 39s9.5 25.167 13.5 34.5l6 14c-46 16 -81.5 40 -106.5 72s-37.5 73.333 -37.5 124
c0 54 12.667 96.667 38 128s59 53.666 101 66.999s87.333 20 136 20c14 0 31.667 -0.333008 53 -1s43.5 -1.66699 66.5 -3s44.833 -2.66602 65.5 -3.99902s37.334 -2.33301 50.001 -3l19 -1v-90l-62 -10l6.5 -16c4.33301 -10.667 8.5 -24.5 12.5 -41.5s6 -35.167 6 -54.5
c0 -37.333 -10 -71.333 -30 -102s-49 -55 -87 -73s-84.333 -27.333 -139 -28l-1 -9c-0.666992 -6 -1 -9.66699 -1 -11c0 -2.66699 4 -5.5 12 -8.5s19.833 -7.16699 35.5 -12.5s34.5 -12.333 56.5 -21c42.667 -16.667 76.5 -32.5 101.5 -47.5s42.833 -30.5 53.5 -46.5
s16 -33.667 16 -53c0 -31.333 -11 -57.666 -33 -78.999s-52.333 -37.5 -91 -48.5s-83 -16.5 -133 -16.5zM272.001 287.001c27.333 0 48.5 3.00195 63.5 9.00195s25.333 17.167 31 33.5s8.5 39.166 8.5 68.499c0 21.333 -1.16699 39.666 -3.5 54.999s-5.5 25 -9.5 29
c-2 2 -5.83301 3.66699 -11.5 5s-12.334 2.16602 -20.001 2.49902l-23.5 1c-8 0.333008 -15.333 0.5 -22 0.5c-30 0 -53.5 -2.16699 -70.5 -6.5s-29.167 -13.666 -36.5 -27.999s-11 -36.5 -11 -66.5c0 -40.667 7.33301 -68 22 -82s42.334 -21 83.001 -21z" />
    <glyph glyph-name="h" unicode="h" horiz-adv-x="627" 
d="M74 0l-0.00292969 760.999h155v-280l-23 58l46 22.5c21.333 10.333 45.833 19.833 73.5 28.5s55.834 13 84.501 13c40.667 0 71.834 -9.66699 93.501 -29s36.667 -45.333 45 -78s12.5 -69.667 12.5 -111v-385h-155v358c0 26 -1.33301 46.667 -4 62
s-6.66699 26.333 -12 33c-3.33301 4.66699 -8.66602 8.33398 -15.999 11.001s-15 4 -23 4c-10 0 -22.667 -2.16699 -38 -6.5s-30.833 -9.33301 -46.5 -15s-29.167 -11 -40.5 -16s-18 -8.16699 -20 -9.5l23 32v-453h-155z" />
    <glyph glyph-name="i" unicode="i" horiz-adv-x="311" 
d="M78 0v588h155v-588h-155zM74 668v108h163v-108h-163z" />
    <glyph glyph-name="j" unicode="j" horiz-adv-x="346" 
d="M69 -179c-13.333 0 -28.501 0.830078 -45.501 2.49707s-31.5 3.33398 -43.5 5.00098l-18 2.5l16 126l14.5 -2c9.66699 -1.33301 21.167 -2.66602 34.5 -3.99902s24.666 -2 33.999 -2c14.667 0 25.167 3 31.5 9s10.333 17.667 12 35s2.5 43 2.5 77v518h155v-519
c0 -62 -9.16699 -111.167 -27.5 -147.5s-42.166 -62.166 -71.499 -77.499s-60.666 -23 -93.999 -23zM106.999 667.997v108h163v-108h-163z" />
    <glyph glyph-name="k" unicode="k" horiz-adv-x="600" 
d="M441 0l-216 313l194 275h188l-222 -269v-5l246 -314h-190zM74 0l4 321l-4 440h155v-761h-155z" />
    <glyph glyph-name="l" unicode="l" horiz-adv-x="303" 
d="M74 0v761h155v-761h-155z" />
    <glyph glyph-name="m" unicode="m" horiz-adv-x="956" 
d="M79 0l0.00195312 587.999h99l18 -59h6c12 7.33301 25.5 15.166 40.5 23.499s31 16.333 48 24s35.167 14 54.5 19s39.333 7.5 60 7.5c33.333 0 60.333 -6.83301 81 -20.5s36.667 -32.167 48 -55.5c26.667 17.333 56.5 34.333 89.5 51s69.5 25 109.5 25
c41.333 0 73.333 -9.5 96 -28.5s38.5 -44.833 47.5 -77.5s13.5 -70 13.5 -112v-385h-157v358c0 27.333 -0.666992 47.833 -2 61.5s-5.33301 24.5 -12 32.5c-4 5.33301 -9.66699 9.33301 -17 12s-15.666 4 -24.999 4c-8.66699 0 -18.334 -1.16699 -29.001 -3.5
s-21.334 -5.66602 -32.001 -9.99902s-20.834 -9 -30.501 -14s-18.5 -10.167 -26.5 -15.5c0.666992 -8 1.16699 -16.167 1.5 -24.5s0.5 -16.833 0.5 -25.5v-375h-155v358c0 27.333 -0.666992 48 -2 62s-5.33301 25 -12 33c-4.66699 6 -10.667 10 -18 12s-14.666 3 -21.999 3
c-12 0 -25.167 -2 -39.5 -6s-28.333 -9.16699 -42 -15.5s-25.834 -13.166 -36.501 -20.499v-426h-155z" />
    <glyph glyph-name="n" unicode="n" 
d="M79 0l0.000976562 588.003h99l18 -59h6c13.333 8 27.833 16.167 43.5 24.5s32.5 16.166 50.5 23.499s37 13.166 57 17.499s41 6.5 63 6.5c41.333 0 72.666 -9.33301 93.999 -28s36 -44.334 44 -77.001s12 -69.667 12 -111v-385h-155v356c0 27.333 -0.666992 48 -2 62
s-5.33301 25 -12 33c-4 5.33301 -9.33301 9.16602 -16 11.499s-14.667 3.5 -24 3.5c-12.667 0 -26.5 -2 -41.5 -6s-29.667 -9.16699 -44 -15.5s-26.833 -13.166 -37.5 -20.499v-424h-155z" />
    <glyph glyph-name="o" unicode="o" horiz-adv-x="612" 
d="M307 -13c-64.667 0 -116.001 12.499 -154.001 37.499s-65 60.5 -81 106.5s-24 100.667 -24 164c0 62.667 8 116.834 24 162.501s43 81 81 106s89.667 37.5 155 37.5c64.667 0 115.667 -12.5 153 -37.5s63.833 -60.333 79.5 -106s23.5 -100.167 23.5 -163.5
c0 -62.667 -7.83301 -117 -23.5 -163s-42.167 -81.5 -79.5 -106.5s-88.666 -37.5 -153.999 -37.5zM306.999 104.999c19.333 0 35.3311 2.66699 47.998 8s22.834 15 30.501 29s13 33.333 16 58s4.5 56.334 4.5 95.001c0 38 -1.66699 69.333 -5 94
s-8.66602 43.834 -15.999 57.501s-17.333 23.167 -30 28.5s-28.667 8 -48 8s-35.5 -2.66699 -48.5 -8s-23.333 -14.833 -31 -28.5s-13.167 -32.834 -16.5 -57.501s-5 -56 -5 -94c0 -38.667 1.66699 -70.334 5 -95.001s8.83301 -44 16.5 -58s18 -23.667 31 -29
s29.167 -8 48.5 -8z" />
    <glyph glyph-name="p" unicode="p" horiz-adv-x="630" 
d="M74 -166l0.00195312 754h99l18 -60h5c14.667 10.667 31.5 21.5 50.5 32.5s39.833 20.5 62.5 28.5s47 12 73 12c38 0 72.167 -10.167 102.5 -30.5s54.166 -52.333 71.499 -96s26 -100.5 26 -170.5c0 -64.667 -7.33301 -117.667 -22 -159s-34.167 -73.5 -58.5 -96.5
s-51 -39 -80 -48s-57.833 -13.5 -86.5 -13.5c-14.667 0 -30.334 0.833008 -47.001 2.5s-30.667 3.16699 -42 4.5l-17 2v-162h-155zM329.002 113c15.333 0 27.334 0.998047 36.001 2.99805s16.334 5.33301 23.001 10s12.667 12.834 18 24.501s9.66602 29.834 12.999 54.501
s5 59 5 103c0 29.333 -0.666992 53.666 -2 72.999s-3.33301 35 -6 47s-6.33398 21 -11.001 27c-4 6 -9.5 10.667 -16.5 14s-17.167 5 -30.5 5c-18 0 -37 -3.16699 -57 -9.5s-37 -13.166 -51 -20.499s-21 -12 -21 -14v-303l30.5 -7c20.333 -4.66699 43.5 -7 69.5 -7z" />
    <glyph glyph-name="q" unicode="q" horiz-adv-x="624" 
d="M395 -166l0.00195312 175.003l-16 -5.5c-10.667 -3.66699 -25 -7.33398 -43 -11.001s-38 -5.5 -60 -5.5c-27.333 0 -54.5 4.66699 -81.5 14s-51.5 25.666 -73.5 48.999s-39.667 55.666 -53 96.999s-20 94 -20 158c0 74 9.5 132.5 28.5 175.5s47.167 73.833 84.5 92.5
s82.666 28 135.999 28c28 0 56.833 -1.83301 86.5 -5.5s57.167 -8 82.5 -13s45.666 -9.33301 60.999 -13l23 -5.5v-730h-155zM289.002 113.003c28.667 0 53.5 2.50098 74.5 7.50098l31.5 7.5v334l-16 3c-10.667 2 -23.834 4 -39.501 6s-31.5 3 -47.5 3
c-20.667 0 -35.167 -1.66699 -43.5 -5s-14.5 -7 -18.5 -11c-7.33301 -7.33301 -13.166 -21.833 -17.499 -43.5s-6.5 -59.167 -6.5 -112.5c0 -52.667 2.16699 -92.834 6.5 -120.501s11.166 -46.167 20.499 -55.5c4.66699 -4.66699 11.334 -8 20.001 -10s20.667 -3 36 -3z" />
    <glyph glyph-name="r" unicode="r" horiz-adv-x="430" 
d="M79 0l0.00195312 587.998h96l20 -62h6l14.5 11.5c9.66699 7.66699 22.5 16.334 38.5 26.001s33.333 18.334 52 26.001s37 11.5 55 11.5c23.333 0 40 -1.83301 50 -5.5l15 -5.5l-12 -134l-17.5 1.5c-11.667 1 -24.167 1.5 -37.5 1.5
c-16.667 0 -32.834 -1.83301 -48.501 -5.5s-29.834 -8.16699 -42.501 -13.5s-24 -11 -34 -17v-423h-155z" />
    <glyph glyph-name="s" unicode="s" horiz-adv-x="537" 
d="M282 -13c-30.667 0 -60.3301 2.99512 -88.9971 8.99512s-54.334 12.667 -77.001 20s-40.667 14 -54 20l-20 9l38 122l20.5 -8c13.667 -5.33301 31.5 -11.666 53.5 -18.999s45.167 -13.666 69.5 -18.999s46.833 -8 67.5 -8c11.333 0 20.5 1 27.5 3s12.5 4.33301 16.5 7
c5.33301 4 9.5 9.66699 12.5 17s4.5 15.333 4.5 24c0 16.667 -5.33301 29.5 -16 38.5s-24.834 16.5 -42.501 22.5s-37.5 12 -59.5 18c-21.333 6.66699 -43 13.834 -65 21.501s-42.167 18 -60.5 31s-33.166 29.833 -44.499 50.5s-17 47.334 -17 80.001
c0 52.667 17.667 95 53 127s92 48 170 48c29.333 0 57.666 -2 84.999 -6s51.666 -8.66699 72.999 -14s38 -10 50 -14l-23 -120l-19 4.5c-12.667 3 -29 6.5 -49 10.5s-41.333 7.5 -64 10.5s-44 4.5 -64 4.5c-16.667 0 -28.334 -1 -35.001 -3s-11.667 -4.33301 -15 -7
c-2.66699 -2 -5.16699 -5.16699 -7.5 -9.5s-3.5 -10.166 -3.5 -17.499c0 -14.667 5.33301 -26.5 16 -35.5s24.834 -16.5 42.501 -22.5s36.834 -12 57.501 -18c21.333 -6 43.166 -12.5 65.499 -19.5s42.833 -16.667 61.5 -29s33.667 -29 45 -50s17 -48.5 17 -82.5
c0 -58.667 -19 -106 -57 -142s-92.667 -54 -164 -54z" />
    <glyph glyph-name="t" unicode="t" horiz-adv-x="400" 
d="M258 -13c-35.333 0 -65.501 5.33496 -90.501 16.002s-44 31.167 -57 61.5s-19.5 74.5 -19.5 132.5v246h-68v97l75 14l23 139h127v-134h120v-119h-122v-247c0 -22.667 1.5 -39.334 4.5 -50.001s7.66699 -17.334 14 -20.001s14.5 -4 24.5 -4s21 0.5 33 1.5l31 2.5l13 1
v-126l-32 -5.5c-21.333 -3.66699 -46.666 -5.5 -75.999 -5.5z" />
    <glyph glyph-name="u" unicode="u" 
d="M230 -13c-44.667 0 -78.833 9.5 -102.5 28.5s-39.834 45 -48.501 78s-13 70.167 -13 111.5v383h155v-368c0 -28.667 1 -49 3 -61s5.33301 -20.333 10 -25c5.33301 -4.66699 11.333 -7.83398 18 -9.50098s14.667 -2.5 24 -2.5c19.333 0 40.5 4.33301 63.5 13
s42.5 18.334 58.5 29.001v424h155v-588h-99l-19 61h-6c-17.333 -10.667 -36.666 -21.667 -57.999 -33s-43.833 -21 -67.5 -29s-48.167 -12 -73.5 -12z" />
    <glyph glyph-name="v" unicode="v" horiz-adv-x="544" 
d="M180 0l-171 588h160l100 -456h6l100 456h160l-171 -588h-184z" />
    <glyph glyph-name="w" unicode="w" horiz-adv-x="804" 
d="M137 0l-117 588h156l61 -474h6l68 393h188l69 -393h6l59 474h156l-116 -588h-196l-69 393h-6l-69 -393h-196z" />
    <glyph glyph-name="x" unicode="x" horiz-adv-x="582" 
d="M4 0l191 309l-180 279h161l108 -194h6l108 194h161l-180 -279l191 -309h-166l-114 218h-6l-114 -218h-166z" />
    <glyph glyph-name="y" unicode="y" horiz-adv-x="536" 
d="M112 -166l86 214l-198 540h160l106 -392h6l103 392h161l-205 -560l-58 -194h-161z" />
    <glyph glyph-name="z" unicode="z" horiz-adv-x="506" 
d="M11 0v104l280 362v5l-266 -10v127h454v-104l-277 -363v-6l284 12v-127h-475z" />
    <glyph glyph-name="braceleft" unicode="{" horiz-adv-x="464" 
d="M362 -123c-62.667 0 -112.166 16.834 -148.499 50.501s-54.5 88.5 -54.5 164.5v104c0 24 -3.33301 41.833 -10 53.5s-19 20.334 -37 26.001s-44 10.834 -78 15.501v103c32.667 4.66699 58 9.66699 76 15s30.667 14.166 38 26.499s11 30.166 11 53.499v94
c0 50 8.33301 90.333 25 121s40.167 52.834 70.5 66.501s65.166 20.5 104.499 20.5c29.333 0 52.166 -1 68.499 -3l24.5 -3l-8 -110l-17.5 1.5c-11.667 1 -24.167 1.83301 -37.5 2.5s-22.666 1 -27.999 1c-11.333 0 -20.5 -2.16699 -27.5 -6.5s-12 -13.5 -15 -27.5
s-4.5 -35.667 -4.5 -65v-93c0 -20.667 -2.16699 -38.834 -6.5 -54.501s-10.5 -29.167 -18.5 -40.5s-17.167 -20.833 -27.5 -28.5s-21.5 -14.167 -33.5 -19.5v-6c12 -5.33301 23.167 -12 33.5 -20s19.5 -17.833 27.5 -29.5s14.167 -25.334 18.5 -41.001
s6.5 -34.167 6.5 -55.5v-101c0 -30.667 1.5 -53.5 4.5 -68.5s7.66699 -24.667 14 -29s14.5 -6.5 24.5 -6.5l87 4l8 -111z" />
    <glyph glyph-name="bar" unicode="|" horiz-adv-x="280" 
d="M81 -94v868h118v-868h-118z" />
    <glyph glyph-name="braceright" unicode="}" horiz-adv-x="464" 
d="M102 -121l-89.999 1.99805l8 111l87 -3c10.667 0 19 2 25 6s10.5 13.5 13.5 28.5s4.5 37.833 4.5 68.5v101c0 21.333 2.16699 39.833 6.5 55.5s10.5 29.334 18.5 41.001s17.167 21.5 27.5 29.5s21.5 14.667 33.5 20v6c-12 5.33301 -23.167 11.833 -33.5 19.5
s-19.5 17.167 -27.5 28.5s-14.167 24.833 -18.5 40.5s-6.5 33.834 -6.5 54.501v93c0 29.333 -1.5 51 -4.5 65s-8 23.167 -15 27.5s-16.167 6.5 -27.5 6.5c-4.66699 0 -13.834 -0.333008 -27.501 -1s-26.334 -1.5 -38.001 -2.5l-17.5 -1.5l-8 110l25 3
c16.667 2 39.334 3 68.001 3c40 0 75 -6.83301 105 -20.5s53.333 -35.834 70 -66.501s25 -71 25 -121v-94c0 -23.333 3.66699 -41.166 11 -53.499s20 -21.166 38 -26.499s43.333 -10.333 76 -15v-103c-34 -4.66699 -60 -9.83398 -78 -15.501s-30.333 -14.334 -37 -26.001
s-10 -29.5 -10 -53.5v-104c0 -76 -18 -130.667 -54 -164s-85.667 -49.666 -149 -48.999z" />
    <glyph glyph-name="asciitilde" unicode="~" horiz-adv-x="672" 
d="M467 190c-20 0 -41.835 3.49902 -65.502 10.499s-47.667 15 -72 24s-47.833 17 -70.5 24s-43.334 10.5 -62.001 10.5c-8.66699 0 -18 -1.5 -28 -4.5s-19.333 -6.33301 -28 -10s-16 -7.16699 -22 -10.5l-47 83l29 28c11.333 10.667 25.333 19.834 42 27.501
s36.334 11.5 59.001 11.5c20 0 41.833 -3.5 65.5 -10.5s47.834 -15 72.501 -24s48.5 -17 71.5 -24s43.833 -10.5 62.5 -10.5c13.333 0 27 2.83301 41 8.5s26.667 11.5 38 17.5l46 -83c-6 -7.33301 -15.167 -16.5 -27.5 -27.5s-27.166 -20.5 -44.499 -28.5
s-37.333 -12 -60 -12z" />
    <glyph glyph-name="nbspace" unicode="&#xa0;" horiz-adv-x="255" 
 />
    <glyph glyph-name="exclamdown" unicode="&#xa1;" horiz-adv-x="291" 
d="M63 -114l16 499h135l17 -499h-168zM58 454v134h175v-134h-175z" />
    <glyph glyph-name="cent" unicode="&#xa2;" horiz-adv-x="543" 
d="M251 -116l-0.00292969 108.999c-62 11.333 -111.333 41.166 -148 89.499s-55 119.5 -55 213.5c0 65.333 9 118.333 27 159s42.333 72 73 94s65 36.667 103 44v100h124v-93c30 -1.33301 55.833 -4.16602 77.5 -8.49902s40.5 -8.5 56.5 -12.5l-17 -117
c-19.333 3.33301 -44.5 6.83301 -75.5 10.5s-62.167 5.5 -93.5 5.5c-21.333 0 -38.166 -2.16699 -50.499 -6.5s-21.5 -9.16602 -27.5 -14.499c-10.667 -10 -19.5 -29.167 -26.5 -57.5s-10.5 -64.833 -10.5 -109.5c0 -35.333 2.5 -64.166 7.5 -86.499
s11.333 -39.666 19 -51.999s14.834 -21.166 21.501 -26.499c4 -2.66699 10.167 -5.83398 18.5 -9.50098s19.166 -5.5 32.499 -5.5c16 0 33.833 2.5 53.5 7.5s38.834 10.667 57.501 17s34 11.833 46 16.5l18 7l42 -110l-18.5 -11.5
c-12.333 -7.66699 -29.666 -15.834 -51.999 -24.501s-48.5 -15.334 -78.5 -20.001v-108h-124z" />
    <glyph glyph-name="sterling" unicode="&#xa3;" horiz-adv-x="599" 
d="M50 0l-0.00195312 131.999h92v193h-92v116h93c3.33301 54 12.5 98.833 27.5 134.5s34.5 63.834 58.5 84.501s51.167 35.167 81.5 43.5s62.5 12.5 96.5 12.5c24.667 0 51.834 -2.33301 81.501 -7s55.834 -10 78.501 -16l-16 -124c-28.667 4 -56.667 7.33301 -84 10
s-51 4 -71 4c-16.667 0 -30.167 -0.833008 -40.5 -2.5s-18.833 -5.16699 -25.5 -10.5c-7.33301 -6.66699 -14 -19.667 -20 -39s-9.66699 -49.333 -11 -90h186v-116h-188v-193l254 2v-134h-501z" />
    <glyph glyph-name="currency" unicode="&#xa4;" horiz-adv-x="653" 
d="M132 73l-79.002 80.001l61 61c-10.667 17.333 -19.334 37.333 -26.001 60s-10 48.334 -10 77.001c0 28 3.33301 53 10 75s15.334 41.667 26.001 59l-61 62l80 79l62 -62c42 24.667 87 37 135 37c22.667 0 45.334 -3.33301 68.001 -10s44.334 -16 65.001 -28l63 63l79 -80
l-61 -61c11.333 -17.333 20.333 -36.833 27 -58.5s10 -46.834 10 -75.501s-3.33301 -54.334 -10 -77.001s-15.334 -42.667 -26.001 -60l61 -61l-80 -79l-61 61c-43.333 -24.667 -88.333 -37 -135 -37c-47.333 0 -92.666 12.333 -135.999 37zM329.998 215.001
c44 0 76.499 10.667 97.499 32s31.5 55.666 31.5 102.999s-12.167 81.5 -36.5 102.5s-55.166 31.5 -92.499 31.5s-68.5 -10.5 -93.5 -31.5s-37.5 -55.167 -37.5 -102.5s12.5 -81.666 37.5 -102.999s56.167 -32 93.5 -32z" />
    <glyph glyph-name="yen" unicode="&#xa5;" horiz-adv-x="595" 
d="M46 286v98h110l-153 319h167l123 -319h6l123 319h167l-153 -319h108v-98h-498zM216 0l1 129h-171v98h498v-98h-170l1 -129h-159z" />
    <glyph glyph-name="brokenbar" unicode="&#xa6;" horiz-adv-x="280" 
d="M81 403v371h118v-371h-118zM81 -94v363h118v-363h-118z" />
    <glyph glyph-name="section" unicode="&#xa7;" horiz-adv-x="584" 
d="M268 -93c-30 0 -59 2.99902 -87 8.99902s-53.167 13.167 -75.5 21.5s-40.166 15.5 -53.499 21.5l-20 9l43 127l22 -8.5c14.667 -5.66699 33.667 -12.334 57 -20.001s47.666 -14.334 72.999 -20.001s48.333 -8.5 69 -8.5c22 0 35.333 1.66699 40 5
s9.16699 8.16602 13.5 14.499s6.5 13.833 6.5 22.5c0 14.667 -7 26.5 -21 35.5s-32 17.167 -54 24.5s-45.667 14.666 -71 21.999c-27.333 8.66699 -54.166 18.834 -80.499 30.501s-48 27.834 -65 48.501s-25.5 48.334 -25.5 83.001c0 26 5.33301 49.667 16 71
s26.334 39.333 47.001 54c-14 13.333 -24.5 28.333 -31.5 45s-10.5 34.667 -10.5 54c0 52 22.167 92.833 66.5 122.5s102.833 44.5 175.5 44.5c41.333 0 78.166 -3.83301 110.499 -11.5s54.833 -13.834 67.5 -18.501l-27 -128l-16 4c-10.667 2.66699 -24.834 6 -42.501 10
s-36.5 7.33301 -56.5 10s-39.667 4 -59 4c-6.66699 0 -16 -0.5 -28 -1.5s-21 -3.5 -27 -7.5c-5.33301 -3.33301 -8.83301 -8.5 -10.5 -15.5s-2.5 -12.167 -2.5 -15.5c0 -15.333 8.5 -27.833 25.5 -37.5s38.667 -18 65 -25l81.5 -22.5c26.667 -7.33301 52 -16.666 76 -27.999
s43.667 -26.666 59 -45.999s23 -45 23 -77c0 -28 -6 -50.833 -18 -68.5s-27 -32.834 -45 -45.501c13.333 -16.667 21.5 -35 24.5 -55s4.5 -33.667 4.5 -41c0 -34 -7 -63.167 -21 -87.5s-32.667 -44.166 -56 -59.499s-49 -26.666 -77 -33.999s-56.333 -11 -85 -11z
M373 255.999c4.66699 4.66699 8.16699 10.1689 10.5 16.502s3.5 12.166 3.5 17.499c0 13.333 -7 23.833 -21 31.5s-31.667 15.167 -53 22.5c-35.333 12.667 -59.833 21.167 -73.5 25.5l-32.5 10.5c-4 -5.33301 -8 -12.5 -12 -21.5s-6 -17.167 -6 -24.5
c0 -4.66699 2 -9.33398 6 -14.001s12 -9.5 24 -14.5s30 -11.5 54 -19.5l49 -14.5c15.333 -4.33301 32.333 -9.5 51 -15.5z" />
    <glyph glyph-name="dieresis" unicode="&#xa8;" horiz-adv-x="372" 
d="M0 668v108h147v-108h-147zM225 668v108h147v-108h-147z" />
    <glyph glyph-name="copyright" unicode="&#xa9;" horiz-adv-x="832" 
d="M415 -49c-53.333 0 -102.33 9.16699 -146.997 27.5s-83.334 44 -116.001 77s-57.834 72 -75.501 117s-26.5 94.167 -26.5 147.5s9.33301 102.5 28 147.5s44.667 84 78 117s72.166 58.667 116.499 77s91.833 27.5 142.5 27.5c53.333 0 102.5 -9.16699 147.5 -27.5
s83.833 -44 116.5 -77s58 -72 76 -117s27 -94.167 27 -147.5s-9 -102.5 -27 -147.5s-43.333 -84 -76 -117s-71.5 -58.667 -116.5 -77s-94.167 -27.5 -147.5 -27.5zM425.003 109c-36 0 -69.002 6.83008 -99.002 20.4971s-54 35.834 -72 66.501s-27 71.667 -27 123
c0 45.333 5.5 82.5 16.5 111.5s26.167 51.333 45.5 67s41.666 26.5 66.999 32.5s52 9 80 9c10 0 22.667 -1 38 -3s30.333 -4.83301 45 -8.5s25.334 -7.5 32.001 -11.5l-16 -97c-4 0.666992 -13 1.83398 -27 3.50098l-42.5 5c-14.333 1.66699 -24.5 2.5 -30.5 2.5
c-14 0 -24.833 -1 -32.5 -3s-13.5 -5 -17.5 -9c-6 -6 -11 -16.167 -15 -30.5s-6 -36.833 -6 -67.5c0 -26.667 2.33301 -47.5 7 -62.5s9.33398 -25.167 14.001 -30.5c6.66699 -6.66699 17 -10 31 -10c17.333 0 35.333 1.83301 54 5.5s34.5 7.33398 47.5 11.001l19.5 5.5
l26 -99l-16.5 -7.5c-11 -5 -26.667 -10.167 -47 -15.5s-45.166 -8 -74.499 -8zM415.001 40.9971c57.333 0 106.5 11.332 147.5 33.999s72.5 54.834 94.5 96.501s33 91.167 33 148.5s-11 106.833 -33 148.5s-53.5 73.834 -94.5 96.501s-90.167 34 -147.5 34
c-54 0 -101.5 -11.333 -142.5 -34s-73 -54.834 -96 -96.501s-34.5 -91.167 -34.5 -148.5c0 -86 24 -154 72 -204s115 -75 201 -75z" />
    <glyph glyph-name="ordfeminine" unicode="&#xaa;" horiz-adv-x="437" 
d="M141 289c-32.667 0 -59.832 11.001 -81.499 33.001s-32.5 56.667 -32.5 104c0 31.333 7.16699 56.5 21.5 75.5s34 32.667 59 41s53.167 12.5 84.5 12.5h30h30.5h13.5c0 15.333 -1.5 27.166 -4.5 35.499s-9.5 14.166 -19.5 17.499s-25.333 5 -46 5
c-19.333 0 -39 -2 -59 -6s-36.833 -8.16699 -50.5 -12.5l-20.5 -6.5l-26 95l16 4.5c10.667 3 24.5 6.5 41.5 10.5s35 7.5 54 10.5s36.5 4.5 52.5 4.5c64 0 109.5 -14.167 136.5 -42.5s40.5 -66.166 40.5 -113.499v-259h-84l-19 38h-4l-20.5 -11.5
c-13.667 -7.66699 -30.834 -15.5 -51.501 -23.5s-41 -12 -61 -12zM178.002 389.001c14 0 27.666 1.83105 40.999 5.49805s24.5 7.33398 33.5 11.001l13.5 5.5v51l-15.5 0.5c-10.333 0.333008 -24.833 0.5 -43.5 0.5c-13.333 0 -23.666 -0.5 -30.999 -1.5s-13 -2.5 -17 -4.5
c-4.66699 -2.66699 -8.5 -6.66699 -11.5 -12s-4.5 -11.666 -4.5 -18.999c0 -12.667 2.83301 -22 8.5 -28s14.5 -9 26.5 -9z" />
    <glyph glyph-name="guillemotleft" unicode="&#xab;" horiz-adv-x="585" 
d="M179 74l-161 271l161 271l115 -67l-124 -201v-6l124 -201zM454 78l-159 267l159 267l114 -67l-121 -197v-6l121 -197z" />
    <glyph glyph-name="logicalnot" unicode="&#xac;" horiz-adv-x="601" 
d="M441 119v107h-435v133h572v-240h-137z" />
    <glyph glyph-name="uni00AD" unicode="&#xad;" horiz-adv-x="287" 
d="M17 261v132h258v-132h-258z" />
    <glyph glyph-name="registered" unicode="&#xae;" horiz-adv-x="832" 
d="M415 -49c-53.333 0 -102.33 9.16699 -146.997 27.5s-83.334 44 -116.001 77s-57.834 72 -75.501 117s-26.5 94.167 -26.5 147.5s9.33301 102.5 28 147.5s44.667 84 78 117s72.166 58.667 116.499 77s91.833 27.5 142.5 27.5c53.333 0 102.5 -9.16699 147.5 -27.5
s83.833 -44 116.5 -77s58 -72 76 -117s27 -94.167 27 -147.5s-9 -102.5 -27 -147.5s-43.333 -84 -76 -117s-71.5 -58.667 -116.5 -77s-94.167 -27.5 -147.5 -27.5zM415.003 41c57.333 0 106.5 11.332 147.5 33.999s72.5 54.834 94.5 96.501s33 91.167 33 148.5
s-11 106.833 -33 148.5s-53.5 73.834 -94.5 96.501s-90.167 34 -147.5 34c-54 0 -101.5 -11.333 -142.5 -34s-73 -54.834 -96 -96.501s-34.5 -91.167 -34.5 -148.5c0 -86 24 -154 72 -204s115 -75 201 -75zM248.003 119.999l3.00098 189l-2 213
c8 0.666992 21.333 1.66699 40 3s39.667 2.5 63 3.5s45.666 1.5 66.999 1.5c50 0 90.333 -10 121 -30s46 -55 46 -105c0 -35.333 -6.83301 -63.333 -20.5 -84s-31.167 -36 -52.5 -46v-3l80 -142h-136l-48 133l-43 1v-134h-118zM421.004 348.999
c16 0 26.667 3.16797 32 9.50098s8 19.5 8 39.5c0 10.667 -2.33301 19.167 -7 25.5s-15.667 9.5 -33 9.5c-8.66699 0 -18.667 -0.333008 -30 -1s-19.333 -1.33398 -24 -2.00098l-1 -80c7.33301 -0.666992 16.5 -1 27.5 -1h27.5z" />
    <glyph glyph-name="macron" unicode="&#xaf;" horiz-adv-x="392" 
d="M0 668v96h393v-96h-393z" />
    <glyph glyph-name="degree" unicode="&#xb0;" horiz-adv-x="352" 
d="M176 390c-28 0 -55 5.5 -81 16.5s-47.333 29.167 -64 54.5s-25 58.666 -25 99.999s8.33301 74.333 25 99s38 42.5 64 53.5s53 16.5 81 16.5s55 -5.5 81 -16.5s47.333 -28.833 64 -53.5s25 -57.667 25 -99s-8.33301 -74.666 -25 -99.999s-38 -43.5 -64 -54.5
s-53 -16.5 -81 -16.5zM176 506c15.333 0 27.833 4 37.5 12s14.5 22.333 14.5 43c0 20 -4.83301 33.833 -14.5 41.5s-22.167 11.5 -37.5 11.5s-27.833 -3.83301 -37.5 -11.5s-14.5 -21.5 -14.5 -41.5c0 -20.667 4.83301 -35 14.5 -43s22.167 -12 37.5 -12z" />
    <glyph glyph-name="plusminus" unicode="&#xb1;" horiz-adv-x="594" 
d="M230 186v142h-200v132h200v128h134v-128h200v-132h-200v-142h-134zM30 0v132h534v-132h-534z" />
    <glyph glyph-name="uni00B2" unicode="&#xb2;" horiz-adv-x="412" 
d="M63 298l-0.00292969 76l92 111l47 58c10.667 13.333 17.834 23.5 21.501 30.5s5.5 12.833 5.5 17.5s-1.66699 8.5 -5 11.5s-8.66602 4.5 -15.999 4.5c-10 0 -22.667 -2.33301 -38 -7s-30.666 -10.5 -45.999 -17.5s-28.333 -13.5 -39 -19.5l-44 102
c10 5.33301 23.5 11.833 40.5 19.5s37 14.5 60 20.5s48.167 9 75.5 9c23.333 0 45 -4.83301 65 -14.5s36.167 -23.167 48.5 -40.5s18.5 -38 18.5 -62c0 -26 -6 -49.5 -18 -70.5s-25.667 -40.167 -41 -57.5l-62 -69v-3l134 7v-106h-299z" />
    <glyph glyph-name="uni00B3" unicode="&#xb3;" horiz-adv-x="384" 
d="M194 290c-26 0 -51.3301 2.33496 -75.9971 7.00195s-45.167 9.33398 -61.5 14.001l-24.5 7l27 101l14 -3l35.5 -7.5c14.333 -3 28.833 -5.5 43.5 -7.5s27.334 -3 38.001 -3c8 0 13.667 2.5 17 7.5s5 11.833 5 20.5c0 11.333 -2.33301 20 -7 26s-14 9 -28 9h-83v89
c36 2.66699 61.667 5.5 77 8.5s24.666 6.66699 27.999 11s5 9.5 5 15.5c0 10 -1 16 -3 18c-1.33301 1.33301 -4.83301 2.5 -10.5 3.5s-14.834 1.5 -27.501 1.5c-10.667 0 -25 -0.833008 -43 -2.5s-36.667 -3.83398 -56 -6.50098l-12 102c12 2 25.833 4 41.5 6
s31.167 3.66699 46.5 5s27.666 2 36.999 2c43.333 0 79 -8.83301 107 -26.5s42 -47.834 42 -90.501c0 -16.667 -2 -30 -6 -40s-9.16699 -17.833 -15.5 -23.5s-12.833 -10.834 -19.5 -15.501v-4c7.33301 -3.33301 15.166 -8.5 23.499 -15.5s15.333 -16.167 21 -27.5
s8.5 -26 8.5 -44c0 -25.333 -4.5 -48.333 -13.5 -69s-24 -37.167 -45 -49.5s-49.5 -18.5 -85.5 -18.5z" />
    <glyph glyph-name="acute" unicode="&#xb4;" horiz-adv-x="324" 
d="M22 646l-22 81l293 89l31 -112z" />
    <glyph glyph-name="uni03BC" unicode="&#xb5;" 
d="M66 -166v754.001h155v-346c0 -32.667 0.666992 -57.5 2 -74.5s5 -28.167 11 -33.5c4.66699 -4 10.5 -7 17.5 -9s15.167 -3 24.5 -3c13.333 0 27.333 2 42 6s29 9.16699 43 15.5s26.333 13.166 37 20.499v424h155v-588h-99l-19 61h-6l-43 -25
c-15.333 -8.66699 -31 -16.667 -47 -24s-32.5 -13.333 -49.5 -18s-33.833 -7 -50.5 -7c-10.667 0 -20.667 1.33301 -30 4l-14 4l-5 -4l12 -157h-136z" />
    <glyph glyph-name="paragraph" unicode="&#xb6;" horiz-adv-x="735" 
d="M256 -166l-0.000976562 337.999c-47.333 3.33301 -88.166 13.833 -122.499 31.5s-60.666 45.334 -78.999 83.001s-27.5 88.167 -27.5 151.5c0 68 10.667 121.167 32 159.5s51.666 65.5 90.999 81.5s86 24 140 24h369v-869h-155v736h-94v-736h-154z" />
    <glyph glyph-name="periodcentered" unicode="&#xb7;" horiz-adv-x="353" 
d="M177 230c-16.667 0 -32.834 3.33301 -48.501 10s-28.5 17.334 -38.5 32.001s-15 34.334 -15 59.001c0 26 5 46.167 15 60.5s22.833 24.5 38.5 30.5s31.834 9 48.501 9s32.667 -3 48 -9s28 -16.167 38 -30.5s15 -34.5 15 -60.5c0 -24.667 -5 -44.334 -15 -59.001
s-22.667 -25.334 -38 -32.001s-31.333 -10 -48 -10z" />
    <glyph glyph-name="cedilla" unicode="&#xb8;" horiz-adv-x="208" 
d="M87 -179c-22.667 0 -42.833 1.50098 -60.5 4.50098l-26.5 4.5v87l12.5 -1l30 -2.5c11.667 -1 22.5 -1.5 32.5 -1.5c15.333 0 26.833 1.66699 34.5 5s11.5 11.666 11.5 24.999c0 15.333 -1.66699 31.5 -5 48.5s-5.33301 26.833 -6 29.5l76 20
c0.666992 -0.666992 2.66699 -6.16699 6 -16.5s6.83301 -23.5 10.5 -39.5s5.5 -33.333 5.5 -52c0 -34 -10.5 -61 -31.5 -81s-50.833 -30 -89.5 -30z" />
    <glyph glyph-name="uni00B9" unicode="&#xb9;" horiz-adv-x="406" 
d="M65 298v106h99v177h-4l-74 -54l-59 86l162 100l94 -7v-302h85v-106h-303z" />
    <glyph glyph-name="ordmasculine" unicode="&#xba;" horiz-adv-x="378" 
d="M188 289c-46.667 0 -83.667 8.66699 -111 26s-46.833 41.833 -58.5 73.5s-17.5 69.167 -17.5 112.5c0 44 5.83301 82 17.5 114s31.167 56.5 58.5 73.5s64.333 25.5 111 25.5c48.667 0 86.667 -8.5 114 -25.5s46.666 -41.5 57.999 -73.5s17 -70 17 -114
c0 -43.333 -5.66699 -80.833 -17 -112.5s-30.666 -56.167 -57.999 -73.5s-65.333 -26 -114 -26zM188 396c15.333 0 27.5 2.66699 36.5 8s15.667 15.5 20 30.5s6.5 37.167 6.5 66.5c0 30.667 -2.16699 53.5 -6.5 68.5s-11 25.167 -20 30.5s-21.167 8 -36.5 8
c-14 0 -25.5 -2.66699 -34.5 -8s-15.5 -15.5 -19.5 -30.5s-6 -37.833 -6 -68.5c0 -29.333 2 -51.5 6 -66.5s10.5 -25.167 19.5 -30.5s20.5 -8 34.5 -8z" />
    <glyph glyph-name="guillemotright" unicode="&#xbb;" horiz-adv-x="585" 
d="M131 78l-114 67l121 197v6l-121 197l114 67l159 -267zM406 74l-115 67l124 201v6l-124 201l115 67l161 -271z" />
    <glyph glyph-name="onequarter" unicode="&#xbc;" horiz-adv-x="1031" 
d="M270 -9l229 415l158 327h144l-207 -390l-179 -352h-145zM65 298v106h99v177h-4l-74 -54l-59 86l162 100l94 -7v-302h85v-106h-303zM825 0l1 75h-198v86l107 271l107 -11l-93 -239v-4l78 1l14 140h101v-140l44 1v-105h-44v-75h-117z" />
    <glyph glyph-name="onehalf" unicode="&#xbd;" horiz-adv-x="1028" 
d="M267 -9l229 415l158 327h144l-207 -390l-179 -352h-145zM65 298v106h99v177h-4l-74 -54l-59 86l162 100l94 -7v-302h85v-106h-303zM671 0l-0.00195312 78l10.5 12l27 30.5l34.5 39l33 37.5c19.333 21.333 33.666 38.166 42.999 50.499s15.5 21.833 18.5 28.5
s4.5 12.334 4.5 17.001s-1.66699 8.5 -5 11.5s-8.66602 4.5 -15.999 4.5c-10 0 -22.667 -2.33301 -38 -7s-30.666 -10.5 -45.999 -17.5s-28.333 -13.5 -39 -19.5l-44 102c10 5.33301 23.833 11.833 41.5 19.5s38.167 14.5 61.5 20.5s47.666 9 72.999 9
c23.333 0 45 -4.83301 65 -14.5s36.167 -23.167 48.5 -40.5s18.5 -38 18.5 -62c0 -26 -7.66699 -51.5 -23 -76.5s-31.666 -47.5 -48.999 -67.5c-3.33301 -4 -7.66602 -8.83301 -12.999 -14.5l-15.5 -17l-12.5 -14l-5 -5.5v-2l131 4v-106h-304z" />
    <glyph glyph-name="threequarters" unicode="&#xbe;" horiz-adv-x="953" 
d="M199 -9l229 415l158 327h144l-207 -390l-179 -352h-145zM192 290c-26 0 -51.3301 2.33496 -75.9971 7.00195s-45.167 9.33398 -61.5 14.001l-24.5 7l27 101l14 -3l35.5 -7.5c14.333 -3 28.833 -5.5 43.5 -7.5s27.334 -3 38.001 -3c8 0 13.667 2.5 17 7.5s5 11.833 5 20.5
c0 11.333 -2.33301 20 -7 26s-14 9 -28 9h-83v89c36 2.66699 61.667 5.5 77 8.5s24.666 6.66699 27.999 11s5 9.5 5 15.5c0 10 -1 16 -3 18c-1.33301 1.33301 -4.83301 2.5 -10.5 3.5s-14.834 1.5 -27.501 1.5c-10.667 0 -25 -0.833008 -43 -2.5
s-36.667 -3.83398 -56 -6.50098l-12 102c12 2 25.833 4 41.5 6s31.167 3.66699 46.5 5s27.666 2 36.999 2c43.333 0 79 -8.83301 107 -26.5s42 -47.834 42 -90.501c0 -16.667 -2 -30 -6 -40s-9.16699 -17.833 -15.5 -23.5s-12.833 -10.834 -19.5 -15.501v-4
c7.33301 -3.33301 15.166 -8.5 23.499 -15.5s15.333 -16.167 21 -27.5s8.5 -26 8.5 -44c0 -25.333 -4.5 -48.333 -13.5 -69s-24 -37.167 -45 -49.5s-49.5 -18.5 -85.5 -18.5zM746.003 0.00195312l1 75h-198v86l107 271l107 -11l-93 -239v-4l78 1l14 140h101v-140l44 1v-105
h-44v-75h-117z" />
    <glyph glyph-name="questiondown" unicode="&#xbf;" horiz-adv-x="493" 
d="M373 385l-0.00390625 -19c0 -36 -6.16699 -65.667 -18.5 -89s-28 -42.833 -47 -58.5s-38.5 -30.5 -58.5 -44.5c-13.333 -8.66699 -26.166 -18.334 -38.499 -29.001s-22.333 -22.167 -30 -34.5s-11.5 -26.166 -11.5 -41.499c0 -14.667 2.33301 -25.167 7 -31.5
s10 -11.833 16 -16.5c3.33301 -2.66699 9.33301 -5.16699 18 -7.5s22.334 -3.5 41.001 -3.5c28 0 58.833 4.66699 92.5 14s64.834 18.666 93.501 27.999l48 -118c-12 -6 -28.833 -14 -50.5 -24s-47.667 -18.833 -78 -26.5s-65.5 -11.5 -105.5 -11.5
c-47.333 0 -89.333 8.5 -126 25.5s-65.167 40.333 -85.5 70s-30.5 63.5 -30.5 101.5c0 34.667 6.83301 63.834 20.5 87.501s31 44.167 52 61.5s42.167 33 63.5 47c14.667 9.33301 27.834 18.833 39.501 28.5s21.667 21.667 30 36s13.5 32.833 15.5 55.5h143zM387.996 588
v-134h-175v134h175z" />
    <glyph glyph-name="Agrave" unicode="&#xc0;" horiz-adv-x="573" 
d="M-11 0l193 703h204l193 -703h-162l-54 224l87 -68h-332l87 68l-54 -224h-162zM202 220l-54 68h272l-54 -68l-95 405l86 -68h-146l86 68zM434 751l-308 42l20 113l302 -71z" />
    <glyph glyph-name="Aacute" unicode="&#xc1;" horiz-adv-x="573" 
d="M-11 0l193 703h204l193 -703h-162l-54 224l87 -68h-332l87 68l-54 -224h-162zM202 220l-54 68h272l-54 -68l-95 405l86 -68h-146l86 68zM161 750l-20 83l294 77l28 -110z" />
    <glyph glyph-name="Acircumflex" unicode="&#xc2;" horiz-adv-x="573" 
d="M-11 0l193 703h204l193 -703h-162l-54 224l87 -68h-332l87 68l-54 -224h-162zM202 220l-54 68h272l-54 -68l-95 405l86 -68h-146l86 68zM115 740l-33 61l167 100h73l167 -100l-33 -61l-167 59h-7z" />
    <glyph glyph-name="Atilde" unicode="&#xc3;" horiz-adv-x="573" 
d="M-11 0l193 703h204l193 -703h-162l-54 224l87 -68h-332l87 68l-54 -224h-162zM202 220l-54 68h272l-54 -68l-95 405l86 -68h-146l86 68zM406 750c-14.667 0 -32.167 2.33203 -52.5 6.99902s-40.833 9.83398 -61.5 15.501l-55.5 15.5c-16.333 4.66699 -27.833 7 -34.5 7
c-5.33301 0 -10.5 -3.33301 -15.5 -10s-9 -13.5 -12 -20.5l-4.5 -10.5l-76 10c1.33301 45.333 10.833 77.666 28.5 96.999s40.5 29 68.5 29c15.333 0 33 -2.16699 53 -6.5s40.333 -9.33301 61 -15l55.5 -15c16.333 -4.33301 27.833 -6.5 34.5 -6.5
c5.33301 0 10.333 3.33301 15 10s8.5 13.334 11.5 20.001l4.5 10l75 -12c-0.666992 -44.667 -9.66699 -76.667 -27 -96s-40 -29 -68 -29z" />
    <glyph glyph-name="Adieresis" unicode="&#xc4;" horiz-adv-x="573" 
d="M-11 0l193 703h204l193 -703h-162l-54 224l87 -68h-332l87 68l-54 -224h-162zM202 220l-54 68h272l-54 -68l-95 405l86 -68h-146l86 68zM95 761v108h147v-108h-147zM320 761v108h147v-108h-147z" />
    <glyph glyph-name="Aring" unicode="&#xc5;" horiz-adv-x="573" 
d="M-11 0l193 703h204l193 -703h-162l-54 224l87 -68h-332l87 68l-54 -224h-162zM202 220l-54 68h272l-54 -68l-95 405l86 -68h-146l86 68zM287 733c-17.333 0 -34.167 2.83301 -50.5 8.5s-29.833 15.334 -40.5 29.001s-16 32.5 -16 56.5c0 25.333 5.33301 44.833 16 58.5
s24.167 23.167 40.5 28.5s33.5 8 51.5 8c17.333 0 34 -2.66699 50 -8s29.167 -14.833 39.5 -28.5s15.5 -33.167 15.5 -58.5c0 -24 -5.16699 -42.833 -15.5 -56.5s-23.5 -23.334 -39.5 -29.001s-33 -8.5 -51 -8.5zM286.999 797c12.667 0 21.667 2.16699 27 6.5
s8 12.166 8 23.499c0 12.667 -2.66699 20.834 -8 24.501s-14.333 5.5 -27 5.5s-21.834 -1.83301 -27.501 -5.5s-8.5 -11.834 -8.5 -24.501c0 -11.333 2.83301 -19.166 8.5 -23.499s14.834 -6.5 27.501 -6.5z" />
    <glyph glyph-name="AE" unicode="&#xc6;" horiz-adv-x="849" 
d="M-17 0l318 703h502v-136l-266 3l-4 -148h245v-132h-245l4 -158l266 2v-134h-422v156h-171l-68 -156h-159zM251 288h130v261h-18z" />
    <glyph glyph-name="Ccedilla" unicode="&#xc7;" horiz-adv-x="618" 
d="M298 -179c-22.667 0 -42.833 1.50098 -60.5 4.50098l-26.5 4.5v87l12.5 -1l30 -2.5c11.667 -1 22.5 -1.5 32.5 -1.5c15.333 0 26.833 1.66699 34.5 5s11.5 11.666 11.5 24.999c0 15.333 -1.66699 31.5 -5 48.5s-5.33301 26.833 -6 29.5l76 20
c0.666992 -0.666992 2.66699 -6.16699 6 -16.5s6.83301 -23.5 10.5 -39.5s5.5 -33.333 5.5 -52c0 -34 -10.5 -61 -31.5 -81s-50.833 -30 -89.5 -30zM339.001 -12.999c-56 0 -105.667 11.834 -149 35.501s-77.5 61.667 -102.5 114s-37.5 121.833 -37.5 208.5
c0 76.667 7.5 139.334 22.5 188.001s36.167 86.167 63.5 112.5s59.333 44.666 96 54.999s76.334 15.5 119.001 15.5c17.333 0 38.666 -1.16699 63.999 -3.5s50.833 -5.33301 76.5 -9s46.834 -7.83398 63.501 -12.501l-17 -128c-8 1.33301 -20.333 2.66602 -37 3.99902
s-34.667 3 -54 5s-37.166 3.5 -53.499 4.5s-28.5 1.5 -36.5 1.5c-27.333 0 -48.833 -1.5 -64.5 -4.5s-27.167 -7.5 -34.5 -13.5c-8.66699 -6.66699 -16.334 -18.167 -23.001 -34.5s-12 -39.166 -16 -68.499s-6 -67.666 -6 -114.999c0 -58.667 5.33301 -104.834 16 -138.501
s21.667 -54.834 33 -63.501c7.33301 -5.33301 16.666 -9.66602 27.999 -12.999s25.666 -5 42.999 -5c21.333 0 43.833 2.66699 67.5 8s45.834 11.5 66.501 18.5s37.667 13.167 51 18.5l20 8l45 -119l-18 -10.5c-12 -7 -29 -15 -51 -24s-47.833 -17 -77.5 -24
s-62.167 -10.5 -97.5 -10.5z" />
    <glyph glyph-name="Egrave" unicode="&#xc8;" horiz-adv-x="551" 
d="M83 0v703h422v-134l-335 4l72 69l-9 -290l-68 70h315v-131h-315l68 70l9 -299l-72 69l335 3v-134h-422zM445 751l-308 42l20 113l302 -71z" />
    <glyph glyph-name="Eacute" unicode="&#xc9;" horiz-adv-x="551" 
d="M83 0v703h422v-134l-335 4l72 69l-9 -290l-68 70h315v-131h-315l68 70l9 -299l-72 69l335 3v-134h-422zM172 750l-20 83l294 77l28 -110z" />
    <glyph glyph-name="Ecircumflex" unicode="&#xca;" horiz-adv-x="551" 
d="M83 0v703h422v-134l-335 4l72 69l-9 -290l-68 70h315v-131h-315l68 70l9 -299l-72 69l335 3v-134h-422zM126 740l-33 61l167 100h73l167 -100l-33 -61l-167 59h-7z" />
    <glyph glyph-name="Edieresis" unicode="&#xcb;" horiz-adv-x="551" 
d="M83 0v703h422v-134l-335 4l72 69l-9 -290l-68 70h315v-131h-315l68 70l9 -299l-72 69l335 3v-134h-422zM106 761v108h147v-108h-147zM331 761v108h147v-108h-147z" />
    <glyph glyph-name="Igrave" unicode="&#xcc;" horiz-adv-x="324" 
d="M271 751l-292 48l26 110l284 -77zM83 0l4 324l-4 379h158l-3 -313l3 -390h-158z" />
    <glyph glyph-name="Iacute" unicode="&#xcd;" horiz-adv-x="324" 
d="M47 750l-18 81l284 79l26 -110zM83 0l4 324l-4 379h158l-3 -313l3 -390h-158z" />
    <glyph glyph-name="Icircumflex" unicode="&#xce;" horiz-adv-x="324" 
d="M8 750l-33 65l150 90h73l149 -90l-33 -65l-149 53h-7zM83 0l4 324l-4 379h158l-3 -313l3 -390h-158z" />
    <glyph glyph-name="Idieresis" unicode="&#xcf;" horiz-adv-x="324" 
d="M-19 766v108h143v-108h-143zM200 766v108h143v-108h-143zM83 0l4 324l-4 379h158l-3 -313l3 -390h-158z" />
    <glyph glyph-name="Eth" unicode="&#xd0;" horiz-adv-x="686" 
d="M30 301v112h344v-112h-344zM335 -13c-24 0 -48.668 0.5 -74.001 1.5s-49.5 2.33301 -72.5 4s-42.667 3.33398 -59 5.00098s-27.5 2.83398 -33.5 3.50098v702l43 3l63.5 4.5c23.667 1.66699 48 3 73 4s48.167 1.5 69.5 1.5c60.667 0 110.167 -9.33301 148.5 -28
s67.833 -44.334 88.5 -77.001s34.834 -70.5 42.501 -113.5s11.5 -88.833 11.5 -137.5c0 -92.667 -12.667 -166.334 -38 -221.001s-60.5 -93.667 -105.5 -117s-97.5 -35 -157.5 -35zM342.999 122c23.333 0 41.6699 1.83203 55.0029 5.49902s23 8.16699 29 13.5
c8 6.66699 15.5 17.834 22.5 33.501s12.667 38.667 17 69s6.5 70.5 6.5 120.5c0 50.667 -3.33301 94 -10 130s-17.667 59.333 -33 70c-4.66699 3.33301 -12.834 7 -24.501 11s-31.167 6 -58.5 6c-32.667 0 -56.834 -1 -72.501 -3s-29.834 -4.33301 -42.501 -7l20 74v-588
l-20 73c14 -2 28.5 -3.83301 43.5 -5.5s37.5 -2.5 67.5 -2.5z" />
    <glyph glyph-name="Ntilde" unicode="&#xd1;" horiz-adv-x="716" 
d="M83 0v703h201l216 -514h6l-14 514h143v-703h-201l-216 515h-6l14 -515h-143zM477 750c-14.667 0 -32.167 2.33203 -52.5 6.99902s-40.833 9.83398 -61.5 15.501l-55.5 15.5c-16.333 4.66699 -27.833 7 -34.5 7c-5.33301 0 -10.5 -3.33301 -15.5 -10s-9 -13.5 -12 -20.5
l-4.5 -10.5l-76 10c1.33301 45.333 10.833 77.666 28.5 96.999s40.5 29 68.5 29c15.333 0 33 -2.16699 53 -6.5s40.333 -9.33301 61 -15l55.5 -15c16.333 -4.33301 27.833 -6.5 34.5 -6.5c5.33301 0 10.333 3.33301 15 10s8.5 13.334 11.5 20.001l4.5 10l75 -12
c-0.666992 -44.667 -9.66699 -76.667 -27 -96s-40 -29 -68 -29z" />
    <glyph glyph-name="Ograve" unicode="&#xd2;" horiz-adv-x="700" 
d="M350 -13c-40.667 0 -79.167 5.33301 -115.5 16s-68.333 29.334 -96 56.001s-49.334 63.834 -65.001 111.501s-23.5 108.5 -23.5 182.5s7.83301 134.667 23.5 182s37.334 84.166 65.001 110.499s59.667 44.666 96 54.999s74.833 15.5 115.5 15.5
c41.333 0 80 -5.16699 116 -15.5s67.833 -28.666 95.5 -54.999s49.334 -63.166 65.001 -110.499s23.5 -108 23.5 -182s-7.83301 -134.833 -23.5 -182.5s-37.334 -84.834 -65.001 -111.501s-59.5 -45.334 -95.5 -56.001s-74.667 -16 -116 -16zM350 125
c24 0 44.502 2.83496 61.502 8.50195s31.167 16.334 42.5 32.001s19.666 38.5 24.999 68.5s8 69.333 8 118c0 48 -2.66699 87 -8 117s-13.5 52.833 -24.5 68.5s-25.167 26.334 -42.5 32.001s-38 8.5 -62 8.5s-44.667 -2.83301 -62 -8.5s-31.5 -16.334 -42.5 -32.001
s-19.167 -38.5 -24.5 -68.5s-8 -69.333 -8 -118s2.66699 -87.834 8 -117.501s13.666 -52.334 24.999 -68.001s25.5 -26.334 42.5 -32.001s37.5 -8.5 61.5 -8.5zM497.002 751.002l-308 42l20 113l302 -71z" />
    <glyph glyph-name="Oacute" unicode="&#xd3;" horiz-adv-x="700" 
d="M350 -13c-40.667 0 -79.167 5.33301 -115.5 16s-68.333 29.334 -96 56.001s-49.334 63.834 -65.001 111.501s-23.5 108.5 -23.5 182.5s7.83301 134.667 23.5 182s37.334 84.166 65.001 110.499s59.667 44.666 96 54.999s74.833 15.5 115.5 15.5
c41.333 0 80 -5.16699 116 -15.5s67.833 -28.666 95.5 -54.999s49.334 -63.166 65.001 -110.499s23.5 -108 23.5 -182s-7.83301 -134.833 -23.5 -182.5s-37.334 -84.834 -65.001 -111.501s-59.5 -45.334 -95.5 -56.001s-74.667 -16 -116 -16zM350 125
c24 0 44.502 2.83496 61.502 8.50195s31.167 16.334 42.5 32.001s19.666 38.5 24.999 68.5s8 69.333 8 118c0 48 -2.66699 87 -8 117s-13.5 52.833 -24.5 68.5s-25.167 26.334 -42.5 32.001s-38 8.5 -62 8.5s-44.667 -2.83301 -62 -8.5s-31.5 -16.334 -42.5 -32.001
s-19.167 -38.5 -24.5 -68.5s-8 -69.333 -8 -118s2.66699 -87.834 8 -117.501s13.666 -52.334 24.999 -68.001s25.5 -26.334 42.5 -32.001s37.5 -8.5 61.5 -8.5zM224.002 750.002l-20 83l294 77l28 -110z" />
    <glyph glyph-name="Ocircumflex" unicode="&#xd4;" horiz-adv-x="700" 
d="M350 -13c-40.667 0 -79.167 5.33301 -115.5 16s-68.333 29.334 -96 56.001s-49.334 63.834 -65.001 111.501s-23.5 108.5 -23.5 182.5s7.83301 134.667 23.5 182s37.334 84.166 65.001 110.499s59.667 44.666 96 54.999s74.833 15.5 115.5 15.5
c41.333 0 80 -5.16699 116 -15.5s67.833 -28.666 95.5 -54.999s49.334 -63.166 65.001 -110.499s23.5 -108 23.5 -182s-7.83301 -134.833 -23.5 -182.5s-37.334 -84.834 -65.001 -111.501s-59.5 -45.334 -95.5 -56.001s-74.667 -16 -116 -16zM350 125
c24 0 44.502 2.83496 61.502 8.50195s31.167 16.334 42.5 32.001s19.666 38.5 24.999 68.5s8 69.333 8 118c0 48 -2.66699 87 -8 117s-13.5 52.833 -24.5 68.5s-25.167 26.334 -42.5 32.001s-38 8.5 -62 8.5s-44.667 -2.83301 -62 -8.5s-31.5 -16.334 -42.5 -32.001
s-19.167 -38.5 -24.5 -68.5s-8 -69.333 -8 -118s2.66699 -87.834 8 -117.501s13.666 -52.334 24.999 -68.001s25.5 -26.334 42.5 -32.001s37.5 -8.5 61.5 -8.5zM178.002 740.002l-33 61l167 100h73l167 -100l-33 -61l-167 59h-7z" />
    <glyph glyph-name="Otilde" unicode="&#xd5;" horiz-adv-x="700" 
d="M350 -13c-40.667 0 -79.167 5.33301 -115.5 16s-68.333 29.334 -96 56.001s-49.334 63.834 -65.001 111.501s-23.5 108.5 -23.5 182.5s7.83301 134.667 23.5 182s37.334 84.166 65.001 110.499s59.667 44.666 96 54.999s74.833 15.5 115.5 15.5
c41.333 0 80 -5.16699 116 -15.5s67.833 -28.666 95.5 -54.999s49.334 -63.166 65.001 -110.499s23.5 -108 23.5 -182s-7.83301 -134.833 -23.5 -182.5s-37.334 -84.834 -65.001 -111.501s-59.5 -45.334 -95.5 -56.001s-74.667 -16 -116 -16zM350 125
c24 0 44.502 2.83496 61.502 8.50195s31.167 16.334 42.5 32.001s19.666 38.5 24.999 68.5s8 69.333 8 118c0 48 -2.66699 87 -8 117s-13.5 52.833 -24.5 68.5s-25.167 26.334 -42.5 32.001s-38 8.5 -62 8.5s-44.667 -2.83301 -62 -8.5s-31.5 -16.334 -42.5 -32.001
s-19.167 -38.5 -24.5 -68.5s-8 -69.333 -8 -118s2.66699 -87.834 8 -117.501s13.666 -52.334 24.999 -68.001s25.5 -26.334 42.5 -32.001s37.5 -8.5 61.5 -8.5zM469.002 750.002c-14.667 0 -32.167 2.33203 -52.5 6.99902s-40.833 9.83398 -61.5 15.501l-55.5 15.5
c-16.333 4.66699 -27.833 7 -34.5 7c-5.33301 0 -10.5 -3.33301 -15.5 -10s-9 -13.5 -12 -20.5l-4.5 -10.5l-76 10c1.33301 45.333 10.833 77.666 28.5 96.999s40.5 29 68.5 29c15.333 0 33 -2.16699 53 -6.5s40.333 -9.33301 61 -15l55.5 -15
c16.333 -4.33301 27.833 -6.5 34.5 -6.5c5.33301 0 10.333 3.33301 15 10s8.5 13.334 11.5 20.001l4.5 10l75 -12c-0.666992 -44.667 -9.66699 -76.667 -27 -96s-40 -29 -68 -29z" />
    <glyph glyph-name="Odieresis" unicode="&#xd6;" horiz-adv-x="700" 
d="M350 -13c-40.667 0 -79.167 5.33301 -115.5 16s-68.333 29.334 -96 56.001s-49.334 63.834 -65.001 111.501s-23.5 108.5 -23.5 182.5s7.83301 134.667 23.5 182s37.334 84.166 65.001 110.499s59.667 44.666 96 54.999s74.833 15.5 115.5 15.5
c41.333 0 80 -5.16699 116 -15.5s67.833 -28.666 95.5 -54.999s49.334 -63.166 65.001 -110.499s23.5 -108 23.5 -182s-7.83301 -134.833 -23.5 -182.5s-37.334 -84.834 -65.001 -111.501s-59.5 -45.334 -95.5 -56.001s-74.667 -16 -116 -16zM350 125
c24 0 44.502 2.83496 61.502 8.50195s31.167 16.334 42.5 32.001s19.666 38.5 24.999 68.5s8 69.333 8 118c0 48 -2.66699 87 -8 117s-13.5 52.833 -24.5 68.5s-25.167 26.334 -42.5 32.001s-38 8.5 -62 8.5s-44.667 -2.83301 -62 -8.5s-31.5 -16.334 -42.5 -32.001
s-19.167 -38.5 -24.5 -68.5s-8 -69.333 -8 -118s2.66699 -87.834 8 -117.501s13.666 -52.334 24.999 -68.001s25.5 -26.334 42.5 -32.001s37.5 -8.5 61.5 -8.5zM158.002 761.002v108h147v-108h-147zM383.002 761.002v108h147v-108h-147z" />
    <glyph glyph-name="multiply" unicode="&#xd7;" horiz-adv-x="591" 
d="M126 29l-93 93l169 169l-170 169l93 93l170 -170l171 172l93 -93l-172 -171l169 -169l-93 -92l-168 168z" />
    <glyph glyph-name="Oslash" unicode="&#xd8;" horiz-adv-x="700" 
d="M104 -39l193 398l166 370h116l-191 -401l-167 -367h-117zM350 -13c-40.667 0 -79.167 5.33301 -115.5 16s-68.333 29.334 -96 56.001s-49.334 63.834 -65.001 111.501s-23.5 108.5 -23.5 182.5s7.83301 134.667 23.5 182s37.334 84.166 65.001 110.499
s59.667 44.666 96 54.999s74.833 15.5 115.5 15.5c41.333 0 80 -5.16699 116 -15.5s67.833 -28.666 95.5 -54.999s49.334 -63.166 65.001 -110.499s23.5 -108 23.5 -182s-7.83301 -134.833 -23.5 -182.5s-37.334 -84.834 -65.001 -111.501s-59.5 -45.334 -95.5 -56.001
s-74.667 -16 -116 -16zM350 125c24 0 44.502 2.83496 61.502 8.50195s31.167 16.334 42.5 32.001s19.666 38.5 24.999 68.5s8 69.333 8 118c0 48 -2.66699 87 -8 117s-13.5 52.833 -24.5 68.5s-25.167 26.334 -42.5 32.001s-38 8.5 -62 8.5s-44.667 -2.83301 -62 -8.5
s-31.5 -16.334 -42.5 -32.001s-19.167 -38.5 -24.5 -68.5s-8 -69.333 -8 -118s2.66699 -87.834 8 -117.501s13.666 -52.334 24.999 -68.001s25.5 -26.334 42.5 -32.001s37.5 -8.5 61.5 -8.5z" />
    <glyph glyph-name="Ugrave" unicode="&#xd9;" horiz-adv-x="702" 
d="M351 -13c-56.667 0 -104.996 9.33301 -144.996 28s-70.5 51.5 -91.5 98.5s-31.5 112.167 -31.5 195.5v394h157v-366c0 -46.667 1.83301 -84.167 5.5 -112.5s9.66699 -49.666 18 -63.999s19.666 -23.833 33.999 -28.5s32.5 -7 54.5 -7c21.333 0 39.166 2.33301 53.499 7
s25.666 14 33.999 28s14.166 35.167 17.499 63.5s5 66.166 5 113.499v366h157v-386c0 -86 -10.333 -153 -31 -201s-51 -81.5 -91 -100.5s-88.667 -28.5 -146 -28.5zM478.004 751l-308 42l20 113l302 -71z" />
    <glyph glyph-name="Uacute" unicode="&#xda;" horiz-adv-x="702" 
d="M351 -13c-56.667 0 -104.996 9.33301 -144.996 28s-70.5 51.5 -91.5 98.5s-31.5 112.167 -31.5 195.5v394h157v-366c0 -46.667 1.83301 -84.167 5.5 -112.5s9.66699 -49.666 18 -63.999s19.666 -23.833 33.999 -28.5s32.5 -7 54.5 -7c21.333 0 39.166 2.33301 53.499 7
s25.666 14 33.999 28s14.166 35.167 17.499 63.5s5 66.166 5 113.499v366h157v-386c0 -86 -10.333 -153 -31 -201s-51 -81.5 -91 -100.5s-88.667 -28.5 -146 -28.5zM225.004 750l-20 83l294 77l28 -110z" />
    <glyph glyph-name="Ucircumflex" unicode="&#xdb;" horiz-adv-x="702" 
d="M351 -13c-56.667 0 -104.996 9.33301 -144.996 28s-70.5 51.5 -91.5 98.5s-31.5 112.167 -31.5 195.5v394h157v-366c0 -46.667 1.83301 -84.167 5.5 -112.5s9.66699 -49.666 18 -63.999s19.666 -23.833 33.999 -28.5s32.5 -7 54.5 -7c21.333 0 39.166 2.33301 53.499 7
s25.666 14 33.999 28s14.166 35.167 17.499 63.5s5 66.166 5 113.499v366h157v-386c0 -86 -10.333 -153 -31 -201s-51 -81.5 -91 -100.5s-88.667 -28.5 -146 -28.5zM179.004 740l-33 61l167 100h73l167 -100l-33 -61l-167 59h-7z" />
    <glyph glyph-name="Udieresis" unicode="&#xdc;" horiz-adv-x="702" 
d="M351 -13c-56.667 0 -104.996 9.33301 -144.996 28s-70.5 51.5 -91.5 98.5s-31.5 112.167 -31.5 195.5v394h157v-366c0 -46.667 1.83301 -84.167 5.5 -112.5s9.66699 -49.666 18 -63.999s19.666 -23.833 33.999 -28.5s32.5 -7 54.5 -7c21.333 0 39.166 2.33301 53.499 7
s25.666 14 33.999 28s14.166 35.167 17.499 63.5s5 66.166 5 113.499v366h157v-386c0 -86 -10.333 -153 -31 -201s-51 -81.5 -91 -100.5s-88.667 -28.5 -146 -28.5zM155.004 761v108h147v-108h-147zM380.004 761v108h147v-108h-147z" />
    <glyph glyph-name="Yacute" unicode="&#xdd;" horiz-adv-x="580" 
d="M209 0l3 253l-216 450h168l122 -322h6l122 322h168l-216 -450l2 -253h-159zM192 750l-20 83l294 77l28 -110z" />
    <glyph glyph-name="Thorn" unicode="&#xde;" horiz-adv-x="631" 
d="M81 0l4.00098 365.999l-4 337h157v-83c20 1.33301 40.167 2.33301 60.5 3s39.833 1 58.5 1c74 0 131.333 -20.667 172 -62s61 -103 61 -185c0 -51.333 -7.16699 -93.666 -21.5 -126.999s-33.833 -59.5 -58.5 -78.5s-52.167 -32.333 -82.5 -40s-61.5 -11.5 -93.5 -11.5
c-17.333 0 -33.333 0.166992 -48 0.5s-26.334 0.833008 -35.001 1.5l-13 1v-123h-157zM342.001 251.999c17.333 0 31.165 1.5 41.498 4.5s17.833 6.5 22.5 10.5c8 7.33301 13.667 20.333 17 39s5 45 5 79c0 26.667 -1.33301 46.5 -4 59.5s-5.66699 22 -9 27
s-6.66602 8.83301 -9.99902 11.5c-4 4 -12 7.33301 -24 10s-28.667 4 -50 4c-16 0 -32.167 -0.5 -48.5 -1.5s-31.166 -2.16699 -44.499 -3.5v-233l31 -3.5c20.667 -2.33301 45 -3.5 73 -3.5z" />
    <glyph glyph-name="germandbls" unicode="&#xdf;" horiz-adv-x="671" 
d="M385 -13c-20.667 0 -38.3379 0.999023 -53.0049 2.99902l-22 3l13 121l13.5 -0.5c9 -0.333008 20.167 -0.5 33.5 -0.5c28.667 0 48.5 7.83301 59.5 23.5s16.5 40.834 16.5 75.501c0 23.333 -3.83301 41.666 -11.5 54.999s-18.834 22.833 -33.501 28.5s-32 8.5 -52 8.5
h-20v118c41.333 3.33301 68.333 11.333 81 24s19 33.667 19 63c0 16.667 -3.5 31.334 -10.5 44.001s-17.667 22.5 -32 29.5s-32.833 10.5 -55.5 10.5c-27.333 0 -49.5 -9.16699 -66.5 -27.5s-25.5 -51.166 -25.5 -98.499v-467h-156v455c0 47.333 7 87.666 21 120.999
s32.833 60.333 56.5 81s50.334 35.667 80.001 45s59.834 14 90.501 14s60.667 -3.83301 90 -11.5s55.833 -19.667 79.5 -36s42.667 -37.166 57 -62.499s21.5 -56 21.5 -92c0 -24 -4.16699 -45.5 -12.5 -64.5s-18.666 -34.833 -30.999 -47.5s-24.833 -22.334 -37.5 -29.001
v-6c16 -6 30.833 -13.5 44.5 -22.5s25.334 -20 35.001 -33s17.334 -28.333 23.001 -46s8.5 -38.5 8.5 -62.5c0 -41.333 -6.83301 -76 -20.5 -104s-31.5 -50.167 -53.5 -66.5s-46.167 -28 -72.5 -35s-52.166 -10.5 -77.499 -10.5z" />
    <glyph glyph-name="agrave" unicode="&#xe0;" horiz-adv-x="622" 
d="M222 -13c-32 0 -60.8311 7.49805 -86.498 22.498s-46.167 36.833 -61.5 65.5s-23 63.334 -23 104.001c0 48.667 11 86.834 33 114.501s53 47.5 93 59.5s87.333 18 142 18h75c0 28.667 -1.33301 49 -4 61s-5.66699 20.667 -9 26c-2.66699 4.66699 -7.83398 9 -15.501 13
s-23.167 6 -46.5 6c-24 0 -48.833 -2 -74.5 -6s-49.5 -8.66699 -71.5 -14s-40 -10 -54 -14l-21 -6l-32 112l20.5 8c13.667 5.33301 32.334 11.333 56.001 18s50.667 12.667 81 18s62.5 8 96.5 8c57.333 0 102.666 -8.83301 135.999 -26.5s57.166 -43 71.499 -76
s21.5 -72.5 21.5 -118.5v-380h-98l-20 65h-6l-17.5 -12c-11.667 -8 -27.167 -17 -46.5 -27s-41 -19 -65 -27s-48.667 -12 -74 -12zM267.002 113.998c18.667 0 37.833 3.16797 57.5 9.50098s36.167 12.666 49.5 18.999l20 9.5v104l-24 2.5c-16 1.66699 -36.667 2.5 -62 2.5
c-44 0 -71.333 -5 -82 -15c-4.66699 -4 -8.66699 -10.833 -12 -20.5s-5 -23.167 -5 -40.5c0 -24.667 4.5 -42.667 13.5 -54s23.833 -17 44.5 -17zM454.001 645.999l-305 58l26 112l298 -87z" />
    <glyph glyph-name="aacute" unicode="&#xe1;" horiz-adv-x="622" 
d="M222 -13c-32 0 -60.8311 7.49805 -86.498 22.498s-46.167 36.833 -61.5 65.5s-23 63.334 -23 104.001c0 48.667 11 86.834 33 114.501s53 47.5 93 59.5s87.333 18 142 18h75c0 28.667 -1.33301 49 -4 61s-5.66699 20.667 -9 26c-2.66699 4.66699 -7.83398 9 -15.501 13
s-23.167 6 -46.5 6c-24 0 -48.833 -2 -74.5 -6s-49.5 -8.66699 -71.5 -14s-40 -10 -54 -14l-21 -6l-32 112l20.5 8c13.667 5.33301 32.334 11.333 56.001 18s50.667 12.667 81 18s62.5 8 96.5 8c57.333 0 102.666 -8.83301 135.999 -26.5s57.166 -43 71.499 -76
s21.5 -72.5 21.5 -118.5v-380h-98l-20 65h-6l-17.5 -12c-11.667 -8 -27.167 -17 -46.5 -27s-41 -19 -65 -27s-48.667 -12 -74 -12zM267.002 113.998c18.667 0 37.833 3.16797 57.5 9.50098s36.167 12.666 49.5 18.999l20 9.5v104l-24 2.5c-16 1.66699 -36.667 2.5 -62 2.5
c-44 0 -71.333 -5 -82 -15c-4.66699 -4 -8.66699 -10.833 -12 -20.5s-5 -23.167 -5 -40.5c0 -24.667 4.5 -42.667 13.5 -54s23.833 -17 44.5 -17zM166.001 645.999l-22 81l293 89l31 -112z" />
    <glyph glyph-name="acircumflex" unicode="&#xe2;" horiz-adv-x="622" 
d="M222 -13c-32 0 -60.8311 7.49805 -86.498 22.498s-46.167 36.833 -61.5 65.5s-23 63.334 -23 104.001c0 48.667 11 86.834 33 114.501s53 47.5 93 59.5s87.333 18 142 18h75c0 28.667 -1.33301 49 -4 61s-5.66699 20.667 -9 26c-2.66699 4.66699 -7.83398 9 -15.501 13
s-23.167 6 -46.5 6c-24 0 -48.833 -2 -74.5 -6s-49.5 -8.66699 -71.5 -14s-40 -10 -54 -14l-21 -6l-32 112l20.5 8c13.667 5.33301 32.334 11.333 56.001 18s50.667 12.667 81 18s62.5 8 96.5 8c57.333 0 102.666 -8.83301 135.999 -26.5s57.166 -43 71.499 -76
s21.5 -72.5 21.5 -118.5v-380h-98l-20 65h-6l-17.5 -12c-11.667 -8 -27.167 -17 -46.5 -27s-41 -19 -65 -27s-48.667 -12 -74 -12zM267.002 113.998c18.667 0 37.833 3.16797 57.5 9.50098s36.167 12.666 49.5 18.999l20 9.5v104l-24 2.5c-16 1.66699 -36.667 2.5 -62 2.5
c-44 0 -71.333 -5 -82 -15c-4.66699 -4 -8.66699 -10.833 -12 -20.5s-5 -23.167 -5 -40.5c0 -24.667 4.5 -42.667 13.5 -54s23.833 -17 44.5 -17zM140.001 636.999l-33 61l167 105h73l167 -105l-33 -61l-167 64h-7z" />
    <glyph glyph-name="atilde" unicode="&#xe3;" horiz-adv-x="622" 
d="M222 -13c-32 0 -60.8311 7.49805 -86.498 22.498s-46.167 36.833 -61.5 65.5s-23 63.334 -23 104.001c0 48.667 11 86.834 33 114.501s53 47.5 93 59.5s87.333 18 142 18h75c0 28.667 -1.33301 49 -4 61s-5.66699 20.667 -9 26c-2.66699 4.66699 -7.83398 9 -15.501 13
s-23.167 6 -46.5 6c-24 0 -48.833 -2 -74.5 -6s-49.5 -8.66699 -71.5 -14s-40 -10 -54 -14l-21 -6l-32 112l20.5 8c13.667 5.33301 32.334 11.333 56.001 18s50.667 12.667 81 18s62.5 8 96.5 8c57.333 0 102.666 -8.83301 135.999 -26.5s57.166 -43 71.499 -76
s21.5 -72.5 21.5 -118.5v-380h-98l-20 65h-6l-17.5 -12c-11.667 -8 -27.167 -17 -46.5 -27s-41 -19 -65 -27s-48.667 -12 -74 -12zM267.002 113.998c18.667 0 37.833 3.16797 57.5 9.50098s36.167 12.666 49.5 18.999l20 9.5v104l-24 2.5c-16 1.66699 -36.667 2.5 -62 2.5
c-44 0 -71.333 -5 -82 -15c-4.66699 -4 -8.66699 -10.833 -12 -20.5s-5 -23.167 -5 -40.5c0 -24.667 4.5 -42.667 13.5 -54s23.833 -17 44.5 -17zM419.001 655.999c-14.667 0 -32.167 2.33105 -52.5 6.99805s-40.833 9.83398 -61.5 15.501l-55.5 15.5
c-16.333 4.66699 -27.833 7 -34.5 7c-5.33301 0 -10.5 -3.33301 -15.5 -10s-9 -13.5 -12 -20.5l-4.5 -10.5l-76 10c1.33301 46 10.833 78.833 28.5 98.5s40.5 29.5 68.5 29.5c15.333 0 33 -2.16699 53 -6.5s40.333 -9.33301 61 -15l55.5 -15
c16.333 -4.33301 27.833 -6.5 34.5 -6.5c5.33301 0 10.333 3.33301 15 10s8.5 13.334 11.5 20.001l4.5 10l75 -12c-0.666992 -45.333 -9.66699 -77.833 -27 -97.5s-40 -29.5 -68 -29.5z" />
    <glyph glyph-name="adieresis" unicode="&#xe4;" horiz-adv-x="622" 
d="M222 -13c-32 0 -60.8311 7.49805 -86.498 22.498s-46.167 36.833 -61.5 65.5s-23 63.334 -23 104.001c0 48.667 11 86.834 33 114.501s53 47.5 93 59.5s87.333 18 142 18h75c0 28.667 -1.33301 49 -4 61s-5.66699 20.667 -9 26c-2.66699 4.66699 -7.83398 9 -15.501 13
s-23.167 6 -46.5 6c-24 0 -48.833 -2 -74.5 -6s-49.5 -8.66699 -71.5 -14s-40 -10 -54 -14l-21 -6l-32 112l20.5 8c13.667 5.33301 32.334 11.333 56.001 18s50.667 12.667 81 18s62.5 8 96.5 8c57.333 0 102.666 -8.83301 135.999 -26.5s57.166 -43 71.499 -76
s21.5 -72.5 21.5 -118.5v-380h-98l-20 65h-6l-17.5 -12c-11.667 -8 -27.167 -17 -46.5 -27s-41 -19 -65 -27s-48.667 -12 -74 -12zM267.002 113.998c18.667 0 37.833 3.16797 57.5 9.50098s36.167 12.666 49.5 18.999l20 9.5v104l-24 2.5c-16 1.66699 -36.667 2.5 -62 2.5
c-44 0 -71.333 -5 -82 -15c-4.66699 -4 -8.66699 -10.833 -12 -20.5s-5 -23.167 -5 -40.5c0 -24.667 4.5 -42.667 13.5 -54s23.833 -17 44.5 -17zM120.001 667.999v108h147v-108h-147zM345.001 667.999v108h147v-108h-147z" />
    <glyph glyph-name="aring" unicode="&#xe5;" horiz-adv-x="622" 
d="M222 -13c-32 0 -60.8311 7.49805 -86.498 22.498s-46.167 36.833 -61.5 65.5s-23 63.334 -23 104.001c0 48.667 11 86.834 33 114.501s53 47.5 93 59.5s87.333 18 142 18h75c0 28.667 -1.33301 49 -4 61s-5.66699 20.667 -9 26c-2.66699 4.66699 -7.83398 9 -15.501 13
s-23.167 6 -46.5 6c-24 0 -48.833 -2 -74.5 -6s-49.5 -8.66699 -71.5 -14s-40 -10 -54 -14l-21 -6l-32 112l20.5 8c13.667 5.33301 32.334 11.333 56.001 18s50.667 12.667 81 18s62.5 8 96.5 8c57.333 0 102.666 -8.83301 135.999 -26.5s57.166 -43 71.499 -76
s21.5 -72.5 21.5 -118.5v-380h-98l-20 65h-6l-17.5 -12c-11.667 -8 -27.167 -17 -46.5 -27s-41 -19 -65 -27s-48.667 -12 -74 -12zM267.002 113.998c18.667 0 37.833 3.16797 57.5 9.50098s36.167 12.666 49.5 18.999l20 9.5v104l-24 2.5c-16 1.66699 -36.667 2.5 -62 2.5
c-44 0 -71.333 -5 -82 -15c-4.66699 -4 -8.66699 -10.833 -12 -20.5s-5 -23.167 -5 -40.5c0 -24.667 4.5 -42.667 13.5 -54s23.833 -17 44.5 -17zM311.001 639.999c-16.667 0 -33.166 2.83301 -49.499 8.5s-29.833 15.5 -40.5 29.5s-16 33.333 -16 58c0 26 5.33301 46 16 60
s24.167 23.667 40.5 29s33.166 8 50.499 8c16.667 0 33 -2.66699 49 -8s29.167 -15 39.5 -29s15.5 -34 15.5 -60c0 -24.667 -5.16699 -44 -15.5 -58s-23.5 -23.833 -39.5 -29.5s-32.667 -8.5 -50 -8.5zM311.002 696.999c14.667 0 25.167 2.83301 31.5 8.5
s9.5 15.834 9.5 30.501c0 16 -3.16699 26.333 -9.5 31s-16.833 7 -31.5 7s-25.334 -2.33301 -32.001 -7s-10 -15 -10 -31c0 -14.667 3.33301 -24.834 10 -30.501s17.334 -8.5 32.001 -8.5z" />
    <glyph glyph-name="ae" unicode="&#xe6;" horiz-adv-x="952" 
d="M231 -13c-51.333 0 -93.3291 16.8301 -125.996 50.4971s-49 81.834 -49 144.501c0 47.333 11.167 84.5 33.5 111.5s53.5 46.167 93.5 57.5s87 17 141 17h75c0 24.667 -1.16699 44.667 -3.5 60s-5.5 25.333 -9.5 30c-2.66699 4.66699 -7.83398 9 -15.501 13
s-21.834 6 -42.501 6c-25.333 0 -51.166 -2 -77.499 -6s-50.666 -8.66699 -72.999 -14s-40.333 -10 -54 -14l-20.5 -6l-32 112l20 8c13.333 5.33301 31.833 11.333 55.5 18s51.167 12.667 82.5 18s65 8 101 8c37.333 0 69.166 -4.33301 95.499 -13
s48.166 -20.667 65.499 -36h4c23.333 17.333 49.333 29.833 78 37.5s59.667 11.5 93 11.5c52 0 96 -8.66699 132 -26s63.5 -46 82.5 -86s28.5 -94.333 28.5 -163v-83h-352v-14c1.33301 -19.333 3.5 -35.833 6.5 -49.5s6.83301 -24.5 11.5 -32.5s9 -14 13 -18
c6.66699 -6 15 -10.667 25 -14s22.333 -5 37 -5c19.333 0 41 2.16699 65 6.5s47 9.33301 69 15s40.167 10.667 54.5 15l21.5 6.5l38 -112l-19.5 -8c-13 -5.33301 -30.5 -11.666 -52.5 -18.999s-46.667 -13.666 -74 -18.999s-55.333 -8 -84 -8c-45.333 0 -86 6.66699 -122 20
s-66 36.333 -90 69h-4l-59.5 -36c-23.667 -14 -49.334 -26.333 -77.001 -37s-55.834 -16 -84.501 -16zM270.004 113.997c20 0 39.833 3.16699 59.5 9.5s36.167 12.666 49.5 18.999l20 9.5v101l-24 2.5c-16 1.66699 -36.333 2.5 -61 2.5c-24 0 -42.333 -1.16699 -55 -3.5
s-22 -6.16602 -28 -11.499c-4.66699 -4 -8.66699 -10.333 -12 -19s-5 -21.334 -5 -38.001c0 -25.333 4.33301 -43.666 13 -54.999s23 -17 43 -17zM558.004 354.997l192.997 4c-0.666992 25.333 -2.33398 46 -5.00098 62s-7 28 -13 36
c-4.66699 5.33301 -11.667 10.333 -21 15s-24.666 7 -45.999 7c-23.333 0 -41.166 -2.5 -53.499 -7.5s-21.833 -11.167 -28.5 -18.5c-7.33301 -8.66699 -13.166 -21 -17.499 -37s-7.16602 -36.333 -8.49902 -61z" />
    <glyph glyph-name="ccedilla" unicode="&#xe7;" horiz-adv-x="543" 
d="M285 -179c-22.667 0 -42.833 1.50098 -60.5 4.50098l-26.5 4.5v87l12.5 -1l30 -2.5c11.667 -1 22.5 -1.5 32.5 -1.5c15.333 0 26.833 1.66699 34.5 5s11.5 11.666 11.5 24.999c0 15.333 -1.66699 31.5 -5 48.5s-5.33301 26.833 -6 29.5l76 20
c0.666992 -0.666992 2.66699 -6.16699 6 -16.5s6.83301 -23.5 10.5 -39.5s5.5 -33.333 5.5 -52c0 -34 -10.5 -61 -31.5 -81s-50.833 -30 -89.5 -30zM314.001 -12.999c-52 0 -98.001 10.5039 -138.001 31.5039s-71.333 54.167 -94 99.5s-34 104.666 -34 177.999
c0 60.667 7.66699 110.834 23 150.501s36.5 70.667 63.5 93s58.167 38.166 93.5 47.499s72.666 14 111.999 14c37.333 0 71.166 -2.66699 101.499 -8s52.833 -10 67.5 -14l-17 -117c-19.333 3.33301 -44.5 6.83301 -75.5 10.5s-60.167 5.5 -87.5 5.5
c-28 0 -47.833 -2.16699 -59.5 -6.5s-20.5 -9.5 -26.5 -15.5c-12 -12.667 -21.167 -32.334 -27.5 -59.001s-9.5 -60.334 -9.5 -101.001c0 -38.667 2.5 -69.5 7.5 -92.5s11.333 -40.5 19 -52.5s14.834 -20.667 21.501 -26c4 -2.66699 10.167 -5.83398 18.5 -9.50098
s19.833 -5.5 34.5 -5.5c16 0 33.833 2.5 53.5 7.5s38.834 10.667 57.501 17s34 11.833 46 16.5l18 7l42 -110l-25.5 -15.5c-17 -10.333 -41.167 -20.5 -72.5 -30.5s-68.666 -15 -111.999 -15z" />
    <glyph glyph-name="egrave" unicode="&#xe8;" horiz-adv-x="611" 
d="M322 -14c-54 0 -101.5 10.0049 -142.5 30.0049s-72.833 52.667 -95.5 98s-34 105.666 -34 180.999c0 78.667 12 140.167 36 184.5s56.333 75.833 97 94.5s86.334 28 137.001 28c52 0 96 -9 132 -27s63.5 -47.333 82.5 -88s28.5 -95.334 28.5 -164.001v-83h-426l70 22
c0 -24 1 -44.833 3 -62.5s5.33301 -32.334 10 -44.001s10.667 -20.834 18 -27.501c6.66699 -6 15.167 -10.667 25.5 -14s23.833 -5 40.5 -5c18 0 38 1.83301 60 5.5s43.5 8.16699 64.5 13.5s39.167 10.166 54.5 14.499s25.666 7.5 30.999 9.5l38 -112
c-6 -2.66699 -20.5 -8.5 -43.5 -17.5s-50.667 -17.333 -83 -25s-66.833 -11.5 -103.5 -11.5zM207 330.005l-68.999 20.999l337 6l-70 -22c0 32 -1.33301 58.333 -4 79s-7.33398 35.334 -14.001 44.001c-4.66699 5.33301 -11.667 10.333 -21 15s-24.666 7 -45.999 7
c-25.333 0 -44.333 -2.5 -57 -7.5s-22.334 -11.167 -29.001 -18.5c-18 -18.667 -27 -60 -27 -124zM463.001 646.004l-305 58l26 112l298 -87z" />
    <glyph glyph-name="eacute" unicode="&#xe9;" horiz-adv-x="611" 
d="M322 -14c-54 0 -101.5 10.0049 -142.5 30.0049s-72.833 52.667 -95.5 98s-34 105.666 -34 180.999c0 78.667 12 140.167 36 184.5s56.333 75.833 97 94.5s86.334 28 137.001 28c52 0 96 -9 132 -27s63.5 -47.333 82.5 -88s28.5 -95.334 28.5 -164.001v-83h-426l70 22
c0 -24 1 -44.833 3 -62.5s5.33301 -32.334 10 -44.001s10.667 -20.834 18 -27.501c6.66699 -6 15.167 -10.667 25.5 -14s23.833 -5 40.5 -5c18 0 38 1.83301 60 5.5s43.5 8.16699 64.5 13.5s39.167 10.166 54.5 14.499s25.666 7.5 30.999 9.5l38 -112
c-6 -2.66699 -20.5 -8.5 -43.5 -17.5s-50.667 -17.333 -83 -25s-66.833 -11.5 -103.5 -11.5zM207 330.005l-68.999 20.999l337 6l-70 -22c0 32 -1.33301 58.333 -4 79s-7.33398 35.334 -14.001 44.001c-4.66699 5.33301 -11.667 10.333 -21 15s-24.666 7 -45.999 7
c-25.333 0 -44.333 -2.5 -57 -7.5s-22.334 -11.167 -29.001 -18.5c-18 -18.667 -27 -60 -27 -124zM175.001 646.004l-22 81l293 89l31 -112z" />
    <glyph glyph-name="ecircumflex" unicode="&#xea;" horiz-adv-x="611" 
d="M322 -14c-54 0 -101.5 10.0049 -142.5 30.0049s-72.833 52.667 -95.5 98s-34 105.666 -34 180.999c0 78.667 12 140.167 36 184.5s56.333 75.833 97 94.5s86.334 28 137.001 28c52 0 96 -9 132 -27s63.5 -47.333 82.5 -88s28.5 -95.334 28.5 -164.001v-83h-426l70 22
c0 -24 1 -44.833 3 -62.5s5.33301 -32.334 10 -44.001s10.667 -20.834 18 -27.501c6.66699 -6 15.167 -10.667 25.5 -14s23.833 -5 40.5 -5c18 0 38 1.83301 60 5.5s43.5 8.16699 64.5 13.5s39.167 10.166 54.5 14.499s25.666 7.5 30.999 9.5l38 -112
c-6 -2.66699 -20.5 -8.5 -43.5 -17.5s-50.667 -17.333 -83 -25s-66.833 -11.5 -103.5 -11.5zM207 330.005l-68.999 20.999l337 6l-70 -22c0 32 -1.33301 58.333 -4 79s-7.33398 35.334 -14.001 44.001c-4.66699 5.33301 -11.667 10.333 -21 15s-24.666 7 -45.999 7
c-25.333 0 -44.333 -2.5 -57 -7.5s-22.334 -11.167 -29.001 -18.5c-18 -18.667 -27 -60 -27 -124zM149.001 637.004l-33 61l167 105h73l167 -105l-33 -61l-167 64h-7z" />
    <glyph glyph-name="edieresis" unicode="&#xeb;" horiz-adv-x="611" 
d="M322 -14c-54 0 -101.5 10.0049 -142.5 30.0049s-72.833 52.667 -95.5 98s-34 105.666 -34 180.999c0 78.667 12 140.167 36 184.5s56.333 75.833 97 94.5s86.334 28 137.001 28c52 0 96 -9 132 -27s63.5 -47.333 82.5 -88s28.5 -95.334 28.5 -164.001v-83h-426l70 22
c0 -24 1 -44.833 3 -62.5s5.33301 -32.334 10 -44.001s10.667 -20.834 18 -27.501c6.66699 -6 15.167 -10.667 25.5 -14s23.833 -5 40.5 -5c18 0 38 1.83301 60 5.5s43.5 8.16699 64.5 13.5s39.167 10.166 54.5 14.499s25.666 7.5 30.999 9.5l38 -112
c-6 -2.66699 -20.5 -8.5 -43.5 -17.5s-50.667 -17.333 -83 -25s-66.833 -11.5 -103.5 -11.5zM207 330.005l-68.999 20.999l337 6l-70 -22c0 32 -1.33301 58.333 -4 79s-7.33398 35.334 -14.001 44.001c-4.66699 5.33301 -11.667 10.333 -21 15s-24.666 7 -45.999 7
c-25.333 0 -44.333 -2.5 -57 -7.5s-22.334 -11.167 -29.001 -18.5c-18 -18.667 -27 -60 -27 -124zM129.001 668.004v108h147v-108h-147zM354.001 668.004v108h147v-108h-147z" />
    <glyph glyph-name="igrave" unicode="&#xec;" horiz-adv-x="323" 
d="M271 646l-285 57l26 108l278 -82zM78 0v588h155v-588h-155z" />
    <glyph glyph-name="iacute" unicode="&#xed;" horiz-adv-x="323" 
d="M44 646l-22 82l273 88l31 -112zM78 0v588h155v-588h-155z" />
    <glyph glyph-name="icircumflex" unicode="&#xee;" horiz-adv-x="323" 
d="M12 640l-33 62l147 101h73l147 -101l-33 -62l-147 61h-7zM78 0v588h155v-588h-155z" />
    <glyph glyph-name="idieresis" unicode="&#xef;" horiz-adv-x="323" 
d="M-15 668v108h147v-108h-147zM190 668v108h147v-108h-147zM78 0v588h155v-588h-155z" />
    <glyph glyph-name="eth" unicode="&#xf0;" horiz-adv-x="625" 
d="M310 -13c-63.333 0 -113.834 12.332 -151.501 36.999s-64.5 57.167 -80.5 97.5s-24 84.5 -24 132.5c0 48.667 7.83301 93.167 23.5 133.5s41 72.833 76 97.5s81.167 37 138.5 37c36.667 0 66.5 -4.5 89.5 -13.5s41.833 -18.167 56.5 -27.5l6 3
c-6.66699 19.333 -16 38.333 -28 57s-25.667 36.334 -41 53.001l-130 -45l-8 90l79 25c-7.33301 6.66699 -16.833 13.667 -28.5 21s-23.167 14 -34.5 20l89 69c17.333 -9.33301 33.833 -19.333 49.5 -30s30.167 -21.667 43.5 -33l97 35l7 -94l-42 -15
c16.667 -24 30.334 -53.167 41.001 -87.5s18.667 -71.333 24 -111s8 -80.167 8 -121.5c0 -66 -7.83301 -123.833 -23.5 -173.5s-42.5 -88.167 -80.5 -115.5s-90 -41 -156 -41zM312.999 104.999c26 0 46.166 4.66699 60.499 14s24.333 25 30 47s8.5 51.333 8.5 88
c0 37.333 -3 67 -9 89s-16.167 37.667 -30.5 47s-34.166 14 -59.499 14s-45.5 -4.66699 -60.5 -14s-25.5 -25 -31.5 -47s-9 -51.667 -9 -89c0 -36.667 3 -66 9 -88s16.333 -37.667 31 -47s35 -14 61 -14z" />
    <glyph glyph-name="ntilde" unicode="&#xf1;" 
d="M79 0l0.000976562 588.003h99l18 -59h6c13.333 8 27.833 16.167 43.5 24.5s32.5 16.166 50.5 23.499s37 13.166 57 17.499s41 6.5 63 6.5c41.333 0 72.666 -9.33301 93.999 -28s36 -44.334 44 -77.001s12 -69.667 12 -111v-385h-155v356c0 27.333 -0.666992 48 -2 62
s-5.33301 25 -12 33c-4 5.33301 -9.33301 9.16602 -16 11.499s-14.667 3.5 -24 3.5c-12.667 0 -26.5 -2 -41.5 -6s-29.667 -9.16699 -44 -15.5s-26.833 -13.166 -37.5 -20.499v-424h-155zM435.001 656.003c-14.667 0 -32.167 2.33105 -52.5 6.99805
s-40.833 9.83398 -61.5 15.501l-55.5 15.5c-16.333 4.66699 -27.833 7 -34.5 7c-5.33301 0 -10.5 -3.33301 -15.5 -10s-9 -13.5 -12 -20.5l-4.5 -10.5l-76 10c1.33301 46 10.833 78.833 28.5 98.5s40.5 29.5 68.5 29.5c15.333 0 33 -2.16699 53 -6.5s40.333 -9.33301 61 -15
l55.5 -15c16.333 -4.33301 27.833 -6.5 34.5 -6.5c5.33301 0 10.333 3.33301 15 10s8.5 13.334 11.5 20.001l4.5 10l75 -12c-0.666992 -45.333 -9.66699 -77.833 -27 -97.5s-40 -29.5 -68 -29.5z" />
    <glyph glyph-name="ograve" unicode="&#xf2;" horiz-adv-x="612" 
d="M307 -13c-64.667 0 -116.001 12.499 -154.001 37.499s-65 60.5 -81 106.5s-24 100.667 -24 164c0 62.667 8 116.834 24 162.501s43 81 81 106s89.667 37.5 155 37.5c64.667 0 115.667 -12.5 153 -37.5s63.833 -60.333 79.5 -106s23.5 -100.167 23.5 -163.5
c0 -62.667 -7.83301 -117 -23.5 -163s-42.167 -81.5 -79.5 -106.5s-88.666 -37.5 -153.999 -37.5zM306.999 104.999c19.333 0 35.3311 2.66699 47.998 8s22.834 15 30.501 29s13 33.333 16 58s4.5 56.334 4.5 95.001c0 38 -1.66699 69.333 -5 94
s-8.66602 43.834 -15.999 57.501s-17.333 23.167 -30 28.5s-28.667 8 -48 8s-35.5 -2.66699 -48.5 -8s-23.333 -14.833 -31 -28.5s-13.167 -32.834 -16.5 -57.501s-5 -56 -5 -94c0 -38.667 1.66699 -70.334 5 -95.001s8.83301 -44 16.5 -58s18 -23.667 31 -29
s29.167 -8 48.5 -8zM448.997 645.999l-305 58l26 112l298 -87z" />
    <glyph glyph-name="oacute" unicode="&#xf3;" horiz-adv-x="612" 
d="M307 -13c-64.667 0 -116.001 12.499 -154.001 37.499s-65 60.5 -81 106.5s-24 100.667 -24 164c0 62.667 8 116.834 24 162.501s43 81 81 106s89.667 37.5 155 37.5c64.667 0 115.667 -12.5 153 -37.5s63.833 -60.333 79.5 -106s23.5 -100.167 23.5 -163.5
c0 -62.667 -7.83301 -117 -23.5 -163s-42.167 -81.5 -79.5 -106.5s-88.666 -37.5 -153.999 -37.5zM306.999 104.999c19.333 0 35.3311 2.66699 47.998 8s22.834 15 30.501 29s13 33.333 16 58s4.5 56.334 4.5 95.001c0 38 -1.66699 69.333 -5 94
s-8.66602 43.834 -15.999 57.501s-17.333 23.167 -30 28.5s-28.667 8 -48 8s-35.5 -2.66699 -48.5 -8s-23.333 -14.833 -31 -28.5s-13.167 -32.834 -16.5 -57.501s-5 -56 -5 -94c0 -38.667 1.66699 -70.334 5 -95.001s8.83301 -44 16.5 -58s18 -23.667 31 -29
s29.167 -8 48.5 -8zM176.997 645.999l-22 81l293 89l31 -112z" />
    <glyph glyph-name="ocircumflex" unicode="&#xf4;" horiz-adv-x="612" 
d="M307 -13c-64.667 0 -116.001 12.499 -154.001 37.499s-65 60.5 -81 106.5s-24 100.667 -24 164c0 62.667 8 116.834 24 162.501s43 81 81 106s89.667 37.5 155 37.5c64.667 0 115.667 -12.5 153 -37.5s63.833 -60.333 79.5 -106s23.5 -100.167 23.5 -163.5
c0 -62.667 -7.83301 -117 -23.5 -163s-42.167 -81.5 -79.5 -106.5s-88.666 -37.5 -153.999 -37.5zM306.999 104.999c19.333 0 35.3311 2.66699 47.998 8s22.834 15 30.501 29s13 33.333 16 58s4.5 56.334 4.5 95.001c0 38 -1.66699 69.333 -5 94
s-8.66602 43.834 -15.999 57.501s-17.333 23.167 -30 28.5s-28.667 8 -48 8s-35.5 -2.66699 -48.5 -8s-23.333 -14.833 -31 -28.5s-13.167 -32.834 -16.5 -57.501s-5 -56 -5 -94c0 -38.667 1.66699 -70.334 5 -95.001s8.83301 -44 16.5 -58s18 -23.667 31 -29
s29.167 -8 48.5 -8zM134.997 636.999l-33 61l167 105h73l167 -105l-33 -61l-167 64h-7z" />
    <glyph glyph-name="otilde" unicode="&#xf5;" horiz-adv-x="612" 
d="M307 -13c-64.667 0 -116.001 12.499 -154.001 37.499s-65 60.5 -81 106.5s-24 100.667 -24 164c0 62.667 8 116.834 24 162.501s43 81 81 106s89.667 37.5 155 37.5c64.667 0 115.667 -12.5 153 -37.5s63.833 -60.333 79.5 -106s23.5 -100.167 23.5 -163.5
c0 -62.667 -7.83301 -117 -23.5 -163s-42.167 -81.5 -79.5 -106.5s-88.666 -37.5 -153.999 -37.5zM306.999 104.999c19.333 0 35.3311 2.66699 47.998 8s22.834 15 30.501 29s13 33.333 16 58s4.5 56.334 4.5 95.001c0 38 -1.66699 69.333 -5 94
s-8.66602 43.834 -15.999 57.501s-17.333 23.167 -30 28.5s-28.667 8 -48 8s-35.5 -2.66699 -48.5 -8s-23.333 -14.833 -31 -28.5s-13.167 -32.834 -16.5 -57.501s-5 -56 -5 -94c0 -38.667 1.66699 -70.334 5 -95.001s8.83301 -44 16.5 -58s18 -23.667 31 -29
s29.167 -8 48.5 -8zM413.997 655.999c-14.667 0 -32.167 2.33105 -52.5 6.99805s-40.833 9.83398 -61.5 15.501l-55.5 15.5c-16.333 4.66699 -27.833 7 -34.5 7c-5.33301 0 -10.5 -3.33301 -15.5 -10s-9 -13.5 -12 -20.5l-4.5 -10.5l-76 10
c1.33301 46 10.833 78.833 28.5 98.5s40.5 29.5 68.5 29.5c15.333 0 33 -2.16699 53 -6.5s40.333 -9.33301 61 -15l55.5 -15c16.333 -4.33301 27.833 -6.5 34.5 -6.5c5.33301 0 10.333 3.33301 15 10s8.5 13.334 11.5 20.001l4.5 10l75 -12
c-0.666992 -45.333 -9.66699 -77.833 -27 -97.5s-40 -29.5 -68 -29.5z" />
    <glyph glyph-name="odieresis" unicode="&#xf6;" horiz-adv-x="612" 
d="M307 -13c-64.667 0 -116.001 12.499 -154.001 37.499s-65 60.5 -81 106.5s-24 100.667 -24 164c0 62.667 8 116.834 24 162.501s43 81 81 106s89.667 37.5 155 37.5c64.667 0 115.667 -12.5 153 -37.5s63.833 -60.333 79.5 -106s23.5 -100.167 23.5 -163.5
c0 -62.667 -7.83301 -117 -23.5 -163s-42.167 -81.5 -79.5 -106.5s-88.666 -37.5 -153.999 -37.5zM306.999 104.999c19.333 0 35.3311 2.66699 47.998 8s22.834 15 30.501 29s13 33.333 16 58s4.5 56.334 4.5 95.001c0 38 -1.66699 69.333 -5 94
s-8.66602 43.834 -15.999 57.501s-17.333 23.167 -30 28.5s-28.667 8 -48 8s-35.5 -2.66699 -48.5 -8s-23.333 -14.833 -31 -28.5s-13.167 -32.834 -16.5 -57.501s-5 -56 -5 -94c0 -38.667 1.66699 -70.334 5 -95.001s8.83301 -44 16.5 -58s18 -23.667 31 -29
s29.167 -8 48.5 -8zM114.997 667.999v108h147v-108h-147zM339.997 667.999v108h147v-108h-147z" />
    <glyph glyph-name="divide" unicode="&#xf7;" horiz-adv-x="647" 
d="M30 227v133h587v-133h-587zM234 0v134h175v-134h-175zM234 454v134h175v-134h-175z" />
    <glyph glyph-name="oslash" unicode="&#xf8;" horiz-adv-x="612" 
d="M101 -39l36 75l262 554l17 38h104l-39 -80l-259 -551l-16 -36h-105zM307 -13c-64.667 0 -116.001 12.499 -154.001 37.499s-65 60.5 -81 106.5s-24 100.667 -24 164c0 62.667 8 116.834 24 162.501s43 81 81 106s89.667 37.5 155 37.5c64.667 0 115.667 -12.5 153 -37.5
s63.833 -60.333 79.5 -106s23.5 -100.167 23.5 -163.5c0 -62.667 -7.83301 -117 -23.5 -163s-42.167 -81.5 -79.5 -106.5s-88.666 -37.5 -153.999 -37.5zM306.999 104.999c19.333 0 35.3311 2.66699 47.998 8s22.834 15 30.501 29s13 33.333 16 58s4.5 56.334 4.5 95.001
c0 38 -1.66699 69.333 -5 94s-8.66602 43.834 -15.999 57.501s-17.333 23.167 -30 28.5s-28.667 8 -48 8s-35.5 -2.66699 -48.5 -8s-23.333 -14.833 -31 -28.5s-13.167 -32.834 -16.5 -57.501s-5 -56 -5 -94c0 -38.667 1.66699 -70.334 5 -95.001s8.83301 -44 16.5 -58
s18 -23.667 31 -29s29.167 -8 48.5 -8z" />
    <glyph glyph-name="ugrave" unicode="&#xf9;" 
d="M230 -13c-44.667 0 -78.833 9.5 -102.5 28.5s-39.834 45 -48.501 78s-13 70.167 -13 111.5v383h155v-368c0 -28.667 1 -49 3 -61s5.33301 -20.333 10 -25c5.33301 -4.66699 11.333 -7.83398 18 -9.50098s14.667 -2.5 24 -2.5c19.333 0 40.5 4.33301 63.5 13
s42.5 18.334 58.5 29.001v424h155v-588h-99l-19 61h-6c-17.333 -10.667 -36.666 -21.667 -57.999 -33s-43.833 -21 -67.5 -29s-48.167 -12 -73.5 -12zM459.001 646l-305 58l26 112l298 -87z" />
    <glyph glyph-name="uacute" unicode="&#xfa;" 
d="M230 -13c-44.667 0 -78.833 9.5 -102.5 28.5s-39.834 45 -48.501 78s-13 70.167 -13 111.5v383h155v-368c0 -28.667 1 -49 3 -61s5.33301 -20.333 10 -25c5.33301 -4.66699 11.333 -7.83398 18 -9.50098s14.667 -2.5 24 -2.5c19.333 0 40.5 4.33301 63.5 13
s42.5 18.334 58.5 29.001v424h155v-588h-99l-19 61h-6c-17.333 -10.667 -36.666 -21.667 -57.999 -33s-43.833 -21 -67.5 -29s-48.167 -12 -73.5 -12zM181.001 646l-22 81l293 89l31 -112z" />
    <glyph glyph-name="ucircumflex" unicode="&#xfb;" 
d="M230 -13c-44.667 0 -78.833 9.5 -102.5 28.5s-39.834 45 -48.501 78s-13 70.167 -13 111.5v383h155v-368c0 -28.667 1 -49 3 -61s5.33301 -20.333 10 -25c5.33301 -4.66699 11.333 -7.83398 18 -9.50098s14.667 -2.5 24 -2.5c19.333 0 40.5 4.33301 63.5 13
s42.5 18.334 58.5 29.001v424h155v-588h-99l-19 61h-6c-17.333 -10.667 -36.666 -21.667 -57.999 -33s-43.833 -21 -67.5 -29s-48.167 -12 -73.5 -12zM145.001 637l-33 61l167 105h73l167 -105l-33 -61l-167 64h-7z" />
    <glyph glyph-name="udieresis" unicode="&#xfc;" 
d="M230 -13c-44.667 0 -78.833 9.5 -102.5 28.5s-39.834 45 -48.501 78s-13 70.167 -13 111.5v383h155v-368c0 -28.667 1 -49 3 -61s5.33301 -20.333 10 -25c5.33301 -4.66699 11.333 -7.83398 18 -9.50098s14.667 -2.5 24 -2.5c19.333 0 40.5 4.33301 63.5 13
s42.5 18.334 58.5 29.001v424h155v-588h-99l-19 61h-6c-17.333 -10.667 -36.666 -21.667 -57.999 -33s-43.833 -21 -67.5 -29s-48.167 -12 -73.5 -12zM121.001 668v108h147v-108h-147zM346.001 668v108h147v-108h-147z" />
    <glyph glyph-name="yacute" unicode="&#xfd;" horiz-adv-x="540" 
d="M112 -166l86 214l-198 540h160l106 -392h6l103 392h161l-205 -560l-58 -194h-161zM148 646l-22 81l293 89l31 -112z" />
    <glyph glyph-name="thorn" unicode="&#xfe;" horiz-adv-x="629" 
d="M79 -166l0.000976562 927h155v-175l21 4c14 2.66699 30.667 5.16699 50 7.5s36.666 3.5 51.999 3.5c72 0 127.333 -23.5 166 -70.5s58 -122.833 58 -227.5c0 -64.667 -7 -117.667 -21 -159s-32.667 -73.333 -56 -96s-49.5 -38.5 -78.5 -47.5s-58.5 -13.5 -88.5 -13.5
c-12.667 0 -28 1 -46 3s-37 4.33301 -57 7v-163h-155zM337.001 112c12.667 0 23 1.16602 31 3.49902s14 5.16602 18 8.49902c6 4.66699 11.667 12.834 17 24.501s9.66602 30.334 12.999 56.001s5 62.5 5 110.5c0 30 -0.833008 55 -2.5 75s-4 35.667 -7 47
s-7.16699 19.333 -12.5 24c-4.66699 4 -12.167 7.16699 -22.5 9.5s-22.833 3.5 -37.5 3.5c-17.333 0 -34.166 -1 -50.499 -3s-29.5 -4.16699 -39.5 -6.5l-15 -3.5v-339c12 -2.66699 27.167 -5 45.5 -7s37.5 -3 57.5 -3z" />
    <glyph glyph-name="ydieresis" unicode="&#xff;" horiz-adv-x="536" 
d="M112 -166l86 214l-198 540h160l106 -392h6l103 392h161l-205 -560l-58 -194h-161zM73 668v108h147v-108h-147zM298 668v108h147v-108h-147z" />
    <glyph glyph-name="Amacron" unicode="&#x100;" horiz-adv-x="573" 
d="M-11 0l193 703h204l193 -703h-162l-54 224l87 -68h-332l87 68l-54 -224h-162zM202 220l-54 68h272l-54 -68l-95 405l86 -68h-146l86 68zM91 775v96h392v-96h-392z" />
    <glyph glyph-name="amacron" unicode="&#x101;" horiz-adv-x="622" 
d="M222 -13c-32 0 -60.8311 7.49805 -86.498 22.498s-46.167 36.833 -61.5 65.5s-23 63.334 -23 104.001c0 48.667 11 86.834 33 114.501s53 47.5 93 59.5s87.333 18 142 18h75c0 28.667 -1.33301 49 -4 61s-5.66699 20.667 -9 26c-2.66699 4.66699 -7.83398 9 -15.501 13
s-23.167 6 -46.5 6c-24 0 -48.833 -2 -74.5 -6s-49.5 -8.66699 -71.5 -14s-40 -10 -54 -14l-21 -6l-32 112l20.5 8c13.667 5.33301 32.334 11.333 56.001 18s50.667 12.667 81 18s62.5 8 96.5 8c57.333 0 102.666 -8.83301 135.999 -26.5s57.166 -43 71.499 -76
s21.5 -72.5 21.5 -118.5v-380h-98l-20 65h-6l-17.5 -12c-11.667 -8 -27.167 -17 -46.5 -27s-41 -19 -65 -27s-48.667 -12 -74 -12zM267.002 113.998c18.667 0 37.833 3.16797 57.5 9.50098s36.167 12.666 49.5 18.999l20 9.5v104l-24 2.5c-16 1.66699 -36.667 2.5 -62 2.5
c-44 0 -71.333 -5 -82 -15c-4.66699 -4 -8.66699 -10.833 -12 -20.5s-5 -23.167 -5 -40.5c0 -24.667 4.5 -42.667 13.5 -54s23.833 -17 44.5 -17zM115.001 667.999v96h393v-96h-393z" />
    <glyph glyph-name="Abreve" unicode="&#x102;" horiz-adv-x="573" 
d="M-11 0l193 703h204l193 -703h-162l-54 224l87 -68h-332l87 68l-54 -224h-162zM202 220l-54 68h272l-54 -68l-95 405l86 -68h-146l86 68zM287 747c-33.333 0 -64.332 5.16699 -92.999 15.5s-52 27.5 -70 51.5s-28.667 56.333 -32 97l80 7
c6.66699 -28.667 19.667 -47.834 39 -57.501s44.666 -14.5 75.999 -14.5s56.666 4.83301 75.999 14.5s32.333 28.834 39 57.501l80 -7c-3.33301 -40.667 -14.166 -73 -32.499 -97s-41.5 -41.167 -69.5 -51.5s-59 -15.5 -93 -15.5z" />
    <glyph glyph-name="abreve" unicode="&#x103;" horiz-adv-x="622" 
d="M222 -13c-32 0 -60.8311 7.49805 -86.498 22.498s-46.167 36.833 -61.5 65.5s-23 63.334 -23 104.001c0 48.667 11 86.834 33 114.501s53 47.5 93 59.5s87.333 18 142 18h75c0 28.667 -1.33301 49 -4 61s-5.66699 20.667 -9 26c-2.66699 4.66699 -7.83398 9 -15.501 13
s-23.167 6 -46.5 6c-24 0 -48.833 -2 -74.5 -6s-49.5 -8.66699 -71.5 -14s-40 -10 -54 -14l-21 -6l-32 112l20.5 8c13.667 5.33301 32.334 11.333 56.001 18s50.667 12.667 81 18s62.5 8 96.5 8c57.333 0 102.666 -8.83301 135.999 -26.5s57.166 -43 71.499 -76
s21.5 -72.5 21.5 -118.5v-380h-98l-20 65h-6l-17.5 -12c-11.667 -8 -27.167 -17 -46.5 -27s-41 -19 -65 -27s-48.667 -12 -74 -12zM267.002 113.998c18.667 0 37.833 3.16797 57.5 9.50098s36.167 12.666 49.5 18.999l20 9.5v104l-24 2.5c-16 1.66699 -36.667 2.5 -62 2.5
c-44 0 -71.333 -5 -82 -15c-4.66699 -4 -8.66699 -10.833 -12 -20.5s-5 -23.167 -5 -40.5c0 -24.667 4.5 -42.667 13.5 -54s23.833 -17 44.5 -17zM311.001 642.999c-33.333 0 -64.165 5.16699 -92.498 15.5s-51.5 27.333 -69.5 51s-28.667 55.834 -32 96.501l79 9
c6.66699 -28.667 19.667 -47.834 39 -57.501s44.666 -14.5 75.999 -14.5s56.666 4.83301 75.999 14.5s32.333 28.834 39 57.501l79 -9c-3.33301 -40.667 -14 -72.834 -32 -96.501s-41 -40.667 -69 -51s-59 -15.5 -93 -15.5z" />
    <glyph glyph-name="Aogonek" unicode="&#x104;" horiz-adv-x="573" 
d="M-11 0l193 703h204l193 -703h-162l-54 224l87 -68h-332l87 68l-54 -224h-162zM202 220l-54 68h272l-54 -68l-95 405l86 -68h-146l86 68zM491 -179c-32.667 0 -57.834 6.83301 -75.501 20.5s-26.5 34.167 -26.5 61.5c0 15.333 3.66699 30 11 44s18.5 27.333 33.5 40
s33.833 24 56.5 34l81 -20c-30 -9.33301 -53.333 -19.833 -70 -31.5s-25 -23.5 -25 -35.5c0 -8 4.16699 -13.667 12.5 -17s19.5 -5 33.5 -5c10.667 0 21.667 0.666992 33 2l17 2v-86l-23 -4.5c-15.333 -3 -34.666 -4.5 -57.999 -4.5z" />
    <glyph glyph-name="aogonek" unicode="&#x105;" horiz-adv-x="622" 
d="M222 -13c-32 0 -60.8311 7.49805 -86.498 22.498s-46.167 36.833 -61.5 65.5s-23 63.334 -23 104.001c0 48.667 11 86.834 33 114.501s53 47.5 93 59.5s87.333 18 142 18h75c0 28.667 -1.33301 49 -4 61s-5.66699 20.667 -9 26c-2.66699 4.66699 -7.83398 9 -15.501 13
s-23.167 6 -46.5 6c-24 0 -48.833 -2 -74.5 -6s-49.5 -8.66699 -71.5 -14s-40 -10 -54 -14l-21 -6l-32 112l20.5 8c13.667 5.33301 32.334 11.333 56.001 18s50.667 12.667 81 18s62.5 8 96.5 8c57.333 0 102.666 -8.83301 135.999 -26.5s57.166 -43 71.499 -76
s21.5 -72.5 21.5 -118.5v-380h-98l-20 65h-6l-17.5 -12c-11.667 -8 -27.167 -17 -46.5 -27s-41 -19 -65 -27s-48.667 -12 -74 -12zM267.002 113.998c18.667 0 37.833 3.16797 57.5 9.50098s36.167 12.666 49.5 18.999l20 9.5v104l-24 2.5c-16 1.66699 -36.667 2.5 -62 2.5
c-44 0 -71.333 -5 -82 -15c-4.66699 -4 -8.66699 -10.833 -12 -20.5s-5 -23.167 -5 -40.5c0 -24.667 4.5 -42.667 13.5 -54s23.833 -17 44.5 -17zM469.001 -179.001c-32.667 0 -57.834 6.83301 -75.501 20.5s-26.5 34.167 -26.5 61.5c0 15.333 3.66699 30 11 44
s18.5 27.333 33.5 40s33.833 24 56.5 34l81 -20c-30 -9.33301 -53.333 -19.833 -70 -31.5s-25 -23.5 -25 -35.5c0 -8 4.16699 -13.667 12.5 -17s19.5 -5 33.5 -5c10.667 0 21.667 0.666992 33 2l17 2v-86l-23 -4.5c-15.333 -3 -34.666 -4.5 -57.999 -4.5z" />
    <glyph glyph-name="Cacute" unicode="&#x106;" horiz-adv-x="618" 
d="M339 -13c-56 0 -105.667 11.834 -149 35.501s-77.5 61.667 -102.5 114s-37.5 121.833 -37.5 208.5c0 76.667 7.5 139.334 22.5 188.001s36.167 86.167 63.5 112.5s59.333 44.666 96 54.999s76.334 15.5 119.001 15.5c17.333 0 38.666 -1.16699 63.999 -3.5
s50.833 -5.33301 76.5 -9s46.834 -7.83398 63.501 -12.501l-17 -128c-8 1.33301 -20.333 2.66602 -37 3.99902s-34.667 3 -54 5s-37.166 3.5 -53.499 4.5s-28.5 1.5 -36.5 1.5c-27.333 0 -48.833 -1.5 -64.5 -4.5s-27.167 -7.5 -34.5 -13.5
c-8.66699 -6.66699 -16.334 -18.167 -23.001 -34.5s-12 -39.166 -16 -68.499s-6 -67.666 -6 -114.999c0 -58.667 5.33301 -104.834 16 -138.501s21.667 -54.834 33 -63.501c7.33301 -5.33301 16.666 -9.66602 27.999 -12.999s25.666 -5 42.999 -5
c21.333 0 43.833 2.66699 67.5 8s45.834 11.5 66.501 18.5s37.667 13.167 51 18.5l20 8l45 -119l-18 -10.5c-12 -7 -29 -15 -51 -24s-47.833 -17 -77.5 -24s-62.167 -10.5 -97.5 -10.5zM219 750.001l-20 83l294 77l28 -110z" />
    <glyph glyph-name="cacute" unicode="&#x107;" horiz-adv-x="544" 
d="M314 -13c-52 0 -98.001 10.5039 -138.001 31.5039s-71.333 54.167 -94 99.5s-34 104.666 -34 177.999c0 60.667 7.66699 110.834 23 150.501s36.5 70.667 63.5 93s58.167 38.166 93.5 47.499s72.666 14 111.999 14c37.333 0 71.166 -2.66699 101.499 -8
s52.833 -10 67.5 -14l-17 -117c-19.333 3.33301 -44.5 6.83301 -75.5 10.5s-60.167 5.5 -87.5 5.5c-28 0 -47.833 -2.16699 -59.5 -6.5s-20.5 -9.5 -26.5 -15.5c-12 -12.667 -21.167 -32.334 -27.5 -59.001s-9.5 -60.334 -9.5 -101.001c0 -38.667 2.5 -69.5 7.5 -92.5
s11.333 -40.5 19 -52.5s14.834 -20.667 21.501 -26c4 -2.66699 10.167 -5.83398 18.5 -9.50098s19.833 -5.5 34.5 -5.5c16 0 33.833 2.5 53.5 7.5s38.834 10.667 57.501 17s34 11.833 46 16.5l18 7l42 -110l-25.5 -15.5c-17 -10.333 -41.167 -20.5 -72.5 -30.5
s-68.666 -15 -111.999 -15zM172.999 646.004l-22 81l293 89l31 -112z" />
    <glyph glyph-name="Cdotaccent" unicode="&#x10a;" horiz-adv-x="618" 
d="M339 -13c-56 0 -105.667 11.834 -149 35.501s-77.5 61.667 -102.5 114s-37.5 121.833 -37.5 208.5c0 76.667 7.5 139.334 22.5 188.001s36.167 86.167 63.5 112.5s59.333 44.666 96 54.999s76.334 15.5 119.001 15.5c17.333 0 38.666 -1.16699 63.999 -3.5
s50.833 -5.33301 76.5 -9s46.834 -7.83398 63.501 -12.501l-17 -128c-8 1.33301 -20.333 2.66602 -37 3.99902s-34.667 3 -54 5s-37.166 3.5 -53.499 4.5s-28.5 1.5 -36.5 1.5c-27.333 0 -48.833 -1.5 -64.5 -4.5s-27.167 -7.5 -34.5 -13.5
c-8.66699 -6.66699 -16.334 -18.167 -23.001 -34.5s-12 -39.166 -16 -68.499s-6 -67.666 -6 -114.999c0 -58.667 5.33301 -104.834 16 -138.501s21.667 -54.834 33 -63.501c7.33301 -5.33301 16.666 -9.66602 27.999 -12.999s25.666 -5 42.999 -5
c21.333 0 43.833 2.66699 67.5 8s45.834 11.5 66.501 18.5s37.667 13.167 51 18.5l20 8l45 -119l-18 -10.5c-12 -7 -29 -15 -51 -24s-47.833 -17 -77.5 -24s-62.167 -10.5 -97.5 -10.5zM266 761.001v108h158v-108h-158z" />
    <glyph glyph-name="cdotaccent" unicode="&#x10b;" horiz-adv-x="544" 
d="M314 -13c-52 0 -98.001 10.5039 -138.001 31.5039s-71.333 54.167 -94 99.5s-34 104.666 -34 177.999c0 60.667 7.66699 110.834 23 150.501s36.5 70.667 63.5 93s58.167 38.166 93.5 47.499s72.666 14 111.999 14c37.333 0 71.166 -2.66699 101.499 -8
s52.833 -10 67.5 -14l-17 -117c-19.333 3.33301 -44.5 6.83301 -75.5 10.5s-60.167 5.5 -87.5 5.5c-28 0 -47.833 -2.16699 -59.5 -6.5s-20.5 -9.5 -26.5 -15.5c-12 -12.667 -21.167 -32.334 -27.5 -59.001s-9.5 -60.334 -9.5 -101.001c0 -38.667 2.5 -69.5 7.5 -92.5
s11.333 -40.5 19 -52.5s14.834 -20.667 21.501 -26c4 -2.66699 10.167 -5.83398 18.5 -9.50098s19.833 -5.5 34.5 -5.5c16 0 33.833 2.5 53.5 7.5s38.834 10.667 57.501 17s34 11.833 46 16.5l18 7l42 -110l-25.5 -15.5c-17 -10.333 -41.167 -20.5 -72.5 -30.5
s-68.666 -15 -111.999 -15zM239.999 668.004v108h163v-108h-163z" />
    <glyph glyph-name="Ccaron" unicode="&#x10c;" horiz-adv-x="618" 
d="M339 -13c-56 0 -105.667 11.834 -149 35.501s-77.5 61.667 -102.5 114s-37.5 121.833 -37.5 208.5c0 76.667 7.5 139.334 22.5 188.001s36.167 86.167 63.5 112.5s59.333 44.666 96 54.999s76.334 15.5 119.001 15.5c17.333 0 38.666 -1.16699 63.999 -3.5
s50.833 -5.33301 76.5 -9s46.834 -7.83398 63.501 -12.501l-17 -128c-8 1.33301 -20.333 2.66602 -37 3.99902s-34.667 3 -54 5s-37.166 3.5 -53.499 4.5s-28.5 1.5 -36.5 1.5c-27.333 0 -48.833 -1.5 -64.5 -4.5s-27.167 -7.5 -34.5 -13.5
c-8.66699 -6.66699 -16.334 -18.167 -23.001 -34.5s-12 -39.166 -16 -68.499s-6 -67.666 -6 -114.999c0 -58.667 5.33301 -104.834 16 -138.501s21.667 -54.834 33 -63.501c7.33301 -5.33301 16.666 -9.66602 27.999 -12.999s25.666 -5 42.999 -5
c21.333 0 43.833 2.66699 67.5 8s45.834 11.5 66.501 18.5s37.667 13.167 51 18.5l20 8l45 -119l-18 -10.5c-12 -7 -29 -15 -51 -24s-47.833 -17 -77.5 -24s-62.167 -10.5 -97.5 -10.5zM308 749.001l-167 100l33 61l167 -59h7l167 59l33 -61l-167 -100h-73z" />
    <glyph glyph-name="ccaron" unicode="&#x10d;" horiz-adv-x="544" 
d="M314 -13c-52 0 -98.001 10.5039 -138.001 31.5039s-71.333 54.167 -94 99.5s-34 104.666 -34 177.999c0 60.667 7.66699 110.834 23 150.501s36.5 70.667 63.5 93s58.167 38.166 93.5 47.499s72.666 14 111.999 14c37.333 0 71.166 -2.66699 101.499 -8
s52.833 -10 67.5 -14l-17 -117c-19.333 3.33301 -44.5 6.83301 -75.5 10.5s-60.167 5.5 -87.5 5.5c-28 0 -47.833 -2.16699 -59.5 -6.5s-20.5 -9.5 -26.5 -15.5c-12 -12.667 -21.167 -32.334 -27.5 -59.001s-9.5 -60.334 -9.5 -101.001c0 -38.667 2.5 -69.5 7.5 -92.5
s11.333 -40.5 19 -52.5s14.834 -20.667 21.501 -26c4 -2.66699 10.167 -5.83398 18.5 -9.50098s19.833 -5.5 34.5 -5.5c16 0 33.833 2.5 53.5 7.5s38.834 10.667 57.501 17s34 11.833 46 16.5l18 7l42 -110l-25.5 -15.5c-17 -10.333 -41.167 -20.5 -72.5 -30.5
s-68.666 -15 -111.999 -15zM280.999 657.004l-167 105l33 61l167 -64h7l167 64l33 -61l-167 -105h-73z" />
    <glyph glyph-name="Dcaron" unicode="&#x10e;" horiz-adv-x="673" 
d="M322 -13c-24 0 -48.668 0.5 -74.001 1.5s-49.5 2.33301 -72.5 4s-42.667 3.33398 -59 5.00098s-27.5 2.83398 -33.5 3.50098v702l43 3l63.5 4.5c23.667 1.66699 48 3 73 4s48.167 1.5 69.5 1.5c60.667 0 110.167 -9.33301 148.5 -28s67.833 -44.334 88.5 -77.001
s34.834 -70.5 42.501 -113.5s11.5 -88.833 11.5 -137.5c0 -92.667 -12.667 -166.334 -38 -221.001s-60.5 -93.667 -105.5 -117s-97.5 -35 -157.5 -35zM329.999 122c23.333 0 41.6699 1.83203 55.0029 5.49902s23 8.16699 29 13.5c8 6.66699 15.5 17.834 22.5 33.501
s12.667 38.667 17 69s6.5 70.5 6.5 120.5c0 50.667 -3.33301 94 -10 130s-17.667 59.333 -33 70c-4.66699 3.33301 -12.834 7 -24.501 11s-31.167 6 -58.5 6c-32.667 0 -56.834 -1 -72.501 -3s-29.834 -4.33301 -42.501 -7l20 74v-588l-20 73c14 -2 28.5 -3.83301 43.5 -5.5
s37.5 -2.5 67.5 -2.5zM300.003 748.999l-167 100l33 61l167 -59h7l167 59l33 -61l-167 -100h-73z" />
    <glyph glyph-name="dcaron" unicode="&#x10f;" horiz-adv-x="728" 
d="M251 -13c-37.333 0 -71.335 10.665 -102.002 31.998s-55.167 54.333 -73.5 99s-27.5 102 -27.5 172c0 63.333 7.16699 115.333 21.5 156s33.333 72.334 57 95.001s49.334 38.334 77.001 47.001s54.834 13 81.501 13c18.667 0 36.667 -1.16699 54 -3.5
s31.666 -4.83301 42.999 -7.5l17 -4v175h155v-761h-100l-16 57h-6c-13.333 -8.66699 -29.333 -18.5 -48 -29.5s-39.167 -20.5 -61.5 -28.5s-46.166 -12 -71.499 -12zM277.998 112.998c11.333 0 24 1.83496 38 5.50195s27.333 8.16699 40 13.5s23 9.83301 31 13.5l12 5.5v302
l-16.5 5.5c-11 3.66699 -24.833 7.16699 -41.5 10.5s-34 5 -52 5c-26 0 -44 -5.33301 -54 -16c-4.66699 -4.66699 -9.16699 -13.334 -13.5 -26.001s-8 -30.5 -11 -53.5s-4.5 -53.5 -4.5 -91.5c0 -42.667 1.5 -75.167 4.5 -97.5s6.83301 -37.833 11.5 -46.5
s8.66699 -14.667 12 -18c5.33301 -4.66699 12 -7.83398 20 -9.50098s16 -2.5 24 -2.5zM636.998 501l-19 260h119l-20 -260h-80z" />
    <glyph glyph-name="Dcroat" unicode="&#x110;" horiz-adv-x="686" 
d="M30 301v112h344v-112h-344zM335 -13c-24 0 -48.668 0.5 -74.001 1.5s-49.5 2.33301 -72.5 4s-42.667 3.33398 -59 5.00098s-27.5 2.83398 -33.5 3.50098v702l43 3l63.5 4.5c23.667 1.66699 48 3 73 4s48.167 1.5 69.5 1.5c60.667 0 110.167 -9.33301 148.5 -28
s67.833 -44.334 88.5 -77.001s34.834 -70.5 42.501 -113.5s11.5 -88.833 11.5 -137.5c0 -92.667 -12.667 -166.334 -38 -221.001s-60.5 -93.667 -105.5 -117s-97.5 -35 -157.5 -35zM342.999 122c23.333 0 41.6699 1.83203 55.0029 5.49902s23 8.16699 29 13.5
c8 6.66699 15.5 17.834 22.5 33.501s12.667 38.667 17 69s6.5 70.5 6.5 120.5c0 50.667 -3.33301 94 -10 130s-17.667 59.333 -33 70c-4.66699 3.33301 -12.834 7 -24.501 11s-31.167 6 -58.5 6c-32.667 0 -56.834 -1 -72.501 -3s-29.834 -4.33301 -42.501 -7l20 74v-588
l-20 73c14 -2 28.5 -3.83301 43.5 -5.5s37.5 -2.5 67.5 -2.5z" />
    <glyph glyph-name="dcroat" unicode="&#x111;" horiz-adv-x="628" 
d="M651 722v-90l-167 3l-190 -3v90h357zM251 -13c-37.333 0 -71.335 10.665 -102.002 31.998s-55.167 54.333 -73.5 99s-27.5 102 -27.5 172c0 63.333 7.16699 115.333 21.5 156s33.333 72.334 57 95.001s49.334 38.334 77.001 47.001s54.834 13 81.501 13
c18.667 0 36.667 -1.16699 54 -3.5s31.666 -4.83301 42.999 -7.5l17 -4v175h155v-761h-100l-16 57h-6c-13.333 -8.66699 -29.333 -18.5 -48 -29.5s-39.167 -20.5 -61.5 -28.5s-46.166 -12 -71.499 -12zM277.998 112.998c11.333 0 24 1.83496 38 5.50195
s27.333 8.16699 40 13.5s23 9.83301 31 13.5l12 5.5v302l-16.5 5.5c-11 3.66699 -24.833 7.16699 -41.5 10.5s-34 5 -52 5c-26 0 -44 -5.33301 -54 -16c-4.66699 -4.66699 -9.16699 -13.334 -13.5 -26.001s-8 -30.5 -11 -53.5s-4.5 -53.5 -4.5 -91.5
c0 -42.667 1.5 -75.167 4.5 -97.5s6.83301 -37.833 11.5 -46.5s8.66699 -14.667 12 -18c5.33301 -4.66699 12 -7.83398 20 -9.50098s16 -2.5 24 -2.5z" />
    <glyph glyph-name="Emacron" unicode="&#x112;" horiz-adv-x="551" 
d="M83 0v703h422v-134l-335 4l72 69l-9 -290l-68 70h315v-131h-315l68 70l9 -299l-72 69l335 3v-134h-422zM102 775v96h392v-96h-392z" />
    <glyph glyph-name="emacron" unicode="&#x113;" horiz-adv-x="611" 
d="M322 -14c-54 0 -101.5 10.0049 -142.5 30.0049s-72.833 52.667 -95.5 98s-34 105.666 -34 180.999c0 78.667 12 140.167 36 184.5s56.333 75.833 97 94.5s86.334 28 137.001 28c52 0 96 -9 132 -27s63.5 -47.333 82.5 -88s28.5 -95.334 28.5 -164.001v-83h-426l70 22
c0 -24 1 -44.833 3 -62.5s5.33301 -32.334 10 -44.001s10.667 -20.834 18 -27.501c6.66699 -6 15.167 -10.667 25.5 -14s23.833 -5 40.5 -5c18 0 38 1.83301 60 5.5s43.5 8.16699 64.5 13.5s39.167 10.166 54.5 14.499s25.666 7.5 30.999 9.5l38 -112
c-6 -2.66699 -20.5 -8.5 -43.5 -17.5s-50.667 -17.333 -83 -25s-66.833 -11.5 -103.5 -11.5zM207 330.005l-68.999 20.999l337 6l-70 -22c0 32 -1.33301 58.333 -4 79s-7.33398 35.334 -14.001 44.001c-4.66699 5.33301 -11.667 10.333 -21 15s-24.666 7 -45.999 7
c-25.333 0 -44.333 -2.5 -57 -7.5s-22.334 -11.167 -29.001 -18.5c-18 -18.667 -27 -60 -27 -124zM124.001 668.004v96h393v-96h-393z" />
    <glyph glyph-name="Edotaccent" unicode="&#x116;" horiz-adv-x="551" 
d="M83 0v703h422v-134l-335 4l72 69l-9 -290l-68 70h315v-131h-315l68 70l9 -299l-72 69l335 3v-134h-422zM219 761v108h158v-108h-158z" />
    <glyph glyph-name="edotaccent" unicode="&#x117;" horiz-adv-x="604" 
d="M322 -14c-54 0 -101.5 10.0049 -142.5 30.0049s-72.833 52.667 -95.5 98s-34 105.666 -34 180.999c0 78.667 12 140.167 36 184.5s56.333 75.833 97 94.5s86.334 28 137.001 28c52 0 96 -9 132 -27s63.5 -47.333 82.5 -88s28.5 -95.334 28.5 -164.001v-83h-426l70 22
c0 -24 1 -44.833 3 -62.5s5.33301 -32.334 10 -44.001s10.667 -20.834 18 -27.501c6.66699 -6 15.167 -10.667 25.5 -14s23.833 -5 40.5 -5c18 0 38 1.83301 60 5.5s43.5 8.16699 64.5 13.5s39.167 10.166 54.5 14.499s25.666 7.5 30.999 9.5l38 -112
c-6 -2.66699 -20.5 -8.5 -43.5 -17.5s-50.667 -17.333 -83 -25s-66.833 -11.5 -103.5 -11.5zM207 330.005l-68.999 20.999l337 6l-70 -22c0 32 -1.33301 58.333 -4 79s-7.33398 35.334 -14.001 44.001c-4.66699 5.33301 -11.667 10.333 -21 15s-24.666 7 -45.999 7
c-25.333 0 -44.333 -2.5 -57 -7.5s-22.334 -11.167 -29.001 -18.5c-18 -18.667 -27 -60 -27 -124zM242.001 668.004v108h163v-108h-163z" />
    <glyph glyph-name="Eogonek" unicode="&#x118;" horiz-adv-x="551" 
d="M83 0v703h422v-134l-335 4l72 69l-9 -290l-68 70h315v-131h-315l68 70l9 -299l-72 69l335 3v-134h-422zM425 -179c-32.667 0 -57.834 6.83301 -75.501 20.5s-26.5 34.167 -26.5 61.5c0 15.333 3.66699 30 11 44s18.5 27.333 33.5 40s33.833 24 56.5 34l81 -20
c-30 -9.33301 -53.333 -19.833 -70 -31.5s-25 -23.5 -25 -35.5c0 -8 4.16699 -13.667 12.5 -17s19.5 -5 33.5 -5c10.667 0 21.667 0.666992 33 2l17 2v-86l-23 -4.5c-15.333 -3 -34.666 -4.5 -57.999 -4.5z" />
    <glyph glyph-name="eogonek" unicode="&#x119;" horiz-adv-x="611" 
d="M322 -14c-54 0 -101.5 10.0049 -142.5 30.0049s-72.833 52.667 -95.5 98s-34 105.666 -34 180.999c0 78.667 12 140.167 36 184.5s56.333 75.833 97 94.5s86.334 28 137.001 28c52 0 96 -9 132 -27s63.5 -47.333 82.5 -88s28.5 -95.334 28.5 -164.001v-83h-426l70 22
c0 -24 1 -44.833 3 -62.5s5.33301 -32.334 10 -44.001s10.667 -20.834 18 -27.501c6.66699 -6 15.167 -10.667 25.5 -14s23.833 -5 40.5 -5c18 0 38 1.83301 60 5.5s43.5 8.16699 64.5 13.5s39.167 10.166 54.5 14.499s25.666 7.5 30.999 9.5l38 -112
c-6 -2.66699 -20.5 -8.5 -43.5 -17.5s-50.667 -17.333 -83 -25s-66.833 -11.5 -103.5 -11.5zM207 330.005l-68.999 20.999l337 6l-70 -22c0 32 -1.33301 58.333 -4 79s-7.33398 35.334 -14.001 44.001c-4.66699 5.33301 -11.667 10.333 -21 15s-24.666 7 -45.999 7
c-25.333 0 -44.333 -2.5 -57 -7.5s-22.334 -11.167 -29.001 -18.5c-18 -18.667 -27 -60 -27 -124zM415.001 -161.996c-32.667 0 -57.834 6.83301 -75.501 20.5s-26.5 34.167 -26.5 61.5c0 15.333 3.66699 30 11 44s18.5 27.333 33.5 40s33.833 24 56.5 34l81 -20
c-30 -9.33301 -53.333 -19.833 -70 -31.5s-25 -23.5 -25 -35.5c0 -8 4.16699 -13.667 12.5 -17s19.5 -5 33.5 -5c10.667 0 21.667 0.666992 33 2l17 2v-86l-23 -4.5c-15.333 -3 -34.666 -4.5 -57.999 -4.5z" />
    <glyph glyph-name="Ecaron" unicode="&#x11a;" horiz-adv-x="551" 
d="M83 0v703h422v-134l-335 4l72 69l-9 -290l-68 70h315v-131h-315l68 70l9 -299l-72 69l335 3v-134h-422zM261 749l-167 100l33 61l167 -59h7l167 59l33 -61l-167 -100h-73z" />
    <glyph glyph-name="ecaron" unicode="&#x11b;" horiz-adv-x="611" 
d="M322 -14c-54 0 -101.5 10.0049 -142.5 30.0049s-72.833 52.667 -95.5 98s-34 105.666 -34 180.999c0 78.667 12 140.167 36 184.5s56.333 75.833 97 94.5s86.334 28 137.001 28c52 0 96 -9 132 -27s63.5 -47.333 82.5 -88s28.5 -95.334 28.5 -164.001v-83h-426l70 22
c0 -24 1 -44.833 3 -62.5s5.33301 -32.334 10 -44.001s10.667 -20.834 18 -27.501c6.66699 -6 15.167 -10.667 25.5 -14s23.833 -5 40.5 -5c18 0 38 1.83301 60 5.5s43.5 8.16699 64.5 13.5s39.167 10.166 54.5 14.499s25.666 7.5 30.999 9.5l38 -112
c-6 -2.66699 -20.5 -8.5 -43.5 -17.5s-50.667 -17.333 -83 -25s-66.833 -11.5 -103.5 -11.5zM207 330.005l-68.999 20.999l337 6l-70 -22c0 32 -1.33301 58.333 -4 79s-7.33398 35.334 -14.001 44.001c-4.66699 5.33301 -11.667 10.333 -21 15s-24.666 7 -45.999 7
c-25.333 0 -44.333 -2.5 -57 -7.5s-22.334 -11.167 -29.001 -18.5c-18 -18.667 -27 -60 -27 -124zM283.001 657.004l-167 105l33 61l167 -64h7l167 64l33 -61l-167 -105h-73z" />
    <glyph glyph-name="Gbreve" unicode="&#x11e;" horiz-adv-x="654" 
d="M349 -13c-40 0 -77.999 5 -113.999 15s-67.833 28 -95.5 54s-49.5 63 -65.5 111s-24 110.333 -24 187c0 75.333 7.5 136.666 22.5 183.999s36.5 84 64.5 110s61.5 43.833 100.5 53.5s82.167 14.5 129.5 14.5c22.667 0 47.5 -1.33301 74.5 -4s53.167 -6 78.5 -10
s46 -8 62 -12l-18 -127c-26.667 3.33301 -58.334 6.66602 -95.001 9.99902s-72.667 5 -108 5c-30.667 0 -54.167 -1.5 -70.5 -4.5s-28.166 -7.83301 -35.499 -14.5c-10.667 -9.33301 -20.334 -29.833 -29.001 -61.5s-13 -79.834 -13 -144.501
c0 -49.333 2.66699 -88.166 8 -116.499s11.5 -49.166 18.5 -62.499s12.833 -22.666 17.5 -27.999c6 -5.33301 16.667 -10.666 32 -15.999s38 -8 68 -8c14.667 0 28.167 0.5 40.5 1.5s23.166 2.5 32.499 4.5v217l70 -75l-172 12v113h255v-362l-31.5 -11.5
c-21 -7.66699 -49.167 -15.334 -84.5 -23.001s-74.666 -11.5 -117.999 -11.5zM353.001 747c-33.333 0 -64.332 5.16699 -92.999 15.5s-52 27.5 -70 51.5s-28.667 56.333 -32 97l80 7c6.66699 -28.667 19.667 -47.834 39 -57.501s44.666 -14.5 75.999 -14.5
s56.666 4.83301 75.999 14.5s32.333 28.834 39 57.501l80 -7c-3.33301 -40.667 -14.166 -73 -32.499 -97s-41.5 -41.167 -69.5 -51.5s-59 -15.5 -93 -15.5z" />
    <glyph glyph-name="gbreve" unicode="&#x11f;" horiz-adv-x="565" 
d="M277 -179c-30.667 0 -60.333 1.66797 -89 5.00098s-54.334 7.33301 -77.001 12s-40.667 8.66699 -54 12l-20 5l17 118c48 -7.33301 95.833 -14 143.5 -20s92.5 -9 134.5 -9c22.667 0 38.167 1.16699 46.5 3.5s12.5 6.5 12.5 12.5c0 2.66699 -1.5 5.16699 -4.5 7.5
s-9.83301 5.66602 -20.5 9.99902s-27.667 10.666 -51 18.999l-95 34.5c-28 10 -48.333 17.667 -61 23s-20.667 9.5 -24 12.5s-5 5.83301 -5 8.5c0 6 2 15.167 6 27.5s8.5 25.333 13.5 39s9.5 25.167 13.5 34.5l6 14c-46 16 -81.5 40 -106.5 72s-37.5 73.333 -37.5 124
c0 54 12.667 96.667 38 128s59 53.666 101 66.999s87.333 20 136 20c14 0 31.667 -0.333008 53 -1s43.5 -1.66699 66.5 -3s44.833 -2.66602 65.5 -3.99902s37.334 -2.33301 50.001 -3l19 -1v-90l-62 -10l6.5 -16c4.33301 -10.667 8.5 -24.5 12.5 -41.5s6 -35.167 6 -54.5
c0 -37.333 -10 -71.333 -30 -102s-49 -55 -87 -73s-84.333 -27.333 -139 -28l-1 -9c-0.666992 -6 -1 -9.66699 -1 -11c0 -2.66699 4 -5.5 12 -8.5s19.833 -7.16699 35.5 -12.5s34.5 -12.333 56.5 -21c42.667 -16.667 76.5 -32.5 101.5 -47.5s42.833 -30.5 53.5 -46.5
s16 -33.667 16 -53c0 -31.333 -11 -57.666 -33 -78.999s-52.333 -37.5 -91 -48.5s-83 -16.5 -133 -16.5zM272.001 287.001c27.333 0 48.5 3.00195 63.5 9.00195s25.333 17.167 31 33.5s8.5 39.166 8.5 68.499c0 21.333 -1.16699 39.666 -3.5 54.999s-5.5 25 -9.5 29
c-2 2 -5.83301 3.66699 -11.5 5s-12.334 2.16602 -20.001 2.49902l-23.5 1c-8 0.333008 -15.333 0.5 -22 0.5c-30 0 -53.5 -2.16699 -70.5 -6.5s-29.167 -13.666 -36.5 -27.999s-11 -36.5 -11 -66.5c0 -40.667 7.33301 -68 22 -82s42.334 -21 83.001 -21zM283.001 643.003
c-33.333 0 -64.165 5.16699 -92.498 15.5s-51.5 27.333 -69.5 51s-28.667 55.834 -32 96.501l79 9c6.66699 -28.667 19.667 -47.834 39 -57.501s44.666 -14.5 75.999 -14.5s56.666 4.83301 75.999 14.5s32.333 28.834 39 57.501l79 -9
c-3.33301 -40.667 -14 -72.834 -32 -96.501s-41 -40.667 -69 -51s-59 -15.5 -93 -15.5z" />
    <glyph glyph-name="Gdotaccent" unicode="&#x120;" horiz-adv-x="654" 
d="M349 -13c-40 0 -77.999 5 -113.999 15s-67.833 28 -95.5 54s-49.5 63 -65.5 111s-24 110.333 -24 187c0 75.333 7.5 136.666 22.5 183.999s36.5 84 64.5 110s61.5 43.833 100.5 53.5s82.167 14.5 129.5 14.5c22.667 0 47.5 -1.33301 74.5 -4s53.167 -6 78.5 -10
s46 -8 62 -12l-18 -127c-26.667 3.33301 -58.334 6.66602 -95.001 9.99902s-72.667 5 -108 5c-30.667 0 -54.167 -1.5 -70.5 -4.5s-28.166 -7.83301 -35.499 -14.5c-10.667 -9.33301 -20.334 -29.833 -29.001 -61.5s-13 -79.834 -13 -144.501
c0 -49.333 2.66699 -88.166 8 -116.499s11.5 -49.166 18.5 -62.499s12.833 -22.666 17.5 -27.999c6 -5.33301 16.667 -10.666 32 -15.999s38 -8 68 -8c14.667 0 28.167 0.5 40.5 1.5s23.166 2.5 32.499 4.5v217l70 -75l-172 12v113h255v-362l-31.5 -11.5
c-21 -7.66699 -49.167 -15.334 -84.5 -23.001s-74.666 -11.5 -117.999 -11.5zM274.001 761v108h158v-108h-158z" />
    <glyph glyph-name="gdotaccent" unicode="&#x121;" horiz-adv-x="565" 
d="M277 -179c-30.667 0 -60.333 1.66797 -89 5.00098s-54.334 7.33301 -77.001 12s-40.667 8.66699 -54 12l-20 5l17 118c48 -7.33301 95.833 -14 143.5 -20s92.5 -9 134.5 -9c22.667 0 38.167 1.16699 46.5 3.5s12.5 6.5 12.5 12.5c0 2.66699 -1.5 5.16699 -4.5 7.5
s-9.83301 5.66602 -20.5 9.99902s-27.667 10.666 -51 18.999l-95 34.5c-28 10 -48.333 17.667 -61 23s-20.667 9.5 -24 12.5s-5 5.83301 -5 8.5c0 6 2 15.167 6 27.5s8.5 25.333 13.5 39s9.5 25.167 13.5 34.5l6 14c-46 16 -81.5 40 -106.5 72s-37.5 73.333 -37.5 124
c0 54 12.667 96.667 38 128s59 53.666 101 66.999s87.333 20 136 20c14 0 31.667 -0.333008 53 -1s43.5 -1.66699 66.5 -3s44.833 -2.66602 65.5 -3.99902s37.334 -2.33301 50.001 -3l19 -1v-90l-62 -10l6.5 -16c4.33301 -10.667 8.5 -24.5 12.5 -41.5s6 -35.167 6 -54.5
c0 -37.333 -10 -71.333 -30 -102s-49 -55 -87 -73s-84.333 -27.333 -139 -28l-1 -9c-0.666992 -6 -1 -9.66699 -1 -11c0 -2.66699 4 -5.5 12 -8.5s19.833 -7.16699 35.5 -12.5s34.5 -12.333 56.5 -21c42.667 -16.667 76.5 -32.5 101.5 -47.5s42.833 -30.5 53.5 -46.5
s16 -33.667 16 -53c0 -31.333 -11 -57.666 -33 -78.999s-52.333 -37.5 -91 -48.5s-83 -16.5 -133 -16.5zM272.001 287.001c27.333 0 48.5 3.00195 63.5 9.00195s25.333 17.167 31 33.5s8.5 39.166 8.5 68.499c0 21.333 -1.16699 39.666 -3.5 54.999s-5.5 25 -9.5 29
c-2 2 -5.83301 3.66699 -11.5 5s-12.334 2.16602 -20.001 2.49902l-23.5 1c-8 0.333008 -15.333 0.5 -22 0.5c-30 0 -53.5 -2.16699 -70.5 -6.5s-29.167 -13.666 -36.5 -27.999s-11 -36.5 -11 -66.5c0 -40.667 7.33301 -68 22 -82s42.334 -21 83.001 -21zM205.001 668.003
v108h163v-108h-163z" />
    <glyph glyph-name="uni0122" unicode="&#x122;" horiz-adv-x="654" 
d="M349 -13c-40 0 -77.999 5 -113.999 15s-67.833 28 -95.5 54s-49.5 63 -65.5 111s-24 110.333 -24 187c0 75.333 7.5 136.666 22.5 183.999s36.5 84 64.5 110s61.5 43.833 100.5 53.5s82.167 14.5 129.5 14.5c22.667 0 47.5 -1.33301 74.5 -4s53.167 -6 78.5 -10
s46 -8 62 -12l-18 -127c-26.667 3.33301 -58.334 6.66602 -95.001 9.99902s-72.667 5 -108 5c-30.667 0 -54.167 -1.5 -70.5 -4.5s-28.166 -7.83301 -35.499 -14.5c-10.667 -9.33301 -20.334 -29.833 -29.001 -61.5s-13 -79.834 -13 -144.501
c0 -49.333 2.66699 -88.166 8 -116.499s11.5 -49.166 18.5 -62.499s12.833 -22.666 17.5 -27.999c6 -5.33301 16.667 -10.666 32 -15.999s38 -8 68 -8c14.667 0 28.167 0.5 40.5 1.5s23.166 2.5 32.499 4.5v217l70 -75l-172 12v113h255v-362l-31.5 -11.5
c-21 -7.66699 -49.167 -15.334 -84.5 -23.001s-74.666 -11.5 -117.999 -11.5zM308.001 -253l-27.999 47.0029c11.333 7.33301 19.666 21.166 24.999 41.499s8 46.166 8 77.499v35h106v-27c0 -36 -5.66699 -66 -17 -90s-25.5 -42.833 -42.5 -56.5
s-34.167 -22.834 -51.5 -27.501z" />
    <glyph glyph-name="uni0123" unicode="&#x123;" horiz-adv-x="565" 
d="M277 -179c-30.667 0 -60.333 1.66797 -89 5.00098s-54.334 7.33301 -77.001 12s-40.667 8.66699 -54 12l-20 5l17 118c48 -7.33301 95.833 -14 143.5 -20s92.5 -9 134.5 -9c22.667 0 38.167 1.16699 46.5 3.5s12.5 6.5 12.5 12.5c0 2.66699 -1.5 5.16699 -4.5 7.5
s-9.83301 5.66602 -20.5 9.99902s-27.667 10.666 -51 18.999l-95 34.5c-28 10 -48.333 17.667 -61 23s-20.667 9.5 -24 12.5s-5 5.83301 -5 8.5c0 6 2 15.167 6 27.5s8.5 25.333 13.5 39s9.5 25.167 13.5 34.5l6 14c-46 16 -81.5 40 -106.5 72s-37.5 73.333 -37.5 124
c0 54 12.667 96.667 38 128s59 53.666 101 66.999s87.333 20 136 20c14 0 31.667 -0.333008 53 -1s43.5 -1.66699 66.5 -3s44.833 -2.66602 65.5 -3.99902s37.334 -2.33301 50.001 -3l19 -1v-90l-62 -10l6.5 -16c4.33301 -10.667 8.5 -24.5 12.5 -41.5s6 -35.167 6 -54.5
c0 -37.333 -10 -71.333 -30 -102s-49 -55 -87 -73s-84.333 -27.333 -139 -28l-1 -9c-0.666992 -6 -1 -9.66699 -1 -11c0 -2.66699 4 -5.5 12 -8.5s19.833 -7.16699 35.5 -12.5s34.5 -12.333 56.5 -21c42.667 -16.667 76.5 -32.5 101.5 -47.5s42.833 -30.5 53.5 -46.5
s16 -33.667 16 -53c0 -31.333 -11 -57.666 -33 -78.999s-52.333 -37.5 -91 -48.5s-83 -16.5 -133 -16.5zM272.001 287.001c27.333 0 48.5 3.00195 63.5 9.00195s25.333 17.167 31 33.5s8.5 39.166 8.5 68.499c0 21.333 -1.16699 39.666 -3.5 54.999s-5.5 25 -9.5 29
c-2 2 -5.83301 3.66699 -11.5 5s-12.334 2.16602 -20.001 2.49902l-23.5 1c-8 0.333008 -15.333 0.5 -22 0.5c-30 0 -53.5 -2.16699 -70.5 -6.5s-29.167 -13.666 -36.5 -27.999s-11 -36.5 -11 -66.5c0 -40.667 7.33301 -68 22 -82s42.334 -21 83.001 -21zM232.001 849.003
l-27.999 -47.0029c11.333 -7.33301 19.666 -21.166 24.999 -41.499s8 -46.166 8 -77.499v-35h106v27c0 36 -5.66699 66 -17 90s-25.5 42.833 -42.5 56.5s-34.167 22.834 -51.5 27.501z" />
    <glyph glyph-name="Hbar" unicode="&#x126;" horiz-adv-x="706" 
d="M679 609v-112h-658v112h658zM83 0v703h157l-4 -329l-69 50h372l-69 -50l-4 329h157v-703h-157l4 340l69 -50h-372l69 50l4 -340h-157z" />
    <glyph glyph-name="hbar" unicode="&#x127;" horiz-adv-x="644" 
d="M87 761l156.996 0.00292969v-220c13.333 6.66699 29.833 14 49.5 22s40.834 15 63.501 21s45.334 9 68.001 9c41.333 0 73 -9.5 95 -28.5s37.167 -45 45.5 -78s12.5 -70.167 12.5 -111.5v-375h-149v348c0 27.333 -1.5 48.166 -4.5 62.499s-7.16699 25.166 -12.5 32.499
c-3.33301 4.66699 -8.66602 8.33398 -15.999 11.001s-15.666 4 -24.999 4c-10 0 -22 -1.83301 -36 -5.5s-28 -7.83398 -42 -12.501s-25.667 -8.83398 -35 -12.501l-14 -5.5v-422h-157v761zM-3.00391 609.003v106h376v-106l-192 3z" />
    <glyph glyph-name="Itilde" unicode="&#x128;" horiz-adv-x="324" 
d="M260 746c-12.667 0 -27.665 2.33203 -44.998 6.99902s-34.833 9.83398 -52.5 15.501l-48 15.5c-14.333 4.66699 -24.5 7 -30.5 7c-4.66699 0 -9.16699 -3.33301 -13.5 -10s-7.83301 -13.5 -10.5 -20.5l-4 -10.5l-76 10c1.33301 45.333 9.66602 77.666 24.999 96.999
s35 29 59 29c13.333 0 28.666 -2.16699 45.999 -6.5s34.833 -9.33301 52.5 -15l48 -15c14.333 -4.33301 24.5 -6.5 30.5 -6.5c4.66699 0 9 3.33301 13 10s7.33301 13.334 10 20.001l4 10l75 -12c-0.666992 -44.667 -8.5 -76.667 -23.5 -96s-34.833 -29 -59.5 -29z
M83.002 -0.000976562l4 324l-4 379h158l-3 -313l3 -390h-158z" />
    <glyph glyph-name="itilde" unicode="&#x129;" horiz-adv-x="311" 
d="M245 656c-12 0 -25.502 2.33105 -40.502 6.99805s-29.833 9.83398 -44.5 15.501l-40.5 15.5c-12.333 4.66699 -21.833 7 -28.5 7c-5.33301 0 -10.5 -3.33301 -15.5 -10s-9 -13.5 -12 -20.5l-4.5 -10.5l-76 10c1.33301 46 10.833 78.833 28.5 98.5s40.5 29.5 68.5 29.5
c12.667 0 26.334 -2.16699 41.001 -6.5s29.334 -9.33301 44.001 -15s28.167 -10.667 40.5 -15s21.833 -6.5 28.5 -6.5c5.33301 0 10.333 3.33301 15 10s8.5 13.334 11.5 20.001l4.5 10l75 -12c-0.666992 -45.333 -9.66699 -77.833 -27 -97.5s-40 -29.5 -68 -29.5z
M77.998 -0.00195312v588h155v-588h-155z" />
    <glyph glyph-name="Imacron" unicode="&#x12a;" horiz-adv-x="324" 
d="M-16 775v96h356v-96h-356zM83 0l4 324l-4 379h158l-3 -313l3 -390h-158z" />
    <glyph glyph-name="imacron" unicode="&#x12b;" horiz-adv-x="311" 
d="M-1 668v96h313v-96h-313zM78 0v588h155v-588h-155z" />
    <glyph glyph-name="Iogonek" unicode="&#x12e;" horiz-adv-x="324" 
d="M83 0l4 324l-4 379h158l-3 -313l3 -390h-158zM161 -179c-32.667 0 -57.834 6.83301 -75.501 20.5s-26.5 34.167 -26.5 61.5c0 15.333 3.66699 30 11 44s18.5 27.333 33.5 40s33.833 24 56.5 34l81 -20c-30 -9.33301 -53.333 -19.833 -70 -31.5s-25 -23.5 -25 -35.5
c0 -8 4.16699 -13.667 12.5 -17s19.5 -5 33.5 -5c10.667 0 21.667 0.666992 33 2l17 2v-86l-23 -4.5c-15.333 -3 -34.666 -4.5 -57.999 -4.5z" />
    <glyph glyph-name="iogonek" unicode="&#x12f;" horiz-adv-x="311" 
d="M78 0v588h155v-588h-155zM74 668v108h163v-108h-163zM147 -179c-32.667 0 -57.834 6.83301 -75.501 20.5s-26.5 34.167 -26.5 61.5c0 15.333 3.66699 30 11 44s18.5 27.333 33.5 40s33.833 24 56.5 34l81 -20c-30 -9.33301 -53.333 -19.833 -70 -31.5
s-25 -23.5 -25 -35.5c0 -8 4.16699 -13.667 12.5 -17s19.5 -5 33.5 -5c10.667 0 21.667 0.666992 33 2l17 2v-86l-23 -4.5c-15.333 -3 -34.666 -4.5 -57.999 -4.5z" />
    <glyph glyph-name="Idotaccent" unicode="&#x130;" horiz-adv-x="324" 
d="M83 0l4 324l-4 379h158l-3 -313l3 -390h-158zM83 761v108h158v-108h-158z" />
    <glyph glyph-name="dotlessi" unicode="&#x131;" horiz-adv-x="311" 
d="M78 0v588h155v-588h-155z" />
    <glyph glyph-name="IJ" unicode="&#x132;" horiz-adv-x="687" 
d="M83 0l4 324l-4 379h158l-3 -313l3 -390h-158zM399 -13c-14.667 0 -29.333 1 -44 3s-27 3.83301 -37 5.5l-15 2.5l15 133c10 -2 23.833 -4.16699 41.5 -6.5s31.834 -3.5 42.501 -3.5s19.167 2.5 25.5 7.5s11.166 16.333 14.499 34s5 45.167 5 82.5v458h157v-456
c0 -64.667 -9 -116 -27 -154s-42.333 -65.167 -73 -81.5s-65.667 -24.5 -105 -24.5z" />
    <glyph glyph-name="ij" unicode="&#x133;" horiz-adv-x="669" 
d="M78 0v588h155v-588h-155zM74 668v108h163v-108h-163zM392 -179c-13.333 0 -28.501 0.830078 -45.501 2.49707s-31.5 3.33398 -43.5 5.00098l-18 2.5l16 126l14.5 -2c9.66699 -1.33301 21.167 -2.66602 34.5 -3.99902s24.666 -2 33.999 -2c14.667 0 25.167 3 31.5 9
s10.333 17.667 12 35s2.5 43 2.5 77v518h155v-519c0 -62 -9.16699 -111.167 -27.5 -147.5s-42.166 -62.166 -71.499 -77.499s-60.666 -23 -93.999 -23zM429.999 667.997v108h163v-108h-163z" />
    <glyph glyph-name="Jcircumflex" unicode="&#x134;" horiz-adv-x="363" 
d="M39 750l-33 65l150 90h73l149 -90l-33 -65l-149 53h-7zM75 -13c-14.667 0 -29.333 1 -44 3s-27 3.83301 -37 5.5l-15 2.5l15 133c10 -2 23.833 -4.16699 41.5 -6.5s31.834 -3.5 42.501 -3.5s19.167 2.5 25.5 7.5s11.166 16.333 14.499 34s5 45.167 5 82.5v458h157v-456
c0 -64.667 -9 -116 -27 -154s-42.333 -65.167 -73 -81.5s-65.667 -24.5 -105 -24.5z" />
    <glyph glyph-name="jcircumflex" unicode="&#x135;" horiz-adv-x="346" 
d="M39 644l-33 62l147 101h73l147 -101l-33 -62l-147 61h-7zM81 -179c-13.333 0 -28.501 0.830078 -45.501 2.49707s-31.5 3.33398 -43.5 5.00098l-18 2.5l16 126l14.5 -2c9.66699 -1.33301 21.167 -2.66602 34.5 -3.99902s24.666 -2 33.999 -2c14.667 0 25.167 3 31.5 9
s10.333 17.667 12 35s2.5 43 2.5 77v518h155v-519c0 -62 -9.16699 -111.167 -27.5 -147.5s-42.166 -62.166 -71.499 -77.499s-60.666 -23 -93.999 -23z" />
    <glyph glyph-name="uni0136" unicode="&#x136;" horiz-adv-x="664" 
d="M482 0l-239 369l229 334h182l-242 -328v-6l254 -369h-184zM83 0l3 358l-3 345h158v-703h-158zM290 -253l-27.999 47.0029c11.333 7.33301 19.666 21.166 24.999 41.499s8 46.166 8 77.499v35h106v-27c0 -36 -5.66699 -66 -17 -90s-25.5 -42.833 -42.5 -56.5
s-34.167 -22.834 -51.5 -27.501z" />
    <glyph glyph-name="uni0137" unicode="&#x137;" horiz-adv-x="600" 
d="M441 0l-216 313l194 275h188l-222 -269v-5l246 -314h-190zM74 0l4 321l-4 440h155v-761h-155zM269 -253l-27.999 47.0029c11.333 7.33301 19.666 21.166 24.999 41.499s8 46.166 8 77.499v35h106v-27c0 -36 -5.66699 -66 -17 -90s-25.5 -42.833 -42.5 -56.5
s-34.167 -22.834 -51.5 -27.501z" />
    <glyph glyph-name="kgreenlandic" unicode="&#x138;" horiz-adv-x="605" 
d="M446 0h190l-246 314v5l222 269h-187l-235 -332v116zM79 0l4 321l-4 267h103l52 -112v-476h-155z" />
    <glyph glyph-name="Lacute" unicode="&#x139;" horiz-adv-x="504" 
d="M83 0v703h157l-6 -641l-69 79l339 3v-144h-421zM25 750l-20 83l294 77l28 -110z" />
    <glyph glyph-name="lacute" unicode="&#x13a;" horiz-adv-x="303" 
d="M26 808l-20 83l294 77l28 -110zM74 0v761h155v-761h-155z" />
    <glyph glyph-name="uni013B" unicode="&#x13b;" horiz-adv-x="504" 
d="M83 0v703h157l-6 -641l-69 79l339 3v-144h-421zM220 -253l-27.999 47.0029c11.333 7.33301 19.666 21.166 24.999 41.499s8 46.166 8 77.499v35h106v-27c0 -36 -5.66699 -66 -17 -90s-25.5 -42.833 -42.5 -56.5s-34.167 -22.834 -51.5 -27.501z" />
    <glyph glyph-name="uni013C" unicode="&#x13c;" horiz-adv-x="303" 
d="M74 0v761h155v-761h-155zM98 -253l-27.999 47.0029c11.333 7.33301 19.666 21.166 24.999 41.499s8 46.166 8 77.499v35h106v-27c0 -36 -5.66699 -66 -17 -90s-25.5 -42.833 -42.5 -56.5s-34.167 -22.834 -51.5 -27.501z" />
    <glyph glyph-name="Lcaron" unicode="&#x13d;" horiz-adv-x="504" 
d="M83 0v703h157l-6 -641l-69 79l339 3v-144h-421zM125 749l-167 100l33 61l167 -59h7l167 59l33 -61l-167 -100h-73z" />
    <glyph glyph-name="lcaron" unicode="&#x13e;" horiz-adv-x="403" 
d="M74 0v761h155v-761h-155zM312 501l-19 260h119l-20 -260h-80z" />
    <glyph glyph-name="Ldotaccent" unicode="&#x13f;" horiz-adv-x="504" 
d="M325 350v134h169v-134h-169zM83 0v703h157l-6 -641l-69 79l339 3v-144h-421z" />
    <glyph glyph-name="ldot" unicode="&#x140;" horiz-adv-x="486" 
d="M320 340v144h163v-144h-163zM83 0v761h155v-761h-155z" />
    <glyph glyph-name="Lslash" unicode="&#x141;" horiz-adv-x="485" 
d="M14 216v108l373 211v-109zM83 0v703h157l-6 -641l-69 79l339 3v-144h-421z" />
    <glyph glyph-name="lslash" unicode="&#x142;" horiz-adv-x="365" 
d="M105 0v302l-98 -59v114l98 59v345h155v-252l98 60v-115l-98 -59v-395h-155z" />
    <glyph glyph-name="Nacute" unicode="&#x143;" horiz-adv-x="716" 
d="M83 0v703h201l216 -514h6l-14 514h143v-703h-201l-216 515h-6l14 -515h-143zM232 750l-20 83l294 77l28 -110z" />
    <glyph glyph-name="nacute" unicode="&#x144;" 
d="M79 0l0.000976562 588.003h99l18 -59h6c13.333 8 27.833 16.167 43.5 24.5s32.5 16.166 50.5 23.499s37 13.166 57 17.499s41 6.5 63 6.5c41.333 0 72.666 -9.33301 93.999 -28s36 -44.334 44 -77.001s12 -69.667 12 -111v-385h-155v356c0 27.333 -0.666992 48 -2 62
s-5.33301 25 -12 33c-4 5.33301 -9.33301 9.16602 -16 11.499s-14.667 3.5 -24 3.5c-12.667 0 -26.5 -2 -41.5 -6s-29.667 -9.16699 -44 -15.5s-26.833 -13.166 -37.5 -20.499v-424h-155zM203.001 646.003l-22 81l293 89l31 -112z" />
    <glyph glyph-name="uni0145" unicode="&#x145;" horiz-adv-x="716" 
d="M83 0v703h201l216 -514h6l-14 514h143v-703h-201l-216 515h-6l14 -515h-143zM316 -253l-27.999 47.0029c11.333 7.33301 19.666 21.166 24.999 41.499s8 46.166 8 77.499v35h106v-27c0 -36 -5.66699 -66 -17 -90s-25.5 -42.833 -42.5 -56.5
s-34.167 -22.834 -51.5 -27.501z" />
    <glyph glyph-name="uni0146" unicode="&#x146;" 
d="M79 0l0.000976562 588.003h99l18 -59h6c13.333 8 27.833 16.167 43.5 24.5s32.5 16.166 50.5 23.499s37 13.166 57 17.499s41 6.5 63 6.5c41.333 0 72.666 -9.33301 93.999 -28s36 -44.334 44 -77.001s12 -69.667 12 -111v-385h-155v356c0 27.333 -0.666992 48 -2 62
s-5.33301 25 -12 33c-4 5.33301 -9.33301 9.16602 -16 11.499s-14.667 3.5 -24 3.5c-12.667 0 -26.5 -2 -41.5 -6s-29.667 -9.16699 -44 -15.5s-26.833 -13.166 -37.5 -20.499v-424h-155zM274.001 -252.997l-27.999 47.0029c11.333 7.33301 19.666 21.166 24.999 41.499
s8 46.166 8 77.499v35h106v-27c0 -36 -5.66699 -66 -17 -90s-25.5 -42.833 -42.5 -56.5s-34.167 -22.834 -51.5 -27.501z" />
    <glyph glyph-name="Ncaron" unicode="&#x147;" horiz-adv-x="716" 
d="M83 0v703h201l216 -514h6l-14 514h143v-703h-201l-216 515h-6l14 -515h-143zM321 749l-167 100l33 61l167 -59h7l167 59l33 -61l-167 -100h-73z" />
    <glyph glyph-name="ncaron" unicode="&#x148;" 
d="M79 0l0.000976562 588.003h99l18 -59h6c13.333 8 27.833 16.167 43.5 24.5s32.5 16.166 50.5 23.499s37 13.166 57 17.499s41 6.5 63 6.5c41.333 0 72.666 -9.33301 93.999 -28s36 -44.334 44 -77.001s12 -69.667 12 -111v-385h-155v356c0 27.333 -0.666992 48 -2 62
s-5.33301 25 -12 33c-4 5.33301 -9.33301 9.16602 -16 11.499s-14.667 3.5 -24 3.5c-12.667 0 -26.5 -2 -41.5 -6s-29.667 -9.16699 -44 -15.5s-26.833 -13.166 -37.5 -20.499v-424h-155zM281.001 657.003l-167 105l33 61l167 -64h7l167 64l33 -61l-167 -105h-73z" />
    <glyph glyph-name="Eng" unicode="&#x14a;" horiz-adv-x="716" 
d="M414 -99l18.001 0.000976562c8 0 15.167 1.83301 21.5 5.5s9.5 8.5 9.5 14.5c0 9.33301 -3.5 21.666 -10.5 36.999l-18.5 42h201v-24.5v-16.5c0 -39.333 -7.33301 -70.333 -22 -93s-35.334 -38.667 -62.001 -48s-58 -14 -94 -14h-43v97zM83.001 0.000976562v703h201
l216 -514h6l-14 514h143v-703h-201l-216 515h-6l14 -515h-143z" />
    <glyph glyph-name="eng" unicode="&#x14b;" 
d="M79 0l-0.00292969 588.003h99l18 -59h6c13.333 8 27.833 16.167 43.5 24.5s32.5 16.166 50.5 23.499s37 13.166 57 17.499s41 6.5 63 6.5c41.333 0 72.666 -9.33301 93.999 -28s36 -44.334 44 -77.001s12 -69.667 12 -111v-321c0 -56 -9.16699 -100.833 -27.5 -134.5
s-42.166 -58 -71.499 -73s-60.666 -22.5 -93.999 -22.5c-16.667 0 -30.667 0.5 -42 1.5s-26.666 2.83301 -45.999 5.5l17 125c10.667 -0.666992 20.834 -1.5 30.501 -2.5s20.5 -1.5 32.5 -1.5c14.667 0 25.167 3 31.5 9s10.333 17.667 12 35s2.5 43 2.5 77v273
c0 27.333 -0.666992 48 -2 62s-5.33301 25 -12 33c-4 5.33301 -9.33301 9.16602 -16 11.499s-14.667 3.5 -24 3.5c-12.667 0 -26.5 -2 -41.5 -6s-29.667 -9.16699 -44 -15.5s-26.833 -13.166 -37.5 -20.499v-424h-155z" />
    <glyph glyph-name="Omacron" unicode="&#x14c;" horiz-adv-x="700" 
d="M350 -13c-40.667 0 -79.167 5.33301 -115.5 16s-68.333 29.334 -96 56.001s-49.334 63.834 -65.001 111.501s-23.5 108.5 -23.5 182.5s7.83301 134.667 23.5 182s37.334 84.166 65.001 110.499s59.667 44.666 96 54.999s74.833 15.5 115.5 15.5
c41.333 0 80 -5.16699 116 -15.5s67.833 -28.666 95.5 -54.999s49.334 -63.166 65.001 -110.499s23.5 -108 23.5 -182s-7.83301 -134.833 -23.5 -182.5s-37.334 -84.834 -65.001 -111.501s-59.5 -45.334 -95.5 -56.001s-74.667 -16 -116 -16zM350 125
c24 0 44.502 2.83496 61.502 8.50195s31.167 16.334 42.5 32.001s19.666 38.5 24.999 68.5s8 69.333 8 118c0 48 -2.66699 87 -8 117s-13.5 52.833 -24.5 68.5s-25.167 26.334 -42.5 32.001s-38 8.5 -62 8.5s-44.667 -2.83301 -62 -8.5s-31.5 -16.334 -42.5 -32.001
s-19.167 -38.5 -24.5 -68.5s-8 -69.333 -8 -118s2.66699 -87.834 8 -117.501s13.666 -52.334 24.999 -68.001s25.5 -26.334 42.5 -32.001s37.5 -8.5 61.5 -8.5zM154.002 775.002v96h392v-96h-392z" />
    <glyph glyph-name="omacron" unicode="&#x14d;" horiz-adv-x="612" 
d="M307 -13c-64.667 0 -116.001 12.499 -154.001 37.499s-65 60.5 -81 106.5s-24 100.667 -24 164c0 62.667 8 116.834 24 162.501s43 81 81 106s89.667 37.5 155 37.5c64.667 0 115.667 -12.5 153 -37.5s63.833 -60.333 79.5 -106s23.5 -100.167 23.5 -163.5
c0 -62.667 -7.83301 -117 -23.5 -163s-42.167 -81.5 -79.5 -106.5s-88.666 -37.5 -153.999 -37.5zM306.999 104.999c19.333 0 35.3311 2.66699 47.998 8s22.834 15 30.501 29s13 33.333 16 58s4.5 56.334 4.5 95.001c0 38 -1.66699 69.333 -5 94
s-8.66602 43.834 -15.999 57.501s-17.333 23.167 -30 28.5s-28.667 8 -48 8s-35.5 -2.66699 -48.5 -8s-23.333 -14.833 -31 -28.5s-13.167 -32.834 -16.5 -57.501s-5 -56 -5 -94c0 -38.667 1.66699 -70.334 5 -95.001s8.83301 -44 16.5 -58s18 -23.667 31 -29
s29.167 -8 48.5 -8zM109.997 667.999v96h393v-96h-393z" />
    <glyph glyph-name="Ohungarumlaut" unicode="&#x150;" horiz-adv-x="700" 
d="M350 -13c-40.667 0 -79.167 5.33301 -115.5 16s-68.333 29.334 -96 56.001s-49.334 63.834 -65.001 111.501s-23.5 108.5 -23.5 182.5s7.83301 134.667 23.5 182s37.334 84.166 65.001 110.499s59.667 44.666 96 54.999s74.833 15.5 115.5 15.5
c41.333 0 80 -5.16699 116 -15.5s67.833 -28.666 95.5 -54.999s49.334 -63.166 65.001 -110.499s23.5 -108 23.5 -182s-7.83301 -134.833 -23.5 -182.5s-37.334 -84.834 -65.001 -111.501s-59.5 -45.334 -95.5 -56.001s-74.667 -16 -116 -16zM350 125
c24 0 44.502 2.83496 61.502 8.50195s31.167 16.334 42.5 32.001s19.666 38.5 24.999 68.5s8 69.333 8 118c0 48 -2.66699 87 -8 117s-13.5 52.833 -24.5 68.5s-25.167 26.334 -42.5 32.001s-38 8.5 -62 8.5s-44.667 -2.83301 -62 -8.5s-31.5 -16.334 -42.5 -32.001
s-19.167 -38.5 -24.5 -68.5s-8 -69.333 -8 -118s2.66699 -87.834 8 -117.501s13.666 -52.334 24.999 -68.001s25.5 -26.334 42.5 -32.001s37.5 -8.5 61.5 -8.5zM98.002 750.002l-21 83l264 77l28 -110zM433.002 750.002l-21 83l267 77l28 -110z" />
    <glyph glyph-name="ohungarumlaut" unicode="&#x151;" horiz-adv-x="612" 
d="M307 -13c-64.667 0 -116.001 12.499 -154.001 37.499s-65 60.5 -81 106.5s-24 100.667 -24 164c0 62.667 8 116.834 24 162.501s43 81 81 106s89.667 37.5 155 37.5c64.667 0 115.667 -12.5 153 -37.5s63.833 -60.333 79.5 -106s23.5 -100.167 23.5 -163.5
c0 -62.667 -7.83301 -117 -23.5 -163s-42.167 -81.5 -79.5 -106.5s-88.666 -37.5 -153.999 -37.5zM306.999 104.999c19.333 0 35.3311 2.66699 47.998 8s22.834 15 30.501 29s13 33.333 16 58s4.5 56.334 4.5 95.001c0 38 -1.66699 69.333 -5 94
s-8.66602 43.834 -15.999 57.501s-17.333 23.167 -30 28.5s-28.667 8 -48 8s-35.5 -2.66699 -48.5 -8s-23.333 -14.833 -31 -28.5s-13.167 -32.834 -16.5 -57.501s-5 -56 -5 -94c0 -38.667 1.66699 -70.334 5 -95.001s8.83301 -44 16.5 -58s18 -23.667 31 -29
s29.167 -8 48.5 -8zM189.997 624.999l-50 67l150 127l63 -86zM377.997 624.999l-50 67l150 127l63 -86z" />
    <glyph glyph-name="OE" unicode="&#x152;" horiz-adv-x="970" 
d="M350 -13c-40.667 0 -79.167 5.33301 -115.5 16s-68.333 29.334 -96 56.001s-49.334 63.834 -65.001 111.501s-23.5 108.5 -23.5 182.5s7.83301 134.667 23.5 182s37.334 84.166 65.001 110.499s59.667 44.666 96 54.999s74.833 15.5 115.5 15.5
c25.333 0 51.166 -3.33301 77.499 -10s49.833 -15.667 70.5 -27h74l-70 -70v94h422v-136l-266 3l-4 -148h245v-132h-245l4 -158l266 2v-134h-422v95l70 -70h-74c-20.667 -11.333 -44.167 -20.5 -70.5 -27.5s-52.166 -10.5 -77.499 -10.5zM350 125
c24 0 44.502 2.83496 61.502 8.50195s31.167 16.334 42.5 32.001s19.666 38.5 24.999 68.5s8 69.333 8 118c0 48 -2.66699 87 -8 117s-13.5 52.833 -24.5 68.5s-25.167 26.334 -42.5 32.001s-38 8.5 -62 8.5s-44.667 -2.83301 -62 -8.5s-31.5 -16.334 -42.5 -32.001
s-19.167 -38.5 -24.5 -68.5s-8 -69.333 -8 -118s2.66699 -87.834 8 -117.501s13.666 -52.334 24.999 -68.001s25.5 -26.334 42.5 -32.001s37.5 -8.5 61.5 -8.5z" />
    <glyph glyph-name="oe" unicode="&#x153;" horiz-adv-x="966" 
d="M307 -13c-64.667 0 -115.999 12.499 -153.999 37.499s-65 60.5 -81 106.5s-24 100.333 -24 163c0 63.333 8 117.833 24 163.5s43 81 81 106s89.333 37.5 154 37.5c42 0 77.667 -5.33301 107 -16s54.333 -26.334 75 -47.001h4c24 22.667 51.833 38.834 83.5 48.501
s66.167 14.5 103.5 14.5c52 0 96 -9 132 -27s63.5 -47.167 82.5 -87.5s28.5 -94.833 28.5 -163.5v-83h-352v-4c1.33301 -32.667 5.16602 -57.167 11.499 -73.5s12.833 -27.5 19.5 -33.5s15 -10.667 25 -14s22.333 -5 37 -5c19.333 0 41 2.16699 65 6.5s47 9.33301 69 15
s40.167 10.667 54.5 15l21.5 6.5l38 -112l-19.5 -8c-13 -5.33301 -30.5 -11.666 -52.5 -18.999s-46.667 -13.666 -74 -18.999s-55.333 -8 -84 -8c-38.667 0 -74 5 -106 15s-59.667 26 -83 48h-4c-20 -20.667 -44.833 -36.334 -74.5 -47.001s-65.5 -16 -107.5 -16z
M307.001 104.999c19.333 0 35.3311 2.66699 47.998 8s22.834 15 30.501 29s13 33.333 16 58s4.5 56 4.5 94c0 38.667 -1.66699 70.334 -5 95.001s-8.66602 43.834 -15.999 57.501s-17.333 23.167 -30 28.5s-28.667 8 -48 8s-35.5 -2.66699 -48.5 -8
s-23.333 -14.833 -31 -28.5s-13.167 -32.834 -16.5 -57.501s-5 -56.334 -5 -95.001c0 -38 1.66699 -69.333 5 -94s8.83301 -44 16.5 -58s18 -23.667 31 -29s29.167 -8 48.5 -8zM571.999 351.999l192.997 4c-0.666992 25.333 -2.33398 46.5 -5.00098 63.5s-7 29.5 -13 37.5
c-4.66699 5.33301 -11.667 10.333 -21 15s-24.666 7 -45.999 7c-23.333 0 -41.166 -2.5 -53.499 -7.5s-21.833 -11.167 -28.5 -18.5c-7.33301 -8.66699 -13.166 -21.5 -17.499 -38.5s-7.16602 -37.833 -8.49902 -62.5z" />
    <glyph glyph-name="Racute" unicode="&#x154;" horiz-adv-x="695" 
d="M83 0l4 325.999l-4 376c4 0 15.667 0.833008 35 2.5s42.666 3.33398 69.999 5.00098s55.333 3.16699 84 4.5s54.334 2 77.001 2c54 0 100.833 -7.66699 140.5 -23s70.167 -40 91.5 -74s32 -79.667 32 -137c0 -55.333 -12 -100.333 -36 -135s-59.333 -59.667 -106 -75v-6
l153 -266h-174l-123 250l-87 2v-252h-157zM352 374.999c40.667 0 67.1689 8.66699 79.502 26s18.5 44 18.5 80c0 32.667 -2.33301 56 -7 70s-10.667 23.333 -18 28c-6 4 -15 7 -27 9s-27 3 -45 3c-26.667 0 -48.334 -0.5 -65.001 -1.5s-32.667 -2.5 -48 -4.5v-203
c19.333 -2 38.666 -3.66699 57.999 -5s37.333 -2 54 -2zM197.002 749.999l-20 83l294 77l28 -110z" />
    <glyph glyph-name="racute" unicode="&#x155;" horiz-adv-x="430" 
d="M79 0l0.00195312 587.998h96l20 -62h6l14.5 11.5c9.66699 7.66699 22.5 16.334 38.5 26.001s33.333 18.334 52 26.001s37 11.5 55 11.5c23.333 0 40 -1.83301 50 -5.5l15 -5.5l-12 -134l-17.5 1.5c-11.667 1 -24.167 1.5 -37.5 1.5
c-16.667 0 -32.834 -1.83301 -48.501 -5.5s-29.834 -8.16699 -42.501 -13.5s-24 -11 -34 -17v-423h-155zM114.002 645.998l-22 81l293 89l31 -112z" />
    <glyph glyph-name="uni0156" unicode="&#x156;" horiz-adv-x="695" 
d="M83 0l4 325.999l-4 376c4 0 15.667 0.833008 35 2.5s42.666 3.33398 69.999 5.00098s55.333 3.16699 84 4.5s54.334 2 77.001 2c54 0 100.833 -7.66699 140.5 -23s70.167 -40 91.5 -74s32 -79.667 32 -137c0 -55.333 -12 -100.333 -36 -135s-59.333 -59.667 -106 -75v-6
l153 -266h-174l-123 250l-87 2v-252h-157zM352 374.999c40.667 0 67.1689 8.66699 79.502 26s18.5 44 18.5 80c0 32.667 -2.33301 56 -7 70s-10.667 23.333 -18 28c-6 4 -15 7 -27 9s-27 3 -45 3c-26.667 0 -48.334 -0.5 -65.001 -1.5s-32.667 -2.5 -48 -4.5v-203
c19.333 -2 38.666 -3.66699 57.999 -5s37.333 -2 54 -2zM296.002 -253.001l-27.999 47.0029c11.333 7.33301 19.666 21.166 24.999 41.499s8 46.166 8 77.499v35h106v-27c0 -36 -5.66699 -66 -17 -90s-25.5 -42.833 -42.5 -56.5s-34.167 -22.834 -51.5 -27.501z" />
    <glyph glyph-name="uni0157" unicode="&#x157;" horiz-adv-x="430" 
d="M79 0l0.00195312 587.998h96l20 -62h6l14.5 11.5c9.66699 7.66699 22.5 16.334 38.5 26.001s33.333 18.334 52 26.001s37 11.5 55 11.5c23.333 0 40 -1.83301 50 -5.5l15 -5.5l-12 -134l-17.5 1.5c-11.667 1 -24.167 1.5 -37.5 1.5
c-16.667 0 -32.834 -1.83301 -48.501 -5.5s-29.834 -8.16699 -42.501 -13.5s-24 -11 -34 -17v-423h-155zM106.002 -253.002l-27.999 47.0029c11.333 7.33301 19.666 21.166 24.999 41.499s8 46.166 8 77.499v35h106v-27c0 -36 -5.66699 -66 -17 -90
s-25.5 -42.833 -42.5 -56.5s-34.167 -22.834 -51.5 -27.501z" />
    <glyph glyph-name="Rcaron" unicode="&#x158;" horiz-adv-x="695" 
d="M83 0l4 325.999l-4 376c4 0 15.667 0.833008 35 2.5s42.666 3.33398 69.999 5.00098s55.333 3.16699 84 4.5s54.334 2 77.001 2c54 0 100.833 -7.66699 140.5 -23s70.167 -40 91.5 -74s32 -79.667 32 -137c0 -55.333 -12 -100.333 -36 -135s-59.333 -59.667 -106 -75v-6
l153 -266h-174l-123 250l-87 2v-252h-157zM352 374.999c40.667 0 67.1689 8.66699 79.502 26s18.5 44 18.5 80c0 32.667 -2.33301 56 -7 70s-10.667 23.333 -18 28c-6 4 -15 7 -27 9s-27 3 -45 3c-26.667 0 -48.334 -0.5 -65.001 -1.5s-32.667 -2.5 -48 -4.5v-203
c19.333 -2 38.666 -3.66699 57.999 -5s37.333 -2 54 -2zM286.002 748.999l-167 100l33 61l167 -59h7l167 59l33 -61l-167 -100h-73z" />
    <glyph glyph-name="rcaron" unicode="&#x159;" horiz-adv-x="430" 
d="M79 0l0.00195312 587.998h96l20 -62h6l14.5 11.5c9.66699 7.66699 22.5 16.334 38.5 26.001s33.333 18.334 52 26.001s37 11.5 55 11.5c23.333 0 40 -1.83301 50 -5.5l15 -5.5l-12 -134l-17.5 1.5c-11.667 1 -24.167 1.5 -37.5 1.5
c-16.667 0 -32.834 -1.83301 -48.501 -5.5s-29.834 -8.16699 -42.501 -13.5s-24 -11 -34 -17v-423h-155zM217.002 656.998l-167 105l33 61l167 -64h7l167 64l33 -61l-167 -105h-73z" />
    <glyph glyph-name="Sacute" unicode="&#x15a;" horiz-adv-x="570" 
d="M278 -13c-32 0 -62.668 3.16309 -92.001 9.49609s-55.5 13.5 -78.5 21.5s-41.167 15.167 -54.5 21.5l-20 9.5l6 18.5l13.5 43l13.5 42.5l6 18l20.5 -7.5c13.667 -5 31.667 -10.667 54 -17s46.666 -12 72.999 -17s52.5 -7.5 78.5 -7.5c12.667 0 22.667 1.16699 30 3.5
s13 4.83301 17 7.5c7.33301 4.66699 13.166 12 17.499 22s6.5 24.333 6.5 43c0 16.667 -6.66699 30.834 -20 42.501s-30.666 22.5 -51.999 32.5l-69 32l-64 31.5c-21.333 11 -40.666 24.167 -57.999 39.5s-31.333 34.5 -42 57.5s-16 51.5 -16 85.5
c0 36.667 9.16699 69.834 27.5 99.501s46 53.334 83 71.001s82.833 26.5 137.5 26.5c24 0 48.167 -1.66699 72.5 -5s46.833 -7.16602 67.5 -11.499s37.167 -8.16602 49.5 -11.499l18.5 -5l-25 -125l-19.5 3.5c-13 2.33301 -29.833 5 -50.5 8s-42.667 5.66699 -66 8
s-45.333 3.5 -66 3.5c-12.667 0 -22.667 -1 -30 -3s-13.666 -4.66699 -18.999 -8c-4.66699 -3.33301 -9.16699 -8.5 -13.5 -15.5s-6.5 -18.833 -6.5 -35.5c0 -12.667 4.66699 -24.167 14 -34.5s22 -19.833 38 -28.5s33.333 -17.334 52 -26.001l71.5 -33
c25 -11.333 48.5 -25 70.5 -41s40 -36.167 54 -60.5s21 -54.833 21 -91.5c0 -43.333 -10.5 -81.333 -31.5 -114s-50.333 -58 -88 -76s-81.5 -27 -131.5 -27zM158.999 749.996l-20 83l294 77l28 -110z" />
    <glyph glyph-name="sacute" unicode="&#x15b;" horiz-adv-x="537" 
d="M282 -13c-30.667 0 -60.3301 2.99512 -88.9971 8.99512s-54.334 12.667 -77.001 20s-40.667 14 -54 20l-20 9l38 122l20.5 -8c13.667 -5.33301 31.5 -11.666 53.5 -18.999s45.167 -13.666 69.5 -18.999s46.833 -8 67.5 -8c11.333 0 20.5 1 27.5 3s12.5 4.33301 16.5 7
c5.33301 4 9.5 9.66699 12.5 17s4.5 15.333 4.5 24c0 16.667 -5.33301 29.5 -16 38.5s-24.834 16.5 -42.501 22.5s-37.5 12 -59.5 18c-21.333 6.66699 -43 13.834 -65 21.501s-42.167 18 -60.5 31s-33.166 29.833 -44.499 50.5s-17 47.334 -17 80.001
c0 52.667 17.667 95 53 127s92 48 170 48c29.333 0 57.666 -2 84.999 -6s51.666 -8.66699 72.999 -14s38 -10 50 -14l-23 -120l-19 4.5c-12.667 3 -29 6.5 -49 10.5s-41.333 7.5 -64 10.5s-44 4.5 -64 4.5c-16.667 0 -28.334 -1 -35.001 -3s-11.667 -4.33301 -15 -7
c-2.66699 -2 -5.16699 -5.16699 -7.5 -9.5s-3.5 -10.166 -3.5 -17.499c0 -14.667 5.33301 -26.5 16 -35.5s24.834 -16.5 42.501 -22.5s36.834 -12 57.501 -18c21.333 -6 43.166 -12.5 65.499 -19.5s42.833 -16.667 61.5 -29s33.667 -29 45 -50s17 -48.5 17 -82.5
c0 -58.667 -19 -106 -57 -142s-92.667 -54 -164 -54zM130.004 645.995l-22 81l293 89l31 -112z" />
    <glyph glyph-name="Scedilla" unicode="&#x15e;" horiz-adv-x="570" 
d="M278 -13c-32 0 -62.668 3.16309 -92.001 9.49609s-55.5 13.5 -78.5 21.5s-41.167 15.167 -54.5 21.5l-20 9.5l6 18.5l13.5 43l13.5 42.5l6 18l20.5 -7.5c13.667 -5 31.667 -10.667 54 -17s46.666 -12 72.999 -17s52.5 -7.5 78.5 -7.5c12.667 0 22.667 1.16699 30 3.5
s13 4.83301 17 7.5c7.33301 4.66699 13.166 12 17.499 22s6.5 24.333 6.5 43c0 16.667 -6.66699 30.834 -20 42.501s-30.666 22.5 -51.999 32.5l-69 32l-64 31.5c-21.333 11 -40.666 24.167 -57.999 39.5s-31.333 34.5 -42 57.5s-16 51.5 -16 85.5
c0 36.667 9.16699 69.834 27.5 99.501s46 53.334 83 71.001s82.833 26.5 137.5 26.5c24 0 48.167 -1.66699 72.5 -5s46.833 -7.16602 67.5 -11.499s37.167 -8.16602 49.5 -11.499l18.5 -5l-25 -125l-19.5 3.5c-13 2.33301 -29.833 5 -50.5 8s-42.667 5.66699 -66 8
s-45.333 3.5 -66 3.5c-12.667 0 -22.667 -1 -30 -3s-13.666 -4.66699 -18.999 -8c-4.66699 -3.33301 -9.16699 -8.5 -13.5 -15.5s-6.5 -18.833 -6.5 -35.5c0 -12.667 4.66699 -24.167 14 -34.5s22 -19.833 38 -28.5s33.333 -17.334 52 -26.001l71.5 -33
c25 -11.333 48.5 -25 70.5 -41s40 -36.167 54 -60.5s21 -54.833 21 -91.5c0 -43.333 -10.5 -81.333 -31.5 -114s-50.333 -58 -88 -76s-81.5 -27 -131.5 -27zM267.999 -179.004c-22.667 0 -42.833 1.50098 -60.5 4.50098l-26.5 4.5v87l12.5 -1l30 -2.5
c11.667 -1 22.5 -1.5 32.5 -1.5c15.333 0 26.833 1.66699 34.5 5s11.5 11.666 11.5 24.999c0 15.333 -1.66699 31.5 -5 48.5s-5.33301 26.833 -6 29.5l76 20c0.666992 -0.666992 2.66699 -6.16699 6 -16.5s6.83301 -23.5 10.5 -39.5s5.5 -33.333 5.5 -52
c0 -34 -10.5 -61 -31.5 -81s-50.833 -30 -89.5 -30z" />
    <glyph glyph-name="scedilla" unicode="&#x15f;" horiz-adv-x="537" 
d="M282 -13c-30.667 0 -60.3301 2.99512 -88.9971 8.99512s-54.334 12.667 -77.001 20s-40.667 14 -54 20l-20 9l38 122l20.5 -8c13.667 -5.33301 31.5 -11.666 53.5 -18.999s45.167 -13.666 69.5 -18.999s46.833 -8 67.5 -8c11.333 0 20.5 1 27.5 3s12.5 4.33301 16.5 7
c5.33301 4 9.5 9.66699 12.5 17s4.5 15.333 4.5 24c0 16.667 -5.33301 29.5 -16 38.5s-24.834 16.5 -42.501 22.5s-37.5 12 -59.5 18c-21.333 6.66699 -43 13.834 -65 21.501s-42.167 18 -60.5 31s-33.166 29.833 -44.499 50.5s-17 47.334 -17 80.001
c0 52.667 17.667 95 53 127s92 48 170 48c29.333 0 57.666 -2 84.999 -6s51.666 -8.66699 72.999 -14s38 -10 50 -14l-23 -120l-19 4.5c-12.667 3 -29 6.5 -49 10.5s-41.333 7.5 -64 10.5s-44 4.5 -64 4.5c-16.667 0 -28.334 -1 -35.001 -3s-11.667 -4.33301 -15 -7
c-2.66699 -2 -5.16699 -5.16699 -7.5 -9.5s-3.5 -10.166 -3.5 -17.499c0 -14.667 5.33301 -26.5 16 -35.5s24.834 -16.5 42.501 -22.5s36.834 -12 57.501 -18c21.333 -6 43.166 -12.5 65.499 -19.5s42.833 -16.667 61.5 -29s33.667 -29 45 -50s17 -48.5 17 -82.5
c0 -58.667 -19 -106 -57 -142s-92.667 -54 -164 -54zM252.004 -179.005c-22.667 0 -42.833 1.50098 -60.5 4.50098l-26.5 4.5v87l12.5 -1l30 -2.5c11.667 -1 22.5 -1.5 32.5 -1.5c15.333 0 26.833 1.66699 34.5 5s11.5 11.666 11.5 24.999c0 15.333 -1.66699 31.5 -5 48.5
s-5.33301 26.833 -6 29.5l76 20c0.666992 -0.666992 2.66699 -6.16699 6 -16.5s6.83301 -23.5 10.5 -39.5s5.5 -33.333 5.5 -52c0 -34 -10.5 -61 -31.5 -81s-50.833 -30 -89.5 -30z" />
    <glyph glyph-name="Scaron" unicode="&#x160;" horiz-adv-x="570" 
d="M278 -13c-32 0 -62.668 3.16309 -92.001 9.49609s-55.5 13.5 -78.5 21.5s-41.167 15.167 -54.5 21.5l-20 9.5l6 18.5l13.5 43l13.5 42.5l6 18l20.5 -7.5c13.667 -5 31.667 -10.667 54 -17s46.666 -12 72.999 -17s52.5 -7.5 78.5 -7.5c12.667 0 22.667 1.16699 30 3.5
s13 4.83301 17 7.5c7.33301 4.66699 13.166 12 17.499 22s6.5 24.333 6.5 43c0 16.667 -6.66699 30.834 -20 42.501s-30.666 22.5 -51.999 32.5l-69 32l-64 31.5c-21.333 11 -40.666 24.167 -57.999 39.5s-31.333 34.5 -42 57.5s-16 51.5 -16 85.5
c0 36.667 9.16699 69.834 27.5 99.501s46 53.334 83 71.001s82.833 26.5 137.5 26.5c24 0 48.167 -1.66699 72.5 -5s46.833 -7.16602 67.5 -11.499s37.167 -8.16602 49.5 -11.499l18.5 -5l-25 -125l-19.5 3.5c-13 2.33301 -29.833 5 -50.5 8s-42.667 5.66699 -66 8
s-45.333 3.5 -66 3.5c-12.667 0 -22.667 -1 -30 -3s-13.666 -4.66699 -18.999 -8c-4.66699 -3.33301 -9.16699 -8.5 -13.5 -15.5s-6.5 -18.833 -6.5 -35.5c0 -12.667 4.66699 -24.167 14 -34.5s22 -19.833 38 -28.5s33.333 -17.334 52 -26.001l71.5 -33
c25 -11.333 48.5 -25 70.5 -41s40 -36.167 54 -60.5s21 -54.833 21 -91.5c0 -43.333 -10.5 -81.333 -31.5 -114s-50.333 -58 -88 -76s-81.5 -27 -131.5 -27zM247.999 748.996l-167 100l33 61l167 -59h7l167 59l33 -61l-167 -100h-73z" />
    <glyph glyph-name="scaron" unicode="&#x161;" horiz-adv-x="537" 
d="M282 -13c-30.667 0 -60.3301 2.99512 -88.9971 8.99512s-54.334 12.667 -77.001 20s-40.667 14 -54 20l-20 9l38 122l20.5 -8c13.667 -5.33301 31.5 -11.666 53.5 -18.999s45.167 -13.666 69.5 -18.999s46.833 -8 67.5 -8c11.333 0 20.5 1 27.5 3s12.5 4.33301 16.5 7
c5.33301 4 9.5 9.66699 12.5 17s4.5 15.333 4.5 24c0 16.667 -5.33301 29.5 -16 38.5s-24.834 16.5 -42.501 22.5s-37.5 12 -59.5 18c-21.333 6.66699 -43 13.834 -65 21.501s-42.167 18 -60.5 31s-33.166 29.833 -44.499 50.5s-17 47.334 -17 80.001
c0 52.667 17.667 95 53 127s92 48 170 48c29.333 0 57.666 -2 84.999 -6s51.666 -8.66699 72.999 -14s38 -10 50 -14l-23 -120l-19 4.5c-12.667 3 -29 6.5 -49 10.5s-41.333 7.5 -64 10.5s-44 4.5 -64 4.5c-16.667 0 -28.334 -1 -35.001 -3s-11.667 -4.33301 -15 -7
c-2.66699 -2 -5.16699 -5.16699 -7.5 -9.5s-3.5 -10.166 -3.5 -17.499c0 -14.667 5.33301 -26.5 16 -35.5s24.834 -16.5 42.501 -22.5s36.834 -12 57.501 -18c21.333 -6 43.166 -12.5 65.499 -19.5s42.833 -16.667 61.5 -29s33.667 -29 45 -50s17 -48.5 17 -82.5
c0 -58.667 -19 -106 -57 -142s-92.667 -54 -164 -54zM238.004 656.995l-167 105l33 61l167 -64h7l167 64l33 -61l-167 -105h-73z" />
    <glyph glyph-name="uni0162" unicode="&#x162;" horiz-adv-x="516" 
d="M177 0l3 572l-196 -3v134h547v-134l-200 3l3 -572h-157zM229 -179c-22.667 0 -42.833 1.50098 -60.5 4.50098l-26.5 4.5v87l12.5 -1l30 -2.5c11.667 -1 22.5 -1.5 32.5 -1.5c15.333 0 26.833 1.66699 34.5 5s11.5 11.666 11.5 24.999c0 15.333 -1.66699 31.5 -5 48.5
s-5.33301 26.833 -6 29.5l76 20c0.666992 -0.666992 2.66699 -6.16699 6 -16.5s6.83301 -23.5 10.5 -39.5s5.5 -33.333 5.5 -52c0 -34 -10.5 -61 -31.5 -81s-50.833 -30 -89.5 -30z" />
    <glyph glyph-name="uni0163" unicode="&#x163;" horiz-adv-x="400" 
d="M258 -13c-35.333 0 -65.501 5.33496 -90.501 16.002s-44 31.167 -57 61.5s-19.5 74.5 -19.5 132.5v246h-68v97l75 14l23 139h127v-134h120v-119h-122v-247c0 -22.667 1.5 -39.334 4.5 -50.001s7.66699 -17.334 14 -20.001s14.5 -4 24.5 -4s21 0.5 33 1.5l31 2.5l13 1
v-126l-32 -5.5c-21.333 -3.66699 -46.666 -5.5 -75.999 -5.5zM193.999 -178.998c-22.667 0 -42.833 1.50098 -60.5 4.50098l-26.5 4.5v87l12.5 -1l30 -2.5c11.667 -1 22.5 -1.5 32.5 -1.5c15.333 0 26.833 1.66699 34.5 5s11.5 11.666 11.5 24.999
c0 15.333 -1.66699 31.5 -5 48.5s-5.33301 26.833 -6 29.5l76 20c0.666992 -0.666992 2.66699 -6.16699 6 -16.5s6.83301 -23.5 10.5 -39.5s5.5 -33.333 5.5 -52c0 -34 -10.5 -61 -31.5 -81s-50.833 -30 -89.5 -30z" />
    <glyph glyph-name="Tcaron" unicode="&#x164;" horiz-adv-x="516" 
d="M177 0l3 572l-196 -3v134h547v-134l-200 3l3 -572h-157zM221 749l-167 100l33 61l167 -59h7l167 59l33 -61l-167 -100h-73z" />
    <glyph glyph-name="tcaron" unicode="&#x165;" horiz-adv-x="522" 
d="M258 -13c-35.333 0 -65.501 5.33496 -90.501 16.002s-44 31.167 -57 61.5s-19.5 74.5 -19.5 132.5v246h-68v97l75 14l23 139h127v-134h120v-119h-122v-247c0 -22.667 1.5 -39.334 4.5 -50.001s7.66699 -17.334 14 -20.001s14.5 -4 24.5 -4s21 0.5 33 1.5l31 2.5l13 1
v-126l-32 -5.5c-21.333 -3.66699 -46.666 -5.5 -75.999 -5.5zM430.999 501.002l-19 260h119l-20 -260h-80z" />
    <glyph glyph-name="Tbar" unicode="&#x166;" horiz-adv-x="516" 
d="M470 424v-99h-427v99h427zM177 0l3 572l-196 -3v134h547v-134l-200 3l3 -572h-157z" />
    <glyph glyph-name="tbar" unicode="&#x167;" horiz-adv-x="400" 
d="M23 329h335v-90l-157 4l-178 -4v90zM258 -13c-35.333 0 -65.501 5.33496 -90.501 16.002s-44 31.167 -57 61.5s-19.5 74.5 -19.5 132.5v246h-68v97l75 14l23 139h127v-134h120v-119h-122v-247c0 -22.667 1.5 -39.334 4.5 -50.001s7.66699 -17.334 14 -20.001
s14.5 -4 24.5 -4s21 0.5 33 1.5l31 2.5l13 1v-126l-32 -5.5c-21.333 -3.66699 -46.666 -5.5 -75.999 -5.5z" />
    <glyph glyph-name="Utilde" unicode="&#x168;" horiz-adv-x="702" 
d="M351 -13c-56.667 0 -104.996 9.33301 -144.996 28s-70.5 51.5 -91.5 98.5s-31.5 112.167 -31.5 195.5v394h157v-366c0 -46.667 1.83301 -84.167 5.5 -112.5s9.66699 -49.666 18 -63.999s19.666 -23.833 33.999 -28.5s32.5 -7 54.5 -7c21.333 0 39.166 2.33301 53.499 7
s25.666 14 33.999 28s14.166 35.167 17.499 63.5s5 66.166 5 113.499v366h157v-386c0 -86 -10.333 -153 -31 -201s-51 -81.5 -91 -100.5s-88.667 -28.5 -146 -28.5zM470.004 750c-14.667 0 -32.167 2.33203 -52.5 6.99902s-40.833 9.83398 -61.5 15.501l-55.5 15.5
c-16.333 4.66699 -27.833 7 -34.5 7c-5.33301 0 -10.5 -3.33301 -15.5 -10s-9 -13.5 -12 -20.5l-4.5 -10.5l-76 10c1.33301 45.333 10.833 77.666 28.5 96.999s40.5 29 68.5 29c15.333 0 33 -2.16699 53 -6.5s40.333 -9.33301 61 -15l55.5 -15
c16.333 -4.33301 27.833 -6.5 34.5 -6.5c5.33301 0 10.333 3.33301 15 10s8.5 13.334 11.5 20.001l4.5 10l75 -12c-0.666992 -44.667 -9.66699 -76.667 -27 -96s-40 -29 -68 -29z" />
    <glyph glyph-name="utilde" unicode="&#x169;" 
d="M230 -13c-44.667 0 -78.833 9.5 -102.5 28.5s-39.834 45 -48.501 78s-13 70.167 -13 111.5v383h155v-368c0 -28.667 1 -49 3 -61s5.33301 -20.333 10 -25c5.33301 -4.66699 11.333 -7.83398 18 -9.50098s14.667 -2.5 24 -2.5c19.333 0 40.5 4.33301 63.5 13
s42.5 18.334 58.5 29.001v424h155v-588h-99l-19 61h-6c-17.333 -10.667 -36.666 -21.667 -57.999 -33s-43.833 -21 -67.5 -29s-48.167 -12 -73.5 -12zM424.001 656c-14.667 0 -32.167 2.33105 -52.5 6.99805s-40.833 9.83398 -61.5 15.501l-55.5 15.5
c-16.333 4.66699 -27.833 7 -34.5 7c-5.33301 0 -10.5 -3.33301 -15.5 -10s-9 -13.5 -12 -20.5l-4.5 -10.5l-76 10c1.33301 46 10.833 78.833 28.5 98.5s40.5 29.5 68.5 29.5c15.333 0 33 -2.16699 53 -6.5s40.333 -9.33301 61 -15l55.5 -15
c16.333 -4.33301 27.833 -6.5 34.5 -6.5c5.33301 0 10.333 3.33301 15 10s8.5 13.334 11.5 20.001l4.5 10l75 -12c-0.666992 -45.333 -9.66699 -77.833 -27 -97.5s-40 -29.5 -68 -29.5z" />
    <glyph glyph-name="Umacron" unicode="&#x16a;" horiz-adv-x="702" 
d="M351 -13c-56.667 0 -104.996 9.33301 -144.996 28s-70.5 51.5 -91.5 98.5s-31.5 112.167 -31.5 195.5v394h157v-366c0 -46.667 1.83301 -84.167 5.5 -112.5s9.66699 -49.666 18 -63.999s19.666 -23.833 33.999 -28.5s32.5 -7 54.5 -7c21.333 0 39.166 2.33301 53.499 7
s25.666 14 33.999 28s14.166 35.167 17.499 63.5s5 66.166 5 113.499v366h157v-386c0 -86 -10.333 -153 -31 -201s-51 -81.5 -91 -100.5s-88.667 -28.5 -146 -28.5zM155.004 775v96h392v-96h-392z" />
    <glyph glyph-name="umacron" unicode="&#x16b;" 
d="M230 -13c-44.667 0 -78.833 9.5 -102.5 28.5s-39.834 45 -48.501 78s-13 70.167 -13 111.5v383h155v-368c0 -28.667 1 -49 3 -61s5.33301 -20.333 10 -25c5.33301 -4.66699 11.333 -7.83398 18 -9.50098s14.667 -2.5 24 -2.5c19.333 0 40.5 4.33301 63.5 13
s42.5 18.334 58.5 29.001v424h155v-588h-99l-19 61h-6c-17.333 -10.667 -36.666 -21.667 -57.999 -33s-43.833 -21 -67.5 -29s-48.167 -12 -73.5 -12zM120.001 668v96h393v-96h-393z" />
    <glyph glyph-name="Uring" unicode="&#x16e;" horiz-adv-x="702" 
d="M351 -13c-56.667 0 -104.996 9.33301 -144.996 28s-70.5 51.5 -91.5 98.5s-31.5 112.167 -31.5 195.5v394h157v-366c0 -46.667 1.83301 -84.167 5.5 -112.5s9.66699 -49.666 18 -63.999s19.666 -23.833 33.999 -28.5s32.5 -7 54.5 -7c21.333 0 39.166 2.33301 53.499 7
s25.666 14 33.999 28s14.166 35.167 17.499 63.5s5 66.166 5 113.499v366h157v-386c0 -86 -10.333 -153 -31 -201s-51 -81.5 -91 -100.5s-88.667 -28.5 -146 -28.5zM351.004 733c-17.333 0 -34.167 2.83301 -50.5 8.5s-29.833 15.334 -40.5 29.001s-16 32.5 -16 56.5
c0 25.333 5.33301 44.833 16 58.5s24.167 23.167 40.5 28.5s33.5 8 51.5 8c17.333 0 34 -2.66699 50 -8s29.167 -14.833 39.5 -28.5s15.5 -33.167 15.5 -58.5c0 -24 -5.16699 -42.833 -15.5 -56.5s-23.5 -23.334 -39.5 -29.001s-33 -8.5 -51 -8.5zM351.003 797
c12.667 0 21.667 2.16699 27 6.5s8 12.166 8 23.499c0 12.667 -2.66699 20.834 -8 24.501s-14.333 5.5 -27 5.5s-21.834 -1.83301 -27.501 -5.5s-8.5 -11.834 -8.5 -24.501c0 -11.333 2.83301 -19.166 8.5 -23.499s14.834 -6.5 27.501 -6.5z" />
    <glyph glyph-name="uring" unicode="&#x16f;" 
d="M230 -13c-44.667 0 -78.833 9.5 -102.5 28.5s-39.834 45 -48.501 78s-13 70.167 -13 111.5v383h155v-368c0 -28.667 1 -49 3 -61s5.33301 -20.333 10 -25c5.33301 -4.66699 11.333 -7.83398 18 -9.50098s14.667 -2.5 24 -2.5c19.333 0 40.5 4.33301 63.5 13
s42.5 18.334 58.5 29.001v424h155v-588h-99l-19 61h-6c-17.333 -10.667 -36.666 -21.667 -57.999 -33s-43.833 -21 -67.5 -29s-48.167 -12 -73.5 -12zM316.001 640c-16.667 0 -33.166 2.83301 -49.499 8.5s-29.833 15.5 -40.5 29.5s-16 33.333 -16 58c0 26 5.33301 46 16 60
s24.167 23.667 40.5 29s33.166 8 50.499 8c16.667 0 33 -2.66699 49 -8s29.167 -15 39.5 -29s15.5 -34 15.5 -60c0 -24.667 -5.16699 -44 -15.5 -58s-23.5 -23.833 -39.5 -29.5s-32.667 -8.5 -50 -8.5zM316.002 697c14.667 0 25.167 2.83301 31.5 8.5s9.5 15.834 9.5 30.501
c0 16 -3.16699 26.333 -9.5 31s-16.833 7 -31.5 7s-25.334 -2.33301 -32.001 -7s-10 -15 -10 -31c0 -14.667 3.33301 -24.834 10 -30.501s17.334 -8.5 32.001 -8.5z" />
    <glyph glyph-name="Uhungarumlaut" unicode="&#x170;" horiz-adv-x="702" 
d="M351 -13c-56.667 0 -104.996 9.33301 -144.996 28s-70.5 51.5 -91.5 98.5s-31.5 112.167 -31.5 195.5v394h157v-366c0 -46.667 1.83301 -84.167 5.5 -112.5s9.66699 -49.666 18 -63.999s19.666 -23.833 33.999 -28.5s32.5 -7 54.5 -7c21.333 0 39.166 2.33301 53.499 7
s25.666 14 33.999 28s14.166 35.167 17.499 63.5s5 66.166 5 113.499v366h157v-386c0 -86 -10.333 -153 -31 -201s-51 -81.5 -91 -100.5s-88.667 -28.5 -146 -28.5zM57.0039 750l-21 83l264 77l28 -110zM392.004 750l-21 83l267 77l28 -110z" />
    <glyph glyph-name="uhungarumlaut" unicode="&#x171;" 
d="M230 -13c-44.667 0 -78.833 9.5 -102.5 28.5s-39.834 45 -48.501 78s-13 70.167 -13 111.5v383h155v-368c0 -28.667 1 -49 3 -61s5.33301 -20.333 10 -25c5.33301 -4.66699 11.333 -7.83398 18 -9.50098s14.667 -2.5 24 -2.5c19.333 0 40.5 4.33301 63.5 13
s42.5 18.334 58.5 29.001v424h155v-588h-99l-19 61h-6c-17.333 -10.667 -36.666 -21.667 -57.999 -33s-43.833 -21 -67.5 -29s-48.167 -12 -73.5 -12zM200.001 625l-50 67l150 127l63 -86zM388.001 625l-50 67l150 127l63 -86z" />
    <glyph glyph-name="Uogonek" unicode="&#x172;" horiz-adv-x="702" 
d="M351 -13c-56.667 0 -104.996 9.33301 -144.996 28s-70.5 51.5 -91.5 98.5s-31.5 112.167 -31.5 195.5v394h157v-366c0 -46.667 1.83301 -84.167 5.5 -112.5s9.66699 -49.666 18 -63.999s19.666 -23.833 33.999 -28.5s32.5 -7 54.5 -7c21.333 0 39.166 2.33301 53.499 7
s25.666 14 33.999 28s14.166 35.167 17.499 63.5s5 66.166 5 113.499v366h157v-386c0 -86 -10.333 -153 -31 -201s-51 -81.5 -91 -100.5s-88.667 -28.5 -146 -28.5zM381.004 -179c-32.667 0 -57.834 6.83301 -75.501 20.5s-26.5 34.167 -26.5 61.5
c0 15.333 3.66699 30 11 44s18.5 27.333 33.5 40s33.833 24 56.5 34l81 -20c-30 -9.33301 -53.333 -19.833 -70 -31.5s-25 -23.5 -25 -35.5c0 -8 4.16699 -13.667 12.5 -17s19.5 -5 33.5 -5c10.667 0 21.667 0.666992 33 2l17 2v-86l-23 -4.5
c-15.333 -3 -34.666 -4.5 -57.999 -4.5z" />
    <glyph glyph-name="uogonek" unicode="&#x173;" 
d="M230 -13c-44.667 0 -78.833 9.5 -102.5 28.5s-39.834 45 -48.501 78s-13 70.167 -13 111.5v383h155v-368c0 -28.667 1 -49 3 -61s5.33301 -20.333 10 -25c5.33301 -4.66699 11.333 -7.83398 18 -9.50098s14.667 -2.5 24 -2.5c19.333 0 40.5 4.33301 63.5 13
s42.5 18.334 58.5 29.001v424h155v-588h-99l-19 61h-6c-17.333 -10.667 -36.666 -21.667 -57.999 -33s-43.833 -21 -67.5 -29s-48.167 -12 -73.5 -12zM474.001 -179c-32.667 0 -57.834 6.83301 -75.501 20.5s-26.5 34.167 -26.5 61.5c0 15.333 3.66699 30 11 44
s18.5 27.333 33.5 40s33.833 24 56.5 34l81 -20c-30 -9.33301 -53.333 -19.833 -70 -31.5s-25 -23.5 -25 -35.5c0 -8 4.16699 -13.667 12.5 -17s19.5 -5 33.5 -5c10.667 0 21.667 0.666992 33 2l17 2v-86l-23 -4.5c-15.333 -3 -34.666 -4.5 -57.999 -4.5z" />
    <glyph glyph-name="Wcircumflex" unicode="&#x174;" horiz-adv-x="838" 
d="M138 0l-104 703h158l51 -542h6l78 375h184l78 -375h6l51 542h158l-104 -703h-196l-82 387h-6l-82 -387h-196zM256 740l-33 61l167 100h73l167 -100l-33 -61l-167 59h-7z" />
    <glyph glyph-name="wcircumflex" unicode="&#x175;" horiz-adv-x="804" 
d="M137 0l-117 588h156l61 -474h6l68 393h188l69 -393h6l59 474h156l-116 -588h-196l-69 393h-6l-69 -393h-196zM231 637l-33 61l167 105h73l167 -105l-33 -61l-167 64h-7z" />
    <glyph glyph-name="Ycircumflex" unicode="&#x176;" horiz-adv-x="580" 
d="M209 0l3 253l-216 450h168l122 -322h6l122 322h168l-216 -450l2 -253h-159zM118 740l-33 61l167 100h73l167 -100l-33 -61l-167 59h-7z" />
    <glyph glyph-name="ycircumflex" unicode="&#x177;" horiz-adv-x="536" 
d="M112 -166l86 214l-198 540h160l106 -392h6l103 392h161l-205 -560l-58 -194h-161zM93 637l-33 61l167 105h73l167 -105l-33 -61l-167 64h-7z" />
    <glyph glyph-name="Ydieresis" unicode="&#x178;" horiz-adv-x="580" 
d="M209 0l3 253l-216 450h168l122 -322h6l122 322h168l-216 -450l2 -253h-159zM98 761v108h147v-108h-147zM323 761v108h147v-108h-147z" />
    <glyph glyph-name="Zacute" unicode="&#x179;" horiz-adv-x="579" 
d="M24 0v124l338 447v7l-317 -9v134h503v-121l-331 -450v-6l336 8v-134h-529zM164 750l-20 83l294 77l28 -110z" />
    <glyph glyph-name="zacute" unicode="&#x17a;" horiz-adv-x="506" 
d="M11 0v104l280 362v5l-266 -10v127h454v-104l-277 -363v-6l284 12v-127h-475zM108 646l-22 81l293 89l31 -112z" />
    <glyph glyph-name="Zdotaccent" unicode="&#x17b;" horiz-adv-x="579" 
d="M24 0v124l338 447v7l-317 -9v134h503v-121l-331 -450v-6l336 8v-134h-529zM211 761v108h158v-108h-158z" />
    <glyph glyph-name="zdotaccent" unicode="&#x17c;" horiz-adv-x="506" 
d="M11 0v104l280 362v5l-266 -10v127h454v-104l-277 -363v-6l284 12v-127h-475zM175 668v108h163v-108h-163z" />
    <glyph glyph-name="Zcaron" unicode="&#x17d;" horiz-adv-x="579" 
d="M24 0v124l338 447v7l-317 -9v134h503v-121l-331 -450v-6l336 8v-134h-529zM253 749l-167 100l33 61l167 -59h7l167 59l33 -61l-167 -100h-73z" />
    <glyph glyph-name="zcaron" unicode="&#x17e;" horiz-adv-x="506" 
d="M11 0v104l280 362v5l-266 -10v127h454v-104l-277 -363v-6l284 12v-127h-475zM216 657l-167 105l33 61l167 -64h7l167 64l33 -61l-167 -105h-73z" />
    <glyph glyph-name="Ohorn" unicode="&#x1a0;" horiz-adv-x="700" 
d="M350 -13c-40.667 0 -79.167 5.33301 -115.5 16s-68.333 29.334 -96 56.001s-49.334 63.834 -65.001 111.501s-23.5 108.5 -23.5 182.5s7.83301 134.667 23.5 182s37.334 84.166 65.001 110.499s59.667 44.666 96 54.999s74.833 15.5 115.5 15.5
c41.333 0 80 -5.16699 116 -15.5s67.833 -28.666 95.5 -54.999s49.334 -63.166 65.001 -110.499s23.5 -108 23.5 -182s-7.83301 -134.833 -23.5 -182.5s-37.334 -84.834 -65.001 -111.501s-59.5 -45.334 -95.5 -56.001s-74.667 -16 -116 -16zM350 125
c24 0 44.502 2.83496 61.502 8.50195s31.167 16.334 42.5 32.001s19.666 38.5 24.999 68.5s8 69.333 8 118c0 48 -2.66699 87 -8 117s-13.5 52.833 -24.5 68.5s-25.167 26.334 -42.5 32.001s-38 8.5 -62 8.5s-44.667 -2.83301 -62 -8.5s-31.5 -16.334 -42.5 -32.001
s-19.167 -38.5 -24.5 -68.5s-8 -69.333 -8 -118s2.66699 -87.834 8 -117.501s13.666 -52.334 24.999 -68.001s25.5 -26.334 42.5 -32.001s37.5 -8.5 61.5 -8.5zM496.002 687.002h86c11.333 0 18.666 2 21.999 6s5 12.333 5 25c0 6.66699 -0.5 14 -1.5 22
s-2.83301 18.667 -5.5 32l-11 53h123c4.66699 -16.667 8.33398 -31.667 11.001 -45s4 -24.666 4 -33.999c0 -34.667 -7.16699 -62.834 -21.5 -84.501s-33.5 -37.5 -57.5 -47.5s-50 -15 -78 -15h-63z" />
    <glyph glyph-name="ohorn" unicode="&#x1a1;" horiz-adv-x="612" 
d="M307 -13c-64.667 0 -116.001 12.499 -154.001 37.499s-65 60.5 -81 106.5s-24 100.667 -24 164c0 62.667 8 116.834 24 162.501s43 81 81 106s89.667 37.5 155 37.5c64.667 0 115.667 -12.5 153 -37.5s63.833 -60.333 79.5 -106s23.5 -100.167 23.5 -163.5
c0 -62.667 -7.83301 -117 -23.5 -163s-42.167 -81.5 -79.5 -106.5s-88.666 -37.5 -153.999 -37.5zM306.999 104.999c19.333 0 35.3311 2.66699 47.998 8s22.834 15 30.501 29s13 33.333 16 58s4.5 56.334 4.5 95.001c0 38 -1.66699 69.333 -5 94
s-8.66602 43.834 -15.999 57.501s-17.333 23.167 -30 28.5s-28.667 8 -48 8s-35.5 -2.66699 -48.5 -8s-23.333 -14.833 -31 -28.5s-13.167 -32.834 -16.5 -57.501s-5 -56 -5 -94c0 -38.667 1.66699 -70.334 5 -95.001s8.83301 -44 16.5 -58s18 -23.667 31 -29
s29.167 -8 48.5 -8zM403.997 586.999h86c11.333 0 18.666 2 21.999 6s5 12.333 5 25c0 6.66699 -0.5 14 -1.5 22s-2.83301 18.667 -5.5 32l-11 53h123c4.66699 -16.667 8.33398 -31.667 11.001 -45s4 -24.666 4 -33.999c0 -34.667 -7.16699 -62.834 -21.5 -84.501
s-33.5 -37.5 -57.5 -47.5s-50 -15 -78 -15h-63z" />
    <glyph glyph-name="Uhorn" unicode="&#x1af;" horiz-adv-x="702" 
d="M351 -13c-56.667 0 -104.996 9.33301 -144.996 28s-70.5 51.5 -91.5 98.5s-31.5 112.167 -31.5 195.5v394h157v-366c0 -46.667 1.83301 -84.167 5.5 -112.5s9.66699 -49.666 18 -63.999s19.666 -23.833 33.999 -28.5s32.5 -7 54.5 -7c21.333 0 39.166 2.33301 53.499 7
s25.666 14 33.999 28s14.166 35.167 17.499 63.5s5 66.166 5 113.499v366h157v-386c0 -86 -10.333 -153 -31 -201s-51 -81.5 -91 -100.5s-88.667 -28.5 -146 -28.5zM567.004 703h86c11.333 0 18.666 2 21.999 6s5 12.333 5 25c0 6.66699 -0.5 14 -1.5 22
s-2.83301 18.667 -5.5 32l-11 53h123c4.66699 -16.667 8.33398 -31.667 11.001 -45s4 -24.666 4 -33.999c0 -34.667 -7.16699 -62.834 -21.5 -84.501s-33.5 -37.5 -57.5 -47.5s-50 -15 -78 -15h-63z" />
    <glyph glyph-name="uhorn" unicode="&#x1b0;" 
d="M230 -13c-44.667 0 -78.833 9.5 -102.5 28.5s-39.834 45 -48.501 78s-13 70.167 -13 111.5v383h155v-368c0 -28.667 1 -49 3 -61s5.33301 -20.333 10 -25c5.33301 -4.66699 11.333 -7.83398 18 -9.50098s14.667 -2.5 24 -2.5c19.333 0 40.5 4.33301 63.5 13
s42.5 18.334 58.5 29.001v424h155v-588h-99l-19 61h-6c-17.333 -10.667 -36.666 -21.667 -57.999 -33s-43.833 -21 -67.5 -29s-48.167 -12 -73.5 -12zM468.001 588h86c11.333 0 18.666 2 21.999 6s5 12.333 5 25c0 6.66699 -0.5 14 -1.5 22s-2.83301 18.667 -5.5 32l-11 53
h123c4.66699 -16.667 8.33398 -31.667 11.001 -45s4 -24.666 4 -33.999c0 -34.667 -7.16699 -62.834 -21.5 -84.501s-33.5 -37.5 -57.5 -47.5s-50 -15 -78 -15h-63z" />
    <glyph glyph-name="uni01CD" unicode="&#x1cd;" horiz-adv-x="573" 
d="M-11 0l193 703h204l193 -703h-162l-54 224l87 -68h-332l87 68l-54 -224h-162zM202 220l-54 68h272l-54 -68l-95 405l86 -68h-146l86 68zM250 749l-167 100l33 61l167 -59h7l167 59l33 -61l-167 -100h-73z" />
    <glyph glyph-name="uni01CE" unicode="&#x1ce;" horiz-adv-x="622" 
d="M222 -13c-32 0 -60.8311 7.49805 -86.498 22.498s-46.167 36.833 -61.5 65.5s-23 63.334 -23 104.001c0 48.667 11 86.834 33 114.501s53 47.5 93 59.5s87.333 18 142 18h75c0 28.667 -1.33301 49 -4 61s-5.66699 20.667 -9 26c-2.66699 4.66699 -7.83398 9 -15.501 13
s-23.167 6 -46.5 6c-24 0 -48.833 -2 -74.5 -6s-49.5 -8.66699 -71.5 -14s-40 -10 -54 -14l-21 -6l-32 112l20.5 8c13.667 5.33301 32.334 11.333 56.001 18s50.667 12.667 81 18s62.5 8 96.5 8c57.333 0 102.666 -8.83301 135.999 -26.5s57.166 -43 71.499 -76
s21.5 -72.5 21.5 -118.5v-380h-98l-20 65h-6l-17.5 -12c-11.667 -8 -27.167 -17 -46.5 -27s-41 -19 -65 -27s-48.667 -12 -74 -12zM267.002 113.998c18.667 0 37.833 3.16797 57.5 9.50098s36.167 12.666 49.5 18.999l20 9.5v104l-24 2.5c-16 1.66699 -36.667 2.5 -62 2.5
c-44 0 -71.333 -5 -82 -15c-4.66699 -4 -8.66699 -10.833 -12 -20.5s-5 -23.167 -5 -40.5c0 -24.667 4.5 -42.667 13.5 -54s23.833 -17 44.5 -17zM274.001 656.999l-167 105l33 61l167 -64h7l167 64l33 -61l-167 -105h-73z" />
    <glyph glyph-name="uni01CF" unicode="&#x1cf;" horiz-adv-x="324" 
d="M83 0l4 324l-4 379h158l-3 -313l3 -390h-158zM125 749l-167 100l33 61l167 -59h7l167 59l33 -61l-167 -100h-73z" />
    <glyph glyph-name="uni01D0" unicode="&#x1d0;" horiz-adv-x="311" 
d="M119 657l-137 105l33 61l137 -64h7l137 64l33 -61l-137 -105h-73zM78 0v588h155v-588h-155z" />
    <glyph glyph-name="uni01D1" unicode="&#x1d1;" horiz-adv-x="700" 
d="M350 -13c-40.667 0 -79.167 5.33301 -115.5 16s-68.333 29.334 -96 56.001s-49.334 63.834 -65.001 111.501s-23.5 108.5 -23.5 182.5s7.83301 134.667 23.5 182s37.334 84.166 65.001 110.499s59.667 44.666 96 54.999s74.833 15.5 115.5 15.5
c41.333 0 80 -5.16699 116 -15.5s67.833 -28.666 95.5 -54.999s49.334 -63.166 65.001 -110.499s23.5 -108 23.5 -182s-7.83301 -134.833 -23.5 -182.5s-37.334 -84.834 -65.001 -111.501s-59.5 -45.334 -95.5 -56.001s-74.667 -16 -116 -16zM350 125
c24 0 44.502 2.83496 61.502 8.50195s31.167 16.334 42.5 32.001s19.666 38.5 24.999 68.5s8 69.333 8 118c0 48 -2.66699 87 -8 117s-13.5 52.833 -24.5 68.5s-25.167 26.334 -42.5 32.001s-38 8.5 -62 8.5s-44.667 -2.83301 -62 -8.5s-31.5 -16.334 -42.5 -32.001
s-19.167 -38.5 -24.5 -68.5s-8 -69.333 -8 -118s2.66699 -87.834 8 -117.501s13.666 -52.334 24.999 -68.001s25.5 -26.334 42.5 -32.001s37.5 -8.5 61.5 -8.5zM313.002 749.002l-167 100l33 61l167 -59h7l167 59l33 -61l-167 -100h-73z" />
    <glyph glyph-name="uni01D2" unicode="&#x1d2;" horiz-adv-x="612" 
d="M307 -13c-64.667 0 -116.001 12.499 -154.001 37.499s-65 60.5 -81 106.5s-24 100.667 -24 164c0 62.667 8 116.834 24 162.501s43 81 81 106s89.667 37.5 155 37.5c64.667 0 115.667 -12.5 153 -37.5s63.833 -60.333 79.5 -106s23.5 -100.167 23.5 -163.5
c0 -62.667 -7.83301 -117 -23.5 -163s-42.167 -81.5 -79.5 -106.5s-88.666 -37.5 -153.999 -37.5zM306.999 104.999c19.333 0 35.3311 2.66699 47.998 8s22.834 15 30.501 29s13 33.333 16 58s4.5 56.334 4.5 95.001c0 38 -1.66699 69.333 -5 94
s-8.66602 43.834 -15.999 57.501s-17.333 23.167 -30 28.5s-28.667 8 -48 8s-35.5 -2.66699 -48.5 -8s-23.333 -14.833 -31 -28.5s-13.167 -32.834 -16.5 -57.501s-5 -56 -5 -94c0 -38.667 1.66699 -70.334 5 -95.001s8.83301 -44 16.5 -58s18 -23.667 31 -29
s29.167 -8 48.5 -8zM268.997 656.999l-167 105l33 61l167 -64h7l167 64l33 -61l-167 -105h-73z" />
    <glyph glyph-name="uni01D3" unicode="&#x1d3;" horiz-adv-x="702" 
d="M351 -13c-56.667 0 -104.996 9.33301 -144.996 28s-70.5 51.5 -91.5 98.5s-31.5 112.167 -31.5 195.5v394h157v-366c0 -46.667 1.83301 -84.167 5.5 -112.5s9.66699 -49.666 18 -63.999s19.666 -23.833 33.999 -28.5s32.5 -7 54.5 -7c21.333 0 39.166 2.33301 53.499 7
s25.666 14 33.999 28s14.166 35.167 17.499 63.5s5 66.166 5 113.499v366h157v-386c0 -86 -10.333 -153 -31 -201s-51 -81.5 -91 -100.5s-88.667 -28.5 -146 -28.5zM314.004 749l-167 100l33 61l167 -59h7l167 59l33 -61l-167 -100h-73z" />
    <glyph glyph-name="uni01D4" unicode="&#x1d4;" 
d="M230 -13c-44.667 0 -78.833 9.5 -102.5 28.5s-39.834 45 -48.501 78s-13 70.167 -13 111.5v383h155v-368c0 -28.667 1 -49 3 -61s5.33301 -20.333 10 -25c5.33301 -4.66699 11.333 -7.83398 18 -9.50098s14.667 -2.5 24 -2.5c19.333 0 40.5 4.33301 63.5 13
s42.5 18.334 58.5 29.001v424h155v-588h-99l-19 61h-6c-17.333 -10.667 -36.666 -21.667 -57.999 -33s-43.833 -21 -67.5 -29s-48.167 -12 -73.5 -12zM279.001 657l-167 105l33 61l167 -64h7l167 64l33 -61l-167 -105h-73z" />
    <glyph glyph-name="uni01D5" unicode="&#x1d5;" horiz-adv-x="702" 
d="M351 -13c-56.667 0 -104.996 9.33301 -144.996 28s-70.5 51.5 -91.5 98.5s-31.5 112.167 -31.5 195.5v394h157v-366c0 -46.667 1.83301 -84.167 5.5 -112.5s9.66699 -49.666 18 -63.999s19.666 -23.833 33.999 -28.5s32.5 -7 54.5 -7c21.333 0 39.166 2.33301 53.499 7
s25.666 14 33.999 28s14.166 35.167 17.499 63.5s5 66.166 5 113.499v366h157v-386c0 -86 -10.333 -153 -31 -201s-51 -81.5 -91 -100.5s-88.667 -28.5 -146 -28.5zM159.004 761v108h147v-108h-147zM384.004 761v108h147v-108h-147zM149.004 932v96h392v-96h-392z" />
    <glyph glyph-name="uni01D6" unicode="&#x1d6;" 
d="M230 -13c-44.667 0 -78.833 9.5 -102.5 28.5s-39.834 45 -48.501 78s-13 70.167 -13 111.5v383h155v-368c0 -28.667 1 -49 3 -61s5.33301 -20.333 10 -25c5.33301 -4.66699 11.333 -7.83398 18 -9.50098s14.667 -2.5 24 -2.5c19.333 0 40.5 4.33301 63.5 13
s42.5 18.334 58.5 29.001v424h155v-588h-99l-19 61h-6c-17.333 -10.667 -36.666 -21.667 -57.999 -33s-43.833 -21 -67.5 -29s-48.167 -12 -73.5 -12zM125.001 668v108h147v-108h-147zM350.001 668v108h147v-108h-147zM120.001 845v96h393v-96h-393z" />
    <glyph glyph-name="uni01D7" unicode="&#x1d7;" horiz-adv-x="702" 
d="M351 -13c-56.667 0 -104.996 9.33301 -144.996 28s-70.5 51.5 -91.5 98.5s-31.5 112.167 -31.5 195.5v394h157v-366c0 -46.667 1.83301 -84.167 5.5 -112.5s9.66699 -49.666 18 -63.999s19.666 -23.833 33.999 -28.5s32.5 -7 54.5 -7c21.333 0 39.166 2.33301 53.499 7
s25.666 14 33.999 28s14.166 35.167 17.499 63.5s5 66.166 5 113.499v366h157v-386c0 -86 -10.333 -153 -31 -201s-51 -81.5 -91 -100.5s-88.667 -28.5 -146 -28.5zM159.004 761v108h147v-108h-147zM384.004 761v108h147v-108h-147zM225.004 907l-20 83l294 77l28 -110z" />
    <glyph glyph-name="uni01D8" unicode="&#x1d8;" 
d="M230 -13c-44.667 0 -78.833 9.5 -102.5 28.5s-39.834 45 -48.501 78s-13 70.167 -13 111.5v383h155v-368c0 -28.667 1 -49 3 -61s5.33301 -20.333 10 -25c5.33301 -4.66699 11.333 -7.83398 18 -9.50098s14.667 -2.5 24 -2.5c19.333 0 40.5 4.33301 63.5 13
s42.5 18.334 58.5 29.001v424h155v-588h-99l-19 61h-6c-17.333 -10.667 -36.666 -21.667 -57.999 -33s-43.833 -21 -67.5 -29s-48.167 -12 -73.5 -12zM125.001 668v108h147v-108h-147zM350.001 668v108h147v-108h-147zM171.001 823l-22 81l293 89l31 -112z" />
    <glyph glyph-name="uni01D9" unicode="&#x1d9;" horiz-adv-x="702" 
d="M351 -13c-56.667 0 -104.996 9.33301 -144.996 28s-70.5 51.5 -91.5 98.5s-31.5 112.167 -31.5 195.5v394h157v-366c0 -46.667 1.83301 -84.167 5.5 -112.5s9.66699 -49.666 18 -63.999s19.666 -23.833 33.999 -28.5s32.5 -7 54.5 -7c21.333 0 39.166 2.33301 53.499 7
s25.666 14 33.999 28s14.166 35.167 17.499 63.5s5 66.166 5 113.499v366h157v-386c0 -86 -10.333 -153 -31 -201s-51 -81.5 -91 -100.5s-88.667 -28.5 -146 -28.5zM159.004 761v108h147v-108h-147zM384.004 761v108h147v-108h-147zM314.004 906l-167 100l33 61l167 -59h7
l167 59l33 -61l-167 -100h-73z" />
    <glyph glyph-name="uni01DA" unicode="&#x1da;" 
d="M230 -13c-44.667 0 -78.833 9.5 -102.5 28.5s-39.834 45 -48.501 78s-13 70.167 -13 111.5v383h155v-368c0 -28.667 1 -49 3 -61s5.33301 -20.333 10 -25c5.33301 -4.66699 11.333 -7.83398 18 -9.50098s14.667 -2.5 24 -2.5c19.333 0 40.5 4.33301 63.5 13
s42.5 18.334 58.5 29.001v424h155v-588h-99l-19 61h-6c-17.333 -10.667 -36.666 -21.667 -57.999 -33s-43.833 -21 -67.5 -29s-48.167 -12 -73.5 -12zM125.001 668v108h147v-108h-147zM350.001 668v108h147v-108h-147zM279.001 834l-167 105l33 61l167 -64h7l167 64l33 -61
l-167 -105h-73z" />
    <glyph glyph-name="uni01DB" unicode="&#x1db;" horiz-adv-x="702" 
d="M351 -13c-56.667 0 -104.996 9.33301 -144.996 28s-70.5 51.5 -91.5 98.5s-31.5 112.167 -31.5 195.5v394h157v-366c0 -46.667 1.83301 -84.167 5.5 -112.5s9.66699 -49.666 18 -63.999s19.666 -23.833 33.999 -28.5s32.5 -7 54.5 -7c21.333 0 39.166 2.33301 53.499 7
s25.666 14 33.999 28s14.166 35.167 17.499 63.5s5 66.166 5 113.499v366h157v-386c0 -86 -10.333 -153 -31 -201s-51 -81.5 -91 -100.5s-88.667 -28.5 -146 -28.5zM159.004 761v108h147v-108h-147zM384.004 761v108h147v-108h-147zM498.004 908l-308 42l20 113l302 -71z
" />
    <glyph glyph-name="uni01DC" unicode="&#x1dc;" 
d="M230 -13c-44.667 0 -78.833 9.5 -102.5 28.5s-39.834 45 -48.501 78s-13 70.167 -13 111.5v383h155v-368c0 -28.667 1 -49 3 -61s5.33301 -20.333 10 -25c5.33301 -4.66699 11.333 -7.83398 18 -9.50098s14.667 -2.5 24 -2.5c19.333 0 40.5 4.33301 63.5 13
s42.5 18.334 58.5 29.001v424h155v-588h-99l-19 61h-6c-17.333 -10.667 -36.666 -21.667 -57.999 -33s-43.833 -21 -67.5 -29s-48.167 -12 -73.5 -12zM125.001 668v108h147v-108h-147zM350.001 668v108h147v-108h-147zM459.001 823l-305 58l26 112l298 -87z" />
    <glyph glyph-name="uni01DE" unicode="&#x1de;" horiz-adv-x="573" 
d="M-11 0l193 703h204l193 -703h-162l-54 224l87 -68h-332l87 68l-54 -224h-162zM202 220l-54 68h272l-54 -68l-95 405l86 -68h-146l86 68zM95 761v108h147v-108h-147zM320 761v108h147v-108h-147zM91 932v96h392v-96h-392z" />
    <glyph glyph-name="uni01DF" unicode="&#x1df;" horiz-adv-x="622" 
d="M222 -13c-32 0 -60.8311 7.49805 -86.498 22.498s-46.167 36.833 -61.5 65.5s-23 63.334 -23 104.001c0 48.667 11 86.834 33 114.501s53 47.5 93 59.5s87.333 18 142 18h75c0 28.667 -1.33301 49 -4 61s-5.66699 20.667 -9 26c-2.66699 4.66699 -7.83398 9 -15.501 13
s-23.167 6 -46.5 6c-24 0 -48.833 -2 -74.5 -6s-49.5 -8.66699 -71.5 -14s-40 -10 -54 -14l-21 -6l-32 112l20.5 8c13.667 5.33301 32.334 11.333 56.001 18s50.667 12.667 81 18s62.5 8 96.5 8c57.333 0 102.666 -8.83301 135.999 -26.5s57.166 -43 71.499 -76
s21.5 -72.5 21.5 -118.5v-380h-98l-20 65h-6l-17.5 -12c-11.667 -8 -27.167 -17 -46.5 -27s-41 -19 -65 -27s-48.667 -12 -74 -12zM267.002 113.998c18.667 0 37.833 3.16797 57.5 9.50098s36.167 12.666 49.5 18.999l20 9.5v104l-24 2.5c-16 1.66699 -36.667 2.5 -62 2.5
c-44 0 -71.333 -5 -82 -15c-4.66699 -4 -8.66699 -10.833 -12 -20.5s-5 -23.167 -5 -40.5c0 -24.667 4.5 -42.667 13.5 -54s23.833 -17 44.5 -17zM120.001 667.999v108h147v-108h-147zM345.001 667.999v108h147v-108h-147zM115.001 844.999v96h393v-96h-393z" />
    <glyph glyph-name="Gcaron" unicode="&#x1e6;" horiz-adv-x="654" 
d="M349 -13c-40 0 -77.999 5 -113.999 15s-67.833 28 -95.5 54s-49.5 63 -65.5 111s-24 110.333 -24 187c0 75.333 7.5 136.666 22.5 183.999s36.5 84 64.5 110s61.5 43.833 100.5 53.5s82.167 14.5 129.5 14.5c22.667 0 47.5 -1.33301 74.5 -4s53.167 -6 78.5 -10
s46 -8 62 -12l-18 -127c-26.667 3.33301 -58.334 6.66602 -95.001 9.99902s-72.667 5 -108 5c-30.667 0 -54.167 -1.5 -70.5 -4.5s-28.166 -7.83301 -35.499 -14.5c-10.667 -9.33301 -20.334 -29.833 -29.001 -61.5s-13 -79.834 -13 -144.501
c0 -49.333 2.66699 -88.166 8 -116.499s11.5 -49.166 18.5 -62.499s12.833 -22.666 17.5 -27.999c6 -5.33301 16.667 -10.666 32 -15.999s38 -8 68 -8c14.667 0 28.167 0.5 40.5 1.5s23.166 2.5 32.499 4.5v217l70 -75l-172 12v113h255v-362l-31.5 -11.5
c-21 -7.66699 -49.167 -15.334 -84.5 -23.001s-74.666 -11.5 -117.999 -11.5zM316.001 749l-167 100l33 61l167 -59h7l167 59l33 -61l-167 -100h-73z" />
    <glyph glyph-name="gcaron" unicode="&#x1e7;" horiz-adv-x="565" 
d="M277 -179c-30.667 0 -60.333 1.66797 -89 5.00098s-54.334 7.33301 -77.001 12s-40.667 8.66699 -54 12l-20 5l17 118c48 -7.33301 95.833 -14 143.5 -20s92.5 -9 134.5 -9c22.667 0 38.167 1.16699 46.5 3.5s12.5 6.5 12.5 12.5c0 2.66699 -1.5 5.16699 -4.5 7.5
s-9.83301 5.66602 -20.5 9.99902s-27.667 10.666 -51 18.999l-95 34.5c-28 10 -48.333 17.667 -61 23s-20.667 9.5 -24 12.5s-5 5.83301 -5 8.5c0 6 2 15.167 6 27.5s8.5 25.333 13.5 39s9.5 25.167 13.5 34.5l6 14c-46 16 -81.5 40 -106.5 72s-37.5 73.333 -37.5 124
c0 54 12.667 96.667 38 128s59 53.666 101 66.999s87.333 20 136 20c14 0 31.667 -0.333008 53 -1s43.5 -1.66699 66.5 -3s44.833 -2.66602 65.5 -3.99902s37.334 -2.33301 50.001 -3l19 -1v-90l-62 -10l6.5 -16c4.33301 -10.667 8.5 -24.5 12.5 -41.5s6 -35.167 6 -54.5
c0 -37.333 -10 -71.333 -30 -102s-49 -55 -87 -73s-84.333 -27.333 -139 -28l-1 -9c-0.666992 -6 -1 -9.66699 -1 -11c0 -2.66699 4 -5.5 12 -8.5s19.833 -7.16699 35.5 -12.5s34.5 -12.333 56.5 -21c42.667 -16.667 76.5 -32.5 101.5 -47.5s42.833 -30.5 53.5 -46.5
s16 -33.667 16 -53c0 -31.333 -11 -57.666 -33 -78.999s-52.333 -37.5 -91 -48.5s-83 -16.5 -133 -16.5zM272.001 287.001c27.333 0 48.5 3.00195 63.5 9.00195s25.333 17.167 31 33.5s8.5 39.166 8.5 68.499c0 21.333 -1.16699 39.666 -3.5 54.999s-5.5 25 -9.5 29
c-2 2 -5.83301 3.66699 -11.5 5s-12.334 2.16602 -20.001 2.49902l-23.5 1c-8 0.333008 -15.333 0.5 -22 0.5c-30 0 -53.5 -2.16699 -70.5 -6.5s-29.167 -13.666 -36.5 -27.999s-11 -36.5 -11 -66.5c0 -40.667 7.33301 -68 22 -82s42.334 -21 83.001 -21zM246.001 657.003
l-167 105l33 61l167 -64h7l167 64l33 -61l-167 -105h-73z" />
    <glyph glyph-name="uni0218" unicode="&#x218;" horiz-adv-x="570" 
d="M278 -13c-32 0 -62.668 3.16309 -92.001 9.49609s-55.5 13.5 -78.5 21.5s-41.167 15.167 -54.5 21.5l-20 9.5l6 18.5l13.5 43l13.5 42.5l6 18l20.5 -7.5c13.667 -5 31.667 -10.667 54 -17s46.666 -12 72.999 -17s52.5 -7.5 78.5 -7.5c12.667 0 22.667 1.16699 30 3.5
s13 4.83301 17 7.5c7.33301 4.66699 13.166 12 17.499 22s6.5 24.333 6.5 43c0 16.667 -6.66699 30.834 -20 42.501s-30.666 22.5 -51.999 32.5l-69 32l-64 31.5c-21.333 11 -40.666 24.167 -57.999 39.5s-31.333 34.5 -42 57.5s-16 51.5 -16 85.5
c0 36.667 9.16699 69.834 27.5 99.501s46 53.334 83 71.001s82.833 26.5 137.5 26.5c24 0 48.167 -1.66699 72.5 -5s46.833 -7.16602 67.5 -11.499s37.167 -8.16602 49.5 -11.499l18.5 -5l-25 -125l-19.5 3.5c-13 2.33301 -29.833 5 -50.5 8s-42.667 5.66699 -66 8
s-45.333 3.5 -66 3.5c-12.667 0 -22.667 -1 -30 -3s-13.666 -4.66699 -18.999 -8c-4.66699 -3.33301 -9.16699 -8.5 -13.5 -15.5s-6.5 -18.833 -6.5 -35.5c0 -12.667 4.66699 -24.167 14 -34.5s22 -19.833 38 -28.5s33.333 -17.334 52 -26.001l71.5 -33
c25 -11.333 48.5 -25 70.5 -41s40 -36.167 54 -60.5s21 -54.833 21 -91.5c0 -43.333 -10.5 -81.333 -31.5 -114s-50.333 -58 -88 -76s-81.5 -27 -131.5 -27zM242.999 -253.004l-27.999 47.0029c11.333 7.33301 19.666 21.166 24.999 41.499s8 46.166 8 77.499v35h106v-27
c0 -36 -5.66699 -66 -17 -90s-25.5 -42.833 -42.5 -56.5s-34.167 -22.834 -51.5 -27.501z" />
    <glyph glyph-name="uni0219" unicode="&#x219;" horiz-adv-x="537" 
d="M282 -13c-30.667 0 -60.3301 2.99512 -88.9971 8.99512s-54.334 12.667 -77.001 20s-40.667 14 -54 20l-20 9l38 122l20.5 -8c13.667 -5.33301 31.5 -11.666 53.5 -18.999s45.167 -13.666 69.5 -18.999s46.833 -8 67.5 -8c11.333 0 20.5 1 27.5 3s12.5 4.33301 16.5 7
c5.33301 4 9.5 9.66699 12.5 17s4.5 15.333 4.5 24c0 16.667 -5.33301 29.5 -16 38.5s-24.834 16.5 -42.501 22.5s-37.5 12 -59.5 18c-21.333 6.66699 -43 13.834 -65 21.501s-42.167 18 -60.5 31s-33.166 29.833 -44.499 50.5s-17 47.334 -17 80.001
c0 52.667 17.667 95 53 127s92 48 170 48c29.333 0 57.666 -2 84.999 -6s51.666 -8.66699 72.999 -14s38 -10 50 -14l-23 -120l-19 4.5c-12.667 3 -29 6.5 -49 10.5s-41.333 7.5 -64 10.5s-44 4.5 -64 4.5c-16.667 0 -28.334 -1 -35.001 -3s-11.667 -4.33301 -15 -7
c-2.66699 -2 -5.16699 -5.16699 -7.5 -9.5s-3.5 -10.166 -3.5 -17.499c0 -14.667 5.33301 -26.5 16 -35.5s24.834 -16.5 42.501 -22.5s36.834 -12 57.501 -18c21.333 -6 43.166 -12.5 65.499 -19.5s42.833 -16.667 61.5 -29s33.667 -29 45 -50s17 -48.5 17 -82.5
c0 -58.667 -19 -106 -57 -142s-92.667 -54 -164 -54zM227.004 -253.005l-27.999 47.0029c11.333 7.33301 19.666 21.166 24.999 41.499s8 46.166 8 77.499v35h106v-27c0 -36 -5.66699 -66 -17 -90s-25.5 -42.833 -42.5 -56.5s-34.167 -22.834 -51.5 -27.501z" />
    <glyph glyph-name="uni021A" unicode="&#x21a;" horiz-adv-x="516" 
d="M177 0l3 572l-196 -3v134h547v-134l-200 3l3 -572h-157zM204 -253l-27.999 47.0029c11.333 7.33301 19.666 21.166 24.999 41.499s8 46.166 8 77.499v35h106v-27c0 -36 -5.66699 -66 -17 -90s-25.5 -42.833 -42.5 -56.5s-34.167 -22.834 -51.5 -27.501z" />
    <glyph glyph-name="uni021B" unicode="&#x21b;" horiz-adv-x="400" 
d="M258 -13c-35.333 0 -65.501 5.33496 -90.501 16.002s-44 31.167 -57 61.5s-19.5 74.5 -19.5 132.5v246h-68v97l75 14l23 139h127v-134h120v-119h-122v-247c0 -22.667 1.5 -39.334 4.5 -50.001s7.66699 -17.334 14 -20.001s14.5 -4 24.5 -4s21 0.5 33 1.5l31 2.5l13 1
v-126l-32 -5.5c-21.333 -3.66699 -46.666 -5.5 -75.999 -5.5zM168.999 -252.998l-27.999 47.0029c11.333 7.33301 19.666 21.166 24.999 41.499s8 46.166 8 77.499v35h106v-27c0 -36 -5.66699 -66 -17 -90s-25.5 -42.833 -42.5 -56.5s-34.167 -22.834 -51.5 -27.501z" />
    <glyph glyph-name="uni0237" unicode="&#x237;" horiz-adv-x="346" 
d="M69 -179c-13.333 0 -28.501 0.830078 -45.501 2.49707s-31.5 3.33398 -43.5 5.00098l-18 2.5l16 126l14.5 -2c9.66699 -1.33301 21.167 -2.66602 34.5 -3.99902s24.666 -2 33.999 -2c14.667 0 25.167 3 31.5 9s10.333 17.667 12 35s2.5 43 2.5 77v518h155v-519
c0 -62 -9.16699 -111.167 -27.5 -147.5s-42.166 -62.166 -71.499 -77.499s-60.666 -23 -93.999 -23z" />
    <glyph glyph-name="circumflex" unicode="&#x2c6;" horiz-adv-x="407" 
d="M33 637l-33 61l167 105h73l167 -105l-33 -61l-167 64h-7z" />
    <glyph glyph-name="caron" unicode="&#x2c7;" horiz-adv-x="407" 
d="M167 651l-167 105l33 61l167 -64h7l167 64l33 -61l-167 -105h-73z" />
    <glyph glyph-name="breve" unicode="&#x2d8;" horiz-adv-x="388" 
d="M194 643c-33.333 0 -64.165 5.16699 -92.498 15.5s-51.5 27.333 -69.5 51s-28.667 55.834 -32 96.501l79 9c6.66699 -28.667 19.667 -47.834 39 -57.501s44.666 -14.5 75.999 -14.5s56.666 4.83301 75.999 14.5s32.333 28.834 39 57.501l79 -9
c-3.33301 -40.667 -14 -72.834 -32 -96.501s-41 -40.667 -69 -51s-59 -15.5 -93 -15.5z" />
    <glyph glyph-name="dotaccent" unicode="&#x2d9;" horiz-adv-x="163" 
d="M0 668v108h163v-108h-163z" />
    <glyph glyph-name="ring" unicode="&#x2da;" horiz-adv-x="211" 
d="M106 637c-16.667 0 -33.166 2.83301 -49.499 8.5s-29.833 15.5 -40.5 29.5s-16 33.333 -16 58c0 26 5.33301 46 16 60s24.167 23.667 40.5 29s33.166 8 50.499 8c16.667 0 33 -2.66699 49 -8s29.167 -15 39.5 -29s15.5 -34 15.5 -60c0 -24.667 -5.16699 -44 -15.5 -58
s-23.5 -23.833 -39.5 -29.5s-32.667 -8.5 -50 -8.5zM106.001 694c14.667 0 25.167 2.83301 31.5 8.5s9.5 15.834 9.5 30.501c0 16 -3.16699 26.333 -9.5 31s-16.833 7 -31.5 7s-25.334 -2.33301 -32.001 -7s-10 -15 -10 -31c0 -14.667 3.33301 -24.834 10 -30.501
s17.334 -8.5 32.001 -8.5z" />
    <glyph glyph-name="ogonek" unicode="&#x2db;" horiz-adv-x="183" 
d="M102 -179c-32.667 0 -57.834 6.83301 -75.501 20.5s-26.5 34.167 -26.5 61.5c0 15.333 3.66699 30 11 44s18.5 27.333 33.5 40s33.833 24 56.5 34l81 -20c-30 -9.33301 -53.333 -19.833 -70 -31.5s-25 -23.5 -25 -35.5c0 -8 4.16699 -13.667 12.5 -17s19.5 -5 33.5 -5
c10.667 0 21.667 0.666992 33 2l17 2v-86l-23 -4.5c-15.333 -3 -34.666 -4.5 -57.999 -4.5z" />
    <glyph glyph-name="tilde" unicode="&#x2dc;" horiz-adv-x="407" 
d="M312 656c-14.667 0 -32.167 2.33105 -52.5 6.99805s-40.833 9.83398 -61.5 15.501l-55.5 15.5c-16.333 4.66699 -27.833 7 -34.5 7c-5.33301 0 -10.5 -3.33301 -15.5 -10s-9 -13.5 -12 -20.5l-4.5 -10.5l-76 10c1.33301 46 10.833 78.833 28.5 98.5s40.5 29.5 68.5 29.5
c15.333 0 33 -2.16699 53 -6.5s40.333 -9.33301 61 -15l55.5 -15c16.333 -4.33301 27.833 -6.5 34.5 -6.5c5.33301 0 10.333 3.33301 15 10s8.5 13.334 11.5 20.001l4.5 10l75 -12c-0.666992 -45.333 -9.66699 -77.833 -27 -97.5s-40 -29.5 -68 -29.5z" />
    <glyph glyph-name="hungarumlaut" unicode="&#x2dd;" horiz-adv-x="600" 
d="M50 622l-50 67l150 127l63 -86zM238 622l-50 67l150 127l63 -86z" />
    <glyph glyph-name="gravecomb" unicode="&#x300;" horiz-adv-x="0" 
d="M305 646l-305 58l26 112l298 -87z" />
    <glyph glyph-name="acutecomb" unicode="&#x301;" horiz-adv-x="0" 
d="M22 646l-22 81l293 89l31 -112z" />
    <glyph glyph-name="uni0302" unicode="&#x302;" horiz-adv-x="0" 
d="M33 637l-33 61l167 105h73l167 -105l-33 -61l-167 64h-7z" />
    <glyph glyph-name="tildecomb" unicode="&#x303;" horiz-adv-x="0" 
d="M312 656c-14.667 0 -32.167 2.33105 -52.5 6.99805s-40.833 9.83398 -61.5 15.501l-55.5 15.5c-16.333 4.66699 -27.833 7 -34.5 7c-5.33301 0 -10.5 -3.33301 -15.5 -10s-9 -13.5 -12 -20.5l-4.5 -10.5l-76 10c1.33301 46 10.833 78.833 28.5 98.5s40.5 29.5 68.5 29.5
c15.333 0 33 -2.16699 53 -6.5s40.333 -9.33301 61 -15l55.5 -15c16.333 -4.33301 27.833 -6.5 34.5 -6.5c5.33301 0 10.333 3.33301 15 10s8.5 13.334 11.5 20.001l4.5 10l75 -12c-0.666992 -45.333 -9.66699 -77.833 -27 -97.5s-40 -29.5 -68 -29.5z" />
    <glyph glyph-name="uni0304" unicode="&#x304;" horiz-adv-x="0" 
d="M0 668v96h393v-96h-393z" />
    <glyph glyph-name="uni0306" unicode="&#x306;" horiz-adv-x="0" 
d="M194 643c-33.333 0 -64.165 5.16699 -92.498 15.5s-51.5 27.333 -69.5 51s-28.667 55.834 -32 96.501l79 9c6.66699 -28.667 19.667 -47.834 39 -57.501s44.666 -14.5 75.999 -14.5s56.666 4.83301 75.999 14.5s32.333 28.834 39 57.501l79 -9
c-3.33301 -40.667 -14 -72.834 -32 -96.501s-41 -40.667 -69 -51s-59 -15.5 -93 -15.5z" />
    <glyph glyph-name="uni0307" unicode="&#x307;" horiz-adv-x="0" 
d="M0 668v108h163v-108h-163z" />
    <glyph glyph-name="uni0308" unicode="&#x308;" horiz-adv-x="0" 
d="M0 668v108h147v-108h-147zM225 668v108h147v-108h-147z" />
    <glyph glyph-name="hookabovecomb" unicode="&#x309;" horiz-adv-x="0" 
d="M0 761l0.000976562 92.001c15.333 1.33301 28.666 2.33301 39.999 3s24.333 1 39 1c47.333 0 79.666 -7.5 96.999 -22.5s26 -34.5 26 -58.5c0 -18.667 -3.66699 -35.834 -11 -51.501s-21.166 -32.5 -41.499 -50.5s-49.5 -39.333 -87.5 -64l-60 53l56.5 44.5
c14.333 11.667 21.5 21.5 21.5 29.5c0 16 -15.667 24 -47 24h-33z" />
    <glyph glyph-name="uni030A" unicode="&#x30a;" horiz-adv-x="0" 
d="M106 637c-16.667 0 -33.166 2.83301 -49.499 8.5s-29.833 15.5 -40.5 29.5s-16 33.333 -16 58c0 26 5.33301 46 16 60s24.167 23.667 40.5 29s33.166 8 50.499 8c16.667 0 33 -2.66699 49 -8s29.167 -15 39.5 -29s15.5 -34 15.5 -60c0 -24.667 -5.16699 -44 -15.5 -58
s-23.5 -23.833 -39.5 -29.5s-32.667 -8.5 -50 -8.5zM106.001 694c14.667 0 25.167 2.83301 31.5 8.5s9.5 15.834 9.5 30.501c0 16 -3.16699 26.333 -9.5 31s-16.833 7 -31.5 7s-25.334 -2.33301 -32.001 -7s-10 -15 -10 -31c0 -14.667 3.33301 -24.834 10 -30.501
s17.334 -8.5 32.001 -8.5z" />
    <glyph glyph-name="uni030B" unicode="&#x30b;" horiz-adv-x="0" 
d="M50 622l-50 67l150 127l63 -86zM238 622l-50 67l150 127l63 -86z" />
    <glyph glyph-name="uni030C" unicode="&#x30c;" horiz-adv-x="0" 
d="M167 651l-167 105l33 61l167 -64h7l167 64l33 -61l-167 -105h-73z" />
    <glyph glyph-name="uni0312" unicode="&#x312;" horiz-adv-x="0" 
d="M28 775l-27.999 -47.0029c11.333 -7.33301 19.666 -21.166 24.999 -41.499s8 -46.166 8 -77.499v-35h106v27c0 36 -5.66699 66 -17 90s-25.5 42.833 -42.5 56.5s-34.167 22.834 -51.5 27.501z" />
    </font>
</defs>
</svg>
