<?xml version="1.0" standalone="no"?>
<!DOCTYPE svg PUBLIC "-//W3C//DTD SVG 1.1//EN" "http://www.w3.org/Graphics/SVG/1.1/DTD/svg11.dtd" >
<svg>
<metadata>
Created by FontForge 20090914 at Wed Jul  7 09:49:27 2021
 By www-data
Copyright 2019 The Ruda Project Authors (https://github.com/marmonsalve/Ruda-new)
</metadata>
<defs>
<font id="Ruda-Bold" horiz-adv-x="0" >
  <font-face 
    font-family="Ruda"
    font-weight="700"
    font-stretch="normal"
    units-per-em="1000"
    panose-1="2 0 0 0 0 0 0 0 0 0"
    ascent="800"
    descent="-200"
    x-height="585"
    cap-height="699"
    bbox="-39 -242.004 932 1053"
    underline-thickness="50"
    underline-position="-75"
    unicode-range="U+000D-U+2260"
  />
<missing-glyph horiz-adv-x="276" 
 />
    <glyph glyph-name=".notdef" horiz-adv-x="276" 
 />
    <glyph glyph-name="CR" unicode="&#xd;" horiz-adv-x="250" 
 />
    <glyph glyph-name="space" unicode=" " horiz-adv-x="247" 
 />
    <glyph glyph-name="exclam" unicode="!" horiz-adv-x="279" 
d="M92 196l-15 503h127l-17 -503h-95zM71 0v109h138v-109h-138z" />
    <glyph glyph-name="quotedbl" unicode="&#x22;" horiz-adv-x="371" 
d="M237 464l-15 224v33h102v-33l-17 -224h-70zM61 464l-15 224v33h102v-33l-17 -224h-70z" />
    <glyph glyph-name="numbersign" unicode="#" horiz-adv-x="567" 
d="M67 0l28 183h-80v99h96l20 130h-81v99h96l30 184h98l-30 -184h116l29 184h99l-30 -184h82v-99h-97l-20 -130h82v-99h-98l-28 -183h-98l28 183h-115l-29 -183h-98zM209 282h116l20 130h-116z" />
    <glyph glyph-name="dollar" unicode="$" horiz-adv-x="526" 
d="M211 -117l0.00195312 106.998c-34 4 -64.833 10.667 -92.5 20s-50 18.333 -67 27l-25.5 13l5 14.5c3.33301 9.66699 7.33301 20.667 12 33l12 32.5l5 14l18.5 -8c12.333 -5.33301 28.666 -11.333 48.999 -18s43 -12.834 68 -18.501s50.5 -8.5 76.5 -8.5
c14.667 0 26.334 1.5 35.001 4.5s15 5.83301 19 8.5c10.667 6.66699 19 16.834 25 30.501s9 31.5 9 53.5c0 20.667 -5.33301 38.334 -16 53.001s-25 27.334 -43 38.001s-38.333 20.334 -61 29.001c-25.333 11.333 -49.666 22.833 -72.999 34.5s-44.166 25.167 -62.499 40.5
s-32.833 34.333 -43.5 57s-16 50 -16 82c0 46 14 86 42 120s69.667 55.667 125 65v95h96v-92c26 -2 50 -5 72 -9s39.667 -7.66699 53 -11l20 -5l-19 -98l-16.5 3c-11 2 -25.5 4.5 -43.5 7.5s-37.833 5.5 -59.5 7.5s-42.5 3 -62.5 3c-14.667 0 -26.334 -1 -35.001 -3
s-16 -5 -22 -9c-7.33301 -4.66699 -14 -12.334 -20 -23.001s-9 -26 -9 -46c0 -22 6.16699 -40 18.5 -54s28.666 -26 48.999 -36s42.5 -20 66.5 -30c22 -9.33301 43.667 -19.5 65 -30.5s40.666 -24.167 57.999 -39.5s31.166 -34.333 41.499 -57s15.5 -50.667 15.5 -84
c0 -54 -15.833 -99 -47.5 -135s-73.5 -59 -125.5 -69v-109h-96z" />
    <glyph glyph-name="percent" unicode="%" horiz-adv-x="810" 
d="M167 -9l205 402l156 340h103l-190 -386l-170 -356h-104zM202 399c-26 0 -51.167 5.33301 -75.5 16s-44.333 27.667 -60 51s-23.5 54.333 -23.5 93c0 39.333 7.83301 70.5 23.5 93.5s35.667 39.5 60 49.5s49.5 15 75.5 15s51.167 -5 75.5 -15s44.333 -26.5 60 -49.5
s23.5 -54.167 23.5 -93.5c0 -38.667 -7.83301 -69.667 -23.5 -93s-35.667 -40.333 -60 -51s-49.5 -16 -75.5 -16zM202 488c20 0 36.167 5.16699 48.5 15.5s18.5 28.833 18.5 55.5s-6.16699 44.834 -18.5 54.501s-28.5 14.5 -48.5 14.5c-19.333 0 -35.333 -4.83301 -48 -14.5
s-19 -27.834 -19 -54.501s6.33301 -45.167 19 -55.5s28.667 -15.5 48 -15.5zM608 -10c-26.667 0 -52.167 5.33301 -76.5 16s-44.333 27.667 -60 51s-23.5 54.333 -23.5 93c0 39.333 7.83301 70.5 23.5 93.5s35.667 39.5 60 49.5s49.833 15 76.5 15c26 0 51.167 -5 75.5 -15
s44.333 -26.5 60 -49.5s23.5 -54.167 23.5 -93.5c0 -38.667 -7.83301 -69.667 -23.5 -93s-35.667 -40.333 -60 -51s-49.5 -16 -75.5 -16zM608 79c19.333 0 35.333 5.16699 48 15.5s19 28.833 19 55.5s-6.33301 44.834 -19 54.501s-28.667 14.5 -48 14.5
c-20 0 -36.333 -4.83301 -49 -14.5s-19 -27.834 -19 -54.501s6.16699 -45.167 18.5 -55.5s28.833 -15.5 49.5 -15.5z" />
    <glyph glyph-name="ampersand" unicode="&#x26;" horiz-adv-x="671" 
d="M260 -13c-48.667 0 -90.1709 10.3291 -124.504 30.9961s-60.666 46.834 -78.999 78.501s-27.5 63.834 -27.5 96.501c0 25.333 4.33301 48.166 13 68.499s20.167 38.333 34.5 54s29.5 29 45.5 40s31.333 19.833 46 26.5c-13.333 9.33301 -26.833 21.333 -40.5 36
s-25 31.834 -34 51.501s-13.5 42.167 -13.5 67.5c0 32.667 7.66699 62.167 23 88.5s37.833 47.333 67.5 63s65.834 23.5 108.501 23.5c46 0 83.333 -8.33301 112 -25s49.667 -38 63 -64s20 -53.333 20 -82c0 -29.333 -6 -54.5 -18 -75.5s-26 -38.5 -42 -52.5
s-31 -25.333 -45 -34c27.333 -19.333 50.833 -38 70.5 -56s38.167 -37 55.5 -57c12.667 22 23.167 42.333 31.5 61s14.833 33.834 19.5 45.501l7 17.5l99 -29l-11 -26c-7.33301 -17.333 -17.666 -39.5 -30.999 -66.5s-29.666 -55.167 -48.999 -84.5
c25.333 -38.667 45.166 -74.667 59.499 -108s25.5 -61.666 33.5 -84.999l-113 -4c-2.66699 8 -8.66699 22 -18 42s-20.666 42.333 -33.999 67c-32 -33.333 -66.833 -59.833 -104.5 -79.5s-79.167 -29.5 -124.5 -29.5zM262.996 79.9961c32.667 0 63.832 9.83301 93.499 29.5
s55.5 43.167 77.5 70.5c-24.667 32.667 -51.167 61.5 -79.5 86.5s-56.833 45.833 -85.5 62.5c-21.333 -8 -41.166 -19 -59.499 -33s-32.833 -30 -43.5 -48s-16 -37.667 -16 -59c0 -31.333 10.333 -57.333 31 -78s48 -31 82 -31zM273.994 429.996
c22 10 41.166 24.1689 57.499 42.502s24.5 41.833 24.5 70.5c0 21.333 -6 39.833 -18 55.5s-33 23.5 -63 23.5c-28 0 -48.167 -7.5 -60.5 -22.5s-18.5 -34.167 -18.5 -57.5c0 -26.667 6.83301 -48.834 20.5 -66.501s32.834 -32.834 57.501 -45.501z" />
    <glyph glyph-name="quotesingle" unicode="'" horiz-adv-x="203" 
d="M66 466l-15 224v33h102v-34l-18 -223h-69z" />
    <glyph glyph-name="parenleft" unicode="(" horiz-adv-x="331" 
d="M259 -124c-34 20 -66.333 48.6709 -97 86.0039s-55.5 86.666 -74.5 147.999s-28.5 136.666 -28.5 225.999c0 90.667 9.5 166.5 28.5 227.5s43.833 110.167 74.5 147.5s63 66 97 86l51 -69c-46 -30.667 -79.667 -79.834 -101 -147.501s-32 -149.167 -32 -244.5
c0 -94.667 10.667 -175.834 32 -243.501s55 -117.167 101 -148.5z" />
    <glyph glyph-name="parenright" unicode=")" horiz-adv-x="331" 
d="M71 -124l-50 67.9961c46.667 31.333 80.5 80.833 101.5 148.5s31.5 148.834 31.5 243.501c0 95.333 -10.5 176.833 -31.5 244.5s-54.833 116.834 -101.5 147.501l50 69c34.667 -20 67.334 -48.667 98.001 -86s55.5 -86.5 74.5 -147.5s28.5 -136.833 28.5 -227.5
c0 -89.333 -9.5 -164.666 -28.5 -225.999s-43.833 -110.666 -74.5 -147.999s-63.334 -66 -98.001 -86z" />
    <glyph glyph-name="asterisk" unicode="*" horiz-adv-x="415" 
d="M130 361l-76 67l14 15l88 81l-111 16l-19 6l31 99l20 -7l96 -48l-17 105v20h103v-20l-18 -105l97 48l19 7l32 -99l-20 -6l-113 -16l89 -81l15 -14l-79 -67l-12 16l-63 103l-64 -104z" />
    <glyph glyph-name="plus" unicode="+" horiz-adv-x="625" 
d="M261 19v225h-219v98h219v222h101v-222h221v-98h-221v-225h-101z" />
    <glyph glyph-name="comma" unicode="," horiz-adv-x="283" 
d="M116 -170l-61.999 36c10.667 14 18.667 30 24 48s8 40 8 66v126h113v-80c-0.666992 -52 -9.33398 -93.5 -26.001 -124.5s-35.667 -54.833 -57 -71.5z" />
    <glyph glyph-name="hyphen" unicode="-" horiz-adv-x="314" 
d="M36 279v98h242v-98h-242z" />
    <glyph glyph-name="period" unicode="." horiz-adv-x="267" 
d="M66 0v111h135v-111h-135z" />
    <glyph glyph-name="slash" unicode="/" horiz-adv-x="457" 
d="M-6 -98l184 423l152 374h115l-180 -414l-157 -383h-114z" />
    <glyph glyph-name="zero" unicode="0" horiz-adv-x="591" 
d="M296 -13c-35.333 0 -67.666 5.33203 -96.999 15.999s-55.166 29.167 -77.499 55.5s-39.833 63.166 -52.5 110.499s-19 108 -19 182c0 72.667 6.33301 132.5 19 179.5s30.167 83.667 52.5 110s48.166 44.833 77.499 55.5s61.333 16 96 16
c35.333 0 67.833 -5.33301 97.5 -16s55.667 -29.167 78 -55.5s39.666 -63 51.999 -110s18.5 -107.167 18.5 -180.5s-6.16699 -133.666 -18.5 -180.999s-29.666 -84.166 -51.999 -110.499s-48.333 -44.833 -78 -55.5s-61.834 -16 -96.501 -16zM296 87.999
c28 0 51.333 7.00098 70 21.001s32.667 40 42 78s14 92.333 14 163c0 54.667 -2.83301 99.167 -8.5 133.5s-14 60.666 -25 78.999s-24.333 31 -40 38s-33.5 10.5 -53.5 10.5c-19.333 0 -36.833 -3.33301 -52.5 -10s-29 -19.167 -40 -37.5s-19.167 -44.5 -24.5 -78.5
s-8 -78.333 -8 -133c0 -70.667 4.66699 -125 14 -163s23.5 -64.333 42.5 -79s42.167 -22 69.5 -22z" />
    <glyph glyph-name="one" unicode="1" horiz-adv-x="528" 
d="M71 0v100l169 -2l7 483h-6l-133 -138l-75 76l208 187l117 -8v-600l149 2v-100h-436z" />
    <glyph glyph-name="two" unicode="2" horiz-adv-x="561" 
d="M49 0l0.00390625 87.0049l48.5 53c32.333 35.333 78.166 88.666 137.499 159.999c41.333 49.333 75.166 93.5 101.499 132.5s39.5 75.5 39.5 109.5c0 20 -5.83301 36 -17.5 48s-31.834 18 -60.501 18c-20 0 -42.167 -3.33301 -66.5 -10s-49 -15.334 -74 -26.001
s-48.167 -23 -69.5 -37l-47 87c12 10 30.167 22.167 54.5 36.5s52.5 26.833 84.5 37.5s65.333 16 100 16c40.667 0 77 -7.16699 109 -21.5s57.167 -34.833 75.5 -61.5s27.5 -58.334 27.5 -95.001c0 -28.667 -6.33301 -57.334 -19 -86.001s-28.334 -56.834 -47.001 -84.501
s-38 -54.167 -58 -79.5l-37.5 -46l-40.5 -49l-36.5 -44l-26.5 -31.5l-10 -11.5v-6l290 6v-102h-458z" />
    <glyph glyph-name="three" unicode="3" horiz-adv-x="576" 
d="M274 -13c-31.333 0 -60.166 2.83008 -86.499 8.49707s-49.833 12.334 -70.5 20.001s-37.834 14.834 -51.501 21.501s-22.834 11.334 -27.501 14.001l39 86c6 -2 16.333 -5.66699 31 -11s32 -10.833 52 -16.5s40.833 -10.5 62.5 -14.5s43.167 -6 64.5 -6
c36 0 60.5 8.5 73.5 25.5s19.5 42.833 19.5 77.5c0 48.667 -10 82.334 -30 101.001s-50.667 28 -92 28h-111v95c41.333 3.33301 75.833 6.5 103.5 9.5s49.667 7.5 66 13.5s28 15.5 35 28.5s10.5 30.167 10.5 51.5c0 18 -1.66699 33 -5 45s-7.66602 20.667 -12.999 26
c-7.33301 7.33301 -19.833 12.666 -37.5 15.999s-39.5 5 -65.5 5c-12 0 -24.333 -0.333008 -37 -1s-27.834 -2 -45.501 -4l-70.5 -8l-13 94c14.667 4 32.167 7.5 52.5 10.5s41.333 5.33301 63 7s40.834 2.5 57.501 2.5c44.667 0 84.5 -5.66699 119.5 -17s62.667 -30 83 -56
s30.5 -62.333 30.5 -109c0 -27.333 -3.66699 -50 -11 -68s-16.166 -32.667 -26.499 -44s-20.833 -20 -31.5 -26s-19.667 -10.667 -27 -14v-5c13.333 -3.33301 26.666 -8.83301 39.999 -16.5s25.833 -18 37.5 -31s21.167 -29.667 28.5 -50s11 -45.5 11 -75.5
c0 -38 -7.33301 -73.167 -22 -105.5s-38.667 -58.333 -72 -78s-78 -29.5 -134 -29.5z" />
    <glyph glyph-name="four" unicode="4" horiz-adv-x="555" 
d="M336 0l2 152h-319v80l164 479l113 -15l-154 -445v-5l196 5l26 259h87v-257l65 2v-103h-65l1 -152h-116z" />
    <glyph glyph-name="five" unicode="5" horiz-adv-x="528" 
d="M253 -13c-32.667 0 -63.3301 3.83301 -91.9971 11.5s-53.834 16.5 -75.501 26.5s-38.5 18.833 -50.5 26.5l-18 11.5l38 86l20.5 -9c13.667 -6 31.167 -13 52.5 -21s44.166 -15 68.499 -21s47.833 -9 70.5 -9c27.333 0 48 5 62 15c10.667 6.66699 18.5 19.834 23.5 39.501
s7.5 40.167 7.5 61.5c0 19.333 -2.16699 38.333 -6.5 57s-10.5 31.667 -18.5 39c-10 9.33301 -29.167 16.166 -57.5 20.499s-66.5 6.5 -114.5 6.5c-14 0 -28.5 -0.166992 -43.5 -0.5s-27.667 -0.666016 -38 -0.999023l-15.5 -0.5l56 373h328v-99l-231 4l-25 -177
c41.333 -2 79.333 -6.5 114 -13.5s65 -18.167 91 -33.5s46.167 -36.5 60.5 -63.5s21.5 -61.833 21.5 -104.5c0 -70.667 -20.333 -125.834 -61 -165.501s-96.334 -59.5 -167.001 -59.5z" />
    <glyph glyph-name="six" unicode="6" horiz-adv-x="570" 
d="M290 -13c-49.333 0 -92.0029 11 -128.003 33s-63.667 58.167 -83 108.5s-29 118.166 -29 203.499c0 76.667 7.33301 139.667 22 189s34.834 87.833 60.501 115.5s55.334 47.167 89.001 58.5s69.167 17 106.5 17c30 0 57 -2.5 81 -7.5s43 -10 57 -15l21 -7.5l-26 -94
l-14 3l-36.5 7.5c-15 3 -31.333 5.5 -49 7.5s-34.5 3 -50.5 3c-21.333 0 -39.166 -2 -53.499 -6s-26.5 -11 -36.5 -21c-12 -12 -22.167 -30.167 -30.5 -54.5s-13.833 -58.5 -16.5 -102.5l14.5 1.5c9.66699 1 21.5 1.83301 35.5 2.5s27.667 1 41 1c52 0 97 -6.66699 135 -20
s67.5 -35.666 88.5 -66.999s31.5 -73.333 31.5 -126c0 -74 -20.5 -130.833 -61.5 -170.5s-97.167 -59.5 -168.5 -59.5zM295.997 85c42 0 70.666 9.66895 85.999 29.002s23 52.666 23 99.999c0 29.333 -3.16699 52.5 -9.5 69.5s-18.166 29.167 -35.499 36.5
s-42.333 11 -75 11c-18 0 -35.667 -0.833008 -53 -2.5s-31.833 -3.33398 -43.5 -5.00098l-17.5 -2.5v-67c0 -34 2.16699 -61 6.5 -81s9.5 -34.833 15.5 -44.5s11 -16.167 15 -19.5c6 -6 15.667 -11.5 29 -16.5s33 -7.5 59 -7.5z" />
    <glyph glyph-name="seven" unicode="7" horiz-adv-x="489" 
d="M184 -8l-123 10l292 596v6l-339 -7v102h462v-72z" />
    <glyph glyph-name="eight" unicode="8" horiz-adv-x="558" 
d="M275 -13c-52 0 -95.668 10.1689 -131.001 30.502s-62 46.666 -80 78.999s-27 65.5 -27 99.5c0 28 5.33301 53.167 16 75.5s24.5 41.833 41.5 58.5s34.5 29.667 52.5 39c-24 18 -44.167 40.167 -60.5 66.5s-24.5 58.166 -24.5 95.499c0 52.667 18.333 96 55 130
s90.334 51 161.001 51c48.667 0 89.167 -8.16699 121.5 -24.5s56.5 -38.166 72.5 -65.499s24 -58 24 -92c0 -41.333 -9.5 -75.5 -28.5 -102.5s-42.167 -49.167 -69.5 -66.5c17.333 -8.66699 35.5 -20.5 54.5 -35.5s35 -33.667 48 -56s19.5 -49.5 19.5 -81.5
c0 -34.667 -9.5 -67.334 -28.5 -98.001s-46.833 -55.5 -83.5 -74.5s-81 -28.5 -133 -28.5zM277.999 86.002c42 0 72.667 8.49902 92 25.499s29 40.167 29 69.5c0 22.667 -4.66699 41.667 -14 57s-24.833 29.333 -46.5 42s-51.167 25 -88.5 37
c-28.667 -11.333 -51.167 -25.666 -67.5 -42.999s-24.5 -44.666 -24.5 -81.999c0 -20 3.66699 -37.833 11 -53.5s20 -28.334 38 -38.001s41.667 -14.5 71 -14.5zM293.999 407.001c26.667 10 47.666 24.167 62.999 42.5s23 43.5 23 75.5c0 28 -7.5 50.5 -22.5 67.5
s-41.167 25.5 -78.5 25.5c-39.333 0 -66.166 -7.66699 -80.499 -23s-21.5 -35.333 -21.5 -60c0 -29.333 9 -54 27 -74s48 -38 90 -54z" />
    <glyph glyph-name="nine" unicode="9" horiz-adv-x="568" 
d="M275 -13c-26.667 0 -52.332 3.16992 -76.999 9.50293s-46.834 13.666 -66.501 21.999s-35.334 15.666 -47.001 21.999l-17.5 9.5l37 87l16.5 -7.5c11 -5 25.333 -10.833 43 -17.5s36.834 -12.667 57.501 -18s40.667 -8 60 -8c18 0 32.333 1.83301 43 5.5
s19.334 8.83398 26.001 15.501c12.667 12.667 23.167 34.167 31.5 64.5s13.166 67.166 14.499 110.499l-19 -3c-12.667 -2 -28.167 -4 -46.5 -6s-36.5 -3 -54.5 -3c-45.333 0 -84.833 7.33301 -118.5 22s-60 37.834 -79 69.501s-28.5 72.167 -28.5 121.5
c0 72 20 128.167 60 168.5s96 60.5 168 60.5c48 0 90 -10.833 126 -32.5s64 -58.334 84 -110.001s30 -122.834 30 -213.501c0 -78 -8.16699 -144.5 -24.5 -199.5s-42.333 -97 -78 -126s-82.5 -43.5 -140.5 -43.5zM272.002 371.003c20 0 39.498 1.66992 58.498 5.00293
s34.667 6.66602 47 9.99902l18.5 5c0 54 -2.33301 95.167 -7 123.5s-10.334 48.333 -17.001 60s-13.667 19.5 -21 23.5c-8.66699 5.33301 -19.667 9.16602 -33 11.499s-27.666 3.5 -42.999 3.5c-31.333 0 -54.666 -4.83301 -69.999 -14.5s-25.666 -24.167 -30.999 -43.5
s-8 -44.333 -8 -75c0 -20.667 2 -39.334 6 -56.001s13.5 -29.667 28.5 -39s38.833 -14 71.5 -14z" />
    <glyph glyph-name="colon" unicode=":" horiz-adv-x="324" 
d="M93 440v110h138v-110h-138zM93 0v111h138v-111h-138z" />
    <glyph glyph-name="semicolon" unicode=";" horiz-adv-x="326" 
d="M140 -170l-63.001 35.999c11.333 14 19.5 29.833 24.5 47.5s7.5 39.834 7.5 66.501v126h113v-80c-0.666992 -52 -9.16699 -93.5 -25.5 -124.5s-35.166 -54.833 -56.499 -71.5zM97.999 443.999v110h138v-110h-138z" />
    <glyph glyph-name="less" unicode="&#x3c;" horiz-adv-x="649" 
d="M605 11l-540 240v86l540 240v-112l-395 -168v-6l395 -169v-111z" />
    <glyph glyph-name="equal" unicode="=" horiz-adv-x="632" 
d="M42 351v100h548v-100h-548zM42 134v99h548v-99h-548z" />
    <glyph glyph-name="greater" unicode="&#x3e;" horiz-adv-x="651" 
d="M55 11v111l395 169v6l-395 168v112l539 -240v-86z" />
    <glyph glyph-name="question" unicode="?" horiz-adv-x="476" 
d="M137 196l-0.00292969 13.998c0 35.333 5.5 64.5 16.5 87.5s25 42.333 42 58s34.5 29.834 52.5 42.501c14.667 10.667 28.834 21.834 42.501 33.501s24.667 25.167 33 40.5s12.5 33.666 12.5 54.999c0 18.667 -3.16699 33.167 -9.5 43.5s-13.833 18.5 -22.5 24.5
c-3.33301 2 -9.5 4.5 -18.5 7.5s-22.167 4.5 -39.5 4.5c-33.333 0 -66.166 -5.16699 -98.499 -15.5s-61.833 -21.166 -88.5 -32.499l-38 90c12 6.66699 28 14.834 48 24.501s44 18.5 72 26.5s60.333 12 97 12c42.667 0 80.5 -8.16699 113.5 -24.5s58.667 -38.833 77 -67.5
s27.5 -61.334 27.5 -98.001c0 -34 -6.16699 -62.667 -18.5 -86s-28 -43.333 -47 -60s-38.5 -32 -58.5 -46c-15.333 -11.333 -30 -22.833 -44 -34.5s-25.167 -25.167 -33.5 -40.5s-13.166 -35 -14.499 -59h-103zM119.997 -0.00195312v109h138v-109h-138z" />
    <glyph glyph-name="at" unicode="@" horiz-adv-x="826" 
d="M409 -48c-43.333 0 -85.999 7.66797 -127.999 23.001s-79.833 38.5 -113.5 69.5s-60.667 69.833 -81 116.5s-30.5 101 -30.5 163c0 64.667 10.833 120.667 32.5 168s50.334 86.5 86.001 117.5s75.5 54.167 119.5 69.5s88 23 132 23c43.333 0 85.333 -7 126 -21
s77.167 -34.333 109.5 -61s57.833 -59.667 76.5 -99s28 -84 28 -134c0 -38.667 -5.83301 -74.667 -17.5 -108s-27 -62 -46 -86s-40.167 -42.833 -63.5 -56.5s-46.333 -20.5 -69 -20.5c-28.667 0 -48.5 9.83301 -59.5 29.5s-18.167 45.5 -21.5 77.5h-4
c-7.33301 -14 -17 -29.333 -29 -46s-25.833 -31 -41.5 -43s-33.5 -18 -53.5 -18c-11.333 0 -23.833 3.33301 -37.5 10s-26.667 18 -39 34s-22.333 38.167 -30 66.5s-11.5 64.5 -11.5 108.5c0 55.333 6.33301 98.5 19 129.5s31.167 53 55.5 66s54.166 19.5 89.499 19.5
c18 0 36.333 -1.33301 55 -4s36.167 -5.83398 52.5 -9.50098s29.5 -6.83398 39.5 -9.50098l15 -4l-0.5 -22.5c-0.333008 -15 -0.5 -33.833 -0.5 -56.5s-0.166992 -46.5 -0.5 -71.5s-0.5 -47.167 -0.5 -66.5c0 -34 0.333008 -59 1 -75s2 -26 4 -30s5 -6 9 -6
c11.333 0 25.166 7.5 41.499 22.5s30.833 36.5 43.5 64.5s19 61.667 19 101c0 72.667 -22.833 130.334 -68.5 173.001s-108.834 64 -189.501 64c-54.667 0 -103.667 -10.667 -147 -32s-77.666 -53.333 -102.999 -96s-38 -96 -38 -160c0 -65.333 12.667 -120.333 38 -165
s58.833 -78.5 100.5 -101.5s86.5 -34.5 134.5 -34.5c13.333 0 27 0.833008 41 2.5s25.833 3.5 35.5 5.5l14.5 3l9 -75l-29.5 -7.5c-19.667 -5 -44.167 -7.5 -73.5 -7.5zM372.001 206.001c12 0 24.167 8 36.5 24s23.666 36.667 33.999 62s18.833 52.5 25.5 81.5
s10 56.5 10 82.5c-2.66699 0.666992 -11.167 2.16699 -25.5 4.5s-30.5 3.5 -48.5 3.5c-23.333 0 -38.666 -4 -45.999 -12c-6 -6 -10.667 -19 -14 -39s-5 -45.667 -5 -77c0 -46 3 -79.167 9 -99.5s14 -30.5 24 -30.5z" />
    <glyph glyph-name="A" unicode="A" horiz-adv-x="536" 
d="M-2 0l191 699h156l191 -699h-120l-54 215l63 -44h-315l61 44l-53 -215h-120zM171 219l-39 53h270l-39 -53l-105 424l64 -51h-110l64 51z" />
    <glyph glyph-name="B" unicode="B" horiz-adv-x="632" 
d="M332 -14c-24.667 0 -50.6641 0.999023 -77.9971 2.99902s-52.666 4.16699 -75.999 6.5s-42.5 4.33301 -57.5 6s-22.833 2.83398 -23.5 3.50098l3 321l-5 373c1.33301 0 9.5 0.666992 24.5 2l57 5c23 2 47.667 3.5 74 4.5s51.166 1.5 74.499 1.5
c40 0 76.167 -5.83301 108.5 -17.5s58.166 -31.334 77.499 -59.001s29 -66.167 29 -115.5c0 -31.333 -4.66699 -57 -14 -77s-20.833 -35.667 -34.5 -47s-26.667 -19.5 -39 -24.5s-21.166 -7.83301 -26.499 -8.5l16 57v-109l-25 59c12.667 -2 27 -5.83301 43 -11.5
s31.5 -14.167 46.5 -25.5s27.333 -27.166 37 -47.499s14.5 -45.833 14.5 -76.5c0 -44.667 -6.33301 -81.5 -19 -110.5s-29.834 -51.667 -51.501 -68s-45.834 -27.833 -72.501 -34.5s-54.334 -10 -83.001 -10zM339.003 78.999c40 0 66.167 10.332 78.5 30.999
s18.5 52.334 18.5 95.001c0 43.333 -10.167 73 -30.5 89s-48.5 24 -84.5 24h-161l52 43l2 -326l-7 53c1.33301 0 8.16602 -0.833008 20.499 -2.5s28.333 -3.16699 48 -4.5s40.834 -2 63.501 -2zM329.003 407.998c36 0 60.168 8.33203 72.501 24.999s18.5 44 18.5 82
c0 40.667 -7.5 68.834 -22.5 84.501s-40.167 23.5 -75.5 23.5c-22 0 -41.333 -0.5 -58 -1.5s-31.334 -2.16699 -44.001 -3.5s-23.667 -2.33301 -33 -3l25 54v-305l-52 45z" />
    <glyph glyph-name="C" unicode="C" horiz-adv-x="599" 
d="M324 -14c-51.333 0 -96.668 11.6699 -136.001 35.0029s-70.166 61.166 -92.499 113.499s-33.5 121.5 -33.5 207.5c0 76.667 7 139.167 21 187.5s33.5 85.833 58.5 112.5s54.333 45 88 55s70.167 15 109.5 15c16.667 0 36.667 -1 60 -3s46.5 -4.5 69.5 -7.5
s41.167 -6.16699 54.5 -9.5l-13 -97c-6.66699 0.666992 -17.5 1.66699 -32.5 3l-48.5 4.5c-17.333 1.66699 -33.833 3 -49.5 4s-27.5 1.5 -35.5 1.5c-30 0 -54 -1.5 -72 -4.5s-31 -9.16699 -39 -18.5c-8.66699 -8.66699 -16.667 -22.334 -24 -41.001
s-13.333 -44.5 -18 -77.5s-7 -75.5 -7 -127.5c0 -65.333 6.16699 -117.166 18.5 -155.499s24.833 -63.166 37.5 -74.499c8.66699 -7.33301 19.167 -12.833 31.5 -16.5s26.833 -5.5 43.5 -5.5c24 0 47.833 2.66699 71.5 8s45.167 11.666 64.5 18.999
s34.833 13.666 46.5 18.999l17.5 8l37 -90l-17 -9.5c-11.333 -6.33301 -27 -13.833 -47 -22.5s-44 -16.334 -72 -23.001s-58.667 -10 -92 -10z" />
    <glyph glyph-name="D" unicode="D" horiz-adv-x="650" 
d="M311 -14c-18 0 -38.1689 0.49707 -60.502 1.49707s-44.166 2.33301 -65.499 4s-40.166 3.33398 -56.499 5.00098s-27.5 2.83398 -33.5 3.50098v699c6 0.666992 17.167 1.66699 33.5 3s35.833 2.83301 58.5 4.5s45.834 3 69.501 4s45.5 1.5 65.5 1.5
c55.333 0 100.5 -9.33301 135.5 -28s61.833 -44.5 80.5 -77.5s31.667 -70.833 39 -113.5s11 -87.667 11 -135c0 -92.667 -11.833 -166.167 -35.5 -220.5s-56.334 -93.166 -98.001 -116.499s-89.5 -35 -143.5 -35zM308.998 86.9971c30 0 52.8311 2.33105 68.498 6.99805
s27.167 10.334 34.5 17.001c8.66699 8.66699 16.834 22 24.501 40s14 44 19 78s7.5 78.667 7.5 134c0 56.667 -3.83301 105.667 -11.5 147s-20.167 69 -37.5 83c-5.33301 4.66699 -14.666 8.83398 -27.999 12.501s-34 5.5 -62 5.5c-29.333 0 -54.333 -1 -75 -3
s-39 -4 -55 -6l18 55v-614l-19 55c16.667 -2 33.5 -4.33301 50.5 -7s38.833 -4 65.5 -4z" />
    <glyph glyph-name="E" unicode="E" horiz-adv-x="531" 
d="M95 0v699h378v-101l-313 3l53 52l-7 -294l-51 45h293v-98h-293l51 47l7 -306l-53 52l313 2v-101h-378z" />
    <glyph glyph-name="F" unicode="F" horiz-adv-x="517" 
d="M95 0v699h378v-101l-316 3l53 52l-4 -269l-51 18h286v-98h-286l52 21l4 -325h-116z" />
    <glyph glyph-name="G" unicode="G" horiz-adv-x="631" 
d="M339 -13c-36.667 0 -71.8301 4.8291 -105.497 14.4961s-63.334 27.5 -89.001 53.5s-45.834 63 -60.501 111s-22 110 -22 186c0 74.667 7 135.5 21 182.5s33.833 83.5 59.5 109.5s56.5 43.833 92.5 53.5s75.667 14.5 119 14.5c22 0 45.167 -1.16699 69.5 -3.5
s47.5 -5.16602 69.5 -8.49902s39.333 -6.33301 52 -9l-13 -97c-19.333 2 -44.833 4.83301 -76.5 8.5s-67.5 5.5 -107.5 5.5c-32 0 -57.167 -1.66699 -75.5 -5s-32.166 -9.66602 -41.499 -18.999c-11.333 -10.667 -21.833 -34.167 -31.5 -70.5s-14.5 -90.166 -14.5 -161.499
c0 -54 3 -97.167 9 -129.5s12.667 -56.666 20 -72.999s13.666 -27.5 18.999 -33.5c7.33301 -6.66699 19.5 -13 36.5 -19s42.167 -9 75.5 -9c19.333 0 36.666 1 51.999 3s28 4.66699 38 8v239l52 -55l-156 9v85h217v-348l-27 -10.5c-18 -7 -42.833 -14 -74.5 -21
s-67.5 -10.5 -107.5 -10.5z" />
    <glyph glyph-name="H" unicode="H" horiz-adv-x="683" 
d="M95 0v699h117l-3 -331l-52 38h369l-52 -38l-3 331h117v-699h-117l3 343l52 -38h-369l52 38l3 -343h-117z" />
    <glyph glyph-name="I" unicode="I" horiz-adv-x="308" 
d="M95 -1l4 322l-4 378h118l-4 -310l4 -389z" />
    <glyph glyph-name="J" unicode="J" horiz-adv-x="337" 
d="M65 -13c-12 0 -23.667 0.666992 -35 2s-21 2.83301 -29 4.5s-13 2.5 -15 2.5l12 100l34.5 -5.5c15 -2.33301 29.167 -3.5 42.5 -3.5c12 0 22 3 30 9s14.167 19.333 18.5 40s6.5 53 6.5 97v466h117v-458c0 -63.333 -8 -113.5 -24 -150.5s-37.667 -63.5 -65 -79.5
s-58.333 -24 -93 -24z" />
    <glyph glyph-name="K" unicode="K" horiz-adv-x="616" 
d="M484 0l-269 362l250 337h141l-261 -330v-6l283 -363h-144zM95 0l3 355l-3 344h117v-699h-117z" />
    <glyph glyph-name="L" unicode="L" horiz-adv-x="472" 
d="M95 0v699h117l-5 -652l-52 56l311 3v-106h-371z" />
    <glyph glyph-name="M" unicode="M" horiz-adv-x="827" 
d="M89 0l24 699h158l139 -430h6l141 430h156l25 -699h-116l-2 573h-7l-135 -417h-130l-134 417h-7l-2 -573h-116z" />
    <glyph glyph-name="N" unicode="N" horiz-adv-x="696" 
d="M95 0v699h153l253 -558h4l-14 558h111v-699h-153l-252 558h-5l14 -558h-111z" />
    <glyph glyph-name="O" unicode="O" horiz-adv-x="676" 
d="M338 -14c-37.333 0 -72.666 5.33301 -105.999 16s-62.833 29.334 -88.5 56.001s-45.667 63.667 -60 111s-21.5 108 -21.5 182c0 73.333 7.16699 133.5 21.5 180.5s34.333 83.667 60 110s55.167 44.666 88.5 54.999s68.666 15.5 105.999 15.5
c38 0 73.5 -5.16699 106.5 -15.5s62.333 -28.666 88 -54.999s45.667 -63 60 -110s21.5 -107.167 21.5 -180.5c0 -74 -7.16699 -134.667 -21.5 -182s-34.333 -84.333 -60 -111s-55 -45.334 -88 -56.001s-68.5 -16 -106.5 -16zM338 90c26.667 0 49.501 3 68.501 9
s34.833 18 47.5 36s22 44 28 78s9 79 9 135c0 56.667 -2.83301 102.167 -8.5 136.5s-14.667 60.5 -27 78.5s-28.333 30 -48 36s-42.834 9 -69.501 9c-27.333 0 -50.666 -3 -69.999 -9s-35.166 -18 -47.499 -36s-21.5 -44.167 -27.5 -78.5s-9 -79.833 -9 -136.5
c0 -56 3.16699 -101 9.5 -135s15.666 -60 27.999 -78s28.166 -30 47.499 -36s42.333 -9 69 -9z" />
    <glyph glyph-name="P" unicode="P" horiz-adv-x="599" 
d="M95 0l4.00098 324.999l-4 373l23 2c15.333 1.33301 35.5 3 60.5 5s52.167 3.66699 81.5 5s57.333 2 84 2c65.333 0 116 -20 152 -60s54 -100 54 -180c0 -50 -6.33301 -91.167 -19 -123.5s-30 -57.666 -52 -75.999s-46.333 -31.333 -73 -39s-54.334 -11.5 -83.001 -11.5
c-22.667 0 -45.167 0.833008 -67.5 2.5s-36.833 2.5 -43.5 2.5v-227h-117zM328.001 317.999c18.667 0 34.001 1.33203 46.001 3.99902s21.333 7 28 13c9.33301 9.33301 16 26 20 50s6 56 6 96c0 32.667 -1.66699 57.334 -5 74.001s-7 28.5 -11 35.5
s-8.33301 12.167 -13 15.5c-5.33301 4 -14.666 7.5 -27.999 10.5s-30 4.5 -50 4.5c-20.667 0 -41 -1 -61 -3s-36 -4 -48 -6v-284c5.33301 -1.33301 19.166 -3.33301 41.499 -6s47.166 -4 74.499 -4z" />
    <glyph glyph-name="Q" unicode="Q" horiz-adv-x="690" 
d="M617 -93l-243.999 110l79 -11c-18 -6.66699 -36.833 -11.5 -56.5 -14.5s-39.834 -4.5 -60.501 -4.5c-36.667 0 -71.5 5.33301 -104.5 16s-62.167 29.334 -87.5 56.001s-45.166 63.5 -59.499 110.5s-21.5 107.5 -21.5 181.5c0 73.333 7.16699 133.5 21.5 180.5
s34.333 83.667 60 110s55.167 44.666 88.5 54.999s68.666 15.5 105.999 15.5c38 0 73.5 -5.16699 106.5 -15.5s62.333 -28.833 88 -55.5s45.667 -63.5 60 -110.5s21.5 -107.167 21.5 -180.5c0 -58 -4.83301 -107.333 -14.5 -148s-23 -74.5 -40 -101.5
s-36.833 -49.167 -59.5 -66.5l19 69l-1 -74l-2 17l138 -40zM338.001 91c26.667 0 49.498 3 68.498 9s34.833 17.833 47.5 35.5s22 43.5 28 77.5s9 79 9 135s-2.83301 101.167 -8.5 135.5s-14.667 60.5 -27 78.5s-28.166 30.167 -47.499 36.5s-42.666 9.5 -69.999 9.5
s-50.666 -3.16699 -69.999 -9.5s-35.166 -18.5 -47.499 -36.5s-21.5 -44.167 -27.5 -78.5s-9 -79.5 -9 -135.5s3.16699 -101 9.5 -135s15.666 -59.833 27.999 -77.5s28.166 -29.5 47.499 -35.5s42.333 -9 69 -9z" />
    <glyph glyph-name="R" unicode="R" horiz-adv-x="662" 
d="M95 0l5.00195 328l-4 370c6 0.666992 18 1.83398 36 3.50098s39 3.16699 63 4.5l73.5 4c25 1.33301 47.833 2 68.5 2c49.333 0 92.166 -7.33301 128.499 -22s64.166 -38.334 83.499 -71.001s29 -76.667 29 -132c0 -56.667 -12.333 -102.167 -37 -136.5
s-60.667 -57.833 -108 -70.5v-5l155 -275h-133l-132 264l-110 4v-268h-118zM344.002 359c45.333 0 75.335 10.501 90.002 31.501s22 53.5 22 97.5c0 37.333 -3 65 -9 83s-14 30 -24 36c-6.66699 4.66699 -16.834 8 -30.501 10s-29.167 3 -46.5 3
c-27.333 0 -52.5 -1 -75.5 -3s-42.167 -4 -57.5 -6l-1 -243c21.333 -2.66699 43.666 -4.83398 66.999 -6.50098s45 -2.5 65 -2.5z" />
    <glyph glyph-name="S" unicode="S" horiz-adv-x="538" 
d="M260 -14c-29.333 0 -57.5 3.16797 -84.5 9.50098s-51.167 13.833 -72.5 22.5s-38 16.167 -50 22.5l-18 9.5l5 14l11.5 32.5c4.33301 12.333 8.33301 23 12 32l5.5 13.5l18 -8c12 -5.33301 28.167 -11.333 48.5 -18s43 -12.667 68 -18s50.5 -8 76.5 -8
c15.333 0 27.333 1.33301 36 4s15 5.33398 19 8.00098c10.667 7.33301 18.834 17.666 24.501 30.999s8.5 31.333 8.5 54c0 21.333 -5.83301 39.166 -17.5 53.499s-27.167 27 -46.5 38s-40.333 21.167 -63 30.5c-24 10.667 -47.333 21.667 -70 33s-42.834 24.5 -60.501 39.5
s-31.667 33.833 -42 56.5s-15.5 50.667 -15.5 84c0 36 8.5 68.167 25.5 96.5s42.167 51 75.5 68s74.666 25.5 123.999 25.5c23.333 0 45.833 -1.33301 67.5 -4s41.334 -5.66699 59.001 -9s31.667 -6.5 42 -9.5l15.5 -4.5l-19 -96l-16.5 3c-11 2 -25.667 4.5 -44 7.5
s-38.166 5.5 -59.499 7.5s-42.333 3 -63 3c-14.667 0 -26.334 -1 -35.001 -3s-16.334 -5.33301 -23.001 -10c-6.66699 -4 -13.167 -11.5 -19.5 -22.5s-9.5 -26.833 -9.5 -47.5s6 -38.167 18 -52.5s27.833 -26.5 47.5 -36.5s40.834 -19.667 63.501 -29
c20.667 -9.33301 42 -19.5 64 -30.5s42.167 -24 60.5 -39s33.166 -34.167 44.499 -57.5s17 -52 17 -86c0 -42 -9.5 -78.667 -28.5 -110s-45.667 -55.833 -80 -73.5s-74.166 -26.5 -119.499 -26.5z" />
    <glyph glyph-name="T" unicode="T" horiz-adv-x="493" 
d="M187 0l2 601l-195 -3v101h505v-101l-198 3l3 -601h-117z" />
    <glyph glyph-name="U" unicode="U" horiz-adv-x="679" 
d="M339 -14c-51.333 0 -95.333 9.33105 -132 27.998s-64.5 51.167 -83.5 97.5s-28.5 110.833 -28.5 193.5v394h117v-366c0 -54 2 -97.167 6 -129.5s10.5 -56.666 19.5 -72.999s21.833 -27.166 38.5 -32.499s38 -8 64 -8s47.333 2.83301 64 8.5s29.5 16.5 38.5 32.5
s15.333 40.167 19 72.5s5.5 75.5 5.5 129.5v366h117v-385c0 -86 -9.5 -152.667 -28.5 -200s-46.667 -80.5 -83 -99.5s-80.833 -28.5 -133.5 -28.5z" />
    <glyph glyph-name="V" unicode="V" horiz-adv-x="548" 
d="M195 0l-190 699h123l143 -594h6l143 594h122l-189 -699h-158z" />
    <glyph glyph-name="W" unicode="W" horiz-adv-x="789" 
d="M139 0l-117 699h119l76 -586h7l96 421h149l96 -421h6l77 586h118l-115 -699h-156l-98 426h-6l-98 -426h-154z" />
    <glyph glyph-name="X" unicode="X" horiz-adv-x="574" 
d="M7 0l230 402l5 -82l-223 379h127l168 -313l-85 45h111l-81 -45l168 313h128l-225 -379l4 76l233 -396h-132l-174 327l72 -46h-101l75 46l-167 -327h-133z" />
    <glyph glyph-name="Y" unicode="Y" horiz-adv-x="539" 
d="M210 0l3 256l-206 443h126l133 -337h6l133 337h126l-206 -443l3 -256h-118z" />
    <glyph glyph-name="Z" unicode="Z" horiz-adv-x="552" 
d="M26 0v95l345 501v7l-325 -5v101h462v-94l-340 -502v-7l350 5v-101h-492z" />
    <glyph glyph-name="bracketleft" unicode="[" horiz-adv-x="324" 
d="M96 -124v911h197v-90l-91 3v-737l91 2v-89h-197z" />
    <glyph glyph-name="backslash" unicode="\" horiz-adv-x="459" 
d="M349 -98l-157 383l-180 414h115l152 -374l184 -423h-114z" />
    <glyph glyph-name="bracketright" unicode="]" horiz-adv-x="325" 
d="M31 -124v89l92 -2v737l-92 -3v90h198v-911h-198z" />
    <glyph glyph-name="asciicircum" unicode="^" horiz-adv-x="515" 
d="M155 314l-107 11l149 375h121l149 -375l-106 -11l-100 292h-6z" />
    <glyph glyph-name="underscore" unicode="_" horiz-adv-x="551" 
d="M11 -163v82h530v-82h-530z" />
    <glyph glyph-name="grave" unicode="`" horiz-adv-x="264" 
d="M244 650l-244 63l28 88l236 -86z" />
    <glyph glyph-name="a" unicode="a" horiz-adv-x="593" 
d="M216 -13c-31.333 0 -59.334 7.33105 -84.001 21.998s-44 36 -58 64s-21 62 -21 102c0 48 10.167 85.667 30.5 113s49 46.833 86 58.5s80.5 17.5 130.5 17.5h92c0 31.333 -1.16699 56.5 -3.5 75.5s-6.5 33.167 -12.5 42.5c-5.33301 6.66699 -12.833 11.667 -22.5 15
s-23.5 5 -41.5 5c-24.667 0 -49.667 -2.16699 -75 -6.5s-48.5 -9.66602 -69.5 -15.999s-38 -11.666 -51 -15.999l-19.5 -6.5l-30 86l19.5 8.5c13 5.66699 30.667 12 53 19s47.5 13.333 75.5 19s57.667 8.5 89 8.5c50.667 0 90.834 -8.83301 120.501 -26.5
s50.834 -42.667 63.501 -75s19 -70.5 19 -114.5v-382h-74l-15 63h-6l-24 -16.5c-12 -8.33301 -26.833 -17 -44.5 -26s-37.334 -16.833 -59.001 -23.5s-44.5 -10 -68.5 -10zM243.999 83.998c21.333 0 42.5 3.33203 63.5 9.99902s39.167 13.834 54.5 21.501
s25.333 13.167 30 16.5v138c-4.66699 0.666992 -15.5 1.83398 -32.5 3.50098s-38.833 2.5 -65.5 2.5c-54 0 -87.333 -5.66699 -100 -17c-6.66699 -6 -12 -15.833 -16 -29.5s-6 -30.834 -6 -51.501c0 -32.667 5.5 -56.5 16.5 -71.5s29.5 -22.5 55.5 -22.5z" />
    <glyph glyph-name="b" unicode="b" horiz-adv-x="598" 
d="M320 -13c-20 0 -44.334 1.83496 -73.001 5.50195s-57.667 8.66699 -87 15s-55 13.166 -77 20.499v729h115v-178l32 6.5c14.667 3 31.834 5.83301 51.501 8.5s38.834 4 57.501 4c62.667 0 111.5 -23.333 146.5 -70s52.5 -122.334 52.5 -227.001
c0 -64 -6.33301 -116.5 -19 -157.5s-29.5 -72.833 -50.5 -95.5s-44.333 -38.5 -70 -47.5s-51.834 -13.5 -78.501 -13.5zM314.999 84.002c16.667 0 29.668 1.16992 39.001 3.50293s17.333 6.16602 24 11.499c6 5.33301 12.167 14.666 18.5 27.999s11.666 35 15.999 65
s6.5 72 6.5 126c0 52.667 -2.5 91.667 -7.5 117s-11.833 42 -20.5 50c-12 10 -34 15 -66 15c-31.333 0 -58.5 -2.83301 -81.5 -8.5s-38.167 -9.83398 -45.5 -12.501v-381c4 -1.33301 11.667 -3 23 -5s25 -4 41 -6s33.667 -3 53 -3z" />
    <glyph glyph-name="c" unicode="c" horiz-adv-x="530" 
d="M306 -13c-48 0 -90.5 10.332 -127.5 30.999s-66 53.667 -87 99s-31.5 104.333 -31.5 177c0 60 7 109.833 21 149.5s33.333 70.667 58 93s53.334 38.166 86.001 47.499s67.667 14 105 14c30.667 0 60 -2.16699 88 -6.5s50 -8.5 66 -12.5l-13 -91l-67.5 8.5
c-29 3.66699 -58.167 5.5 -87.5 5.5c-26 0 -46.333 -2 -61 -6s-26 -10 -34 -18c-12.667 -13.333 -22.834 -36.166 -30.501 -68.499s-11.5 -71.833 -11.5 -118.5c0 -43.333 3.16699 -78.166 9.5 -104.499s14 -46.333 23 -60s17.167 -23.167 24.5 -28.5
c4.66699 -4 11.334 -7.66699 20.001 -11s21 -5 37 -5c17.333 0 36 2.33301 56 7s38.833 10.167 56.5 16.5s32 11.833 43 16.5l16.5 7l33 -85l-23.5 -14.5c-15.667 -9.66699 -37.834 -19.167 -66.501 -28.5s-62.667 -14 -102 -14z" />
    <glyph glyph-name="d" unicode="d" horiz-adv-x="602" 
d="M253 -13c-36.667 0 -69.501 10.499 -98.501 31.499s-52 53.5 -69 97.5s-25.5 100.333 -25.5 169c0 64 6.5 116.333 19.5 157s30.333 72.334 52 95.001s45.334 38.5 71.001 47.5s51.834 13.5 78.501 13.5c20 0 38.5 -1.33301 55.5 -4s31.5 -5.5 43.5 -8.5s20 -5.5 24 -7.5
v179h115v-757h-75l-13 59h-6c-10.667 -8 -24.334 -17.667 -41.001 -29s-36 -21.333 -58 -30s-46.333 -13 -73 -13zM267.999 83.999c12 0 25.0029 1.83301 39.0029 5.5s27.667 8.16699 41 13.5s25 10.5 35 15.5s17 8.83301 21 11.5v346
c-4.66699 2 -13.334 4.83301 -26.001 8.5s-27.667 7.16699 -45 10.5s-35.666 5 -54.999 5c-32 0 -54 -7 -66 -21c-5.33301 -6 -10.5 -16.167 -15.5 -30.5s-9.16699 -34.833 -12.5 -61.5s-5 -62 -5 -106c0 -49.333 2.16699 -86.666 6.5 -111.999s9.66602 -43 15.999 -53
s11.166 -16.667 14.499 -20c5.33301 -4.66699 12.666 -7.83398 21.999 -9.50098s19.333 -2.5 30 -2.5z" />
    <glyph glyph-name="e" unicode="e" horiz-adv-x="589" 
d="M312 -14c-49.333 0 -92.832 9.83496 -130.499 29.502s-67 52.167 -88 97.5s-31.5 105.333 -31.5 180c0 78.667 11 140 33 184s51.667 75.333 89 94s79.333 28 126 28c47.333 0 87.5 -8.83301 120.5 -26.5s58.167 -46.834 75.5 -87.501s26 -95 26 -163v-72h-403l53 18
c-1.33301 -34.667 -0.333008 -63.334 3 -86.001s8.16602 -40 14.499 -52s12.833 -21 19.5 -27c8 -7.33301 18 -12.833 30 -16.5s27 -5.5 45 -5.5c18.667 0 38.167 1.66699 58.5 5s39.5 7.33301 57.5 12s34 9.16699 48 13.5l31 9.5l29 -87c-6 -2.66699 -19 -8 -39 -16
s-44.333 -15.333 -73 -22s-60 -10 -94 -10zM182.001 307.002l-53.001 29l337 7l-52 -31c0 40.667 -1.16699 75 -3.5 103s-8.16602 49 -17.499 63c-4.66699 6 -12.167 11.833 -22.5 17.5s-29.5 8.5 -57.5 8.5c-30 0 -52.5 -3.16699 -67.5 -9.5s-26.5 -14.5 -34.5 -24.5
c-22 -26 -31.667 -80.333 -29 -163z" />
    <glyph glyph-name="f" unicode="f" horiz-adv-x="358" 
d="M106 0v465.999h-66v71l67 14c2.66699 54.667 12 97.834 28 129.501s38.167 54.5 66.5 68.5s60.833 21 97.5 21c8.66699 0 18.667 -0.333008 30 -1s21 -1.16699 29 -1.5l12 -0.5l-8 -94l-13 0.5c-8.66699 0.333008 -19 0.833008 -31 1.5s-22.667 1 -32 1
c-16 0 -28.667 -2.83301 -38 -8.5s-16 -17.167 -20 -34.5s-6.33301 -44 -7 -80h130v-90h-129v-463h-116z" />
    <glyph glyph-name="g" unicode="g" horiz-adv-x="541" 
d="M264 -179c-28.667 0 -55.8311 1.49805 -81.498 4.49805s-48.334 6.5 -68.001 10.5s-35.334 7.5 -47.001 10.5l-17.5 4.5l13 95c42.667 -7.33301 85.5 -13.666 128.5 -18.999s83.833 -8 122.5 -8c31.333 0 52.333 2.16699 63 6.5s16 11.166 16 20.499
c0 5.33301 -1.66699 10.166 -5 14.499s-9.83301 9.16602 -19.5 14.499s-24.334 12.166 -44.001 20.499s-45.834 18.833 -78.501 31.5l-73 29.5c-15.333 6.33301 -24.833 10.833 -28.5 13.5s-5.5 5 -5.5 7c0 3.33301 1.83301 10 5.5 20l13 34l14.5 36.5
c4.66699 11.667 8.33398 19.834 11.001 24.501c-45.333 12 -81 34.5 -107 67.5s-39 74.5 -39 124.5c0 54 11.5 96.5 34.5 127.5s53.667 53.167 92 66.5s79.5 20 123.5 20c14 0 30.833 -0.333008 50.5 -1s39.834 -1.66699 60.501 -3s40.167 -2.66602 58.5 -3.99902
s33.166 -2.33301 44.499 -3l17 -1v-70l-64 -10c0 0.666992 2.5 -5.33301 7.5 -18s9.83301 -28.667 14.5 -48s7 -39 7 -59c0 -37.333 -9 -71.166 -27 -101.499s-44.167 -54.166 -78.5 -71.499s-75.833 -26 -124.5 -26c-1.33301 -6 -2.83301 -14.333 -4.5 -25
s-2.5 -17 -2.5 -19s3 -4.33301 9 -7s16 -6.5 30 -11.5s33 -12.5 57 -22.5c40.667 -16.667 72.334 -32.5 95.001 -47.5s38.5 -30.167 47.5 -45.5s13.5 -31.333 13.5 -48c0 -28.667 -10 -53.167 -30 -73.5s-47.5 -35.666 -82.5 -45.999s-75.5 -15.5 -121.5 -15.5z
M260.003 271.998c29.333 0 52.335 3.33594 69.002 10.0029s28.667 18.834 36 36.501s11 42.167 11 73.5c0 30.667 -1.83301 55.667 -5.5 75s-7.5 30.666 -11.5 33.999c-2 1.33301 -7 2.66602 -15 3.99902s-17 2.16602 -27 2.49902s-19.333 0.666016 -28 0.999023
s-14.334 0.5 -17.001 0.5c-30.667 0 -55.334 -3 -74.001 -9s-32 -17.667 -40 -35s-12 -43 -12 -77c0 -45.333 8.5 -76 25.5 -92s46.5 -24 88.5 -24z" />
    <glyph glyph-name="h" unicode="h" horiz-adv-x="603" 
d="M80 0v757.002h115v-256l-21 37c14 6.66699 32.167 14.667 54.5 24s46.166 17.833 71.499 25.5s50 11.5 74 11.5c40 0 70.833 -8.83301 92.5 -26.5s36.834 -42.334 45.501 -74.001s13 -69.167 13 -112.5v-386h-115v358c0 32 -1.33301 57.333 -4 76
s-7.33398 32.667 -14.001 42c-5.33301 7.33301 -12.333 12.166 -21 14.499s-18.667 3.5 -30 3.5c-13.333 0 -28.333 -2 -45 -6s-33.167 -8.66699 -49.5 -14s-30.666 -10.5 -42.999 -15.5s-20.5 -8.83301 -24.5 -11.5l17 25l-1 -472h-115z" />
    <glyph glyph-name="i" unicode="i" horiz-adv-x="302" 
d="M93 0v585h116v-585h-116zM87 675v96h129v-96h-129z" />
    <glyph glyph-name="j" unicode="j" horiz-adv-x="325" 
d="M55 -180c-10.667 0 -22.4971 0.667969 -35.4971 2.00098s-23.833 2.66602 -32.5 3.99902l-13 2l12 97l11 -1.5c7.33301 -1 16.666 -2 27.999 -3s22 -1.5 32 -1.5c16 0 28 3 36 9s13.333 18.833 16 38.5s4 50.5 4 92.5v526h115v-525c0 -60 -7.83301 -107.5 -23.5 -142.5
s-36.834 -60 -63.501 -75s-55.334 -22.5 -86.001 -22.5zM108.003 675.001v96h130v-96h-130z" />
    <glyph glyph-name="k" unicode="k" horiz-adv-x="557" 
d="M431 0l-234 314l215 271h143l-234 -265v-5l255 -315h-145zM83 0l4 321l-4 436h115v-757h-115z" />
    <glyph glyph-name="l" unicode="l" horiz-adv-x="299" 
d="M92 0v757h115v-757h-115z" />
    <glyph glyph-name="m" unicode="m" horiz-adv-x="935" 
d="M91 0l0.00195312 585.003h75l14 -58h4c8.66699 5.33301 20.334 11.833 35.001 19.5s31 15.667 49 24s37 15.166 57 20.499s40 8 60 8c30.667 0 56.5 -6.83301 77.5 -20.5s36.5 -32.167 46.5 -55.5c27.333 17.333 57.833 34.333 91.5 51s70.167 25 109.5 25
c38.667 0 68.5 -9.16699 89.5 -27.5s35.667 -43.5 44 -75.5s12.5 -69.333 12.5 -112v-384h-116v356c0 30 -0.666992 54.833 -2 74.5s-5.33301 34.5 -12 44.5c-6 8 -13.833 13.167 -23.5 15.5s-18.5 3.5 -26.5 3.5c-14 0 -28.667 -1.83301 -44 -5.5
s-29.833 -8.33398 -43.5 -14.001s-25.834 -11.334 -36.501 -17.001s-18.667 -10.167 -24 -13.5c1.33301 -10 2.16602 -20.167 2.49902 -30.5s0.5 -20.833 0.5 -31.5v-382h-115v358c0 33.333 -0.833008 58.833 -2.5 76.5s-5.83398 31.5 -12.501 41.5
c-6 7.33301 -13.333 12.166 -22 14.499s-17.334 3.5 -26.001 3.5c-18 0 -36.333 -2.83301 -55 -8.5s-36.167 -12.167 -52.5 -19.5s-29.166 -13.666 -38.499 -18.999v-447h-116z" />
    <glyph glyph-name="n" unicode="n" horiz-adv-x="615" 
d="M91 0v585h75l14 -58h5l36 20c14.667 8 31.334 16 50.001 24s38.667 14.5 60 19.5s43 7.5 65 7.5c38.667 0 68.167 -9.33301 88.5 -28s34.166 -44 41.499 -76s11 -68 11 -108v-386h-116v357c0 34 -0.666992 59.833 -2 77.5s-5.33301 31.167 -12 40.5
c-4.66699 7.33301 -11.334 12.166 -20.001 14.499s-18 3.5 -28 3.5c-19.333 0 -39.166 -3 -59.499 -9s-38.833 -12.667 -55.5 -20s-29 -13.666 -37 -18.999v-445h-116z" />
    <glyph glyph-name="o" unicode="o" horiz-adv-x="592" 
d="M297 -13c-60 0 -107.167 12.333 -141.5 37s-58.833 59.834 -73.5 105.501s-22 100.167 -22 163.5c0 62.667 7.33301 116.667 22 162s39.167 80.5 73.5 105.5s81.5 37.5 141.5 37.5c59.333 0 106.166 -12.5 140.499 -37.5s58.666 -60.167 72.999 -105.5
s21.5 -99.666 21.5 -162.999c0 -62.667 -7.16699 -116.834 -21.5 -162.501s-38.666 -80.834 -72.999 -105.501s-81.166 -37 -140.499 -37zM297 80c22.667 0 41.5 2.83301 56.5 8.5s27 16 36 31s15.333 36.5 19 64.5s5.5 64.333 5.5 109c0 44 -1.83301 80 -5.5 108
s-10 49.5 -19 64.5s-21.167 25.333 -36.5 31s-34 8.5 -56 8.5c-22.667 0 -41.667 -2.83301 -57 -8.5s-27.5 -16 -36.5 -31s-15.667 -36.5 -20 -64.5s-6.5 -64 -6.5 -108c0 -44.667 2.16699 -81 6.5 -109s11 -49.5 20 -64.5s21.167 -25.333 36.5 -31s34.333 -8.5 57 -8.5z
" />
    <glyph glyph-name="p" unicode="p" horiz-adv-x="601" 
d="M80 -166l-0.000976562 750.998h75l15 -60h5c13.333 10 29 20.5 47 31.5s38 20.667 60 29s46 12.5 72 12.5c36.667 0 69.167 -10.167 97.5 -30.5s50.333 -52.166 66 -95.499s23.5 -99.666 23.5 -168.999c0 -64.667 -6.66699 -117.667 -20 -159s-31 -73.5 -53 -96.5
s-46.5 -39 -73.5 -48s-53.833 -13.5 -80.5 -13.5c-16 0 -32.333 0.833008 -49 2.5s-31.167 3.5 -43.5 5.5s-21.166 3.33301 -26.499 4v-164h-115zM320.999 83.998c11.333 0 22 0.832031 32 2.49902s18.667 5.83398 26 12.501c8 6 15.167 16.333 21.5 31s11.333 36.5 15 65.5
s5.5 68.167 5.5 117.5c0 38 -0.833008 68.167 -2.5 90.5s-4.33398 39.5 -8.00098 51.5s-8.16699 21 -13.5 27c-4 4.66699 -9.83301 8.83398 -17.5 12.501s-19.167 5.5 -34.5 5.5c-20 0 -40.667 -3.33301 -62 -10s-40 -14 -56 -22s-26.667 -14 -32 -18v-348
c8 -2.66699 24.333 -6.33398 49 -11.001s50.334 -7 77.001 -7z" />
    <glyph glyph-name="q" unicode="q" horiz-adv-x="598" 
d="M400 -166v182.003c-6 -3.33301 -15.333 -7.33301 -28 -12s-27.834 -8.66699 -45.501 -12s-37.5 -5 -59.5 -5c-25.333 0 -50.166 4.66699 -74.499 14s-46.5 25.5 -66.5 48.5s-36 55.167 -48 96.5s-18 93.666 -18 156.999c0 74 8.66699 132.5 26 175.5s43 73.667 77 92
s75.667 27.5 125 27.5c26 0 52.333 -1.83301 79 -5.5s51.167 -7.83398 73.5 -12.501s40.333 -8.83398 54 -12.501l20.5 -5.5v-728h-115zM269 84.0029c34 0 62.502 3.33301 85.502 10s38.167 11.667 45.5 15v376c-4 1.33301 -11.333 3.16602 -22 5.49902
s-24.334 4.5 -41.001 6.5s-36.334 3 -59.001 3c-21.333 0 -36.833 -1.66699 -46.5 -5s-17.5 -8 -23.5 -14c-8.66699 -9.33301 -15.667 -27 -21 -53s-8 -68 -8 -126c0 -60.667 3 -106.667 9 -138s14.333 -52.666 25 -63.999c6 -5.33301 13 -9.33301 21 -12s19.667 -4 35 -4z
" />
    <glyph glyph-name="r" unicode="r" horiz-adv-x="411" 
d="M91 0l-0.000976562 585.002h72l16 -61h6l15 11.5c10 7.66699 23.167 16.167 39.5 25.5s33.833 17.833 52.5 25.5s36.667 11.5 54 11.5c16 0 28.667 -1.33301 38 -4l14 -4l-9 -104l-15 1c-10 0.666992 -20 1 -30 1c-18 0 -35.833 -2.33301 -53.5 -7
s-33.667 -10.334 -48 -17.001s-26.166 -13.334 -35.499 -20.001v-444h-116z" />
    <glyph glyph-name="s" unicode="s" horiz-adv-x="512" 
d="M262 -13c-27.333 0 -53.6689 2.66602 -79.002 7.99902s-48.166 11.5 -68.499 18.5s-36.333 13.167 -48 18.5l-17.5 8l29 93l17.5 -7c11.667 -4.66699 27.334 -10.5 47.001 -17.5s41 -13 64 -18s45.5 -7.5 67.5 -7.5c12.667 0 23.667 1.16699 33 3.5
s16.666 5.83301 21.999 10.5c6.66699 5.33301 12.334 13.333 17.001 24s7 23 7 37c0 22.667 -6.16699 40.167 -18.5 52.5s-28.333 22 -48 29s-41.167 13.5 -64.5 19.5c-20 6 -40 12.667 -60 20s-38.333 17 -55 29s-30 27.833 -40 47.5s-15 45.167 -15 76.5
c0 50 16 90.167 48 120.5s84.333 45.5 157 45.5c26 0 51 -1.83301 75 -5.5s45.333 -7.66699 64 -12s32.667 -8.16602 42 -11.499l-17 -92l-16 4c-10.667 2.66699 -24.667 5.5 -42 8.5s-36.5 5.83301 -57.5 8.5s-41.833 4 -62.5 4c-18.667 0 -32.667 -1 -42 -3
s-16.666 -5 -21.999 -9c-4 -3.33301 -7.66699 -8.83301 -11 -16.5s-5 -17.167 -5 -28.5c0 -21.333 6.66699 -38 20 -50s30.666 -21.333 51.999 -28l67 -21c20 -5.33301 39.5 -11.666 58.5 -18.999s36.5 -17 52.5 -29s28.667 -27.833 38 -47.5s14 -44.834 14 -75.501
c0 -56 -17.5 -101.333 -52.5 -136s-85.167 -52 -150.5 -52z" />
    <glyph glyph-name="t" unicode="t" horiz-adv-x="380" 
d="M255 -14c-31.333 0 -58.501 5.16504 -81.501 15.498s-40.667 29.833 -53 58.5s-18.5 71.334 -18.5 128.001v277h-67v72l72 14l22 138h89v-136h118v-90h-119v-280c0 -30.667 1.33301 -53 4 -67s7.66699 -22.833 15 -26.5s18.666 -5.5 33.999 -5.5
c10.667 0 20.834 0.333008 30.501 1s17.834 1.33398 24.501 2.00098l10 1v-94l-23 -4c-15.333 -2.66699 -34.333 -4 -57 -4z" />
    <glyph glyph-name="u" unicode="u" horiz-adv-x="614" 
d="M232 -13c-34.667 0 -63.498 7.83301 -86.498 23.5s-40 39.167 -51 70.5s-16.5 71 -16.5 119v385h116v-362c0 -32.667 1 -58.167 3 -76.5s5.33301 -31.166 10 -38.499c5.33301 -6 12.333 -10.333 21 -13s18.667 -4 30 -4c25.333 0 51.333 5.16699 78 15.5
s50.667 21.166 72 32.499v446h115v-585h-75l-14 58h-6l-51 -28c-20.667 -11.333 -43.334 -21.333 -68.001 -30s-50.334 -13 -77.001 -13z" />
    <glyph glyph-name="v" unicode="v" horiz-adv-x="506" 
d="M182 0l-170 585h121l117 -487h6l116 487h121l-169 -585h-142z" />
    <glyph glyph-name="w" unicode="w" horiz-adv-x="762" 
d="M138 0l-116 585h117l76 -498h5l87 419h151l87 -419h5l75 498h117l-115 -585h-155l-87 419h-6l-86 -419h-155z" />
    <glyph glyph-name="x" unicode="x" horiz-adv-x="532" 
d="M11 0l182 306l-176 279h124l119 -216h5l117 216h124l-175 -280l182 -305h-128l-121 236h-6l-119 -236h-128z" />
    <glyph glyph-name="y" unicode="y" horiz-adv-x="505" 
d="M116 -166l81 221l-191 530h121l121 -410h5l120 410h122l-200 -552l-58 -199h-121z" />
    <glyph glyph-name="z" unicode="z" horiz-adv-x="487" 
d="M24 0v84l290 407v5l-277 -6v95h415v-84l-289 -407v-6l295 7v-95h-434z" />
    <glyph glyph-name="braceleft" unicode="{" horiz-adv-x="438" 
d="M346 -124c-54.667 0 -98.001 16.3359 -130.001 49.0029s-48 85.667 -48 159v107c0 26.667 -3.33301 46.667 -10 60s-18.667 23.166 -36 29.499s-42.666 11.833 -75.999 16.5v87c32 4.66699 56.833 10 74.5 16s30 16 37 30s10.5 34.333 10.5 61v97
c0 48 7.33301 86.667 22 116s35.167 50.5 61.5 63.5s56.833 19.5 91.5 19.5c19.333 0 36 -0.666992 50 -2l21 -2l-6 -85l-14 0.5c-9.33301 0.333008 -19.5 0.833008 -30.5 1.5s-19.5 1 -25.5 1c-12.667 0 -23 -2.5 -31 -7.5s-13.833 -15.667 -17.5 -32
s-5.5 -41.5 -5.5 -75.5v-96c0 -26.667 -3.16699 -49 -9.5 -67s-14.333 -32.5 -24 -43.5s-19.667 -19.167 -30 -24.5s-19.5 -9.33301 -27.5 -12v-6c8 -2.66699 17 -6.83398 27 -12.501s20 -13.834 30 -24.501s18.167 -25.167 24.5 -43.5s9.5 -41.5 9.5 -69.5v-103
c0 -35.333 2 -61.833 6 -79.5s9.83301 -29.167 17.5 -34.5s17.5 -8 29.5 -8l71 4l6 -87z" />
    <glyph glyph-name="bar" unicode="|" horiz-adv-x="280" 
d="M93 -87v849h94v-849h-94z" />
    <glyph glyph-name="braceright" unicode="}" horiz-adv-x="438" 
d="M92 -122l-68.0029 0.995117l6 87l71 -3c12.667 0 22.834 2.5 30.501 7.5s13.334 16.333 17.001 34s5.5 44.167 5.5 79.5v103c0 28 3.16699 51.167 9.5 69.5s14.5 32.833 24.5 43.5s20 18.834 30 24.501s19 9.83398 27 12.501v6c-8 2.66699 -17.167 6.66699 -27.5 12
s-20.333 13.5 -30 24.5s-17.667 25.5 -24 43.5s-9.5 40.333 -9.5 67v96c0 34 -1.66699 59.167 -5 75.5s-9.16602 27 -17.499 32s-18.833 7.5 -31.5 7.5c-5.33301 0 -13.666 -0.333008 -24.999 -1s-21.666 -1.16699 -30.999 -1.5l-14 -0.5l-6 85l21.5 2
c14.333 1.33301 30.833 2 49.5 2c34.667 0 65.167 -6.5 91.5 -19.5s46.833 -34.167 61.5 -63.5s22 -68 22 -116v-97c0 -26.667 3.5 -47 10.5 -61s19.333 -24 37 -30s42.5 -11.333 74.5 -16v-87c-32.667 -4.66699 -57.834 -10.167 -75.501 -16.5
s-29.834 -16.166 -36.501 -29.499s-10 -33.333 -10 -60v-107c0 -73.333 -15.667 -126.166 -47 -158.499s-75 -48.166 -131 -47.499z" />
    <glyph glyph-name="asciitilde" unicode="~" horiz-adv-x="591" 
d="M419 204c-15.333 0 -34 3.49902 -56 10.499s-45 15.333 -69 25s-47.333 18 -70 25s-42.334 10.5 -59.001 10.5c-8.66699 0 -18.334 -2 -29.001 -6s-20.5 -8.66699 -29.5 -14s-16.167 -10 -21.5 -14l-38 61l29 28c12 11.333 26.167 21.166 42.5 29.499
s33.833 12.5 52.5 12.5s39.334 -3.5 62.001 -10.5s45.5 -15.167 68.5 -24.5s45.333 -17.666 67 -24.999s40.834 -11 57.501 -11c12 0 25.333 3.16699 40 9.5s27.334 12.5 38.001 18.5l35 -60c-5.33301 -7.33301 -13.833 -16.166 -25.5 -26.499s-25.334 -19.333 -41.001 -27
s-33.5 -11.5 -53.5 -11.5z" />
    <glyph glyph-name="nbspace" unicode="&#xa0;" horiz-adv-x="247" 
 />
    <glyph glyph-name="exclamdown" unicode="&#xa1;" horiz-adv-x="278" 
d="M77 -113l15 502h97l15 -502h-127zM70 475v110h138v-110h-138z" />
    <glyph glyph-name="cent" unicode="&#xa2;" horiz-adv-x="529" 
d="M261 -117v108c-60.667 8 -109.334 36.167 -146.001 84.5s-55 121.166 -55 218.499c0 68 8.83301 122.5 26.5 163.5s41.667 72.167 72 93.5s64.5 35 102.5 41v102h96v-97c26 -0.666992 49.833 -3 71.5 -7s40.167 -7.66699 55.5 -11l-13 -91l-67.5 8.5
c-29 3.66699 -59.167 5.5 -90.5 5.5c-23.333 0 -42.333 -2 -57 -6s-26 -10 -34 -18c-12 -12 -22 -34.5 -30 -67.5s-12 -73.833 -12 -122.5c0 -42 3.16699 -76 9.5 -102s14 -45.833 23 -59.5s17.167 -23.167 24.5 -28.5c4.66699 -4 11.334 -7.66699 20.001 -11
s20.667 -5 36 -5c17.333 0 36 2.33301 56 7s38.833 10.167 56.5 16.5s32 11.833 43 16.5l16.5 7l33 -85l-17.5 -11c-11.667 -7.33301 -28 -15.166 -49 -23.499s-45.833 -14.5 -74.5 -18.5v-108h-96z" />
    <glyph glyph-name="sterling" unicode="&#xa3;" horiz-adv-x="576" 
d="M62 0l0.000976562 100.001h90v237h-90v88h90c2 56 9.66699 102.667 23 140s31 66.666 53 87.999s47.167 36.5 75.5 45.5s58.5 13.5 90.5 13.5c23.333 0 47.666 -2 72.999 -6s47 -8.66699 65 -14l-12 -94c-22 3.33301 -44.833 6.5 -68.5 9.5s-46.5 4.5 -68.5 4.5
c-20.667 0 -37.167 -1.5 -49.5 -4.5s-21.833 -8.5 -28.5 -16.5c-9.33301 -10 -17.333 -28.833 -24 -56.5s-10.667 -64.167 -12 -109.5h182v-88h-183v-236l248 2v-103h-454z" />
    <glyph glyph-name="currency" unicode="&#xa4;" horiz-adv-x="651" 
d="M130 88l-65 67l59 59c-11.333 17.333 -20.5 37.333 -27.5 60s-10.5 48.334 -10.5 77.001s3.66699 54.167 11 76.5s16.666 42.166 27.999 59.499l-58 59l66 67l60 -60c42.667 26.667 88 40 136 40c23.333 0 46.5 -3.33301 69.5 -10s44.5 -16.334 64.5 -29.001l60 59
l67 -66l-59 -58c12 -17.333 21.833 -37.166 29.5 -59.499s11.5 -48.5 11.5 -78.5s-3.66699 -56.333 -11 -79s-16.666 -42.667 -27.999 -60l59 -58l-67 -66l-59 58c-43.333 -26.667 -89 -40 -137 -40c-48.667 0 -95 14 -139 42zM329 200c50 0 86.501 11.667 109.501 35
s34.5 61.666 34.5 114.999s-13.333 91.5 -40 114.5s-61.334 34.5 -104.001 34.5c-42 0 -76.667 -11.5 -104 -34.5s-41 -61.167 -41 -114.5s13.667 -91.666 41 -114.999s62 -35 104 -35z" />
    <glyph glyph-name="yen" unicode="&#xa5;" horiz-adv-x="567" 
d="M47 277v81h131l-163 341h127l137 -341h6l137 341h127l-164 -341h132v-81h-470zM223 0v138h-176v81h470v-81h-178l1 -138h-117z" />
    <glyph glyph-name="brokenbar" unicode="&#xa6;" horiz-adv-x="280" 
d="M93 403v359h94v-359h-94zM93 -87v356h94v-356h-94z" />
    <glyph glyph-name="section" unicode="&#xa7;" horiz-adv-x="549" 
d="M263 -93c-28.667 0 -56 2.6709 -82 8.00391s-49 11.666 -69 18.999s-35.833 13.666 -47.5 18.999l-17.5 8l31 96l19 -7.5c12.667 -5 29 -11 49 -18s41.5 -13 64.5 -18s45.167 -7.5 66.5 -7.5c28.667 0 47.667 3.33301 57 10c6.66699 4.66699 12.5 11.834 17.5 21.501
s7.5 22.167 7.5 37.5c0 17.333 -6.66699 31.333 -20 42s-30.166 19.667 -50.499 27s-42.5 14.666 -66.5 21.999c-28 8.66699 -55.167 19 -81.5 31s-48 28.167 -65 48.5s-25.5 47.166 -25.5 80.499c0 25.333 5.5 48.333 16.5 69s26.167 38.334 45.5 53.001
c-12.667 12.667 -22.834 27.334 -30.501 44.001s-11.5 36 -11.5 58c0 48.667 17.5 87.667 52.5 117s85.833 44 152.5 44c36.667 0 70.5 -3.33301 101.5 -10s52.167 -12 63.5 -16l-19 -96l-14.5 3.5c-9.66699 2.33301 -22.334 5.16602 -38.001 8.49902
s-33.167 6.33301 -52.5 9s-39.333 4 -60 4c-10.667 0 -21.5 -1 -32.5 -3s-19.5 -5.33301 -25.5 -10c-5.33301 -4 -9.5 -10.333 -12.5 -19s-4.5 -18 -4.5 -28c0 -18.667 7.66699 -33.834 23 -45.501s35 -21.334 59 -29.001l75 -23.5c26.667 -8.66699 52.667 -18.667 78 -30
s46 -26.333 62 -45s24 -44 24 -76c0 -28 -6.66699 -52.167 -20 -72.5s-28.666 -37.5 -45.999 -51.5c12.667 -13.333 21.5 -28.833 26.5 -46.5s7.5 -34.167 7.5 -49.5c0 -29.333 -5.66699 -55.166 -17 -77.499s-26.5 -40.833 -45.5 -55.5s-41 -25.834 -66 -33.501
s-51.167 -11.5 -78.5 -11.5zM357 230.004c8 8 15.665 17.835 22.998 29.502s11 22.5 11 32.5c0 18 -9.16699 31.667 -27.5 41s-40.833 18.666 -67.5 27.999c-25.333 9.33301 -46 16.666 -62 21.999s-30.333 10.666 -43 15.999c-8 -9.33301 -15.167 -19.833 -21.5 -31.5
s-9.5 -24.167 -9.5 -37.5c0 -10 3.83301 -18.833 11.5 -26.5s18.834 -14.667 33.501 -21s32.334 -13.166 53.001 -20.499l52 -16.5z" />
    <glyph glyph-name="dieresis" unicode="&#xa8;" horiz-adv-x="324" 
d="M0 677v94h121v-94h-121zM204 677v94h120v-94h-120z" />
    <glyph glyph-name="copyright" unicode="&#xa9;" horiz-adv-x="834" 
d="M416 -37c-52 0 -99.667 8.83398 -143 26.501s-80.833 42.5 -112.5 74.5s-56 69.833 -73 113.5s-25.5 91.5 -25.5 143.5s9 99.833 27 143.5s43.167 81.5 75.5 113.5s70 56.833 113 74.5s89.167 26.5 138.5 26.5c52 0 99.667 -8.83301 143 -26.5s81 -42.5 113 -74.5
s56.667 -69.833 74 -113.5s26 -91.5 26 -143.5s-8.66699 -99.833 -26 -143.5s-42 -81.334 -74 -113.001s-69.667 -56.5 -113 -74.5s-91 -27 -143 -27zM415 106.001c-32 0 -61.499 6.99805 -88.499 20.998s-48.333 36.333 -64 67s-23.5 71.667 -23.5 123
c0 46 4.83301 83.333 14.5 112s23.167 51 40.5 67s37.5 27 60.5 33s46.833 9 71.5 9c10 0 22 -0.833008 36 -2.5s27.667 -3.66699 41 -6s23 -5.16602 29 -8.49902l-10 -79c-4 0.666992 -12.5 1.66699 -25.5 3l-40 4c-13.667 1.33301 -23.5 2 -29.5 2
c-16.667 0 -29.5 -1.16699 -38.5 -3.5s-15.5 -5.83301 -19.5 -10.5c-7.33301 -7.33301 -13.333 -19.666 -18 -36.999s-7 -45 -7 -83c0 -32 2.83301 -57 8.5 -75s11.5 -30 17.5 -36c8 -8 20.667 -12 38 -12c18 0 36.167 2.16699 54.5 6.5s33.666 8.5 45.999 12.5l18.5 6
l21 -78l-16.5 -9c-11 -6 -26.333 -11.833 -46 -17.5s-43.167 -8.5 -70.5 -8.5zM416.001 41.999c57.333 0 106.5 11.332 147.5 33.999s72.5 54.834 94.5 96.501s33 91.167 33 148.5s-11 106.833 -33 148.5s-53.5 73.834 -94.5 96.501s-90.167 34 -147.5 34
c-54 0 -101.5 -11.333 -142.5 -34s-73 -54.834 -96 -96.501s-34.5 -91.167 -34.5 -148.5c0 -86 24 -154 72 -204s115 -75 201 -75z" />
    <glyph glyph-name="ordfeminine" unicode="&#xaa;" horiz-adv-x="430" 
d="M151 289c-32.667 0 -59.332 10.833 -79.999 32.5s-31 55.834 -31 102.501c0 30.667 7 55.334 21 74.001s33.167 32 57.5 40s51.833 12 82.5 12h31.5h28.5h12c0 20.667 -1.5 36.667 -4.5 48s-9.33301 19.166 -19 23.499s-24.5 6.5 -44.5 6.5s-40.333 -2.5 -61 -7.5
s-37.834 -10.167 -51.501 -15.5l-20.5 -8l-22 75l15 5.5c10 3.66699 23 7.66699 39 12s33.167 8.33301 51.5 12s35.5 5.5 51.5 5.5c57.333 0 97.5 -13.333 120.5 -40s34.5 -63.334 34.5 -110.001v-259h-63l-14 38h-4l-20 -11.5c-13.333 -7.66699 -30 -15.5 -50 -23.5
s-40 -12 -60 -12zM177.002 369c14 0 28.333 2.33105 43 6.99805s27.167 9.33398 37.5 14.001l15.5 7v77l-17.5 1c-11.667 0.666992 -27.834 1 -48.501 1c-15.333 0 -27.833 -1 -37.5 -3s-16.5 -4.33301 -20.5 -7c-5.33301 -4 -9.66602 -9.66699 -12.999 -17
s-5 -16.666 -5 -27.999c0 -18.667 3.83301 -32 11.5 -40s19.167 -12 34.5 -12z" />
    <glyph glyph-name="guillemotleft" unicode="&#xab;" horiz-adv-x="516" 
d="M180 82l-150 255l150 255l86 -51l-123 -201v-6l123 -201zM402 83l-149 254l149 253l85 -51l-121 -199v-6l121 -199z" />
    <glyph glyph-name="logicalnot" unicode="&#xac;" horiz-adv-x="593" 
d="M457 118v125h-439v100h541v-225h-102z" />
    <glyph glyph-name="uni00AD" unicode="&#xad;" horiz-adv-x="343" 
d="M52 259v99h242v-99h-242z" />
    <glyph glyph-name="registered" unicode="&#xae;" horiz-adv-x="834" 
d="M416 -37c-52 0 -99.667 8.83398 -143 26.501s-80.833 42.5 -112.5 74.5s-56 69.833 -73 113.5s-25.5 91.5 -25.5 143.5s9 99.833 27 143.5s43.167 81.5 75.5 113.5s70 56.833 113 74.5s89.167 26.5 138.5 26.5c52 0 99.667 -8.83301 143 -26.5s81 -42.5 113 -74.5
s56.667 -69.833 74 -113.5s26 -91.5 26 -143.5s-8.66699 -99.833 -26 -143.5s-42 -81.334 -74 -113.001s-69.667 -56.5 -113 -74.5s-91 -27 -143 -27zM416 42.001c57.333 0 106.5 11.332 147.5 33.999s72.5 54.834 94.5 96.501s33 91.167 33 148.5s-11 106.833 -33 148.5
s-53.5 73.834 -94.5 96.501s-90.167 34 -147.5 34c-54 0 -101.5 -11.333 -142.5 -34s-73 -54.834 -96 -96.501s-34.5 -91.167 -34.5 -148.5c0 -86 24 -154 72 -204s115 -75 201 -75zM266 119l3 190.999l-2 213c7.33301 0.666992 19.666 1.66699 36.999 3
s36.833 2.5 58.5 3.5s41.834 1.5 60.501 1.5c46 0 82.667 -9.83301 110 -29.5s41 -53.834 41 -102.501c0 -37.333 -7.66699 -66.166 -23 -86.499s-33 -34.166 -53 -41.499v-3l80 -149h-106l-61 142l-52 1v-143h-93zM426 338.999c19.333 0 32.5 4.49902 39.5 13.499
s10.5 24.833 10.5 47.5c0 18.667 -3.16699 32.167 -9.5 40.5s-20.5 12.5 -42.5 12.5c-12.667 0 -26 -0.666992 -40 -2s-22 -2 -24 -2l-2 -107c10 -1.33301 21.5 -2.16602 34.5 -2.49902s24.167 -0.5 33.5 -0.5z" />
    <glyph glyph-name="macron" unicode="&#xaf;" horiz-adv-x="352" 
d="M0 680v79h353v-79h-353z" />
    <glyph glyph-name="degree" unicode="&#xb0;" horiz-adv-x="349" 
d="M175 399c-26 0 -51.333 5.33301 -76 16s-44.834 27.667 -60.501 51s-23.5 54.333 -23.5 93c0 39.333 7.83301 70.5 23.5 93.5s35.834 39.5 60.501 49.5s50 15 76 15s51.167 -5 75.5 -15s44.333 -26.5 60 -49.5s23.5 -54.167 23.5 -93.5
c0 -38.667 -7.83301 -69.667 -23.5 -93s-35.667 -40.333 -60 -51s-49.5 -16 -75.5 -16zM175 488c19.333 0 35.333 5.16699 48 15.5s19 28.833 19 55.5s-6.16699 44.834 -18.5 54.501s-28.5 14.5 -48.5 14.5s-36.167 -4.83301 -48.5 -14.5s-18.5 -27.834 -18.5 -54.501
s6.16699 -45.167 18.5 -55.5s28.5 -15.5 48.5 -15.5z" />
    <glyph glyph-name="plusminus" unicode="&#xb1;" horiz-adv-x="575" 
d="M237 169v158h-195v98h195v152h101v-152h195v-98h-195v-158h-101zM42 9v99h491v-99h-491z" />
    <glyph glyph-name="uni00B2" unicode="&#xb2;" horiz-adv-x="389" 
d="M59 298l-0.000976562 62l93 111c22 26.667 38.833 47.834 50.5 63.501s19.5 28.167 23.5 37.5s6 17.666 6 24.999c0 8.66699 -2.5 15.834 -7.5 21.501s-13.5 8.5 -25.5 8.5c-12.667 0 -26.167 -2 -40.5 -6s-28.166 -9.16699 -41.499 -15.5s-25.666 -12.5 -36.999 -18.5
l-34 74c8 5.33301 19.5 11.666 34.5 18.999s32.667 13.833 53 19.5s42.166 8.5 65.499 8.5c22.667 0 43.167 -4.33301 61.5 -13s33 -21 44 -37s16.5 -35.333 16.5 -58s-5 -44.167 -15 -64.5s-25.333 -42.833 -46 -67.5l-78 -92v-3l149 5v-80h-272z" />
    <glyph glyph-name="uni00B3" unicode="&#xb3;" horiz-adv-x="368" 
d="M180 290c-24.667 0 -47.8291 2.66211 -69.4961 7.99512s-39.334 10.5 -53.001 15.5l-20.5 7.5l23 74l11.5 -3.5c7.66699 -2.33301 17.667 -5.16602 30 -8.49902s25.333 -6.16602 39 -8.49902s26.167 -3.5 37.5 -3.5c16 0 27.167 3.83301 33.5 11.5s9.5 19.834 9.5 36.501
c0 19.333 -4.5 33 -13.5 41s-23.5 12 -43.5 12h-65v70c32.667 2.66699 57 5.33398 73 8.00098s26.5 7 31.5 13s7.5 14.667 7.5 26c0 14.667 -2.66699 24.667 -8 30c-3.33301 2.66699 -8.83301 4.83398 -16.5 6.50098s-18.834 2.5 -33.501 2.5
c-10.667 0 -22.834 -0.5 -36.501 -1.5s-30.167 -2.83301 -49.5 -5.5l-8 76c9.33301 2 20.5 3.83301 33.5 5.5s26 3 39 4s24.167 1.5 33.5 1.5c40 0 72.833 -8 98.5 -24s38.5 -44.333 38.5 -85c0 -20.667 -3.33301 -36.667 -10 -48s-14.167 -19.333 -22.5 -24
s-15.5 -8.33398 -21.5 -11.001v-4c8.66699 -2 18.167 -6.16699 28.5 -12.5s19.166 -16 26.499 -29s11 -30.5 11 -52.5c0 -24 -4.16699 -45.667 -12.5 -65s-22.333 -34.666 -42 -45.999s-46.167 -17 -79.5 -17z" />
    <glyph glyph-name="acute" unicode="&#xb4;" horiz-adv-x="264" 
d="M21 650l-21 64l233 87l31 -88z" />
    <glyph glyph-name="uni03BC" unicode="&#xb5;" horiz-adv-x="615" 
d="M78 -166l0.00292969 750.999h116v-352c0 -36 0.833008 -63.667 2.5 -83s5.16699 -33 10.5 -41c5.33301 -6 12.166 -10.667 20.499 -14s19.833 -5 34.5 -5c17.333 0 35.666 3 54.999 9s37.333 12.833 54 20.5s29 13.834 37 18.501v447h116v-585h-75l-15 58h-6
c-8.66699 -5.33301 -20.167 -12 -34.5 -20s-30 -15.833 -47 -23.5s-34.5 -14.167 -52.5 -19.5s-35.333 -8 -52 -8c-13.333 0 -25.333 1.33301 -36 4s-19.334 5.66699 -26.001 9l-4 -3l10 -163h-108z" />
    <glyph glyph-name="paragraph" unicode="&#xb6;" horiz-adv-x="693" 
d="M261 -159l-0.00195312 343.001c-45.333 1.33301 -84.666 10.166 -117.999 26.499s-59 43 -77 80s-27 87.5 -27 151.5c0 66 9.5 117.5 28.5 154.5s46.333 63.333 82 79s77.834 23.5 126.501 23.5h329v-858h-116v757h-113v-757h-115z" />
    <glyph glyph-name="periodcentered" unicode="&#xb7;" horiz-adv-x="324" 
d="M164 254c-12.667 0 -24.8369 2.5 -36.5039 7.5s-21.334 13.167 -29.001 24.5s-11.5 26.333 -11.5 45c0 20 3.83301 35.333 11.5 46s17.334 18.334 29.001 23.001s23.834 7 36.501 7s24.834 -2.33301 36.501 -7s21.334 -12.334 29.001 -23.001s11.5 -26 11.5 -46
c0 -18.667 -3.83301 -33.667 -11.5 -45s-17.167 -19.5 -28.5 -24.5s-23.666 -7.5 -36.999 -7.5z" />
    <glyph glyph-name="cedilla" unicode="&#xb8;" horiz-adv-x="194" 
d="M79 -179c-20 0 -38.168 1.5 -54.501 4.5l-24.5 4.5v73l12 -1l28.5 -2.5s20.5 -1.5 28.5 -1.5c18 0 30.833 1.83301 38.5 5.5s11.5 12.167 11.5 25.5c0 16 -1.66699 32.333 -5 49s-5.66602 28 -6.99902 34l66 12c2 -4 4.5 -11 7.5 -21s6 -21.833 9 -35.5
s4.5 -27.5 4.5 -41.5c0 -32 -10.5 -57.5 -31.5 -76.5s-48.833 -28.5 -83.5 -28.5z" />
    <glyph glyph-name="uni00B9" unicode="&#xb9;" horiz-adv-x="387" 
d="M64 298v80h101v233h-4l-81 -64l-46 64l140 96l82 -6v-323h86v-80h-278z" />
    <glyph glyph-name="ordmasculine" unicode="&#xba;" horiz-adv-x="366" 
d="M183 289c-42.667 0 -76.334 8.50293 -101.001 25.5029s-42.334 41.167 -53.001 72.5s-16 68.333 -16 111c0 43.333 5.33301 80.666 16 111.999s28.334 55.333 53.001 72s58.334 25 101.001 25c43.333 0 77.5 -8.33301 102.5 -25s42.5 -40.834 52.5 -72.501
s15 -68.834 15 -111.501s-5 -79.667 -15 -111s-27.5 -55.5 -52.5 -72.5s-59.167 -25.5 -102.5 -25.5zM183 371.003c18 0 32.5 3.16699 43.5 9.5s19.167 18.666 24.5 36.999s8 45.166 8 80.499c0 36 -2.66699 63.167 -8 81.5s-13.5 30.666 -24.5 36.999s-25.5 9.5 -43.5 9.5
s-32.333 -3.16699 -43 -9.5s-18.5 -18.666 -23.5 -36.999s-7.5 -45.5 -7.5 -81.5c0 -35.333 2.5 -62.166 7.5 -80.499s12.833 -30.666 23.5 -36.999s25 -9.5 43 -9.5z" />
    <glyph glyph-name="guillemotright" unicode="&#xbb;" horiz-adv-x="516" 
d="M115 83l-86 52l122 199v6l-122 199l86 51l149 -253zM336 82l-85 51l122 201v6l-122 201l85 51l150 -255z" />
    <glyph glyph-name="onequarter" unicode="&#xbc;" horiz-adv-x="949" 
d="M258 -9l205 402l157 340h106l-191 -386l-171 -356h-106zM64 298v80h101v233h-4l-81 -64l-46 64l140 96l82 -6v-323h86v-80h-278zM768 0l2 79h-187v67l100 272l82 -9l-94 -250v-3l99 2l13 147h74v-147l40 1v-80h-40v-79h-89z" />
    <glyph glyph-name="onehalf" unicode="&#xbd;" horiz-adv-x="963" 
d="M259 -9l205 402l157 340h106l-191 -386l-171 -356h-106zM64 298v80h101v233h-4l-81 -64l-46 64l140 96l82 -6v-323h86v-80h-278zM629 0l-0.000976562 63.0029l10 11.5l26.5 29.5l33.5 38l32 37c16 19.333 29.333 36.166 40 50.499s18.834 27.166 24.501 38.499
s8.5 21.666 8.5 30.999c0 8.66699 -2.5 15.834 -7.5 21.501s-13.167 8.5 -24.5 8.5c-12.667 0 -26.334 -2 -41.001 -6s-28.667 -9.16699 -42 -15.5s-25.666 -12.5 -36.999 -18.5l-34 74c8 5.33301 19.667 11.666 35 18.999s33 13.833 53 19.5s40.667 8.5 62 8.5
c23.333 0 44.5 -4.33301 63.5 -13s34 -21 45 -37s16.5 -35.333 16.5 -58c0 -23.333 -7 -47.333 -21 -72s-29.333 -47.334 -46 -68.001c-5.33301 -7.33301 -12 -15.666 -20 -24.999l-23.5 -27l-19.5 -22l-8 -9v-3l148 4v-80h-274z" />
    <glyph glyph-name="threequarters" unicode="&#xbe;" horiz-adv-x="900" 
d="M215 -9l205 402l157 340h106l-191 -386l-171 -356h-106zM179 290c-24 0 -46.999 2.66113 -68.999 7.99414s-39.667 10.5 -53 15.5l-20 7.5l22 74l11.5 -3.5c7.66699 -2.33301 17.667 -5.16602 30 -8.49902s25.333 -6.16602 39 -8.49902s26.5 -3.5 38.5 -3.5
c15.333 0 26.166 3.83301 32.499 11.5s9.5 19.834 9.5 36.501c0 19.333 -4.5 33 -13.5 41s-23.5 12 -43.5 12h-64v70c32 2.66699 56 5.33398 72 8.00098s26.5 7 31.5 13s7.5 14.667 7.5 26c0 14.667 -2.66699 24.667 -8 30c-2.66699 2.66699 -8 4.83398 -16 6.50098
s-19.333 2.5 -34 2.5c-10.667 0 -22.834 -0.5 -36.501 -1.5s-30.167 -2.83301 -49.5 -5.5l-8 76c9.33301 2 20.5 3.83301 33.5 5.5s26.167 3 39.5 4s24.666 1.5 33.999 1.5c39.333 0 71.833 -8 97.5 -24s38.5 -44.333 38.5 -85c0 -20.667 -3.33301 -36.667 -10 -48
s-14.167 -19.5 -22.5 -24.5s-15.5 -8.83301 -21.5 -11.5v-4c8.66699 -2 18.334 -6.16699 29.001 -12.5s19.5 -15.833 26.5 -28.5s10.5 -30 10.5 -52c0 -24 -4.16699 -45.667 -12.5 -65s-22.166 -34.666 -41.499 -45.999s-46 -17 -80 -17zM721.001 -0.00585938l1 79h-187v67
l101 272l81 -9l-93 -250v-3l99 2l12 147h74v-147l40 1v-80h-40v-79h-88z" />
    <glyph glyph-name="questiondown" unicode="&#xbf;" horiz-adv-x="477" 
d="M340 388l0.00195312 -13.998c0 -34.667 -5.5 -63.5 -16.5 -86.5s-25 -42.167 -42 -57.5s-34.5 -29.666 -52.5 -42.999c-14.667 -10.667 -28.834 -21.834 -42.501 -33.501s-24.667 -25.167 -33 -40.5s-12.5 -33.666 -12.5 -54.999c0 -19.333 3.33301 -34 10 -44
s14 -18 22 -24c3.33301 -2.66699 9.5 -5.33398 18.5 -8.00098s22.167 -4 39.5 -4c33.333 0 66.166 5.16699 98.499 15.5s61.833 21.166 88.5 32.499l38 -90l-47.5 -24c-20.333 -10 -44.333 -19 -72 -27s-60.167 -12 -97.5 -12c-42.667 0 -80.5 8.16699 -113.5 24.5
s-58.667 38.833 -77 67.5s-27.5 61 -27.5 97c0 34.667 6.16699 63.667 18.5 87s28 43.333 47 60s38.5 32 58.5 46c16 11.333 30.667 22.666 44 33.999s24.5 25 33.5 41s13.833 35.333 14.5 58h103zM357.002 585.002v-110h-139v110h139z" />
    <glyph glyph-name="Agrave" unicode="&#xc0;" horiz-adv-x="536" 
d="M-2 0l191 699h156l191 -699h-120l-54 215l63 -44h-315l61 44l-53 -215h-120zM171 219l-39 53h270l-39 -53l-105 424l64 -51h-110l64 51zM394 741l-268 55l24 89l261 -78z" />
    <glyph glyph-name="Aacute" unicode="&#xc1;" horiz-adv-x="536" 
d="M-2 0l191 699h156l191 -699h-120l-54 215l63 -44h-315l61 44l-53 -215h-120zM171 219l-39 53h270l-39 -53l-105 424l64 -51h-110l64 51zM157 741l-19 65l256 80l28 -90z" />
    <glyph glyph-name="Acircumflex" unicode="&#xc2;" horiz-adv-x="536" 
d="M-2 0l191 699h156l191 -699h-120l-54 215l63 -44h-315l61 44l-53 -215h-120zM171 219l-39 53h270l-39 -53l-105 424l64 -51h-110l64 51zM125 736l-30 49l142 97h61l141 -97l-30 -49l-138 60h-7z" />
    <glyph glyph-name="Atilde" unicode="&#xc3;" horiz-adv-x="536" 
d="M-2 0l191 699h156l191 -699h-120l-54 215l63 -44h-315l61 44l-53 -215h-120zM171 219l-39 53h270l-39 -53l-105 424l64 -51h-110l64 51zM377 748c-12.667 0 -28.8301 2.33398 -48.4971 7.00098s-40.167 10 -61.5 16l-56.5 16c-16.333 4.66699 -27.166 7 -32.499 7
c-4.66699 0 -9.33398 -3.5 -14.001 -10.5s-8.33398 -14 -11.001 -21l-4 -10.5l-63 8c0.666992 41.333 8.5 70.333 23.5 87s35.167 25 60.5 25c13.333 0 29.666 -2.33301 48.999 -7s39.5 -9.83398 60.5 -15.501l56 -15.5c16.333 -4.66699 27.166 -7 32.499 -7s10 3.5 14 10.5
s7.5 14 10.5 21l4.5 10.5l62 -9c0 -40.667 -7.33301 -69.5 -22 -86.5s-34.667 -25.5 -60 -25.5z" />
    <glyph glyph-name="Adieresis" unicode="&#xc4;" horiz-adv-x="536" 
d="M-2 0l191 699h156l191 -699h-120l-54 215l63 -44h-315l61 44l-53 -215h-120zM171 219l-39 53h270l-39 -53l-105 424l64 -51h-110l64 51zM103 762v94h121v-94h-121zM307 762v94h120v-94h-120z" />
    <glyph glyph-name="Aring" unicode="&#xc5;" horiz-adv-x="536" 
d="M-2 0l191 699h156l191 -699h-120l-54 215l63 -44h-315l61 44l-53 -215h-120zM171 219l-39 53h270l-39 -53l-105 424l64 -51h-110l64 51zM269 727c-16 0 -31.166 2.66895 -45.499 8.00195s-26.166 14.333 -35.499 27s-14 30 -14 52c0 23.333 4.66699 41.333 14 54
s21.166 21.667 35.499 27s29.5 8 45.5 8c15.333 0 30.166 -2.66699 44.499 -8s26 -14.333 35 -27s13.5 -30.334 13.5 -53.001s-4.66699 -40.334 -14 -53.001s-21 -21.667 -35 -27s-28.667 -8 -44 -8zM268.001 781.002c12.667 0 21.667 2.33301 27 7s8 13.334 8 26.001
c0 14 -2.66699 23.167 -8 27.5s-14.333 6.5 -27 6.5c-12 0 -21 -2.16699 -27 -6.5s-9 -13.5 -9 -27.5c0 -12.667 3 -21.334 9 -26.001s15 -7 27 -7z" />
    <glyph glyph-name="AE" unicode="&#xc6;" horiz-adv-x="803" 
d="M-9 0l307 699h447v-103l-262 3l-4 -195h241v-99h-241l4 -205l262 2v-102h-378v171h-182l-74 -171h-120zM215 270h152v322h-18z" />
    <glyph glyph-name="Ccedilla" unicode="&#xc7;" horiz-adv-x="599" 
d="M290 -179c-20 0 -38.168 1.5 -54.501 4.5l-24.5 4.5v73l12 -1l28.5 -2.5s20.5 -1.5 28.5 -1.5c18 0 30.833 1.83301 38.5 5.5s11.5 12.167 11.5 25.5c0 16 -1.66699 32.333 -5 49s-5.66602 28 -6.99902 34l66 12c2 -4 4.5 -11 7.5 -21s6 -21.833 9 -35.5
s4.5 -27.5 4.5 -41.5c0 -32 -10.5 -57.5 -31.5 -76.5s-48.833 -28.5 -83.5 -28.5zM323.999 -14c-51.333 0 -96.668 11.6699 -136.001 35.0029s-70.166 61.166 -92.499 113.499s-33.5 121.5 -33.5 207.5c0 76.667 7 139.167 21 187.5s33.5 85.833 58.5 112.5s54.333 45 88 55
s70.167 15 109.5 15c16.667 0 36.667 -1 60 -3s46.5 -4.5 69.5 -7.5s41.167 -6.16699 54.5 -9.5l-13 -97c-6.66699 0.666992 -17.5 1.66699 -32.5 3l-48.5 4.5c-17.333 1.66699 -33.833 3 -49.5 4s-27.5 1.5 -35.5 1.5c-30 0 -54 -1.5 -72 -4.5s-31 -9.16699 -39 -18.5
c-8.66699 -8.66699 -16.667 -22.334 -24 -41.001s-13.333 -44.5 -18 -77.5s-7 -75.5 -7 -127.5c0 -65.333 6.16699 -117.166 18.5 -155.499s24.833 -63.166 37.5 -74.499c8.66699 -7.33301 19.167 -12.833 31.5 -16.5s26.833 -5.5 43.5 -5.5c24 0 47.833 2.66699 71.5 8
s45.167 11.666 64.5 18.999s34.833 13.666 46.5 18.999l17.5 8l37 -90l-17 -9.5c-11.333 -6.33301 -27 -13.833 -47 -22.5s-44 -16.334 -72 -23.001s-58.667 -10 -92 -10z" />
    <glyph glyph-name="Egrave" unicode="&#xc8;" horiz-adv-x="531" 
d="M95 0v699h378v-101l-313 3l53 52l-7 -294l-51 45h293v-98h-293l51 47l7 -306l-53 52l313 2v-101h-378zM412 741l-268 55l24 89l261 -78z" />
    <glyph glyph-name="Eacute" unicode="&#xc9;" horiz-adv-x="531" 
d="M95 0v699h378v-101l-313 3l53 52l-7 -294l-51 45h293v-98h-293l51 47l7 -306l-53 52l313 2v-101h-378zM175 741l-19 65l256 80l28 -90z" />
    <glyph glyph-name="Ecircumflex" unicode="&#xca;" horiz-adv-x="531" 
d="M95 0v699h378v-101l-313 3l53 52l-7 -294l-51 45h293v-98h-293l51 47l7 -306l-53 52l313 2v-101h-378zM143 736l-30 49l142 97h61l141 -97l-30 -49l-138 60h-7z" />
    <glyph glyph-name="Edieresis" unicode="&#xcb;" horiz-adv-x="531" 
d="M95 0v699h378v-101l-313 3l53 52l-7 -294l-51 45h293v-98h-293l51 47l7 -306l-53 52l313 2v-101h-378zM121 762v94h121v-94h-121zM325 762v94h120v-94h-120z" />
    <glyph glyph-name="Igrave" unicode="&#xcc;" horiz-adv-x="308" 
d="M247 743l-253 54l26 89l246 -78zM95 -1l4 322l-4 378h118l-4 -310l4 -389z" />
    <glyph glyph-name="Iacute" unicode="&#xcd;" horiz-adv-x="308" 
d="M60 742l-18 66l244 79l27 -90zM95 -1l4 322l-4 378h118l-4 -310l4 -389z" />
    <glyph glyph-name="Icircumflex" unicode="&#xce;" horiz-adv-x="308" 
d="M22 741l-29 51l130 92h61l130 -92l-29 -51l-128 57h-7zM95 -1l4 322l-4 378h118l-4 -310l4 -389z" />
    <glyph glyph-name="Idieresis" unicode="&#xcf;" horiz-adv-x="308" 
d="M1 764v94h119v-94h-119zM189 764v94h118v-94h-118zM95 -1l4 322l-4 378h118l-4 -310l4 -389z" />
    <glyph glyph-name="Eth" unicode="&#xd0;" horiz-adv-x="662" 
d="M42 312v89h296v-89h-296zM323 -14c-18 0 -38 0.498047 -60 1.49805s-43.833 2.33301 -65.5 4s-40.5 3.33398 -56.5 5.00098l-33 3.5v699c5.33301 0.666992 16.333 1.66699 33 3l58.5 4.5c22.333 1.66699 45.5 3 69.5 4s45.667 1.5 65 1.5
c55.333 0 100.5 -9.33301 135.5 -28s62 -44.5 81 -77.5s32 -70.833 39 -113.5s10.5 -87.667 10.5 -135c0 -92.667 -11.833 -166.167 -35.5 -220.5s-56.167 -93.166 -97.5 -116.499s-89.333 -35 -144 -35zM321 86.998c30 0 52.834 2.33105 68.501 6.99805
s27.167 10.334 34.5 17.001c8.66699 8.66699 17 22 25 40s14.333 44 19 78s7 78.667 7 134c0 56.667 -3.83301 105.667 -11.5 147s-19.834 69 -36.501 83c-6 4.66699 -15.5 8.83398 -28.5 12.501s-33.833 5.5 -62.5 5.5c-29.333 0 -54.333 -1 -75 -3s-38.667 -4 -54 -6
l17 55v-614l-19 55c16.667 -2 33.667 -4.33301 51 -7s39 -4 65 -4z" />
    <glyph glyph-name="Ntilde" unicode="&#xd1;" horiz-adv-x="696" 
d="M95 0v699h153l253 -558h4l-14 558h111v-699h-153l-252 558h-5l14 -558h-111zM457 748c-12.667 0 -28.8301 2.33398 -48.4971 7.00098s-40.167 10 -61.5 16l-56.5 16c-16.333 4.66699 -27.166 7 -32.499 7c-4.66699 0 -9.33398 -3.5 -14.001 -10.5
s-8.33398 -14 -11.001 -21l-4 -10.5l-63 8c0.666992 41.333 8.5 70.333 23.5 87s35.167 25 60.5 25c13.333 0 29.666 -2.33301 48.999 -7s39.5 -9.83398 60.5 -15.501l56 -15.5c16.333 -4.66699 27.166 -7 32.499 -7s10 3.5 14 10.5s7.5 14 10.5 21l4.5 10.5l62 -9
c0 -40.667 -7.33301 -69.5 -22 -86.5s-34.667 -25.5 -60 -25.5z" />
    <glyph glyph-name="Ograve" unicode="&#xd2;" horiz-adv-x="676" 
d="M338 -14c-37.333 0 -72.666 5.33301 -105.999 16s-62.833 29.334 -88.5 56.001s-45.667 63.667 -60 111s-21.5 108 -21.5 182c0 73.333 7.16699 133.5 21.5 180.5s34.333 83.667 60 110s55.167 44.666 88.5 54.999s68.666 15.5 105.999 15.5
c38 0 73.5 -5.16699 106.5 -15.5s62.333 -28.666 88 -54.999s45.667 -63 60 -110s21.5 -107.167 21.5 -180.5c0 -74 -7.16699 -134.667 -21.5 -182s-34.333 -84.333 -60 -111s-55 -45.334 -88 -56.001s-68.5 -16 -106.5 -16zM338 90c26.667 0 49.501 3 68.501 9
s34.833 18 47.5 36s22 44 28 78s9 79 9 135c0 56.667 -2.83301 102.167 -8.5 136.5s-14.667 60.5 -27 78.5s-28.333 30 -48 36s-42.834 9 -69.501 9c-27.333 0 -50.666 -3 -69.999 -9s-35.166 -18 -47.499 -36s-21.5 -44.167 -27.5 -78.5s-9 -79.833 -9 -136.5
c0 -56 3.16699 -101 9.5 -135s15.666 -60 27.999 -78s28.166 -30 47.499 -36s42.333 -9 69 -9zM464.001 741l-268 55l24 89l261 -78z" />
    <glyph glyph-name="Oacute" unicode="&#xd3;" horiz-adv-x="676" 
d="M338 -14c-37.333 0 -72.666 5.33301 -105.999 16s-62.833 29.334 -88.5 56.001s-45.667 63.667 -60 111s-21.5 108 -21.5 182c0 73.333 7.16699 133.5 21.5 180.5s34.333 83.667 60 110s55.167 44.666 88.5 54.999s68.666 15.5 105.999 15.5
c38 0 73.5 -5.16699 106.5 -15.5s62.333 -28.666 88 -54.999s45.667 -63 60 -110s21.5 -107.167 21.5 -180.5c0 -74 -7.16699 -134.667 -21.5 -182s-34.333 -84.333 -60 -111s-55 -45.334 -88 -56.001s-68.5 -16 -106.5 -16zM338 90c26.667 0 49.501 3 68.501 9
s34.833 18 47.5 36s22 44 28 78s9 79 9 135c0 56.667 -2.83301 102.167 -8.5 136.5s-14.667 60.5 -27 78.5s-28.333 30 -48 36s-42.834 9 -69.501 9c-27.333 0 -50.666 -3 -69.999 -9s-35.166 -18 -47.499 -36s-21.5 -44.167 -27.5 -78.5s-9 -79.833 -9 -136.5
c0 -56 3.16699 -101 9.5 -135s15.666 -60 27.999 -78s28.166 -30 47.499 -36s42.333 -9 69 -9zM227.001 741l-19 65l256 80l28 -90z" />
    <glyph glyph-name="Ocircumflex" unicode="&#xd4;" horiz-adv-x="676" 
d="M338 -14c-37.333 0 -72.666 5.33301 -105.999 16s-62.833 29.334 -88.5 56.001s-45.667 63.667 -60 111s-21.5 108 -21.5 182c0 73.333 7.16699 133.5 21.5 180.5s34.333 83.667 60 110s55.167 44.666 88.5 54.999s68.666 15.5 105.999 15.5
c38 0 73.5 -5.16699 106.5 -15.5s62.333 -28.666 88 -54.999s45.667 -63 60 -110s21.5 -107.167 21.5 -180.5c0 -74 -7.16699 -134.667 -21.5 -182s-34.333 -84.333 -60 -111s-55 -45.334 -88 -56.001s-68.5 -16 -106.5 -16zM338 90c26.667 0 49.501 3 68.501 9
s34.833 18 47.5 36s22 44 28 78s9 79 9 135c0 56.667 -2.83301 102.167 -8.5 136.5s-14.667 60.5 -27 78.5s-28.333 30 -48 36s-42.834 9 -69.501 9c-27.333 0 -50.666 -3 -69.999 -9s-35.166 -18 -47.499 -36s-21.5 -44.167 -27.5 -78.5s-9 -79.833 -9 -136.5
c0 -56 3.16699 -101 9.5 -135s15.666 -60 27.999 -78s28.166 -30 47.499 -36s42.333 -9 69 -9zM195.001 736l-30 49l142 97h61l141 -97l-30 -49l-138 60h-7z" />
    <glyph glyph-name="Otilde" unicode="&#xd5;" horiz-adv-x="676" 
d="M338 -14c-37.333 0 -72.666 5.33301 -105.999 16s-62.833 29.334 -88.5 56.001s-45.667 63.667 -60 111s-21.5 108 -21.5 182c0 73.333 7.16699 133.5 21.5 180.5s34.333 83.667 60 110s55.167 44.666 88.5 54.999s68.666 15.5 105.999 15.5
c38 0 73.5 -5.16699 106.5 -15.5s62.333 -28.666 88 -54.999s45.667 -63 60 -110s21.5 -107.167 21.5 -180.5c0 -74 -7.16699 -134.667 -21.5 -182s-34.333 -84.333 -60 -111s-55 -45.334 -88 -56.001s-68.5 -16 -106.5 -16zM338 90c26.667 0 49.501 3 68.501 9
s34.833 18 47.5 36s22 44 28 78s9 79 9 135c0 56.667 -2.83301 102.167 -8.5 136.5s-14.667 60.5 -27 78.5s-28.333 30 -48 36s-42.834 9 -69.501 9c-27.333 0 -50.666 -3 -69.999 -9s-35.166 -18 -47.499 -36s-21.5 -44.167 -27.5 -78.5s-9 -79.833 -9 -136.5
c0 -56 3.16699 -101 9.5 -135s15.666 -60 27.999 -78s28.166 -30 47.499 -36s42.333 -9 69 -9zM447.001 748c-12.667 0 -28.8301 2.33398 -48.4971 7.00098s-40.167 10 -61.5 16l-56.5 16c-16.333 4.66699 -27.166 7 -32.499 7c-4.66699 0 -9.33398 -3.5 -14.001 -10.5
s-8.33398 -14 -11.001 -21l-4 -10.5l-63 8c0.666992 41.333 8.5 70.333 23.5 87s35.167 25 60.5 25c13.333 0 29.666 -2.33301 48.999 -7s39.5 -9.83398 60.5 -15.501l56 -15.5c16.333 -4.66699 27.166 -7 32.499 -7s10 3.5 14 10.5s7.5 14 10.5 21l4.5 10.5l62 -9
c0 -40.667 -7.33301 -69.5 -22 -86.5s-34.667 -25.5 -60 -25.5z" />
    <glyph glyph-name="Odieresis" unicode="&#xd6;" horiz-adv-x="676" 
d="M338 -14c-37.333 0 -72.666 5.33301 -105.999 16s-62.833 29.334 -88.5 56.001s-45.667 63.667 -60 111s-21.5 108 -21.5 182c0 73.333 7.16699 133.5 21.5 180.5s34.333 83.667 60 110s55.167 44.666 88.5 54.999s68.666 15.5 105.999 15.5
c38 0 73.5 -5.16699 106.5 -15.5s62.333 -28.666 88 -54.999s45.667 -63 60 -110s21.5 -107.167 21.5 -180.5c0 -74 -7.16699 -134.667 -21.5 -182s-34.333 -84.333 -60 -111s-55 -45.334 -88 -56.001s-68.5 -16 -106.5 -16zM338 90c26.667 0 49.501 3 68.501 9
s34.833 18 47.5 36s22 44 28 78s9 79 9 135c0 56.667 -2.83301 102.167 -8.5 136.5s-14.667 60.5 -27 78.5s-28.333 30 -48 36s-42.834 9 -69.501 9c-27.333 0 -50.666 -3 -69.999 -9s-35.166 -18 -47.499 -36s-21.5 -44.167 -27.5 -78.5s-9 -79.833 -9 -136.5
c0 -56 3.16699 -101 9.5 -135s15.666 -60 27.999 -78s28.166 -30 47.499 -36s42.333 -9 69 -9zM173.001 762v94h121v-94h-121zM377.001 762v94h120v-94h-120z" />
    <glyph glyph-name="multiply" unicode="&#xd7;" horiz-adv-x="582" 
d="M115 48l-70 71l176 176l-176 175l70 70l175 -176l178 178l70 -71l-177 -177l175 -175l-70 -70l-175 175z" />
    <glyph glyph-name="Oslash" unicode="&#xd8;" horiz-adv-x="676" 
d="M106 -39l199 416l162 357h96l-182 -386l-178 -387h-97zM338 -14c-37.333 0 -72.666 5.33301 -105.999 16s-62.833 29.334 -88.5 56.001s-45.667 63.667 -60 111s-21.5 108 -21.5 182c0 73.333 7.16699 133.5 21.5 180.5s34.333 83.667 60 110s55.167 44.666 88.5 54.999
s68.666 15.5 105.999 15.5c38 0 73.5 -5.16699 106.5 -15.5s62.333 -28.666 88 -54.999s45.667 -63 60 -110s21.5 -107.167 21.5 -180.5c0 -74 -7.16699 -134.667 -21.5 -182s-34.333 -84.333 -60 -111s-55 -45.334 -88 -56.001s-68.5 -16 -106.5 -16zM338 90
c26.667 0 49.501 3 68.501 9s34.833 18 47.5 36s22 44 28 78s9 79 9 135c0 56.667 -2.83301 102.167 -8.5 136.5s-14.667 60.5 -27 78.5s-28.333 30 -48 36s-42.834 9 -69.501 9c-27.333 0 -50.666 -3 -69.999 -9s-35.166 -18 -47.499 -36s-21.5 -44.167 -27.5 -78.5
s-9 -79.833 -9 -136.5c0 -56 3.16699 -101 9.5 -135s15.666 -60 27.999 -78s28.166 -30 47.499 -36s42.333 -9 69 -9z" />
    <glyph glyph-name="Ugrave" unicode="&#xd9;" horiz-adv-x="679" 
d="M339 -14c-51.333 0 -95.333 9.33105 -132 27.998s-64.5 51.167 -83.5 97.5s-28.5 110.833 -28.5 193.5v394h117v-366c0 -54 2 -97.167 6 -129.5s10.5 -56.666 19.5 -72.999s21.833 -27.166 38.5 -32.499s38 -8 64 -8s47.333 2.83301 64 8.5s29.5 16.5 38.5 32.5
s15.333 40.167 19 72.5s5.5 75.5 5.5 129.5v366h117v-385c0 -86 -9.5 -152.667 -28.5 -200s-46.667 -80.5 -83 -99.5s-80.833 -28.5 -133.5 -28.5zM446 740.998l-268 55l24 89l261 -78z" />
    <glyph glyph-name="Uacute" unicode="&#xda;" horiz-adv-x="679" 
d="M339 -14c-51.333 0 -95.333 9.33105 -132 27.998s-64.5 51.167 -83.5 97.5s-28.5 110.833 -28.5 193.5v394h117v-366c0 -54 2 -97.167 6 -129.5s10.5 -56.666 19.5 -72.999s21.833 -27.166 38.5 -32.499s38 -8 64 -8s47.333 2.83301 64 8.5s29.5 16.5 38.5 32.5
s15.333 40.167 19 72.5s5.5 75.5 5.5 129.5v366h117v-385c0 -86 -9.5 -152.667 -28.5 -200s-46.667 -80.5 -83 -99.5s-80.833 -28.5 -133.5 -28.5zM245 740.998l-19 65l256 80l28 -90z" />
    <glyph glyph-name="Ucircumflex" unicode="&#xdb;" horiz-adv-x="679" 
d="M339 -14c-51.333 0 -95.333 9.33105 -132 27.998s-64.5 51.167 -83.5 97.5s-28.5 110.833 -28.5 193.5v394h117v-366c0 -54 2 -97.167 6 -129.5s10.5 -56.666 19.5 -72.999s21.833 -27.166 38.5 -32.499s38 -8 64 -8s47.333 2.83301 64 8.5s29.5 16.5 38.5 32.5
s15.333 40.167 19 72.5s5.5 75.5 5.5 129.5v366h117v-385c0 -86 -9.5 -152.667 -28.5 -200s-46.667 -80.5 -83 -99.5s-80.833 -28.5 -133.5 -28.5zM197 735.998l-30 49l142 97h61l141 -97l-30 -49l-138 60h-7z" />
    <glyph glyph-name="Udieresis" unicode="&#xdc;" horiz-adv-x="679" 
d="M339 -14c-51.333 0 -95.333 9.33105 -132 27.998s-64.5 51.167 -83.5 97.5s-28.5 110.833 -28.5 193.5v394h117v-366c0 -54 2 -97.167 6 -129.5s10.5 -56.666 19.5 -72.999s21.833 -27.166 38.5 -32.499s38 -8 64 -8s47.333 2.83301 64 8.5s29.5 16.5 38.5 32.5
s15.333 40.167 19 72.5s5.5 75.5 5.5 129.5v366h117v-385c0 -86 -9.5 -152.667 -28.5 -200s-46.667 -80.5 -83 -99.5s-80.833 -28.5 -133.5 -28.5zM173 761.998v94h121v-94h-121zM377 761.998v94h120v-94h-120z" />
    <glyph glyph-name="Yacute" unicode="&#xdd;" horiz-adv-x="539" 
d="M210 0l3 256l-206 443h126l133 -337h6l133 337h126l-206 -443l3 -256h-118zM189 741l-19 65l256 80l28 -90z" />
    <glyph glyph-name="Thorn" unicode="&#xde;" horiz-adv-x="611" 
d="M93 0l4 342.998l-4 356h117l-1 -88l68.5 4c23.667 1.33301 46.5 2 68.5 2c67.333 0 119.5 -20 156.5 -60s55.5 -99.667 55.5 -179c0 -50 -6.66699 -91 -20 -123s-31.333 -57.167 -54 -75.5s-47.834 -31.333 -75.501 -39s-56.5 -11.5 -86.5 -11.5
c-14 0 -28.667 0.333008 -44 1s-29.166 1.33398 -41.499 2.00098s-21.5 1.33398 -27.5 2.00098l1 -134h-117zM332 227.998c20 0 36.3311 1.33203 48.998 3.99902s22 7 28 13c10.667 9.33301 17.834 25.833 21.501 49.5s5.5 54.5 5.5 92.5c0 31.333 -1.66699 55.333 -5 72
s-7.16602 28.5 -11.499 35.5s-8.83301 11.833 -13.5 14.5c-6 4.66699 -16.167 8.33398 -30.5 11.001s-30.833 4 -49.5 4c-21.333 0 -42.833 -0.833008 -64.5 -2.5s-39.167 -3.5 -52.5 -5.5v-278c6 -1.33301 21 -3.33301 45 -6s50 -4 78 -4z" />
    <glyph glyph-name="germandbls" unicode="&#xdf;" horiz-adv-x="640" 
d="M360 -13c-19.333 0 -36.334 1.16602 -51.001 3.49902l-28 4.5l11 89c6.66699 -1.33301 15.334 -2.33301 26.001 -3s21.667 -1 33 -1c34.667 0 59.667 9 75 27s23 49 23 93c0 28 -3.83301 51 -11.5 69s-20.5 31.5 -38.5 40.5s-41.667 13.5 -71 13.5h-23v86
c42.667 4 72.5 14 89.5 30s25.5 42.333 25.5 79c0 26.667 -4.5 47.5 -13.5 62.5s-21.5 25.667 -37.5 32s-34 9.5 -54 9.5c-36 0 -62.167 -11 -78.5 -33s-24.5 -58 -24.5 -108v-481h-117v475c0 42 6 78 18 108s28.333 54.5 49 73.5s44.167 33 70.5 42s53.833 13.5 82.5 13.5
c28 0 55.167 -3.83301 81.5 -11.5s49.833 -19.334 70.5 -35.001s37 -35.334 49 -59.001s18 -51.5 18 -83.5c0 -29.333 -5.33301 -54.333 -16 -75s-23 -37 -37 -49s-26 -19.667 -36 -23v-4c13.333 -3.33301 27.5 -8.66602 42.5 -15.999s28.667 -17.666 41 -30.999
s22.5 -30.166 30.5 -50.499s12 -45.5 12 -75.5c0 -36 -5.5 -67.333 -16.5 -94s-26 -48.667 -45 -66s-41.333 -30.333 -67 -39s-53.167 -13 -82.5 -13z" />
    <glyph glyph-name="agrave" unicode="&#xe0;" horiz-adv-x="593" 
d="M216 -13c-31.333 0 -59.334 7.33105 -84.001 21.998s-44 36 -58 64s-21 62 -21 102c0 48 10.167 85.667 30.5 113s49 46.833 86 58.5s80.5 17.5 130.5 17.5h92c0 31.333 -1.16699 56.5 -3.5 75.5s-6.5 33.167 -12.5 42.5c-5.33301 6.66699 -12.833 11.667 -22.5 15
s-23.5 5 -41.5 5c-24.667 0 -49.667 -2.16699 -75 -6.5s-48.5 -9.66602 -69.5 -15.999s-38 -11.666 -51 -15.999l-19.5 -6.5l-30 86l19.5 8.5c13 5.66699 30.667 12 53 19s47.5 13.333 75.5 19s57.667 8.5 89 8.5c50.667 0 90.834 -8.83301 120.501 -26.5
s50.834 -42.667 63.501 -75s19 -70.5 19 -114.5v-382h-74l-15 63h-6l-24 -16.5c-12 -8.33301 -26.833 -17 -44.5 -26s-37.334 -16.833 -59.001 -23.5s-44.5 -10 -68.5 -10zM243.999 83.998c21.333 0 42.5 3.33203 63.5 9.99902s39.167 13.834 54.5 21.501
s25.333 13.167 30 16.5v138c-4.66699 0.666992 -15.5 1.83398 -32.5 3.50098s-38.833 2.5 -65.5 2.5c-54 0 -87.333 -5.66699 -100 -17c-6.66699 -6 -12 -15.833 -16 -29.5s-6 -30.834 -6 -51.501c0 -32.667 5.5 -56.5 16.5 -71.5s29.5 -22.5 55.5 -22.5zM393.999 649.997
l-244 63l28 88l236 -86z" />
    <glyph glyph-name="aacute" unicode="&#xe1;" horiz-adv-x="593" 
d="M216 -13c-31.333 0 -59.334 7.33105 -84.001 21.998s-44 36 -58 64s-21 62 -21 102c0 48 10.167 85.667 30.5 113s49 46.833 86 58.5s80.5 17.5 130.5 17.5h92c0 31.333 -1.16699 56.5 -3.5 75.5s-6.5 33.167 -12.5 42.5c-5.33301 6.66699 -12.833 11.667 -22.5 15
s-23.5 5 -41.5 5c-24.667 0 -49.667 -2.16699 -75 -6.5s-48.5 -9.66602 -69.5 -15.999s-38 -11.666 -51 -15.999l-19.5 -6.5l-30 86l19.5 8.5c13 5.66699 30.667 12 53 19s47.5 13.333 75.5 19s57.667 8.5 89 8.5c50.667 0 90.834 -8.83301 120.501 -26.5
s50.834 -42.667 63.501 -75s19 -70.5 19 -114.5v-382h-74l-15 63h-6l-24 -16.5c-12 -8.33301 -26.833 -17 -44.5 -26s-37.334 -16.833 -59.001 -23.5s-44.5 -10 -68.5 -10zM243.999 83.998c21.333 0 42.5 3.33203 63.5 9.99902s39.167 13.834 54.5 21.501
s25.333 13.167 30 16.5v138c-4.66699 0.666992 -15.5 1.83398 -32.5 3.50098s-38.833 2.5 -65.5 2.5c-54 0 -87.333 -5.66699 -100 -17c-6.66699 -6 -12 -15.833 -16 -29.5s-6 -30.834 -6 -51.501c0 -32.667 5.5 -56.5 16.5 -71.5s29.5 -22.5 55.5 -22.5zM184.999 649.997
l-21 64l233 87l31 -88z" />
    <glyph glyph-name="acircumflex" unicode="&#xe2;" horiz-adv-x="593" 
d="M216 -13c-31.333 0 -59.334 7.33105 -84.001 21.998s-44 36 -58 64s-21 62 -21 102c0 48 10.167 85.667 30.5 113s49 46.833 86 58.5s80.5 17.5 130.5 17.5h92c0 31.333 -1.16699 56.5 -3.5 75.5s-6.5 33.167 -12.5 42.5c-5.33301 6.66699 -12.833 11.667 -22.5 15
s-23.5 5 -41.5 5c-24.667 0 -49.667 -2.16699 -75 -6.5s-48.5 -9.66602 -69.5 -15.999s-38 -11.666 -51 -15.999l-19.5 -6.5l-30 86l19.5 8.5c13 5.66699 30.667 12 53 19s47.5 13.333 75.5 19s57.667 8.5 89 8.5c50.667 0 90.834 -8.83301 120.501 -26.5
s50.834 -42.667 63.501 -75s19 -70.5 19 -114.5v-382h-74l-15 63h-6l-24 -16.5c-12 -8.33301 -26.833 -17 -44.5 -26s-37.334 -16.833 -59.001 -23.5s-44.5 -10 -68.5 -10zM243.999 83.998c21.333 0 42.5 3.33203 63.5 9.99902s39.167 13.834 54.5 21.501
s25.333 13.167 30 16.5v138c-4.66699 0.666992 -15.5 1.83398 -32.5 3.50098s-38.833 2.5 -65.5 2.5c-54 0 -87.333 -5.66699 -100 -17c-6.66699 -6 -12 -15.833 -16 -29.5s-6 -30.834 -6 -51.501c0 -32.667 5.5 -56.5 16.5 -71.5s29.5 -22.5 55.5 -22.5zM150.999 648.997
l-31 46l142 107h61l141 -107l-30 -46l-138 68h-7z" />
    <glyph glyph-name="atilde" unicode="&#xe3;" horiz-adv-x="593" 
d="M216 -13c-31.333 0 -59.334 7.33105 -84.001 21.998s-44 36 -58 64s-21 62 -21 102c0 48 10.167 85.667 30.5 113s49 46.833 86 58.5s80.5 17.5 130.5 17.5h92c0 31.333 -1.16699 56.5 -3.5 75.5s-6.5 33.167 -12.5 42.5c-5.33301 6.66699 -12.833 11.667 -22.5 15
s-23.5 5 -41.5 5c-24.667 0 -49.667 -2.16699 -75 -6.5s-48.5 -9.66602 -69.5 -15.999s-38 -11.666 -51 -15.999l-19.5 -6.5l-30 86l19.5 8.5c13 5.66699 30.667 12 53 19s47.5 13.333 75.5 19s57.667 8.5 89 8.5c50.667 0 90.834 -8.83301 120.501 -26.5
s50.834 -42.667 63.501 -75s19 -70.5 19 -114.5v-382h-74l-15 63h-6l-24 -16.5c-12 -8.33301 -26.833 -17 -44.5 -26s-37.334 -16.833 -59.001 -23.5s-44.5 -10 -68.5 -10zM243.999 83.998c21.333 0 42.5 3.33203 63.5 9.99902s39.167 13.834 54.5 21.501
s25.333 13.167 30 16.5v138c-4.66699 0.666992 -15.5 1.83398 -32.5 3.50098s-38.833 2.5 -65.5 2.5c-54 0 -87.333 -5.66699 -100 -17c-6.66699 -6 -12 -15.833 -16 -29.5s-6 -30.834 -6 -51.501c0 -32.667 5.5 -56.5 16.5 -71.5s29.5 -22.5 55.5 -22.5zM384.999 665.997
c-12.667 0 -27.8301 2.5 -45.4971 7.5s-35.5 10.667 -53.5 17l-48.5 16.5c-14.333 4.66699 -24.166 7 -29.499 7c-4.66699 0 -9.33398 -3.5 -14.001 -10.5s-8.33398 -14.333 -11.001 -22l-4 -11.5l-63 8c0.666992 42 8.5 71.333 23.5 88s35.167 25 60.5 25
c13.333 0 28.5 -2.16699 45.5 -6.5s34.333 -9.5 52 -15.5l48 -16c14.333 -4.66699 24.166 -7 29.499 -7s10.166 3.5 14.499 10.5s8 14 11 21l4.5 10.5l62 -9c0 -40.667 -7.33301 -69.667 -22 -87s-34.667 -26 -60 -26z" />
    <glyph glyph-name="adieresis" unicode="&#xe4;" horiz-adv-x="593" 
d="M216 -13c-31.333 0 -59.334 7.33105 -84.001 21.998s-44 36 -58 64s-21 62 -21 102c0 48 10.167 85.667 30.5 113s49 46.833 86 58.5s80.5 17.5 130.5 17.5h92c0 31.333 -1.16699 56.5 -3.5 75.5s-6.5 33.167 -12.5 42.5c-5.33301 6.66699 -12.833 11.667 -22.5 15
s-23.5 5 -41.5 5c-24.667 0 -49.667 -2.16699 -75 -6.5s-48.5 -9.66602 -69.5 -15.999s-38 -11.666 -51 -15.999l-19.5 -6.5l-30 86l19.5 8.5c13 5.66699 30.667 12 53 19s47.5 13.333 75.5 19s57.667 8.5 89 8.5c50.667 0 90.834 -8.83301 120.501 -26.5
s50.834 -42.667 63.501 -75s19 -70.5 19 -114.5v-382h-74l-15 63h-6l-24 -16.5c-12 -8.33301 -26.833 -17 -44.5 -26s-37.334 -16.833 -59.001 -23.5s-44.5 -10 -68.5 -10zM243.999 83.998c21.333 0 42.5 3.33203 63.5 9.99902s39.167 13.834 54.5 21.501
s25.333 13.167 30 16.5v138c-4.66699 0.666992 -15.5 1.83398 -32.5 3.50098s-38.833 2.5 -65.5 2.5c-54 0 -87.333 -5.66699 -100 -17c-6.66699 -6 -12 -15.833 -16 -29.5s-6 -30.834 -6 -51.501c0 -32.667 5.5 -56.5 16.5 -71.5s29.5 -22.5 55.5 -22.5zM127.999 676.997
v94h121v-94h-121zM331.999 676.997v94h120v-94h-120z" />
    <glyph glyph-name="aring" unicode="&#xe5;" horiz-adv-x="593" 
d="M216 -13c-31.333 0 -59.334 7.33105 -84.001 21.998s-44 36 -58 64s-21 62 -21 102c0 48 10.167 85.667 30.5 113s49 46.833 86 58.5s80.5 17.5 130.5 17.5h92c0 31.333 -1.16699 56.5 -3.5 75.5s-6.5 33.167 -12.5 42.5c-5.33301 6.66699 -12.833 11.667 -22.5 15
s-23.5 5 -41.5 5c-24.667 0 -49.667 -2.16699 -75 -6.5s-48.5 -9.66602 -69.5 -15.999s-38 -11.666 -51 -15.999l-19.5 -6.5l-30 86l19.5 8.5c13 5.66699 30.667 12 53 19s47.5 13.333 75.5 19s57.667 8.5 89 8.5c50.667 0 90.834 -8.83301 120.501 -26.5
s50.834 -42.667 63.501 -75s19 -70.5 19 -114.5v-382h-74l-15 63h-6l-24 -16.5c-12 -8.33301 -26.833 -17 -44.5 -26s-37.334 -16.833 -59.001 -23.5s-44.5 -10 -68.5 -10zM243.999 83.998c21.333 0 42.5 3.33203 63.5 9.99902s39.167 13.834 54.5 21.501
s25.333 13.167 30 16.5v138c-4.66699 0.666992 -15.5 1.83398 -32.5 3.50098s-38.833 2.5 -65.5 2.5c-54 0 -87.333 -5.66699 -100 -17c-6.66699 -6 -12 -15.833 -16 -29.5s-6 -30.834 -6 -51.501c0 -32.667 5.5 -56.5 16.5 -71.5s29.5 -22.5 55.5 -22.5zM291.999 642.997
c-15.333 0 -30.166 2.83203 -44.499 8.49902s-26.166 14.834 -35.499 27.501s-14 30.334 -14 53.001c0 24 4.66699 42.5 14 55.5s21.166 22 35.499 27s29.166 7.5 44.499 7.5s30.166 -2.5 44.499 -7.5s26 -14 35 -27s13.5 -31.167 13.5 -54.5s-4.5 -41.333 -13.5 -54
s-20.667 -21.834 -35 -27.501s-29.166 -8.5 -44.499 -8.5zM291.999 693.996c13.333 0 22.833 2.66699 28.5 8s8.5 15.333 8.5 30c0 16 -2.83301 26.333 -8.5 31s-15.167 7 -28.5 7s-23.166 -2.33301 -29.499 -7s-9.5 -15 -9.5 -31c0 -14.667 3.16699 -24.667 9.5 -30
s16.166 -8 29.499 -8z" />
    <glyph glyph-name="ae" unicode="&#xe6;" horiz-adv-x="914" 
d="M222 -13c-50 0 -90.335 15.8311 -121.002 47.498s-46 78.834 -46 141.501c0 45.333 10.5 80.833 31.5 106.5s50 44 87 55s79.833 16.5 128.5 16.5h92c0 36.667 -1 64.5 -3 83.5s-6.33301 33.5 -13 43.5c-5.33301 7.33301 -12.833 12.666 -22.5 15.999
s-22.834 5 -39.501 5c-25.333 0 -50.833 -2.16699 -76.5 -6.5s-49.167 -9.66602 -70.5 -15.999s-38.333 -11.666 -51 -15.999l-19 -6.5l-30 86l19.5 8.5c13 5.66699 30.667 12 53 19s47.333 13.333 75 19s56.167 8.5 85.5 8.5c40.667 0 74 -5.5 100 -16.5
s47 -26.833 63 -47.5h4c21.333 23.333 46.333 39.833 75 49.5s60.334 14.5 95.001 14.5c46.667 0 86.334 -8.66699 119.001 -26s57.667 -45.666 75 -84.999s26 -92.333 26 -159v-70h-347v-26c1.33301 -27.333 4 -49.5 8 -66.5s8.66699 -30.333 14 -40
s10.333 -16.834 15 -21.501c8 -6.66699 17.833 -11.834 29.5 -15.501s27.5 -5.5 47.5 -5.5c18.667 0 39 1.83301 61 5.5s42.833 8.33398 62.5 14.001s35.834 10.5 48.501 14.5l19 6l28 -88l-16.5 -7c-11 -4.66699 -26.167 -10.334 -45.5 -17.001
s-41.333 -12.334 -66 -17.001s-50.667 -7 -78 -7c-41.333 0 -78.5 6.16699 -111.5 18.5s-60.167 34.5 -81.5 66.5h-6c-13.333 -9.33301 -31.333 -20.666 -54 -33.999s-48 -25.166 -76 -35.499s-57.333 -15.5 -88 -15.5zM246.998 84.998c20.667 0 41.1689 3 61.502 9
s38.333 12.667 54 20l31.5 15v130c-4 0.666992 -13.833 2 -29.5 4s-38.834 3 -69.501 3c-26 0 -47.333 -1.5 -64 -4.5s-28.334 -7.5 -35.001 -13.5c-6.66699 -5.33301 -12 -14 -16 -26s-6 -28.333 -6 -49c0 -32 5.66699 -54.667 17 -68s30 -20 56 -20zM512 344.998
l229.001 3.99902c0 30.667 -1.5 56.834 -4.5 78.501s-8.5 38.5 -16.5 50.5c-4.66699 6.66699 -12.667 12.5 -24 17.5s-29.666 7.5 -54.999 7.5c-28.667 0 -50.334 -3 -65.001 -9s-26 -13.667 -34 -23c-10 -12 -17.333 -28.5 -22 -49.5s-7.33398 -46.5 -8.00098 -76.5z" />
    <glyph glyph-name="ccedilla" unicode="&#xe7;" horiz-adv-x="529" 
d="M277 -179c-20 0 -38.168 1.5 -54.501 4.5l-24.5 4.5v73l12 -1l28.5 -2.5s20.5 -1.5 28.5 -1.5c18 0 30.833 1.83301 38.5 5.5s11.5 12.167 11.5 25.5c0 16 -1.66699 32.333 -5 49s-5.66602 28 -6.99902 34l66 12c2 -4 4.5 -11 7.5 -21s6 -21.833 9 -35.5
s4.5 -27.5 4.5 -41.5c0 -32 -10.5 -57.5 -31.5 -76.5s-48.833 -28.5 -83.5 -28.5zM305.999 -13c-48 0 -90.5 10.332 -127.5 30.999s-66 53.667 -87 99s-31.5 104.333 -31.5 177c0 60 7 109.833 21 149.5s33.333 70.667 58 93s53.334 38.166 86.001 47.499s67.667 14 105 14
c30.667 0 60 -2.16699 88 -6.5s50 -8.5 66 -12.5l-13 -91l-67.5 8.5c-29 3.66699 -58.167 5.5 -87.5 5.5c-26 0 -46.333 -2 -61 -6s-26 -10 -34 -18c-12.667 -13.333 -22.834 -36.166 -30.501 -68.499s-11.5 -71.833 -11.5 -118.5c0 -43.333 3.16699 -78.166 9.5 -104.499
s14 -46.333 23 -60s17.167 -23.167 24.5 -28.5c4.66699 -4 11.334 -7.66699 20.001 -11s21 -5 37 -5c17.333 0 36 2.33301 56 7s38.833 10.167 56.5 16.5s32 11.833 43 16.5l16.5 7l33 -85l-23.5 -14.5c-15.667 -9.66699 -37.834 -19.167 -66.501 -28.5
s-62.667 -14 -102 -14z" />
    <glyph glyph-name="egrave" unicode="&#xe8;" horiz-adv-x="589" 
d="M312 -14c-49.333 0 -92.832 9.83496 -130.499 29.502s-67 52.167 -88 97.5s-31.5 105.333 -31.5 180c0 78.667 11 140 33 184s51.667 75.333 89 94s79.333 28 126 28c47.333 0 87.5 -8.83301 120.5 -26.5s58.167 -46.834 75.5 -87.501s26 -95 26 -163v-72h-403l53 18
c-1.33301 -34.667 -0.333008 -63.334 3 -86.001s8.16602 -40 14.499 -52s12.833 -21 19.5 -27c8 -7.33301 18 -12.833 30 -16.5s27 -5.5 45 -5.5c18.667 0 38.167 1.66699 58.5 5s39.5 7.33301 57.5 12s34 9.16699 48 13.5l31 9.5l29 -87c-6 -2.66699 -19 -8 -39 -16
s-44.333 -15.333 -73 -22s-60 -10 -94 -10zM182.001 307.002l-53.001 29l337 7l-52 -31c0 40.667 -1.16699 75 -3.5 103s-8.16602 49 -17.499 63c-4.66699 6 -12.167 11.833 -22.5 17.5s-29.5 8.5 -57.5 8.5c-30 0 -52.5 -3.16699 -67.5 -9.5s-26.5 -14.5 -34.5 -24.5
c-22 -26 -31.667 -80.333 -29 -163zM412 650.002l-244 63l28 88l236 -86z" />
    <glyph glyph-name="eacute" unicode="&#xe9;" horiz-adv-x="589" 
d="M312 -14c-49.333 0 -92.832 9.83496 -130.499 29.502s-67 52.167 -88 97.5s-31.5 105.333 -31.5 180c0 78.667 11 140 33 184s51.667 75.333 89 94s79.333 28 126 28c47.333 0 87.5 -8.83301 120.5 -26.5s58.167 -46.834 75.5 -87.501s26 -95 26 -163v-72h-403l53 18
c-1.33301 -34.667 -0.333008 -63.334 3 -86.001s8.16602 -40 14.499 -52s12.833 -21 19.5 -27c8 -7.33301 18 -12.833 30 -16.5s27 -5.5 45 -5.5c18.667 0 38.167 1.66699 58.5 5s39.5 7.33301 57.5 12s34 9.16699 48 13.5l31 9.5l29 -87c-6 -2.66699 -19 -8 -39 -16
s-44.333 -15.333 -73 -22s-60 -10 -94 -10zM182.001 307.002l-53.001 29l337 7l-52 -31c0 40.667 -1.16699 75 -3.5 103s-8.16602 49 -17.499 63c-4.66699 6 -12.167 11.833 -22.5 17.5s-29.5 8.5 -57.5 8.5c-30 0 -52.5 -3.16699 -67.5 -9.5s-26.5 -14.5 -34.5 -24.5
c-22 -26 -31.667 -80.333 -29 -163zM203 650.002l-21 64l233 87l31 -88z" />
    <glyph glyph-name="ecircumflex" unicode="&#xea;" horiz-adv-x="589" 
d="M312 -14c-49.333 0 -92.832 9.83496 -130.499 29.502s-67 52.167 -88 97.5s-31.5 105.333 -31.5 180c0 78.667 11 140 33 184s51.667 75.333 89 94s79.333 28 126 28c47.333 0 87.5 -8.83301 120.5 -26.5s58.167 -46.834 75.5 -87.501s26 -95 26 -163v-72h-403l53 18
c-1.33301 -34.667 -0.333008 -63.334 3 -86.001s8.16602 -40 14.499 -52s12.833 -21 19.5 -27c8 -7.33301 18 -12.833 30 -16.5s27 -5.5 45 -5.5c18.667 0 38.167 1.66699 58.5 5s39.5 7.33301 57.5 12s34 9.16699 48 13.5l31 9.5l29 -87c-6 -2.66699 -19 -8 -39 -16
s-44.333 -15.333 -73 -22s-60 -10 -94 -10zM182.001 307.002l-53.001 29l337 7l-52 -31c0 40.667 -1.16699 75 -3.5 103s-8.16602 49 -17.499 63c-4.66699 6 -12.167 11.833 -22.5 17.5s-29.5 8.5 -57.5 8.5c-30 0 -52.5 -3.16699 -67.5 -9.5s-26.5 -14.5 -34.5 -24.5
c-22 -26 -31.667 -80.333 -29 -163zM168 649.002l-31 46l142 107h61l141 -107l-30 -46l-138 68h-7z" />
    <glyph glyph-name="edieresis" unicode="&#xeb;" horiz-adv-x="589" 
d="M312 -14c-49.333 0 -92.832 9.83496 -130.499 29.502s-67 52.167 -88 97.5s-31.5 105.333 -31.5 180c0 78.667 11 140 33 184s51.667 75.333 89 94s79.333 28 126 28c47.333 0 87.5 -8.83301 120.5 -26.5s58.167 -46.834 75.5 -87.501s26 -95 26 -163v-72h-403l53 18
c-1.33301 -34.667 -0.333008 -63.334 3 -86.001s8.16602 -40 14.499 -52s12.833 -21 19.5 -27c8 -7.33301 18 -12.833 30 -16.5s27 -5.5 45 -5.5c18.667 0 38.167 1.66699 58.5 5s39.5 7.33301 57.5 12s34 9.16699 48 13.5l31 9.5l29 -87c-6 -2.66699 -19 -8 -39 -16
s-44.333 -15.333 -73 -22s-60 -10 -94 -10zM182.001 307.002l-53.001 29l337 7l-52 -31c0 40.667 -1.16699 75 -3.5 103s-8.16602 49 -17.499 63c-4.66699 6 -12.167 11.833 -22.5 17.5s-29.5 8.5 -57.5 8.5c-30 0 -52.5 -3.16699 -67.5 -9.5s-26.5 -14.5 -34.5 -24.5
c-22 -26 -31.667 -80.333 -29 -163zM145 677.002v94h121v-94h-121zM349 677.002v94h120v-94h-120z" />
    <glyph glyph-name="igrave" unicode="&#xec;" horiz-adv-x="308" 
d="M245 652l-249 68l28 86l241 -89zM93 0v585h116v-585h-116z" />
    <glyph glyph-name="iacute" unicode="&#xed;" horiz-adv-x="308" 
d="M59 652l-21 64l240 92l29 -88zM93 0v585h116v-585h-116z" />
    <glyph glyph-name="icircumflex" unicode="&#xee;" horiz-adv-x="308" 
d="M27 651l-33 46l129 105h62l129 -105l-32 -46l-124 66h-7zM93 0v585h116v-585h-116z" />
    <glyph glyph-name="idieresis" unicode="&#xef;" horiz-adv-x="308" 
d="M-3 677v94h121v-94h-121zM190 677v94h120v-94h-120zM93 0v585h116v-585h-116z" />
    <glyph glyph-name="eth" unicode="&#xf0;" horiz-adv-x="598" 
d="M298 -13c-58.667 0 -105.33 12.001 -139.997 36.001s-59.167 57 -73.5 99s-21.5 90 -21.5 144c0 48.667 7.16699 92 21.5 130s38.166 68.333 71.499 91s77.666 34 132.999 34c33.333 0 61 -4.5 83 -13.5s39.667 -18.167 53 -27.5l6 3
c-7.33301 22.667 -17.833 44.167 -31.5 64.5s-30.167 40.166 -49.5 59.499l-111 -54l-8 79l65 29c-10.667 8 -21.834 15.833 -33.501 23.5l-33.5 21.5l61 64c17.333 -9.33301 34 -19.333 50 -30s31.333 -21.667 46 -33l103 55l7 -81l-57 -30
c24.667 -28.667 44 -62.5 58 -101.5s23.833 -79.833 29.5 -122.5s8.5 -85 8.5 -127c0 -63.333 -7.16699 -118.5 -21.5 -165.5s-38.833 -83.333 -73.5 -109s-82 -38.5 -142 -38.5zM299.004 79.001c30.667 0 54.501 5 71.501 15s29 28.5 36 55.5s10.5 65.833 10.5 116.5
c0 42.667 -3.66699 75.834 -11 99.501s-19.666 40 -36.999 49s-40.666 13.5 -69.999 13.5c-28.667 0 -51.834 -4.5 -69.501 -13.5s-30.334 -25.333 -38.001 -49s-11.5 -56.834 -11.5 -99.501c0 -50.667 3.66699 -89.5 11 -116.5s19.666 -45.5 36.999 -55.5s41 -15 71 -15z
" />
    <glyph glyph-name="ntilde" unicode="&#xf1;" horiz-adv-x="615" 
d="M91 0v585h75l14 -58h5l36 20c14.667 8 31.334 16 50.001 24s38.667 14.5 60 19.5s43 7.5 65 7.5c38.667 0 68.167 -9.33301 88.5 -28s34.166 -44 41.499 -76s11 -68 11 -108v-386h-116v357c0 34 -0.666992 59.833 -2 77.5s-5.33301 31.167 -12 40.5
c-4.66699 7.33301 -11.334 12.166 -20.001 14.499s-18 3.5 -28 3.5c-19.333 0 -39.166 -3 -59.499 -9s-38.833 -12.667 -55.5 -20s-29 -13.666 -37 -18.999v-445h-116zM406 666c-12.667 0 -27.8301 2.5 -45.4971 7.5s-35.5 10.667 -53.5 17l-48.5 16.5
c-14.333 4.66699 -24.166 7 -29.499 7c-4.66699 0 -9.33398 -3.5 -14.001 -10.5s-8.33398 -14.333 -11.001 -22l-4 -11.5l-63 8c0.666992 42 8.5 71.333 23.5 88s35.167 25 60.5 25c13.333 0 28.5 -2.16699 45.5 -6.5s34.333 -9.5 52 -15.5l48 -16
c14.333 -4.66699 24.166 -7 29.499 -7s10.166 3.5 14.499 10.5s8 14 11 21l4.5 10.5l62 -9c0 -40.667 -7.33301 -69.667 -22 -87s-34.667 -26 -60 -26z" />
    <glyph glyph-name="ograve" unicode="&#xf2;" horiz-adv-x="592" 
d="M297 -13c-60 0 -107.167 12.333 -141.5 37s-58.833 59.834 -73.5 105.501s-22 100.167 -22 163.5c0 62.667 7.33301 116.667 22 162s39.167 80.5 73.5 105.5s81.5 37.5 141.5 37.5c59.333 0 106.166 -12.5 140.499 -37.5s58.666 -60.167 72.999 -105.5
s21.5 -99.666 21.5 -162.999c0 -62.667 -7.16699 -116.834 -21.5 -162.501s-38.666 -80.834 -72.999 -105.501s-81.166 -37 -140.499 -37zM297 80c22.667 0 41.5 2.83301 56.5 8.5s27 16 36 31s15.333 36.5 19 64.5s5.5 64.333 5.5 109c0 44 -1.83301 80 -5.5 108
s-10 49.5 -19 64.5s-21.167 25.333 -36.5 31s-34 8.5 -56 8.5c-22.667 0 -41.667 -2.83301 -57 -8.5s-27.5 -16 -36.5 -31s-15.667 -36.5 -20 -64.5s-6.5 -64 -6.5 -108c0 -44.667 2.16699 -81 6.5 -109s11 -49.5 20 -64.5s21.167 -25.333 36.5 -31s34.333 -8.5 57 -8.5z
M398 650l-244 63l28 88l236 -86z" />
    <glyph glyph-name="oacute" unicode="&#xf3;" horiz-adv-x="592" 
d="M297 -13c-60 0 -107.167 12.333 -141.5 37s-58.833 59.834 -73.5 105.501s-22 100.167 -22 163.5c0 62.667 7.33301 116.667 22 162s39.167 80.5 73.5 105.5s81.5 37.5 141.5 37.5c59.333 0 106.166 -12.5 140.499 -37.5s58.666 -60.167 72.999 -105.5
s21.5 -99.666 21.5 -162.999c0 -62.667 -7.16699 -116.834 -21.5 -162.501s-38.666 -80.834 -72.999 -105.501s-81.166 -37 -140.499 -37zM297 80c22.667 0 41.5 2.83301 56.5 8.5s27 16 36 31s15.333 36.5 19 64.5s5.5 64.333 5.5 109c0 44 -1.83301 80 -5.5 108
s-10 49.5 -19 64.5s-21.167 25.333 -36.5 31s-34 8.5 -56 8.5c-22.667 0 -41.667 -2.83301 -57 -8.5s-27.5 -16 -36.5 -31s-15.667 -36.5 -20 -64.5s-6.5 -64 -6.5 -108c0 -44.667 2.16699 -81 6.5 -109s11 -49.5 20 -64.5s21.167 -25.333 36.5 -31s34.333 -8.5 57 -8.5z
M201 650l-21 64l233 87l31 -88z" />
    <glyph glyph-name="ocircumflex" unicode="&#xf4;" horiz-adv-x="592" 
d="M297 -13c-60 0 -107.167 12.333 -141.5 37s-58.833 59.834 -73.5 105.501s-22 100.167 -22 163.5c0 62.667 7.33301 116.667 22 162s39.167 80.5 73.5 105.5s81.5 37.5 141.5 37.5c59.333 0 106.166 -12.5 140.499 -37.5s58.666 -60.167 72.999 -105.5
s21.5 -99.666 21.5 -162.999c0 -62.667 -7.16699 -116.834 -21.5 -162.501s-38.666 -80.834 -72.999 -105.501s-81.166 -37 -140.499 -37zM297 80c22.667 0 41.5 2.83301 56.5 8.5s27 16 36 31s15.333 36.5 19 64.5s5.5 64.333 5.5 109c0 44 -1.83301 80 -5.5 108
s-10 49.5 -19 64.5s-21.167 25.333 -36.5 31s-34 8.5 -56 8.5c-22.667 0 -41.667 -2.83301 -57 -8.5s-27.5 -16 -36.5 -31s-15.667 -36.5 -20 -64.5s-6.5 -64 -6.5 -108c0 -44.667 2.16699 -81 6.5 -109s11 -49.5 20 -64.5s21.167 -25.333 36.5 -31s34.333 -8.5 57 -8.5z
M154 649l-31 46l142 107h61l141 -107l-30 -46l-138 68h-7z" />
    <glyph glyph-name="otilde" unicode="&#xf5;" horiz-adv-x="592" 
d="M297 -13c-60 0 -107.167 12.333 -141.5 37s-58.833 59.834 -73.5 105.501s-22 100.167 -22 163.5c0 62.667 7.33301 116.667 22 162s39.167 80.5 73.5 105.5s81.5 37.5 141.5 37.5c59.333 0 106.166 -12.5 140.499 -37.5s58.666 -60.167 72.999 -105.5
s21.5 -99.666 21.5 -162.999c0 -62.667 -7.16699 -116.834 -21.5 -162.501s-38.666 -80.834 -72.999 -105.501s-81.166 -37 -140.499 -37zM297 80c22.667 0 41.5 2.83301 56.5 8.5s27 16 36 31s15.333 36.5 19 64.5s5.5 64.333 5.5 109c0 44 -1.83301 80 -5.5 108
s-10 49.5 -19 64.5s-21.167 25.333 -36.5 31s-34 8.5 -56 8.5c-22.667 0 -41.667 -2.83301 -57 -8.5s-27.5 -16 -36.5 -31s-15.667 -36.5 -20 -64.5s-6.5 -64 -6.5 -108c0 -44.667 2.16699 -81 6.5 -109s11 -49.5 20 -64.5s21.167 -25.333 36.5 -31s34.333 -8.5 57 -8.5z
M389 666c-12.667 0 -27.8301 2.5 -45.4971 7.5s-35.5 10.667 -53.5 17l-48.5 16.5c-14.333 4.66699 -24.166 7 -29.499 7c-4.66699 0 -9.33398 -3.5 -14.001 -10.5s-8.33398 -14.333 -11.001 -22l-4 -11.5l-63 8c0.666992 42 8.5 71.333 23.5 88s35.167 25 60.5 25
c13.333 0 28.5 -2.16699 45.5 -6.5s34.333 -9.5 52 -15.5l48 -16c14.333 -4.66699 24.166 -7 29.499 -7s10.166 3.5 14.499 10.5s8 14 11 21l4.5 10.5l62 -9c0 -40.667 -7.33301 -69.667 -22 -87s-34.667 -26 -60 -26z" />
    <glyph glyph-name="odieresis" unicode="&#xf6;" horiz-adv-x="592" 
d="M297 -13c-60 0 -107.167 12.333 -141.5 37s-58.833 59.834 -73.5 105.501s-22 100.167 -22 163.5c0 62.667 7.33301 116.667 22 162s39.167 80.5 73.5 105.5s81.5 37.5 141.5 37.5c59.333 0 106.166 -12.5 140.499 -37.5s58.666 -60.167 72.999 -105.5
s21.5 -99.666 21.5 -162.999c0 -62.667 -7.16699 -116.834 -21.5 -162.501s-38.666 -80.834 -72.999 -105.501s-81.166 -37 -140.499 -37zM297 80c22.667 0 41.5 2.83301 56.5 8.5s27 16 36 31s15.333 36.5 19 64.5s5.5 64.333 5.5 109c0 44 -1.83301 80 -5.5 108
s-10 49.5 -19 64.5s-21.167 25.333 -36.5 31s-34 8.5 -56 8.5c-22.667 0 -41.667 -2.83301 -57 -8.5s-27.5 -16 -36.5 -31s-15.667 -36.5 -20 -64.5s-6.5 -64 -6.5 -108c0 -44.667 2.16699 -81 6.5 -109s11 -49.5 20 -64.5s21.167 -25.333 36.5 -31s34.333 -8.5 57 -8.5z
M131 677v94h121v-94h-121zM335 677v94h120v-94h-120z" />
    <glyph glyph-name="divide" unicode="&#xf7;" horiz-adv-x="631" 
d="M42 244v98h548v-98h-548zM246 28v107h138v-107h-138zM246 452v107h138v-107h-138z" />
    <glyph glyph-name="oslash" unicode="&#xf8;" horiz-adv-x="594" 
d="M95 -42l40 83l256 542l18 41h88l-39 -81l-254 -541l-20 -44h-89zM297 -13c-59.333 0 -106.333 12.333 -141 37s-59.167 59.834 -73.5 105.501s-21.5 100.167 -21.5 163.5c0 62.667 7.16699 116.667 21.5 162s38.833 80.5 73.5 105.5s81.667 37.5 141 37.5
c60 0 107 -12.5 141 -37.5s58.333 -60.167 73 -105.5s22 -99.666 22 -162.999c0 -62.667 -7.33301 -116.834 -22 -162.501s-39 -80.834 -73 -105.501s-81 -37 -141 -37zM297 80c22.667 0 41.5 2.83301 56.5 8.5s27.167 16 36.5 31s15.833 36.5 19.5 64.5s5.5 64.333 5.5 109
c0 44 -2 80 -6 108s-10.5 49.5 -19.5 64.5s-21 25.333 -36 31s-33.833 8.5 -56.5 8.5s-41.5 -2.83301 -56.5 -8.5s-27.167 -16 -36.5 -31s-16 -36.5 -20 -64.5s-6 -64 -6 -108c0 -44.667 2 -81 6 -109s10.667 -49.5 20 -64.5s21.5 -25.333 36.5 -31s33.833 -8.5 56.5 -8.5z
" />
    <glyph glyph-name="ugrave" unicode="&#xf9;" horiz-adv-x="614" 
d="M232 -13c-34.667 0 -63.498 7.83301 -86.498 23.5s-40 39.167 -51 70.5s-16.5 71 -16.5 119v385h116v-362c0 -32.667 1 -58.167 3 -76.5s5.33301 -31.166 10 -38.499c5.33301 -6 12.333 -10.333 21 -13s18.667 -4 30 -4c25.333 0 51.333 5.16699 78 15.5
s50.667 21.166 72 32.499v446h115v-585h-75l-14 58h-6l-51 -28c-20.667 -11.333 -43.334 -21.333 -68.001 -30s-50.334 -13 -77.001 -13zM409.002 650l-244 63l28 88l236 -86z" />
    <glyph glyph-name="uacute" unicode="&#xfa;" horiz-adv-x="614" 
d="M232 -13c-34.667 0 -63.498 7.83301 -86.498 23.5s-40 39.167 -51 70.5s-16.5 71 -16.5 119v385h116v-362c0 -32.667 1 -58.167 3 -76.5s5.33301 -31.166 10 -38.499c5.33301 -6 12.333 -10.333 21 -13s18.667 -4 30 -4c25.333 0 51.333 5.16699 78 15.5
s50.667 21.166 72 32.499v446h115v-585h-75l-14 58h-6l-51 -28c-20.667 -11.333 -43.334 -21.333 -68.001 -30s-50.334 -13 -77.001 -13zM210.002 650l-21 64l233 87l31 -88z" />
    <glyph glyph-name="ucircumflex" unicode="&#xfb;" horiz-adv-x="614" 
d="M232 -13c-34.667 0 -63.498 7.83301 -86.498 23.5s-40 39.167 -51 70.5s-16.5 71 -16.5 119v385h116v-362c0 -32.667 1 -58.167 3 -76.5s5.33301 -31.166 10 -38.499c5.33301 -6 12.333 -10.333 21 -13s18.667 -4 30 -4c25.333 0 51.333 5.16699 78 15.5
s50.667 21.166 72 32.499v446h115v-585h-75l-14 58h-6l-51 -28c-20.667 -11.333 -43.334 -21.333 -68.001 -30s-50.334 -13 -77.001 -13zM166.002 649l-31 46l142 107h61l141 -107l-30 -46l-138 68h-7z" />
    <glyph glyph-name="udieresis" unicode="&#xfc;" horiz-adv-x="614" 
d="M232 -13c-34.667 0 -63.498 7.83301 -86.498 23.5s-40 39.167 -51 70.5s-16.5 71 -16.5 119v385h116v-362c0 -32.667 1 -58.167 3 -76.5s5.33301 -31.166 10 -38.499c5.33301 -6 12.333 -10.333 21 -13s18.667 -4 30 -4c25.333 0 51.333 5.16699 78 15.5
s50.667 21.166 72 32.499v446h115v-585h-75l-14 58h-6l-51 -28c-20.667 -11.333 -43.334 -21.333 -68.001 -30s-50.334 -13 -77.001 -13zM141.002 677v94h121v-94h-121zM345.002 677v94h120v-94h-120z" />
    <glyph glyph-name="yacute" unicode="&#xfd;" horiz-adv-x="506" 
d="M116 -166l81 221l-191 530h121l121 -410h5l120 410h122l-200 -552l-58 -199h-121zM151 650l-21 64l233 87l31 -88z" />
    <glyph glyph-name="thorn" unicode="&#xfe;" horiz-adv-x="608" 
d="M93 -166l-0.00195312 923.002h114v-179c3.33301 2 12.833 4.5 28.5 7.5s33.834 5.83301 54.501 8.5s40 4 58 4c64.667 0 114.167 -23.5 148.5 -70.5s51.5 -123.5 51.5 -229.5c0 -63.333 -6.33301 -115.333 -19 -156s-29.667 -72.334 -51 -95.001
s-45.166 -38.334 -71.499 -47.001s-53.5 -13 -81.5 -13c-14 0 -31.667 1.33301 -53 4s-43 5.66699 -65 9v-166h-114zM324.998 83.002c17.333 0 30.6689 1.16797 40.002 3.50098s16.666 6.16602 21.999 11.499c6 5.33301 12.167 15.166 18.5 29.499
s11.666 35.666 15.999 63.999s6.5 66.5 6.5 114.5c0 39.333 -1.16699 71.333 -3.5 96s-5.33301 43.5 -9 56.5s-8.5 21.833 -14.5 26.5s-14.833 8.33398 -26.5 11.001s-24.834 4 -39.501 4c-19.333 0 -37.5 -1.16699 -54.5 -3.5s-31.667 -5.33301 -44 -9
s-22.166 -6.5 -29.499 -8.5v-381c16 -3.33301 34 -6.66602 54 -9.99902s41.333 -5 64 -5z" />
    <glyph glyph-name="ydieresis" unicode="&#xff;" horiz-adv-x="505" 
d="M116 -166l81 221l-191 530h121l121 -410h5l120 410h122l-200 -552l-58 -199h-121zM86 677v94h121v-94h-121zM290 677v94h120v-94h-120z" />
    <glyph glyph-name="Amacron" unicode="&#x100;" horiz-adv-x="536" 
d="M-2 0l191 699h156l191 -699h-120l-54 215l63 -44h-315l61 44l-53 -215h-120zM171 219l-39 53h270l-39 -53l-105 424l64 -51h-110l64 51zM92 771v79h352v-79h-352z" />
    <glyph glyph-name="amacron" unicode="&#x101;" horiz-adv-x="593" 
d="M216 -13c-31.333 0 -59.334 7.33105 -84.001 21.998s-44 36 -58 64s-21 62 -21 102c0 48 10.167 85.667 30.5 113s49 46.833 86 58.5s80.5 17.5 130.5 17.5h92c0 31.333 -1.16699 56.5 -3.5 75.5s-6.5 33.167 -12.5 42.5c-5.33301 6.66699 -12.833 11.667 -22.5 15
s-23.5 5 -41.5 5c-24.667 0 -49.667 -2.16699 -75 -6.5s-48.5 -9.66602 -69.5 -15.999s-38 -11.666 -51 -15.999l-19.5 -6.5l-30 86l19.5 8.5c13 5.66699 30.667 12 53 19s47.5 13.333 75.5 19s57.667 8.5 89 8.5c50.667 0 90.834 -8.83301 120.501 -26.5
s50.834 -42.667 63.501 -75s19 -70.5 19 -114.5v-382h-74l-15 63h-6l-24 -16.5c-12 -8.33301 -26.833 -17 -44.5 -26s-37.334 -16.833 -59.001 -23.5s-44.5 -10 -68.5 -10zM243.999 83.998c21.333 0 42.5 3.33203 63.5 9.99902s39.167 13.834 54.5 21.501
s25.333 13.167 30 16.5v138c-4.66699 0.666992 -15.5 1.83398 -32.5 3.50098s-38.833 2.5 -65.5 2.5c-54 0 -87.333 -5.66699 -100 -17c-6.66699 -6 -12 -15.833 -16 -29.5s-6 -30.834 -6 -51.501c0 -32.667 5.5 -56.5 16.5 -71.5s29.5 -22.5 55.5 -22.5zM115.999 679.997
v79h353v-79h-353z" />
    <glyph glyph-name="Abreve" unicode="&#x102;" horiz-adv-x="536" 
d="M-2 0l191 699h156l191 -699h-120l-54 215l63 -44h-315l61 44l-53 -215h-120zM171 219l-39 53h270l-39 -53l-105 424l64 -51h-110l64 51zM269 743c-28.667 0 -55.667 4.83301 -81 14.5s-46 25.167 -62 46.5s-25 49.333 -27 84l67 6c4.66699 -26.667 16 -45.167 34 -55.5
s41 -15.5 69 -15.5s50.833 5.16699 68.5 15.5s28.834 28.833 33.501 55.5l67 -6c-2 -34.667 -11.167 -62.667 -27.5 -84s-36.833 -36.833 -61.5 -46.5s-51.334 -14.5 -80.001 -14.5z" />
    <glyph glyph-name="abreve" unicode="&#x103;" horiz-adv-x="593" 
d="M216 -13c-31.333 0 -59.334 7.33105 -84.001 21.998s-44 36 -58 64s-21 62 -21 102c0 48 10.167 85.667 30.5 113s49 46.833 86 58.5s80.5 17.5 130.5 17.5h92c0 31.333 -1.16699 56.5 -3.5 75.5s-6.5 33.167 -12.5 42.5c-5.33301 6.66699 -12.833 11.667 -22.5 15
s-23.5 5 -41.5 5c-24.667 0 -49.667 -2.16699 -75 -6.5s-48.5 -9.66602 -69.5 -15.999s-38 -11.666 -51 -15.999l-19.5 -6.5l-30 86l19.5 8.5c13 5.66699 30.667 12 53 19s47.5 13.333 75.5 19s57.667 8.5 89 8.5c50.667 0 90.834 -8.83301 120.501 -26.5
s50.834 -42.667 63.501 -75s19 -70.5 19 -114.5v-382h-74l-15 63h-6l-24 -16.5c-12 -8.33301 -26.833 -17 -44.5 -26s-37.334 -16.833 -59.001 -23.5s-44.5 -10 -68.5 -10zM243.999 83.998c21.333 0 42.5 3.33203 63.5 9.99902s39.167 13.834 54.5 21.501
s25.333 13.167 30 16.5v138c-4.66699 0.666992 -15.5 1.83398 -32.5 3.50098s-38.833 2.5 -65.5 2.5c-54 0 -87.333 -5.66699 -100 -17c-6.66699 -6 -12 -15.833 -16 -29.5s-6 -30.834 -6 -51.501c0 -32.667 5.5 -56.5 16.5 -71.5s29.5 -22.5 55.5 -22.5zM291.999 650.997
c-28.667 0 -55.501 5 -80.501 15s-45.5 26 -61.5 48s-25 51.667 -27 89l67 7c4.66699 -30 15.834 -50.333 33.501 -61s40.5 -16 68.5 -16s51 5.33301 69 16s29.333 31 34 61l67 -7c-2.66699 -37.333 -12 -67 -28 -89s-36.333 -38 -61 -48s-51.667 -15 -81 -15z" />
    <glyph glyph-name="Aogonek" unicode="&#x104;" horiz-adv-x="536" 
d="M-2 0l191 699h156l191 -699h-120l-54 215l63 -44h-315l61 44l-53 -215h-120zM171 219l-39 53h270l-39 -53l-105 424l64 -51h-110l64 51zM463 -179c-30.667 0 -55.3301 6.33301 -73.9971 19s-28 32.667 -28 60c0 16.667 5.16699 32.667 15.5 48s24.166 29.333 41.499 42
s35.666 23 54.999 31l60 -21c-28.667 -10 -51.834 -22.167 -69.501 -36.5s-26.5 -27.833 -26.5 -40.5c0 -10 4.16699 -16.833 12.5 -20.5s19.5 -5.5 33.5 -5.5c10.667 0 21.667 0.666992 33 2l17 2v-72l-20 -4c-13.333 -2.66699 -30 -4 -50 -4z" />
    <glyph glyph-name="aogonek" unicode="&#x105;" horiz-adv-x="593" 
d="M216 -13c-31.333 0 -59.334 7.33105 -84.001 21.998s-44 36 -58 64s-21 62 -21 102c0 48 10.167 85.667 30.5 113s49 46.833 86 58.5s80.5 17.5 130.5 17.5h92c0 31.333 -1.16699 56.5 -3.5 75.5s-6.5 33.167 -12.5 42.5c-5.33301 6.66699 -12.833 11.667 -22.5 15
s-23.5 5 -41.5 5c-24.667 0 -49.667 -2.16699 -75 -6.5s-48.5 -9.66602 -69.5 -15.999s-38 -11.666 -51 -15.999l-19.5 -6.5l-30 86l19.5 8.5c13 5.66699 30.667 12 53 19s47.5 13.333 75.5 19s57.667 8.5 89 8.5c50.667 0 90.834 -8.83301 120.501 -26.5
s50.834 -42.667 63.501 -75s19 -70.5 19 -114.5v-382h-74l-15 63h-6l-24 -16.5c-12 -8.33301 -26.833 -17 -44.5 -26s-37.334 -16.833 -59.001 -23.5s-44.5 -10 -68.5 -10zM243.999 83.998c21.333 0 42.5 3.33203 63.5 9.99902s39.167 13.834 54.5 21.501
s25.333 13.167 30 16.5v138c-4.66699 0.666992 -15.5 1.83398 -32.5 3.50098s-38.833 2.5 -65.5 2.5c-54 0 -87.333 -5.66699 -100 -17c-6.66699 -6 -12 -15.833 -16 -29.5s-6 -30.834 -6 -51.501c0 -32.667 5.5 -56.5 16.5 -71.5s29.5 -22.5 55.5 -22.5zM437.999 -179.003
c-30.667 0 -55.3301 6.33301 -73.9971 19s-28 32.667 -28 60c0 16.667 5.16699 32.667 15.5 48s24.166 29.333 41.499 42s35.666 23 54.999 31l60 -21c-28.667 -10 -51.834 -22.167 -69.501 -36.5s-26.5 -27.833 -26.5 -40.5c0 -10 4.16699 -16.833 12.5 -20.5
s19.5 -5.5 33.5 -5.5c10.667 0 21.667 0.666992 33 2l17 2v-72l-20 -4c-13.333 -2.66699 -30 -4 -50 -4z" />
    <glyph glyph-name="Cacute" unicode="&#x106;" horiz-adv-x="599" 
d="M324 -14c-51.333 0 -96.668 11.6699 -136.001 35.0029s-70.166 61.166 -92.499 113.499s-33.5 121.5 -33.5 207.5c0 76.667 7 139.167 21 187.5s33.5 85.833 58.5 112.5s54.333 45 88 55s70.167 15 109.5 15c16.667 0 36.667 -1 60 -3s46.5 -4.5 69.5 -7.5
s41.167 -6.16699 54.5 -9.5l-13 -97c-6.66699 0.666992 -17.5 1.66699 -32.5 3l-48.5 4.5c-17.333 1.66699 -33.833 3 -49.5 4s-27.5 1.5 -35.5 1.5c-30 0 -54 -1.5 -72 -4.5s-31 -9.16699 -39 -18.5c-8.66699 -8.66699 -16.667 -22.334 -24 -41.001
s-13.333 -44.5 -18 -77.5s-7 -75.5 -7 -127.5c0 -65.333 6.16699 -117.166 18.5 -155.499s24.833 -63.166 37.5 -74.499c8.66699 -7.33301 19.167 -12.833 31.5 -16.5s26.833 -5.5 43.5 -5.5c24 0 47.833 2.66699 71.5 8s45.167 11.666 64.5 18.999
s34.833 13.666 46.5 18.999l17.5 8l37 -90l-17 -9.5c-11.333 -6.33301 -27 -13.833 -47 -22.5s-44 -16.334 -72 -23.001s-58.667 -10 -92 -10zM221.998 741.003l-19 65l256 80l28 -90z" />
    <glyph glyph-name="cacute" unicode="&#x107;" horiz-adv-x="530" 
d="M306 -13c-48 0 -90.5 10.332 -127.5 30.999s-66 53.667 -87 99s-31.5 104.333 -31.5 177c0 60 7 109.833 21 149.5s33.333 70.667 58 93s53.334 38.166 86.001 47.499s67.667 14 105 14c30.667 0 60 -2.16699 88 -6.5s50 -8.5 66 -12.5l-13 -91l-67.5 8.5
c-29 3.66699 -58.167 5.5 -87.5 5.5c-26 0 -46.333 -2 -61 -6s-26 -10 -34 -18c-12.667 -13.333 -22.834 -36.166 -30.501 -68.499s-11.5 -71.833 -11.5 -118.5c0 -43.333 3.16699 -78.166 9.5 -104.499s14 -46.333 23 -60s17.167 -23.167 24.5 -28.5
c4.66699 -4 11.334 -7.66699 20.001 -11s21 -5 37 -5c17.333 0 36 2.33301 56 7s38.833 10.167 56.5 16.5s32 11.833 43 16.5l16.5 7l33 -85l-23.5 -14.5c-15.667 -9.66699 -37.834 -19.167 -66.501 -28.5s-62.667 -14 -102 -14zM190 649.999l-21 64l233 87l31 -88z" />
    <glyph glyph-name="Cdotaccent" unicode="&#x10a;" horiz-adv-x="599" 
d="M324 -14c-51.333 0 -96.668 11.6699 -136.001 35.0029s-70.166 61.166 -92.499 113.499s-33.5 121.5 -33.5 207.5c0 76.667 7 139.167 21 187.5s33.5 85.833 58.5 112.5s54.333 45 88 55s70.167 15 109.5 15c16.667 0 36.667 -1 60 -3s46.5 -4.5 69.5 -7.5
s41.167 -6.16699 54.5 -9.5l-13 -97c-6.66699 0.666992 -17.5 1.66699 -32.5 3l-48.5 4.5c-17.333 1.66699 -33.833 3 -49.5 4s-27.5 1.5 -35.5 1.5c-30 0 -54 -1.5 -72 -4.5s-31 -9.16699 -39 -18.5c-8.66699 -8.66699 -16.667 -22.334 -24 -41.001
s-13.333 -44.5 -18 -77.5s-7 -75.5 -7 -127.5c0 -65.333 6.16699 -117.166 18.5 -155.499s24.833 -63.166 37.5 -74.499c8.66699 -7.33301 19.167 -12.833 31.5 -16.5s26.833 -5.5 43.5 -5.5c24 0 47.833 2.66699 71.5 8s45.167 11.666 64.5 18.999
s34.833 13.666 46.5 18.999l17.5 8l37 -90l-17 -9.5c-11.333 -6.33301 -27 -13.833 -47 -22.5s-44 -16.334 -72 -23.001s-58.667 -10 -92 -10zM268.998 762.003v94h128v-94h-128z" />
    <glyph glyph-name="cdotaccent" unicode="&#x10b;" horiz-adv-x="530" 
d="M306 -13c-48 0 -90.5 10.332 -127.5 30.999s-66 53.667 -87 99s-31.5 104.333 -31.5 177c0 60 7 109.833 21 149.5s33.333 70.667 58 93s53.334 38.166 86.001 47.499s67.667 14 105 14c30.667 0 60 -2.16699 88 -6.5s50 -8.5 66 -12.5l-13 -91l-67.5 8.5
c-29 3.66699 -58.167 5.5 -87.5 5.5c-26 0 -46.333 -2 -61 -6s-26 -10 -34 -18c-12.667 -13.333 -22.834 -36.166 -30.501 -68.499s-11.5 -71.833 -11.5 -118.5c0 -43.333 3.16699 -78.166 9.5 -104.499s14 -46.333 23 -60s17.167 -23.167 24.5 -28.5
c4.66699 -4 11.334 -7.66699 20.001 -11s21 -5 37 -5c17.333 0 36 2.33301 56 7s38.833 10.167 56.5 16.5s32 11.833 43 16.5l16.5 7l33 -85l-23.5 -14.5c-15.667 -9.66699 -37.834 -19.167 -66.501 -28.5s-62.667 -14 -102 -14zM251 674.999v96h129v-96h-129z" />
    <glyph glyph-name="Ccaron" unicode="&#x10c;" horiz-adv-x="599" 
d="M324 -14c-51.333 0 -96.668 11.6699 -136.001 35.0029s-70.166 61.166 -92.499 113.499s-33.5 121.5 -33.5 207.5c0 76.667 7 139.167 21 187.5s33.5 85.833 58.5 112.5s54.333 45 88 55s70.167 15 109.5 15c16.667 0 36.667 -1 60 -3s46.5 -4.5 69.5 -7.5
s41.167 -6.16699 54.5 -9.5l-13 -97c-6.66699 0.666992 -17.5 1.66699 -32.5 3l-48.5 4.5c-17.333 1.66699 -33.833 3 -49.5 4s-27.5 1.5 -35.5 1.5c-30 0 -54 -1.5 -72 -4.5s-31 -9.16699 -39 -18.5c-8.66699 -8.66699 -16.667 -22.334 -24 -41.001
s-13.333 -44.5 -18 -77.5s-7 -75.5 -7 -127.5c0 -65.333 6.16699 -117.166 18.5 -155.499s24.833 -63.166 37.5 -74.499c8.66699 -7.33301 19.167 -12.833 31.5 -16.5s26.833 -5.5 43.5 -5.5c24 0 47.833 2.66699 71.5 8s45.167 11.666 64.5 18.999
s34.833 13.666 46.5 18.999l17.5 8l37 -90l-17 -9.5c-11.333 -6.33301 -27 -13.833 -47 -22.5s-44 -16.334 -72 -23.001s-58.667 -10 -92 -10zM302.998 747.003l-142 98l30 48l139 -60h7l138 60l30 -48l-141 -98h-61z" />
    <glyph glyph-name="ccaron" unicode="&#x10d;" horiz-adv-x="530" 
d="M306 -13c-48 0 -90.5 10.332 -127.5 30.999s-66 53.667 -87 99s-31.5 104.333 -31.5 177c0 60 7 109.833 21 149.5s33.333 70.667 58 93s53.334 38.166 86.001 47.499s67.667 14 105 14c30.667 0 60 -2.16699 88 -6.5s50 -8.5 66 -12.5l-13 -91l-67.5 8.5
c-29 3.66699 -58.167 5.5 -87.5 5.5c-26 0 -46.333 -2 -61 -6s-26 -10 -34 -18c-12.667 -13.333 -22.834 -36.166 -30.501 -68.499s-11.5 -71.833 -11.5 -118.5c0 -43.333 3.16699 -78.166 9.5 -104.499s14 -46.333 23 -60s17.167 -23.167 24.5 -28.5
c4.66699 -4 11.334 -7.66699 20.001 -11s21 -5 37 -5c17.333 0 36 2.33301 56 7s38.833 10.167 56.5 16.5s32 11.833 43 16.5l16.5 7l33 -85l-23.5 -14.5c-15.667 -9.66699 -37.834 -19.167 -66.501 -28.5s-62.667 -14 -102 -14zM283 660.999l-142 107l31 46l138 -68h7
l138 68l30 -46l-141 -107h-61z" />
    <glyph glyph-name="Dcaron" unicode="&#x10e;" horiz-adv-x="650" 
d="M311 -14c-18 0 -38.1689 0.49707 -60.502 1.49707s-44.166 2.33301 -65.499 4s-40.166 3.33398 -56.499 5.00098s-27.5 2.83398 -33.5 3.50098v699c6 0.666992 17.167 1.66699 33.5 3s35.833 2.83301 58.5 4.5s45.834 3 69.501 4s45.5 1.5 65.5 1.5
c55.333 0 100.5 -9.33301 135.5 -28s61.833 -44.5 80.5 -77.5s31.667 -70.833 39 -113.5s11 -87.667 11 -135c0 -92.667 -11.833 -166.167 -35.5 -220.5s-56.334 -93.166 -98.001 -116.499s-89.5 -35 -143.5 -35zM308.998 86.9971c30 0 52.8311 2.33105 68.498 6.99805
s27.167 10.334 34.5 17.001c8.66699 8.66699 16.834 22 24.501 40s14 44 19 78s7.5 78.667 7.5 134c0 56.667 -3.83301 105.667 -11.5 147s-20.167 69 -37.5 83c-5.33301 4.66699 -14.666 8.83398 -27.999 12.501s-34 5.5 -62 5.5c-29.333 0 -54.333 -1 -75 -3
s-39 -4 -55 -6l18 55v-614l-19 55c16.667 -2 33.5 -4.33301 50.5 -7s38.833 -4 65.5 -4zM287.996 746.995l-142 98l30 48l139 -60h7l138 60l30 -48l-141 -98h-61z" />
    <glyph glyph-name="dcaron" unicode="&#x10f;" horiz-adv-x="664" 
d="M253 -13c-36.667 0 -69.501 10.499 -98.501 31.499s-52 53.5 -69 97.5s-25.5 100.333 -25.5 169c0 64 6.5 116.333 19.5 157s30.333 72.334 52 95.001s45.334 38.5 71.001 47.5s51.834 13.5 78.501 13.5c20 0 38.5 -1.33301 55.5 -4s31.5 -5.5 43.5 -8.5s20 -5.5 24 -7.5
v179h115v-757h-75l-13 59h-6c-10.667 -8 -24.334 -17.667 -41.001 -29s-36 -21.333 -58 -30s-46.333 -13 -73 -13zM267.999 83.999c12 0 25.0029 1.83301 39.0029 5.5s27.667 8.16699 41 13.5s25 10.5 35 15.5s17 8.83301 21 11.5v346
c-4.66699 2 -13.334 4.83301 -26.001 8.5s-27.667 7.16699 -45 10.5s-35.666 5 -54.999 5c-32 0 -54 -7 -66 -21c-5.33301 -6 -10.5 -16.167 -15.5 -30.5s-9.16699 -34.833 -12.5 -61.5s-5 -62 -5 -106c0 -49.333 2.16699 -86.666 6.5 -111.999s9.66602 -43 15.999 -53
s11.166 -16.667 14.499 -20c5.33301 -4.66699 12.666 -7.83398 21.999 -9.50098s19.333 -2.5 30 -2.5zM601.002 529.999l-17 227h101l-19 -227h-65z" />
    <glyph glyph-name="Dcroat" unicode="&#x110;" horiz-adv-x="662" 
d="M42 312v89h296v-89h-296zM323 -14c-18 0 -38 0.498047 -60 1.49805s-43.833 2.33301 -65.5 4s-40.5 3.33398 -56.5 5.00098l-33 3.5v699c5.33301 0.666992 16.333 1.66699 33 3l58.5 4.5c22.333 1.66699 45.5 3 69.5 4s45.667 1.5 65 1.5
c55.333 0 100.5 -9.33301 135.5 -28s62 -44.5 81 -77.5s32 -70.833 39 -113.5s10.5 -87.667 10.5 -135c0 -92.667 -11.833 -166.167 -35.5 -220.5s-56.167 -93.166 -97.5 -116.499s-89.333 -35 -144 -35zM321 86.998c30 0 52.834 2.33105 68.501 6.99805
s27.167 10.334 34.5 17.001c8.66699 8.66699 17 22 25 40s14.333 44 19 78s7 78.667 7 134c0 56.667 -3.83301 105.667 -11.5 147s-19.834 69 -36.501 83c-6 4.66699 -15.5 8.83398 -28.5 12.501s-33.833 5.5 -62.5 5.5c-29.333 0 -54.333 -1 -75 -3s-38.667 -4 -54 -6
l17 55v-614l-19 55c16.667 -2 33.667 -4.33301 51 -7s39 -4 65 -4z" />
    <glyph glyph-name="dcroat" unicode="&#x111;" horiz-adv-x="602" 
d="M619 704v-76l-161 3l-206 -3v76h367zM253 -13c-36.667 0 -69.501 10.499 -98.501 31.499s-52 53.5 -69 97.5s-25.5 100.333 -25.5 169c0 64 6.5 116.333 19.5 157s30.333 72.334 52 95.001s45.334 38.5 71.001 47.5s51.834 13.5 78.501 13.5c20 0 38.5 -1.33301 55.5 -4
s31.5 -5.5 43.5 -8.5s20 -5.5 24 -7.5v179h115v-757h-75l-13 59h-6c-10.667 -8 -24.334 -17.667 -41.001 -29s-36 -21.333 -58 -30s-46.333 -13 -73 -13zM267.999 83.999c12 0 25.0029 1.83301 39.0029 5.5s27.667 8.16699 41 13.5s25 10.5 35 15.5s17 8.83301 21 11.5v346
c-4.66699 2 -13.334 4.83301 -26.001 8.5s-27.667 7.16699 -45 10.5s-35.666 5 -54.999 5c-32 0 -54 -7 -66 -21c-5.33301 -6 -10.5 -16.167 -15.5 -30.5s-9.16699 -34.833 -12.5 -61.5s-5 -62 -5 -106c0 -49.333 2.16699 -86.666 6.5 -111.999s9.66602 -43 15.999 -53
s11.166 -16.667 14.499 -20c5.33301 -4.66699 12.666 -7.83398 21.999 -9.50098s19.333 -2.5 30 -2.5z" />
    <glyph glyph-name="Emacron" unicode="&#x112;" horiz-adv-x="531" 
d="M95 0v699h378v-101l-313 3l53 52l-7 -294l-51 45h293v-98h-293l51 47l7 -306l-53 52l313 2v-101h-378zM110 771v79h352v-79h-352z" />
    <glyph glyph-name="emacron" unicode="&#x113;" horiz-adv-x="589" 
d="M312 -14c-49.333 0 -92.832 9.83496 -130.499 29.502s-67 52.167 -88 97.5s-31.5 105.333 -31.5 180c0 78.667 11 140 33 184s51.667 75.333 89 94s79.333 28 126 28c47.333 0 87.5 -8.83301 120.5 -26.5s58.167 -46.834 75.5 -87.501s26 -95 26 -163v-72h-403l53 18
c-1.33301 -34.667 -0.333008 -63.334 3 -86.001s8.16602 -40 14.499 -52s12.833 -21 19.5 -27c8 -7.33301 18 -12.833 30 -16.5s27 -5.5 45 -5.5c18.667 0 38.167 1.66699 58.5 5s39.5 7.33301 57.5 12s34 9.16699 48 13.5l31 9.5l29 -87c-6 -2.66699 -19 -8 -39 -16
s-44.333 -15.333 -73 -22s-60 -10 -94 -10zM182.001 307.002l-53.001 29l337 7l-52 -31c0 40.667 -1.16699 75 -3.5 103s-8.16602 49 -17.499 63c-4.66699 6 -12.167 11.833 -22.5 17.5s-29.5 8.5 -57.5 8.5c-30 0 -52.5 -3.16699 -67.5 -9.5s-26.5 -14.5 -34.5 -24.5
c-22 -26 -31.667 -80.333 -29 -163zM134 680.002v79h353v-79h-353z" />
    <glyph glyph-name="Edotaccent" unicode="&#x116;" horiz-adv-x="531" 
d="M95 0v699h378v-101l-313 3l53 52l-7 -294l-51 45h293v-98h-293l51 47l7 -306l-53 52l313 2v-101h-378zM222 762v94h128v-94h-128z" />
    <glyph glyph-name="edotaccent" unicode="&#x117;" horiz-adv-x="586" 
d="M312 -14c-49.333 0 -92.832 9.83496 -130.499 29.502s-67 52.167 -88 97.5s-31.5 105.333 -31.5 180c0 78.667 11 140 33 184s51.667 75.333 89 94s79.333 28 126 28c47.333 0 87.5 -8.83301 120.5 -26.5s58.167 -46.834 75.5 -87.501s26 -95 26 -163v-72h-403l53 18
c-1.33301 -34.667 -0.333008 -63.334 3 -86.001s8.16602 -40 14.499 -52s12.833 -21 19.5 -27c8 -7.33301 18 -12.833 30 -16.5s27 -5.5 45 -5.5c18.667 0 38.167 1.66699 58.5 5s39.5 7.33301 57.5 12s34 9.16699 48 13.5l31 9.5l29 -87c-6 -2.66699 -19 -8 -39 -16
s-44.333 -15.333 -73 -22s-60 -10 -94 -10zM182.001 307.002l-53.001 29l337 7l-52 -31c0 40.667 -1.16699 75 -3.5 103s-8.16602 49 -17.499 63c-4.66699 6 -12.167 11.833 -22.5 17.5s-29.5 8.5 -57.5 8.5c-30 0 -52.5 -3.16699 -67.5 -9.5s-26.5 -14.5 -34.5 -24.5
c-22 -26 -31.667 -80.333 -29 -163zM247 675.002v96h129v-96h-129z" />
    <glyph glyph-name="Eogonek" unicode="&#x118;" horiz-adv-x="531" 
d="M95 0v699h378v-101l-313 3l53 52l-7 -294l-51 45h293v-98h-293l51 47l7 -306l-53 52l313 2v-101h-378zM403 -179c-30.667 0 -55.3301 6.33301 -73.9971 19s-28 32.667 -28 60c0 16.667 5.16699 32.667 15.5 48s24.166 29.333 41.499 42s35.666 23 54.999 31l60 -21
c-28.667 -10 -51.834 -22.167 -69.501 -36.5s-26.5 -27.833 -26.5 -40.5c0 -10 4.16699 -16.833 12.5 -20.5s19.5 -5.5 33.5 -5.5c10.667 0 21.667 0.666992 33 2l17 2v-72l-20 -4c-13.333 -2.66699 -30 -4 -50 -4z" />
    <glyph glyph-name="eogonek" unicode="&#x119;" horiz-adv-x="589" 
d="M312 -14c-49.333 0 -92.832 9.83496 -130.499 29.502s-67 52.167 -88 97.5s-31.5 105.333 -31.5 180c0 78.667 11 140 33 184s51.667 75.333 89 94s79.333 28 126 28c47.333 0 87.5 -8.83301 120.5 -26.5s58.167 -46.834 75.5 -87.501s26 -95 26 -163v-72h-403l53 18
c-1.33301 -34.667 -0.333008 -63.334 3 -86.001s8.16602 -40 14.499 -52s12.833 -21 19.5 -27c8 -7.33301 18 -12.833 30 -16.5s27 -5.5 45 -5.5c18.667 0 38.167 1.66699 58.5 5s39.5 7.33301 57.5 12s34 9.16699 48 13.5l31 9.5l29 -87c-6 -2.66699 -19 -8 -39 -16
s-44.333 -15.333 -73 -22s-60 -10 -94 -10zM182.001 307.002l-53.001 29l337 7l-52 -31c0 40.667 -1.16699 75 -3.5 103s-8.16602 49 -17.499 63c-4.66699 6 -12.167 11.833 -22.5 17.5s-29.5 8.5 -57.5 8.5c-30 0 -52.5 -3.16699 -67.5 -9.5s-26.5 -14.5 -34.5 -24.5
c-22 -26 -31.667 -80.333 -29 -163zM376 -170.998c-30.667 0 -55.3301 6.33301 -73.9971 19s-28 32.667 -28 60c0 16.667 5.16699 32.667 15.5 48s24.166 29.333 41.499 42s35.666 23 54.999 31l60 -21c-28.667 -10 -51.834 -22.167 -69.501 -36.5
s-26.5 -27.833 -26.5 -40.5c0 -10 4.16699 -16.833 12.5 -20.5s19.5 -5.5 33.5 -5.5c10.667 0 21.667 0.666992 33 2l17 2v-72l-20 -4c-13.333 -2.66699 -30 -4 -50 -4z" />
    <glyph glyph-name="Ecaron" unicode="&#x11a;" horiz-adv-x="531" 
d="M95 0v699h378v-101l-313 3l53 52l-7 -294l-51 45h293v-98h-293l51 47l7 -306l-53 52l313 2v-101h-378zM255 747l-142 98l30 48l139 -60h7l138 60l30 -48l-141 -98h-61z" />
    <glyph glyph-name="ecaron" unicode="&#x11b;" horiz-adv-x="589" 
d="M312 -14c-49.333 0 -92.832 9.83496 -130.499 29.502s-67 52.167 -88 97.5s-31.5 105.333 -31.5 180c0 78.667 11 140 33 184s51.667 75.333 89 94s79.333 28 126 28c47.333 0 87.5 -8.83301 120.5 -26.5s58.167 -46.834 75.5 -87.501s26 -95 26 -163v-72h-403l53 18
c-1.33301 -34.667 -0.333008 -63.334 3 -86.001s8.16602 -40 14.499 -52s12.833 -21 19.5 -27c8 -7.33301 18 -12.833 30 -16.5s27 -5.5 45 -5.5c18.667 0 38.167 1.66699 58.5 5s39.5 7.33301 57.5 12s34 9.16699 48 13.5l31 9.5l29 -87c-6 -2.66699 -19 -8 -39 -16
s-44.333 -15.333 -73 -22s-60 -10 -94 -10zM182.001 307.002l-53.001 29l337 7l-52 -31c0 40.667 -1.16699 75 -3.5 103s-8.16602 49 -17.499 63c-4.66699 6 -12.167 11.833 -22.5 17.5s-29.5 8.5 -57.5 8.5c-30 0 -52.5 -3.16699 -67.5 -9.5s-26.5 -14.5 -34.5 -24.5
c-22 -26 -31.667 -80.333 -29 -163zM279 661.002l-142 107l31 46l138 -68h7l138 68l30 -46l-141 -107h-61z" />
    <glyph glyph-name="Gbreve" unicode="&#x11e;" horiz-adv-x="631" 
d="M339 -13c-36.667 0 -71.8301 4.8291 -105.497 14.4961s-63.334 27.5 -89.001 53.5s-45.834 63 -60.501 111s-22 110 -22 186c0 74.667 7 135.5 21 182.5s33.833 83.5 59.5 109.5s56.5 43.833 92.5 53.5s75.667 14.5 119 14.5c22 0 45.167 -1.16699 69.5 -3.5
s47.5 -5.16602 69.5 -8.49902s39.333 -6.33301 52 -9l-13 -97c-19.333 2 -44.833 4.83301 -76.5 8.5s-67.5 5.5 -107.5 5.5c-32 0 -57.167 -1.66699 -75.5 -5s-32.166 -9.66602 -41.499 -18.999c-11.333 -10.667 -21.833 -34.167 -31.5 -70.5s-14.5 -90.166 -14.5 -161.499
c0 -54 3 -97.167 9 -129.5s12.667 -56.666 20 -72.999s13.666 -27.5 18.999 -33.5c7.33301 -6.66699 19.5 -13 36.5 -19s42.167 -9 75.5 -9c19.333 0 36.666 1 51.999 3s28 4.66699 38 8v239l52 -55l-156 9v85h217v-348l-27 -10.5c-18 -7 -42.833 -14 -74.5 -21
s-67.5 -10.5 -107.5 -10.5zM342.004 742.996c-28.667 0 -55.667 4.83301 -81 14.5s-46 25.167 -62 46.5s-25 49.333 -27 84l67 6c4.66699 -26.667 16 -45.167 34 -55.5s41 -15.5 69 -15.5s50.833 5.16699 68.5 15.5s28.834 28.833 33.501 55.5l67 -6
c-2 -34.667 -11.167 -62.667 -27.5 -84s-36.833 -36.833 -61.5 -46.5s-51.334 -14.5 -80.001 -14.5z" />
    <glyph glyph-name="gbreve" unicode="&#x11f;" horiz-adv-x="541" 
d="M264 -179c-28.667 0 -55.8311 1.49805 -81.498 4.49805s-48.334 6.5 -68.001 10.5s-35.334 7.5 -47.001 10.5l-17.5 4.5l13 95c42.667 -7.33301 85.5 -13.666 128.5 -18.999s83.833 -8 122.5 -8c31.333 0 52.333 2.16699 63 6.5s16 11.166 16 20.499
c0 5.33301 -1.66699 10.166 -5 14.499s-9.83301 9.16602 -19.5 14.499s-24.334 12.166 -44.001 20.499s-45.834 18.833 -78.501 31.5l-73 29.5c-15.333 6.33301 -24.833 10.833 -28.5 13.5s-5.5 5 -5.5 7c0 3.33301 1.83301 10 5.5 20l13 34l14.5 36.5
c4.66699 11.667 8.33398 19.834 11.001 24.501c-45.333 12 -81 34.5 -107 67.5s-39 74.5 -39 124.5c0 54 11.5 96.5 34.5 127.5s53.667 53.167 92 66.5s79.5 20 123.5 20c14 0 30.833 -0.333008 50.5 -1s39.834 -1.66699 60.501 -3s40.167 -2.66602 58.5 -3.99902
s33.166 -2.33301 44.499 -3l17 -1v-70l-64 -10c0 0.666992 2.5 -5.33301 7.5 -18s9.83301 -28.667 14.5 -48s7 -39 7 -59c0 -37.333 -9 -71.166 -27 -101.499s-44.167 -54.166 -78.5 -71.499s-75.833 -26 -124.5 -26c-1.33301 -6 -2.83301 -14.333 -4.5 -25
s-2.5 -17 -2.5 -19s3 -4.33301 9 -7s16 -6.5 30 -11.5s33 -12.5 57 -22.5c40.667 -16.667 72.334 -32.5 95.001 -47.5s38.5 -30.167 47.5 -45.5s13.5 -31.333 13.5 -48c0 -28.667 -10 -53.167 -30 -73.5s-47.5 -35.666 -82.5 -45.999s-75.5 -15.5 -121.5 -15.5z
M260.003 271.998c29.333 0 52.335 3.33594 69.002 10.0029s28.667 18.834 36 36.501s11 42.167 11 73.5c0 30.667 -1.83301 55.667 -5.5 75s-7.5 30.666 -11.5 33.999c-2 1.33301 -7 2.66602 -15 3.99902s-17 2.16602 -27 2.49902s-19.333 0.666016 -28 0.999023
s-14.334 0.5 -17.001 0.5c-30.667 0 -55.334 -3 -74.001 -9s-32 -17.667 -40 -35s-12 -43 -12 -77c0 -45.333 8.5 -76 25.5 -92s46.5 -24 88.5 -24zM274.005 651.001c-28.667 0 -55.501 5 -80.501 15s-45.5 26 -61.5 48s-25 51.667 -27 89l67 7
c4.66699 -30 15.834 -50.333 33.501 -61s40.5 -16 68.5 -16s51 5.33301 69 16s29.333 31 34 61l67 -7c-2.66699 -37.333 -12 -67 -28 -89s-36.333 -38 -61 -48s-51.667 -15 -81 -15z" />
    <glyph glyph-name="Gdotaccent" unicode="&#x120;" horiz-adv-x="631" 
d="M339 -13c-36.667 0 -71.8301 4.8291 -105.497 14.4961s-63.334 27.5 -89.001 53.5s-45.834 63 -60.501 111s-22 110 -22 186c0 74.667 7 135.5 21 182.5s33.833 83.5 59.5 109.5s56.5 43.833 92.5 53.5s75.667 14.5 119 14.5c22 0 45.167 -1.16699 69.5 -3.5
s47.5 -5.16602 69.5 -8.49902s39.333 -6.33301 52 -9l-13 -97c-19.333 2 -44.833 4.83301 -76.5 8.5s-67.5 5.5 -107.5 5.5c-32 0 -57.167 -1.66699 -75.5 -5s-32.166 -9.66602 -41.499 -18.999c-11.333 -10.667 -21.833 -34.167 -31.5 -70.5s-14.5 -90.166 -14.5 -161.499
c0 -54 3 -97.167 9 -129.5s12.667 -56.666 20 -72.999s13.666 -27.5 18.999 -33.5c7.33301 -6.66699 19.5 -13 36.5 -19s42.167 -9 75.5 -9c19.333 0 36.666 1 51.999 3s28 4.66699 38 8v239l52 -55l-156 9v85h217v-348l-27 -10.5c-18 -7 -42.833 -14 -74.5 -21
s-67.5 -10.5 -107.5 -10.5zM278.004 761.996v94h128v-94h-128z" />
    <glyph glyph-name="gdotaccent" unicode="&#x121;" horiz-adv-x="541" 
d="M264 -179c-28.667 0 -55.8311 1.49805 -81.498 4.49805s-48.334 6.5 -68.001 10.5s-35.334 7.5 -47.001 10.5l-17.5 4.5l13 95c42.667 -7.33301 85.5 -13.666 128.5 -18.999s83.833 -8 122.5 -8c31.333 0 52.333 2.16699 63 6.5s16 11.166 16 20.499
c0 5.33301 -1.66699 10.166 -5 14.499s-9.83301 9.16602 -19.5 14.499s-24.334 12.166 -44.001 20.499s-45.834 18.833 -78.501 31.5l-73 29.5c-15.333 6.33301 -24.833 10.833 -28.5 13.5s-5.5 5 -5.5 7c0 3.33301 1.83301 10 5.5 20l13 34l14.5 36.5
c4.66699 11.667 8.33398 19.834 11.001 24.501c-45.333 12 -81 34.5 -107 67.5s-39 74.5 -39 124.5c0 54 11.5 96.5 34.5 127.5s53.667 53.167 92 66.5s79.5 20 123.5 20c14 0 30.833 -0.333008 50.5 -1s39.834 -1.66699 60.501 -3s40.167 -2.66602 58.5 -3.99902
s33.166 -2.33301 44.499 -3l17 -1v-70l-64 -10c0 0.666992 2.5 -5.33301 7.5 -18s9.83301 -28.667 14.5 -48s7 -39 7 -59c0 -37.333 -9 -71.166 -27 -101.499s-44.167 -54.166 -78.5 -71.499s-75.833 -26 -124.5 -26c-1.33301 -6 -2.83301 -14.333 -4.5 -25
s-2.5 -17 -2.5 -19s3 -4.33301 9 -7s16 -6.5 30 -11.5s33 -12.5 57 -22.5c40.667 -16.667 72.334 -32.5 95.001 -47.5s38.5 -30.167 47.5 -45.5s13.5 -31.333 13.5 -48c0 -28.667 -10 -53.167 -30 -73.5s-47.5 -35.666 -82.5 -45.999s-75.5 -15.5 -121.5 -15.5z
M260.003 271.998c29.333 0 52.335 3.33594 69.002 10.0029s28.667 18.834 36 36.501s11 42.167 11 73.5c0 30.667 -1.83301 55.667 -5.5 75s-7.5 30.666 -11.5 33.999c-2 1.33301 -7 2.66602 -15 3.99902s-17 2.16602 -27 2.49902s-19.333 0.666016 -28 0.999023
s-14.334 0.5 -17.001 0.5c-30.667 0 -55.334 -3 -74.001 -9s-32 -17.667 -40 -35s-12 -43 -12 -77c0 -45.333 8.5 -76 25.5 -92s46.5 -24 88.5 -24zM212.005 675.001v96h129v-96h-129z" />
    <glyph glyph-name="uni0122" unicode="&#x122;" horiz-adv-x="631" 
d="M339 -13c-36.667 0 -71.8301 4.8291 -105.497 14.4961s-63.334 27.5 -89.001 53.5s-45.834 63 -60.501 111s-22 110 -22 186c0 74.667 7 135.5 21 182.5s33.833 83.5 59.5 109.5s56.5 43.833 92.5 53.5s75.667 14.5 119 14.5c22 0 45.167 -1.16699 69.5 -3.5
s47.5 -5.16602 69.5 -8.49902s39.333 -6.33301 52 -9l-13 -97c-19.333 2 -44.833 4.83301 -76.5 8.5s-67.5 5.5 -107.5 5.5c-32 0 -57.167 -1.66699 -75.5 -5s-32.166 -9.66602 -41.499 -18.999c-11.333 -10.667 -21.833 -34.167 -31.5 -70.5s-14.5 -90.166 -14.5 -161.499
c0 -54 3 -97.167 9 -129.5s12.667 -56.666 20 -72.999s13.666 -27.5 18.999 -33.5c7.33301 -6.66699 19.5 -13 36.5 -19s42.167 -9 75.5 -9c19.333 0 36.666 1 51.999 3s28 4.66699 38 8v239l52 -55l-156 9v85h217v-348l-27 -10.5c-18 -7 -42.833 -14 -74.5 -21
s-67.5 -10.5 -107.5 -10.5zM282.004 -242.004l-25 44.001c16 8.66699 26.833 21.667 32.5 39s8.5 42.666 8.5 75.999v29h90v-23c-1.33301 -36 -7.33301 -65.167 -18 -87.5s-24 -39.5 -40 -51.5s-32 -20.667 -48 -26z" />
    <glyph glyph-name="uni0123" unicode="&#x123;" horiz-adv-x="541" 
d="M264 -179c-28.667 0 -55.8311 1.49805 -81.498 4.49805s-48.334 6.5 -68.001 10.5s-35.334 7.5 -47.001 10.5l-17.5 4.5l13 95c42.667 -7.33301 85.5 -13.666 128.5 -18.999s83.833 -8 122.5 -8c31.333 0 52.333 2.16699 63 6.5s16 11.166 16 20.499
c0 5.33301 -1.66699 10.166 -5 14.499s-9.83301 9.16602 -19.5 14.499s-24.334 12.166 -44.001 20.499s-45.834 18.833 -78.501 31.5l-73 29.5c-15.333 6.33301 -24.833 10.833 -28.5 13.5s-5.5 5 -5.5 7c0 3.33301 1.83301 10 5.5 20l13 34l14.5 36.5
c4.66699 11.667 8.33398 19.834 11.001 24.501c-45.333 12 -81 34.5 -107 67.5s-39 74.5 -39 124.5c0 54 11.5 96.5 34.5 127.5s53.667 53.167 92 66.5s79.5 20 123.5 20c14 0 30.833 -0.333008 50.5 -1s39.834 -1.66699 60.501 -3s40.167 -2.66602 58.5 -3.99902
s33.166 -2.33301 44.499 -3l17 -1v-70l-64 -10c0 0.666992 2.5 -5.33301 7.5 -18s9.83301 -28.667 14.5 -48s7 -39 7 -59c0 -37.333 -9 -71.166 -27 -101.499s-44.167 -54.166 -78.5 -71.499s-75.833 -26 -124.5 -26c-1.33301 -6 -2.83301 -14.333 -4.5 -25
s-2.5 -17 -2.5 -19s3 -4.33301 9 -7s16 -6.5 30 -11.5s33 -12.5 57 -22.5c40.667 -16.667 72.334 -32.5 95.001 -47.5s38.5 -30.167 47.5 -45.5s13.5 -31.333 13.5 -48c0 -28.667 -10 -53.167 -30 -73.5s-47.5 -35.666 -82.5 -45.999s-75.5 -15.5 -121.5 -15.5z
M260.003 271.998c29.333 0 52.335 3.33594 69.002 10.0029s28.667 18.834 36 36.501s11 42.167 11 73.5c0 30.667 -1.83301 55.667 -5.5 75s-7.5 30.666 -11.5 33.999c-2 1.33301 -7 2.66602 -15 3.99902s-17 2.16602 -27 2.49902s-19.333 0.666016 -28 0.999023
s-14.334 0.5 -17.001 0.5c-30.667 0 -55.334 -3 -74.001 -9s-32 -17.667 -40 -35s-12 -43 -12 -77c0 -45.333 8.5 -76 25.5 -92s46.5 -24 88.5 -24zM216.005 837.001l-25 -44.001c16 -8.66699 26.833 -21.667 32.5 -39s8.5 -42.666 8.5 -75.999v-29h90v23
c-1.33301 36 -7.33301 65.167 -18 87.5s-24 39.5 -40 51.5s-32 20.667 -48 26z" />
    <glyph glyph-name="Hbar" unicode="&#x126;" horiz-adv-x="683" 
d="M654 605v-87h-625v87h625zM95 0v699h117l-3 -331l-52 38h369l-52 -38l-3 331h117v-699h-117l3 343l52 -38h-369l52 38l3 -343h-117z" />
    <glyph glyph-name="hbar" unicode="&#x127;" horiz-adv-x="611" 
d="M92 757h116.001v-252c16 7.33301 34.167 14.833 54.5 22.5s41.166 14.334 62.499 20.001s42 8.5 62 8.5c40 0 71 -8.66699 93 -26s37.5 -42 46.5 -74s13.5 -69.667 13.5 -113v-343h-114v315c0 33.333 -1.33301 59 -4 77s-7.33398 32 -14.001 42
c-5.33301 7.33301 -12.333 12.166 -21 14.499s-19 3.5 -31 3.5c-12.667 0 -26.167 -1.5 -40.5 -4.5s-28.666 -6.83301 -42.999 -11.5l-38.5 -13c-11.333 -4 -20 -7.33301 -26 -10v-413h-116v757zM-3.99902 612v83h345v-83l-191 2z" />
    <glyph glyph-name="Itilde" unicode="&#x128;" horiz-adv-x="308" 
d="M240 746c-11.333 0 -25.002 2.33301 -41.002 7s-32 10 -48 16l-43 16c-12.667 4.66699 -21.667 7 -27 7c-4 0 -8.16699 -3.5 -12.5 -10.5s-7.83301 -14 -10.5 -21l-4 -10.5l-63 8c0.666992 41.333 8 70.333 22 87s32.667 25 56 25c12 0 25.833 -2.16699 41.5 -6.5
s31.5 -9.33301 47.5 -15l43 -15.5c12.667 -4.66699 21.667 -7 27 -7c4.66699 0 8.83398 3.5 12.501 10.5s6.83398 13.833 9.50098 20.5l4 10l63 -9c0 -40.667 -6.83301 -69.5 -20.5 -86.5s-32.5 -25.5 -56.5 -25.5zM94.998 -1l4 322l-4 378h118l-4 -310l4 -389z" />
    <glyph glyph-name="itilde" unicode="&#x129;" horiz-adv-x="302" 
d="M239 661c-10.667 0 -23.667 2.5 -39 7.5s-31 10.667 -47 17s-30.5 11.833 -43.5 16.5s-22.167 7 -27.5 7c-4 0 -8.16699 -3.5 -12.5 -10.5s-7.83301 -14.333 -10.5 -22l-4 -11.5l-63 8c0.666992 41.333 8 70.5 22 87.5s33 25.5 57 25.5c10.667 0 23.667 -2.33301 39 -7
s30.833 -10 46.5 -16l43 -16c13 -4.66699 22.167 -7 27.5 -7c4 0 8 3.5 12 10.5s7.33301 14.167 10 21.5l4 11l62 -9c0 -40.667 -6.83301 -69.667 -20.5 -87s-32.167 -26 -55.5 -26zM93 0v585h116v-585h-116z" />
    <glyph glyph-name="Imacron" unicode="&#x12a;" horiz-adv-x="308" 
d="M7 762v77h295v-77h-295zM95 -1l4 322l-4 378h118l-4 -310l4 -389z" />
    <glyph glyph-name="imacron" unicode="&#x12b;" horiz-adv-x="302" 
d="M3 680v79h296v-79h-296zM93 0v585h116v-585h-116z" />
    <glyph glyph-name="Iogonek" unicode="&#x12e;" horiz-adv-x="308" 
d="M95 -1l4 322l-4 378h118l-4 -310l4 -389zM143 -179c-30.667 0 -55.3301 6.33301 -73.9971 19s-28 32.667 -28 60c0 16.667 5.16699 32.667 15.5 48s24.166 29.333 41.499 42s35.666 23 54.999 31l60 -21c-28.667 -10 -51.834 -22.167 -69.501 -36.5
s-26.5 -27.833 -26.5 -40.5c0 -10 4.16699 -16.833 12.5 -20.5s19.5 -5.5 33.5 -5.5c10.667 0 21.667 0.666992 33 2l17 2v-72l-20 -4c-13.333 -2.66699 -30 -4 -50 -4z" />
    <glyph glyph-name="iogonek" unicode="&#x12f;" horiz-adv-x="302" 
d="M93 0v585h116v-585h-116zM87 675v96h129v-96h-129zM135 -179c-30.667 0 -55.3301 6.33301 -73.9971 19s-28 32.667 -28 60c0 16.667 5.16699 32.667 15.5 48s24.166 29.333 41.499 42s35.666 23 54.999 31l60 -21c-28.667 -10 -51.834 -22.167 -69.501 -36.5
s-26.5 -27.833 -26.5 -40.5c0 -10 4.16699 -16.833 12.5 -20.5s19.5 -5.5 33.5 -5.5c10.667 0 21.667 0.666992 33 2l17 2v-72l-20 -4c-13.333 -2.66699 -30 -4 -50 -4z" />
    <glyph glyph-name="Idotaccent" unicode="&#x130;" horiz-adv-x="308" 
d="M95 -1l4 322l-4 378h118l-4 -310l4 -389zM90 762v94h128v-94h-128z" />
    <glyph glyph-name="dotlessi" unicode="&#x131;" horiz-adv-x="302" 
d="M93 0v585h116v-585h-116z" />
    <glyph glyph-name="IJ" unicode="&#x132;" horiz-adv-x="645" 
d="M95 -1l4 322l-4 378h118l-4 -310l4 -389zM373 -13c-12 0 -23.667 0.666992 -35 2s-21 2.83301 -29 4.5s-13 2.5 -15 2.5l12 100l34.5 -5.5c15 -2.33301 29.167 -3.5 42.5 -3.5c12 0 22 3 30 9s14.167 19.333 18.5 40s6.5 53 6.5 97v466h117v-458
c0 -63.333 -8 -113.5 -24 -150.5s-37.667 -63.5 -65 -79.5s-58.333 -24 -93 -24z" />
    <glyph glyph-name="ij" unicode="&#x133;" horiz-adv-x="632" 
d="M93 0v585h116v-585h-116zM87 675v96h129v-96h-129zM363 -180c-10.667 0 -22.4971 0.667969 -35.4971 2.00098s-23.833 2.66602 -32.5 3.99902l-13 2l12 97l11 -1.5c7.33301 -1 16.666 -2 27.999 -3s22 -1.5 32 -1.5c16 0 28 3 36 9s13.333 18.833 16 38.5s4 50.5 4 92.5
v526h115v-525c0 -60 -7.83301 -107.5 -23.5 -142.5s-36.834 -60 -63.501 -75s-55.334 -22.5 -86.001 -22.5zM416.003 675.001v96h130v-96h-130z" />
    <glyph glyph-name="Jcircumflex" unicode="&#x134;" horiz-adv-x="337" 
d="M53 741l-29 51l130 92h61l130 -92l-29 -51l-128 57h-7zM65 -13c-12 0 -23.667 0.666992 -35 2s-21 2.83301 -29 4.5s-13 2.5 -15 2.5l12 100l34.5 -5.5c15 -2.33301 29.167 -3.5 42.5 -3.5c12 0 22 3 30 9s14.167 19.333 18.5 40s6.5 53 6.5 97v466h117v-458
c0 -63.333 -8 -113.5 -24 -150.5s-37.667 -63.5 -65 -79.5s-58.333 -24 -93 -24z" />
    <glyph glyph-name="jcircumflex" unicode="&#x135;" horiz-adv-x="325" 
d="M53 653l-33 46l129 105h62l129 -105l-32 -46l-124 66h-7zM67 -180c-10.667 0 -22.4971 0.667969 -35.4971 2.00098s-23.833 2.66602 -32.5 3.99902l-13 2l12 97l11 -1.5c7.33301 -1 16.666 -2 27.999 -3s22 -1.5 32 -1.5c16 0 28 3 36 9s13.333 18.833 16 38.5
s4 50.5 4 92.5v526h115v-525c0 -60 -7.83301 -107.5 -23.5 -142.5s-36.834 -60 -63.501 -75s-55.334 -22.5 -86.001 -22.5z" />
    <glyph glyph-name="uni0136" unicode="&#x136;" horiz-adv-x="616" 
d="M484 0l-269 362l250 337h141l-261 -330v-6l283 -363h-144zM95 0l3 355l-3 344h117v-699h-117zM263 -242l-25 44.001c16 8.66699 26.833 21.667 32.5 39s8.5 42.666 8.5 75.999v29h90v-23c-1.33301 -36 -7.33301 -65.167 -18 -87.5s-24 -39.5 -40 -51.5
s-32 -20.667 -48 -26z" />
    <glyph glyph-name="uni0137" unicode="&#x137;" horiz-adv-x="557" 
d="M431 0l-234 314l215 271h143l-234 -265v-5l255 -315h-145zM83 0l4 321l-4 436h115v-757h-115zM240 -242l-25 44.001c16 8.66699 26.833 21.667 32.5 39s8.5 42.666 8.5 75.999v29h90v-23c-1.33301 -36 -7.33301 -65.167 -18 -87.5s-24 -39.5 -40 -51.5
s-32 -20.667 -48 -26z" />
    <glyph glyph-name="kgreenlandic" unicode="&#x138;" horiz-adv-x="559" 
d="M433 0h145l-255 314v5l235 266h-143l-248 -313l2 85zM85 0l5 309l-4 276h78l36 -93v-492h-115z" />
    <glyph glyph-name="Lacute" unicode="&#x139;" horiz-adv-x="472" 
d="M95 0v699h117l-5 -652l-52 56l311 3v-106h-371zM40 741l-19 65l256 80l28 -90z" />
    <glyph glyph-name="lacute" unicode="&#x13a;" horiz-adv-x="299" 
d="M41 807l-19 65l256 80l28 -90zM92 0v757h115v-757h-115z" />
    <glyph glyph-name="uni013B" unicode="&#x13b;" horiz-adv-x="472" 
d="M95 0v699h117l-5 -652l-52 56l311 3v-106h-371zM202 -242l-25 44.001c16 8.66699 26.833 21.667 32.5 39s8.5 42.666 8.5 75.999v29h90v-23c-1.33301 -36 -7.33301 -65.167 -18 -87.5s-24 -39.5 -40 -51.5s-32 -20.667 -48 -26z" />
    <glyph glyph-name="uni013C" unicode="&#x13c;" horiz-adv-x="299" 
d="M92 0v757h115v-757h-115zM92 -242l-25 44.001c16 8.66699 26.833 21.667 32.5 39s8.5 42.666 8.5 75.999v29h90v-23c-1.33301 -36 -7.33301 -65.167 -18 -87.5s-24 -39.5 -40 -51.5s-32 -20.667 -48 -26z" />
    <glyph glyph-name="Lcaron" unicode="&#x13d;" horiz-adv-x="472" 
d="M95 0v699h117l-5 -652l-52 56l311 3v-106h-371zM123 747l-142 98l30 48l139 -60h7l138 60l30 -48l-141 -98h-61z" />
    <glyph glyph-name="lcaron" unicode="&#x13e;" horiz-adv-x="352" 
d="M93 0v757h115v-757h-115zM289 530l-17 227h101l-19 -227h-65z" />
    <glyph glyph-name="Ldotaccent" unicode="&#x13f;" horiz-adv-x="472" 
d="M298 341v108h129v-108h-129zM95 0v699h117l-5 -652l-52 56l311 3v-106h-371z" />
    <glyph glyph-name="ldot" unicode="&#x140;" horiz-adv-x="429" 
d="M286 352v112h128v-112h-128zM104 0v757h115v-757h-115z" />
    <glyph glyph-name="Lslash" unicode="&#x141;" horiz-adv-x="459" 
d="M9 229v94l335 211v-95zM93 0v699h117l-5 -652l-52 56l311 3v-106h-371z" />
    <glyph glyph-name="lslash" unicode="&#x142;" horiz-adv-x="322" 
d="M106 0v312l-87 -54v95l87 54v350h115v-277l81 52v-97l-81 -51v-384h-115z" />
    <glyph glyph-name="Nacute" unicode="&#x143;" horiz-adv-x="696" 
d="M95 0v699h153l253 -558h4l-14 558h111v-699h-153l-252 558h-5l14 -558h-111zM257 741l-19 65l256 80l28 -90z" />
    <glyph glyph-name="nacute" unicode="&#x144;" horiz-adv-x="615" 
d="M91 0v585h75l14 -58h5l36 20c14.667 8 31.334 16 50.001 24s38.667 14.5 60 19.5s43 7.5 65 7.5c38.667 0 68.167 -9.33301 88.5 -28s34.166 -44 41.499 -76s11 -68 11 -108v-386h-116v357c0 34 -0.666992 59.833 -2 77.5s-5.33301 31.167 -12 40.5
c-4.66699 7.33301 -11.334 12.166 -20.001 14.499s-18 3.5 -28 3.5c-19.333 0 -39.166 -3 -59.499 -9s-38.833 -12.667 -55.5 -20s-29 -13.666 -37 -18.999v-445h-116zM220 650l-21 64l233 87l31 -88z" />
    <glyph glyph-name="uni0145" unicode="&#x145;" horiz-adv-x="696" 
d="M95 0v699h153l253 -558h4l-14 558h111v-699h-153l-252 558h-5l14 -558h-111zM294 -242l-25 44.001c16 8.66699 26.833 21.667 32.5 39s8.5 42.666 8.5 75.999v29h90v-23c-1.33301 -36 -7.33301 -65.167 -18 -87.5s-24 -39.5 -40 -51.5s-32 -20.667 -48 -26z" />
    <glyph glyph-name="uni0146" unicode="&#x146;" horiz-adv-x="615" 
d="M91 0v585h75l14 -58h5l36 20c14.667 8 31.334 16 50.001 24s38.667 14.5 60 19.5s43 7.5 65 7.5c38.667 0 68.167 -9.33301 88.5 -28s34.166 -44 41.499 -76s11 -68 11 -108v-386h-116v357c0 34 -0.666992 59.833 -2 77.5s-5.33301 31.167 -12 40.5
c-4.66699 7.33301 -11.334 12.166 -20.001 14.499s-18 3.5 -28 3.5c-19.333 0 -39.166 -3 -59.499 -9s-38.833 -12.667 -55.5 -20s-29 -13.666 -37 -18.999v-445h-116zM262 -242l-25 44.001c16 8.66699 26.833 21.667 32.5 39s8.5 42.666 8.5 75.999v29h90v-23
c-1.33301 -36 -7.33301 -65.167 -18 -87.5s-24 -39.5 -40 -51.5s-32 -20.667 -48 -26z" />
    <glyph glyph-name="Ncaron" unicode="&#x147;" horiz-adv-x="696" 
d="M95 0v699h153l253 -558h4l-14 558h111v-699h-153l-252 558h-5l14 -558h-111zM317 747l-142 98l30 48l139 -60h7l138 60l30 -48l-141 -98h-61z" />
    <glyph glyph-name="ncaron" unicode="&#x148;" horiz-adv-x="615" 
d="M91 0v585h75l14 -58h5l36 20c14.667 8 31.334 16 50.001 24s38.667 14.5 60 19.5s43 7.5 65 7.5c38.667 0 68.167 -9.33301 88.5 -28s34.166 -44 41.499 -76s11 -68 11 -108v-386h-116v357c0 34 -0.666992 59.833 -2 77.5s-5.33301 31.167 -12 40.5
c-4.66699 7.33301 -11.334 12.166 -20.001 14.499s-18 3.5 -28 3.5c-19.333 0 -39.166 -3 -59.499 -9s-38.833 -12.667 -55.5 -20s-29 -13.666 -37 -18.999v-445h-116zM284 661l-142 107l31 46l138 -68h7l138 68l30 -46l-141 -107h-61z" />
    <glyph glyph-name="Eng" unicode="&#x14a;" horiz-adv-x="696" 
d="M418 -115l27.999 -0.000976562c8.66699 0 16.834 2.16699 24.501 6.5s11.5 11.166 11.5 20.499c0 12.667 -3.83301 26.834 -11.5 42.501l-21.5 45.5h153v-33v-34c0 -27.333 -5.16699 -50.666 -15.5 -69.999s-25.833 -34 -46.5 -44s-46.667 -15 -78 -15h-44v81z
M94.999 -0.000976562v699h153l253 -558h4l-14 558h111v-699h-153l-252 558h-5l14 -558h-111z" />
    <glyph glyph-name="eng" unicode="&#x14b;" horiz-adv-x="615" 
d="M91 0v585.001h75l14 -58h5l36 20c14.667 8 31.334 16 50.001 24s38.667 14.5 60 19.5s43 7.5 65 7.5c38.667 0 68.167 -9.33301 88.5 -28s34.166 -44 41.499 -76s11 -68 11 -108v-306c0 -56.667 -8.33301 -101.834 -25 -135.501s-38.334 -58 -65.001 -73
s-56 -22.5 -88 -22.5c-10.667 0 -21.167 0.5 -31.5 1.5s-23.166 2.83301 -38.499 5.5l13 96c10 -1.33301 20.167 -2.5 30.5 -3.5s21.833 -1.5 34.5 -1.5s23 2.5 31 7.5s13.833 15.667 17.5 32s5.5 40.833 5.5 73.5v297c0 34 -0.666992 59.833 -2 77.5
s-5.33301 31.167 -12 40.5c-4.66699 7.33301 -11.334 12.166 -20.001 14.499s-18 3.5 -28 3.5c-19.333 0 -39.166 -3 -59.499 -9s-38.833 -12.667 -55.5 -20s-29 -13.666 -37 -18.999v-445h-116z" />
    <glyph glyph-name="Omacron" unicode="&#x14c;" horiz-adv-x="676" 
d="M338 -14c-37.333 0 -72.666 5.33301 -105.999 16s-62.833 29.334 -88.5 56.001s-45.667 63.667 -60 111s-21.5 108 -21.5 182c0 73.333 7.16699 133.5 21.5 180.5s34.333 83.667 60 110s55.167 44.666 88.5 54.999s68.666 15.5 105.999 15.5
c38 0 73.5 -5.16699 106.5 -15.5s62.333 -28.666 88 -54.999s45.667 -63 60 -110s21.5 -107.167 21.5 -180.5c0 -74 -7.16699 -134.667 -21.5 -182s-34.333 -84.333 -60 -111s-55 -45.334 -88 -56.001s-68.5 -16 -106.5 -16zM338 90c26.667 0 49.501 3 68.501 9
s34.833 18 47.5 36s22 44 28 78s9 79 9 135c0 56.667 -2.83301 102.167 -8.5 136.5s-14.667 60.5 -27 78.5s-28.333 30 -48 36s-42.834 9 -69.501 9c-27.333 0 -50.666 -3 -69.999 -9s-35.166 -18 -47.499 -36s-21.5 -44.167 -27.5 -78.5s-9 -79.833 -9 -136.5
c0 -56 3.16699 -101 9.5 -135s15.666 -60 27.999 -78s28.166 -30 47.499 -36s42.333 -9 69 -9zM162.001 771v79h352v-79h-352z" />
    <glyph glyph-name="omacron" unicode="&#x14d;" horiz-adv-x="592" 
d="M297 -13c-60 0 -107.167 12.333 -141.5 37s-58.833 59.834 -73.5 105.501s-22 100.167 -22 163.5c0 62.667 7.33301 116.667 22 162s39.167 80.5 73.5 105.5s81.5 37.5 141.5 37.5c59.333 0 106.166 -12.5 140.499 -37.5s58.666 -60.167 72.999 -105.5
s21.5 -99.666 21.5 -162.999c0 -62.667 -7.16699 -116.834 -21.5 -162.501s-38.666 -80.834 -72.999 -105.501s-81.166 -37 -140.499 -37zM297 80c22.667 0 41.5 2.83301 56.5 8.5s27 16 36 31s15.333 36.5 19 64.5s5.5 64.333 5.5 109c0 44 -1.83301 80 -5.5 108
s-10 49.5 -19 64.5s-21.167 25.333 -36.5 31s-34 8.5 -56 8.5c-22.667 0 -41.667 -2.83301 -57 -8.5s-27.5 -16 -36.5 -31s-15.667 -36.5 -20 -64.5s-6.5 -64 -6.5 -108c0 -44.667 2.16699 -81 6.5 -109s11 -49.5 20 -64.5s21.167 -25.333 36.5 -31s34.333 -8.5 57 -8.5z
M120 680v79h353v-79h-353z" />
    <glyph glyph-name="Ohungarumlaut" unicode="&#x150;" horiz-adv-x="676" 
d="M338 -14c-37.333 0 -72.666 5.33301 -105.999 16s-62.833 29.334 -88.5 56.001s-45.667 63.667 -60 111s-21.5 108 -21.5 182c0 73.333 7.16699 133.5 21.5 180.5s34.333 83.667 60 110s55.167 44.666 88.5 54.999s68.666 15.5 105.999 15.5
c38 0 73.5 -5.16699 106.5 -15.5s62.333 -28.666 88 -54.999s45.667 -63 60 -110s21.5 -107.167 21.5 -180.5c0 -74 -7.16699 -134.667 -21.5 -182s-34.333 -84.333 -60 -111s-55 -45.334 -88 -56.001s-68.5 -16 -106.5 -16zM338 90c26.667 0 49.501 3 68.501 9
s34.833 18 47.5 36s22 44 28 78s9 79 9 135c0 56.667 -2.83301 102.167 -8.5 136.5s-14.667 60.5 -27 78.5s-28.333 30 -48 36s-42.834 9 -69.501 9c-27.333 0 -50.666 -3 -69.999 -9s-35.166 -18 -47.499 -36s-21.5 -44.167 -27.5 -78.5s-9 -79.833 -9 -136.5
c0 -56 3.16699 -101 9.5 -135s15.666 -60 27.999 -78s28.166 -30 47.499 -36s42.333 -9 69 -9zM142.001 745l-24 63l219 89l34 -81zM408.001 745l-23 62l216 84l34 -84z" />
    <glyph glyph-name="ohungarumlaut" unicode="&#x151;" horiz-adv-x="592" 
d="M297 -13c-60 0 -107.167 12.333 -141.5 37s-58.833 59.834 -73.5 105.501s-22 100.167 -22 163.5c0 62.667 7.33301 116.667 22 162s39.167 80.5 73.5 105.5s81.5 37.5 141.5 37.5c59.333 0 106.166 -12.5 140.499 -37.5s58.666 -60.167 72.999 -105.5
s21.5 -99.666 21.5 -162.999c0 -62.667 -7.16699 -116.834 -21.5 -162.501s-38.666 -80.834 -72.999 -105.501s-81.166 -37 -140.499 -37zM297 80c22.667 0 41.5 2.83301 56.5 8.5s27 16 36 31s15.333 36.5 19 64.5s5.5 64.333 5.5 109c0 44 -1.83301 80 -5.5 108
s-10 49.5 -19 64.5s-21.167 25.333 -36.5 31s-34 8.5 -56 8.5c-22.667 0 -41.667 -2.83301 -57 -8.5s-27.5 -16 -36.5 -31s-15.667 -36.5 -20 -64.5s-6.5 -64 -6.5 -108c0 -44.667 2.16699 -81 6.5 -109s11 -49.5 20 -64.5s21.167 -25.333 36.5 -31s34.333 -8.5 57 -8.5z
M167 638l-41 52l152 129l53 -71zM354 638l-40 52l155 129l54 -71z" />
    <glyph glyph-name="OE" unicode="&#x152;" horiz-adv-x="936" 
d="M338 -13c-37.333 0 -72.666 5.33301 -105.999 16s-62.833 29.334 -88.5 56.001s-45.667 63.5 -60 110.5s-21.5 107.5 -21.5 181.5c0 73.333 7.16699 133.5 21.5 180.5s34.333 83.667 60 110s55.167 44.666 88.5 54.999s68.666 15.5 105.999 15.5
c30.667 0 59.5 -4.33301 86.5 -13s50.833 -22 71.5 -40h57l-53 -53v93h378v-103l-261 3l-5 -195h242v-99h-242l5 -205l261 2v-102h-378v93l53 -52h-57c-20.667 -18 -44.5 -31.5 -71.5 -40.5s-55.833 -13.5 -86.5 -13.5zM338 91c26.667 0 49.501 3.16895 68.501 9.50195
s34.833 18.166 47.5 35.499s22 43.166 28 77.499s9 79.166 9 134.499c0 56 -2.83301 101.333 -8.5 136s-14.667 60.834 -27 78.501s-28.333 29.667 -48 36s-42.834 9.5 -69.501 9.5c-27.333 0 -50.666 -3.16699 -69.999 -9.5s-35.166 -18.333 -47.499 -36
s-21.5 -43.834 -27.5 -78.501s-9 -80 -9 -136s3.16699 -101 9.5 -135s15.666 -59.667 27.999 -77s28.166 -29.166 47.499 -35.499s42.333 -9.5 69 -9.5z" />
    <glyph glyph-name="oe" unicode="&#x153;" horiz-adv-x="939" 
d="M297 -13c-60 0 -107.167 12.334 -141.5 37.001s-58.833 59.834 -73.5 105.501s-22 99.834 -22 162.501c0 63.333 7.33301 117.666 22 162.999s39.167 80.5 73.5 105.5s81.5 37.5 141.5 37.5c42.667 0 78.5 -7 107.5 -21s52.5 -33.667 70.5 -59h4
c21.333 29.333 47.666 50 78.999 62s66.333 18 105 18c46.667 0 86.334 -9 119.001 -27s57.667 -47 75 -87s26 -94 26 -162v-72h-347v-20c1.33301 -40.667 6.16602 -70.167 14.499 -88.5s15.833 -30.833 22.5 -37.5c8.66699 -6.66699 18.667 -11.834 30 -15.501
s27 -5.5 47 -5.5c18.667 0 39 1.83301 61 5.5s43 8.33398 63 14.001s36.167 10.5 48.5 14.5l18.5 6l29 -88l-17 -7c-11.333 -4.66699 -26.666 -10.334 -45.999 -17.001s-41.333 -12.334 -66 -17.001s-50.667 -7 -78 -7c-38.667 0 -73.5 6.33301 -104.5 19
s-57.167 32.667 -78.5 60h-4c-18 -25.333 -41.667 -44.833 -71 -58.5s-65.333 -20.5 -108 -20.5zM297 79.001c22.667 0 41.5 2.83301 56.5 8.5s27 16.167 36 31.5s15.333 37 19 65s5.5 64 5.5 108c0 44.667 -1.83301 81 -5.5 109s-10 49.5 -19 64.5s-21 25.333 -36 31
s-33.833 8.5 -56.5 8.5s-41.667 -2.83301 -57 -8.5s-27.5 -16 -36.5 -31s-15.667 -36.5 -20 -64.5s-6.5 -64.333 -6.5 -109c0 -44 2.16699 -80 6.5 -108s11 -49.667 20 -65s21.167 -25.833 36.5 -31.5s34.333 -8.5 57 -8.5zM536 337.001l230.003 4.99902
c-0.666992 32 -2.33398 59.5 -5.00098 82.5s-8 40.5 -16 52.5c-4.66699 7.33301 -12.834 13.5 -24.501 18.5s-30.167 7.5 -55.5 7.5c-28.667 0 -50.334 -3 -65.001 -9s-26 -14.333 -34 -25c-9.33301 -11.333 -16.5 -28.166 -21.5 -50.499s-7.83301 -49.5 -8.5 -81.5z" />
    <glyph glyph-name="Racute" unicode="&#x154;" horiz-adv-x="662" 
d="M95 0l5.00195 328l-4 370c6 0.666992 18 1.83398 36 3.50098s39 3.16699 63 4.5l73.5 4c25 1.33301 47.833 2 68.5 2c49.333 0 92.166 -7.33301 128.499 -22s64.166 -38.334 83.499 -71.001s29 -76.667 29 -132c0 -56.667 -12.333 -102.167 -37 -136.5
s-60.667 -57.833 -108 -70.5v-5l155 -275h-133l-132 264l-110 4v-268h-118zM344.002 359c45.333 0 75.335 10.501 90.002 31.501s22 53.5 22 97.5c0 37.333 -3 65 -9 83s-14 30 -24 36c-6.66699 4.66699 -16.834 8 -30.501 10s-29.167 3 -46.5 3
c-27.333 0 -52.5 -1 -75.5 -3s-42.167 -4 -57.5 -6l-1 -243c21.333 -2.66699 43.666 -4.83398 66.999 -6.50098s45 -2.5 65 -2.5zM209.004 741.001l-19 65l256 80l28 -90z" />
    <glyph glyph-name="racute" unicode="&#x155;" horiz-adv-x="411" 
d="M91 0l-0.000976562 585.002h72l16 -61h6l15 11.5c10 7.66699 23.167 16.167 39.5 25.5s33.833 17.833 52.5 25.5s36.667 11.5 54 11.5c16 0 28.667 -1.33301 38 -4l14 -4l-9 -104l-15 1c-10 0.666992 -20 1 -30 1c-18 0 -35.833 -2.33301 -53.5 -7
s-33.667 -10.334 -48 -17.001s-26.166 -13.334 -35.499 -20.001v-444h-116zM122.999 650.002l-21 64l233 87l31 -88z" />
    <glyph glyph-name="uni0156" unicode="&#x156;" horiz-adv-x="662" 
d="M95 0l5.00195 328l-4 370c6 0.666992 18 1.83398 36 3.50098s39 3.16699 63 4.5l73.5 4c25 1.33301 47.833 2 68.5 2c49.333 0 92.166 -7.33301 128.499 -22s64.166 -38.334 83.499 -71.001s29 -76.667 29 -132c0 -56.667 -12.333 -102.167 -37 -136.5
s-60.667 -57.833 -108 -70.5v-5l155 -275h-133l-132 264l-110 4v-268h-118zM344.002 359c45.333 0 75.335 10.501 90.002 31.501s22 53.5 22 97.5c0 37.333 -3 65 -9 83s-14 30 -24 36c-6.66699 4.66699 -16.834 8 -30.501 10s-29.167 3 -46.5 3
c-27.333 0 -52.5 -1 -75.5 -3s-42.167 -4 -57.5 -6l-1 -243c21.333 -2.66699 43.666 -4.83398 66.999 -6.50098s45 -2.5 65 -2.5zM274.004 -241.999l-25 44.001c16 8.66699 26.833 21.667 32.5 39s8.5 42.666 8.5 75.999v29h90v-23c-1.33301 -36 -7.33301 -65.167 -18 -87.5
s-24 -39.5 -40 -51.5s-32 -20.667 -48 -26z" />
    <glyph glyph-name="uni0157" unicode="&#x157;" horiz-adv-x="411" 
d="M91 0l-0.000976562 585.002h72l16 -61h6l15 11.5c10 7.66699 23.167 16.167 39.5 25.5s33.833 17.833 52.5 25.5s36.667 11.5 54 11.5c16 0 28.667 -1.33301 38 -4l14 -4l-9 -104l-15 1c-10 0.666992 -20 1 -30 1c-18 0 -35.833 -2.33301 -53.5 -7
s-33.667 -10.334 -48 -17.001s-26.166 -13.334 -35.499 -20.001v-444h-116zM92.999 -241.998l-25 44.001c16 8.66699 26.833 21.667 32.5 39s8.5 42.666 8.5 75.999v29h90v-23c-1.33301 -36 -7.33301 -65.167 -18 -87.5s-24 -39.5 -40 -51.5s-32 -20.667 -48 -26z" />
    <glyph glyph-name="Rcaron" unicode="&#x158;" horiz-adv-x="662" 
d="M95 0l5.00195 328l-4 370c6 0.666992 18 1.83398 36 3.50098s39 3.16699 63 4.5l73.5 4c25 1.33301 47.833 2 68.5 2c49.333 0 92.166 -7.33301 128.499 -22s64.166 -38.334 83.499 -71.001s29 -76.667 29 -132c0 -56.667 -12.333 -102.167 -37 -136.5
s-60.667 -57.833 -108 -70.5v-5l155 -275h-133l-132 264l-110 4v-268h-118zM344.002 359c45.333 0 75.335 10.501 90.002 31.501s22 53.5 22 97.5c0 37.333 -3 65 -9 83s-14 30 -24 36c-6.66699 4.66699 -16.834 8 -30.501 10s-29.167 3 -46.5 3
c-27.333 0 -52.5 -1 -75.5 -3s-42.167 -4 -57.5 -6l-1 -243c21.333 -2.66699 43.666 -4.83398 66.999 -6.50098s45 -2.5 65 -2.5zM290.004 747.001l-142 98l30 48l139 -60h7l138 60l30 -48l-141 -98h-61z" />
    <glyph glyph-name="rcaron" unicode="&#x159;" horiz-adv-x="411" 
d="M91 0l-0.000976562 585.002h72l16 -61h6l15 11.5c10 7.66699 23.167 16.167 39.5 25.5s33.833 17.833 52.5 25.5s36.667 11.5 54 11.5c16 0 28.667 -1.33301 38 -4l14 -4l-9 -104l-15 1c-10 0.666992 -20 1 -30 1c-18 0 -35.833 -2.33301 -53.5 -7
s-33.667 -10.334 -48 -17.001s-26.166 -13.334 -35.499 -20.001v-444h-116zM214.999 661.002l-142 107l31 46l138 -68h7l138 68l30 -46l-141 -107h-61z" />
    <glyph glyph-name="Sacute" unicode="&#x15a;" horiz-adv-x="538" 
d="M260 -14c-29.333 0 -57.5 3.16797 -84.5 9.50098s-51.167 13.833 -72.5 22.5s-38 16.167 -50 22.5l-18 9.5l5 14l11.5 32.5c4.33301 12.333 8.33301 23 12 32l5.5 13.5l18 -8c12 -5.33301 28.167 -11.333 48.5 -18s43 -12.667 68 -18s50.5 -8 76.5 -8
c15.333 0 27.333 1.33301 36 4s15 5.33398 19 8.00098c10.667 7.33301 18.834 17.666 24.501 30.999s8.5 31.333 8.5 54c0 21.333 -5.83301 39.166 -17.5 53.499s-27.167 27 -46.5 38s-40.333 21.167 -63 30.5c-24 10.667 -47.333 21.667 -70 33s-42.834 24.5 -60.501 39.5
s-31.667 33.833 -42 56.5s-15.5 50.667 -15.5 84c0 36 8.5 68.167 25.5 96.5s42.167 51 75.5 68s74.666 25.5 123.999 25.5c23.333 0 45.833 -1.33301 67.5 -4s41.334 -5.66699 59.001 -9s31.667 -6.5 42 -9.5l15.5 -4.5l-19 -96l-16.5 3c-11 2 -25.667 4.5 -44 7.5
s-38.166 5.5 -59.499 7.5s-42.333 3 -63 3c-14.667 0 -26.334 -1 -35.001 -3s-16.334 -5.33301 -23.001 -10c-6.66699 -4 -13.167 -11.5 -19.5 -22.5s-9.5 -26.833 -9.5 -47.5s6 -38.167 18 -52.5s27.833 -26.5 47.5 -36.5s40.834 -19.667 63.501 -29
c20.667 -9.33301 42 -19.5 64 -30.5s42.167 -24 60.5 -39s33.166 -34.167 44.499 -57.5s17 -52 17 -86c0 -42 -9.5 -78.667 -28.5 -110s-45.667 -55.833 -80 -73.5s-74.166 -26.5 -119.499 -26.5zM158 741.001l-19 65l256 80l28 -90z" />
    <glyph glyph-name="sacute" unicode="&#x15b;" horiz-adv-x="512" 
d="M262 -13c-27.333 0 -53.6689 2.66602 -79.002 7.99902s-48.166 11.5 -68.499 18.5s-36.333 13.167 -48 18.5l-17.5 8l29 93l17.5 -7c11.667 -4.66699 27.334 -10.5 47.001 -17.5s41 -13 64 -18s45.5 -7.5 67.5 -7.5c12.667 0 23.667 1.16699 33 3.5
s16.666 5.83301 21.999 10.5c6.66699 5.33301 12.334 13.333 17.001 24s7 23 7 37c0 22.667 -6.16699 40.167 -18.5 52.5s-28.333 22 -48 29s-41.167 13.5 -64.5 19.5c-20 6 -40 12.667 -60 20s-38.333 17 -55 29s-30 27.833 -40 47.5s-15 45.167 -15 76.5
c0 50 16 90.167 48 120.5s84.333 45.5 157 45.5c26 0 51 -1.83301 75 -5.5s45.333 -7.66699 64 -12s32.667 -8.16602 42 -11.499l-17 -92l-16 4c-10.667 2.66699 -24.667 5.5 -42 8.5s-36.5 5.83301 -57.5 8.5s-41.833 4 -62.5 4c-18.667 0 -32.667 -1 -42 -3
s-16.666 -5 -21.999 -9c-4 -3.33301 -7.66699 -8.83301 -11 -16.5s-5 -17.167 -5 -28.5c0 -21.333 6.66699 -38 20 -50s30.666 -21.333 51.999 -28l67 -21c20 -5.33301 39.5 -11.666 58.5 -18.999s36.5 -17 52.5 -29s28.667 -27.833 38 -47.5s14 -44.834 14 -75.501
c0 -56 -17.5 -101.333 -52.5 -136s-85.167 -52 -150.5 -52zM137.997 649.999l-21 64l233 87l31 -88z" />
    <glyph glyph-name="Scedilla" unicode="&#x15e;" horiz-adv-x="538" 
d="M260 -14c-29.333 0 -57.5 3.16797 -84.5 9.50098s-51.167 13.833 -72.5 22.5s-38 16.167 -50 22.5l-18 9.5l5 14l11.5 32.5c4.33301 12.333 8.33301 23 12 32l5.5 13.5l18 -8c12 -5.33301 28.167 -11.333 48.5 -18s43 -12.667 68 -18s50.5 -8 76.5 -8
c15.333 0 27.333 1.33301 36 4s15 5.33398 19 8.00098c10.667 7.33301 18.834 17.666 24.501 30.999s8.5 31.333 8.5 54c0 21.333 -5.83301 39.166 -17.5 53.499s-27.167 27 -46.5 38s-40.333 21.167 -63 30.5c-24 10.667 -47.333 21.667 -70 33s-42.834 24.5 -60.501 39.5
s-31.667 33.833 -42 56.5s-15.5 50.667 -15.5 84c0 36 8.5 68.167 25.5 96.5s42.167 51 75.5 68s74.666 25.5 123.999 25.5c23.333 0 45.833 -1.33301 67.5 -4s41.334 -5.66699 59.001 -9s31.667 -6.5 42 -9.5l15.5 -4.5l-19 -96l-16.5 3c-11 2 -25.667 4.5 -44 7.5
s-38.166 5.5 -59.499 7.5s-42.333 3 -63 3c-14.667 0 -26.334 -1 -35.001 -3s-16.334 -5.33301 -23.001 -10c-6.66699 -4 -13.167 -11.5 -19.5 -22.5s-9.5 -26.833 -9.5 -47.5s6 -38.167 18 -52.5s27.833 -26.5 47.5 -36.5s40.834 -19.667 63.501 -29
c20.667 -9.33301 42 -19.5 64 -30.5s42.167 -24 60.5 -39s33.166 -34.167 44.499 -57.5s17 -52 17 -86c0 -42 -9.5 -78.667 -28.5 -110s-45.667 -55.833 -80 -73.5s-74.166 -26.5 -119.499 -26.5zM251 -178.999c-20 0 -38.168 1.5 -54.501 4.5l-24.5 4.5v73l12 -1l28.5 -2.5
s20.5 -1.5 28.5 -1.5c18 0 30.833 1.83301 38.5 5.5s11.5 12.167 11.5 25.5c0 16 -1.66699 32.333 -5 49s-5.66602 28 -6.99902 34l66 12c2 -4 4.5 -11 7.5 -21s6 -21.833 9 -35.5s4.5 -27.5 4.5 -41.5c0 -32 -10.5 -57.5 -31.5 -76.5s-48.833 -28.5 -83.5 -28.5z" />
    <glyph glyph-name="scedilla" unicode="&#x15f;" horiz-adv-x="512" 
d="M262 -13c-27.333 0 -53.6689 2.66602 -79.002 7.99902s-48.166 11.5 -68.499 18.5s-36.333 13.167 -48 18.5l-17.5 8l29 93l17.5 -7c11.667 -4.66699 27.334 -10.5 47.001 -17.5s41 -13 64 -18s45.5 -7.5 67.5 -7.5c12.667 0 23.667 1.16699 33 3.5
s16.666 5.83301 21.999 10.5c6.66699 5.33301 12.334 13.333 17.001 24s7 23 7 37c0 22.667 -6.16699 40.167 -18.5 52.5s-28.333 22 -48 29s-41.167 13.5 -64.5 19.5c-20 6 -40 12.667 -60 20s-38.333 17 -55 29s-30 27.833 -40 47.5s-15 45.167 -15 76.5
c0 50 16 90.167 48 120.5s84.333 45.5 157 45.5c26 0 51 -1.83301 75 -5.5s45.333 -7.66699 64 -12s32.667 -8.16602 42 -11.499l-17 -92l-16 4c-10.667 2.66699 -24.667 5.5 -42 8.5s-36.5 5.83301 -57.5 8.5s-41.833 4 -62.5 4c-18.667 0 -32.667 -1 -42 -3
s-16.666 -5 -21.999 -9c-4 -3.33301 -7.66699 -8.83301 -11 -16.5s-5 -17.167 -5 -28.5c0 -21.333 6.66699 -38 20 -50s30.666 -21.333 51.999 -28l67 -21c20 -5.33301 39.5 -11.666 58.5 -18.999s36.5 -17 52.5 -29s28.667 -27.833 38 -47.5s14 -44.834 14 -75.501
c0 -56 -17.5 -101.333 -52.5 -136s-85.167 -52 -150.5 -52zM238.997 -179.001c-20 0 -38.168 1.5 -54.501 4.5l-24.5 4.5v73l12 -1l28.5 -2.5s20.5 -1.5 28.5 -1.5c18 0 30.833 1.83301 38.5 5.5s11.5 12.167 11.5 25.5c0 16 -1.66699 32.333 -5 49s-5.66602 28 -6.99902 34
l66 12c2 -4 4.5 -11 7.5 -21s6 -21.833 9 -35.5s4.5 -27.5 4.5 -41.5c0 -32 -10.5 -57.5 -31.5 -76.5s-48.833 -28.5 -83.5 -28.5z" />
    <glyph glyph-name="Scaron" unicode="&#x160;" horiz-adv-x="538" 
d="M260 -14c-29.333 0 -57.5 3.16797 -84.5 9.50098s-51.167 13.833 -72.5 22.5s-38 16.167 -50 22.5l-18 9.5l5 14l11.5 32.5c4.33301 12.333 8.33301 23 12 32l5.5 13.5l18 -8c12 -5.33301 28.167 -11.333 48.5 -18s43 -12.667 68 -18s50.5 -8 76.5 -8
c15.333 0 27.333 1.33301 36 4s15 5.33398 19 8.00098c10.667 7.33301 18.834 17.666 24.501 30.999s8.5 31.333 8.5 54c0 21.333 -5.83301 39.166 -17.5 53.499s-27.167 27 -46.5 38s-40.333 21.167 -63 30.5c-24 10.667 -47.333 21.667 -70 33s-42.834 24.5 -60.501 39.5
s-31.667 33.833 -42 56.5s-15.5 50.667 -15.5 84c0 36 8.5 68.167 25.5 96.5s42.167 51 75.5 68s74.666 25.5 123.999 25.5c23.333 0 45.833 -1.33301 67.5 -4s41.334 -5.66699 59.001 -9s31.667 -6.5 42 -9.5l15.5 -4.5l-19 -96l-16.5 3c-11 2 -25.667 4.5 -44 7.5
s-38.166 5.5 -59.499 7.5s-42.333 3 -63 3c-14.667 0 -26.334 -1 -35.001 -3s-16.334 -5.33301 -23.001 -10c-6.66699 -4 -13.167 -11.5 -19.5 -22.5s-9.5 -26.833 -9.5 -47.5s6 -38.167 18 -52.5s27.833 -26.5 47.5 -36.5s40.834 -19.667 63.501 -29
c20.667 -9.33301 42 -19.5 64 -30.5s42.167 -24 60.5 -39s33.166 -34.167 44.499 -57.5s17 -52 17 -86c0 -42 -9.5 -78.667 -28.5 -110s-45.667 -55.833 -80 -73.5s-74.166 -26.5 -119.499 -26.5zM238 747.001l-142 98l30 48l139 -60h7l138 60l30 -48l-141 -98h-61z" />
    <glyph glyph-name="scaron" unicode="&#x161;" horiz-adv-x="512" 
d="M262 -13c-27.333 0 -53.6689 2.66602 -79.002 7.99902s-48.166 11.5 -68.499 18.5s-36.333 13.167 -48 18.5l-17.5 8l29 93l17.5 -7c11.667 -4.66699 27.334 -10.5 47.001 -17.5s41 -13 64 -18s45.5 -7.5 67.5 -7.5c12.667 0 23.667 1.16699 33 3.5
s16.666 5.83301 21.999 10.5c6.66699 5.33301 12.334 13.333 17.001 24s7 23 7 37c0 22.667 -6.16699 40.167 -18.5 52.5s-28.333 22 -48 29s-41.167 13.5 -64.5 19.5c-20 6 -40 12.667 -60 20s-38.333 17 -55 29s-30 27.833 -40 47.5s-15 45.167 -15 76.5
c0 50 16 90.167 48 120.5s84.333 45.5 157 45.5c26 0 51 -1.83301 75 -5.5s45.333 -7.66699 64 -12s32.667 -8.16602 42 -11.499l-17 -92l-16 4c-10.667 2.66699 -24.667 5.5 -42 8.5s-36.5 5.83301 -57.5 8.5s-41.833 4 -62.5 4c-18.667 0 -32.667 -1 -42 -3
s-16.666 -5 -21.999 -9c-4 -3.33301 -7.66699 -8.83301 -11 -16.5s-5 -17.167 -5 -28.5c0 -21.333 6.66699 -38 20 -50s30.666 -21.333 51.999 -28l67 -21c20 -5.33301 39.5 -11.666 58.5 -18.999s36.5 -17 52.5 -29s28.667 -27.833 38 -47.5s14 -44.834 14 -75.501
c0 -56 -17.5 -101.333 -52.5 -136s-85.167 -52 -150.5 -52zM230.997 660.999l-142 107l31 46l138 -68h7l138 68l30 -46l-141 -107h-61z" />
    <glyph glyph-name="uni0162" unicode="&#x162;" horiz-adv-x="493" 
d="M187 0l2 601l-195 -3v101h505v-101l-198 3l3 -601h-117zM205 -179c-20 0 -38.168 1.5 -54.501 4.5l-24.5 4.5v73l12 -1l28.5 -2.5s20.5 -1.5 28.5 -1.5c18 0 30.833 1.83301 38.5 5.5s11.5 12.167 11.5 25.5c0 16 -1.66699 32.333 -5 49s-5.66602 28 -6.99902 34l66 12
c2 -4 4.5 -11 7.5 -21s6 -21.833 9 -35.5s4.5 -27.5 4.5 -41.5c0 -32 -10.5 -57.5 -31.5 -76.5s-48.833 -28.5 -83.5 -28.5z" />
    <glyph glyph-name="uni0163" unicode="&#x163;" horiz-adv-x="380" 
d="M255 -14c-31.333 0 -58.501 5.16504 -81.501 15.498s-40.667 29.833 -53 58.5s-18.5 71.334 -18.5 128.001v277h-67v72l72 14l22 138h89v-136h118v-90h-119v-280c0 -30.667 1.33301 -53 4 -67s7.66699 -22.833 15 -26.5s18.666 -5.5 33.999 -5.5
c10.667 0 20.834 0.333008 30.501 1s17.834 1.33398 24.501 2.00098l10 1v-94l-23 -4c-15.333 -2.66699 -34.333 -4 -57 -4zM179.999 -179.002c-20 0 -38.168 1.5 -54.501 4.5l-24.5 4.5v73l12 -1l28.5 -2.5s20.5 -1.5 28.5 -1.5c18 0 30.833 1.83301 38.5 5.5
s11.5 12.167 11.5 25.5c0 16 -1.66699 32.333 -5 49s-5.66602 28 -6.99902 34l66 12c2 -4 4.5 -11 7.5 -21s6 -21.833 9 -35.5s4.5 -27.5 4.5 -41.5c0 -32 -10.5 -57.5 -31.5 -76.5s-48.833 -28.5 -83.5 -28.5z" />
    <glyph glyph-name="Tcaron" unicode="&#x164;" horiz-adv-x="493" 
d="M187 0l2 601l-195 -3v101h505v-101l-198 3l3 -601h-117zM216 747l-142 98l30 48l139 -60h7l138 60l30 -48l-141 -98h-61z" />
    <glyph glyph-name="tcaron" unicode="&#x165;" horiz-adv-x="445" 
d="M255 -14c-31.333 0 -58.501 5.16504 -81.501 15.498s-40.667 29.833 -53 58.5s-18.5 71.334 -18.5 128.001v277h-67v72l72 14l22 138h89v-136h118v-90h-119v-280c0 -30.667 1.33301 -53 4 -67s7.66699 -22.833 15 -26.5s18.666 -5.5 33.999 -5.5
c10.667 0 20.834 0.333008 30.501 1s17.834 1.33398 24.501 2.00098l10 1v-94l-23 -4c-15.333 -2.66699 -34.333 -4 -57 -4zM381.999 529.998l-17 227h101l-19 -227h-65z" />
    <glyph glyph-name="Tbar" unicode="&#x166;" horiz-adv-x="493" 
d="M455 420v-81h-414v81h414zM187 0l2 601l-195 -3v101h505v-101l-198 3l3 -601h-117z" />
    <glyph glyph-name="tbar" unicode="&#x167;" horiz-adv-x="380" 
d="M35 322h297v-75l-157 3l-140 -3v75zM255 -14c-31.333 0 -58.501 5.16504 -81.501 15.498s-40.667 29.833 -53 58.5s-18.5 71.334 -18.5 128.001v277h-67v72l72 14l22 138h89v-136h118v-90h-119v-280c0 -30.667 1.33301 -53 4 -67s7.66699 -22.833 15 -26.5
s18.666 -5.5 33.999 -5.5c10.667 0 20.834 0.333008 30.501 1s17.834 1.33398 24.501 2.00098l10 1v-94l-23 -4c-15.333 -2.66699 -34.333 -4 -57 -4z" />
    <glyph glyph-name="Utilde" unicode="&#x168;" horiz-adv-x="679" 
d="M339 -14c-51.333 0 -95.333 9.33105 -132 27.998s-64.5 51.167 -83.5 97.5s-28.5 110.833 -28.5 193.5v394h117v-366c0 -54 2 -97.167 6 -129.5s10.5 -56.666 19.5 -72.999s21.833 -27.166 38.5 -32.499s38 -8 64 -8s47.333 2.83301 64 8.5s29.5 16.5 38.5 32.5
s15.333 40.167 19 72.5s5.5 75.5 5.5 129.5v366h117v-385c0 -86 -9.5 -152.667 -28.5 -200s-46.667 -80.5 -83 -99.5s-80.833 -28.5 -133.5 -28.5zM449 747.998c-12.667 0 -28.8301 2.33398 -48.4971 7.00098s-40.167 10 -61.5 16l-56.5 16
c-16.333 4.66699 -27.166 7 -32.499 7c-4.66699 0 -9.33398 -3.5 -14.001 -10.5s-8.33398 -14 -11.001 -21l-4 -10.5l-63 8c0.666992 41.333 8.5 70.333 23.5 87s35.167 25 60.5 25c13.333 0 29.666 -2.33301 48.999 -7s39.5 -9.83398 60.5 -15.501l56 -15.5
c16.333 -4.66699 27.166 -7 32.499 -7s10 3.5 14 10.5s7.5 14 10.5 21l4.5 10.5l62 -9c0 -40.667 -7.33301 -69.5 -22 -86.5s-34.667 -25.5 -60 -25.5z" />
    <glyph glyph-name="utilde" unicode="&#x169;" horiz-adv-x="614" 
d="M232 -13c-34.667 0 -63.498 7.83301 -86.498 23.5s-40 39.167 -51 70.5s-16.5 71 -16.5 119v385h116v-362c0 -32.667 1 -58.167 3 -76.5s5.33301 -31.166 10 -38.499c5.33301 -6 12.333 -10.333 21 -13s18.667 -4 30 -4c25.333 0 51.333 5.16699 78 15.5
s50.667 21.166 72 32.499v446h115v-585h-75l-14 58h-6l-51 -28c-20.667 -11.333 -43.334 -21.333 -68.001 -30s-50.334 -13 -77.001 -13zM400.002 666c-12.667 0 -27.8301 2.5 -45.4971 7.5s-35.5 10.667 -53.5 17l-48.5 16.5c-14.333 4.66699 -24.166 7 -29.499 7
c-4.66699 0 -9.33398 -3.5 -14.001 -10.5s-8.33398 -14.333 -11.001 -22l-4 -11.5l-63 8c0.666992 42 8.5 71.333 23.5 88s35.167 25 60.5 25c13.333 0 28.5 -2.16699 45.5 -6.5s34.333 -9.5 52 -15.5l48 -16c14.333 -4.66699 24.166 -7 29.499 -7s10.166 3.5 14.499 10.5
s8 14 11 21l4.5 10.5l62 -9c0 -40.667 -7.33301 -69.667 -22 -87s-34.667 -26 -60 -26z" />
    <glyph glyph-name="Umacron" unicode="&#x16a;" horiz-adv-x="679" 
d="M339 -14c-51.333 0 -95.333 9.33105 -132 27.998s-64.5 51.167 -83.5 97.5s-28.5 110.833 -28.5 193.5v394h117v-366c0 -54 2 -97.167 6 -129.5s10.5 -56.666 19.5 -72.999s21.833 -27.166 38.5 -32.499s38 -8 64 -8s47.333 2.83301 64 8.5s29.5 16.5 38.5 32.5
s15.333 40.167 19 72.5s5.5 75.5 5.5 129.5v366h117v-385c0 -86 -9.5 -152.667 -28.5 -200s-46.667 -80.5 -83 -99.5s-80.833 -28.5 -133.5 -28.5zM164 770.998v79h352v-79h-352z" />
    <glyph glyph-name="umacron" unicode="&#x16b;" horiz-adv-x="614" 
d="M232 -13c-34.667 0 -63.498 7.83301 -86.498 23.5s-40 39.167 -51 70.5s-16.5 71 -16.5 119v385h116v-362c0 -32.667 1 -58.167 3 -76.5s5.33301 -31.166 10 -38.499c5.33301 -6 12.333 -10.333 21 -13s18.667 -4 30 -4c25.333 0 51.333 5.16699 78 15.5
s50.667 21.166 72 32.499v446h115v-585h-75l-14 58h-6l-51 -28c-20.667 -11.333 -43.334 -21.333 -68.001 -30s-50.334 -13 -77.001 -13zM131.002 680v79h353v-79h-353z" />
    <glyph glyph-name="Uring" unicode="&#x16e;" horiz-adv-x="679" 
d="M339 -14c-51.333 0 -95.333 9.33105 -132 27.998s-64.5 51.167 -83.5 97.5s-28.5 110.833 -28.5 193.5v394h117v-366c0 -54 2 -97.167 6 -129.5s10.5 -56.666 19.5 -72.999s21.833 -27.166 38.5 -32.499s38 -8 64 -8s47.333 2.83301 64 8.5s29.5 16.5 38.5 32.5
s15.333 40.167 19 72.5s5.5 75.5 5.5 129.5v366h117v-385c0 -86 -9.5 -152.667 -28.5 -200s-46.667 -80.5 -83 -99.5s-80.833 -28.5 -133.5 -28.5zM341 726.998c-16 0 -31.166 2.66895 -45.499 8.00195s-26.166 14.333 -35.499 27s-14 30 -14 52
c0 23.333 4.66699 41.333 14 54s21.166 21.667 35.499 27s29.5 8 45.5 8c15.333 0 30.166 -2.66699 44.499 -8s26 -14.333 35 -27s13.5 -30.334 13.5 -53.001s-4.66699 -40.334 -14 -53.001s-21 -21.667 -35 -27s-28.667 -8 -44 -8zM340.001 781
c12.667 0 21.667 2.33301 27 7s8 13.334 8 26.001c0 14 -2.66699 23.167 -8 27.5s-14.333 6.5 -27 6.5c-12 0 -21 -2.16699 -27 -6.5s-9 -13.5 -9 -27.5c0 -12.667 3 -21.334 9 -26.001s15 -7 27 -7z" />
    <glyph glyph-name="uring" unicode="&#x16f;" horiz-adv-x="614" 
d="M232 -13c-34.667 0 -63.498 7.83301 -86.498 23.5s-40 39.167 -51 70.5s-16.5 71 -16.5 119v385h116v-362c0 -32.667 1 -58.167 3 -76.5s5.33301 -31.166 10 -38.499c5.33301 -6 12.333 -10.333 21 -13s18.667 -4 30 -4c25.333 0 51.333 5.16699 78 15.5
s50.667 21.166 72 32.499v446h115v-585h-75l-14 58h-6l-51 -28c-20.667 -11.333 -43.334 -21.333 -68.001 -30s-50.334 -13 -77.001 -13zM307.002 643c-15.333 0 -30.166 2.83203 -44.499 8.49902s-26.166 14.834 -35.499 27.501s-14 30.334 -14 53.001
c0 24 4.66699 42.5 14 55.5s21.166 22 35.499 27s29.166 7.5 44.499 7.5s30.166 -2.5 44.499 -7.5s26 -14 35 -27s13.5 -31.167 13.5 -54.5s-4.5 -41.333 -13.5 -54s-20.667 -21.834 -35 -27.501s-29.166 -8.5 -44.499 -8.5zM307.002 693.999
c13.333 0 22.833 2.66699 28.5 8s8.5 15.333 8.5 30c0 16 -2.83301 26.333 -8.5 31s-15.167 7 -28.5 7s-23.166 -2.33301 -29.499 -7s-9.5 -15 -9.5 -31c0 -14.667 3.16699 -24.667 9.5 -30s16.166 -8 29.499 -8z" />
    <glyph glyph-name="Uhungarumlaut" unicode="&#x170;" horiz-adv-x="679" 
d="M339 -14c-51.333 0 -95.333 9.33105 -132 27.998s-64.5 51.167 -83.5 97.5s-28.5 110.833 -28.5 193.5v394h117v-366c0 -54 2 -97.167 6 -129.5s10.5 -56.666 19.5 -72.999s21.833 -27.166 38.5 -32.499s38 -8 64 -8s47.333 2.83301 64 8.5s29.5 16.5 38.5 32.5
s15.333 40.167 19 72.5s5.5 75.5 5.5 129.5v366h117v-385c0 -86 -9.5 -152.667 -28.5 -200s-46.667 -80.5 -83 -99.5s-80.833 -28.5 -133.5 -28.5zM125 744.998l-24 63l219 89l34 -81zM391 744.998l-23 62l216 84l34 -84z" />
    <glyph glyph-name="uhungarumlaut" unicode="&#x171;" horiz-adv-x="614" 
d="M232 -13c-34.667 0 -63.498 7.83301 -86.498 23.5s-40 39.167 -51 70.5s-16.5 71 -16.5 119v385h116v-362c0 -32.667 1 -58.167 3 -76.5s5.33301 -31.166 10 -38.499c5.33301 -6 12.333 -10.333 21 -13s18.667 -4 30 -4c25.333 0 51.333 5.16699 78 15.5
s50.667 21.166 72 32.499v446h115v-585h-75l-14 58h-6l-51 -28c-20.667 -11.333 -43.334 -21.333 -68.001 -30s-50.334 -13 -77.001 -13zM178.002 638l-41 52l152 129l53 -71zM365.002 638l-40 52l155 129l54 -71z" />
    <glyph glyph-name="Uogonek" unicode="&#x172;" horiz-adv-x="679" 
d="M339 -14c-51.333 0 -95.333 9.33105 -132 27.998s-64.5 51.167 -83.5 97.5s-28.5 110.833 -28.5 193.5v394h117v-366c0 -54 2 -97.167 6 -129.5s10.5 -56.666 19.5 -72.999s21.833 -27.166 38.5 -32.499s38 -8 64 -8s47.333 2.83301 64 8.5s29.5 16.5 38.5 32.5
s15.333 40.167 19 72.5s5.5 75.5 5.5 129.5v366h117v-385c0 -86 -9.5 -152.667 -28.5 -200s-46.667 -80.5 -83 -99.5s-80.833 -28.5 -133.5 -28.5zM370 -179.002c-30.667 0 -55.3301 6.33301 -73.9971 19s-28 32.667 -28 60c0 16.667 5.16699 32.667 15.5 48
s24.166 29.333 41.499 42s35.666 23 54.999 31l60 -21c-28.667 -10 -51.834 -22.167 -69.501 -36.5s-26.5 -27.833 -26.5 -40.5c0 -10 4.16699 -16.833 12.5 -20.5s19.5 -5.5 33.5 -5.5c10.667 0 21.667 0.666992 33 2l17 2v-72l-20 -4c-13.333 -2.66699 -30 -4 -50 -4z" />
    <glyph glyph-name="uogonek" unicode="&#x173;" horiz-adv-x="614" 
d="M232 -13c-34.667 0 -63.498 7.83301 -86.498 23.5s-40 39.167 -51 70.5s-16.5 71 -16.5 119v385h116v-362c0 -32.667 1 -58.167 3 -76.5s5.33301 -31.166 10 -38.499c5.33301 -6 12.333 -10.333 21 -13s18.667 -4 30 -4c25.333 0 51.333 5.16699 78 15.5
s50.667 21.166 72 32.499v446h115v-585h-75l-14 58h-6l-51 -28c-20.667 -11.333 -43.334 -21.333 -68.001 -30s-50.334 -13 -77.001 -13zM454.002 -179c-30.667 0 -55.3301 6.33301 -73.9971 19s-28 32.667 -28 60c0 16.667 5.16699 32.667 15.5 48s24.166 29.333 41.499 42
s35.666 23 54.999 31l60 -21c-28.667 -10 -51.834 -22.167 -69.501 -36.5s-26.5 -27.833 -26.5 -40.5c0 -10 4.16699 -16.833 12.5 -20.5s19.5 -5.5 33.5 -5.5c10.667 0 21.667 0.666992 33 2l17 2v-72l-20 -4c-13.333 -2.66699 -30 -4 -50 -4z" />
    <glyph glyph-name="Wcircumflex" unicode="&#x174;" horiz-adv-x="789" 
d="M139 0l-117 699h119l76 -586h7l96 421h149l96 -421h6l77 586h118l-115 -699h-156l-98 426h-6l-98 -426h-154zM255 736l-30 49l142 97h61l141 -97l-30 -49l-138 60h-7z" />
    <glyph glyph-name="wcircumflex" unicode="&#x175;" horiz-adv-x="762" 
d="M138 0l-116 585h117l76 -498h5l87 419h151l87 -419h5l75 498h117l-115 -585h-155l-87 419h-6l-86 -419h-155zM239 649l-31 46l142 107h61l141 -107l-30 -46l-138 68h-7z" />
    <glyph glyph-name="Ycircumflex" unicode="&#x176;" horiz-adv-x="539" 
d="M210 0l3 256l-206 443h126l133 -337h6l133 337h126l-206 -443l3 -256h-118zM127 736l-30 49l142 97h61l141 -97l-30 -49l-138 60h-7z" />
    <glyph glyph-name="ycircumflex" unicode="&#x177;" horiz-adv-x="505" 
d="M116 -166l81 221l-191 530h121l121 -410h5l120 410h122l-200 -552l-58 -199h-121zM109 649l-31 46l142 107h61l141 -107l-30 -46l-138 68h-7z" />
    <glyph glyph-name="Ydieresis" unicode="&#x178;" horiz-adv-x="539" 
d="M210 0l3 256l-206 443h126l133 -337h6l133 337h126l-206 -443l3 -256h-118zM105 762v94h121v-94h-121zM309 762v94h120v-94h-120z" />
    <glyph glyph-name="Zacute" unicode="&#x179;" horiz-adv-x="552" 
d="M26 0v95l345 501v7l-325 -5v101h462v-94l-340 -502v-7l350 5v-101h-492zM166 741l-19 65l256 80l28 -90z" />
    <glyph glyph-name="zacute" unicode="&#x17a;" horiz-adv-x="487" 
d="M24 0v84l290 407v5l-277 -6v95h415v-84l-289 -407v-6l295 7v-95h-434zM136 650l-21 64l233 87l31 -88z" />
    <glyph glyph-name="Zdotaccent" unicode="&#x17b;" horiz-adv-x="552" 
d="M26 0v95l345 501v7l-325 -5v101h462v-94l-340 -502v-7l350 5v-101h-492zM213 762v94h128v-94h-128z" />
    <glyph glyph-name="zdotaccent" unicode="&#x17c;" horiz-adv-x="487" 
d="M24 0v84l290 407v5l-277 -6v95h415v-84l-289 -407v-6l295 7v-95h-434zM184 675v96h129v-96h-129z" />
    <glyph glyph-name="Zcaron" unicode="&#x17d;" horiz-adv-x="552" 
d="M26 0v95l345 501v7l-325 -5v101h462v-94l-340 -502v-7l350 5v-101h-492zM246 747l-142 98l30 48l139 -60h7l138 60l30 -48l-141 -98h-61z" />
    <glyph glyph-name="zcaron" unicode="&#x17e;" horiz-adv-x="487" 
d="M24 0v84l290 407v5l-277 -6v95h415v-84l-289 -407v-6l295 7v-95h-434zM216 661l-142 107l31 46l138 -68h7l138 68l30 -46l-141 -107h-61z" />
    <glyph glyph-name="Ohorn" unicode="&#x1a0;" horiz-adv-x="676" 
d="M338 -14c-37.333 0 -72.666 5.33301 -105.999 16s-62.833 29.334 -88.5 56.001s-45.667 63.667 -60 111s-21.5 108 -21.5 182c0 73.333 7.16699 133.5 21.5 180.5s34.333 83.667 60 110s55.167 44.666 88.5 54.999s68.666 15.5 105.999 15.5
c38 0 73.5 -5.16699 106.5 -15.5s62.333 -28.666 88 -54.999s45.667 -63 60 -110s21.5 -107.167 21.5 -180.5c0 -74 -7.16699 -134.667 -21.5 -182s-34.333 -84.333 -60 -111s-55 -45.334 -88 -56.001s-68.5 -16 -106.5 -16zM338 90c26.667 0 49.501 3 68.501 9
s34.833 18 47.5 36s22 44 28 78s9 79 9 135c0 56.667 -2.83301 102.167 -8.5 136.5s-14.667 60.5 -27 78.5s-28.333 30 -48 36s-42.834 9 -69.501 9c-27.333 0 -50.666 -3 -69.999 -9s-35.166 -18 -47.499 -36s-21.5 -44.167 -27.5 -78.5s-9 -79.833 -9 -136.5
c0 -56 3.16699 -101 9.5 -135s15.666 -60 27.999 -78s28.166 -30 47.499 -36s42.333 -9 69 -9zM453.001 693l85.999 -0.00195312c10.667 0 18.667 2.16699 24 6.5s8 12.5 8 24.5c0 6.66699 -0.666992 15.334 -2 26.001s-3.33301 22.834 -6 36.501s-6 28.5 -10 44.5h96
c4 -14.667 7.5 -29.667 10.5 -45s4.5 -29.333 4.5 -42c0 -28 -6.16699 -51 -18.5 -69s-28.666 -31.5 -48.999 -40.5s-42.833 -13.5 -67.5 -13.5h-63z" />
    <glyph glyph-name="ohorn" unicode="&#x1a1;" horiz-adv-x="592" 
d="M297 -13c-60 0 -107.167 12.333 -141.5 37s-58.833 59.834 -73.5 105.501s-22 100.167 -22 163.5c0 62.667 7.33301 116.667 22 162s39.167 80.5 73.5 105.5s81.5 37.5 141.5 37.5c59.333 0 106.166 -12.5 140.499 -37.5s58.666 -60.167 72.999 -105.5
s21.5 -99.666 21.5 -162.999c0 -62.667 -7.16699 -116.834 -21.5 -162.501s-38.666 -80.834 -72.999 -105.501s-81.166 -37 -140.499 -37zM297 80c22.667 0 41.5 2.83301 56.5 8.5s27 16 36 31s15.333 36.5 19 64.5s5.5 64.333 5.5 109c0 44 -1.83301 80 -5.5 108
s-10 49.5 -19 64.5s-21.167 25.333 -36.5 31s-34 8.5 -56 8.5c-22.667 0 -41.667 -2.83301 -57 -8.5s-27.5 -16 -36.5 -31s-15.667 -36.5 -20 -64.5s-6.5 -64 -6.5 -108c0 -44.667 2.16699 -81 6.5 -109s11 -49.5 20 -64.5s21.167 -25.333 36.5 -31s34.333 -8.5 57 -8.5z
M368 588l85.999 -0.00195312c10.667 0 18.667 2.16699 24 6.5s8 12.5 8 24.5c0 6.66699 -0.666992 15.334 -2 26.001s-3.33301 22.834 -6 36.501s-6 28.5 -10 44.5h96c4 -14.667 7.5 -29.667 10.5 -45s4.5 -29.333 4.5 -42c0 -28 -6.16699 -51 -18.5 -69
s-28.666 -31.5 -48.999 -40.5s-42.833 -13.5 -67.5 -13.5h-63z" />
    <glyph glyph-name="Uhorn" unicode="&#x1af;" horiz-adv-x="679" 
d="M339 -14c-51.333 0 -95.333 9.33105 -132 27.998s-64.5 51.167 -83.5 97.5s-28.5 110.833 -28.5 193.5v394h117v-366c0 -54 2 -97.167 6 -129.5s10.5 -56.666 19.5 -72.999s21.833 -27.166 38.5 -32.499s38 -8 64 -8s47.333 2.83301 64 8.5s29.5 16.5 38.5 32.5
s15.333 40.167 19 72.5s5.5 75.5 5.5 129.5v366h117v-385c0 -86 -9.5 -152.667 -28.5 -200s-46.667 -80.5 -83 -99.5s-80.833 -28.5 -133.5 -28.5zM521 698.998l85.999 -0.00195312c10.667 0 18.667 2.16699 24 6.5s8 12.5 8 24.5c0 6.66699 -0.666992 15.334 -2 26.001
s-3.33301 22.834 -6 36.501s-6 28.5 -10 44.5h96c4 -14.667 7.5 -29.667 10.5 -45s4.5 -29.333 4.5 -42c0 -28 -6.16699 -51 -18.5 -69s-28.666 -31.5 -48.999 -40.5s-42.833 -13.5 -67.5 -13.5h-63z" />
    <glyph glyph-name="uhorn" unicode="&#x1b0;" horiz-adv-x="614" 
d="M232 -13c-34.667 0 -63.498 7.83301 -86.498 23.5s-40 39.167 -51 70.5s-16.5 71 -16.5 119v385h116v-362c0 -32.667 1 -58.167 3 -76.5s5.33301 -31.166 10 -38.499c5.33301 -6 12.333 -10.333 21 -13s18.667 -4 30 -4c25.333 0 51.333 5.16699 78 15.5
s50.667 21.166 72 32.499v446h115v-585h-75l-14 58h-6l-51 -28c-20.667 -11.333 -43.334 -21.333 -68.001 -30s-50.334 -13 -77.001 -13zM446.002 585l85.999 -0.00195312c10.667 0 18.667 2.16699 24 6.5s8 12.5 8 24.5c0 6.66699 -0.666992 15.334 -2 26.001
s-3.33301 22.834 -6 36.501s-6 28.5 -10 44.5h96c4 -14.667 7.5 -29.667 10.5 -45s4.5 -29.333 4.5 -42c0 -28 -6.16699 -51 -18.5 -69s-28.666 -31.5 -48.999 -40.5s-42.833 -13.5 -67.5 -13.5h-63z" />
    <glyph glyph-name="uni01CD" unicode="&#x1cd;" horiz-adv-x="536" 
d="M-2 0l191 699h156l191 -699h-120l-54 215l63 -44h-315l61 44l-53 -215h-120zM171 219l-39 53h270l-39 -53l-105 424l64 -51h-110l64 51zM238 747l-142 98l30 48l139 -60h7l138 60l30 -48l-141 -98h-61z" />
    <glyph glyph-name="uni01CE" unicode="&#x1ce;" horiz-adv-x="593" 
d="M216 -13c-31.333 0 -59.334 7.33105 -84.001 21.998s-44 36 -58 64s-21 62 -21 102c0 48 10.167 85.667 30.5 113s49 46.833 86 58.5s80.5 17.5 130.5 17.5h92c0 31.333 -1.16699 56.5 -3.5 75.5s-6.5 33.167 -12.5 42.5c-5.33301 6.66699 -12.833 11.667 -22.5 15
s-23.5 5 -41.5 5c-24.667 0 -49.667 -2.16699 -75 -6.5s-48.5 -9.66602 -69.5 -15.999s-38 -11.666 -51 -15.999l-19.5 -6.5l-30 86l19.5 8.5c13 5.66699 30.667 12 53 19s47.5 13.333 75.5 19s57.667 8.5 89 8.5c50.667 0 90.834 -8.83301 120.501 -26.5
s50.834 -42.667 63.501 -75s19 -70.5 19 -114.5v-382h-74l-15 63h-6l-24 -16.5c-12 -8.33301 -26.833 -17 -44.5 -26s-37.334 -16.833 -59.001 -23.5s-44.5 -10 -68.5 -10zM243.999 83.998c21.333 0 42.5 3.33203 63.5 9.99902s39.167 13.834 54.5 21.501
s25.333 13.167 30 16.5v138c-4.66699 0.666992 -15.5 1.83398 -32.5 3.50098s-38.833 2.5 -65.5 2.5c-54 0 -87.333 -5.66699 -100 -17c-6.66699 -6 -12 -15.833 -16 -29.5s-6 -30.834 -6 -51.501c0 -32.667 5.5 -56.5 16.5 -71.5s29.5 -22.5 55.5 -22.5zM261.999 660.997
l-142 107l31 46l138 -68h7l138 68l30 -46l-141 -107h-61z" />
    <glyph glyph-name="uni01CF" unicode="&#x1cf;" horiz-adv-x="308" 
d="M95 -1l4 322l-4 378h118l-4 -310l4 -389zM124 747l-142 98l30 48l139 -60h7l138 60l30 -48l-141 -98h-61z" />
    <glyph glyph-name="uni01D0" unicode="&#x1d0;" horiz-adv-x="302" 
d="M120 660l-123 107l31 47l119 -68h7l119 68l31 -47l-123 -107h-61zM93 0v585h116v-585h-116z" />
    <glyph glyph-name="uni01D1" unicode="&#x1d1;" horiz-adv-x="676" 
d="M338 -14c-37.333 0 -72.666 5.33301 -105.999 16s-62.833 29.334 -88.5 56.001s-45.667 63.667 -60 111s-21.5 108 -21.5 182c0 73.333 7.16699 133.5 21.5 180.5s34.333 83.667 60 110s55.167 44.666 88.5 54.999s68.666 15.5 105.999 15.5
c38 0 73.5 -5.16699 106.5 -15.5s62.333 -28.666 88 -54.999s45.667 -63 60 -110s21.5 -107.167 21.5 -180.5c0 -74 -7.16699 -134.667 -21.5 -182s-34.333 -84.333 -60 -111s-55 -45.334 -88 -56.001s-68.5 -16 -106.5 -16zM338 90c26.667 0 49.501 3 68.501 9
s34.833 18 47.5 36s22 44 28 78s9 79 9 135c0 56.667 -2.83301 102.167 -8.5 136.5s-14.667 60.5 -27 78.5s-28.333 30 -48 36s-42.834 9 -69.501 9c-27.333 0 -50.666 -3 -69.999 -9s-35.166 -18 -47.499 -36s-21.5 -44.167 -27.5 -78.5s-9 -79.833 -9 -136.5
c0 -56 3.16699 -101 9.5 -135s15.666 -60 27.999 -78s28.166 -30 47.499 -36s42.333 -9 69 -9zM307.001 747l-142 98l30 48l139 -60h7l138 60l30 -48l-141 -98h-61z" />
    <glyph glyph-name="uni01D2" unicode="&#x1d2;" horiz-adv-x="592" 
d="M297 -13c-60 0 -107.167 12.333 -141.5 37s-58.833 59.834 -73.5 105.501s-22 100.167 -22 163.5c0 62.667 7.33301 116.667 22 162s39.167 80.5 73.5 105.5s81.5 37.5 141.5 37.5c59.333 0 106.166 -12.5 140.499 -37.5s58.666 -60.167 72.999 -105.5
s21.5 -99.666 21.5 -162.999c0 -62.667 -7.16699 -116.834 -21.5 -162.501s-38.666 -80.834 -72.999 -105.501s-81.166 -37 -140.499 -37zM297 80c22.667 0 41.5 2.83301 56.5 8.5s27 16 36 31s15.333 36.5 19 64.5s5.5 64.333 5.5 109c0 44 -1.83301 80 -5.5 108
s-10 49.5 -19 64.5s-21.167 25.333 -36.5 31s-34 8.5 -56 8.5c-22.667 0 -41.667 -2.83301 -57 -8.5s-27.5 -16 -36.5 -31s-15.667 -36.5 -20 -64.5s-6.5 -64 -6.5 -108c0 -44.667 2.16699 -81 6.5 -109s11 -49.5 20 -64.5s21.167 -25.333 36.5 -31s34.333 -8.5 57 -8.5z
M265 661l-142 107l31 46l138 -68h7l138 68l30 -46l-141 -107h-61z" />
    <glyph glyph-name="uni01D3" unicode="&#x1d3;" horiz-adv-x="679" 
d="M339 -14c-51.333 0 -95.333 9.33105 -132 27.998s-64.5 51.167 -83.5 97.5s-28.5 110.833 -28.5 193.5v394h117v-366c0 -54 2 -97.167 6 -129.5s10.5 -56.666 19.5 -72.999s21.833 -27.166 38.5 -32.499s38 -8 64 -8s47.333 2.83301 64 8.5s29.5 16.5 38.5 32.5
s15.333 40.167 19 72.5s5.5 75.5 5.5 129.5v366h117v-385c0 -86 -9.5 -152.667 -28.5 -200s-46.667 -80.5 -83 -99.5s-80.833 -28.5 -133.5 -28.5zM309 746.998l-142 98l30 48l139 -60h7l138 60l30 -48l-141 -98h-61z" />
    <glyph glyph-name="uni01D4" unicode="&#x1d4;" horiz-adv-x="614" 
d="M232 -13c-34.667 0 -63.498 7.83301 -86.498 23.5s-40 39.167 -51 70.5s-16.5 71 -16.5 119v385h116v-362c0 -32.667 1 -58.167 3 -76.5s5.33301 -31.166 10 -38.499c5.33301 -6 12.333 -10.333 21 -13s18.667 -4 30 -4c25.333 0 51.333 5.16699 78 15.5
s50.667 21.166 72 32.499v446h115v-585h-75l-14 58h-6l-51 -28c-20.667 -11.333 -43.334 -21.333 -68.001 -30s-50.334 -13 -77.001 -13zM277.002 661l-142 107l31 46l138 -68h7l138 68l30 -46l-141 -107h-61z" />
    <glyph glyph-name="uni01D5" unicode="&#x1d5;" horiz-adv-x="679" 
d="M339 -14c-51.333 0 -95.333 9.33105 -132 27.998s-64.5 51.167 -83.5 97.5s-28.5 110.833 -28.5 193.5v394h117v-366c0 -54 2 -97.167 6 -129.5s10.5 -56.666 19.5 -72.999s21.833 -27.166 38.5 -32.499s38 -8 64 -8s47.333 2.83301 64 8.5s29.5 16.5 38.5 32.5
s15.333 40.167 19 72.5s5.5 75.5 5.5 129.5v366h117v-385c0 -86 -9.5 -152.667 -28.5 -200s-46.667 -80.5 -83 -99.5s-80.833 -28.5 -133.5 -28.5zM175 761.998v94h121v-94h-121zM379 761.998v94h120v-94h-120zM161 924.998v79h352v-79h-352z" />
    <glyph glyph-name="uni01D6" unicode="&#x1d6;" horiz-adv-x="614" 
d="M232 -13c-34.667 0 -63.498 7.83301 -86.498 23.5s-40 39.167 -51 70.5s-16.5 71 -16.5 119v385h116v-362c0 -32.667 1 -58.167 3 -76.5s5.33301 -31.166 10 -38.499c5.33301 -6 12.333 -10.333 21 -13s18.667 -4 30 -4c25.333 0 51.333 5.16699 78 15.5
s50.667 21.166 72 32.499v446h115v-585h-75l-14 58h-6l-51 -28c-20.667 -11.333 -43.334 -21.333 -68.001 -30s-50.334 -13 -77.001 -13zM143.002 677v94h121v-94h-121zM347.002 677v94h120v-94h-120zM131.002 858v79h353v-79h-353z" />
    <glyph glyph-name="uni01D7" unicode="&#x1d7;" horiz-adv-x="679" 
d="M339 -14c-51.333 0 -95.333 9.33105 -132 27.998s-64.5 51.167 -83.5 97.5s-28.5 110.833 -28.5 193.5v394h117v-366c0 -54 2 -97.167 6 -129.5s10.5 -56.666 19.5 -72.999s21.833 -27.166 38.5 -32.499s38 -8 64 -8s47.333 2.83301 64 8.5s29.5 16.5 38.5 32.5
s15.333 40.167 19 72.5s5.5 75.5 5.5 129.5v366h117v-385c0 -86 -9.5 -152.667 -28.5 -200s-46.667 -80.5 -83 -99.5s-80.833 -28.5 -133.5 -28.5zM175 761.998v94h121v-94h-121zM379 761.998v94h120v-94h-120zM229 894.998l-19 65l256 80l28 -90z" />
    <glyph glyph-name="uni01D8" unicode="&#x1d8;" horiz-adv-x="614" 
d="M232 -13c-34.667 0 -63.498 7.83301 -86.498 23.5s-40 39.167 -51 70.5s-16.5 71 -16.5 119v385h116v-362c0 -32.667 1 -58.167 3 -76.5s5.33301 -31.166 10 -38.499c5.33301 -6 12.333 -10.333 21 -13s18.667 -4 30 -4c25.333 0 51.333 5.16699 78 15.5
s50.667 21.166 72 32.499v446h115v-585h-75l-14 58h-6l-51 -28c-20.667 -11.333 -43.334 -21.333 -68.001 -30s-50.334 -13 -77.001 -13zM143.002 677v94h121v-94h-121zM347.002 677v94h120v-94h-120zM195.002 828l-21 64l233 87l31 -88z" />
    <glyph glyph-name="uni01D9" unicode="&#x1d9;" horiz-adv-x="679" 
d="M339 -14c-51.333 0 -95.333 9.33105 -132 27.998s-64.5 51.167 -83.5 97.5s-28.5 110.833 -28.5 193.5v394h117v-366c0 -54 2 -97.167 6 -129.5s10.5 -56.666 19.5 -72.999s21.833 -27.166 38.5 -32.499s38 -8 64 -8s47.333 2.83301 64 8.5s29.5 16.5 38.5 32.5
s15.333 40.167 19 72.5s5.5 75.5 5.5 129.5v366h117v-385c0 -86 -9.5 -152.667 -28.5 -200s-46.667 -80.5 -83 -99.5s-80.833 -28.5 -133.5 -28.5zM175 761.998v94h121v-94h-121zM379 761.998v94h120v-94h-120zM309 900.998l-142 98l30 48l139 -60h7l138 60l30 -48l-141 -98
h-61z" />
    <glyph glyph-name="uni01DA" unicode="&#x1da;" horiz-adv-x="614" 
d="M232 -13c-34.667 0 -63.498 7.83301 -86.498 23.5s-40 39.167 -51 70.5s-16.5 71 -16.5 119v385h116v-362c0 -32.667 1 -58.167 3 -76.5s5.33301 -31.166 10 -38.499c5.33301 -6 12.333 -10.333 21 -13s18.667 -4 30 -4c25.333 0 51.333 5.16699 78 15.5
s50.667 21.166 72 32.499v446h115v-585h-75l-14 58h-6l-51 -28c-20.667 -11.333 -43.334 -21.333 -68.001 -30s-50.334 -13 -77.001 -13zM143.002 677v94h121v-94h-121zM347.002 677v94h120v-94h-120zM277.002 838l-142 107l31 46l138 -68h7l138 68l30 -46l-141 -107h-61z
" />
    <glyph glyph-name="uni01DB" unicode="&#x1db;" horiz-adv-x="679" 
d="M339 -14c-51.333 0 -95.333 9.33105 -132 27.998s-64.5 51.167 -83.5 97.5s-28.5 110.833 -28.5 193.5v394h117v-366c0 -54 2 -97.167 6 -129.5s10.5 -56.666 19.5 -72.999s21.833 -27.166 38.5 -32.499s38 -8 64 -8s47.333 2.83301 64 8.5s29.5 16.5 38.5 32.5
s15.333 40.167 19 72.5s5.5 75.5 5.5 129.5v366h117v-385c0 -86 -9.5 -152.667 -28.5 -200s-46.667 -80.5 -83 -99.5s-80.833 -28.5 -133.5 -28.5zM175 761.998v94h121v-94h-121zM379 761.998v94h120v-94h-120zM466 894.998l-268 55l24 89l261 -78z" />
    <glyph glyph-name="uni01DC" unicode="&#x1dc;" horiz-adv-x="614" 
d="M232 -13c-34.667 0 -63.498 7.83301 -86.498 23.5s-40 39.167 -51 70.5s-16.5 71 -16.5 119v385h116v-362c0 -32.667 1 -58.167 3 -76.5s5.33301 -31.166 10 -38.499c5.33301 -6 12.333 -10.333 21 -13s18.667 -4 30 -4c25.333 0 51.333 5.16699 78 15.5
s50.667 21.166 72 32.499v446h115v-585h-75l-14 58h-6l-51 -28c-20.667 -11.333 -43.334 -21.333 -68.001 -30s-50.334 -13 -77.001 -13zM143.002 677v94h121v-94h-121zM347.002 677v94h120v-94h-120zM409.002 828l-244 63l28 88l236 -86z" />
    <glyph glyph-name="uni01DE" unicode="&#x1de;" horiz-adv-x="536" 
d="M-2 0l191 699h156l191 -699h-120l-54 215l63 -44h-315l61 44l-53 -215h-120zM171 219l-39 53h270l-39 -53l-105 424l64 -51h-110l64 51zM103 762v94h121v-94h-121zM307 762v94h120v-94h-120zM92 925v79h352v-79h-352z" />
    <glyph glyph-name="uni01DF" unicode="&#x1df;" horiz-adv-x="593" 
d="M216 -13c-31.333 0 -59.334 7.33105 -84.001 21.998s-44 36 -58 64s-21 62 -21 102c0 48 10.167 85.667 30.5 113s49 46.833 86 58.5s80.5 17.5 130.5 17.5h92c0 31.333 -1.16699 56.5 -3.5 75.5s-6.5 33.167 -12.5 42.5c-5.33301 6.66699 -12.833 11.667 -22.5 15
s-23.5 5 -41.5 5c-24.667 0 -49.667 -2.16699 -75 -6.5s-48.5 -9.66602 -69.5 -15.999s-38 -11.666 -51 -15.999l-19.5 -6.5l-30 86l19.5 8.5c13 5.66699 30.667 12 53 19s47.5 13.333 75.5 19s57.667 8.5 89 8.5c50.667 0 90.834 -8.83301 120.501 -26.5
s50.834 -42.667 63.501 -75s19 -70.5 19 -114.5v-382h-74l-15 63h-6l-24 -16.5c-12 -8.33301 -26.833 -17 -44.5 -26s-37.334 -16.833 -59.001 -23.5s-44.5 -10 -68.5 -10zM243.999 83.998c21.333 0 42.5 3.33203 63.5 9.99902s39.167 13.834 54.5 21.501
s25.333 13.167 30 16.5v138c-4.66699 0.666992 -15.5 1.83398 -32.5 3.50098s-38.833 2.5 -65.5 2.5c-54 0 -87.333 -5.66699 -100 -17c-6.66699 -6 -12 -15.833 -16 -29.5s-6 -30.834 -6 -51.501c0 -32.667 5.5 -56.5 16.5 -71.5s29.5 -22.5 55.5 -22.5zM127.999 676.997
v94h121v-94h-121zM331.999 676.997v94h120v-94h-120zM115.999 857.997v79h353v-79h-353z" />
    <glyph glyph-name="Gcaron" unicode="&#x1e6;" horiz-adv-x="631" 
d="M339 -13c-36.667 0 -71.8301 4.8291 -105.497 14.4961s-63.334 27.5 -89.001 53.5s-45.834 63 -60.501 111s-22 110 -22 186c0 74.667 7 135.5 21 182.5s33.833 83.5 59.5 109.5s56.5 43.833 92.5 53.5s75.667 14.5 119 14.5c22 0 45.167 -1.16699 69.5 -3.5
s47.5 -5.16602 69.5 -8.49902s39.333 -6.33301 52 -9l-13 -97c-19.333 2 -44.833 4.83301 -76.5 8.5s-67.5 5.5 -107.5 5.5c-32 0 -57.167 -1.66699 -75.5 -5s-32.166 -9.66602 -41.499 -18.999c-11.333 -10.667 -21.833 -34.167 -31.5 -70.5s-14.5 -90.166 -14.5 -161.499
c0 -54 3 -97.167 9 -129.5s12.667 -56.666 20 -72.999s13.666 -27.5 18.999 -33.5c7.33301 -6.66699 19.5 -13 36.5 -19s42.167 -9 75.5 -9c19.333 0 36.666 1 51.999 3s28 4.66699 38 8v239l52 -55l-156 9v85h217v-348l-27 -10.5c-18 -7 -42.833 -14 -74.5 -21
s-67.5 -10.5 -107.5 -10.5zM311.004 746.996l-142 98l30 48l139 -60h7l138 60l30 -48l-141 -98h-61z" />
    <glyph glyph-name="gcaron" unicode="&#x1e7;" horiz-adv-x="541" 
d="M264 -179c-28.667 0 -55.8311 1.49805 -81.498 4.49805s-48.334 6.5 -68.001 10.5s-35.334 7.5 -47.001 10.5l-17.5 4.5l13 95c42.667 -7.33301 85.5 -13.666 128.5 -18.999s83.833 -8 122.5 -8c31.333 0 52.333 2.16699 63 6.5s16 11.166 16 20.499
c0 5.33301 -1.66699 10.166 -5 14.499s-9.83301 9.16602 -19.5 14.499s-24.334 12.166 -44.001 20.499s-45.834 18.833 -78.501 31.5l-73 29.5c-15.333 6.33301 -24.833 10.833 -28.5 13.5s-5.5 5 -5.5 7c0 3.33301 1.83301 10 5.5 20l13 34l14.5 36.5
c4.66699 11.667 8.33398 19.834 11.001 24.501c-45.333 12 -81 34.5 -107 67.5s-39 74.5 -39 124.5c0 54 11.5 96.5 34.5 127.5s53.667 53.167 92 66.5s79.5 20 123.5 20c14 0 30.833 -0.333008 50.5 -1s39.834 -1.66699 60.501 -3s40.167 -2.66602 58.5 -3.99902
s33.166 -2.33301 44.499 -3l17 -1v-70l-64 -10c0 0.666992 2.5 -5.33301 7.5 -18s9.83301 -28.667 14.5 -48s7 -39 7 -59c0 -37.333 -9 -71.166 -27 -101.499s-44.167 -54.166 -78.5 -71.499s-75.833 -26 -124.5 -26c-1.33301 -6 -2.83301 -14.333 -4.5 -25
s-2.5 -17 -2.5 -19s3 -4.33301 9 -7s16 -6.5 30 -11.5s33 -12.5 57 -22.5c40.667 -16.667 72.334 -32.5 95.001 -47.5s38.5 -30.167 47.5 -45.5s13.5 -31.333 13.5 -48c0 -28.667 -10 -53.167 -30 -73.5s-47.5 -35.666 -82.5 -45.999s-75.5 -15.5 -121.5 -15.5z
M260.003 271.998c29.333 0 52.335 3.33594 69.002 10.0029s28.667 18.834 36 36.501s11 42.167 11 73.5c0 30.667 -1.83301 55.667 -5.5 75s-7.5 30.666 -11.5 33.999c-2 1.33301 -7 2.66602 -15 3.99902s-17 2.16602 -27 2.49902s-19.333 0.666016 -28 0.999023
s-14.334 0.5 -17.001 0.5c-30.667 0 -55.334 -3 -74.001 -9s-32 -17.667 -40 -35s-12 -43 -12 -77c0 -45.333 8.5 -76 25.5 -92s46.5 -24 88.5 -24zM244.005 661.001l-142 107l31 46l138 -68h7l138 68l30 -46l-141 -107h-61z" />
    <glyph glyph-name="uni0218" unicode="&#x218;" horiz-adv-x="538" 
d="M260 -14c-29.333 0 -57.5 3.16797 -84.5 9.50098s-51.167 13.833 -72.5 22.5s-38 16.167 -50 22.5l-18 9.5l5 14l11.5 32.5c4.33301 12.333 8.33301 23 12 32l5.5 13.5l18 -8c12 -5.33301 28.167 -11.333 48.5 -18s43 -12.667 68 -18s50.5 -8 76.5 -8
c15.333 0 27.333 1.33301 36 4s15 5.33398 19 8.00098c10.667 7.33301 18.834 17.666 24.501 30.999s8.5 31.333 8.5 54c0 21.333 -5.83301 39.166 -17.5 53.499s-27.167 27 -46.5 38s-40.333 21.167 -63 30.5c-24 10.667 -47.333 21.667 -70 33s-42.834 24.5 -60.501 39.5
s-31.667 33.833 -42 56.5s-15.5 50.667 -15.5 84c0 36 8.5 68.167 25.5 96.5s42.167 51 75.5 68s74.666 25.5 123.999 25.5c23.333 0 45.833 -1.33301 67.5 -4s41.334 -5.66699 59.001 -9s31.667 -6.5 42 -9.5l15.5 -4.5l-19 -96l-16.5 3c-11 2 -25.667 4.5 -44 7.5
s-38.166 5.5 -59.499 7.5s-42.333 3 -63 3c-14.667 0 -26.334 -1 -35.001 -3s-16.334 -5.33301 -23.001 -10c-6.66699 -4 -13.167 -11.5 -19.5 -22.5s-9.5 -26.833 -9.5 -47.5s6 -38.167 18 -52.5s27.833 -26.5 47.5 -36.5s40.834 -19.667 63.501 -29
c20.667 -9.33301 42 -19.5 64 -30.5s42.167 -24 60.5 -39s33.166 -34.167 44.499 -57.5s17 -52 17 -86c0 -42 -9.5 -78.667 -28.5 -110s-45.667 -55.833 -80 -73.5s-74.166 -26.5 -119.499 -26.5zM216 -241.999l-25 44.001c16 8.66699 26.833 21.667 32.5 39
s8.5 42.666 8.5 75.999v29h90v-23c-1.33301 -36 -7.33301 -65.167 -18 -87.5s-24 -39.5 -40 -51.5s-32 -20.667 -48 -26z" />
    <glyph glyph-name="uni0219" unicode="&#x219;" horiz-adv-x="512" 
d="M262 -13c-27.333 0 -53.6689 2.66602 -79.002 7.99902s-48.166 11.5 -68.499 18.5s-36.333 13.167 -48 18.5l-17.5 8l29 93l17.5 -7c11.667 -4.66699 27.334 -10.5 47.001 -17.5s41 -13 64 -18s45.5 -7.5 67.5 -7.5c12.667 0 23.667 1.16699 33 3.5
s16.666 5.83301 21.999 10.5c6.66699 5.33301 12.334 13.333 17.001 24s7 23 7 37c0 22.667 -6.16699 40.167 -18.5 52.5s-28.333 22 -48 29s-41.167 13.5 -64.5 19.5c-20 6 -40 12.667 -60 20s-38.333 17 -55 29s-30 27.833 -40 47.5s-15 45.167 -15 76.5
c0 50 16 90.167 48 120.5s84.333 45.5 157 45.5c26 0 51 -1.83301 75 -5.5s45.333 -7.66699 64 -12s32.667 -8.16602 42 -11.499l-17 -92l-16 4c-10.667 2.66699 -24.667 5.5 -42 8.5s-36.5 5.83301 -57.5 8.5s-41.833 4 -62.5 4c-18.667 0 -32.667 -1 -42 -3
s-16.666 -5 -21.999 -9c-4 -3.33301 -7.66699 -8.83301 -11 -16.5s-5 -17.167 -5 -28.5c0 -21.333 6.66699 -38 20 -50s30.666 -21.333 51.999 -28l67 -21c20 -5.33301 39.5 -11.666 58.5 -18.999s36.5 -17 52.5 -29s28.667 -27.833 38 -47.5s14 -44.834 14 -75.501
c0 -56 -17.5 -101.333 -52.5 -136s-85.167 -52 -150.5 -52zM202.997 -242.001l-25 44.001c16 8.66699 26.833 21.667 32.5 39s8.5 42.666 8.5 75.999v29h90v-23c-1.33301 -36 -7.33301 -65.167 -18 -87.5s-24 -39.5 -40 -51.5s-32 -20.667 -48 -26z" />
    <glyph glyph-name="uni021A" unicode="&#x21a;" horiz-adv-x="493" 
d="M187 0l2 601l-195 -3v101h505v-101l-198 3l3 -601h-117zM188 -242l-25 44.001c16 8.66699 26.833 21.667 32.5 39s8.5 42.666 8.5 75.999v29h90v-23c-1.33301 -36 -7.33301 -65.167 -18 -87.5s-24 -39.5 -40 -51.5s-32 -20.667 -48 -26z" />
    <glyph glyph-name="uni021B" unicode="&#x21b;" horiz-adv-x="380" 
d="M255 -14c-31.333 0 -58.501 5.16504 -81.501 15.498s-40.667 29.833 -53 58.5s-18.5 71.334 -18.5 128.001v277h-67v72l72 14l22 138h89v-136h118v-90h-119v-280c0 -30.667 1.33301 -53 4 -67s7.66699 -22.833 15 -26.5s18.666 -5.5 33.999 -5.5
c10.667 0 20.834 0.333008 30.501 1s17.834 1.33398 24.501 2.00098l10 1v-94l-23 -4c-15.333 -2.66699 -34.333 -4 -57 -4zM151.999 -242.002l-25 44.001c16 8.66699 26.833 21.667 32.5 39s8.5 42.666 8.5 75.999v29h90v-23c-1.33301 -36 -7.33301 -65.167 -18 -87.5
s-24 -39.5 -40 -51.5s-32 -20.667 -48 -26z" />
    <glyph glyph-name="uni0237" unicode="&#x237;" horiz-adv-x="325" 
d="M55 -180c-10.667 0 -22.4971 0.667969 -35.4971 2.00098s-23.833 2.66602 -32.5 3.99902l-13 2l12 97l11 -1.5c7.33301 -1 16.666 -2 27.999 -3s22 -1.5 32 -1.5c16 0 28 3 36 9s13.333 18.833 16 38.5s4 50.5 4 92.5v526h115v-525c0 -60 -7.83301 -107.5 -23.5 -142.5
s-36.834 -60 -63.501 -75s-55.334 -22.5 -86.001 -22.5z" />
    <glyph glyph-name="circumflex" unicode="&#x2c6;" horiz-adv-x="344" 
d="M31 649l-31 46l142 107h61l141 -107l-30 -46l-138 68h-7z" />
    <glyph glyph-name="caron" unicode="&#x2c7;" horiz-adv-x="344" 
d="M142 658l-142 107l31 46l138 -68h7l138 68l30 -46l-141 -107h-61z" />
    <glyph glyph-name="breve" unicode="&#x2d8;" horiz-adv-x="339" 
d="M169 651c-28.667 0 -55.501 5 -80.501 15s-45.5 26 -61.5 48s-25 51.667 -27 89l67 7c4.66699 -30 15.834 -50.333 33.501 -61s40.5 -16 68.5 -16s51 5.33301 69 16s29.333 31 34 61l67 -7c-2.66699 -37.333 -12 -67 -28 -89s-36.333 -38 -61 -48s-51.667 -15 -81 -15z
" />
    <glyph glyph-name="dotaccent" unicode="&#x2d9;" horiz-adv-x="129" 
d="M0 675v96h129v-96h-129z" />
    <glyph glyph-name="ring" unicode="&#x2da;" horiz-adv-x="187" 
d="M94 642c-15.333 0 -30.166 2.83203 -44.499 8.49902s-26.166 14.834 -35.499 27.501s-14 30.334 -14 53.001c0 24 4.66699 42.5 14 55.5s21.166 22 35.499 27s29.166 7.5 44.499 7.5s30.166 -2.5 44.499 -7.5s26 -14 35 -27s13.5 -31.167 13.5 -54.5
s-4.5 -41.333 -13.5 -54s-20.667 -21.834 -35 -27.501s-29.166 -8.5 -44.499 -8.5zM94 692.999c13.333 0 22.833 2.66699 28.5 8s8.5 15.333 8.5 30c0 16 -2.83301 26.333 -8.5 31s-15.167 7 -28.5 7s-23.166 -2.33301 -29.499 -7s-9.5 -15 -9.5 -31
c0 -14.667 3.16699 -24.667 9.5 -30s16.166 -8 29.499 -8z" />
    <glyph glyph-name="ogonek" unicode="&#x2db;" horiz-adv-x="172" 
d="M102 -179c-30.667 0 -55.3301 6.33301 -73.9971 19s-28 32.667 -28 60c0 16.667 5.16699 32.667 15.5 48s24.166 29.333 41.499 42s35.666 23 54.999 31l60 -21c-28.667 -10 -51.834 -22.167 -69.501 -36.5s-26.5 -27.833 -26.5 -40.5c0 -10 4.16699 -16.833 12.5 -20.5
s19.5 -5.5 33.5 -5.5c10.667 0 21.667 0.666992 33 2l17 2v-72l-20 -4c-13.333 -2.66699 -30 -4 -50 -4z" />
    <glyph glyph-name="tilde" unicode="&#x2dc;" horiz-adv-x="351" 
d="M269 666c-12.667 0 -27.8301 2.5 -45.4971 7.5s-35.5 10.667 -53.5 17l-48.5 16.5c-14.333 4.66699 -24.166 7 -29.499 7c-4.66699 0 -9.33398 -3.5 -14.001 -10.5s-8.33398 -14.333 -11.001 -22l-4 -11.5l-63 8c0.666992 42 8.5 71.333 23.5 88s35.167 25 60.5 25
c13.333 0 28.5 -2.16699 45.5 -6.5s34.333 -9.5 52 -15.5l48 -16c14.333 -4.66699 24.166 -7 29.499 -7s10.166 3.5 14.499 10.5s8 14 11 21l4.5 10.5l62 -9c0 -40.667 -7.33301 -69.667 -22 -87s-34.667 -26 -60 -26z" />
    <glyph glyph-name="hungarumlaut" unicode="&#x2dd;" horiz-adv-x="600" 
d="M41 637l-41 52l152 129l53 -71zM228 637l-40 52l155 129l54 -71z" />
    <glyph glyph-name="gravecomb" unicode="&#x300;" 
d="M244 650l-244 63l28 88l236 -86z" />
    <glyph glyph-name="acutecomb" unicode="&#x301;" 
d="M21 650l-21 64l233 87l31 -88z" />
    <glyph glyph-name="uni0302" unicode="&#x302;" 
d="M31 649l-31 46l142 107h61l141 -107l-30 -46l-138 68h-7z" />
    <glyph glyph-name="tildecomb" unicode="&#x303;" 
d="M269 666c-12.667 0 -27.8301 2.5 -45.4971 7.5s-35.5 10.667 -53.5 17l-48.5 16.5c-14.333 4.66699 -24.166 7 -29.499 7c-4.66699 0 -9.33398 -3.5 -14.001 -10.5s-8.33398 -14.333 -11.001 -22l-4 -11.5l-63 8c0.666992 42 8.5 71.333 23.5 88s35.167 25 60.5 25
c13.333 0 28.5 -2.16699 45.5 -6.5s34.333 -9.5 52 -15.5l48 -16c14.333 -4.66699 24.166 -7 29.499 -7s10.166 3.5 14.499 10.5s8 14 11 21l4.5 10.5l62 -9c0 -40.667 -7.33301 -69.667 -22 -87s-34.667 -26 -60 -26z" />
    <glyph glyph-name="uni0304" unicode="&#x304;" 
d="M0 680v79h353v-79h-353z" />
    <glyph glyph-name="uni0306" unicode="&#x306;" 
d="M169 651c-28.667 0 -55.501 5 -80.501 15s-45.5 26 -61.5 48s-25 51.667 -27 89l67 7c4.66699 -30 15.834 -50.333 33.501 -61s40.5 -16 68.5 -16s51 5.33301 69 16s29.333 31 34 61l67 -7c-2.66699 -37.333 -12 -67 -28 -89s-36.333 -38 -61 -48s-51.667 -15 -81 -15z
" />
    <glyph glyph-name="uni0307" unicode="&#x307;" 
d="M0 675v96h129v-96h-129z" />
    <glyph glyph-name="uni0308" unicode="&#x308;" 
d="M0 677v94h121v-94h-121zM204 677v94h120v-94h-120z" />
    <glyph glyph-name="hookabovecomb" unicode="&#x309;" 
d="M0 782v71.001c7.33301 1.33301 17 2.33301 29 3s23.667 1 35 1c38 0 65 -7.33301 81 -22s24 -33 24 -55c0 -16.667 -3.16699 -31.834 -9.5 -45.501s-17.5 -27.667 -33.5 -42s-38 -30.5 -66 -48.5l-45 39c22 18.667 38.5 33.5 49.5 44.5s16.5 20.833 16.5 29.5
c0 16.667 -12 25 -36 25h-45z" />
    <glyph glyph-name="uni030A" unicode="&#x30a;" 
d="M94 642c-15.333 0 -30.166 2.83203 -44.499 8.49902s-26.166 14.834 -35.499 27.501s-14 30.334 -14 53.001c0 24 4.66699 42.5 14 55.5s21.166 22 35.499 27s29.166 7.5 44.499 7.5s30.166 -2.5 44.499 -7.5s26 -14 35 -27s13.5 -31.167 13.5 -54.5
s-4.5 -41.333 -13.5 -54s-20.667 -21.834 -35 -27.501s-29.166 -8.5 -44.499 -8.5zM94 692.999c13.333 0 22.833 2.66699 28.5 8s8.5 15.333 8.5 30c0 16 -2.83301 26.333 -8.5 31s-15.167 7 -28.5 7s-23.166 -2.33301 -29.499 -7s-9.5 -15 -9.5 -31
c0 -14.667 3.16699 -24.667 9.5 -30s16.166 -8 29.499 -8z" />
    <glyph glyph-name="uni030B" unicode="&#x30b;" 
d="M41 637l-41 52l152 129l53 -71zM228 637l-40 52l155 129l54 -71z" />
    <glyph glyph-name="uni030C" unicode="&#x30c;" 
d="M142 658l-142 107l31 46l138 -68h7l138 68l30 -46l-141 -107h-61z" />
    <glyph glyph-name="uni0312" unicode="&#x312;" 
d="M25 773l-25 -44.001c16 -8.66699 26.833 -21.667 32.5 -39s8.5 -42.666 8.5 -75.999v-29h90v23c-1.33301 36 -7.33301 65.167 -18 87.5s-24 39.5 -40 51.5s-32 20.667 -48 26z" />
    <glyph glyph-name="uni031B" unicode="&#x31b;" 
d="M-39 568l85.999 -0.00195312c10.667 0 18.667 2.16699 24 6.5s8 12.5 8 24.5c0 6.66699 -0.666992 15.334 -2 26.001s-3.33301 22.834 -6 36.501s-6 28.5 -10 44.5h96c4 -14.667 7.5 -29.667 10.5 -45s4.5 -29.333 4.5 -42c0 -28 -6.16699 -51 -18.5 -69
s-28.666 -31.5 -48.999 -40.5s-42.833 -13.5 -67.5 -13.5h-63z" />
    <glyph glyph-name="dotbelowcomb" unicode="&#x323;" 
d="M0 -161v95h127v-95h-127z" />
    <glyph glyph-name="uni0326" unicode="&#x326;" 
d="M25 -242l-25 44.001c16 8.66699 26.833 21.667 32.5 39s8.5 42.666 8.5 75.999v29h90v-23c-1.33301 -36 -7.33301 -65.167 -18 -87.5s-24 -39.5 -40 -51.5s-32 -20.667 -48 -26z" />
    <glyph glyph-name="uni0327" unicode="&#x327;" 
d="M79 -179c-20 0 -38.168 1.5 -54.501 4.5l-24.5 4.5v73l12 -1l28.5 -2.5s20.5 -1.5 28.5 -1.5c18 0 30.833 1.83301 38.5 5.5s11.5 12.167 11.5 25.5c0 16 -1.66699 32.333 -5 49s-5.66602 28 -6.99902 34l66 12c2 -4 4.5 -11 7.5 -21s6 -21.833 9 -35.5
s4.5 -27.5 4.5 -41.5c0 -32 -10.5 -57.5 -31.5 -76.5s-48.833 -28.5 -83.5 -28.5z" />
    <glyph glyph-name="uni0328" unicode="&#x328;" 
d="M102 -179c-30.667 0 -55.3301 6.33301 -73.9971 19s-28 32.667 -28 60c0 16.667 5.16699 32.667 15.5 48s24.166 29.333 41.499 42s35.666 23 54.999 31l60 -21c-28.667 -10 -51.834 -22.167 -69.501 -36.5s-26.5 -27.833 -26.5 -40.5c0 -10 4.16699 -16.833 12.5 -20.5
s19.5 -5.5 33.5 -5.5c10.667 0 21.667 0.666992 33 2l17 2v-72l-20 -4c-13.333 -2.66699 -30 -4 -50 -4z" />
    <glyph glyph-name="tonos" unicode="&#x384;" horiz-adv-x="600" 
d="M21 650l-21 64l233 87l31 -88z" />
    <glyph glyph-name="dieresistonos" unicode="&#x385;" horiz-adv-x="497" 
d="M0 677v94h121v-94h-121zM204 677v94h120v-94h-120zM41 828l-21 64l233 87l31 -88z" />
    </font>
</defs>
</svg>
