<svg viewBox="0 0 74 24" fill="none" xmlns="http://www.w3.org/2000/svg">
<path d="M0 23.1791V0.758659H5.2855C7.0791 0.758659 8.38986 1.18043 9.22302 2.02382C10.0562 2.86729 10.4754 4.16446 10.4754 5.91541V6.71615C10.4754 9.00619 9.72185 10.5116 8.20945 11.2322C9.95539 11.9102 10.8257 13.5063 10.8257 16.0313V17.8623C10.8257 19.5918 10.3746 20.9104 9.47247 21.8179C8.57034 22.7254 7.24893 23.1791 5.50838 23.1791H0ZM3.5024 19.9762H5.50838C6.11866 19.9762 6.57502 19.8107 6.8722 19.4745C7.17464 19.1434 7.32322 18.5723 7.32322 17.7715V15.8124C7.32322 14.7928 7.14814 14.0828 6.80316 13.6824C6.45824 13.2875 5.87979 13.0899 5.07319 13.0899H3.5024V19.9762ZM3.5024 9.88702H4.87155C5.5667 9.88702 6.0921 9.70554 6.44234 9.34786C6.7979 8.99018 6.97299 8.38165 6.97299 7.52754V6.27309C6.97299 5.47235 6.83505 4.8851 6.55378 4.51678C6.2725 4.14845 5.82148 3.96161 5.20055 3.96161H3.5024V9.88702ZM16.1757 23.1791V0.758659H21.4612C23.2548 0.758659 24.5655 1.18043 25.3987 2.02382C26.2372 2.86729 26.651 4.16446 26.651 5.91541V7.68236C26.651 9.98312 25.8869 11.4991 24.3533 12.2305C25.1918 12.5828 25.7914 13.1594 26.147 13.9494C26.5025 14.7448 26.6829 15.7643 26.6829 17.0029V20.4567C26.6829 21.7005 26.7891 22.608 27.0014 23.1791H23.4989C23.4193 22.9175 23.3609 22.7253 23.3344 22.5919C23.3026 22.4638 23.2707 22.2129 23.2336 21.8446C23.1964 21.4709 23.1805 21.0011 23.1805 20.4299V16.9121C23.1805 15.8818 23.0001 15.1452 22.6339 14.7074C22.2731 14.2697 21.6893 14.0508 20.8933 14.0508H19.6781V23.1791H16.1757ZM19.6781 10.8479H21.0472C21.7424 10.8479 22.2677 10.6664 22.618 10.3087C22.9736 9.95104 23.1486 9.33714 23.1486 8.47239V6.27309C23.1486 5.47235 23.0107 4.8851 22.7294 4.51678C22.4482 4.14845 21.9971 3.96161 21.3762 3.96161H19.6781V10.8479ZM31.3006 23.1791L34.8455 0.758659H40.2371L43.782 23.1791H40.2796L39.6693 19.1114H35.408L34.803 23.1791H31.3006ZM35.8644 16.0687H39.2129L37.5359 4.86374L35.8644 16.0687ZM46.712 0.758659H50.2145L52.9051 19.1648L55.5956 0.758659H59.098L55.6645 23.1791H50.1455L46.712 0.758659ZM63.3654 17.8036V6.13426C63.3654 4.34065 63.8271 2.95267 64.7452 1.97045C65.6632 0.993589 66.9793 0.502441 68.688 0.502441C70.4021 0.502441 71.7128 0.993589 72.6309 1.97045C73.5436 2.95267 74 4.34065 74 6.13426V17.8036C74 19.5972 73.5436 20.9851 72.6309 21.9673C71.7128 22.9443 70.4021 23.4353 68.688 23.4353C66.9793 23.4353 65.6632 22.9443 64.7452 21.9673C63.8271 20.9851 63.3654 19.5972 63.3654 17.8036ZM66.8678 18.0117C66.8678 19.4905 67.4781 20.2325 68.6933 20.2325C69.898 20.2325 70.4976 19.4905 70.4976 18.0117V5.91005C70.4976 4.44204 69.898 3.70539 68.6933 3.70539C67.4781 3.70539 66.8678 4.44204 66.8678 5.91005V18.0117Z" fill="#FAE750"/>
</svg>
