<svg viewBox="0 0 16 12" fill="none" xmlns="http://www.w3.org/2000/svg">
<path d="M0 12V4.31217C0 1.93465 1.93465 0 4.31217 0H11.3986C13.7767 0 15.7118 1.93465 15.7118 4.31217V5.63819C15.7118 8.01571 13.7772 9.95036 11.3997 9.95036H4.41214L0 12ZM4.31217 0.961368C2.46454 0.961368 0.961367 2.46454 0.961367 4.31217V10.4932L4.20029 8.98848H11.3997C13.2473 8.98848 14.7505 7.4853 14.7505 5.63767V4.31165C14.7505 2.46402 13.2468 0.96085 11.3986 0.96085H4.31217V0.961368ZM4.62917 4.23913C5.1342 4.23913 5.5434 4.64834 5.5434 5.15336C5.5434 5.65839 5.1342 6.0676 4.62917 6.0676C4.12414 6.0676 3.71494 5.65839 3.71494 5.15336C3.71494 4.64834 4.12414 4.23913 4.62917 4.23913ZM11.0821 4.23913C11.5872 4.23913 11.9964 4.64834 11.9964 5.15336C11.9964 5.65839 11.5872 6.0676 11.0821 6.0676C10.5771 6.0676 10.1679 5.65839 10.1679 5.15336C10.1679 4.64834 10.5771 4.23913 11.0821 4.23913ZM7.85514 4.23913C8.36017 4.23913 8.76937 4.64834 8.76937 5.15336C8.76937 5.65839 8.36017 6.0676 7.85514 6.0676C7.35011 6.0676 6.94091 5.65839 6.94091 5.15336C6.94091 4.64834 7.35011 4.23913 7.85514 4.23913Z" fill="white"/>
</svg>
