<svg viewBox="0 0 73 15" fill="none" xmlns="http://www.w3.org/2000/svg">
<path d="M4.47306 9.53146C4.4422 10.3383 4.23145 10.9434 3.84066 11.3469C3.47051 11.7192 2.94607 11.9055 2.26735 11.9055C1.5167 11.9055 0.956298 11.6571 0.586078 11.1606C0.19536 10.6538 0 9.5211 0 7.76263C0 6.86274 0.0410692 6.14642 0.123357 5.61366C0.205644 5.08098 0.359862 4.66463 0.586078 4.36464C0.956298 3.86814 1.5167 3.61989 2.26735 3.61989C2.93579 3.61989 3.45504 3.80085 3.82526 4.16292C4.21598 4.53533 4.43191 5.14046 4.47306 5.97827H3.22372C3.22372 5.55419 3.14143 5.24385 2.97693 5.04733C2.81236 4.85081 2.58103 4.75255 2.28282 4.75255C1.97431 4.75255 1.73781 4.86629 1.57323 5.09385C1.43959 5.26975 1.35478 5.54905 1.31875 5.93174C1.28278 6.31451 1.2648 6.92475 1.2648 7.76263C1.2648 8.59017 1.28278 9.19529 1.31875 9.57806C1.35478 9.96075 1.43959 10.2452 1.57323 10.4314C1.73781 10.659 1.97431 10.7727 2.28282 10.7727C2.57075 10.7727 2.79696 10.6745 2.96147 10.4779C3.13625 10.2814 3.22372 9.96596 3.22372 9.53146H4.47306ZM12.5043 5.60591C12.5814 6.13346 12.62 6.85239 12.62 7.76263C12.62 8.67295 12.5814 9.39181 12.5043 9.91936C12.4272 10.4469 12.2755 10.8607 12.0493 11.1606C11.6791 11.6571 11.1136 11.9055 10.3526 11.9055C9.60197 11.9055 9.04149 11.6571 8.67135 11.1606C8.44513 10.8607 8.29084 10.4443 8.20863 9.91161C8.12634 9.37892 8.0852 8.6626 8.0852 7.76263C8.0852 6.86274 8.12634 6.14642 8.20863 5.61366C8.29084 5.08098 8.44513 4.66463 8.67135 4.36464C9.04149 3.86814 9.60197 3.61989 10.3526 3.61989C11.1136 3.61989 11.6791 3.86814 12.0493 4.36464C12.2755 4.66463 12.4272 5.07836 12.5043 5.60591ZM11.3166 9.57806C11.3527 9.19529 11.3706 8.59017 11.3706 7.76263C11.3706 6.9351 11.3527 6.32999 11.3166 5.9473C11.2807 5.56453 11.1958 5.2801 11.0621 5.09385C10.8976 4.86629 10.6611 4.75255 10.3526 4.75255C10.0544 4.75255 9.823 4.86629 9.6585 5.09385C9.52479 5.2801 9.43739 5.56975 9.39625 5.96278C9.35518 6.35582 9.33461 6.95579 9.33461 7.76263C9.33461 8.56948 9.35518 9.16946 9.39625 9.5625C9.43739 9.95561 9.52479 10.2452 9.6585 10.4314C9.823 10.659 10.0544 10.7727 10.3526 10.7727C10.6611 10.7727 10.8976 10.659 11.0621 10.4314C11.1958 10.2452 11.2807 9.96075 11.3166 9.57806ZM21.0137 11.7813H19.7643V5.86966C19.7643 5.51801 19.6743 5.24645 19.4944 5.05506C19.3144 4.86376 19.0856 4.76804 18.808 4.76804C18.5304 4.76804 18.3042 4.86376 18.1293 5.05506C17.9545 5.24645 17.8671 5.51801 17.8671 5.86966V11.7813H16.6177V3.74398H17.8208V4.36464C17.934 4.16805 18.0985 4.00258 18.3144 3.86814C18.5817 3.70259 18.8697 3.61989 19.1782 3.61989C19.7438 3.61989 20.1962 3.8164 20.5356 4.20944C20.8543 4.56117 21.0137 5.11455 21.0137 5.86966V11.7813ZM29.3766 9.59354C29.3766 10.2555 29.1504 10.8141 28.6979 11.2692C28.2866 11.6934 27.7416 11.9055 27.0629 11.9055C26.3843 11.9055 25.8495 11.6985 25.4588 11.2848C25.0063 10.8193 24.7801 10.2297 24.7801 9.51597H26.014C26.014 9.92971 26.1272 10.2555 26.3534 10.4934C26.5385 10.6797 26.775 10.7727 27.0629 10.7727C27.3714 10.7727 27.6234 10.6745 27.8187 10.4779C28.0244 10.2711 28.1272 10.0021 28.1272 9.6711C28.1272 9.39181 28.0604 9.14876 27.9267 8.94182C27.793 8.73496 27.5565 8.54365 27.2172 8.36775L26.1837 7.8402C25.6696 7.5816 25.3045 7.27127 25.0886 6.90928C24.9241 6.61963 24.8418 6.26791 24.8418 5.85418C24.8418 5.21281 25.0629 4.66977 25.5051 4.225C25.9061 3.82154 26.4305 3.61989 27.0784 3.61989C27.7365 3.61989 28.2558 3.81119 28.6362 4.19396C29.0682 4.60769 29.2841 5.19733 29.2841 5.96278H28.0501C28.0501 5.52836 27.9524 5.20767 27.757 5.00081C27.5822 4.81456 27.356 4.72151 27.0784 4.72151C26.7904 4.72151 26.559 4.80942 26.3843 4.98525C26.1889 5.18184 26.0912 5.44045 26.0912 5.76106C26.0912 5.98862 26.1375 6.1852 26.23 6.35068C26.3431 6.5472 26.5642 6.72309 26.8932 6.87822L27.9113 7.39022C28.446 7.64882 28.8213 7.95402 29.0373 8.30567C29.2635 8.64705 29.3766 9.07634 29.3766 9.59354ZM37.5544 11.7813H36.3513V11.1606C36.2382 11.3572 36.0736 11.5227 35.8577 11.6571C35.5903 11.8227 35.3024 11.9055 34.994 11.9055C34.4284 11.9055 33.976 11.7089 33.6366 11.3158C33.3178 10.9641 33.1584 10.4107 33.1584 9.65562V3.74398H34.4078V9.65562C34.4078 10.0176 34.4978 10.2944 34.6778 10.4857C34.8577 10.6771 35.0865 10.7727 35.3641 10.7727C35.6418 10.7727 35.868 10.6771 36.0428 10.4857C36.2176 10.2944 36.305 10.0176 36.305 9.65562V3.74398H37.5544V11.7813ZM44.1744 11.7813C43.4134 11.7813 42.8376 11.6158 42.4468 11.2848C41.9738 10.8917 41.7373 10.2918 41.7373 9.48493V0.733887H42.9867V9.43841C42.9867 10.2452 43.3826 10.6486 44.1744 10.6486V11.7813ZM50.6246 11.7813C49.7917 11.7813 49.1798 11.6158 48.7891 11.2848C48.3263 10.902 48.0949 10.3021 48.0949 9.48493V4.72151H47.1849V3.74398H48.0949V1.54073H49.3443V3.74398H50.5783V4.72151H49.3443V9.43841C49.3443 10.2452 49.7711 10.6486 50.6246 10.6486V11.7813ZM55.5478 11.7813H54.2984V3.74398H55.5478V11.7813ZM55.6558 2.31654H54.1904V0.857976H55.6558V2.31654ZM64.1883 11.7813H62.939V5.86966C62.939 5.51801 62.849 5.24645 62.669 5.05506C62.489 4.86376 62.2602 4.76804 61.9827 4.76804C61.705 4.76804 61.4788 4.86376 61.3039 5.05506C61.1292 5.24645 61.0418 5.51801 61.0418 5.86966V11.7813H59.7923V3.74398H60.9954V4.36464C61.1086 4.16805 61.2731 4.00258 61.489 3.86814C61.7564 3.70259 62.0443 3.61989 62.3528 3.61989C62.9184 3.61989 63.3708 3.8164 63.7102 4.20944C64.029 4.56117 64.1883 5.11455 64.1883 5.86966V11.7813ZM72.5821 3.74398V11.9675C72.5821 13.0226 72.3661 13.7725 71.9343 14.2173C71.5435 14.631 71.0191 14.838 70.361 14.838C69.6822 14.838 69.1476 14.6466 68.7568 14.2638C68.3558 13.8605 68.1553 13.2812 68.1553 12.5261H69.4047C69.4047 12.9708 69.4921 13.2915 69.6669 13.488C69.8416 13.6639 70.0679 13.7518 70.3455 13.7518C70.6232 13.7518 70.8494 13.6536 71.0242 13.4571C71.2299 13.2398 71.3327 12.7692 71.3327 12.045V10.8193C71.1887 11.0262 71.0396 11.1762 70.8854 11.2692C70.6592 11.4348 70.3815 11.5176 70.0525 11.5176C69.5075 11.5176 69.0704 11.321 68.7414 10.9279C68.4946 10.6486 68.3275 10.2633 68.2401 9.77196C68.1527 9.28059 68.109 8.54365 68.109 7.56091C68.109 6.57824 68.1527 5.84382 68.2401 5.35766C68.3275 4.8715 68.4946 4.4836 68.7414 4.19396C69.0807 3.81119 69.5177 3.61989 70.0525 3.61989C70.3918 3.61989 70.6798 3.70259 70.9163 3.86814C71.091 3.98188 71.2402 4.12674 71.3635 4.30256V3.74398H72.5821ZM71.3327 9.23667V5.91626C71.3327 5.5128 71.2299 5.20767 71.0242 5.00081C70.8596 4.83525 70.6437 4.75255 70.3764 4.75255C70.0884 4.75255 69.8622 4.86116 69.6977 5.07837C69.564 5.24385 69.4766 5.49992 69.4355 5.84643C69.3944 6.19294 69.3738 6.76962 69.3738 7.57646C69.3738 8.38331 69.3944 8.95999 69.4355 9.3065C69.4766 9.65301 69.564 9.91422 69.6977 10.09C69.8828 10.3073 70.109 10.4159 70.3764 10.4159C70.6334 10.4159 70.8494 10.3279 71.0242 10.1521C71.2299 9.94526 71.3327 9.64005 71.3327 9.23667Z" fill="#FEFEFE"/>
</svg>
