<svg viewBox="0 0 30 25" fill="none" xmlns="http://www.w3.org/2000/svg">
<path d="M27.3633 1H2.63672C1.18465 1 0 2.19105 0 3.65385V21.3462C0 22.804 1.17938 24 2.63672 24H27.3633C28.8117 24 30 22.813 30 21.3462V3.65385C30 2.196 28.8206 1 27.3633 1ZM26.9992 2.76923L15.0559 14.7902L3.00932 2.76923H26.9992ZM1.75781 20.9798V4.01176L10.2234 12.4592L1.75781 20.9798ZM3.00076 22.2308L11.4717 13.7048L14.4398 16.6667C14.7834 17.0095 15.3379 17.0084 15.6801 16.6639L18.5742 13.751L26.9992 22.2308H3.00076ZM28.2422 20.9797L19.8172 12.5L28.2422 4.02019V20.9797Z" fill="white"/>
</svg>
