<svg viewBox="0 0 21 12" fill="none" xmlns="http://www.w3.org/2000/svg">
<path d="M10.4036 12C15.9904 12 20.4116 6.50014 20.5967 6.26614L20.8071 6L20.5967 5.73386C20.4116 5.49986 15.9904 0 10.4036 0C4.81671 0 0.395571 5.49986 0.210429 5.73386L0 6L0.210429 6.26614C0.395571 6.50014 4.81671 12 10.4036 12ZM10.4036 0.857143C14.901 0.857143 18.7479 4.91143 19.6993 6C18.7491 7.08943 14.9074 11.1429 10.4036 11.1429C5.90614 11.1429 2.05929 7.08857 1.10786 6C2.058 4.91057 5.89971 0.857143 10.4036 0.857143Z" fill="white"/>
<path d="M10.4036 9.85735C12.5306 9.85735 14.2607 8.12678 14.2607 6.00021C14.2607 3.87364 12.5306 2.14307 10.4036 2.14307C8.27659 2.14307 6.54645 3.87364 6.54645 6.00021C6.54645 8.12678 8.27659 9.85735 10.4036 9.85735ZM10.4036 3.00021C12.0574 3.00021 13.4036 4.34592 13.4036 6.00021C13.4036 7.65449 12.0574 9.00021 10.4036 9.00021C8.74973 9.00021 7.40359 7.65449 7.40359 6.00021C7.40359 4.34592 8.74973 3.00021 10.4036 3.00021Z" fill="white"/>
</svg>
