<svg viewBox="0 0 15 15" fill="none" xmlns="http://www.w3.org/2000/svg">
<path d="M7.50013 0C4.74318 0 2.50012 2.24306 2.50012 5.00001C2.50012 5.82765 2.70705 6.64825 3.10041 7.3761L7.22671 14.8389C7.28164 14.9384 7.38631 15 7.50013 15C7.61395 15 7.71863 14.9384 7.77356 14.8389L11.9014 7.37364C12.2932 6.64825 12.5001 5.82762 12.5001 4.99998C12.5001 2.24306 10.2571 0 7.50013 0ZM7.50013 7.5C6.12166 7.5 5.00014 6.37849 5.00014 5.00001C5.00014 3.62153 6.12166 2.50002 7.50013 2.50002C8.87861 2.50002 10.0001 3.62153 10.0001 5.00001C10.0001 6.37849 8.87861 7.5 7.50013 7.5Z" fill="white"/>
</svg>