<svg viewBox="0 0 74 96" fill="none" xmlns="http://www.w3.org/2000/svg">
<path d="M28.8554 32.0467C28.1622 32.6301 27.13 32.5378 26.5501 31.8406C25.97 31.1432 26.0618 30.1049 26.755 29.5215L45.3733 13.8909C47.2736 12.2956 49.649 11.6271 51.9449 11.8353C54.2178 12.0415 56.4116 13.1008 57.9912 14.9641C58.0387 15.0147 58.0825 15.0676 58.1224 15.1224C59.6586 17.0197 60.3009 19.3731 60.097 21.6487C59.8922 23.9341 58.8402 26.1395 56.9896 27.7286C56.9416 27.7743 56.8915 27.8165 56.8397 27.8553L38.2945 43.4242C37.6013 44.0075 36.569 43.9153 35.9891 43.218C35.4092 42.5207 35.5008 41.4823 36.194 40.8989L54.8122 25.2687C56.0248 24.2506 56.7124 22.8317 56.8439 21.3653C56.9737 19.917 56.5672 18.4207 55.5945 17.2142C55.5562 17.1725 55.5199 17.1289 55.486 17.0834C54.4789 15.9063 53.0936 15.2375 51.6631 15.1078C50.1982 14.9749 48.6839 15.4004 47.4738 16.4162L28.8554 32.0467Z" fill="#FAE750"/>
<path d="M19.4163 20.6695C18.7231 21.2529 17.6908 21.1607 17.1109 20.4634C16.531 19.7661 16.6227 18.7277 17.3158 18.1443L35.9345 2.51375C37.8346 0.918455 40.21 0.24999 42.5058 0.458122C44.8087 0.666923 47.0304 1.75143 48.6145 3.66094C49.1944 4.3582 49.1027 5.39663 48.4096 5.98C47.7163 6.56338 46.6841 6.47115 46.1041 5.77388C45.0926 4.55465 43.6818 3.86274 42.2241 3.73053C40.7593 3.59773 39.2449 4.02315 38.035 5.03902L19.4163 20.6695Z" fill="#FAE750"/>
<path d="M40.5449 8.07122C41.2381 7.48776 42.2704 7.58006 42.8503 8.27733C43.4303 8.97468 43.3386 10.013 42.6454 10.5964L24.0268 26.227C22.8148 27.2445 22.1271 28.6637 21.9956 30.13C21.8635 31.6036 22.2865 33.1269 23.2962 34.344L23.3016 34.3505C24.3127 35.5659 25.7211 36.2555 27.1763 36.3875C28.6412 36.5203 30.1555 36.0949 31.3654 35.079L49.9841 19.4486C50.6772 18.8652 51.7095 18.9575 52.2894 19.6547C52.8694 20.3521 52.7777 21.3905 52.0845 21.9739L33.4659 37.6043C31.5657 39.1996 29.1904 39.8681 26.8945 39.6599C24.6242 39.4541 22.4326 38.3969 20.8532 36.5372C20.8036 36.4848 20.7575 36.4291 20.7151 36.3705C19.1802 34.4736 18.5386 32.1213 18.7425 29.8466C18.9501 27.53 20.0283 25.2952 21.9264 23.7017L40.5449 8.07122Z" fill="#FAE750"/>
<path d="M0 76.179V53.7585H5.2855C7.0791 53.7585 8.38986 54.1803 9.22302 55.0237C10.0562 55.8672 10.4754 57.1643 10.4754 58.9153V59.716C10.4754 62.0061 9.72185 63.5114 8.20945 64.2321C9.95539 64.9101 10.8257 66.5062 10.8257 69.0312V70.8621C10.8257 72.5917 10.3746 73.9103 9.47247 74.8177C8.57034 75.7252 7.24893 76.179 5.50838 76.179H0ZM3.5024 72.9761H5.50838C6.11866 72.9761 6.57502 72.8106 6.8722 72.4743C7.17464 72.1433 7.32322 71.5721 7.32322 70.7714V68.8123C7.32322 67.7927 7.14814 67.0827 6.80316 66.6823C6.45824 66.2873 5.87979 66.0898 5.07319 66.0898H3.5024V72.9761ZM3.5024 62.8869H4.87155C5.5667 62.8869 6.0921 62.7054 6.44234 62.3477C6.7979 61.9901 6.97299 61.3815 6.97299 60.5274V59.273C6.97299 58.4722 6.83505 57.885 6.55378 57.5167C6.2725 57.1483 5.82148 56.9615 5.20055 56.9615H3.5024V62.8869ZM16.1757 76.179V53.7585H21.4612C23.2548 53.7585 24.5655 54.1803 25.3987 55.0237C26.2372 55.8672 26.651 57.1643 26.651 58.9153V60.6822C26.651 62.983 25.8869 64.499 24.3533 65.2304C25.1918 65.5827 25.7914 66.1592 26.147 66.9493C26.5025 67.7446 26.6829 68.7642 26.6829 70.0027V73.4565C26.6829 74.7003 26.7891 75.6078 27.0014 76.179H23.4989C23.4193 75.9174 23.3609 75.7252 23.3344 75.5918C23.3026 75.4637 23.2707 75.2128 23.2336 74.8445C23.1964 74.4708 23.1805 74.001 23.1805 73.4298V69.912C23.1805 68.8817 23.0001 68.145 22.6339 67.7073C22.2731 67.2696 21.6893 67.0507 20.8933 67.0507H19.6781V76.179H16.1757ZM19.6781 63.8478H21.0472C21.7424 63.8478 22.2677 63.6663 22.618 63.3086C22.9736 62.9509 23.1486 62.337 23.1486 61.4723V59.273C23.1486 58.4722 23.0107 57.885 22.7294 57.5167C22.4482 57.1483 21.9971 56.9615 21.3762 56.9615H19.6781V63.8478ZM31.3006 76.179L34.8455 53.7585H40.2371L43.782 76.179H40.2796L39.6693 72.1113H35.408L34.803 76.179H31.3006ZM35.8644 69.0685H39.2129L37.5359 57.8636L35.8644 69.0685ZM46.712 53.7585H50.2145L52.9051 72.1647L55.5956 53.7585H59.098L55.6645 76.179H50.1455L46.712 53.7585ZM63.3654 70.8035V59.1341C63.3654 57.3405 63.8271 55.9525 64.7452 54.9703C65.6632 53.9935 66.9793 53.5023 68.688 53.5023C70.4021 53.5023 71.7128 53.9935 72.6309 54.9703C73.5436 55.9525 74 57.3405 74 59.1341V70.8035C74 72.5971 73.5436 73.985 72.6309 74.9672C71.7128 75.9442 70.4021 76.4352 68.688 76.4352C66.9793 76.4352 65.6632 75.9442 64.7452 74.9672C63.8271 73.985 63.3654 72.5971 63.3654 70.8035ZM66.8678 71.0116C66.8678 72.4903 67.4781 73.2323 68.6933 73.2323C69.898 73.2323 70.4976 72.4903 70.4976 71.0116V58.9099C70.4976 57.4419 69.898 56.7053 68.6933 56.7053C67.4781 56.7053 66.8678 57.4419 66.8678 58.9099V71.0116Z" fill="#FAE750"/>
<path d="M4.47306 90.5315C4.4422 91.3384 4.23145 91.9435 3.84066 92.3469C3.47051 92.7193 2.94607 92.9055 2.26735 92.9055C1.5167 92.9055 0.956298 92.6572 0.586078 92.1607C0.19536 91.6538 0 90.5212 0 88.7627C0 87.8628 0.0410692 87.1465 0.123357 86.6137C0.205644 86.081 0.359862 85.6647 0.586078 85.3647C0.956298 84.8682 1.5167 84.62 2.26735 84.62C2.93579 84.62 3.45504 84.8009 3.82526 85.163C4.21598 85.5354 4.43191 86.1405 4.47306 86.9783H3.22372C3.22372 86.5542 3.14143 86.2439 2.97693 86.0474C2.81236 85.8509 2.58103 85.7526 2.28282 85.7526C1.97431 85.7526 1.73781 85.8664 1.57323 86.0939C1.43959 86.2698 1.35478 86.5491 1.31875 86.9318C1.28278 87.3146 1.2648 87.9248 1.2648 88.7627C1.2648 89.5902 1.28278 90.1954 1.31875 90.5781C1.35478 90.9608 1.43959 91.2452 1.57323 91.4315C1.73781 91.659 1.97431 91.7728 2.28282 91.7728C2.57075 91.7728 2.79696 91.6745 2.96147 91.478C3.13625 91.2815 3.22372 90.966 3.22372 90.5315H4.47306ZM12.5043 86.606C12.5814 87.1335 12.62 87.8525 12.62 88.7627C12.62 89.673 12.5814 90.3919 12.5043 90.9194C12.4272 91.447 12.2755 91.8608 12.0493 92.1607C11.6791 92.6572 11.1136 92.9055 10.3526 92.9055C9.60197 92.9055 9.04149 92.6572 8.67135 92.1607C8.44513 91.8608 8.29084 91.4444 8.20863 90.9117C8.12634 90.379 8.0852 89.6627 8.0852 88.7627C8.0852 87.8628 8.12634 87.1465 8.20863 86.6137C8.29084 86.081 8.44513 85.6647 8.67135 85.3647C9.04149 84.8682 9.60197 84.62 10.3526 84.62C11.1136 84.62 11.6791 84.8682 12.0493 85.3647C12.2755 85.6647 12.4272 86.0784 12.5043 86.606ZM11.3166 90.5781C11.3527 90.1954 11.3706 89.5902 11.3706 88.7627C11.3706 87.9352 11.3527 87.33 11.3166 86.9474C11.2807 86.5646 11.1958 86.2802 11.0621 86.0939C10.8976 85.8664 10.6611 85.7526 10.3526 85.7526C10.0544 85.7526 9.823 85.8664 9.6585 86.0939C9.52479 86.2802 9.43739 86.5698 9.39625 86.9628C9.35518 87.3559 9.33461 87.9559 9.33461 88.7627C9.33461 89.5695 9.35518 90.1695 9.39625 90.5626C9.43739 90.9557 9.52479 91.2452 9.6585 91.4315C9.823 91.659 10.0544 91.7728 10.3526 91.7728C10.6611 91.7728 10.8976 91.659 11.0621 91.4315C11.1958 91.2452 11.2807 90.9608 11.3166 90.5781ZM21.0137 92.7814H19.7643V86.8697C19.7643 86.5181 19.6743 86.2465 19.4944 86.0551C19.3144 85.8638 19.0856 85.7681 18.808 85.7681C18.5304 85.7681 18.3042 85.8638 18.1293 86.0551C17.9545 86.2465 17.8671 86.5181 17.8671 86.8697V92.7814H16.6177V84.744H17.8208V85.3647C17.934 85.1681 18.0985 85.0026 18.3144 84.8682C18.5817 84.7027 18.8697 84.62 19.1782 84.62C19.7438 84.62 20.1962 84.8165 20.5356 85.2095C20.8543 85.5612 21.0137 86.1146 21.0137 86.8697V92.7814ZM29.3766 90.5936C29.3766 91.2556 29.1504 91.8142 28.6979 92.2693C28.2866 92.6934 27.7416 92.9055 27.0629 92.9055C26.3843 92.9055 25.8495 92.6986 25.4588 92.2848C25.0063 91.8194 24.7801 91.2298 24.7801 90.516H26.014C26.014 90.9298 26.1272 91.2556 26.3534 91.4935C26.5385 91.6797 26.775 91.7728 27.0629 91.7728C27.3714 91.7728 27.6234 91.6745 27.8187 91.478C28.0244 91.2711 28.1272 91.0022 28.1272 90.6712C28.1272 90.3919 28.0604 90.1488 27.9267 89.9419C27.793 89.735 27.5565 89.5437 27.2172 89.3678L26.1837 88.8403C25.6696 88.5817 25.3045 88.2713 25.0886 87.9093C24.9241 87.6197 24.8418 87.268 24.8418 86.8542C24.8418 86.2129 25.0629 85.6698 25.5051 85.2251C25.9061 84.8216 26.4305 84.62 27.0784 84.62C27.7365 84.62 28.2558 84.8113 28.6362 85.194C29.0682 85.6077 29.2841 86.1974 29.2841 86.9628H28.0501C28.0501 86.5284 27.9524 86.2077 27.757 86.0009C27.5822 85.8146 27.356 85.7216 27.0784 85.7216C26.7904 85.7216 26.559 85.8095 26.3843 85.9853C26.1889 86.1819 26.0912 86.4405 26.0912 86.7611C26.0912 86.9887 26.1375 87.1853 26.23 87.3507C26.3431 87.5473 26.5642 87.7232 26.8932 87.8783L27.9113 88.3903C28.446 88.6489 28.8213 88.9541 29.0373 89.3057C29.2635 89.6471 29.3766 90.0764 29.3766 90.5936ZM37.5544 92.7814H36.3513V92.1607C36.2382 92.3573 36.0736 92.5227 35.8577 92.6572C35.5903 92.8227 35.3024 92.9055 34.994 92.9055C34.4284 92.9055 33.976 92.7089 33.6366 92.3159C33.3178 91.9642 33.1584 91.4108 33.1584 90.6557V84.744H34.4078V90.6557C34.4078 91.0177 34.4978 91.2944 34.6778 91.4857C34.8577 91.6771 35.0865 91.7728 35.3641 91.7728C35.6418 91.7728 35.868 91.6771 36.0428 91.4857C36.2176 91.2944 36.305 91.0177 36.305 90.6557V84.744H37.5544V92.7814ZM44.1744 92.7814C43.4134 92.7814 42.8376 92.6159 42.4468 92.2848C41.9738 91.8917 41.7373 91.2918 41.7373 90.485V81.7339H42.9867V90.4385C42.9867 91.2452 43.3826 91.6487 44.1744 91.6487V92.7814ZM50.6246 92.7814C49.7917 92.7814 49.1798 92.6159 48.7891 92.2848C48.3263 91.9021 48.0949 91.3022 48.0949 90.485V85.7216H47.1849V84.744H48.0949V82.5408H49.3443V84.744H50.5783V85.7216H49.3443V90.4385C49.3443 91.2452 49.7711 91.6487 50.6246 91.6487V92.7814ZM55.5478 92.7814H54.2984V84.744H55.5478V92.7814ZM55.6558 83.3166H54.1904V81.858H55.6558V83.3166ZM64.1883 92.7814H62.939V86.8697C62.939 86.5181 62.849 86.2465 62.669 86.0551C62.489 85.8638 62.2602 85.7681 61.9827 85.7681C61.705 85.7681 61.4788 85.8638 61.3039 86.0551C61.1292 86.2465 61.0418 86.5181 61.0418 86.8697V92.7814H59.7923V84.744H60.9954V85.3647C61.1086 85.1681 61.2731 85.0026 61.489 84.8682C61.7564 84.7027 62.0443 84.62 62.3528 84.62C62.9184 84.62 63.3708 84.8165 63.7102 85.2095C64.029 85.5612 64.1883 86.1146 64.1883 86.8697V92.7814ZM72.5821 84.744V92.9675C72.5821 94.0226 72.3661 94.7726 71.9343 95.2174C71.5435 95.6311 71.0191 95.838 70.361 95.838C69.6822 95.838 69.1476 95.6467 68.7568 95.2639C68.3558 94.8605 68.1553 94.2812 68.1553 93.5261H69.4047C69.4047 93.9709 69.4921 94.2916 69.6669 94.4881C69.8416 94.664 70.0679 94.7519 70.3455 94.7519C70.6232 94.7519 70.8494 94.6536 71.0242 94.4571C71.2299 94.2398 71.3327 93.7692 71.3327 93.0451V91.8194C71.1887 92.0263 71.0396 92.1762 70.8854 92.2693C70.6592 92.4348 70.3815 92.5176 70.0525 92.5176C69.5075 92.5176 69.0704 92.321 68.7414 91.928C68.4946 91.6487 68.3275 91.2634 68.2401 90.772C68.1527 90.2807 68.109 89.5437 68.109 88.561C68.109 87.5783 68.1527 86.8439 68.2401 86.3577C68.3275 85.8716 68.4946 85.4837 68.7414 85.194C69.0807 84.8113 69.5177 84.62 70.0525 84.62C70.3918 84.62 70.6798 84.7027 70.9163 84.8682C71.091 84.9819 71.2402 85.1268 71.3635 85.3026V84.744H72.5821ZM71.3327 90.2367V86.9163C71.3327 86.5129 71.2299 86.2077 71.0242 86.0009C70.8596 85.8353 70.6437 85.7526 70.3764 85.7526C70.0884 85.7526 69.8622 85.8612 69.6977 86.0784C69.564 86.2439 69.4766 86.5 69.4355 86.8465C69.3944 87.193 69.3738 87.7697 69.3738 88.5765C69.3738 89.3834 69.3944 89.96 69.4355 90.3066C69.4766 90.6531 69.564 90.9143 69.6977 91.0901C69.8828 91.3073 70.109 91.4159 70.3764 91.4159C70.6334 91.4159 70.8494 91.328 71.0242 91.1522C71.2299 90.9453 71.3327 90.6401 71.3327 90.2367Z" fill="#FEFEFE"/>
</svg>
