<svg viewBox="0 0 390 391" fill="none" xmlns="http://www.w3.org/2000/svg">
<g filter="url(#filter0_d)">
<path d="M112.274 279.231C106.362 284.205 97.5601 283.418 92.6147 277.474C87.6687 271.528 88.4512 262.676 94.3621 257.702L253.13 124.444C269.335 110.843 289.591 105.144 309.169 106.92C328.551 108.677 347.259 117.708 360.73 133.594C361.135 134.025 361.508 134.476 361.848 134.943C374.948 151.119 380.425 171.182 378.686 190.583C376.94 210.067 367.969 228.869 352.188 242.417C351.778 242.807 351.351 243.166 350.91 243.497L192.765 376.229C186.854 381.203 178.052 380.416 173.106 374.471C168.161 368.527 168.943 359.673 174.853 354.7L333.62 221.445C343.961 212.766 349.825 200.668 350.945 188.167C352.052 175.82 348.586 163.062 340.292 152.777C339.965 152.422 339.656 152.05 339.366 151.661C330.778 141.627 318.965 135.924 306.766 134.819C294.274 133.686 281.361 137.313 271.042 145.973L112.274 279.231Z" fill="#FAE750"/>
<path d="M31.8633 182.023C25.9649 186.993 17.1806 186.208 12.2457 180.267C7.31074 174.325 8.09094 165.478 13.9893 160.507L172.424 27.3297C188.594 13.7373 208.807 8.04173 228.343 9.81507C247.939 11.5941 266.844 20.8345 280.324 37.104C285.259 43.045 284.479 51.8927 278.581 56.8632C272.682 61.8338 263.898 61.048 258.963 55.107C250.355 44.7187 238.35 38.8235 225.946 37.697C213.481 36.5655 200.595 40.1903 190.298 48.8458L31.8633 182.023Z" fill="#FAE750"/>
<path d="M211.976 74.7171C217.887 69.7429 226.69 70.5298 231.636 76.4744C236.581 82.4195 235.799 91.272 229.888 96.2455L71.1179 229.504C60.7823 238.179 54.9175 250.278 53.7968 262.779C52.6698 275.342 56.2773 288.329 64.8878 298.705L64.9332 298.761C73.5556 309.123 85.5661 315.002 97.9753 316.128C110.467 317.26 123.38 313.633 133.697 304.972L292.468 171.715C298.379 166.741 307.182 167.528 312.128 173.472C317.073 179.417 316.291 188.27 310.38 193.244L151.609 326.501C135.406 340.102 115.15 345.801 95.5723 344.026C76.2116 342.272 57.523 333.259 44.0549 317.404C43.6321 316.957 43.239 316.482 42.8774 315.982C29.7885 299.811 24.3168 279.756 26.0559 260.363C27.826 240.613 37.0201 221.56 53.2061 207.975L211.976 74.7171Z" fill="#FAE750"/>
</g>
<defs>
<filter id="filter0_d" x="0" y="0.5" width="390" height="390" filterUnits="userSpaceOnUse" color-interpolation-filters="sRGB">
<feFlood flood-opacity="0" result="BackgroundImageFix"/>
<feColorMatrix in="SourceAlpha" type="matrix" values="0 0 0 0 0 0 0 0 0 0 0 0 0 0 0 0 0 0 127 0" result="hardAlpha"/>
<feOffset dx="1" dy="1"/>
<feGaussianBlur stdDeviation="5"/>
<feColorMatrix type="matrix" values="0 0 0 0 0 0 0 0 0 0 0 0 0 0 0 0 0 0 0.1 0"/>
<feBlend mode="normal" in2="BackgroundImageFix" result="effect1_dropShadow"/>
<feBlend mode="normal" in="SourceGraphic" in2="effect1_dropShadow" result="shape"/>
</filter>
</defs>
</svg>