<svg viewBox="0 0 20 20" fill="none" xmlns="http://www.w3.org/2000/svg">
<path d="M10.272 0C4.7905 0 1.87537 3.51266 1.87537 7.34283C1.87537 9.11916 2.86791 11.3343 4.45673 12.0368C4.69799 12.1455 4.82925 12.0993 4.883 11.8755C4.9305 11.7055 5.13926 10.8867 5.24052 10.5005C5.27177 10.3767 5.25552 10.2692 5.15551 10.153C4.62799 9.54293 4.20922 8.43163 4.20922 7.38908C4.20922 4.71771 6.33307 2.12385 9.94698 2.12385C13.0721 2.12385 15.2585 4.15394 15.2585 7.05782C15.2585 10.3392 13.5221 12.6093 11.2658 12.6093C10.017 12.6093 9.08694 11.6293 9.38195 10.4167C9.73822 8.9729 10.437 7.42033 10.437 6.37904C10.437 5.44524 9.90948 4.67271 8.83193 4.67271C7.56062 4.67271 6.52933 5.93152 6.52933 7.62159C6.52933 8.69539 6.90934 9.42042 6.90934 9.42042C6.90934 9.42042 5.65179 14.5007 5.41803 15.4494C5.02301 17.0558 5.47178 19.6571 5.51053 19.8809C5.53428 20.0046 5.67304 20.0434 5.75054 19.9421C5.8743 19.7796 7.39436 17.6108 7.82063 16.0432C7.97564 15.4719 8.61192 13.1556 8.61192 13.1556C9.03069 13.9119 10.2395 14.5457 11.527 14.5457C15.3572 14.5457 18.1248 11.1793 18.1248 7.00156C18.1111 2.99638 14.6834 0 10.272 0Z" fill="white"/>
</svg>
