<svg viewBox="0 0 18 20" fill="none" xmlns="http://www.w3.org/2000/svg">
<path d="M9.27199 0C3.7905 0 0.875366 3.51266 0.875366 7.34283C0.875366 9.11916 1.86791 11.3343 3.45673 12.0368C3.69799 12.1455 3.82925 12.0993 3.883 11.8755C3.9305 11.7055 4.13926 10.8867 4.24052 10.5005C4.27177 10.3767 4.25552 10.2692 4.15551 10.153C3.62799 9.54293 3.20922 8.43163 3.20922 7.38908C3.20922 4.71771 5.33307 2.12385 8.94698 2.12385C12.0721 2.12385 14.2585 4.15394 14.2585 7.05782C14.2585 10.3392 12.5221 12.6093 10.2658 12.6093C9.01698 12.6093 8.08694 11.6293 8.38195 10.4167C8.73822 8.9729 9.437 7.42033 9.437 6.37904C9.437 5.44524 8.90948 4.67271 7.83193 4.67271C6.56062 4.67271 5.52933 5.93152 5.52933 7.62159C5.52933 8.69539 5.90934 9.42042 5.90934 9.42042C5.90934 9.42042 4.65179 14.5007 4.41803 15.4494C4.02301 17.0558 4.47178 19.6571 4.51053 19.8809C4.53428 20.0046 4.67304 20.0434 4.75054 19.9421C4.8743 19.7796 6.39436 17.6108 6.82063 16.0432C6.97564 15.4719 7.61192 13.1556 7.61192 13.1556C8.03069 13.9119 9.23949 14.5457 10.527 14.5457C14.3572 14.5457 17.1248 11.1793 17.1248 7.00156C17.1111 2.99638 13.6834 0 9.27199 0Z" fill="white"/>
</svg>
