<svg viewBox="0 0 38 38" fill="none" xmlns="http://www.w3.org/2000/svg">
<path d="M37.5 17.7084C37.5072 20.4581 36.8647 23.1707 35.625 25.6251C34.1551 28.5662 31.8953 31.04 29.0989 32.7694C26.3024 34.4988 23.0797 35.4155 19.7917 35.4167C17.0419 35.4239 14.3294 34.7815 11.875 33.5417L0 37.5001L3.95833 25.6251C2.71861 23.1707 2.07616 20.4581 2.08333 17.7084C2.08461 14.4204 3.00127 11.1977 4.73067 8.40121C6.46006 5.60474 8.93386 3.34499 11.875 1.87506C14.3294 0.635333 17.0419 -0.00710993 19.7917 5.93502e-05H20.8333C25.1757 0.239626 29.2772 2.07248 32.3524 5.14768C35.4276 8.22289 37.2604 12.3243 37.5 16.6667V17.7084Z" fill="white"/>
</svg>